<svg xmlns="http://www.w3.org/2000/svg" viewBox="0 0 482.8 722.48"><defs><style>.cls-1{fill:#fff;}.cls-2{fill:#ff2400;}.cls-3{fill:#ffab2a;}.cls-4{font-size:79.22px;font-family:GuthenBlootsPersonalUse, Guthen Bloots Personal Use;}</style></defs><title>Signos</title><g id="Capa_2" data-name="Capa 2"><g id="Capa_1-2" data-name="Capa 1"><rect class="cls-1" x="5.5" y="199.04" width="279.54" height="214.5" transform="translate(8.95 -4.09) rotate(1.66)"/><path class="cls-2" d="M305.87,320.52l-.42,0c-1.43-.17-2.85-.31-4.28-.39-1.27,0-2.53-.07-3.79-.18a12.43,12.43,0,0,1-3.44-.21,2.56,2.56,0,0,1,.57-5l.76,0-.06,1.85c0,.59,0,1.18-.07,1.77a17.19,17.19,0,0,1,2.62.38c1.46.26,2.92.57,4.38.89l.76.18c.85.2,1.69.42,2.53.63Z"/><path class="cls-2" d="M363.91,328.38c1.74.46,2.28,2.37,2.11,4a75.07,75.07,0,0,1-7.38-2c-3.06-1-6.11-2-9.08-3.27a45.53,45.53,0,0,0-9.07-1.55c-6-.61-11.93-1.37-17.85-2.44q-1.58-.33-3.15-.63l-.72-.13.72.08.51.06.52.05.57.06.47,0,.53,0,.5,0h0l.39,0,.64,0c4,.05,7.94-.43,11.89.1,7.36,1,14.48,3.17,21.76,4.51A46,46,0,0,1,363.91,328.38Z"/><path class="cls-2" d="M319.49,322.49a2.54,2.54,0,0,1-3.45,2.44,27.72,27.72,0,0,1-8.87-2.92c-.69-.37-1.48-.74-1.72-1.53a.25.25,0,0,1,0-.07l.44.11c1.45.37,2.91.73,4.39,1,2.18.32,4.4.38,6.6.61l1.91.23.72.08Z"/><path class="cls-2" d="M287.81,148.69l-.1,0-.42-.08-.22,0h0l-.13,0-.3-.05-.2,0-.31-.06-.12,0-.13,0-.12,0a2.29,2.29,0,0,1-.37-.12l-.12,0-.21-.11-.08,0a2.78,2.78,0,0,1-.34-.26l-.12-.12a1.71,1.71,0,0,1-.11-.14.94.94,0,0,1-.09-.12l-.12-.18a2.23,2.23,0,0,1-.34-1.33v-.08s0-.06,0-.09,0-.07,0-.11,0-.05,0-.08l0-.12a.56.56,0,0,1,0-.12.78.78,0,0,1,0-.14,2.61,2.61,0,0,1,.5-.74l.09-.1.25-.21L285,144l.17-.11a1.51,1.51,0,0,1,.18-.09l.18-.08h0l.17-.05a1.94,1.94,0,0,1,.43-.11l.18,0h.23l.26,0a4.45,4.45,0,0,1,.46,2.56A19.55,19.55,0,0,0,287.81,148.69Z"/><path class="cls-2" d="M285,144a2.07,2.07,0,0,1,1.1,2.24,2,2,0,0,1-1.45,1.52l-.12-.12a1.71,1.71,0,0,1-.11-.14.94.94,0,0,1-.09-.12l-.12-.18a2.23,2.23,0,0,1-.34-1.33v-.08s0-.06,0-.09,0-.07,0-.11,0-.05,0-.08l0-.12a.56.56,0,0,1,0-.12.78.78,0,0,1,0-.14,2.61,2.61,0,0,1,.5-.74l.09-.1.25-.21Z"/><path class="cls-2" d="M236.54,196.82a34.17,34.17,0,0,1-4.11,2.69c-.71.36-1.54,1-2.39,1.35h0l-1.23-.1-1.1-.08-.43,0-.15-.16c-1.2-1.48.16-3.17,1.54-3.9l.62-.4h0Q232.92,196.46,236.54,196.82Z"/><path class="cls-2" d="M257.75,197.8a3.52,3.52,0,0,1-.25,1.68c-1.1,2.12-4.17,1.29-4.53-.92-.08-.26-.16-.52-.23-.77C254.41,197.79,256.07,197.78,257.75,197.8Z"/><path class="cls-3" d="M269.42,127.33c-5.31-.52-9.22-6.16-9-11.3.4-5.3,2.66-11.61,7.93-13.76,2.92-.61,3.87,3,1.24,4.19A12.56,12.56,0,0,0,265.28,118a6.28,6.28,0,0,0,4.28,4.5c2.53.11,5.21-2.07,6.65-4a9.88,9.88,0,0,0,.85-1.84,2.55,2.55,0,0,1,.58-2,2.24,2.24,0,0,1,3.74,2.27c-1,2-1.48,4.37-3.05,6.07C275.81,125.19,272.93,127.54,269.42,127.33Z"/><path d="M394.85,164s0,.08,0,.13,0,.08,0,.13v.06a2,2,0,0,1-.18.64l-.06.12,0,0a.67.67,0,0,1-.07.11,2.26,2.26,0,0,1-.43.49l-.07.06a2.06,2.06,0,0,1-.74.37l-.08,0-.1,0-.18,0h-.12a1.8,1.8,0,0,1-.6-.1l-.64-.35h0a16.54,16.54,0,0,0-5.09-1.71c-3.47-.91-6.38-2.19-9.84-2.9-2.4-.55-4.71-1.43-6.84-1.92-4.18-1-8.29-2.29-12.43-3.42a63.22,63.22,0,0,1-6.66-1.88c-1.07-.29-2.27,0-3.26-.55a2.19,2.19,0,0,1-1.08-2c-1-.89-.44-2.44-.86-3.68-1.3-5.19-2.07-10.49-3-15.72-1.61-11.6-3.58-23.44-4.5-35-.39-5.06-1.1-10.08-1.56-15.13a2.14,2.14,0,0,1,1-3.81c1.73-.13,3.58,0,5.19-.78,2.09-1.12,3.27-3.31,4.13-5.43a5.77,5.77,0,0,0-3.35-7.61,3.16,3.16,0,0,0-2-.1,9.66,9.66,0,0,0-5.74,2.76l-.12.12a2.37,2.37,0,0,1-.1,1.19,14.36,14.36,0,0,1-1.17,1.91c-.66,1.28-1.35,3.07-3.09,2.91-2.14-.2-2.4-2.77-3.14-4.36a39,39,0,0,0-7-10.66,44.21,44.21,0,0,0-5.38-3.11c-3.38-1.28-7-1.87-10.4-3.06-6.47-1.76-13.28-1.29-19.83-.32-3.82.67-7.75,1.32-11.2,3.17-1.36.68-2.71,1.4-4,2.21a27.8,27.8,0,0,1-2.77,2.54,54,54,0,0,0-4.86,5.06c.07.76.1,1.5.2,2.08.22,3.63,1.15,7.15,1.71,10.74a62.78,62.78,0,0,0,2.22,10.58,44.87,44.87,0,0,0,1.5,5.6c1.05,2.93,2.43,5.71,3.67,8.55a26.62,26.62,0,0,0,2.9,5.45,36.12,36.12,0,0,0,6.12,6.36,14.45,14.45,0,0,0,4.63,2.62c2.82.91,5.79,1.15,8.65,1.9,2.39.54,4.94.23,7.35.28,2.62-.26,3,2.65,3,4.63.26,3,.74,6.06,1,9.1.59,4.41.47,8.86,1.07,13.27.06,1.44.55,2.89.35,4.33-.94,2.91-4.74,1.78-7.06,1.84a26,26,0,0,1-6-1.21,18.56,18.56,0,0,1-5.8-1.9l-.16,0-.1,0-.42-.08-.22,0h0l-.13,0-.3-.05-.2,0-.31-.06-.12,0-.13,0-.12,0a2.29,2.29,0,0,1-.37-.12l-.12,0-.21-.11-.08,0a2.78,2.78,0,0,1-.34-.26l-.12-.12a1.71,1.71,0,0,1-.11-.14.94.94,0,0,1-.09-.12l-.12-.18a2.23,2.23,0,0,1-.34-1.33v-.08s0-.06,0-.09,0-.07,0-.11,0-.05,0-.08l0-.12a.56.56,0,0,1,0-.12.78.78,0,0,1,0-.14,2.61,2.61,0,0,1,.5-.74l.09-.1.25-.21L285,144l.17-.11a1.51,1.51,0,0,1,.18-.09l.18-.08h0l.17-.05a1.94,1.94,0,0,1,.43-.11l.18,0h.23l.26,0,.2,0c1.89.1,3.51,1.1,5.2,1.82,3.28.74,6.54,1.79,9.94,1.76-.69-4.42-.67-8.9-1.23-13.33-.23-3.57-1-7.07-1.16-10.65a33.1,33.1,0,0,1-10.13-1.35c-4.05-.77-8.22-1.86-11.37-4.66-1.47-1.31-2.84-2.72-4.31-4-3-2.82-4.91-6.54-6.6-10.24a58.54,58.54,0,0,1-4.54-10.92c-.48-2-1-3.89-1.59-5.81A31.17,31.17,0,0,1,260,80.07c-.38-3-1.13-6-1.55-9-.16-1.27-.24-2.54-.3-3.81l-1.7.45a16.87,16.87,0,0,0-4.31,1.94c-8.16,4.28-4.64,10.56-8.34,10.59-3.06-.53-1-4.76-.48-6.62,1.81-4.66,6.6-7.69,11.05-9.51,1.15-.43,2.46-.57,3.59-1.06a3.73,3.73,0,0,1,.21-.89,4.54,4.54,0,0,1-.09-.51,13.18,13.18,0,0,1,.48-7.61A12.92,12.92,0,0,1,261,49a21.59,21.59,0,0,1,3.25-3.88c1.36-1.06,2.71-2.13,4.07-3.18s3-1.95,4.44-2.95c4.71-2.77,10.15-4,15.39-5.45,2-.48,4-.9,6.1-1.22l-.27-.56c-2.12-4.82-4.95-9.78-4.61-15.21.84-7,5.88-12,11.77-15.17,2.6-1.52,5.67-1.57,8.57-1.16a11,11,0,0,1,7.62,4.37c2.6,2.88,3.51,6.8,3.48,10.61a21.9,21.9,0,0,1-3,11.12,56.26,56.26,0,0,1-3.48,6.78,35.32,35.32,0,0,1,9.32,4.28A16.41,16.41,0,0,1,327.53,40a30.31,30.31,0,0,1,5.6,5.31c2.34,3.38,5.55,6.1,7.24,9.91.56,1.29,2,3.19,1.83,4.67a6.59,6.59,0,0,1,2.72.49,10.14,10.14,0,0,1,6.21,9.9,11.15,11.15,0,0,1-2,4.81,1.49,1.49,0,0,1,.17.43c1.73,1.37.67,3.93.38,5.75-.73,3.38-2.6,6.32-4.44,9.19-1,1.29-1.66,3.33-3.42,3.59.21,2.19.38,4.38.54,6.57.44,5.56,1.23,11.08,1.91,16.61,1.27,9.79,2.5,19.66,4.73,29.29.18.9.35,1.8.61,2.68l.9.07a12.75,12.75,0,0,1,3.7.94c4.48,1.34,9,2.42,13.48,3.87,2.81,1,5.76,1.41,8.51,2.58,2.14.71,4.49,1.12,6.57,1.94,3.33,1.4,7,1.79,10.17,3.54a2.12,2.12,0,0,1,1.54.93l.07.11a1.19,1.19,0,0,1,.13.25.36.36,0,0,1,0,.09l0,.09,0,.08A1.54,1.54,0,0,1,394.85,164Z"/><path d="M281.9,61.59c-2.92-1.06-5.1-3.53-6.9-6-.67-1.19-2.37-2.39-1.72-3.91a1.55,1.55,0,0,1,2.55-.3v0c1.9,2.6,3.93,5.22,6.74,6.9C284.85,59.09,284.34,62.1,281.9,61.59Z"/><path d="M285.94,58.54a17,17,0,0,1-4.64-3.33c-1.14-1.23-3-2.24-3.29-4a1.34,1.34,0,0,1,1.58-1.42c1.48.74,2.63,2.07,4,3s2.69,2,4,3.05A1.59,1.59,0,0,1,285.94,58.54Z"/><path d="M286.64,99.06c-5.15-.58-1.6-8.26-1.85-11.52.1-2-1.09-3.79-1.27-5.73a1.66,1.66,0,0,1,2-1.49c1.44.39,1.88,2.1,2.33,3.35,1.66,4.14-.43,8.11-.68,12.26,2.73-1.06,3.62-4.05,4-6.67a1.6,1.6,0,0,1,3.1.43C294.07,93.57,291,99.13,286.64,99.06Z"/><path d="M296.07,109.33c-1.57-.41-4-3.09-3.45-4.78a1.55,1.55,0,0,1,2.61-.5c.6.6,1.14,1.26,1.74,1.85,1.81-1,1.11-4.82,3.79-4.44,2.76.92.64,4.59-.46,6.12A4.16,4.16,0,0,1,296.07,109.33Z"/><path d="M265.83,90.43c-3.38-1.47-4-6.82-1.2-9.14,4.15-3.05,6.77-5.13,12.11-3.5,1.85.45,5.07,2.31,3.81,4.56.89,1.43-.11,3.16-.8,4.47C277.28,91.51,270.33,92.25,265.83,90.43Zm4.51-2.69c2.72,0,6.47-.19,7.14-3.47a3.33,3.33,0,0,1,.15-1.6,9.77,9.77,0,0,0-5.51-1.22,22.9,22.9,0,0,0-4,1.87,7.71,7.71,0,0,0-1.52.83,2.48,2.48,0,0,0,.06,2.6C267.59,87.72,269.1,87.66,270.34,87.74Z"/><path d="M299.09,82.25c-1-.15-2.32-.25-2.87-1.28-2.84-.63-1.23-5-.3-6.75a14.84,14.84,0,0,1,8.73-7.65,38.32,38.32,0,0,1,7.29-.95c7.52.91,6.65,8,1.4,11.64a16.61,16.61,0,0,1-8.32,4A25.4,25.4,0,0,1,299.09,82.25Zm1.18-3.65a23.42,23.42,0,0,0,4.05-.73,16.48,16.48,0,0,0,5.27-1.94c1.57-1.15,3.55-2.35,4.38-4.16.22-.84.44-1.88-.52-2.31-1.66-.73-3.57,0-5.29.13a12.2,12.2,0,0,0-10,8.59A9.65,9.65,0,0,0,300.27,78.6Z"/><path d="M270.72,88.91a3.09,3.09,0,0,1-2.33-2.83c.05-1.3,1-2.92,2.46-2.61C274.6,83.33,274.51,89.37,270.72,88.91Z"/><path d="M304,79.85c-4.14-.69-1.84-7.26,1.83-6S307.29,80.15,304,79.85Z"/><path d="M308.61,66.82c-1.57-.36-1.09-2.23-.84-3.39.23-.94.52-2.24,1.7-2.31,1.54-.07,1.73,1.7,1.33,2.82S310.26,67.12,308.61,66.82Z"/><path d="M312.79,67.9c-1.51-.32-1.33-2.05-.93-3.18.33-.95.38-2.15,1.25-2.78a1.41,1.41,0,0,1,2.24,1.38h0C315,64.87,315.09,68.2,312.79,67.9Z"/><path d="M274.36,78.52c-1.73-.22-1.25-2.38-.92-3.56a2.24,2.24,0,0,1,1-1.53,1.52,1.52,0,0,1,2,2.1C276,76.59,275.92,78.57,274.36,78.52Z"/><path d="M278.1,79.84c-1.65-.38-1.21-2.14-1-3.36a3.5,3.5,0,0,1,.55-1.73,1.43,1.43,0,0,1,2-.12c1.06,1.13.53,2.88.18,4.21A1.56,1.56,0,0,1,278.1,79.84Z"/><path d="M261,75.24c-2.26-2,1.35-3.89,3.06-4.54a11.31,11.31,0,0,1,5.27-1.35,5.6,5.6,0,0,1,3.21.54,1.61,1.61,0,0,1-.38,2.84c-1.32.35-2.49,0-3.79.14a31.86,31.86,0,0,0-3.41,1C263.66,74.31,262.51,76.21,261,75.24Z"/><path d="M288,70.48a1.63,1.63,0,0,1-.63-2.64c1.76-2.69,3.23-5.63,5.78-7.71a23.94,23.94,0,0,1,7.71-4.27,29,29,0,0,1,5.3-.94c1.21-.3,3.05-.15,3.17,1.42s-1.67,1.88-2.9,1.87c-2.62.45-5.3.92-7.5,2.49a16.9,16.9,0,0,0-5.93,5C291.8,67,290,71.27,288,70.48Z"/><path d="M275.15,73.44c-1.28-.32-2.58-.6-3.86-.92a1.7,1.7,0,0,1-1.13-.25,1.75,1.75,0,0,1-.25-2.63c1.44-1.41,3.66-.28,5.36,0a7.94,7.94,0,0,1,2.55.91A1.82,1.82,0,0,1,277,73.7,3.47,3.47,0,0,1,275.15,73.44Z"/><path d="M272.38,102.38c-2.19-.27-1.29-4.29.67-4.12a1.33,1.33,0,0,1,.9,2.32C273.86,101.46,273.43,102.47,272.38,102.38Z"/><path d="M276.19,98.87a4.15,4.15,0,0,1-.08-1.72h0a1.49,1.49,0,0,1,2.77-.36,3.71,3.71,0,0,1,.13,2.09A1.45,1.45,0,0,1,276.19,98.87Z"/><path d="M307.28,88.62c-2.14-.24-1.54-4,.52-3.81a1.57,1.57,0,0,1,1.33,2.07C308.77,87.66,308.32,88.72,307.28,88.62Z"/><path d="M312.73,87.29c-2.05-.08-1.69-4.59.06-4.87C315.52,81.94,315,87.4,312.73,87.29Z"/><path d="M319.16,84.39c-2.29-.2-1.6-5.06.74-4.27,1,.32,1,1.23.88,2.09C320.86,83.23,320.37,84.5,319.16,84.39Z"/><path d="M346.75,100.15c-1.34-1.31-2.55-3.27-4.66-3.22a1.81,1.81,0,0,1-2.3-1.8c.08-1.46,1.72-1.84,2.92-1.75a8,8,0,0,1,6.6,5.29A1.57,1.57,0,0,1,346.75,100.15Z"/><path d="M353.75,97.74c-.76-.38-1.2-1.18-1.85-1.72-1.95-1.1-4.22-1-6.35-1.21-.9,0-1.89.55-2.65-.19a1.57,1.57,0,0,1-.36-1.87c1.27-1.86,4.06-1.11,6-1,2.08.32,4.35.6,6,2.1a3.71,3.71,0,0,1,1.44,2.66A1.51,1.51,0,0,1,353.75,97.74Z"/><path d="M49.82,203.81c1.67-2.57-1.28-7.22-1.41-10.25a26.71,26.71,0,0,1-.67-4.43h0a9.55,9.55,0,0,1-.15-1.31h0c-.58-4.82-1.52-10.44-4.07-8.26-3,7,2.06,13.92,4,20.53A2.06,2.06,0,0,1,48,202.6a2.6,2.6,0,0,0,1.62,1.26h.06Zm7.6-.92c1.35-.57,1.13-1.8,1.1-3-.15-3.07-.77-6.2-.86-9.26-.22-2.35.19-12.43-3.62-11.46l-.17.05h0l.17-.05-.18.06a22.14,22.14,0,0,0-2,5.84c0,.13,0,.26,0,.39a90.33,90.33,0,0,0,2.07,11.31,1.46,1.46,0,0,1,1,.92C55.82,199.33,56,201.64,57.42,202.89Zm9.9-6.29a50.3,50.3,0,0,0,.77-9.08,34.34,34.34,0,0,0-.48-4.17c-.33-1.42-.49-3.07-1.61-4.12-1.7,1.76-2.49,4.15-3.44,6.37-.21.45-.24,1-.44,1.41.14,2.23.18,4.48.48,6.67.11,1.28.37,2.75.55,4.24a1.48,1.48,0,0,1,.51.6,5.8,5.8,0,0,0,2.74,3.12C67.07,200.07,67,198.27,67.32,196.6ZM76,197a20,20,0,0,0-1-8.78c-.53-2.29-.74-4.92-2.51-6.65a3.57,3.57,0,0,1-.38.14,38,38,0,0,1,.7,4.41,34.55,34.55,0,0,1-.24,7.54A2.12,2.12,0,0,1,74.33,195C74.6,195.83,74.89,197.07,76,197ZM210.74,646.68l-1.06-.22a67,67,0,0,1-12.35-2.76c-1.57-.43-3.16-.78-4.76-1.12a4.31,4.31,0,0,1-.44,1.53c-.81,2.35-1.37,4.78-2.08,7.15-2.26,7.62-5,15.09-7.69,22.54l.52.16a59.46,59.46,0,0,0,7.22,1.32,63.36,63.36,0,0,0,11.2,1.44c.27-1,.53-2,.77-3,1.12-4.14,2.23-8.29,3.58-12.36C207.55,656.51,209,651.56,210.74,646.68ZM291.67,221c.09-3.31-.29-6.61-.28-9.92,0-2.37,0-4.75.09-7.13a29.11,29.11,0,0,1-4.94.15c-7.9-.46-15.76-1.62-23.69-1.51-8.18-.32-16.5.26-24.55-.93l-1.61-.18-1.07-.11-1.45-.14-2.06-.19-.13,0c-.65,0-1.29-.11-1.94-.15h0l-1.23-.1-1.1-.08-.43,0-2.23-.15-1.35-.08-1.45-.07-1.38-.07-1.1-.05-1,0-1,0-1.22-.05-1.25,0c-.78,0-1.57,0-2.35-.06-6.84,0-13.18,0-19.93-.31-5.51-.21-11-.54-16.51-.94-5.69-.23-11.38.11-17.07.24-12.06.51-24.13.31-36.18-.21a201,201,0,0,0-20.66-.38c-5.61-.07-11-.24-16.5-.16-1.73,0-3.46.08-5.19,0H80a3.47,3.47,0,0,1-1.47,2,5.11,5.11,0,0,1-4.63.48,5.43,5.43,0,0,1-2.21-1.55,16,16,0,0,1-1.11,4.48c-1.59,3.67-5.83,3.28-8.3.89a5.27,5.27,0,0,1-.74.91,6.56,6.56,0,0,1-4.12,2,4.75,4.75,0,0,1-3.52-1.57A4.92,4.92,0,0,1,49,208.44a6.89,6.89,0,0,1-4.85-3.21c-1.14-1.58-.31-3.62-1-5.32q-.49-1.31-1.05-2.61c-2.06,1.14-4.62.61-6.88,1.07-7.47.64-15-.08-22.46.66a2.2,2.2,0,0,1-.71.52c1,8.14.18,16.45.38,24.64.31,6.86.11,13.71,0,20.56-.05,13.41-.83,26.83-1.11,40.12-.22,8.19-.59,16.18-1.12,24.31,0,1.28,0,2.55,0,3.82l0,1.2c0,.14,0,.28,0,.42q0,1-.06,2.07c0,.45,0,.89,0,1.33L10,319.81l0,.73c-.06,1.84-.11,3.68-.12,5.52q0,1.81,0,3.63c-.05,11.68-1.47,23.31-2.22,35-.34,6.9-1,13.77-1.5,20.66-.32,6.8-.54,13.6-1,20.4-.11,1.84-.21,3.67-.26,5.51l.37,0c6.64.26,13.28.73,19.93.65,13-.23,25.92.46,38.88.58,7.24.39,14.49.28,21.73.64,7.29.59,14.59.43,21.89.49,13.78.38,27.56.24,41.33.43,5.74-.1,11.46-.14,17.19.15,10.93.18,21.83,1,32.76,1.27,19.52,0,39.24-.34,58.72-1.09,5.64.12,11.3.11,16.94-.16,3.54,0,7.12-.53,10.66-.42.13-1.56.23-3.12.33-4.68.52-6.12.57-12.35,1-18.45.09-4.33,0-8.66.12-13s.68-8.63.81-12.94c0-10.15,1.4-20.27,1.94-30.38.06-2.78.16-5.56.28-8.34q.14-3.26.29-6.5h0c0-.67.07-1.33.1-2l.09-2c0-.33,0-.66,0-1,0-.49,0-1,.05-1.47l.06-1.53c0-.1,0-.2,0-.29,0-.52,0-1,.05-1.55v-.16c0-.25,0-.49,0-.74s0-.41,0-.61c0-.42,0-.84,0-1.27s0-.92,0-1.39v-.07c0-.64,0-1.29,0-1.93.07-2.57.12-5.15.15-7.72,0-.54,0-1.19,0-1.82l-.42.21c-1.91,1.14-3.58,2.73-5.69,3.54s-4.47,1.49-6.69.8c-2.75-.75-3.23-3.94-2.35-6.3,1-2.62,3.12-4.6,4.57-7-2.59,1.23-5.77,3-8.57,1.44-2.61-1.64-2.25-5.43-.72-7.7a11.08,11.08,0,0,1,2-2.14c-3,.32-5.72-1.28-4.62-4.73a11.06,11.06,0,0,1,2.95-5.4,22.35,22.35,0,0,1,3.83-2.47c-2,.6-4.3.76-6.06-.53a4.13,4.13,0,0,1-.23-6.43,38.15,38.15,0,0,1,9.34-6,34.1,34.1,0,0,1,12.47-1.45,16.07,16.07,0,0,1,.22-2.4c.39-3.32.66-6.65.74-10C291.72,232,291.45,226.49,291.67,221ZM442.82,542.52c0-4,.83-8,1.36-12-2-.42-4-.84-6-1.1-4.07-.59-8.2-1-12.22-1.79a2.37,2.37,0,0,1-.7-.42c-1.94-.37-3.86-.85-5.81-1.22-.38,1.78-.84,3.56-1.08,5.37s-.46,3.35-.73,5-.74,3.55-1,5.34l3.09.71a31.16,31.16,0,0,1,5.25,1.68,2,2,0,0,1,.63.13,60,60,0,0,0,6.52,2,94.82,94.82,0,0,1,9.28,3.32c.15-.6.35-1.19.45-1.71A27.35,27.35,0,0,0,442.82,542.52Zm34.64-10.33c2.1.69,5.75,1,5.31,4.06a34.11,34.11,0,0,0-.68,3.46c-.08,2.08,0,4.16,0,6.23s.52,5-1.56,6.28c-1.31.56-2.83.28-4.21.22-2.3-.21-4.59-.39-6.87-.7,2.14,2.77,3,6.23,4.31,9.42.75,1.85,1.67,3.62,2.5,5.44a21.64,21.64,0,0,1,1.54,6,67.78,67.78,0,0,1,.66,11.82c-.13,2,0,4,0,6a14.44,14.44,0,0,1-1.71,6,14.64,14.64,0,0,1-3.55,5.07c-2.6,2.29-6.1,5.61-9.81,4-2.92-1.81-.06-5.31-.16-7.89a34.56,34.56,0,0,0,.42-10.14A42.94,42.94,0,0,0,459,571.69a45.29,45.29,0,0,0-5.35-8.62c-2-2.19-4.85-3.86-7.05-5.35A43.83,43.83,0,0,0,437,553c-2.58-1-5.22-1.94-7.88-2.73h0c-2.23-.19-4.25-1.32-6.33-2a43.61,43.61,0,0,0-6.45-1.66,39.69,39.69,0,0,1-.51,4.35c-.47,3.06-1.61,6-2.16,9a2.54,2.54,0,0,1-3.34,2.61c-.69-.34-1.81-1.1-2.36-1.31-7.32-3.36-15.62-3.37-23.07-6.32l-13.78-5A122,122,0,0,1,355.16,544c-1.91-.77-3.82-1.53-5.7-2.39-3.69-1.76-6.91-4.45-10.93-5.53a148,148,0,0,1-16.22-6.45,62.27,62.27,0,0,1-5.5-3.64,19.85,19.85,0,0,1-4.9-3.74,17.27,17.27,0,0,1-3.34-5.94c-1.25-2.93-2.75-5.8-3.26-9a111.45,111.45,0,0,1-1.3-14.47c-.25-9.83-1.58-19.68-.89-29.52.23-3.25.46-6.49.56-9.74,0-6.14-.6-12.26-.2-18.4,0-3.74-.16-7.48-.05-11.23s.49-7.29.58-10.94c-.11-4.74-.68-9.46-.56-14.2s.95-9.36,1.1-14.07a60.54,60.54,0,0,0-.54-7.65c-2.6,10.94-4,22.24-5.41,33.25A131.08,131.08,0,0,1,297,423.75c-3.53,13-6.44,25.86-10.76,38.54-2.08,5.77-5,11.06-6.5,16.84-1.91,6.31-3.43,12.73-5.55,19s-4.58,12.27-6.44,18.55c-2.1,6.57-3.74,13.27-5.68,19.88-2.05,6-4.64,11.78-6.45,17.85q-2.56,9.47-5.49,18.81c-2.15,6.2-4.51,12.32-6.72,18.5-1.81,4.53-3,9.27-4.4,13.93-1.65,5.25-4,10.22-6.12,15.29a102,102,0,0,0-4,12.18c-1.41,4.3-3.24,8.45-4.92,12.65l-.28.66a2.63,2.63,0,0,1-.4,1.44c0,.09,0,.19,0,.29a2.4,2.4,0,0,1-3.41,1.6,2.24,2.24,0,0,1-1.05-1.12c-1-.21-2.06-.46-3.08-.71-2,5.58-3.85,11.18-5.88,16.74-1.78,5.75-3.25,11.58-4.88,17.37a69.74,69.74,0,0,0-2.47,10.87c-.55,3.55-1.6,7-2.28,10.52-.57,3.82-.3,7.73-.92,11.55a4.47,4.47,0,0,1-.71,1.94c-1,1.42-3,1.09-4.54,1.07-3.3-.23-6.64-.55-9.92-.61-2.88.14-4.37-1.14-3.73-4.12.33-3.12,1.12-5.71,1.66-8.72a39.09,39.09,0,0,1-9.1,8.87c-2.19,1.33-4.6,2.25-6.77,3.62a22.66,22.66,0,0,1-9.18,3.74c-2.87.62-5.68,1.74-8.65,1.73-4.23-.11-8.66-1.14-11.92-4a4.67,4.67,0,0,1,.44-7.38c2.71-1.14,5.83-.91,8.68-1.58a29.26,29.26,0,0,0,8.57-3.43c1.59-1.12,3.07-2.41,4.61-3.6a38.68,38.68,0,0,0,11-11c3.13-5.09,4.95-10.8,7-16.35,2.75-7.57,5.76-15,8.23-22.71,1-3,1.76-6.14,2.91-9.12a9.29,9.29,0,0,1,.72-1.54,13.52,13.52,0,0,1-3.94-1.12,2.51,2.51,0,0,1-.61-3.44,27.48,27.48,0,0,0,1.05-4.25c.32-2.22.84-4.38,1.31-6.57a48.58,48.58,0,0,1,2.54-10c1.21-3.77,2.64-7.47,3.87-11.24.63-2.26,1.09-4.56,1.5-6.87.66-3.58,1.76-7,2.72-10.55a102.11,102.11,0,0,1,3.62-10.48c1.67-5.12,3.6-10.18,4.87-15.41,1.18-6.05,2.26-12.13,3.52-18.16.92-4.69,2.46-9.21,3.38-13.89.47-2.47.95-4.95,1.44-7.42,1.44-7.22,2.35-14.54,4.08-21.7,1.15-4.58,2.33-9.14,3.08-13.81,1.25-7.4,3-14.71,4.87-22,1.54-6.41,3-12.84,4.83-19.17,2.85-8.84,7.39-17,10.21-25.86q-11.26.33-22.55.32c-2.86,0-5.71,0-8.57,0-15.09.24-30-1.09-45.09-1.49-3.66-.21-7.47-.2-11.24-.19-2.52,0-5,0-7.43-.05-10.37,0-20.49-.23-30.76-.25-10.13-.41-19.82.14-29.86-.63-15.75-.53-31.52-.72-47.25-1.24-2.41,0-4.82,0-7.24,0-6.93,0-13.87.07-20.8-.36l-1-.05a1.21,1.21,0,0,0-.38-.18,4.33,4.33,0,0,0-1.08,0l-.83,0c-.6,0-1.2,0-1.8,0H4.85l-.37,0-.84,0-.91-.05L0,415.39v-.18c0-1.17,0-2.34.08-3.51.22-4.5.46-9,.76-13.48.39-6.83.33-13.68,1.14-20.49.87-11.57,1.56-23.16,2.59-34.72.47-6.36.66-12.65.57-18.95.46-8.15.24-16.31.94-24.44.58-15.15,1-30.43,1.52-45.51.05-6.88.19-13.76.31-20.65-.15-6.64-.18-13.27,0-19.92.06-4.62.15-9.25-.16-13.87a5.53,5.53,0,0,1,.22-3,1.93,1.93,0,0,1,1.49-1l.06-.09c2.26-2.15,8.56-1.45,11.64-1.66,2.59-.21,5.18,0,7.78-.06a70.26,70.26,0,0,0,7.54-.4c1.3,0,2.64-.3,3.95-.26C39,189.56,38,185.9,38.64,182c0-4.53,4.35-9.37,8.88-6.34A8.14,8.14,0,0,1,49.64,178c.14-.32.29-.63.45-.94,1.29-2.28,4.41-2.73,6.71-1.9a7.32,7.32,0,0,1,3.68,3.79c.06.13.11.26.16.38,1.37-2.73,3.84-5.54,7-4.16A7.18,7.18,0,0,1,70.62,178c2.64-1.81,5.62.64,6.84,3.12,1.43,2.49,1.8,5.38,2.46,8.13a19.34,19.34,0,0,1,.55,4.66c.71,0,1.43.11,2,.09,3.89.06,7.47-.07,11.3-.12,6.75.25,13.49,0,20.25,0,4.48,0,8.93.5,13.42.58,5.22.15,10.44.22,15.66.34,11.2,0,22.4-.76,33.6-.56l1.63.11c1.63.12,3.26.26,4.89.37l1.49.1h.14c.58,0,1.16.08,1.75.1s1.36.06,2,.08h.48l.63,0c12.18.77,24.4.07,36.59.95l1.7.12,1.22.09h0l1.82.14,1.81.15,1.81.16,1.76.18h0q2.78.28,5.53.63c3.65.3,7.17.33,10.67.34h5.86l1.15,0h.56l.84,0,.86,0,.6,0,.47,0,.5,0,1,.06c6.36,0,12.68.8,19,1.36a36.58,36.58,0,0,0,8.62.15v0l.22,0a2,2,0,0,1,3.08.72c1.12,3.41.54,7.18.72,10.72.06,4.16.49,8.81.23,12.82-.08,6.95.25,13.92-.45,20.86-.16,1.61-.3,3.23-.45,4.84a5.22,5.22,0,0,1-.14,1.23,13.73,13.73,0,0,1,2.45,1.16,44.92,44.92,0,0,0,3.81,2.75c3.12,1.81,6.32,3.48,9.54,5.12,4.32,2.55,9.25,3.62,14,5.15,3.61,1.26,7,3,10.7,4.09,5.79,1.45,11.4,3.54,17.07,5.37,3.3.94,6.69,1.52,10,2.58,2.56,1,5.24,1.57,7.83,2.46l.54.21.38.15c.4.16.8.31,1.21.45l.63.23.08,0,.71.25,2.16.7.58.18.67.21,1.06.33.82.25,1.87.59.47.15c.78.26,1.55.52,2.31.8l.46.17.35.13.56.22c2.05,1.67.17,4.31-2.23,3.68l-.61-.14c-7.63-1.75-15-4.62-22.48-6.83a135.21,135.21,0,0,1-16.23-4.88c-3.79-1.37-7.69-2.36-11.52-3.61-3-1-5.85-2.53-8.88-3.54-4.52-1.56-9.28-2.63-13.48-5-4-2.17-8.17-4.15-12.05-6.57-1.45-1-2.67-2.37-4.45-2.77-4.26-.9-8.78-.4-13,.37a28.88,28.88,0,0,0-9.25,5.13c.36.48,1.08.22,1.57.13,2.32-.66,4.6-1.45,7-1.9a43.71,43.71,0,0,1,6.25-.65,2.18,2.18,0,0,1,2.85,2.48,2.92,2.92,0,0,1-2.24,2,16.75,16.75,0,0,0-4.94,2.44,41.13,41.13,0,0,1-5,3.6c-2.06,1-4.16,2.21-4.76,4.58a30.93,30.93,0,0,0,8-3c2.19-1.16,6.2-4.77,7.91-1.25a2.06,2.06,0,0,1-1.1,2.58c-3.11,3.36-7.77,4.77-10.6,8.42-.94,1-2.58,1.82-2.55,3.39,1.89-.06,3.5-1.19,5.16-1.95,1.95-.86,3.92-1.64,5.8-2.64A14.61,14.61,0,0,1,289,277.4a2.16,2.16,0,0,1,1.83,2.86c-1.23,2.09-3.68,3.14-5.12,5.1-.77,1-1.35,2.14-2,3.21-1.23,2-3,3.66-3.87,5.85,4.19-.38,7-4.14,10.6-6,1.16-.94,2.47-2.08,4-1.94a1.75,1.75,0,0,1,.87-.54,4.75,4.75,0,0,1,2.47.23c.73.07,1.47.12,2.2.25,6.1,1.05,11.82,3.5,17.7,5.31,3.36.9,6.77,1.58,10.16,2.36,4.44.76,8.33,3.23,12.77,3.94,2.9.67,5.81,1.3,8.69,2,3.74,1.26,7.39,2.78,11.21,3.8,7.29,2.26,14.9,3.72,22,6.4h0l.11,0,1.43.56a2.21,2.21,0,0,1,.65.6,2.71,2.71,0,0,1,.21.37.61.61,0,0,1,.05.12,2.11,2.11,0,0,1,.14,1,.34.34,0,0,1,0,.1s0,.06,0,.09,0,.12,0,.18a.25.25,0,0,0,0,.07s0,0,0,0l0,.07,0,.09,0,.08a1.19,1.19,0,0,1-.12.22l-.06.1,0,0-.08.1-.09.09a.86.86,0,0,1-.14.13l-.1.08-.13.08-.13.07-.14.06h0l-.14.05h-.05l-.16,0-.16,0h-.34l-.68-.11-.5-.1h-.07l-.42-.09-.36-.07-.9-.21-.54-.14-.5-.13c-2.34-.63-4.62-1.39-7-2a217.71,217.71,0,0,1-24.36-7.4c-2.38-.6-4.78-1.18-7.15-1.85a33.31,33.31,0,0,1-7.37-2.22c-5.17-2.17-10.79-3-16.13-4.56-4.12-1.17-8.09-2.8-12.21-4a73.84,73.84,0,0,0-7.46-1.54c-.3-.06-.62-.1-.93-.15l0,0a4.4,4.4,0,0,1-1.56,1.27l-.29.18a1.9,1.9,0,0,1,.44,1.76c.22,4.14.33,8.27.31,12.42,0,3,0,5.94-.08,8.9l-.06,1.85c0,.59,0,1.18-.07,1.77a17.19,17.19,0,0,1,2.62.38c1.46.26,2.92.57,4.38.89l.76.18c.85.2,1.69.42,2.53.63l.44.11c1.45.37,2.91.73,4.39,1,2.18.32,4.4.38,6.6.61l1.91.23.72.08.51.06.52.05.57.06.47,0,.53,0,.5,0h0l.39,0,.64,0c4,.05,7.94-.43,11.89.1,7.36,1,14.48,3.17,21.76,4.51a46,46,0,0,1,6.62,1c1.74.46,2.28,2.37,2.11,4a4.08,4.08,0,0,1-.4,1.88c.06,6.74.21,13.52.09,20.28-.27,4.83-.85,9.66-1.48,14.45-1.09,5.39-1.75,10.85-2.45,16.3-1.39,9.07-3.21,18.06-4.92,27.08-.58,4.67-1.27,9.32-1.78,14-.27,3.55-.19,7.11-.66,10.64a87.2,87.2,0,0,0-1.22,16.85c.07,7.83,1.14,15.62,1.15,23.46-.1,3.06-.58,6.11-.76,9.17,0,2.41-.41,4.8-.59,7.18,2.49.87,4.74,2.28,7.12,3.38,2.22.94,4.55,1.57,6.81,2.42a70.55,70.55,0,0,1,7.12,3.43c3.67,1.47,7.51,2.46,11.09,4.17,4.19,1.86,8.6,3.13,12.82,4.91,4.7,2.61,9.77,3.8,14.85,5.15,1.61.45,3.23.92,4.82,1.48a2.54,2.54,0,0,1,2.51,2.47c0,.13,0,.25,0,.38l.58.14c2,.62,4.25.79,6.35,1.28a4.09,4.09,0,0,1,1.26.11c6.66,1.32,13.44,1.82,20.05,3.4,3.79.63,7.65.79,11.44,1.47A146.64,146.64,0,0,1,477.46,532.19Z"/><path class="cls-3" d="M344.33,94.69a10.13,10.13,0,0,1-8.26-4.55c-3.73-4-3.56-11,1-14.31,1.65-1.19,4-4.1,6.11-2.39A2,2,0,0,1,342.08,77a15.29,15.29,0,0,0-3.68,3.45c-1.72,3-.15,6,2.16,8.1a5.8,5.8,0,0,0,4.24,1.72,10.69,10.69,0,0,0,3.92-.95,5,5,0,0,0,2.36-1.6,19.66,19.66,0,0,0,2-3.19c.53-2.1.75-4.83-1.16-6.3a4.51,4.51,0,0,0-1.69-.67A2.11,2.11,0,0,1,349,74.84c1.64-3.56,6.39.83,7.27,3,2.13,4.38.73,9.76-2.57,13.18A14.3,14.3,0,0,1,344.33,94.69Z"/><path class="cls-3" d="M418.33,288.25c-1.65-4.32-4.18-8.28-5.54-12.71-1.14-4-1.75-8.12-3.18-12-3.39-8.72-5.81-17.78-9.89-26.23-1.51-3.32-2.59-6.82-4.26-10-2.18-3.58-3.95-7.37-6-11-2.95,8.93-3.9,18.35-5,27.65-.78,5.7-.88,11.45-1.37,17.17-.84,6.71-.92,13.48-1.9,20.17,1.11.29,2.19.69,3.32.92a5.43,5.43,0,0,1,2.8,1c2.44.57,4.86,1.25,7.32,1.71,3.61.64,6.65.61,10.09.91C409.34,286.26,413.77,287.61,418.33,288.25Zm35.79-9.89c1.73,12.43,3.64,28.82-3.71,39.72-2.18,3.36-5.19,6.51-9.19,7.56A31.16,31.16,0,0,1,429.47,327c-5.52-.18-10.9-1.37-16.36-2-5.5-.46-10.76-2.1-16.12-3.28-4.77-.65-8.11-1.12-10.42-1.68.38.89.76,1.78,1.15,2.65a57.85,57.85,0,0,1,3.14,7.34c.43,1.26,1,2.45,1.52,3.66.6,3.07-2.15,3.81-4.62,3.28-3.93-.25-7.67-1.39-11.45-2.41-3.41-.75-6.87-1.36-10.29-2.12.17-1.62-.37-3.53-2.11-4a46,46,0,0,0-6.62-1c-7.28-1.34-14.4-3.54-21.76-4.51-3.95-.53-7.93-.05-11.89-.1l-.64,0-.39,0h0l-.5,0-.53,0-.47,0-.57-.06-.52-.05-.51-.06-.72-.08-1.91-.23c-2.2-.23-4.42-.29-6.6-.61-1.48-.27-2.94-.63-4.39-1l-.44-.11c-.84-.21-1.68-.43-2.53-.63l-.76-.18c-1.46-.32-2.92-.63-4.38-.89a17.19,17.19,0,0,0-2.62-.38c0-.59.05-1.18.07-1.77l.06-1.85c.08-3,.12-5.93.08-8.9,0-4.15-.09-8.28-.31-12.42a1.9,1.9,0,0,0-.44-1.76l.29-.18a4.4,4.4,0,0,0,1.56-1.27l0,0c.31.05.63.09.93.15a73.84,73.84,0,0,1,7.46,1.54c4.12,1.18,8.09,2.81,12.21,4,5.34,1.56,11,2.39,16.13,4.56a33.31,33.31,0,0,0,7.37,2.22c2.37.67,4.77,1.25,7.15,1.85a217.71,217.71,0,0,0,24.36,7.4c2.37.61,4.65,1.37,7,2l.5.13.54.14.9.21.36.07.42.09h.07l.5.1.68.11h.34l.16,0,.16,0h.05l.14-.05h0l.14-.06.13-.07.13-.08.1-.08a.86.86,0,0,0,.14-.13l.09-.09.08-.1,0,0,.06-.1a1.19,1.19,0,0,0,.12-.22l0-.08,0-.09,0-.07s0,0,0,0a.64.64,0,0,0,0-.07c0-.06,0-.12,0-.18a.28.28,0,0,0,0-.09.34.34,0,0,0,0-.1,2.11,2.11,0,0,0-.14-1,.61.61,0,0,0-.05-.12,2.71,2.71,0,0,0-.21-.37,2.21,2.21,0,0,0-.65-.6l-1.43-.56-.11,0h0a70.32,70.32,0,0,0,.93-9c.13-4.47-.75-8.8-.66-13.3l.61.14c2.4.63,4.28-2,2.23-3.68l-.56-.22-.35-.13-.46-.17c-.76-.28-1.53-.54-2.31-.8l-.47-.15-1.87-.59-.82-.25-1.06-.33-.67-.21-.58-.18-2.16-.7-.71-.25-.08,0-.63-.23c-.41-.14-.81-.29-1.21-.45l-.38-.15-.54-.21c-2.59-.89-5.27-1.48-7.83-2.46-3.27-1.06-6.66-1.64-10-2.58-5.67-1.83-11.28-3.92-17.07-5.37-3.68-1.06-7.09-2.83-10.7-4.09-4.72-1.53-9.65-2.6-14-5.15-3.22-1.64-6.42-3.31-9.54-5.12a44.92,44.92,0,0,1-3.81-2.75,13.73,13.73,0,0,0-2.45-1.16,5.22,5.22,0,0,0,.14-1.23c.15-1.61.29-3.23.45-4.84.7-6.94.37-13.91.45-20.86.26-4-.17-8.66-.23-12.82-.18-3.54.4-7.31-.72-10.72a2,2,0,0,0-3.08-.72l-.22,0v0a36.58,36.58,0,0,1-8.62-.15c-6.33-.56-12.65-1.38-19-1.36l-1-.06-.5,0-.47,0-.6,0-.86,0-.84,0h-.56l-1.15,0h-5.86a59.58,59.58,0,0,1-2-9.79c-3.38,1.95-6.94,3.55-10.22,5.67-1.33,1.06-2.65,2.13-4,3.15h0l-1.76-.18-1.81-.16-1.81-.15-1.82-.14h0l-1.22-.09-1.7-.12c-12.19-.88-24.41-.18-36.59-.95l-.63,0h-.48c-.68,0-1.36,0-2-.08l-1.75-.1h-.14l-1.49-.1c-1.63-.11-3.26-.25-4.89-.37a2,2,0,0,1,.51-.55c.43-.32.84-.69,1.24-1a46,46,0,0,0,4.19-4.52,35.17,35.17,0,0,1,4.67-4.54c5.34-5.38,10.71-10.84,17.22-14.83,4.66-3,9-6.42,13.42-9.66a112.82,112.82,0,0,1,10.26-5.72,109.26,109.26,0,0,1,10.2-5.23,88.11,88.11,0,0,1,34.12-6c1.64.11,5.89.1,8.85.94a2.25,2.25,0,0,1,3.48-.06,4.1,4.1,0,0,1,.26.41l-.26,0h-.23l-.18,0a1.94,1.94,0,0,0-.43.11l-.17.05h0l-.18.08a1.51,1.51,0,0,0-.18.09L285,144l-.12.08-.25.21-.09.1a2.61,2.61,0,0,0-.5.74.78.78,0,0,0,0,.14.56.56,0,0,0,0,.12l0,.12s0,.05,0,.08,0,.07,0,.11,0,.06,0,.09v.08a2.23,2.23,0,0,0,.34,1.33l.12.18a.94.94,0,0,0,.09.12.76.76,0,0,0,.11.14l.12.12a2.78,2.78,0,0,0,.34.26l.08,0,.21.11.12,0a2.29,2.29,0,0,0,.37.12l.12,0,.13,0,.12,0,.31.06.2,0,.3.05.13,0h0l.22,0,.42.08.1,0a14.6,14.6,0,0,0,2.37,4.81c2.31,2.92,4.56,6,7.44,8.38a91.45,91.45,0,0,0,22.24,12.27,96,96,0,0,0,14.23,3.41c2.49.31,5,.15,7.51.25a43.54,43.54,0,0,0,7.4.07c1.85-.25,3.69-.57,5.55-.8a45.67,45.67,0,0,0,10.82-2.35c1.73-.49,3.49-.81,5.23-1.22A101.11,101.11,0,0,0,381.07,170a44.82,44.82,0,0,0,9.93-4,3.4,3.4,0,0,0,.54-.27h0l.64.35a1.8,1.8,0,0,0,.6.1h.12l.18,0,.1,0,.08,0a2.06,2.06,0,0,0,.74-.37l.07-.06a2.26,2.26,0,0,0,.43-.49l.07-.11,0,0,.06-.12a2,2,0,0,0,.18-.64v-.06c0-.05,0-.09,0-.13s0-.09,0-.13a1.54,1.54,0,0,0-.05-.31l0-.08,0-.09a.36.36,0,0,0,0-.09,1.19,1.19,0,0,0-.13-.25l-.07-.11c1.58-.61,4.13.06,5.6.65,1.68.54,3.41.92,5.09,1.48,2.51.9,4.59,2.67,6.84,4.06a52,52,0,0,1,15,19.39c1.2,2.21,2.5,4.36,3.65,6.6,2.23,4.28,3.31,9,5.39,13.37a37.05,37.05,0,0,1,3.48,7.57c.73,2.52,1.42,5.07,2.37,7.52,1.32,3.76,3.15,7.31,4.33,11.12,1.87,6.49,3.11,13.35,4.81,19.84C453,262.46,452.89,270.5,454.12,278.36Z"/><path class="cls-1" d="M209.68,646.46l1.06.22c-1.72,4.88-3.19,9.83-5.09,14.65-1.35,4.07-2.46,8.22-3.58,12.36-.24,1-.5,2-.77,3a63.36,63.36,0,0,1-11.2-1.44,59.46,59.46,0,0,1-7.22-1.32l-.52-.16c2.74-7.45,5.43-14.92,7.69-22.54.71-2.37,1.27-4.8,2.08-7.15a4.31,4.31,0,0,0,.44-1.53c1.6.34,3.19.69,4.76,1.12A67,67,0,0,0,209.68,646.46Z"/><path class="cls-1" d="M246.28,184.41c-1.08-.21-1.52-1.49-2.17-2.26-.47-.68-1.11-1.24-1.62-1.87-.66-1.18.76-2.11,1.74-1.32a.79.79,0,0,1,.57.48,15.24,15.24,0,0,1,2.52,3.24A1.13,1.13,0,0,1,246.28,184.41Z"/><path class="cls-1" d="M342.83,240.35c-4.61-.37-7.94-4-11.22-6.83a.86.86,0,0,1,.67-1.48,2.83,2.83,0,0,1,1.6.93c2.16,1.85,4.37,3.89,7.09,4.85a22.88,22.88,0,0,0,7.59.68c2.34-.74,4.09-2.69,6.39-3.53a1,1,0,0,1,.87,1.82c-2,1-3.7,2.34-5.65,3.32C347.81,241.12,345.28,240.6,342.83,240.35Z"/><path class="cls-1" d="M342.05,504.72c-1.17-1.25.9-2.35,1.6-3.2a25.22,25.22,0,0,0,3.11-3.43A1.91,1.91,0,0,1,348,498a.73.73,0,0,1,.1,1.44,12.5,12.5,0,0,1-2.21,3C344.93,503.16,343.38,505.83,342.05,504.72Z"/><path class="cls-1" d="M343.06,493.85a23.38,23.38,0,0,0-5.54-2.61c-1-.35-2.91-.41-2.63-1.94.56-2.19,4.67.12,6,.62,2,.86,3.56,2.55,5.68,3,.6.12,1.5,0,1.66.78a.8.8,0,0,1-.44.85C346.24,495.5,344.46,494.63,343.06,493.85Z"/><path class="cls-1" d="M249.27,506.82c-.43-1.95-.58-4.18-.85-6.1-.18-1-.27-2.8,1.23-2.71,1,0,1.5,1.07.56,1.55.36,2.34.79,4.67,1,7a1,1,0,0,1-1.9.23Z"/><path class="cls-1" d="M256.4,504.49c-1.72-3.93-1.14-8.32-.92-12.47a34.43,34.43,0,0,1,.76-6,.88.88,0,0,1,1.65.36,10.09,10.09,0,0,1-.08,1.35,92.54,92.54,0,0,0-.35,12.23,31.58,31.58,0,0,0,.69,3.71,1,1,0,0,1-.47,1.27A1,1,0,0,1,256.4,504.49Z"/><path class="cls-1" d="M306.4,17.11c-1-.52-.28-1.62-.17-2.43.13-1.3.14-3.08-1-3.91a1.14,1.14,0,0,1-.32-.85,1,1,0,0,1,1-.94c1.16,0,1.78,1.23,2.16,2.16C308.69,12.61,309,17.77,306.4,17.11Z"/><path class="cls-1" d="M311.48,17.22c-1.56-.47-.41-2.61-.56-3.75a11.73,11.73,0,0,0-.87-4.66,1,1,0,0,1,.88-1.65C313.11,7.36,314.38,17.77,311.48,17.22Z"/><path class="cls-1" d="M313.42,46.07c-.31-.62.22-1.14.73-1.42s1-.77,1.42-1.19a17.43,17.43,0,0,1,1.52-1.33,1,1,0,0,1,1.29,1.33C317.69,44.32,314.3,47.81,313.42,46.07Z"/><path class="cls-1" d="M317.67,48.53c-.29-1.22,1.88-2.2,2.62-3,.34-.29.65-.62,1-.88a.93.93,0,0,1,1.32,1.2c-.67,1.12-1.93,1.71-2.89,2.55C319.15,49,318.1,49.6,317.67,48.53Z"/><path class="cls-1" d="M323,51.51a.83.83,0,0,1-.76-.68c-.12-.66.45-1.12.83-1.57.63-.6,1.62-1.86,2.48-.94s-.53,1.75-1.11,2.36C324,51,323.55,51.56,323,51.51Z"/><text class="cls-4" transform="translate(72.94 319.36) rotate(-0.07)">???</text></g></g></svg>