<svg xmlns="http://www.w3.org/2000/svg" viewBox="0 0 210.78 724.93"><defs><style>.cls-1{fill:#f7941d;}.cls-2{fill:#231f20;}.cls-3{fill:#fff;}</style></defs><title>Recurso 36</title><g id="Capa_2" data-name="Capa 2"><g id="Capa_1-2" data-name="Capa 1"><path class="cls-1" d="M171.69,206a1.22,1.22,0,0,1,0,.27c0,1.25-.54,2.36-2,2.15a2,2,0,0,1-1.14-.75c-.63-.14-1.26-.31-1.88-.39-9.7-2.22-19.6-1.54-29.37-2q-9.47,0-18.92-.41a125.69,125.69,0,0,1-15.16.3c-4.48.32-8.9-.37-13.37-.42-8.46.38-16.93,1.14-25.34,2.09a93,93,0,0,1-9.26,1.35,90.66,90.66,0,0,1-14.6,2.89c.08,1.51-.12,2.86-1.61,3.07-1.13-.13-1.63-1.52-1.77-3.54a1.74,1.74,0,0,1-.11-.18,2.06,2.06,0,0,1,.09-2.22c.23-5.52,1.95-13.2,2.08-15.31.52-21.35,5.21-42.38,10-63.14,3.43-11.59,5.54-23.5,8.15-35.29,5.52-17,11.33-34.11,19.64-50,4.42-9.48,8.9-19,14.65-27.8C94.87,11.53,97,5.51,101,1.06a1.75,1.75,0,0,1,.56-.59l.25-.25a1.6,1.6,0,0,1,1-.16,20.15,20.15,0,0,1,4.63.33c10.25,3.66,18.83,33.4,22.83,43.86,5.18,13.89,10.3,27.82,14.89,41.91,3.47,14.07,8.29,28,11,42.23,5.22,19.77,10,39.7,13.38,59.87.72,4.47,1.18,9,1.63,13.48.08.83.16,1.67.25,2.5l.06.2c.06.23.11.49.15.75A5.25,5.25,0,0,1,171.69,206Z"/><path class="cls-2" d="M98.26,351c18.11.32,33.45-15.13,34.2-33-.58-8.44-5.39-16.48-11.9-21.76a35.49,35.49,0,0,0-18.65-7.17c-11.28-2.14-22.66,5.94-28.39,15.27-6.16,10.19-3.87,22.71.89,33C78.94,346.14,88.49,351.17,98.26,351Zm53.53-37.46c1.23,10.91-1.36,21.61-6,31.45a54.67,54.67,0,0,1-30.36,21.61c-7.28,2.16-14.81,3.92-22.32,2.09-9.85-2.16-20.52-5.09-27.78-12.46-6.53-7.85-12.14-17-13.42-27.28-1.44-11.22,1.48-23,6.42-33.05,7.23-15.36,24.35-24.24,40.87-25.06a1.56,1.56,0,0,1,1.1-.58c5.28-.23,10.4.78,15.57,1.71a37.66,37.66,0,0,1,22.48,11.43A42.91,42.91,0,0,1,151.79,313.54Z"/><path class="cls-2" d="M210.17,505.53c-1.55-15.31-3-30.62-19-37.44-4-1.52-8.76-2.49-13-1.44.08-27.47.1-54.93.28-82.41-.24-38.31-1.06-76.63-1.92-114.94-.5-12.2-.47-24.43-1.28-36.61-.41-8.19-2.67-16.18-3.7-24.25a2.07,2.07,0,0,0,.65-2,2.56,2.56,0,0,0-.5-1.22,2.67,2.67,0,0,0-.37-.38c.07-.13.15-.24.22-.37.45-.7.87-1.41.19-2.28a1.54,1.54,0,0,0-.5-.42,1,1,0,0,0-1.12.06,3.42,3.42,0,0,0-2.13,2.8,97.77,97.77,0,0,1-11.86.15c-19.47-.42-38.94.09-58.42-.21-13.35-.49-26.56,1.22-39.81,2.52-5.59.9-14-.61-18.69,3a1.19,1.19,0,0,0-1.22-.26,4.29,4.29,0,0,0-.8.6c-3.77,3.47-1.8,13.28-2.47,18.17-.31,7.89-.67,15.79-.71,23.69C32.61,283,32.85,314,32.74,344.78c-1.32,33.89-.4,67.94-.07,101.85.22,8.12.36,16.25.53,24.39-3-.1-7.71,1.69-9.6,2.38-4.4,2.2-9.38,4.18-12.34,8.28-7.19,11.29-7.54,25.06-9,38C.29,543.24.65,566.61,0,590.29.8,608.65,1.25,627,1.21,645.41c-.37,13,1.4,25.85,2.22,38.77A217.65,217.65,0,0,0,6.7,711.8c.51,3.13-.46,7.74,3,9.41,5.62,0,6.9-23.33,8.89-28.71,5.56-23.82,6.1-48.36,10.41-72.36,2.13-10.41,2.34-21.1,4.7-31.47,2.49-10.64,4.92-21.29,5.84-32.19-.07-2.15,1.63-10.06,2.08-16.18,13.66,2.89,27.6,2.92,41.51,3.2-.7,17.18-1.23,34.36-1.39,51.55-.23,19.76-.06,39.49.23,59.25,0,21.75.36,43.41,3.06,65.06a1.77,1.77,0,0,0,1.68,1.71c-.68,1.39.47,4,2.6,3.85,12-1.86,13.31-51.27,16.64-62.8,8.32-37.53,9.72-76,11.69-114.27,0-1.17.08-2.35.12-3.52,6.8,0,13.62.07,20.44.24a147.33,147.33,0,0,0,28.07-1.87c1.9-.47,4.49.08,6.58-.23,0,2.63.28,5.34.2,7.87.31,11.94-.33,23.87.83,35.78.67,15.7-.06,31.41.2,47.12.41,8.94,1.51,17.82,1.59,26.78,1.27,17.94.28,36,2.05,53.94h0c-2.33,1.54,1.32,7.52,3.52,7.85,8.26-1.19,7.71-14.71,9.63-21.18,1.09-7.21,2.77-14.23,3.71-21.47,1.4-9.58,3-19.31,4.76-28.85,2.26-15.82,3.25-31.8,5.53-47.63C206.89,570.33,212.64,538,210.17,505.53Zm-36.33,14.22c-.06,3,0,5.92-.24,8.87,0,1.51-.72,3.64-.37,5.21-.55,1.23-.36,3.22-.64,4.37-7.34-.67-14.62.79-22,1.18-10.89-.31-21.78-.51-32.66-.68.44-9.71,1-19.41.66-29.14,0-8.93,1.35-19.1-4.59-26.58-1.18-2.32-10.36-4-11.84-1.62C91.06,486.14,89,499.87,86.84,510.51c-1.29,7.38-2.82,14.74-3.27,22.23-.08,1.68-.15,3.36-.23,5-13.94-.22-27.88-.14-41.75-2.27-.17-1.42-.57-2.43-1.29-2.75C39.06,524.88,38.42,516.9,38,509c-1.22-30.94-2-61.88-2-92.84q-.74-37.17.72-74.33c.19-22.63-.34-45.22.73-67.84.46-17.72.95-35.79,1.36-53.6,1.69-.68,2.13-5.32,2.47-6.89,10.45-2.9,21.7-1.57,32.39-3.49,21.43-2.18,43-.11,64.51-1.1,9-.17,18,.34,27,.09a11.07,11.07,0,0,1,2.67,0c.54,5.62,2.93,13,2.69,16.31,3.11,30.23,1.82,60.79,3.41,91.14.9,55.52.9,111,.57,166.55C174.69,495.2,174.66,507.48,173.84,519.75Z"/><path class="cls-3" d="M105.94,193.63a3.73,3.73,0,0,1-1-2.45,3.2,3.2,0,0,1,.54-2,2.3,2.3,0,0,1,2-1,2.64,2.64,0,0,1,1.73.86,3.79,3.79,0,0,1,1,2.45,3.21,3.21,0,0,1-.55,2,2.32,2.32,0,0,1-2,1A2.67,2.67,0,0,1,105.94,193.63Z"/><path class="cls-3" d="M134,195.47a3.73,3.73,0,0,1-1-2.45,3.2,3.2,0,0,1,.54-2,2.3,2.3,0,0,1,2-1,2.67,2.67,0,0,1,1.74.86,3.73,3.73,0,0,1,1,2.45,3.2,3.2,0,0,1-.54,2,2.3,2.3,0,0,1-2,1A2.67,2.67,0,0,1,134,195.47Z"/><path class="cls-3" d="M155.32,193.7a3.73,3.73,0,0,1-1-2.45,3.14,3.14,0,0,1,.55-2,2.27,2.27,0,0,1,2-1,2.64,2.64,0,0,1,1.73.86,3.79,3.79,0,0,1,1,2.45,3.23,3.23,0,0,1-.55,2,2.32,2.32,0,0,1-2,1A2.67,2.67,0,0,1,155.32,193.7Z"/><path class="cls-3" d="M102.25,283a3.42,3.42,0,0,1-.94-2.25,2.92,2.92,0,0,1,.5-1.82,2.13,2.13,0,0,1,1.82-.88,2.41,2.41,0,0,1,1.59.79,3.47,3.47,0,0,1,1,2.26,3,3,0,0,1-.5,1.81,2.13,2.13,0,0,1-1.82.88A2.43,2.43,0,0,1,102.25,283Z"/><path class="cls-3" d="M131.43,293.12a3.53,3.53,0,0,1-1-2.32,3,3,0,0,1,.52-1.88,2.17,2.17,0,0,1,1.88-.91,2.53,2.53,0,0,1,1.65.81,3.57,3.57,0,0,1,1,2.33A3,3,0,0,1,135,293a2.18,2.18,0,0,1-1.87.91A2.45,2.45,0,0,1,131.43,293.12Z"/><path class="cls-3" d="M139.24,322.27a3.63,3.63,0,0,1-1-2.35,3,3,0,0,1,.52-1.89,2.21,2.21,0,0,1,1.89-.93,2.53,2.53,0,0,1,1.67.83,3.61,3.61,0,0,1,1,2.35,3,3,0,0,1-.52,1.89,2.2,2.2,0,0,1-1.89.92A2.57,2.57,0,0,1,139.24,322.27Z"/><path class="cls-3" d="M122.05,352.49a3.41,3.41,0,0,1-.94-2.24,2.89,2.89,0,0,1,.5-1.81,2.09,2.09,0,0,1,1.81-.88,2.42,2.42,0,0,1,1.59.78,3.47,3.47,0,0,1,.95,2.25,3,3,0,0,1-.5,1.81,2.11,2.11,0,0,1-1.82.88A2.41,2.41,0,0,1,122.05,352.49Z"/></g></g></svg>