<svg xmlns="http://www.w3.org/2000/svg" viewBox="0 0 90.56 181.73"><defs><style>.cls-1{fill-rule:evenodd;}</style></defs><title>Flecha</title><g id="Capa_2" data-name="Capa 2"><g id="Capa_1-2" data-name="Capa 1"><path class="cls-1" d="M73.93.08c10.24,2,19,29.58,16.07,50.36C86.33,76.54,79.53,99,70.74,114.3c-5.76,9.88-17.93,25.55-28.25,36.2-4,4.2-7.51,8-7.69,8.52s2.62,0,6.34-1c11.75-3.47,16.39-3,16.79,1.63.19,2.32-2.65,4.45-9,6.74-3,1.07-12.48,4.77-20.94,8.1-18.87,7.39-20.64,7.84-23.84,6.9C-.56,179.9-1.22,176.44,2,169.2c3.34-7.75,6.29-20.77,7.12-31.27.59-6.71.89-7.8,3-8.51,1.78-.66,2.66-.36,3.79,1.5,2.05,3.1,2.83,12.39,1.93,21.88-.45,4.42-.55,8-.3,8.14,1.73.52,23.74-25.47,32.56-38.33C62.66,103.87,68.57,89.39,73.24,64.9c4.53-23.9,3.7-38.84-3.18-52.81-2.33-4.74-3-7-2.48-8.46A5.82,5.82,0,0,1,73.93.08Z"/></g></g></svg>