<svg xmlns="http://www.w3.org/2000/svg" viewBox="0 0 216.44 172.19"><defs><style>.cls-1{fill:#020202;}.cls-2{stroke:#000;stroke-miterlimit:10;}</style></defs><title>inn 1Recurso 14</title><g id="Capa_2" data-name="Capa 2"><g id="Capa_1-2" data-name="Capa 1"><path class="cls-1" d="M192.06,81.71v3c0,1,0,2.17-.13,3.57,0,.7-.08,1.45-.13,2.26s-.16,1.65-.25,2.55a80.34,80.34,0,0,1-2.36,12.78,88.63,88.63,0,0,1-5.89,15.72,86.73,86.73,0,0,1-10.73,16.6,82.13,82.13,0,0,1-7.38,7.86c-1.32,1.29-2.76,2.46-4.18,3.69-.72.6-1.48,1.16-2.22,1.75s-1.5,1.17-2.29,1.7A83.5,83.5,0,0,1,135.72,164a84.81,84.81,0,0,1-11.64,3.21,85.67,85.67,0,0,1-24.23,1.26,86,86,0,0,1-11.91-2,84.45,84.45,0,0,1-21.78-8.64c-.84-.46-1.66-1-2.45-1.46s-1.61-1-2.39-1.51c-1.54-1.08-3.09-2.1-4.54-3.24a83.85,83.85,0,0,1-8.16-7.05,86.8,86.8,0,0,1-12.38-15.41,88.1,88.1,0,0,1-7.49-15,79.86,79.86,0,0,1-3.67-12.47l-.51-2.51c-.13-.8-.25-1.54-.36-2.24-.24-1.38-.42-2.57-.5-3.53l-.32-3s.05,1,.14,3c0,1,.13,2.17.27,3.58.08.7.14,1.46.24,2.26s.25,1.65.39,2.55A83.38,83.38,0,0,0,34.57,130.2a84.65,84.65,0,0,0,20.5,23.65,79.55,79.55,0,0,0,9.59,6.59,84.17,84.17,0,0,0,22.5,9.24,88.31,88.31,0,0,0,12.37,2.12,95.21,95.21,0,0,0,12.61.31,95.15,95.15,0,0,0,12.6-1.61,89.64,89.64,0,0,0,12.08-3.4,83.85,83.85,0,0,0,21.43-11.52A79.14,79.14,0,0,0,167.1,148a84.68,84.68,0,0,0,18-25.65,81.67,81.67,0,0,0,5.35-16.24,79.77,79.77,0,0,0,1.79-13c.05-.91.09-1.77.14-2.58s0-1.57,0-2.28c0-1.41,0-2.61-.09-3.58C192.12,82.74,192.06,81.71,192.06,81.71Z"/><path class="cls-1" d="M49.71,25l2.23-1.85c1.68-1.37,3.78-3,6.27-4.66,1.22-.87,2.61-1.68,4-2.6s3-1.78,4.63-2.59A87.21,87.21,0,0,1,90.47,4.94a87.7,87.7,0,0,1,14-1.58l3.68,0c.62,0,1.25,0,1.85,0l1.8.12,3.6.22c1.21.13,2.42.32,3.63.48a84.77,84.77,0,0,1,14.2,3.13,90.58,90.58,0,0,1,13,5.38c1,.53,2,1,3,1.57L152.13,16c1.94,1.07,3.67,2.37,5.41,3.56a93.53,93.53,0,0,1,9.18,7.56l1,.93.92,1,1.8,1.87c1.22,1.18,2.21,2.43,3.19,3.58,2,2.25,3.48,4.43,4.8,6.16s2.14,3.23,2.8,4.2l1,1.5s-.28-.56-.82-1.59c-.26-.52-.6-1.17-1-1.92A26.59,26.59,0,0,0,179,40.2a75.64,75.64,0,0,0-4.35-6.6c-.91-1.23-1.83-2.57-3-3.85l-1.72-2-.89-1-1-1-2-2.06a28.7,28.7,0,0,0-2.17-2.08l-2.34-2-1.2-1.05-1.29-1c-1.74-1.3-3.48-2.71-5.43-3.9l-2.91-1.88c-1-.58-2.05-1.13-3.09-1.7a84.11,84.11,0,0,0-13.42-5.86A87.83,87.83,0,0,0,119.47.78C118.2.63,117,.44,115.68.32L111.85.11A34.18,34.18,0,0,0,108.08,0L104.4.09A82,82,0,0,0,89.85,2a77.27,77.27,0,0,0-13,4.1A76,76,0,0,0,65.91,11.6c-1.65.93-3.12,2-4.56,2.92s-2.73,1.95-3.91,2.92c-2.4,1.89-4.37,3.68-5.95,5.2l-2.07,2.07L48,26.3l-1.21,1.33,1.34-1.2Z"/><path class="cls-2" d="M36.49,82.54a1.79,1.79,0,0,1-.68,1.37,2.23,2.23,0,0,1-1.52.6,1,1,0,0,1-.45-.19,2.18,2.18,0,0,1-.46-.34q-3.2-3-6.76-6t-7.21-6.07q-3.64-3.12-7.18-6.53a69,69,0,0,1-6.64-7.45,79.62,79.62,0,0,0,2.66,8.7c1.11,3.06,2.18,5.94,3.22,8.62l2.7,7a15,15,0,0,1,1.14,3.68,1.8,1.8,0,0,1-.72,1.48,2.4,2.4,0,0,1-1.48.57c-.31,0-.64-.32-1-1a23.56,23.56,0,0,1-1.18-2.47c-.43-1-.86-2.14-1.29-3.38S8.8,78.65,8.4,77.41,7.61,75,7.26,73.92s-.64-2-.84-2.7l-2-6.15C3.92,63.76,3.46,62.4,3,61s-.88-2.7-1.26-3.91-.68-2.28-.91-3.19A9.36,9.36,0,0,1,.5,52.09a6.82,6.82,0,0,1,.23-1.71c.15-.58.43-.87.83-.87a.62.62,0,0,1,.53.19.43.43,0,0,0,.31.18l.91-.37c.25,0,.7.31,1.33.94S6,51.91,6.84,52.92s1.73,2.16,2.7,3.42,1.93,2.51,2.92,3.72,1.92,2.35,2.81,3.42A20.29,20.29,0,0,0,17.66,66c1.11,1,2.23,2,3.34,2.89l3.38,2.77,3.61,3c1.26,1.06,2.66,2.28,4.18,3.65,0,0,.17.07.38.07s.15-.12.15-.38v-.91a21,21,0,0,0-.61-3.83c-.41-1.85-1-4-1.71-6.46s-1.58-5.09-2.54-7.9-2-5.51-3.08-8.12a68.34,68.34,0,0,0-3.42-7.1,24.82,24.82,0,0,0-3.45-4.94,2.7,2.7,0,0,1-.65-1.37,8.13,8.13,0,0,1-.19-1.51,1.72,1.72,0,0,1,.73-1.18A2.09,2.09,0,0,1,19.1,34c.61,0,1.3.61,2,1.83a39,39,0,0,1,2.44,4.74q1.29,2.93,2.62,6.57t2.61,7.37q1.53,4.4,2.85,8.69c.89,2.86,1.67,5.53,2.36,8s1.24,4.71,1.67,6.69A39.9,39.9,0,0,1,36.49,82.54Z"/><path class="cls-2" d="M60.64,77.53a1,1,0,0,1,.08.45A2.75,2.75,0,0,1,60,79.35a9.31,9.31,0,0,1-1,1,10.38,10.38,0,0,1-2,1.36,16.46,16.46,0,0,1-3.15,1.22,16.24,16.24,0,0,1-4.37.53,7.89,7.89,0,0,1-3.42-.8,8.68,8.68,0,0,1-3-2.35A13,13,0,0,1,41,76.43,16.23,16.23,0,0,1,40.14,71a19.95,19.95,0,0,1,2.69-10.1,11.34,11.34,0,0,1,2.62-3.12,4.59,4.59,0,0,1,2.81-1.14,6.68,6.68,0,0,1,2.47.5A9.64,9.64,0,0,1,53,58.39a6.56,6.56,0,0,1,1.63,1.71A3.52,3.52,0,0,1,55.25,62a3.73,3.73,0,0,1-1,2.35,13.39,13.39,0,0,1-2.47,2.24,17.18,17.18,0,0,1-2.89,1.67,6.07,6.07,0,0,1-2.28.65,1,1,0,0,1-.79-.42,1.57,1.57,0,0,1-.35-1,1.9,1.9,0,0,1,.95-1.67,15.79,15.79,0,0,1,2.09-1.1,10.87,10.87,0,0,0,2.09-1.18,2.19,2.19,0,0,0,1-1.89,2.31,2.31,0,0,0-.38-.76c-.25-.41-.94-.61-2-.61a2.84,2.84,0,0,0-1.75.87,10.34,10.34,0,0,0-1.9,2.36,15.28,15.28,0,0,0-2.12,7.86,8.62,8.62,0,0,0,2.58,6.26,8.21,8.21,0,0,0,2.66,1.71,8.4,8.4,0,0,0,3.11.61,7.15,7.15,0,0,0,2.47-.5c.88-.33,1.72-.68,2.51-1.06s1.46-.73,2.05-1.06a3.57,3.57,0,0,1,1.1-.5.8.8,0,0,1,.49.23A1,1,0,0,1,60.64,77.53Z"/><path class="cls-2" d="M89,52.09a.4.4,0,0,1,.3.45,1.66,1.66,0,0,1-.53,1.1,1.83,1.83,0,0,0-.53,1.26c0,.1,0,.48,0,1.14s0,1.39,0,2.2,0,1.57,0,2.28,0,1.11,0,1.21v7.52s0,.41-.08,1.06-.14,1.45-.27,2.36-.25,1.86-.37,2.84-.27,1.84-.42,2.55a.67.67,0,0,1-.42.45,4.82,4.82,0,0,1-.76.27,4,4,0,0,1-.8.15l-.45,0a2.62,2.62,0,0,1-1.79-1,17.08,17.08,0,0,1-1.78-2.2q-.84-1.22-1.44-2.28c-.41-.71-.64-1.11-.69-1.21-.2.71-.43,1.43-.68,2.16a15.8,15.8,0,0,1-.84,2,6.11,6.11,0,0,1-1,1.52,1.69,1.69,0,0,1-1.26.61,2.85,2.85,0,0,1-1.89-.91,15.19,15.19,0,0,1-2-2.36,26.36,26.36,0,0,1-1.93-3.22c-.61-1.19-1.14-2.34-1.6-3.46a32.85,32.85,0,0,1-1.1-3.11A8.69,8.69,0,0,1,66,63.25a1.43,1.43,0,0,1,.31-.76,1,1,0,0,1,.83-.45,1.67,1.67,0,0,1,1.52.68,9.37,9.37,0,0,1,.5,1.37c.27.86.67,1.87,1.17,3s1.1,2.37,1.79,3.61a13.8,13.8,0,0,0,2.31,3.15,10.63,10.63,0,0,0,.88-2.2c.22-.81.41-1.6.57-2.35a18.42,18.42,0,0,0,.3-2.09c.05-.64.08-1.15.08-1.56a8.59,8.59,0,0,1-.23-1.21c0-.36-.09-.71-.12-1.07s0-.66,0-.91c0-1.26.5-1.9,1.51-1.9a2.16,2.16,0,0,1,1.75.72A4.84,4.84,0,0,1,80.08,63a11.21,11.21,0,0,1,.42,1.86,5.65,5.65,0,0,0,.27,1.3c.4,1.16.77,2.25,1.1,3.26a10.63,10.63,0,0,0,1.71,3.11,1.6,1.6,0,0,0,.49-.79,6.53,6.53,0,0,0,.27-1.18,8.9,8.9,0,0,0,.07-1.1V53.61a1.17,1.17,0,0,1,.38-.84,4.32,4.32,0,0,1,.91-.68,8.76,8.76,0,0,1,1-.5,2.54,2.54,0,0,1,.72-.19,1.31,1.31,0,0,1,.72.23A7.1,7.1,0,0,0,89,52.09Z"/><path class="cls-2" d="M119.8,63.55a7.26,7.26,0,0,1-1.1,3.8,17.28,17.28,0,0,1-2.7,3.38,28.2,28.2,0,0,1-3.49,2.89c-1.27.88-2.43,1.65-3.5,2.31l-2.5,1.75c-.66.45-1,.81-1,1.06a23.88,23.88,0,0,0,.23,2.77c.15,1.19.34,2.48.57,3.88s.45,2.82.68,4.29.39,2.81.5,4a6.16,6.16,0,0,0,.11.69c.08.4.18.86.3,1.36s.23,1,.31,1.41.11.69.11.79c0,.36,0,.75,0,1.18a4.79,4.79,0,0,1-.22,1.22,2.51,2.51,0,0,1-.57,1,1.37,1.37,0,0,1-1,.37,1.29,1.29,0,0,1-1.22-.72,3,3,0,0,1-.38-1.4,1.54,1.54,0,0,1,0-.3,1.43,1.43,0,0,0,0-.38,39.56,39.56,0,0,0-.61-4.48c-.4-2.44-.86-5.33-1.36-8.7s-1-7-1.37-10.86a104.35,104.35,0,0,1-.61-11,6.09,6.09,0,0,1,.08-.88,5.73,5.73,0,0,0,.07-.87,9.21,9.21,0,0,0-2.24.68A21.17,21.17,0,0,0,96,64.28a18.65,18.65,0,0,0-2.54,1.82,2.52,2.52,0,0,0-1.11,1.71h-.53a1,1,0,0,1-.57-.31,4,4,0,0,1-.61-.68c-.17-.25-.34-.51-.49-.76a1.35,1.35,0,0,1-.23-.53,3.89,3.89,0,0,1,1.9-3A20.42,20.42,0,0,1,96.6,60a36,36,0,0,1,6.26-1.74,34.92,34.92,0,0,1,6.46-.65,15.78,15.78,0,0,1,5,.68A10.93,10.93,0,0,1,117.52,60a6.55,6.55,0,0,1,1.75,1.93A3.78,3.78,0,0,1,119.8,63.55Zm-3.72-.22c0-.51-.64-1-1.9-1.56a11.56,11.56,0,0,0-4.48-.8,26.38,26.38,0,0,0-3.34.15,8.28,8.28,0,0,0-1.45.31c-.1.81-.17,1.77-.22,2.88s-.08,2.26-.08,3.42,0,2.39.11,3.53.17,2.09.27,2.85l2.92-1.86a39.68,39.68,0,0,0,3.69-2.66,22.11,22.11,0,0,0,3.15-3.11A5.11,5.11,0,0,0,116.08,63.33Z"/><path class="cls-2" d="M160.12,69.7a6.83,6.83,0,0,1-1.25,3.38A18.22,18.22,0,0,1,155.49,77a20.45,20.45,0,0,1-4.94,3.22,13.44,13.44,0,0,1-5.84,1.33,10.13,10.13,0,0,1-2.89-.45,13.2,13.2,0,0,1-3-1.33,11.44,11.44,0,0,1-2.58-2.13,7.74,7.74,0,0,1-1.67-2.85,8.31,8.31,0,0,0-1.11,1.52c-.43.71-.89,1.43-1.4,2.17a10.26,10.26,0,0,1-1.67,1.89,2.83,2.83,0,0,1-1.9.8,1.89,1.89,0,0,1-1.63-1,9.85,9.85,0,0,1-1-2.28,15.48,15.48,0,0,1-.53-2.39q-.15-1.14-.15-1.29a21.29,21.29,0,0,1,.53-3.46,32.79,32.79,0,0,1,1.6-5.28A19.32,19.32,0,0,1,130,60.59a4.77,4.77,0,0,1,3.84-2.12,1.07,1.07,0,0,1,1.1.72,4.21,4.21,0,0,1,.26,1.4v2.28a2.37,2.37,0,0,0,.8.42,3.44,3.44,0,0,1,.76.3,1.33,1.33,0,0,1,.53.57,2.86,2.86,0,0,1,.19,1.22,5.49,5.49,0,0,1-.07,1,3.65,3.65,0,0,0-.08.79,24.87,24.87,0,0,0,.3,3.88,9.16,9.16,0,0,0,1.22,3.37,7.31,7.31,0,0,0,2.5,2.44,8.33,8.33,0,0,0,4.26.94,10.67,10.67,0,0,0,5.65-1.4,17.7,17.7,0,0,0,3.88-3.11,24.49,24.49,0,0,0,2.46-3.12c.61-.93,1.12-1.4,1.52-1.4A.87.87,0,0,1,160.12,69.7Zm-26.65-3.34a1.16,1.16,0,0,0-.15-.57.91.91,0,0,1-.16-.49.88.88,0,0,1,.16-.53,1.08,1.08,0,0,0,.15-.61.41.41,0,0,0-.15-.34.32.32,0,0,1-.16-.27,2.69,2.69,0,0,0-1.4,1.29,18.76,18.76,0,0,0-1.37,2.66,19.84,19.84,0,0,0-1,3.08,10.82,10.82,0,0,0-.38,2.54,8.35,8.35,0,0,0,.3,1.75,3.63,3.63,0,0,0,.68,1.59q1.29-2.65,2.4-5.16A12.29,12.29,0,0,0,133.47,66.36Z"/><path class="cls-2" d="M182.9,71.68a5.41,5.41,0,0,1-.23,1.56,11.08,11.08,0,0,1-.45,1.32,19.27,19.27,0,0,1-1.41,1.56,26.17,26.17,0,0,1-3.11,2.77,25,25,0,0,1-4.18,2.62,9.71,9.71,0,0,1-4.44,1.18,7.91,7.91,0,0,1-2.62-.46A7,7,0,0,1,164,80.75a7.92,7.92,0,0,1-1.86-2.54,8.63,8.63,0,0,1-.72-3.72,17.29,17.29,0,0,1,1.22-6.61,25.34,25.34,0,0,1,2.43-4.71,10.2,10.2,0,0,1,1.4-1.7c.58-.59,1.15-1.12,1.71-1.6a14.56,14.56,0,0,1,1.56-1.18,2.44,2.44,0,0,1,1-.45,2.25,2.25,0,0,1,1.26.38c.38.25.57.5.57.76a1.56,1.56,0,0,1-.35,1,6,6,0,0,1-.95.91q-.6.49-1.44,1.29a14.77,14.77,0,0,0-1.75,2.09,18.89,18.89,0,0,0-2.69,5.13,14.89,14.89,0,0,0-.87,4.59A3.8,3.8,0,0,0,166,77.56a4.84,4.84,0,0,0,3.07,1.18,10.1,10.1,0,0,0,5.13-1.29A18,18,0,0,0,178,74.56a27.62,27.62,0,0,0,2.58-2.88c.66-.86,1.14-1.29,1.45-1.29C182.62,70.39,182.9,70.82,182.9,71.68Z"/><path class="cls-2" d="M215.94,77.37a1.76,1.76,0,0,1-.16.88c-.1.18-.35.31-.76.42s-1,.31-1.7.49-1.43.35-2.24.53-1.64.33-2.47.46a16.56,16.56,0,0,1-2.32.19,27.19,27.19,0,0,1-2.85-.16,22.35,22.35,0,0,1-3-.49,25,25,0,0,1-2.61-.76,4,4,0,0,1-1.71-1c.25,1.06.48,2.12.68,3.19s.35,2.12.46,3.19a1.12,1.12,0,0,1-.19.64c-.13.18-.47.27-1,.27a1.55,1.55,0,0,1-.72-.19,1.47,1.47,0,0,1-.57-.8,30.17,30.17,0,0,1-1.14-2.85c-.3-.88-.57-1.78-.8-2.69l-.72-2.89c-.25-1-.56-2.13-.91-3.34q-.84-3-1.75-6.34c-.6-2.25-1.16-4.41-1.67-6.46s-.91-3.87-1.21-5.46a20.69,20.69,0,0,1-.46-3.38c0-.31,0-.71,0-1.22a7.36,7.36,0,0,1,.23-1.48,3.63,3.63,0,0,1,.53-1.21,1.09,1.09,0,0,1,1-.5c.25,0,.52.39.8,1.18s.53,1.64.76,2.58.43,1.82.6,2.66.27,1.28.27,1.33c.2,1.11.44,2.34.72,3.68s.57,2.7.87,4.06.64,2.67,1,3.91A19.84,19.84,0,0,0,194,69a12.35,12.35,0,0,1,.53-2.21,26.4,26.4,0,0,1,1.22-3.11c.5-1.11,1.07-2.27,1.71-3.46a30.16,30.16,0,0,1,2-3.22,14.18,14.18,0,0,1,2.05-2.36,3,3,0,0,1,1.94-.91,3.87,3.87,0,0,1,2,.38A1.1,1.1,0,0,1,206,55c0,.31-.43.9-1.29,1.79a33.44,33.44,0,0,0-2.89,3.49,26.84,26.84,0,0,0-2.88,5.09,15.74,15.74,0,0,0-1.29,6.49,3.54,3.54,0,0,0,.72,2.24,5.5,5.5,0,0,0,1.89,1.56,11.9,11.9,0,0,0,2.66,1,12.86,12.86,0,0,0,2.93.34c.86,0,1.79,0,2.81-.08s2-.11,2.84-.19l2.28-.19c.63,0,1-.07,1.18-.07a1.06,1.06,0,0,1,.68.23A.88.88,0,0,1,215.94,77.37Z"/></g></g></svg>