<svg xmlns="http://www.w3.org/2000/svg" viewBox="0 0 208.99 172.19"><defs><style>.cls-1{fill:#020202;}.cls-2{stroke:#000;stroke-miterlimit:10;}</style></defs><title>inn 1Recurso 16</title><g id="Capa_2" data-name="Capa 2"><g id="Capa_1-2" data-name="Capa 1"><path class="cls-1" d="M185.05,81.71v3c0,1,0,2.17-.13,3.57,0,.7-.09,1.45-.13,2.26s-.16,1.65-.25,2.55a80.34,80.34,0,0,1-2.36,12.78,88.63,88.63,0,0,1-5.89,15.72,86.73,86.73,0,0,1-10.73,16.6,82.13,82.13,0,0,1-7.38,7.86c-1.32,1.29-2.76,2.46-4.18,3.69-.72.6-1.48,1.16-2.22,1.75s-1.5,1.17-2.29,1.7A83.5,83.5,0,0,1,128.71,164a84.81,84.81,0,0,1-11.64,3.21,85.67,85.67,0,0,1-24.23,1.26,85.79,85.79,0,0,1-11.91-2,84.31,84.31,0,0,1-21.78-8.64c-.85-.46-1.66-1-2.46-1.46s-1.61-1-2.38-1.51c-1.54-1.08-3.09-2.1-4.54-3.24a83.85,83.85,0,0,1-8.16-7.05,87.33,87.33,0,0,1-12.39-15.41,88.74,88.74,0,0,1-7.48-15,79.86,79.86,0,0,1-3.67-12.47l-.51-2.51c-.13-.8-.25-1.54-.37-2.24-.23-1.38-.41-2.57-.49-3.53l-.32-3s.05,1,.14,3c0,1,.13,2.17.27,3.58.08.7.13,1.46.23,2.26s.26,1.65.4,2.55A83.38,83.38,0,0,0,27.56,130.2a84.2,84.2,0,0,0,20.5,23.65,78.77,78.77,0,0,0,9.59,6.59,84.17,84.17,0,0,0,22.5,9.24,88.06,88.06,0,0,0,12.37,2.12,95.21,95.21,0,0,0,12.61.31,95.37,95.37,0,0,0,12.6-1.61,89.64,89.64,0,0,0,12.08-3.4,83.85,83.85,0,0,0,21.43-11.52,79.14,79.14,0,0,0,8.85-7.54A84.47,84.47,0,0,0,178,122.39a81.74,81.74,0,0,0,5.36-16.24,79.77,79.77,0,0,0,1.79-13c0-.91.09-1.77.14-2.58s0-1.57,0-2.28c0-1.41,0-2.61-.09-3.58C185.11,82.74,185.05,81.71,185.05,81.71Z"/><path class="cls-1" d="M42.7,25l2.23-1.85c1.68-1.37,3.78-3,6.26-4.66,1.23-.87,2.62-1.68,4-2.6s3-1.78,4.63-2.59A87.21,87.21,0,0,1,83.46,4.94a87.71,87.71,0,0,1,14-1.58l3.69,0c.62,0,1.25,0,1.85,0l1.8.12,3.6.22c1.21.13,2.42.32,3.63.48a84.77,84.77,0,0,1,14.2,3.13,91,91,0,0,1,13,5.38c1,.53,2,1,3,1.57L145.12,16c1.94,1.07,3.67,2.37,5.41,3.56a93.53,93.53,0,0,1,9.18,7.56l1,.93.92,1,1.8,1.87c1.21,1.18,2.21,2.43,3.19,3.58,2,2.25,3.48,4.43,4.8,6.16s2.14,3.23,2.8,4.2l1,1.5s-.28-.56-.82-1.59l-1-1.92C173,42,172.6,41.11,172,40.2a75.64,75.64,0,0,0-4.35-6.6c-.91-1.23-1.84-2.57-3-3.85l-1.72-2-.89-1-1-1-2-2.06a28.7,28.7,0,0,0-2.17-2.08l-2.34-2-1.2-1.05-1.29-1c-1.74-1.3-3.48-2.71-5.43-3.9l-2.91-1.88c-1-.58-2.05-1.13-3.09-1.7A84.11,84.11,0,0,0,127.2,4.15,87.72,87.72,0,0,0,112.45.78c-1.26-.15-2.51-.34-3.78-.46L104.84.11A34.18,34.18,0,0,0,101.07,0L97.39.09A82,82,0,0,0,82.84,2a77,77,0,0,0-13,4.1A76,76,0,0,0,58.9,11.6c-1.65.93-3.12,2-4.57,2.92s-2.72,1.95-3.9,2.92a77.31,77.31,0,0,0-6,5.2c-.77.78-1.47,1.47-2.07,2.07L41,26.3l-1.21,1.33,1.33-1.2Z"/><path class="cls-2" d="M41.28,69.48a8.92,8.92,0,0,1-.91,3.87,17.71,17.71,0,0,1-2.28,3.57,26.16,26.16,0,0,1-3,3.08c-1.06.93-2,1.73-2.89,2.39s-2,1.47-3.19,2.28-2.39,1.57-3.53,2.27-2.14,1.36-3,1.94a13.62,13.62,0,0,0-1.59,1.18l-2.2,1.75a1.87,1.87,0,0,1-.88.37,4.46,4.46,0,0,1-.8.08.92.92,0,0,1-.83-.57,2.49,2.49,0,0,1-.3-1.18,3.78,3.78,0,0,1,.87-1.63,9.58,9.58,0,0,1,2-2,19.86,19.86,0,0,1,2.81-1.67c1.11-.56,2.63-1.44,4.56-2.66,1-.61,2.12-1.4,3.49-2.39A38.59,38.59,0,0,0,33.53,77a22.29,22.29,0,0,0,3.12-3.57,6.35,6.35,0,0,0,1.29-3.61c0-.45-.55-.92-1.63-1.4a11.73,11.73,0,0,0-4.6-.72,24.13,24.13,0,0,0-6.38.91c-2.23.61-4.29,1.26-6.19,2s-3.53,1.37-4.9,2a10.43,10.43,0,0,1-2.5.91q.22,1.74.57,4.29c.23,1.7.47,3.33.72,4.9q.38,2.73.83,5.69h.31a20.62,20.62,0,0,0,.61,2.2,8.3,8.3,0,0,1,.45,2.28c0,.81-.3,1.22-.91,1.22q-.45,0-1-.84a17.2,17.2,0,0,1-1.14-2c-.38-.76-.71-1.51-1-2.24s-.47-1.26-.57-1.56q-.69-2.5-1.33-5.77T8.13,75.06q-.5-3.3-.76-6.23c-.18-1.94-.26-3.55-.26-4.82a1.52,1.52,0,0,1,.26-.91,1.28,1.28,0,0,0,.27-.76.81.81,0,0,0-.19-.57.86.86,0,0,1-.19-.64,1.37,1.37,0,0,1,.11-.5c.08-.17.29-.26.65-.26a3.71,3.71,0,0,0,1,.15,1.93,1.93,0,0,1,.88.19,1.39,1.39,0,0,1,.6.64,3.33,3.33,0,0,1,.23,1.45v.45a1.42,1.42,0,0,1,0,.34,2.26,2.26,0,0,0,0,.35c0,.86,0,1.54.07,2s.13.76.23.76a6.52,6.52,0,0,0,1.63-1.11c.94-.73,2.06-1.65,3.38-2.77s2.75-2.35,4.29-3.72,3-2.68,4.44-3.95Q25.56,54.45,27,53t2.85-3q1.41-1.59,2.43-3a4.36,4.36,0,0,0,1-2.17c0-.5-.16-.75-.46-.75a12.52,12.52,0,0,0-2.58.53c-1.32.35-2.81.82-4.48,1.4s-3.39,1.26-5.17,2a40.27,40.27,0,0,0-4.7,2.36q-2.13,1.44-4.26,3.19c-1.42,1.16-2.69,2.26-3.83,3.3S5.75,58.84,5,59.57a11.88,11.88,0,0,0-1.18,1.25.45.45,0,0,0-.15.31,1.2,1.2,0,0,0,.11.41,1.14,1.14,0,0,1,.12.42c0,.15-.1.28-.31.38a1.51,1.51,0,0,1-.68.15,5.48,5.48,0,0,1-1.52-.26C.8,62.05.5,61.56.5,60.75a4.86,4.86,0,0,1,1.21-2.66,29.52,29.52,0,0,1,3.16-3.42,53.57,53.57,0,0,1,4.29-3.61c1.57-1.18,3.11-2.29,4.63-3.3a56,56,0,0,1,5-2.77q2.7-1.34,5.32-2.32a44.23,44.23,0,0,1,5-1.55,17.15,17.15,0,0,1,3.88-.57,7.57,7.57,0,0,1,2.81.6,3.49,3.49,0,0,1,1.13.8,1.65,1.65,0,0,1,.46,1.18,8.65,8.65,0,0,1-1.21,4.21,25.44,25.44,0,0,1-3.19,4.37,60.16,60.16,0,0,1-4.45,4.44c-1.64,1.5-3.29,2.94-4.93,4.33s-3.23,2.73-4.75,4A49.82,49.82,0,0,0,15,68l2.74-1q1.89-.72,4.14-1.44c1.49-.48,3-.9,4.52-1.25a17.57,17.57,0,0,1,4-.54c.35,0,1.11,0,2.28.08a15.74,15.74,0,0,1,3.64.61,9.65,9.65,0,0,1,3.42,1.71A3.93,3.93,0,0,1,41.28,69.48Z"/><path class="cls-2" d="M52.52,57.4c0,.11-.18.31-.53.61a14.72,14.72,0,0,1-1.26,1,13.1,13.1,0,0,1-1.48.88,2.92,2.92,0,0,1-1.21.37l-.8,0a3.05,3.05,0,0,1-1-.27,2.73,2.73,0,0,1-.87-.64A1.56,1.56,0,0,1,45,58.16a3.18,3.18,0,0,1,.76-2,2.4,2.4,0,0,1,2-.95,6.86,6.86,0,0,1,1,.19,14.32,14.32,0,0,1,1.63.5,8.87,8.87,0,0,1,1.48.68C52.3,56.82,52.52,57.1,52.52,57.4ZM55,85.81c0,.35-.26.65-.79.91a3.31,3.31,0,0,1-1.18.38,1.69,1.69,0,0,1-1.37-1,12.05,12.05,0,0,1-1.06-2.28c-.3-.86-.56-1.68-.76-2.47S49.5,80,49.4,79.73c-.15-.5-.35-1.11-.6-1.82s-.5-1.39-.73-2-.41-1.24-.57-1.75a6.87,6.87,0,0,1-.22-.83,4.84,4.84,0,0,1,.41-2c.28-.61.62-.91,1-.91s.94.36,1.44,1.06a15.07,15.07,0,0,1,1.48,2.7A33.41,33.41,0,0,1,53,77.72c.41,1.29.76,2.5,1.07,3.64s.54,2.13.72,3A12.9,12.9,0,0,1,55,85.81Z"/><path class="cls-2" d="M73.4,75.93a10.79,10.79,0,0,1-.46,3.19,9.86,9.86,0,0,1-1.21,2.66,6,6,0,0,1-1.79,1.79,4.11,4.11,0,0,1-2.24.64A4.52,4.52,0,0,1,64.36,83a8.41,8.41,0,0,1-1.86-2.81A12.2,12.2,0,0,1,61.67,77a22.4,22.4,0,0,1-.19-2.47,12.92,12.92,0,0,1,.42-3.07A14.77,14.77,0,0,1,63,68.26a10.43,10.43,0,0,1,1.64-2.43,2.61,2.61,0,0,1,1.9-1,2.84,2.84,0,0,1,.72.15,5,5,0,0,1,1,.45,4.13,4.13,0,0,1,1,.76,2.42,2.42,0,0,1,.57,1.07,3.76,3.76,0,0,1,1.67.6c.56.36.86.64.91.84a19.78,19.78,0,0,1,.8,4C73.34,74,73.4,75.07,73.4,75.93ZM70,74.57a13.64,13.64,0,0,0-.22-2.4,9,9,0,0,0-.92-2.54.82.82,0,0,1-.38.08,1.36,1.36,0,0,1-.49-.08.94.94,0,0,0-.34-.07,2,2,0,0,0-1.44.49,3,3,0,0,0-.8,1.29,7.1,7.1,0,0,0-.34,1.71c0,.61-.08,1.19-.08,1.74s0,1.18.08,1.87a9.16,9.16,0,0,0,.34,1.93,5.36,5.36,0,0,0,.72,1.56,1.41,1.41,0,0,0,1.21.64,1.55,1.55,0,0,0,1.3-.79,6.6,6.6,0,0,0,.83-1.86,13.57,13.57,0,0,0,.42-2.09C69.94,75.36,70,74.87,70,74.57Z"/><path class="cls-2" d="M102.94,78.52a5.71,5.71,0,0,1-.23,1.55,11.31,11.31,0,0,1-.45,1.33c-.11.15-.57.67-1.41,1.56a27.08,27.08,0,0,1-3.11,2.77,25.62,25.62,0,0,1-4.18,2.62,9.71,9.71,0,0,1-4.44,1.18,7.87,7.87,0,0,1-2.62-.46A7.11,7.11,0,0,1,84,87.59a7.92,7.92,0,0,1-1.86-2.54,8.69,8.69,0,0,1-.72-3.72,17.26,17.26,0,0,1,1.21-6.61A25,25,0,0,1,85.09,70,10.43,10.43,0,0,1,86.5,68.3q.87-.87,1.71-1.59a12.52,12.52,0,0,1,1.55-1.18,2.52,2.52,0,0,1,1-.46,2.22,2.22,0,0,1,1.25.38c.38.26.57.51.57.76a1.56,1.56,0,0,1-.34,1,6.48,6.48,0,0,1-1,.91q-.61.5-1.44,1.29a14.22,14.22,0,0,0-1.75,2.09,18.89,18.89,0,0,0-2.69,5.13,14.54,14.54,0,0,0-.88,4.59A3.82,3.82,0,0,0,86,84.4a4.89,4.89,0,0,0,3.08,1.18,10.06,10.06,0,0,0,5.12-1.29,18.2,18.2,0,0,0,3.84-2.89,30.13,30.13,0,0,0,2.58-2.88c.66-.86,1.14-1.3,1.44-1.3C102.66,77.22,102.94,77.66,102.94,78.52Z"/><path class="cls-2" d="M130.13,84.36a1.14,1.14,0,0,1,.07.46,2.83,2.83,0,0,1-.68,1.37,8.11,8.11,0,0,1-1,1,10.38,10.38,0,0,1-2,1.37A16,16,0,0,1,119,90.29a7.85,7.85,0,0,1-3.41-.8,8.65,8.65,0,0,1-3-2.36,12.51,12.51,0,0,1-2.12-3.87,15.88,15.88,0,0,1-.84-5.43,19.42,19.42,0,0,1,.76-5.54,19.81,19.81,0,0,1,1.94-4.56,11.26,11.26,0,0,1,2.62-3.11,4.57,4.57,0,0,1,2.81-1.14,6.7,6.7,0,0,1,2.47.49,9.8,9.8,0,0,1,2.27,1.26,6.31,6.31,0,0,1,1.64,1.71,3.55,3.55,0,0,1,.6,1.93,3.73,3.73,0,0,1-1,2.36,13.42,13.42,0,0,1-2.47,2.24,17.11,17.11,0,0,1-2.88,1.67,6.11,6.11,0,0,1-2.28.64,1,1,0,0,1-.8-.42,1.53,1.53,0,0,1-.34-1,1.87,1.87,0,0,1,1-1.67,14.17,14.17,0,0,1,2.09-1.1,10.79,10.79,0,0,0,2.08-1.18,2.2,2.2,0,0,0,1-1.9,2.28,2.28,0,0,0-.38-.76c-.25-.4-.93-.6-2-.6a2.82,2.82,0,0,0-1.74.87,10.49,10.49,0,0,0-1.9,2.35,14.47,14.47,0,0,0-1.52,3.5,14.82,14.82,0,0,0-.61,4.36,8.56,8.56,0,0,0,.72,3.57,8.77,8.77,0,0,0,1.86,2.7,8.36,8.36,0,0,0,5.77,2.31,7.07,7.07,0,0,0,2.47-.49c.89-.33,1.72-.68,2.51-1.06s1.47-.74,2-1.07a3.44,3.44,0,0,1,1.1-.49.78.78,0,0,1,.49.23A1.15,1.15,0,0,1,130.13,84.36Z"/><path class="cls-2" d="M140,57.4c0,.11-.18.31-.53.61a14.72,14.72,0,0,1-1.26,1,13.1,13.1,0,0,1-1.48.88,2.92,2.92,0,0,1-1.21.37l-.8,0a3.05,3.05,0,0,1-1-.27,2.73,2.73,0,0,1-.87-.64,1.61,1.61,0,0,1-.38-1.11,3.18,3.18,0,0,1,.76-2,2.4,2.4,0,0,1,2-.95,6.65,6.65,0,0,1,1,.19,14.32,14.32,0,0,1,1.63.5,8.87,8.87,0,0,1,1.48.68C139.78,56.82,140,57.1,140,57.4Zm2.5,28.41c0,.35-.26.65-.79.91a3.31,3.31,0,0,1-1.18.38,1.69,1.69,0,0,1-1.37-1,12.05,12.05,0,0,1-1.06-2.28c-.3-.86-.56-1.68-.76-2.47s-.36-1.33-.46-1.63c-.15-.5-.35-1.11-.6-1.82s-.5-1.39-.72-2-.42-1.24-.57-1.75a6,6,0,0,1-.23-.83,4.69,4.69,0,0,1,.42-2c.27-.61.61-.91,1-.91s.94.36,1.44,1.06a15.07,15.07,0,0,1,1.48,2.7,33.41,33.41,0,0,1,1.33,3.57c.41,1.29.76,2.5,1.07,3.64s.54,2.13.72,3A12.9,12.9,0,0,1,142.5,85.81Z"/><path class="cls-2" d="M165.36,77.22a20.42,20.42,0,0,1-.8,6,16.18,16.18,0,0,1-1.93,4.29,9.61,9.61,0,0,1-2.32,2.55,3.61,3.61,0,0,1-1.94.83,2.94,2.94,0,0,1-2.05-1,2.62,2.62,0,0,1-1-1.78c0-.81.33-1.22,1-1.22a1.28,1.28,0,0,1,.76.27,5.11,5.11,0,0,0,.69.42,10.41,10.41,0,0,0,2.47-3.49,16.37,16.37,0,0,0,1.17-6.92,12.9,12.9,0,0,0-1.25-5.69,5.8,5.8,0,0,0-1-1.52c-.35-.35-.6-.53-.76-.53-.5,0-1,.51-1.48,1.52a20.63,20.63,0,0,0-1.25,3.45c-.35,1.29-.64,2.56-.87,3.8a16.79,16.79,0,0,0-.34,2.54q.07.46.15.84l.15.76a3.92,3.92,0,0,1,.08.76,3.83,3.83,0,0,1-1,2.58,2.68,2.68,0,0,1-1.9,1.14c-.3,0-.54-.22-.72-.65a7,7,0,0,1-.42-1.63c-.1-.66-.19-1.34-.26-2s-.17-1.34-.27-1.9c-.41-.91-.94-2.35-1.6-4.33s-1.35-4.08-2.08-6.34-1.42-4.44-2-6.57-1.11-3.82-1.41-5.08q-1.06-4.11-1.63-7.18t-.91-5.39a39.79,39.79,0,0,1-.42-4c-.05-1.11-.08-2-.08-2.81a1.2,1.2,0,0,1,.57-1.06,1.93,1.93,0,0,1,1-.38,1.56,1.56,0,0,1,1,.26,1.82,1.82,0,0,1,.41,1.11c.08.55.15,1.36.23,2.43s.22,2.48.42,4.25q.15,1.29.57,3.57c.28,1.52.64,3.21,1.1,5.09s1,3.83,1.48,5.88,1.09,4,1.67,5.89,1.16,3.59,1.75,5.16a27.05,27.05,0,0,0,1.63,3.72,30.07,30.07,0,0,1,1.67-4.94,16.94,16.94,0,0,1,2-3.37,3.64,3.64,0,0,1,3-1.56,4.17,4.17,0,0,1,1.83.61,7.34,7.34,0,0,1,2.24,2,13.25,13.25,0,0,1,1.89,3.79A18.21,18.21,0,0,1,165.36,77.22Z"/><path class="cls-2" d="M208.49,76.54a6.76,6.76,0,0,1-1.25,3.38,17.91,17.91,0,0,1-3.38,3.91,20.61,20.61,0,0,1-4.93,3.23,13.51,13.51,0,0,1-5.85,1.33,9.87,9.87,0,0,1-2.89-.46,12.37,12.37,0,0,1-3-1.33,11.67,11.67,0,0,1-2.58-2.12A7.91,7.91,0,0,1,183,81.63a8,8,0,0,0-1.1,1.52q-.65,1.06-1.41,2.16a9.68,9.68,0,0,1-1.67,1.9,2.88,2.88,0,0,1-1.9.8,1.89,1.89,0,0,1-1.63-1,9.09,9.09,0,0,1-1-2.28,14.24,14.24,0,0,1-.54-2.39q-.15-1.14-.15-1.29a21.06,21.06,0,0,1,.53-3.45,33.83,33.83,0,0,1,1.6-5.28,19.64,19.64,0,0,1,2.69-4.86,4.76,4.76,0,0,1,3.84-2.13,1.06,1.06,0,0,1,1.1.72,4,4,0,0,1,.27,1.41v2.28a2.07,2.07,0,0,0,.79.41,3.46,3.46,0,0,1,.76.31,1.27,1.27,0,0,1,.53.57,2.81,2.81,0,0,1,.19,1.21,5.42,5.42,0,0,1-.07,1,4.61,4.61,0,0,0-.08.8,23.5,23.5,0,0,0,.31,3.87,9,9,0,0,0,1.21,3.38,7.14,7.14,0,0,0,2.51,2.43,8.19,8.19,0,0,0,4.25,1,10.8,10.8,0,0,0,5.66-1.4,17.6,17.6,0,0,0,3.87-3.12A24.64,24.64,0,0,0,206,77c.61-.94,1.11-1.41,1.52-1.41A.87.87,0,0,1,208.49,76.54ZM181.84,73.2a1.16,1.16,0,0,0-.15-.57.92.92,0,0,1-.15-.49.87.87,0,0,1,.15-.53,1.13,1.13,0,0,0,.15-.61.39.39,0,0,0-.15-.34.32.32,0,0,1-.15-.27,2.58,2.58,0,0,0-1.41,1.29,18.76,18.76,0,0,0-1.37,2.66,19.73,19.73,0,0,0-1,3.07,10.89,10.89,0,0,0-.38,2.55,8.45,8.45,0,0,0,.3,1.75,3.5,3.5,0,0,0,.69,1.59c.86-1.77,1.65-3.49,2.39-5.16A12.29,12.29,0,0,0,181.84,73.2Z"/></g></g></svg>