<svg xmlns="http://www.w3.org/2000/svg" viewBox="0 0 169.59 172.19"><defs><style>.cls-1{fill:#020202;}.cls-2{stroke:#000;stroke-miterlimit:10;}</style></defs><title>inn 1Recurso 17</title><g id="Capa_2" data-name="Capa 2"><g id="Capa_1-2" data-name="Capa 1"><path class="cls-1" d="M169.53,85.32l-.14,3c0,1-.13,2.17-.28,3.56-.07.7-.15,1.45-.23,2.25s-.23,1.65-.36,2.54a79.51,79.51,0,0,1-2.9,12.67,88.59,88.59,0,0,1-6.57,15.45,86.34,86.34,0,0,1-11.43,16.13,82.26,82.26,0,0,1-7.72,7.53c-1.37,1.22-2.87,2.33-4.33,3.5-.75.57-1.53,1.1-2.29,1.66s-1.55,1.1-2.36,1.6a83.87,83.87,0,0,1-33,12.64,91.34,91.34,0,0,1-12.09,1A90.54,90.54,0,0,1,73.66,168,83.91,83.91,0,0,1,40.46,156c-.82-.49-1.61-1-2.39-1.56s-1.56-1.06-2.32-1.62c-1.48-1.14-3-2.23-4.39-3.43a82.63,82.63,0,0,1-7.84-7.4A86.7,86.7,0,0,1,11.8,126,89.39,89.39,0,0,1,5,110.71,78.89,78.89,0,0,1,1.85,98.09c-.14-.89-.28-1.74-.4-2.53S1.26,94,1.18,93.31C1,91.91.88,90.72.84,89.75l-.2-3s0,1,0,3c0,1,0,2.18.12,3.59,0,.7.07,1.46.14,2.27s.18,1.66.29,2.56a80.69,80.69,0,0,0,2.57,12.9A82.06,82.06,0,0,0,10.1,127a84.15,84.15,0,0,0,19.46,24.52,79.11,79.11,0,0,0,9.29,7,84.52,84.52,0,0,0,22.08,10.21,88.68,88.68,0,0,0,12.27,2.65,94.1,94.1,0,0,0,12.59.85,94.53,94.53,0,0,0,12.65-1.07,87.86,87.86,0,0,0,12.22-2.86,84,84,0,0,0,21.9-10.59,77.89,77.89,0,0,0,9.18-7.16,83,83,0,0,0,7.77-7.95,84,84,0,0,0,11.26-16.89,82.41,82.41,0,0,0,6-16,80.53,80.53,0,0,0,2.35-12.94c.09-.9.17-1.76.25-2.57s.06-1.57.09-2.27c.06-1.42.1-2.61.06-3.59C169.55,86.36,169.53,85.32,169.53,85.32Z"/><path class="cls-1" d="M29.76,22.52l2.31-1.75c1.74-1.3,3.91-2.8,6.46-4.39,1.27-.82,2.69-1.57,4.14-2.42s3-1.65,4.73-2.39A87.26,87.26,0,0,1,71.35,4.24a88.89,88.89,0,0,1,14-1l3.69.12c.61,0,1.25,0,1.84.08l1.79.19L96.3,4c1.2.18,2.4.43,3.6.63a85.48,85.48,0,0,1,14,3.74,91.84,91.84,0,0,1,12.79,5.94c1,.58,2,1.13,3,1.71l2.79,1.84c1.89,1.16,3.57,2.53,5.25,3.8a91.06,91.06,0,0,1,8.84,7.94l1,1,.89,1,1.71,1.94a47.62,47.62,0,0,1,3,3.71c1.91,2.34,3.29,4.58,4.54,6.37s2,3.32,2.61,4.31l.91,1.54-.74-1.62-.91-2c-.37-.76-.73-1.68-1.29-2.62a75.19,75.19,0,0,0-4.06-6.77c-.86-1.27-1.72-2.66-2.81-4l-1.63-2.08-.85-1.08-.93-1-1.94-2.15c-.66-.73-1.33-1.48-2.08-2.17l-2.25-2.15-1.16-1.09-1.24-1c-1.69-1.37-3.36-2.86-5.26-4.13l-2.82-2c-1-.63-2-1.22-3-1.84a85.32,85.32,0,0,0-13.15-6.43,88.82,88.82,0,0,0-14.59-4C99.25,1.13,98,.89,96.74.71L92.93.34A35.08,35.08,0,0,0,89.16.09L85.48,0A83.52,83.52,0,0,0,70.86,1.3,77.57,77.57,0,0,0,57.67,4.85a74.19,74.19,0,0,0-11.14,5c-1.69.85-3.21,1.84-4.69,2.71s-2.8,1.83-4,2.75a77.71,77.71,0,0,0-6.17,4.95l-2.16,2L28,23.75,26.72,25l1.38-1.14Z"/><path class="cls-2" d="M16.8,45.35a.3.3,0,0,0,.11.13s.05.06.05.14-.44.61-1.34,1.21-2,1.25-3.34,2S9.56,50.29,8.09,51s-2.78,1.34-3.93,1.81c0,.07,0,.3-.11.69a6.5,6.5,0,0,0-.11.76v1a8.24,8.24,0,0,0,.38,2.45,6.54,6.54,0,0,0,1.16,2.18,6.07,6.07,0,0,0,1.91,1.56,5.63,5.63,0,0,0,2.63.59,6.67,6.67,0,0,0,1.59-.24,8.85,8.85,0,0,0,1.83-.7A7.49,7.49,0,0,0,15,60a2.74,2.74,0,0,0,.86-1.46c.43,0,.69.16.78.38a1.38,1.38,0,0,1,.13.43,4.15,4.15,0,0,1-.67,2.39,5.37,5.37,0,0,1-1.67,1.62,7.52,7.52,0,0,1-2.1.91,7.55,7.55,0,0,1-2,.3q-4.64,0-6.73-2.58a10.5,10.5,0,0,1-2.09-6.78,8.7,8.7,0,0,1,.1-1,7.32,7.32,0,0,0,.11-1s-.07-.08-.21-.14a3.45,3.45,0,0,1-.46-.19,1.09,1.09,0,0,1-.43-.35,1,1,0,0,1-.19-.67.88.88,0,0,1,.32-.7,3.79,3.79,0,0,1,.76-.48l.53-.33a40.23,40.23,0,0,1,1.16-3.95A28,28,0,0,1,5,42.6a3.78,3.78,0,0,1-.92-.11q-.48-.1-.48-.75a2.56,2.56,0,0,1,.88-1.67A14.68,14.68,0,0,1,6.5,38.35,18,18,0,0,1,8.79,37a4.33,4.33,0,0,1,1.61-.57.47.47,0,0,1,.3.08.37.37,0,0,0,.29.09,4.77,4.77,0,0,0,1.1-.17c.45-.1.93-.23,1.43-.37s1-.27,1.43-.38a4.75,4.75,0,0,1,1.1-.16.88.88,0,0,1,.73.32,1.16,1.16,0,0,1,.24.7c0,.29-.18.5-.54.62s-.68.22-1,.3a15.67,15.67,0,0,0-3.15.94,26,26,0,0,0-3,1.48A15.63,15.63,0,0,0,8,41.55a23,23,0,0,0-1.45,2.5A29,29,0,0,0,5.32,47a12.46,12.46,0,0,0-.73,2.85l.91-.43q4.15-2,6.76-3.12a11.25,11.25,0,0,1,4.06-1.13A.64.64,0,0,1,16.8,45.35Z"/><path class="cls-2" d="M36.23,55.68a.69.69,0,0,1-.25.51,1,1,0,0,0-.29.51,2.76,2.76,0,0,0,.24,1.13,3.16,3.16,0,0,1,.24,1.29c0,.47-.14.7-.43.7A1.83,1.83,0,0,0,35,60a2.85,2.85,0,0,1-.83.25c-.22,0-.45-.2-.7-.59a3.09,3.09,0,0,1-.38-.65s-.1,0-.29.21a4.68,4.68,0,0,1-1,.62,8.6,8.6,0,0,1-1.83.65,12,12,0,0,1-2.93.29,5,5,0,0,1-2.64-.67,5.87,5.87,0,0,1-1.86-1.75,7.7,7.7,0,0,1-1.07-2.44,10.92,10.92,0,0,1-.35-2.78,10.13,10.13,0,0,1,.29-2.44,7.59,7.59,0,0,1,.84-2,4.35,4.35,0,0,1,1.34-1.42,3.33,3.33,0,0,1,1.89-.54,3.78,3.78,0,0,1,2,.64,12.6,12.6,0,0,1,1.83,1.4,21.3,21.3,0,0,1,1.83,2q-.75-4.19-1.35-7.58-.27-1.46-.51-2.88c-.16-1-.31-1.81-.45-2.56s-.26-1.39-.35-1.91a9.38,9.38,0,0,1-.14-.94c0-.22-.07-.6-.11-1.16s-.07-1.14-.1-1.75-.08-1.16-.11-1.66a7,7,0,0,0-.11-1c-.11-.36-.24-.81-.4-1.35A7.16,7.16,0,0,1,27.3,27a1.24,1.24,0,0,1,.26-.67.83.83,0,0,1,.7-.41,2.77,2.77,0,0,1,.6.06.78.78,0,0,1,.48.32,2.79,2.79,0,0,1,.4.83,9.27,9.27,0,0,1,.35,1.59q.06.54.33,2c.18,1,.35,2.1.53,3.29s.36,2.31.54,3.39.31,1.86.38,2.36c.18,1.37.42,2.85.73,4.44s.61,3.13.94,4.6.64,2.77,1,3.9A9.79,9.79,0,0,0,35.37,55a.6.6,0,0,0,.43.3A.59.59,0,0,1,36.23,55.68Zm-4,1.07c0-.1-.26-.56-.68-1.37A27.64,27.64,0,0,0,30,52.74a15.51,15.51,0,0,0-2.1-2.55,3.3,3.3,0,0,0-2.23-1.13c-.61,0-1.1.47-1.48,1.4a8.51,8.51,0,0,0-.56,3.23A4.49,4.49,0,0,0,24.85,57a3.72,3.72,0,0,0,2.71,1.24,9.36,9.36,0,0,0,2.69-.43A4.86,4.86,0,0,0,32.25,56.75Z"/><path class="cls-2" d="M58.07,55.41a1.44,1.44,0,0,1-.64,1,9.2,9.2,0,0,1-1.51,1,15.08,15.08,0,0,1-1.75.78,4.47,4.47,0,0,1-1.32.32,2.48,2.48,0,0,1-1.05-.27,6.24,6.24,0,0,1-1.07-.65c-.34-.25-.64-.48-.89-.7a5.56,5.56,0,0,1-.48-.43,5.47,5.47,0,0,0-.49.65,12.78,12.78,0,0,1-.78,1,6.51,6.51,0,0,1-1,1,1.62,1.62,0,0,1-1,.44,2.93,2.93,0,0,1-2.42-1.51A14.77,14.77,0,0,1,42,54.65a26.46,26.46,0,0,1-1-3.73,15.11,15.11,0,0,1-.35-2.45.71.71,0,0,1,.4-.62,1.36,1.36,0,0,1,.62-.24,1,1,0,0,1,1,.51,2.33,2.33,0,0,1,.27,1.1,9.26,9.26,0,0,0,.29,1.72c.2.83.44,1.67.73,2.53a18.78,18.78,0,0,0,.92,2.29c.32.66.61,1,.86,1a1.45,1.45,0,0,0,1.21-.88,8.87,8.87,0,0,0,.83-2,18.52,18.52,0,0,0,.49-2.21,13.21,13.21,0,0,0,.16-1.37s0-.15,0-.35.05-.4.09-.62.06-.41.08-.59,0-.3,0-.37a.65.65,0,0,0-.16-.52c-.11-.08-.16-.27-.16-.56a.86.86,0,0,1,.32-.62,2.21,2.21,0,0,1,1.4-.3.91.91,0,0,1,.67.25,1.33,1.33,0,0,1,.35.56,3,3,0,0,1,.14.62,3.73,3.73,0,0,1,0,.4s0,.29,0,.76-.06,1-.08,1.53S51,51.52,51,52s0,.81,0,.91a2.47,2.47,0,0,0,.16.65,7.9,7.9,0,0,0,.4,1,4.21,4.21,0,0,0,.57.92.88.88,0,0,0,.7.4A3.7,3.7,0,0,0,54,55.7,9.19,9.19,0,0,0,55,55.27l.94-.43a2.16,2.16,0,0,1,.81-.19,1.92,1.92,0,0,1,.89.22A.61.61,0,0,1,58.07,55.41Z"/><path class="cls-2" d="M75.72,54.55a3.9,3.9,0,0,1-.16,1.1c-.11.38-.22.69-.32.94s-.41.48-1,1.1a19.5,19.5,0,0,1-5.16,3.83,7.06,7.06,0,0,1-3.15.83A5.87,5.87,0,0,1,64.07,62,5.2,5.2,0,0,1,62.32,61,5.68,5.68,0,0,1,61,59.17a6.08,6.08,0,0,1-.51-2.63,12.31,12.31,0,0,1,.86-4.68,17.86,17.86,0,0,1,1.73-3.34,7.33,7.33,0,0,1,1-1.21c.41-.41.82-.79,1.21-1.13a8.61,8.61,0,0,1,1.11-.83,1.7,1.7,0,0,1,.72-.33,1.58,1.58,0,0,1,.89.27c.27.18.4.36.4.54a1.13,1.13,0,0,1-.24.73,4.67,4.67,0,0,1-.67.64c-.29.24-.63.54-1,.92a9.44,9.44,0,0,0-1.24,1.48,13.23,13.23,0,0,0-1.91,3.63,10.57,10.57,0,0,0-.62,3.25,2.71,2.71,0,0,0,1,2.24,3.48,3.48,0,0,0,2.18.83,7.14,7.14,0,0,0,3.63-.91,12.92,12.92,0,0,0,2.72-2,21.66,21.66,0,0,0,1.83-2c.46-.61.8-.92,1-.92C75.52,53.63,75.72,53.94,75.72,54.55Z"/><path class="cls-2" d="M105.58,53.15a4.83,4.83,0,0,1-.88,2.39,12.86,12.86,0,0,1-2.4,2.77,14.41,14.41,0,0,1-3.5,2.29,9.49,9.49,0,0,1-4.14.94,7.2,7.2,0,0,1-2-.32,9.33,9.33,0,0,1-2.1-.94,8.27,8.27,0,0,1-1.83-1.51,5.51,5.51,0,0,1-1.19-2,7,7,0,0,0-.78,1.08q-.45.75-1,1.53a7.1,7.1,0,0,1-1.19,1.35,2,2,0,0,1-1.34.56A1.35,1.35,0,0,1,82,60.55a7,7,0,0,1-.72-1.62,10.39,10.39,0,0,1-.38-1.69c-.07-.54-.11-.84-.11-.92a15.14,15.14,0,0,1,.38-2.45,23.77,23.77,0,0,1,1.13-3.73,13.82,13.82,0,0,1,1.91-3.45A3.39,3.39,0,0,1,87,45.18a.77.77,0,0,1,.78.52,3,3,0,0,1,.18,1v1.62a1.54,1.54,0,0,0,.57.29,2.65,2.65,0,0,1,.54.22.9.9,0,0,1,.37.4,2,2,0,0,1,.14.86,3.33,3.33,0,0,1-.06.67,3.88,3.88,0,0,0,0,.57,16.52,16.52,0,0,0,.22,2.74,6.42,6.42,0,0,0,.86,2.4,5.12,5.12,0,0,0,1.77,1.72,5.88,5.88,0,0,0,3,.67,7.67,7.67,0,0,0,4-1,12.61,12.61,0,0,0,2.74-2.21,17.78,17.78,0,0,0,1.75-2.21c.43-.66.79-1,1.07-1A.62.62,0,0,1,105.58,53.15ZM86.7,50.78a.8.8,0,0,0-.11-.4.74.74,0,0,1-.11-.35.68.68,0,0,1,.11-.38.78.78,0,0,0,.11-.43.28.28,0,0,0-.11-.24.26.26,0,0,1-.11-.19,1.86,1.86,0,0,0-1,.91,12.76,12.76,0,0,0-1,1.89,13.62,13.62,0,0,0-.73,2.18,7.84,7.84,0,0,0-.27,1.8,5.63,5.63,0,0,0,.22,1.24,2.58,2.58,0,0,0,.48,1.13c.61-1.26,1.18-2.48,1.7-3.66A8.68,8.68,0,0,0,86.7,50.78Z"/><path class="cls-2" d="M121.73,54.55a3.93,3.93,0,0,1-.17,1.1,6.36,6.36,0,0,1-.32.94,13.93,13.93,0,0,1-1,1.1,19.56,19.56,0,0,1-2.21,2,18.66,18.66,0,0,1-3,1.86,7,7,0,0,1-3.15.83,5.76,5.76,0,0,1-1.85-.32A5.2,5.2,0,0,1,108.33,61,5.68,5.68,0,0,1,107,59.17a6.08,6.08,0,0,1-.51-2.63,12.31,12.31,0,0,1,.86-4.68,17.89,17.89,0,0,1,1.72-3.34,6.94,6.94,0,0,1,1-1.21c.41-.41.81-.79,1.21-1.13a8.57,8.57,0,0,1,1.1-.83,1.67,1.67,0,0,1,.73-.33,1.52,1.52,0,0,1,.88.27c.27.18.41.36.41.54a1.13,1.13,0,0,1-.24.73,5.44,5.44,0,0,1-.68.64c-.28.24-.62.54-1,.92a10,10,0,0,0-1.24,1.48,13.51,13.51,0,0,0-1.91,3.63,10.57,10.57,0,0,0-.62,3.25,2.71,2.71,0,0,0,1,2.24,3.5,3.5,0,0,0,2.18.83,7.15,7.15,0,0,0,3.64-.91,12.85,12.85,0,0,0,2.71-2,19.17,19.17,0,0,0,1.83-2c.47-.61.81-.92,1-.92C121.53,53.63,121.73,53.94,121.73,54.55Z"/><path class="cls-2" d="M129.21,39.59c0,.07-.13.21-.38.43a10.82,10.82,0,0,1-.89.67,8,8,0,0,1-1,.62,2.06,2.06,0,0,1-.86.27l-.56,0a2,2,0,0,1-.7-.19,1.83,1.83,0,0,1-.62-.45,1.12,1.12,0,0,1-.27-.78,2.24,2.24,0,0,1,.54-1.43,1.68,1.68,0,0,1,1.4-.67,4,4,0,0,1,.72.13,11.63,11.63,0,0,1,1.16.35,7.34,7.34,0,0,1,1,.49C129.05,39.18,129.21,39.37,129.21,39.59ZM131,59.71c0,.25-.19.47-.56.65a2.28,2.28,0,0,1-.84.27,1.21,1.21,0,0,1-1-.7,9.38,9.38,0,0,1-.75-1.62q-.33-.91-.54-1.74c-.14-.56-.25-1-.32-1.16s-.25-.79-.43-1.29-.35-1-.51-1.46-.3-.87-.41-1.23-.16-.56-.16-.6a3.24,3.24,0,0,1,.3-1.39c.2-.44.44-.65.72-.65s.67.25,1,.75a11.06,11.06,0,0,1,1,1.91,26.35,26.35,0,0,1,.94,2.53c.29.92.54,1.78.75,2.59s.39,1.5.51,2.09A8.49,8.49,0,0,1,131,59.71Z"/><path class="cls-2" d="M144,52.72a8,8,0,0,1-.32,2.26,7.07,7.07,0,0,1-.86,1.88,4.27,4.27,0,0,1-1.27,1.27,2.93,2.93,0,0,1-1.58.45,3.17,3.17,0,0,1-2.37-.86,5.92,5.92,0,0,1-1.32-2,8.88,8.88,0,0,1-.59-2.29,16.69,16.69,0,0,1-.14-1.74,9.09,9.09,0,0,1,.3-2.18,11,11,0,0,1,.81-2.24,7.47,7.47,0,0,1,1.15-1.72,1.87,1.87,0,0,1,1.35-.7,2,2,0,0,1,.51.11,3.78,3.78,0,0,1,.73.32,3.18,3.18,0,0,1,.67.54,1.71,1.71,0,0,1,.4.75,2.73,2.73,0,0,1,1.19.43c.39.26.61.45.64.6a13.83,13.83,0,0,1,.57,2.79C144,51.34,144,52.11,144,52.72ZM145.78,37a2.38,2.38,0,0,1-.65,1.23,17.49,17.49,0,0,1-1.53,1.67,20.82,20.82,0,0,1-1.83,1.59,9.57,9.57,0,0,1-1.48,1,2.46,2.46,0,0,1-.75.27,3.15,3.15,0,0,1-.54.06,1.93,1.93,0,0,1-1.08-.49c-.43-.32-.64-.62-.64-.91q0-.11.48-.3a8.42,8.42,0,0,0,1.08-.51,12.33,12.33,0,0,0,1.42-1L142,38.11c.59-.49,1.13-.91,1.61-1.27a2.42,2.42,0,0,1,1-.53,1.52,1.52,0,0,1,.75.21C145.65,36.67,145.78,36.83,145.78,37Zm-4.2,14.74a9.37,9.37,0,0,0-.16-1.7,6.13,6.13,0,0,0-.65-1.8.54.54,0,0,1-.27.06.8.8,0,0,1-.34-.06.85.85,0,0,0-.25,0,1.41,1.41,0,0,0-1,.35,2.1,2.1,0,0,0-.56.91,5.2,5.2,0,0,0-.25,1.21c0,.43-.05.85-.05,1.24s0,.83.05,1.32a6.65,6.65,0,0,0,.25,1.37,3.39,3.39,0,0,0,.51,1.1,1,1,0,0,0,.86.46,1.09,1.09,0,0,0,.91-.56,4.69,4.69,0,0,0,.59-1.32,8.1,8.1,0,0,0,.3-1.48C141.55,52.31,141.58,52,141.58,51.75Z"/><path class="cls-2" d="M165.58,57.72a1.13,1.13,0,0,1-.22.65,3.13,3.13,0,0,1-.51.59,3.25,3.25,0,0,1-.64.46,1.44,1.44,0,0,1-.62.19,9,9,0,0,1-2.34-.41A5.17,5.17,0,0,1,159,57.94a9.56,9.56,0,0,1-1.61-2.18A24.45,24.45,0,0,1,155.79,52q-.6,2.37-1.38,4.68a12.22,12.22,0,0,1-2.5,4.25.44.44,0,0,1-.32.11,1.3,1.3,0,0,1-.81-.38,1,1,0,0,1-.43-.75c0-.25,0-.84-.08-1.75s-.12-1.94-.19-3.07-.13-2.28-.19-3.44-.08-2.13-.08-2.88c0-.36,0-.83.06-1.43a4.55,4.55,0,0,1,.32-1.53,2.83,2.83,0,0,1,.4-.43,1.12,1.12,0,0,1,.78-.32c.25,0,.4.16.43.48a8.77,8.77,0,0,1,.06,1.08v8.5a4.15,4.15,0,0,0,.08.75,1.52,1.52,0,0,0,.24.7,21.46,21.46,0,0,0,1.1-3c.34-1.16.68-2.28,1-3.33a22.34,22.34,0,0,1,1-2.69c.32-.74.64-1.11,1-1.11a1.5,1.5,0,0,1,.86.22,1.68,1.68,0,0,1,.54.86c.17,1,.32,2,.43,2.77a18.6,18.6,0,0,0,.4,2.18,7.24,7.24,0,0,0,.7,1.8,5.47,5.47,0,0,0,1.26,1.53,4.74,4.74,0,0,0,1.7,1,5.3,5.3,0,0,0,1.64.32,2.09,2.09,0,0,0,.7-.13,1.92,1.92,0,0,1,.54-.14c.14,0,.27.13.4.38A1.48,1.48,0,0,1,165.58,57.72Z"/><path class="cls-2" d="M89.5,90a2.36,2.36,0,0,1-.64,1.65,5.38,5.38,0,0,1-1.62,1.18,10.77,10.77,0,0,1-2.16.75,21.18,21.18,0,0,1-2.24.42,18.62,18.62,0,0,1-1.88.17l-1,0A3.86,3.86,0,0,1,78,93.83a1.5,1.5,0,0,1-.67-1.4,2.55,2.55,0,0,1,.06-.59c0-.17.18-.25.45-.25a2.68,2.68,0,0,1,.56.08,2.74,2.74,0,0,0,.61.08c.15,0,.63,0,1.43-.08s1.66-.16,2.58-.31a12.52,12.52,0,0,0,2.47-.64c.73-.28,1.09-.65,1.09-1.1a4,4,0,0,0-1.15-.7c-.76-.39-1.91-1-3.45-2a7.81,7.81,0,0,1-2.52-2.27,5.79,5.79,0,0,1-.73-3.11,3.46,3.46,0,0,1,.54-2,3.59,3.59,0,0,1,1.45-1.24,7.71,7.71,0,0,1,2.13-.64,16.07,16.07,0,0,1,2.55-.2,7.07,7.07,0,0,1,.7.11,8.05,8.05,0,0,1,1.27.37,6.14,6.14,0,0,1,1.2.61,1,1,0,0,1,.53.82.63.63,0,0,1-.19.33c-.13.15-.35.43-.65.84l-.59-.16-1-.26C86.38,80,86,80,85.64,79.9a5.77,5.77,0,0,0-.9-.08,4.5,4.5,0,0,0-2.35.53,2.16,2.16,0,0,0-.9,2,1.93,1.93,0,0,0,.59,1.35,7.23,7.23,0,0,0,1.48,1.15c.6.35,1.25.71,1.94,1.06a18.91,18.91,0,0,1,1.93,1.15,7.46,7.46,0,0,1,1.49,1.32A2.43,2.43,0,0,1,89.5,90Z"/><path class="cls-2" d="M108.49,73.09a8.14,8.14,0,0,1-2,1.59c-.86.52-1.72,1-2.58,1.43s-1.61.8-2.26,1.1-1,.51-1,.62a5.71,5.71,0,0,0,.22,1c.14.54.31,1.17.51,1.91s.4,1.5.62,2.28.39,1.49.53,2.1c.08.36.17.83.27,1.4s.21,1.15.3,1.72l.24,1.54c.07.45.11.69.11.72a5.55,5.55,0,0,1-.27,1.67c-.18.58-.47.86-.86.86a.81.81,0,0,1-.59-.27,3.44,3.44,0,0,1-.49-.62,3.13,3.13,0,0,1-.32-.67,1.72,1.72,0,0,1-.11-.48,2.79,2.79,0,0,1,0-.33,3.43,3.43,0,0,0,0-.48,19.11,19.11,0,0,0-.33-3c-.07-.39-.21-1-.43-1.83s-.43-1.67-.64-2.53-.54-2.1-.86-3.28a2.9,2.9,0,0,0-.27-.75,3.47,3.47,0,0,0-1.27.45c-.59.31-1.26.69-2,1.13s-1.55.94-2.37,1.46l-2.32,1.45c-.71.45-1.33.83-1.85,1.13a3.39,3.39,0,0,1-.94.46,1.41,1.41,0,0,1-1.13-.49,1.56,1.56,0,0,1-.43-1.07c0-.22.29-.53.88-.94s1.33-.87,2.21-1.38S91,80,92,79.44s2-1,2.85-1.45L98,76.48c-.33-1.65-.59-3.12-.81-4.41C97,71,96.79,69.94,96.63,69s-.24-1.43-.24-1.5a1.62,1.62,0,0,1,.29-1,.88.88,0,0,1,.68-.35q.58,0,.75.81.58,2.9,1.1,5.16a33.12,33.12,0,0,0,1,3.66,11.23,11.23,0,0,0,1.67-.62l2.47-1.1q1.29-.6,2.34-1.05a6.76,6.76,0,0,1,1.21-.46c.22,0,.35.07.41.22A1.59,1.59,0,0,0,108.49,73.09Z"/><path class="cls-2" d="M126.36,91.77a.85.85,0,0,1,0,.32,2,2,0,0,1-.48,1,8.76,8.76,0,0,1-.7.7,7.38,7.38,0,0,1-1.46,1,11.66,11.66,0,0,1-2.23.87,11.38,11.38,0,0,1-3.09.37A5.6,5.6,0,0,1,116,95.4a6.29,6.29,0,0,1-2.1-1.67A9,9,0,0,1,112.42,91a11.39,11.39,0,0,1-.59-3.84,13.83,13.83,0,0,1,.54-3.93A13.42,13.42,0,0,1,113.74,80a7.62,7.62,0,0,1,1.86-2.2,3.22,3.22,0,0,1,2-.81,4.58,4.58,0,0,1,1.74.35,6.66,6.66,0,0,1,1.62.89,4.57,4.57,0,0,1,1.16,1.21,2.56,2.56,0,0,1,.43,1.37,2.67,2.67,0,0,1-.73,1.67A9.26,9.26,0,0,1,120.06,84a12,12,0,0,1-2,1.19,4.38,4.38,0,0,1-1.62.45.7.7,0,0,1-.56-.29,1.13,1.13,0,0,1-.24-.73,1.33,1.33,0,0,1,.67-1.18,9.83,9.83,0,0,1,1.48-.78,7.37,7.37,0,0,0,1.48-.84,1.55,1.55,0,0,0,.67-1.34,1.73,1.73,0,0,0-.27-.54c-.18-.29-.66-.43-1.45-.43a2,2,0,0,0-1.24.62,7.19,7.19,0,0,0-1.34,1.67,10.22,10.22,0,0,0-1.08,2.47,10.56,10.56,0,0,0-.43,3.1,6.08,6.08,0,0,0,1.83,4.44,5.78,5.78,0,0,0,1.88,1.21,6,6,0,0,0,2.21.43,5.13,5.13,0,0,0,1.75-.35c.62-.24,1.22-.49,1.77-.76s1-.52,1.46-.75a2.63,2.63,0,0,1,.77-.35.53.53,0,0,1,.35.16A.8.8,0,0,1,126.36,91.77Z"/><path class="cls-2" d="M154.07,92.36a1.15,1.15,0,0,1-.27.75,1.89,1.89,0,0,1-.65.51,3.7,3.7,0,0,1-.78.3,2.8,2.8,0,0,1-.67.11,2.33,2.33,0,0,1-1.94-1.22,12.75,12.75,0,0,1-1.34-2.69,17.25,17.25,0,0,1-.78-2.77c-.16-.86-.24-1.32-.24-1.4a9.38,9.38,0,0,0-.68,2c-.23.94-.51,1.88-.83,2.83a11.19,11.19,0,0,1-1.21,2.53,2.17,2.17,0,0,1-1.86,1.1,1.31,1.31,0,0,1-1-.64,8.22,8.22,0,0,1-.92-1.67c-.28-.68-.56-1.46-.83-2.32s-.54-1.7-.81-2.52-.53-1.61-.78-2.35a10,10,0,0,0-.75-1.74,11.53,11.53,0,0,0-.56,2.2c-.17.93-.3,1.91-.41,2.93s-.2,2-.27,3-.11,1.89-.11,2.64a1.31,1.31,0,0,1-.4,1.08,1.36,1.36,0,0,1-.83.32,1.6,1.6,0,0,1-1.19-.78,11.61,11.61,0,0,1-1.18-2,23.73,23.73,0,0,1-1.1-2.8c-.34-1-.65-2.08-.92-3.12s-.47-2-.62-3a16.93,16.93,0,0,1-.21-2.4c0-.46,0-.89.05-1.29s.06-.63.08-.91,0-.45,0-.49a.23.23,0,0,0-.08-.21.35.35,0,0,1-.08-.27c0-.11.13-.28.4-.51a1.24,1.24,0,0,1,.84-.35,1.17,1.17,0,0,1,1,.32,1.24,1.24,0,0,1,.24.75c0,.11,0,.27,0,.49s0,.7,0,1.45a14.06,14.06,0,0,0,.27,2.26c.18,1,.39,2,.64,3.07s.52,2,.79,2.88a5.56,5.56,0,0,0,.67,1.64,1.59,1.59,0,0,0,.13-.51,2.82,2.82,0,0,1,.08-.46l.59-4.41a16.91,16.91,0,0,1,.89-3.53,11.64,11.64,0,0,1,1.43-2.88c.18-.28.37-.43.59-.43s.41.16.59.49a13.16,13.16,0,0,1,1.37,3q.47,1.49.81,2.91t.81,2.85A11.64,11.64,0,0,0,143.41,90a16.59,16.59,0,0,0,1.08-2.29c.43-1,.87-2.12,1.32-3.2s.87-2,1.26-2.82.7-1.21.92-1.21a3.61,3.61,0,0,1,.54,0,3.51,3.51,0,0,0,.53,0q.49,0,.81,1.11a22.1,22.1,0,0,1,.57,2.58l.48,3a9.65,9.65,0,0,0,.57,2.23,3.28,3.28,0,0,0,.64,1c.29.33.57.63.86.92Z"/><path class="cls-2" d="M38,121.31a3.48,3.48,0,0,1-.4,1.56,11.1,11.1,0,0,1-1,1.61,15.81,15.81,0,0,1-1.3,1.54q-.69.72-1.29,1.26c-1,.86-2,1.68-3,2.45a27.89,27.89,0,0,1-3.18,2.07,16.57,16.57,0,0,1-3.42,1.45,12.66,12.66,0,0,1-3.71.54q-5.86,0-5.86-6a10.88,10.88,0,0,1,.48-2.32c.32-1.14.74-2.45,1.24-3.93s1.09-3,1.77-4.62,1.39-3.1,2.1-4.44a20.71,20.71,0,0,1,2.13-3.31,2.79,2.79,0,0,1,2-1.29,1.06,1.06,0,0,1,.89.37,1.29,1.29,0,0,1,.3.81,5.23,5.23,0,0,1-.76,1.37c-.46.7-.95,1.41-1.45,2.13-.07.11-.2.29-.38.54l-.53.75c-.22.29-.44.59-.65.91s-.46.89-.94,1.92-1,2.2-1.54,3.55-1,2.74-1.45,4.19a13.68,13.68,0,0,0-.64,3.8,2.35,2.35,0,0,0,.4,1.45,2.59,2.59,0,0,0,1,.81,4,4,0,0,0,1.18.35,9.33,9.33,0,0,0,1.1.08,11.52,11.52,0,0,0,4.23-.89,20.36,20.36,0,0,0,4.28-2.34,23.38,23.38,0,0,0,3.76-3.36,16.43,16.43,0,0,0,2.69-4,1.12,1.12,0,0,1,.46-.48,1.14,1.14,0,0,1,.46-.11c.28,0,.54.2.75.59A2.13,2.13,0,0,1,38,121.31Z"/><path class="cls-2" d="M52.21,122a8,8,0,0,1-.32,2.26,7.09,7.09,0,0,1-.87,1.88,4.24,4.24,0,0,1-1.26,1.27,2.94,2.94,0,0,1-1.59.45,3.16,3.16,0,0,1-2.36-.86,5.68,5.68,0,0,1-1.32-2,8.54,8.54,0,0,1-.6-2.28c-.08-.78-.13-1.36-.13-1.75a9.09,9.09,0,0,1,.3-2.18,10.41,10.41,0,0,1,.8-2.24A7.49,7.49,0,0,1,46,114.85a1.87,1.87,0,0,1,1.35-.7,2.23,2.23,0,0,1,.51.11,3.71,3.71,0,0,1,.72.32,3.23,3.23,0,0,1,.68.54,1.82,1.82,0,0,1,.4.75,2.72,2.72,0,0,1,1.18.44c.4.25.61.44.65.59a13.76,13.76,0,0,1,.56,2.8C52.16,120.63,52.21,121.4,52.21,122Zm-2.42-1a10.14,10.14,0,0,0-.16-1.69,6.38,6.38,0,0,0-.65-1.81.54.54,0,0,1-.27.06.88.88,0,0,1-.35-.06.79.79,0,0,0-.24-.05,1.45,1.45,0,0,0-1,.35,2.21,2.21,0,0,0-.57.91,5.19,5.19,0,0,0-.24,1.21c0,.43,0,.85,0,1.24s0,.84,0,1.32a6.64,6.64,0,0,0,.24,1.37A4.07,4.07,0,0,0,47,125a1,1,0,0,0,.86.45,1.1,1.1,0,0,0,.92-.56,4.69,4.69,0,0,0,.59-1.32,10.22,10.22,0,0,0,.3-1.48C49.76,121.61,49.79,121.26,49.79,121Z"/><path class="cls-2" d="M64.48,132.72a1.38,1.38,0,0,1-.76.21c-.32,0-.65-.3-1-.91a15.12,15.12,0,0,1-1-2.32c-.32-.93-.63-1.94-.91-3s-.54-2.11-.76-3.06-.38-1.75-.51-2.4-.19-1-.19-1.07a8.56,8.56,0,0,0-.18-1.13c-.13-.61-.29-1.56-.49-2.86s-.41-3-.64-5-.48-4.62-.73-7.66a5.91,5.91,0,0,1,.16-1.24c.11-.5.36-.76.75-.76s.89.35,1.16,1A12,12,0,0,1,60,105c.16,1,.27,2,.35,3.14s.16,2.06.27,2.88c.14,1.15.27,2.19.4,3.12s.25,1.86.38,2.77.28,1.88.48,2.88.44,2.12.73,3.34l2.15,8.93A.75.75,0,0,1,64.48,132.72Z"/><path class="cls-2" d="M78.63,122a8,8,0,0,1-.32,2.26,7.09,7.09,0,0,1-.87,1.88,4.24,4.24,0,0,1-1.26,1.27,2.94,2.94,0,0,1-1.59.45,3.16,3.16,0,0,1-2.36-.86,5.68,5.68,0,0,1-1.32-2,8.54,8.54,0,0,1-.6-2.28c-.08-.78-.13-1.36-.13-1.75a9.09,9.09,0,0,1,.3-2.18,10.41,10.41,0,0,1,.8-2.24,7.49,7.49,0,0,1,1.16-1.72,1.87,1.87,0,0,1,1.35-.7,2.23,2.23,0,0,1,.51.11,3.71,3.71,0,0,1,.72.32,3.23,3.23,0,0,1,.68.54,1.82,1.82,0,0,1,.4.75,2.72,2.72,0,0,1,1.18.44c.4.25.61.44.65.59a13.76,13.76,0,0,1,.56,2.8C78.58,120.63,78.63,121.4,78.63,122Zm-2.42-1a10.14,10.14,0,0,0-.16-1.69,6.38,6.38,0,0,0-.65-1.81.54.54,0,0,1-.27.06.88.88,0,0,1-.35-.06.79.79,0,0,0-.24-.05,1.45,1.45,0,0,0-1,.35,2.21,2.21,0,0,0-.57.91,5.19,5.19,0,0,0-.24,1.21c0,.43,0,.85,0,1.24s0,.84,0,1.32a6.64,6.64,0,0,0,.24,1.37,4.07,4.07,0,0,0,.51,1.11,1,1,0,0,0,.86.45,1.1,1.1,0,0,0,.92-.56,4.69,4.69,0,0,0,.59-1.32,10.22,10.22,0,0,0,.3-1.48C76.18,121.61,76.21,121.26,76.21,121Z"/><path class="cls-2" d="M108,128.57a1.16,1.16,0,0,1-.27.76,2.12,2.12,0,0,1-.64.51,4.3,4.3,0,0,1-.78.29,2.42,2.42,0,0,1-.67.11,2.31,2.31,0,0,1-1.94-1.21,12.54,12.54,0,0,1-1.35-2.69,17.54,17.54,0,0,1-.78-2.77c-.16-.86-.24-1.33-.24-1.4a9.49,9.49,0,0,0-.67,2c-.24.93-.51,1.88-.84,2.83a10.78,10.78,0,0,1-1.21,2.53,2.16,2.16,0,0,1-1.85,1.1,1.32,1.32,0,0,1-1-.65,7.53,7.53,0,0,1-.92-1.67c-.29-.68-.56-1.45-.83-2.31s-.54-1.7-.81-2.53-.53-1.6-.78-2.34a10.13,10.13,0,0,0-.75-1.75,11,11,0,0,0-.57,2.21c-.16.93-.3,1.91-.4,2.93s-.2,2-.27,3-.11,1.88-.11,2.64a1.28,1.28,0,0,1-.4,1.07,1.32,1.32,0,0,1-.84.33,1.59,1.59,0,0,1-1.18-.78,11.36,11.36,0,0,1-1.18-2,22.69,22.69,0,0,1-1.11-2.8c-.34-1-.64-2.08-.91-3.12a28.51,28.51,0,0,1-.62-3,15.74,15.74,0,0,1-.22-2.39,12.71,12.71,0,0,1,.06-1.29c0-.33.06-.63.08-.92s0-.45,0-.48,0-.18-.08-.22-.08-.12-.08-.27.14-.27.41-.51a1.27,1.27,0,0,1,.83-.35,1,1,0,0,1,1.24,1.08q0,.16,0,.48c0,.22,0,.7,0,1.46a13.9,13.9,0,0,0,.26,2.26c.18,1,.4,2,.65,3.06s.51,2,.78,2.88a5.72,5.72,0,0,0,.67,1.64,1.46,1.46,0,0,0,.14-.51,1.66,1.66,0,0,1,.08-.46l.59-4.41a16.38,16.38,0,0,1,.89-3.52,11.66,11.66,0,0,1,1.42-2.88.74.74,0,0,1,.6-.43c.21,0,.41.16.59.48a13.67,13.67,0,0,1,1.37,3q.45,1.49.81,2.91c.23,1,.5,1.9.8,2.85a11.7,11.7,0,0,0,1.43,2.88,17.87,17.87,0,0,0,1.08-2.29c.43-1.06.86-2.13,1.31-3.2s.87-2,1.27-2.83.7-1.21.91-1.21a3.9,3.9,0,0,1,.54.06c.25,0,.43.05.54.05.32,0,.59.37.81,1.1a22.93,22.93,0,0,1,.56,2.59c.16,1,.32,2,.49,3a10.45,10.45,0,0,0,.56,2.23,3.32,3.32,0,0,0,.65,1c.28.32.57.63.86.91Z"/><path class="cls-2" d="M125.06,122.92a14.59,14.59,0,0,1-.56,4.25,12,12,0,0,1-1.37,3,6.87,6.87,0,0,1-1.65,1.81,2.6,2.6,0,0,1-1.37.59,2.09,2.09,0,0,1-1.45-.67,1.85,1.85,0,0,1-.7-1.27c0-.57.23-.86.7-.86a.91.91,0,0,1,.54.19,5,5,0,0,0,.48.3,7.46,7.46,0,0,0,1.75-2.48,11.47,11.47,0,0,0,.83-4.9,9.54,9.54,0,0,0-.26-2.31,9.13,9.13,0,0,0-.62-1.72,4.29,4.29,0,0,0-.73-1.08c-.25-.25-.43-.37-.54-.37-.36,0-.71.35-1,1.07a14.83,14.83,0,0,0-.88,2.45c-.26.91-.46,1.81-.62,2.69a12.77,12.77,0,0,0-.25,1.8l.11.59c0,.18.07.36.11.54a3.29,3.29,0,0,1,0,.54,2.71,2.71,0,0,1-.7,1.83,1.88,1.88,0,0,1-1.34.81c-.22,0-.39-.15-.51-.46a4.73,4.73,0,0,1-.3-1.16c-.07-.46-.13-.95-.19-1.45s-.11-1-.18-1.35q-.44-1-1.14-3.06l-1.47-4.49c-.53-1.6-1-3.15-1.46-4.66s-.78-2.71-1-3.6c-.51-1.94-.89-3.64-1.16-5.09s-.48-2.73-.65-3.82a27.27,27.27,0,0,1-.29-2.82c0-.79-.06-1.46-.06-2a.86.86,0,0,1,.41-.75,1.35,1.35,0,0,1,.72-.27,1.07,1.07,0,0,1,.7.19,1.24,1.24,0,0,1,.3.78c0,.4.11,1,.16,1.72s.16,1.76.3,3c.07.61.2,1.45.4,2.52s.46,2.28.78,3.61.67,2.72,1,4.17.77,2.84,1.18,4.17.83,2.55,1.24,3.66a19.67,19.67,0,0,0,1.16,2.64,21.08,21.08,0,0,1,1.18-3.5,12.21,12.21,0,0,1,1.46-2.4,2.58,2.58,0,0,1,2.09-1.1,3,3,0,0,1,1.3.43,5.23,5.23,0,0,1,1.58,1.45,9.63,9.63,0,0,1,1.35,2.69A13.12,13.12,0,0,1,125.06,122.92Z"/><path class="cls-2" d="M133.24,108.88c0,.07-.12.21-.38.43a8.74,8.74,0,0,1-.88.67,8,8,0,0,1-1,.62,2.1,2.1,0,0,1-.86.27l-.57,0a2,2,0,0,1-.7-.18,2,2,0,0,1-.62-.46,1.12,1.12,0,0,1-.27-.78,2.26,2.26,0,0,1,.54-1.43,1.71,1.71,0,0,1,1.4-.67,4.09,4.09,0,0,1,.73.13,11.47,11.47,0,0,1,1.15.35,6.44,6.44,0,0,1,1.05.49C133.09,108.47,133.24,108.66,133.24,108.88ZM135,129c0,.26-.19.47-.57.65a2.24,2.24,0,0,1-.83.27,1.19,1.19,0,0,1-1-.7,7.84,7.84,0,0,1-.75-1.62,18,18,0,0,1-.54-1.74c-.15-.56-.25-1-.33-1.16-.1-.36-.25-.79-.43-1.29s-.34-1-.51-1.45-.29-.88-.4-1.24a5.16,5.16,0,0,1-.16-.59,3.4,3.4,0,0,1,.29-1.4c.2-.43.44-.65.73-.65s.66.25,1,.75a11.06,11.06,0,0,1,1.05,1.91,23.92,23.92,0,0,1,.94,2.53c.29.92.54,1.78.76,2.59s.38,1.5.51,2.09S135,128.9,135,129Z"/><path class="cls-2" d="M164,122.44a4.83,4.83,0,0,1-.88,2.39,12.86,12.86,0,0,1-2.4,2.77,14.54,14.54,0,0,1-3.49,2.29,9.57,9.57,0,0,1-4.15.94,6.91,6.91,0,0,1-2-.32,8.91,8.91,0,0,1-2.1-.94,8.27,8.27,0,0,1-1.83-1.51,5.49,5.49,0,0,1-1.18-2,5.85,5.85,0,0,0-.78,1.08c-.31.5-.64,1-1,1.53a7.42,7.42,0,0,1-1.18,1.35,2,2,0,0,1-1.35.56,1.35,1.35,0,0,1-1.16-.72,6.81,6.81,0,0,1-.72-1.62,10.39,10.39,0,0,1-.38-1.69c-.07-.54-.11-.84-.11-.92a14.91,14.91,0,0,1,.38-2.44,23.56,23.56,0,0,1,1.13-3.74,13.82,13.82,0,0,1,1.91-3.45,3.38,3.38,0,0,1,2.72-1.5.76.76,0,0,1,.78.51,3,3,0,0,1,.19,1v1.62a1.43,1.43,0,0,0,.56.29,2.65,2.65,0,0,1,.54.22.92.92,0,0,1,.38.4,2.24,2.24,0,0,1,.13.86,4.36,4.36,0,0,1-.05.67,2.91,2.91,0,0,0-.06.57,16.52,16.52,0,0,0,.22,2.74,6.42,6.42,0,0,0,.86,2.4,5.12,5.12,0,0,0,1.77,1.72,5.88,5.88,0,0,0,3,.67,7.64,7.64,0,0,0,4-1,12.37,12.37,0,0,0,2.74-2.21,17.56,17.56,0,0,0,1.75-2.2c.43-.67.79-1,1.08-1A.61.61,0,0,1,164,122.44Zm-18.88-2.37a.8.8,0,0,0-.11-.4.74.74,0,0,1-.11-.35.7.7,0,0,1,.11-.38.78.78,0,0,0,.11-.43.28.28,0,0,0-.11-.24.24.24,0,0,1-.11-.19c-.32.07-.65.38-1,.92a12.15,12.15,0,0,0-1,1.88,13.62,13.62,0,0,0-.73,2.18,7.84,7.84,0,0,0-.27,1.8,5.54,5.54,0,0,0,.22,1.24,2.58,2.58,0,0,0,.48,1.13c.61-1.26,1.18-2.48,1.7-3.66A8.64,8.64,0,0,0,145.08,120.07Z"/></g></g></svg>