<svg xmlns="http://www.w3.org/2000/svg" viewBox="0 0 856.57 200.68"><title>Recurso 47</title><g id="Capa_2" data-name="Capa 2"><g id="Capa_1-2" data-name="Capa 1"><path d="M814.39,39.61c-136.09-57-463.53-45.49-631.78-9.45C38.5,54.84-64.93,116.73,47.91,163.45c11.86,4.81,26.64,9.08,43.49,12.87l3.61.79c74.21,16.09,186,23,265.42,23.56,55.66.14,113.08-2,163-10.29,88.17-8.3,184.55-24.12,250.94-44.83C850.21,117.28,893.68,71.52,814.39,39.61Zm38.74,46.07a24.7,24.7,0,0,1-3.25,7.64A73.11,73.11,0,0,1,841,103.69l-.06.06a185.47,185.47,0,0,1-25.68,19.84l-.1.07c-5.47,3.51-11.3,7-17.81,10.29l.08,0c-12,6.07-26.91,11.46-43.47,16.27l.08,0c-13.31,3.82-27.75,7.18-42.48,10.41-18.43,4.05-37.78,7.64-57.79,10.81-34.44,5.21-67.21,11.66-103.22,15.71l.1,0c-9,1-18.12,1.77-27.48,2.24-2.54-.78-6,.18-8.7.44-3.43.43-21.43.22-14.86,2l-8.52,1,.19,0q-15,1.71-30.48,2.83l.27,0-.41,0c-38.65,2.71-78.42,2.8-117.79,2.51l-11.73-.15h-.08c-80.44-2.55-162.39-9.9-232.88-22.8h0l-1.22-.27L93.28,174q-8-1.87-15.51-4l.25.06q-8.59-2.46-16.21-5.22h-.05c-29.66-11.35-50-25.6-54.13-40.46-.55-3.57-1.24-7.13-.42-10.7.66-4.09,3.28-8.08,5.73-12.07a.93.93,0,0,1,0,.1C24.51,85.69,48.31,70.58,82.83,58.39Q96.75,53.53,112,49.1c16-4.5,33.2-8.58,50.73-12.44l6.83-1.49c21-4.44,42.64-8.57,64.73-12.41C302.11,11.29,377,4.48,453.44,3h-.14C513.3,1.71,574.13,1.46,633,5.89h-.3C697.11,10.37,759.6,20,802.14,36.67l-.09,0c33,12.23,51.61,28.16,51.61,44.34a21.37,21.37,0,0,1-.51,4.62A.64.64,0,0,1,853.13,85.68Z"/></g></g></svg>