<svg xmlns="http://www.w3.org/2000/svg" viewBox="0 0 853.91 540.65"><defs><style>.cls-1{fill:#f7941d;}.cls-2{fill:#fff;}</style></defs><title>Recurso 64</title><g id="Capa_2" data-name="Capa 2"><g id="Capa_1-2" data-name="Capa 1"><path d="M431,122.47c.56,1.52-.36,3.64-2.18,3.5a9,9,0,0,1-3-1.72,61.67,61.67,0,0,1-5.52-4.15c-3-2.76-7-5.2-8.07-9.41-.52-1.68.87-3.89,2.77-3.37.35,0,.63.41,1,.29a2.8,2.8,0,0,1,1.74.77c1.61,1.2,3.15,2.51,4.8,3.66a22.29,22.29,0,0,1,7.55,7.68A4.9,4.9,0,0,1,431,122.47Z"/><path d="M438.75,134.56c.64-.48,2-.44,2,.6a.86.86,0,0,1-.56.76c-.13.05-.12.05-.18.16a25.21,25.21,0,0,1-2.22,3c-2.65,3.05-4.55,6.67-7.45,9.5-2.35,3.07-4.48,6.35-7.41,8.92-1.89,1.55-4.11,4.13-6.8,3.25a19.51,19.51,0,0,1-7.37-4.67c-.89-.93-1.66-2-2.47-3a2,2,0,0,1-.58-1.79,1.6,1.6,0,0,1,1.93-1.14c.59.13.91.64,1.25,1.09.51.67,1,1.33,1.58,2a17.73,17.73,0,0,0,6.7,4.88.28.28,0,0,0,.28,0,12,12,0,0,0,2.61-2,32.09,32.09,0,0,0,4.65-5.09c.93-1.21,1.71-2.52,2.64-3.73s2.06-2.23,3-3.44A60.48,60.48,0,0,1,438.75,134.56Z"/><path d="M405.86,163.47a1.46,1.46,0,0,1,1.82,1.59,1.55,1.55,0,0,1-1,1.21c-1.95,1-4.5,1.65-6.41.25-1.74-1.32-2.46-6.22-1.06-7.93a1.26,1.26,0,0,1,2.13,1,1.1,1.1,0,0,1-.16.46c-.14.25,0,.53-.06.79A8.82,8.82,0,0,0,402,164a1.8,1.8,0,0,0,1.47.3A7.78,7.78,0,0,0,405.86,163.47Z"/><path d="M411.41,131.83c-2.31-1-5-2.09-6.13-4.52-.89-2.14-1.37-4.88.2-6.83a1.39,1.39,0,0,1,2-.13c.77.69.34,1.78.36,2.67a6.07,6.07,0,0,0,1.41,3.17c1.08.75,2.27,1.36,3.39,2a10.87,10.87,0,0,0,6.09.06,1.46,1.46,0,0,1,1.19,2.46A12.62,12.62,0,0,1,411.41,131.83Z"/><path d="M408.87,137a1.31,1.31,0,0,1,.89,1.92c-.33.62-1.1.72-1.7.94a16.83,16.83,0,0,1-3.26.72,1.4,1.4,0,0,1-1-2.06c.65-1,2.13-.76,3.16-1.1A17.94,17.94,0,0,1,408.87,137Z"/><path d="M404.72,134.45a1,1,0,0,1,.8,1.23c-.13.52-.64.75-1.09.94a8.52,8.52,0,0,1-2.5.68,1.24,1.24,0,0,1-.18-2.39C402.73,134.74,403.74,134.56,404.72,134.45Z"/><path d="M402.26,133.06c.19,1.3-1.66,1.84-2.67,1.92a1.2,1.2,0,0,1-.32-2.26,4,4,0,0,1,1-.19c.29,0,.48-.24.78-.25A.93.93,0,0,1,402.26,133.06Z"/><path d="M427.64,160.36a1.15,1.15,0,0,1-.72-1.93,6.81,6.81,0,0,1,1.91-.89c.45-.17.91-.41,1.37-.15.87.49.5,1.56-.29,1.9S428.49,160.36,427.64,160.36Z"/><path d="M433.66,160.86a.8.8,0,0,1-.54.7,6.84,6.84,0,0,0-1.3.77c-.59.48-1.48,1-2.09.24a1.21,1.21,0,0,1,.77-1.91C431.36,160.28,433.53,159.28,433.66,160.86Z"/><path d="M436.66,162.58c.12.85-.8,1.29-1.36,1.74a1.67,1.67,0,0,1-1.11.51,1.15,1.15,0,0,1-1-.89c-.19-1,.82-1.36,1.55-1.63.38-.07.65-.38,1-.42A.87.87,0,0,1,436.66,162.58Z"/><path d="M300.57,535.38a21.78,21.78,0,0,0-2.23-3.7A151.05,151.05,0,0,1,290,516.85c-2.65-5.49-5.13-11.07-8.1-16.4-6.8-11.39-11.07-24-17-35.8-1.45-3-3-6-4.41-9.07-2.77-5.9-4.7-12.13-7.21-18.14-3.6-9.31-7.48-18.51-11-27.87-2.19-6.32-4-12.77-6.71-18.92-2.48-5.95-5.18-11.83-7.34-17.91-3.2-9.43-6.45-18.83-10.35-28-5.39-12.33-8.87-25.35-12.85-38.17-3-9.36-6.48-18.58-9.33-28-1.8-5.46-3.3-11-4.66-16.59a72.16,72.16,0,0,0-.93,7.34c-1.28,8.12-4.52,15.77-6,23.84-1.77,8.33-4.78,16.31-6.94,24.53-3.57,13.39-6.37,27-9.81,40.38-2.5,7.88-2.48,16.29-5.2,24.12-2.66,8.15-2.82,16.89-6,24.9-3.68,10.43-5.8,21.6-12.53,30.67-6.38,9.58-17.17,17-28.95,17h-.36c-29.09-1.63-47-29.5-56.09-54.4-2.73-8-6.3-15.6-8.87-23.61C47,367.85,44.85,358.9,43,349.88a9.63,9.63,0,0,0,1.6-1.47l.46-.51c.9-1,1.75-2,2.58-3.06a28.34,28.34,0,0,0,1.7-2.41c.14-.22.29-.44.44-.65.53-.58,1.08-1.15,1.63-1.71,1.33-1.39,2.75-2.68,4.11-4h0a2.51,2.51,0,0,1-.29-.9,16.26,16.26,0,0,0-1.12-3.23c-2.69-6.69-4.27-13.81-7.12-20.43-.15-.61-.41-1.18-.61-1.77a7.39,7.39,0,0,0-.56-1.64,10.11,10.11,0,0,0-1.47-2A7.59,7.59,0,0,0,41,302.87a5.42,5.42,0,0,1,.4.84,5.9,5.9,0,0,0-.81-.47l-.37-.15-.48-.16-.14,0-.1,0-.16,0-.18,0-.19,0a5.17,5.17,0,0,0-.55-.07H36.88l-.21,0h0l-.47.08h0a8.85,8.85,0,0,0-2.16.72l-.6.28c-3.51,0-8.56,1.41-10.78,2-4.22,1.23-8.48,2.32-12.6,3.86A17.24,17.24,0,0,1,3,310.94H2.73C1,310.78.29,308.87,0,307.38c-.45-6.45,8.11-12.11,12.63-15.77a51.51,51.51,0,0,1,5.9-3.69c5.51-3.13,11.21-6.1,17.43-7.55a11.6,11.6,0,0,1,9.46,1.15,47.56,47.56,0,0,1,6.88,4.54c-.39-2.53-.66-5.07-.87-7.61,0-1.45-.46-3,.24-4.37s2.51-1.21,3.88-1.6c3.46-.76,6.86-1.91,10.36-2.46a2.47,2.47,0,0,1,1.37.27,2.73,2.73,0,0,1,1.88,1.25c1.43,4.58,1.92,9.47,3.14,14.13.57,2.29,1.29,4.55,1.86,6.84,1.1,4.75,1.76,9.59,3.37,14.21,2.19,7.13,4.41,14.26,7,21.26a150.26,150.26,0,0,0,5.36,14.22c2.1,5.07,4.88,9.82,7.31,14.73,3.64,7.65,7.35,15.27,10.68,23.06,0-6.19-.43-12.34-1-18.5-.22-5.06.16-10.16-.59-15.19-1-7.81-.87-15.7-1.63-23.53-.6-10.27,0-20.57.13-30.84.07-5.12-.67-10.23-.41-15.36.1-2.56.39-5.11.55-7.67.26-5,0-10.1.8-15.09s2-10.16,2.37-15.33c.26-2.51.48-5,.88-7.51.85-5.08,2.49-10,3.33-15.08a59.92,59.92,0,0,1,4-14.63c1-2.4,1.89-4.8,2.73-7.25.62-1.48,1.48-4.87,2.68-6.7-3.15-2.91-6.26-5.88-9.6-8.59-4.11-3.43-7.53-7.57-11.51-11.13-1.88-1.92-8.3-6.59-7.13-9.25,1.85-2.66,5-4.6,7.59-6.49,2.8-1.89,5.77-3.48,8.74-5.11,8-4.26,16-8.5,23.32-13.82,7-4.87,14.79-8.64,21.51-13.95,5.64-4.94,11.73-9.32,17.72-13.83,8.26-6.55,15.8-14,24-20.58,2.73-2.39,5.38-4.88,8.18-7.18,5.59-4.66,11.7-8.65,17.44-13.12,3-2.33,5.77-4.9,8.92-7a80.67,80.67,0,0,1,10-5.55c6.68-3.31,13.22-7,20.31-9.35,14-4.87,28.41-8.58,43.21-9.57A153.73,153.73,0,0,1,327,32c11.2.71,22.17,3.28,32.87,6.6A105.1,105.1,0,0,1,380.61,47c6.54,3.6,13.72,6.25,19.4,11.2,2.53,2.14,4.78,4.59,7.15,6.89s5,4.71,6.37,7.82c.11.24.21.49.3.74a36.77,36.77,0,0,1,10.26-2.35,39.23,39.23,0,0,1,7.17.69,35.54,35.54,0,0,1,10.07,2.42,40.21,40.21,0,0,1,8.88,6.46,47.49,47.49,0,0,1,5.92,6c.25.23.36.71.74.71a21.2,21.2,0,0,0,3.38.14,18.07,18.07,0,0,1,3.82.21,17.84,17.84,0,0,1,3.42,1.14c2,.86,4.07,1.69,5.5,3.35a5,5,0,0,1-.69,7.28l-.05,0c3.49.9,9,1.51,9.28,6a6,6,0,0,1-1.94,4.65c-.09,0-.09.08,0,.08,3.25.86,6.94,1.35,9.68,3.4,4.24,3.19,1.91,9.45-1.79,12.06-4.82,3.21-11.06,3.94-16.72,3.24a19.74,19.74,0,0,1-4.57-1c-1.39,2.68-2.93,5.27-4.55,7.81a1.33,1.33,0,0,1,.51.67c0,.14,0,.22.12.33,4.35,5.22,9.72,9.43,14.34,14.39A85.07,85.07,0,0,0,483.1,158c4.42,3.68,9,7.14,13.37,10.92,4.58,3.87,9.72,7,14.39,10.74l.73.61c-.5.22-1,.47-1.48.74a6.37,6.37,0,0,0-2.05,1.69,3.79,3.79,0,0,0-.58.68c-3.43-2.68-7-5.17-10.5-7.78-2.42-1.84-4.7-3.84-7-5.83-4.33-3.8-9.15-7.06-13.08-11.31-2-2.11-3.84-4.35-5.81-6.47-3.92-4.22-8.2-8.2-11.3-13.1-.72,1.07-1.44,2.14-2.17,3.2a5.85,5.85,0,0,1,.89,3.54c-.28,2-2.27,3.23-4,1.93l-.44-.3c-.72,1.05-1.44,2.1-2.15,3.16-2.54,3.84-5.61,7.27-7.84,11.33a65.39,65.39,0,0,1-6.77,8,41.09,41.09,0,0,1-6.93,7.08,3.68,3.68,0,0,1,.59.69c2.67,3.87,4.91,8,7.58,11.88,3.12,4.52,7.12,8.28,10.83,12.28a4.82,4.82,0,0,0-.14,1,4,4,0,0,0,.12,1c.08.4.18.79.28,1.19s.27,1,.42,1.48c.33,1.12.76,2.21,1.17,3.31s.9,2.47,1.34,3.71a102.49,102.49,0,0,1-8.08-8.33c-1.09-1.13-2.19-2.25-3.27-3.38a20.29,20.29,0,0,1-5.18,3.2c-.07,0-.31.1-.34.16a4,4,0,0,0,.5.29,3.15,3.15,0,0,1,1.61,4.28c-1.24,2.48-4,3.68-6.37,4.86,5.29-.18,11.09,4.81,5.12,9-3.22,2.28-7.15,3.24-10.78,4.68-1.92.78-3.72,1.84-5.66,2.58-.24.13-.59.13-.75.35a4.93,4.93,0,0,0-.23.46c-1.25,2.43-2.51,4.86-3.71,7.31a112.32,112.32,0,0,0-5.82,12.18c-.83,1.94-1.64,3.88-2.27,5.88,1.45.7,3.39,1.33,3.43,3.22-1.32,7.74-2.26,15.54-3.64,23.28-1.63,8.41-2.82,16.92-4.92,25.23-.72,2.65-1.53,5.26-2.22,7.92-2.74,11.24-7.43,22.2-14.59,31.35-3.79,4.36-8.69,7.57-13.45,10.77a42.55,42.55,0,0,1-25.81,5.87c-11.57-1.73-18.78-3.6-27.53-11.75a72.09,72.09,0,0,1-14-15.82,124.57,124.57,0,0,0-7.26-11.34c-1.65-2.18-3.39-4.28-4.86-6.58a73.19,73.19,0,0,1-5.79-11.62,58.91,58.91,0,0,1-10-2.73c.69,3.85,1.39,7.69,2.23,11.5,5.55,25.38,11.31,50.73,15.4,76.39,1.43,9.65,3.64,19.15,5.56,28.71,1.57,6.08,3.11,12.16,4.55,18.27,2.87,11.17,4,22.71,7,33.85,1.28,4.9,2.51,9.81,3.89,14.68a3.79,3.79,0,0,0-1.3.37l-.2.1,0,0a10.36,10.36,0,0,0-2.88,1.92l-.1.05c0-.08,0-.17-.07-.26-1.53,1-3.11,1.93-4.72,2.8a54,54,0,0,0,5.48,10.79,14.66,14.66,0,0,0,.93,1.75,17.5,17.5,0,0,0,1.39,1.82c.11.14.21.29.31.44a7.1,7.1,0,0,0,1.07,1.51,10.79,10.79,0,0,0,1.33,1.1l.52.36-.33-.24.57.39h0l0,0-.09-.06.25.18-.14-.11.18.13.05,0,.39.3h0l0,0,.12.08.24.18.4.27.24.16.63.38,0,0,0,0,0,0,.11.06.22.12.37.2-.22-.13.33.18c.23.12.45.22.67.32s.46.2.69.29l.35.12.36.12.35.11h0l.09,0,.08,0,.06,0,.23.06-.21-.06a7.51,7.51,0,0,0,1.09.19l.49.06h0a5.87,5.87,0,0,0,.59,0l.29,0-.2,0h0c.28,0,.56,0,.84.05l.14,0,.31,0,.25,0,.51.05.18,0,.64,0,.42,0a4.68,4.68,0,0,0,2.4-.62c4,0,8.06.05,12.09.28a5.24,5.24,0,0,1,3.27.79A24.92,24.92,0,0,1,349.5,519a2.71,2.71,0,0,1,.63,2.63,3.55,3.55,0,0,1-2.67,2.22l-5.09,1.85c-3.31,1.09-6.49,2.58-9.88,3.43a26,26,0,0,1-5.9.67,28,28,0,0,1-3.18-.18c-3.17-.19-5.65-2.27-8.08-4.09-1.14-.87-2.3-1.71-3.45-2.58.75,2.21,1.53,4.42,2.29,6.63.48,1.3,1.24,2.94-.1,4-.89.67-2.07.54-3.08.91a59.77,59.77,0,0,1-8.62,2.43A2,2,0,0,1,300.57,535.38Zm-5.21-35.79c-2.33,1.39-4.57,2.94-7,4.16,1.53,3.17,2.94,6.4,4.41,9.6a5,5,0,0,1,.84-.67c2.36-1.63,4.94-2.93,7.07-4.87a37.56,37.56,0,0,1,5-3.17,10,10,0,0,0,1.06-.58c-.06-.1-.1-.2-.15-.3-1.34-2.89-2.8-5.89-3.26-9.06C300.73,496.43,298.12,498.1,295.36,499.59ZM231.87,121.78c.9,3.51,1.27,7.17,2.16,10.7,2.1,8.06,4.4,16.06,6.36,24.15,2.22,8.12,4.07,16.33,6.36,24.42s5.13,16.14,7.74,24.19c3.67,10.8,7.12,21.69,10.05,32.72,3.12,11.33,7.92,22.08,11.79,33.16s9.73,21,14.77,31.35a2.92,2.92,0,0,1,.87,2c1.44,3.38,2.78,6.81,4.52,10,2,3.76,4.87,7,7.26,10.53s4.22,7.16,6.48,10.66a65.16,65.16,0,0,0,8.18,10c6.74,6.72,12.25,11.36,22,13.08a57.84,57.84,0,0,0,8.56,1.39,38.47,38.47,0,0,0,17-3.63,43.62,43.62,0,0,0,7.21-4.68c3.59-2.62,7.13-5.46,9.63-9.19a81.34,81.34,0,0,0,9.48-19.62c1.63-5.44,2.87-11,4.33-16.48,1.91-8.52,3.27-17.15,5.07-25.69,1.26-6,2.08-12.17,3.23-18.24.11-.5.21-1,.31-1.5.13-.18-.2-.17-.29-.25-3.21-1.53-6.56-2.73-9.82-4.13s-6.57-3.11-9.83-4.71c-2.92-1.34-6.15-1.82-9.08-3.16a40.38,40.38,0,0,1-3.06,8.75c-1.17,2.37-2.62,4.6-3.61,7.06-2.79,7-4.86,14.26-6.95,21.49-.74,2.6-1.67,5.14-2.27,7.77-.64,2.48-.9,5.09-1.7,7.51a2.3,2.3,0,0,1-4.28-1.36c0-.62.07-1.24.13-1.86a2.42,2.42,0,0,1-.78-1.26c-.55-1.5-.94-3.06-1.41-4.58-1.33-4.18-2.32-8.47-3.94-12.55-2.39-5.9-5.13-11.66-7.11-17.73-4.5-12.87-7.06-26.31-11-39.34-2.9-9-5.44-18.14-7.68-27.33-2.52-8.86-4.33-17.87-6.36-26.84-1.63-6.35-3.45-12.65-4.2-19.19A106.38,106.38,0,0,1,310.22,133c.23-1.75,2.37-1.39,2.5.39.86,3.81,1.44,7.68,2.53,11.44,1.14,4.17,2,8.41,3.25,12.56,1.06,3.47,2.21,6.91,3.18,10.41l.9-.81c1.65-1.42,3.12-3,4.63-4.57,3.29-3.12,6.82-6,10.35-8.84,3.48-2.62,6.45-5.83,9.81-8.59,5.16-4.29,10.68-8.12,15.93-12.3,1.71-1.36,3.42-2.71,5.12-4.08A28.76,28.76,0,0,1,372,126a68,68,0,0,1,4.69-5.64l.39-.48c-.2-.27-.39-.54-.59-.78a22.23,22.23,0,0,1-3.31-5.34,7.55,7.55,0,0,1,2.89-9.11,7.43,7.43,0,0,1,3.28-.85c.12-1.29,1.2-2.75,1.89-3.74a73.22,73.22,0,0,1,7.6-8.63c3.91-4,7.45-8.48,12.31-11.42a44.37,44.37,0,0,1,8-4.36,27.7,27.7,0,0,0-5.46-5.07c-3.9-3-7.3-6.6-11.46-9.26-4.69-2.88-9.76-5.1-14.62-7.69A114.47,114.47,0,0,0,356.87,45c-10.51-3.47-21.36-6-32.45-6.58a195.53,195.53,0,0,0-22.05.65c-14.63.87-28.88,5-42.59,10-6.81,2.67-13.16,6.36-19.66,9.69-6.7,3.38-12,8.82-17.91,13.26-5.73,4.41-11.67,8.58-17,13.44s-11,9.14-16.24,13.93c-5.28,4.63-10.67,9.14-16.38,13.25-3,2.18-6.08,4.3-9,6.63s-5.63,4.66-8.66,6.7-6.2,3.72-9.32,5.56c-6,3.46-11.76,7.41-17.69,11-9.63,5.84-20.46,9.69-29.38,16.65,1.69,1.59,3.56,3,5.38,4.42,2.84,2.18,5.42,4.68,8,7.11,4.06,3.6,8.47,6.79,12.46,10.48,4.17,3.93,8.79,7.31,13.31,10.81,8.61,7,17.51,13.57,26.59,19.91,4.54,3.05,9.4,5.6,14.11,8.37,3.13,1.81,6.18,3.76,9.38,5.46,5.18,2.71,10.8,4.45,16,7,6.1,2.86,12.12,6.64,18.57,8.41,2.26-1.81,4.75-3.31,6.88-5.29,2.44-2.13,4.74-4.43,7.37-6.34,3.37-2.18,6.47-4.73,9.8-7a34,34,0,0,0,4.14-3,6.3,6.3,0,0,1,.93-.78c-5.35-17.35-11.29-34.56-14.55-52.45-2.3-10.93-4.84-21.81-7.36-32.69a77,77,0,0,1-1.43-11.51,1.88,1.88,0,0,1,1.92-1.43A1.93,1.93,0,0,1,231.87,121.78ZM69.83,300.4a59.24,59.24,0,0,1-5.26,3.13c-2.49,1.55-5.14,2.79-7.74,4.15A23.8,23.8,0,0,1,51.26,310a63.26,63.26,0,0,1,2.9,7.27c1.55,4.23,2.73,8.58,4.22,12.83.2.58.49,1.34.74,2.14a44.84,44.84,0,0,1,4.43-3.94c4-3,7.14-7.11,11.27-9.92a2.14,2.14,0,0,1,.69-.15c-1.39-4.33-2.72-8.67-4-13a51.46,51.46,0,0,1-1.2-5.05A5,5,0,0,0,69.83,300.4ZM271,277.19c1.34,6.33,2.88,12.62,4.19,19,.17.91.35,1.82.51,2.74a43.72,43.72,0,0,0,7.78,1.71c-3.48-6.66-7.38-13.11-10.26-20.07-1.17-2.7-2.27-5.42-3.35-8.16C270.26,274,270.64,275.57,271,277.19Zm121-94.8c-.8,1.15-1.63,2.27-2.46,3.4-1.71,2.31-3.28,4.73-4.85,7.14-5.54,8.38-11.49,16.48-17.6,24.45-2.55,3.25-5.34,6.33-7.69,9.73-4.59,6.13-8.43,12.75-12.95,18.93-.73,1.07-1.4,2.19-2.08,3.31a2.93,2.93,0,0,1-1.19,1.27c1.53,5.85,3.24,11.67,5.3,17.36,2.21,5.89,4.78,11.67,6.2,17.83.37,1.44.76,2.87,1.15,4.3.37-1.57.8-3.14,1.26-4.69.84-3.64,1.88-7.21,2.88-10.8a86.83,86.83,0,0,1,5.3-15,65.71,65.71,0,0,0,3.41-6.82,50,50,0,0,0,2.06-6.64c.34-1.31.34-3,1.59-3.76a3.49,3.49,0,0,1,4.36.84,14.24,14.24,0,0,0,3.8,1.69c.72.23,1.45.44,2.17.66.36-1.41,1-2.88,1.23-3.77.69-2,1.37-4,1.94-6,1.92-8.75,6.71-16.61,12.88-23a45.76,45.76,0,0,1,9.83-8.8,43,43,0,0,1,5.87-3.76c3.89-2.43,7.64-5.14,12-6.69a40.55,40.55,0,0,1,6.68-1.67c-.6-.88-1.18-1.77-1.73-2.7-1.76-3-3.69-5.89-5.56-8.82-.05-.1-.09-.2-.13-.3-4.8,2.91-10.24,5-15.8,5.13a35,35,0,0,1-7-1c-3.46-.54-6.94-1.23-9.94-3.13l-.13-.07A5.8,5.8,0,0,1,392,182.39Zm44.41,14.37a42,42,0,0,0-5.66,1.12c-5.39,1.39-9.78,4.9-14.53,7.6a75.07,75.07,0,0,0-8.25,5.58,29.09,29.09,0,0,0-4.68,4.4,54.61,54.61,0,0,0-11.2,15.87c-.87,2-1.45,4.14-2.16,6.21-1.06,3.06-2.46,6-3.69,9,0,.09-.07.19-.1.3.37.14.74.3,1.11.47,3.46,1.68,6.81,3.6,10.35,5.13,1.64.72,3.29,1.41,4.93,2.13.26-.69.55-1.36.77-2a129.67,129.67,0,0,1,7.5-16c1.52-2.89,3-5.78,4.66-8.6a4.37,4.37,0,0,1,2.71-1.75c1.92-.73,3.69-1.79,5.59-2.56,2.07-.83,4.24-1.4,6.34-2.14a17,17,0,0,0,4.21-1.9c.09,0,.09-.07,0-.1a7.12,7.12,0,0,0-4-.6c-3.15.06-6.39.45-9.51,0a2.32,2.32,0,0,1-.28-4.19c3.66-2.29,7.88-3.46,11.62-5.59-2.6-.24-6.35,1.73-9.16,2.83a9.52,9.52,0,0,1-2.64.82,2.57,2.57,0,0,1-2.73-3.16c2.31-5.78,13.61-6.87,18.7-10.09a6.33,6.33,0,0,0,1.79-1.27c-.43-.49-.87-1-1.29-1.49Zm-53.76-21.47c-.27.43-.57.84-.88,1.24a.78.78,0,0,1-.59.74l-.56.67c-2.82,3.39-5.82,6.62-8.77,9.9-5.68,6.6-11.82,12.75-17.9,19-2.93,3.2-6,6.3-9.06,9.35-2.29,2.32-4.6,4.6-6.8,7-.44.5-.88,1.08-1.38,1.55,1.78,6.4,3.25,12.89,4.82,19.35,1.25-2,2.64-4,4-5.95,2.72-4.47,5.37-9,8.23-13.35,2.29-3.72,4.91-7.19,7.54-10.67A369,369,0,0,1,385,183.83c1.51-1.53,3-3.14,4.57-4.58A31.64,31.64,0,0,1,384,175l-.87-.7A3.45,3.45,0,0,1,382.62,175.29ZM365.78,135c-3.2,3-6.59,5.72-9.91,8.55-4.22,3.38-8.21,7-12.08,10.8-2.65,2.37-5.51,4.49-8.18,6.84a98.47,98.47,0,0,0-8.77,8.32c-1.13,1.08-2.29,2.12-3.44,3.19a3.08,3.08,0,0,1-.42.39c1.81,7.9,3.67,15.79,5.82,23.61,1.75,7.45,3.92,14.79,6.12,22.12,1.45-1.54,2.92-3.06,4.36-4.61,6-6.41,11.82-13,18.18-19.08,4.68-4.64,9-9.63,13.89-14q3.66-3.29,7.24-6.66a10.64,10.64,0,0,1,2.4-1.95,36.11,36.11,0,0,1-6.64-7.92c-4.55-6.69-8.32-14.47-8.36-22.71.1-3.31,1.48-6.37,2.66-9.42Zm11-25.41c-.86,2,.86,4,2.08,5.51.59.89,1.48,1.65,2.11,2.53a1.89,1.89,0,0,1,.89,1.06c.55,2.72-2.63,4.5-4.07,6.43-3.32,3.27-5.22,7.51-6.58,11.91a13.6,13.6,0,0,0-1,6.75c2,15.71,17.71,34.31,33.76,36.52,11.37,3.34,22.87-4.43,29.57-13.15,2.27-2.64,4.83-5,6.72-8,.88-1.31,1.64-2.7,2.49-4a6,6,0,0,1-4.35-.15c-2.48-1.22-4.63-3.92-4.38-6.8a4.53,4.53,0,0,1,6-3.91,8.19,8.19,0,0,1,5.86,6.73,25,25,0,0,0,2.29-3.37c.61-1,1.28-2,2-3-3.69-2.48-7.74-5.51-8.83-8.61a3.12,3.12,0,0,1,2.43-3.92,3.86,3.86,0,0,1,1.73.38h.37a2.55,2.55,0,0,1,1.17.19,19.58,19.58,0,0,1,7.83,5.61c.48-.68.94-1.37,1.37-2.07,1.85-3.06,3.91-6,5.93-8.91a8.92,8.92,0,0,0,.54-.82c-1.84-.91-3.81-1.51-5.65-2.41-4.91-3.11-8.94-7.4-13.59-10.86-3.4-3-6.59-6.35-10-9.36-3.69-2.77-6.68-6.31-9.69-9.78-.43-.6-1.09-1.35-1.63-2.16a12.16,12.16,0,0,1-2.45,3c-6.35,6.67-14.21,11.61-20.91,17.89a46.38,46.38,0,0,0-4.29,4.12c-1.34,1.39-2.94,2.5-4.16,4-.56.66-1.13,1.5-2.12,1.38-1.15-.12-1.64-1.25-2.69-1.7-2.45-1-2.11-3.16-.52-4.86.92-1.2,1.9-2.35,2.87-3.5a1.76,1.76,0,0,1-.6-1.14,8.09,8.09,0,0,0-7.94-3.49h0A3.06,3.06,0,0,0,376.75,109.58ZM440.14,149a3,3,0,0,1,2.67,2.37,1.85,1.85,0,0,1,.24-.44c.13-.06.16-.14.07-.24-.85-1.81-2.92-3.56-5-3.15-.76.61-.61,1.66,0,2.62.24-.25.34-.62.66-.81a1.84,1.84,0,0,1,1.12-.37Z"/><path d="M585.42,272.52c-4.3-.4-8.53-1.37-12.77-2.17-5.71-1.09-11.5-1.7-17.21-2.79s-11.19-2.18-16.66-3.76a172.83,172.83,0,0,1-16.56-6.12c-2.68-1.24-5.24-2.7-7.89-4-5.43-2.55-11-4.83-16-8.29-3.12-2-6.3-3.88-9.47-5.79.65-.12,1.29-.26,1.93-.42a14.36,14.36,0,0,0,4.46-1.61l.18-.12c4,2.43,7.81,5.07,11.93,7.23,2.6,1.29,5.31,2.33,7.92,3.6,5.4,2.71,10.64,5.75,16.42,7.61,10.79,4.21,22.27,6.32,33.7,8,8.76,1,17.31,3.85,26.18,3.62a159.16,159.16,0,0,0,26.56-3.33,116.83,116.83,0,0,0,25.35-7.62,121.32,121.32,0,0,0,26-17.38,36.44,36.44,0,0,0,6.12-8.25,2.71,2.71,0,0,1-.59-1.51l0,0c-4.13-3.55-9.12-5.8-13.49-9-4.13-3.06-8.42-5.88-12.72-8.69a56,56,0,0,1-7-5.73c-.1-.11-.09-.16-.24-.09a44.17,44.17,0,0,1-6.09,2.28c-8.36,2.81-16.78,5.44-25.33,7.62a70.56,70.56,0,0,1-9,1.43c-5.75.59-11.53,1.51-17.32.89-3.85-.62-7.78-.61-11.66-1a17,17,0,0,0,3.33-1.22,15.61,15.61,0,0,0,4.58-3.29c.51.05,1,.12,1.51.19,5.65,1,11.37.37,17-.25a74.34,74.34,0,0,0,17.57-3.59c5.73-1.59,11.38-3.46,17-5.34a51,51,0,0,0,7.2-2.68c.48-.2.89-.51,1.36-.69a2.52,2.52,0,0,1,3.17,1.57,3.53,3.53,0,0,0,.37.55q.22-.67.42-1.35c1.15-4.22,1.62-8.57,2.36-12.86,1.18-6.56,1.66-13.47,4.67-19.51,1.29-3,4.52-4.29,6.82-1.5,1.44,2.16,1.47,5,1.52,7.45,0,2.23,0,4.45.12,6.67,1.71-7.5,3.31-15.32,7.7-21.8a4.44,4.44,0,0,1,2.49-1.92c3.22-.58,4.11,3.68,4.29,6s.07,4.95.07,7.43a38.14,38.14,0,0,1,3.56-9c2.89-4.27,7.78-7.44,9.42-.3a32.34,32.34,0,0,1,.59,7.86c.06,5.44.53,10.92-.54,16.29-.1.59-.1.49.06.25l.31-.48c3.76-5.89,7.65-11.71,12-17.22,1.25-1.48,2.54-3.14,4.4-3.87,2.93-1,4.83,2.12,4.76,4.71,0,4.94-2.18,9.57-4.16,14-1.1,2.47-2.17,5-3.28,7.43a275.38,275.38,0,0,1-13.69,26.64c-1.87,3.45-4.2,6.59-6.34,9.87-.68,1-1.19,2.05-1.83,3-.26.58-.64,1.09-.9,1.67A39.64,39.64,0,0,1,667.86,247a112.2,112.2,0,0,1-22.36,14.52,121.45,121.45,0,0,1-25.6,7.7,151,151,0,0,1-15.24,2.43,131.71,131.71,0,0,1-14.31,1.07C588.7,272.74,587.06,272.67,585.42,272.52Zm67.71-84.06c-.93,5.5-1.48,11.23-4,16.31a1.09,1.09,0,0,1,.73,1.44q2,1.51,4.08,2.92c4.43,2.94,8.57,6.27,12.9,9.34,2.13,1.48,4.41,2.71,6.54,4.18,1.17.79,2.25,1.7,3.34,2.6.24-.39.46-.76.64-1.13,2.49-4,4.93-8,7.22-12.12,4-6.61,7.58-13.42,11.25-20.19,3.1-5.71,6.42-11.34,9.07-17.28.75-2,1.57-4.06,1.34-6.2,0-.12,0-.28-.13-.17a23.13,23.13,0,0,0-4,5c-5.48,7.49-9.46,15.93-14.9,23.42-.91,1.34-2.18,3-4,2.34s-2-2.54-1.67-4.13c1-7,3-13.84,2.82-20.95-.09-3.5.44-7-.07-10.52-.05-.27-.06-.14-.18,0a11.3,11.3,0,0,0-1.89,3.39c-1.91,4.91-3.33,10-4.9,15-1.24,3.8-2.14,8.05-3.42,11.85a4,4,0,0,1-.67,1.81h0a1.5,1.5,0,0,1-.59.53,2.59,2.59,0,0,1-3.63-1.14c-.5-1.6.27-3.28.37-4.91.58-4.26,1.34-8.5,1.87-12.77q.36-3.15.43-6.3c0-3,.71-6.07,0-9,0-.15,0-.39-.2-.19a39.86,39.86,0,0,0-4.1,8.95,103.07,103.07,0,0,0-2.8,12.41c-1,5-1.36,10.21-2.52,15.22a4.13,4.13,0,0,1-1.53,2.76,2.49,2.49,0,0,1-3.21-.55c-.86-1.29-.82-3-1-4.45a93.36,93.36,0,0,1-.09-9.61c.11-3.41,0-6.82.19-10.23a22.49,22.49,0,0,0,0-5C654.52,176.64,654.11,182.67,653.13,188.46Z"/><path class="cls-1" d="M349,264.68c-3.57-1.36-3.69-6.68-4.6-9.91a27.08,27.08,0,0,1-.33-11.58c1.85-16.53,8.36-31.65,14.57-46.9,4.63-10.8,7-22.47,11.27-33.36,1.17-1.41,3.61.33,2.85,1.91,0,.11-.34.34-.1.33,3,1.26-.61,8.3-.78,10.8-2,11.39-3.79,22.85-7,34-3.51,15.35-6.13,30.95-11.33,45.86C352.37,258.47,352.63,264.44,349,264.68Z"/><path class="cls-1" d="M349.41,271.48c-1.5-.29-1-1.77-.65-2.79a1.86,1.86,0,0,1-.52-1,30.63,30.63,0,0,0-1-3.34,29.68,29.68,0,0,1-2.16-7.9,32.41,32.41,0,0,1-.75-7.85c.25-1.5.84-9.47,3.07-8.56a.83.83,0,0,1,.36,1.19,1.17,1.17,0,0,0-.16.34,40,40,0,0,0-1.11,8.21A47.39,47.39,0,0,0,349.6,263c0,.05,0,.21.08.08.74-2.53,1.55-5,2.28-7.56.87-2.7,1.09-5.61,2.27-8.21a1.06,1.06,0,0,1,2,.53c-.7,3.81-2,7.49-2.95,11.24-.79,3.5-1.42,7-2.35,10.5C350.83,270.46,350.54,271.64,349.41,271.48Z"/><path class="cls-1" d="M320,381.81c-2.11-.34-2.47-3.35-3.22-5a40.81,40.81,0,0,1-2.32-9c-.65-2.82-1.57-5.6-1.52-8.52a45.56,45.56,0,0,1,.39-6.7c.19-1-.08-2.28.54-3.19a1.3,1.3,0,0,1,2.27.63c1.76,1,2.78,2.93,4.5,4,2,1.11,3.54,2.73,5.44,3.95a50.18,50.18,0,0,1,4.51,3.31,2.48,2.48,0,0,1,.9,1.73c-.2,6.59-2.54,9.87-6.75,14.58C323.48,379,322.13,381.9,320,381.81Z"/><path d="M379.78,177.33c-1.25-.23-1.83-1.44-2.25-2.51-1.56-3-2.84-6.16-4.32-9.21-5.25,2-10.82,3.19-15.88,5.7a2.76,2.76,0,0,1-3.65-2.38,2.73,2.73,0,0,1,.34-1.37q1.14-2.55,2.32-5.08c2.36-4.89,5.2-9.53,7.82-14.28.72-1.24,1.44-2.48,2.21-3.69.33-.5.71-1.15,1.35-1.27a1.64,1.64,0,0,1,1.76,1.11,3.08,3.08,0,0,1-.28,1.9c-1,2.68-2.26,5.26-3.38,7.9-1.47,3.56-3.41,6.91-4.93,10.45,4.22-1.14,8.55-2.19,12.69-3.59,1.62-.1,2.37,1.5,3,2.7a44.63,44.63,0,0,1,2.27,5c.95,2,1.85,4.06,2.86,6A1.82,1.82,0,0,1,379.78,177.33Z"/><path d="M322.29,153c-2-.46-1.8-2.35-.51-3.56,1.63-1.86,2.94-4,4.63-5.79,1.23-1.32,2.51-2.59,3.7-3.94,2.24-2.75,4.11-5.78,6.59-8.35a57.69,57.69,0,0,1,4.91-5c1.18-1,2.77-1.1,4.21-1.4,3.73-.69,7.54-.6,11.3-1,.36,0,.92-.1,1.24-.16-.86-1.12-1.68-2.33-2.48-3.53-1.55-2.17-3.37-4.13-5-6.25-1.72-1.82-1.63-3.37.5-4.78q6-4.11,12.17-8a154,154,0,0,1,13.89-7.27c4.74-2.05,9.61-3.81,14.5-5.46,1.41-.32,3.15-1.34,4.52-.61a1.17,1.17,0,0,1,.2,1.71c-.79.6-1.9.62-2.8,1-4.51,1.7-8.94,3.6-13.39,5.46-3.07,1.42-6.06,3-9.13,4.44-5.44,2.71-10.37,6.27-15.5,9.5-.91.58-1.84,1.14-2.72,1.77q-.14,0,0,.12c.45.47.91.94,1.35,1.43,1.22,1.35,2.48,2.67,3.63,4.08,1.64,2.13,3,4.47,5,6.33a1.82,1.82,0,0,1,0,2.53,3.15,3.15,0,0,1-1.72.69c-1,.19-1.91.38-2.88.54-4.55.71-9.22.63-13.73,1.69a1.54,1.54,0,0,0-1,.47,71.73,71.73,0,0,0-9.47,10.83c-1.92,2.66-4.49,4.75-6.66,7.19-1.14,1.46-2.34,2.88-3.52,4.31A1.93,1.93,0,0,1,322.29,153Z"/><path d="M323,135a1.68,1.68,0,0,1-1.47-1.78c.38-1.43,1.24-2.71,1.74-4.11a29.82,29.82,0,0,0,1.83-6.81c.1-1,.05-2.46,1.49-2.39,2.89.17-.2,9.51-.81,11.23C325.09,132.47,324.86,135.14,323,135Z"/><path d="M223.41,143.32c-1.19-.26-1.73-1.52-2.48-2.36a29.07,29.07,0,0,1-3-4.68c-.66-1.4-3-7.27-2.06-8.4,2.18-1.88,2.88,2.26,3.5,3.64a20.59,20.59,0,0,0,2.9,5.58c.6.85,1.29,1.65,2,2.44.47.56,1.11,1.08,1.2,1.84A1.78,1.78,0,0,1,223.41,143.32Z"/><path d="M145.81,148c-3-.65-.51-3.52.34-5s1.73-2.74,2.61-4.1a42.09,42.09,0,0,1,2.76-4,1.61,1.61,0,0,1,1.3-.75c1.34.2,1.32,1.56.46,2.34-.79,1.14-1.46,2.35-2.18,3.54-1.23,2.1-2.43,4.23-3.58,6.38C147.18,147.17,146.82,148.06,145.81,148Z"/><path d="M151.59,175.66c-1.32-.29-1.52-1.46-1.2-2.6a18.71,18.71,0,0,0,.11-3.43c-.26-5.4-1.53-10.84-.33-16.21a30.67,30.67,0,0,1,2.79-7.71c.7-1.23,1.23-2.77,2.48-3.53a2,2,0,0,1,1.92.15,1.25,1.25,0,0,1-.49,2.32,27,27,0,0,0-4.22,13.3C152.08,160.64,155.61,176.54,151.59,175.66Z"/><path d="M166.64,185.75c-1.3-.19-1.53-1.65-2-2.64-.72-2-1.89-3.79-2.41-5.77a1,1,0,0,1,1.2-.92c.62.09.92.6,1.2,1.1.95,1.75,1.89,3.5,2.88,5.22.29.58.78,1.1.75,1.78A1.37,1.37,0,0,1,166.64,185.75Z"/><path d="M253.65,127.1a2.06,2.06,0,0,1-1.54-2.89c.27-1.2.61-2.39,1-3.57.59-1.92,1.22-3.82,1.91-5.7.26-.67.63-1.37,1.42-1.46a1.85,1.85,0,0,1,1.85,2.55,1.24,1.24,0,0,1-.39.4c-.2.62-.35,1.28-.54,1.91q-1,3.45-1.79,7C255.43,126.38,254.85,127.26,253.65,127.1Z"/><path d="M353.47,314.73a1.84,1.84,0,0,1-1.61-2,8,8,0,0,1,.74-1.77,17.4,17.4,0,0,0,1.68-5.34,54.7,54.7,0,0,0,.35-7,1.28,1.28,0,0,1,2.33-.23c.31.42.21,1,.48,1.43a1.07,1.07,0,0,1,0,1.28,40.67,40.67,0,0,1,0,5.52,20.54,20.54,0,0,1-1.95,6.59A2,2,0,0,1,353.47,314.73Z"/><path d="M368.39,327c-2.79-.1-3.92-10.53-4.44-13-.31-2.64-1.4-5.11-1.81-7.72-.46-4.1,4.53-1.55,2.42-.21,2.13,4.78,2.86,10,4.35,14.94.35,1.42,1.24,2.67,1.54,4.09A1.86,1.86,0,0,1,368.39,327Z"/><path class="cls-1" d="M437.67,267.13c-6.73-1.95-11.34-8.28-13.29-14.76-1.45-4.54-.67-9.43.94-13.81a20.89,20.89,0,0,1,3.95-6.33,1.39,1.39,0,0,1,.11-2c.69-.37,1.47-.61,2.14-1,4.22-2.36,8.43-4.74,12.87-6.67a67.2,67.2,0,0,0,7-3.55,4.85,4.85,0,0,1-1.07-2.38c-.81-2.94-1.51-5.9-2.34-8.83-1-3.6-1.84-7.24-2.49-10.92a12.42,12.42,0,0,1-4,.9c-2.67-.24-2.68-3.25-3.57-5.2a46.34,46.34,0,0,0-2.44-5.49c-.35-.68-.73-1.36-1.08-2s-.78-1.46-.27-2.14c-.16-1.14.81-1.92,1.76-2.32a45.3,45.3,0,0,1,4.22-1.85c4.23-1.52,8.13-4,12.51-5.07a3.17,3.17,0,0,1,3.2,2.32,39.86,39.86,0,0,1,5.34,11.09,3,3,0,0,1-1.79,3.35,29.71,29.71,0,0,1-4.58,2.55.85.85,0,0,1,0,.22c0,.17,0,.24,0,.39,2.23,4.31,4.45,8.62,6.49,13,.91,1.85,1.94,3.63,2.77,5.51,1.19-.58,2.38-1.17,3.56-1.78,6-2.86,11.91-5.78,17.93-8.52,1.91-.87,3.83-1.72,5.74-2.56.36-.15.72-.32,1.09-.49a45.53,45.53,0,0,1,1.24-6.63c.32-1.14.65-2.35,1.1-3.5a1.47,1.47,0,0,1,.17-1.72,10.21,10.21,0,0,1,1.27-1,7.75,7.75,0,0,1,1.21-1.29,1.53,1.53,0,0,1,1-.26c3.3-2.42,6.55-4.92,9.92-7.23s6.72-4.94,10.07-7.42,7.15-4.77,10.74-7.12a119.93,119.93,0,0,1,11.07-6.72c5.41-3.5,10.56-7.41,16.2-10.55a105.78,105.78,0,0,1,11.3-5.83c2.16-1,4.23-2.18,6.35-3.23.18-1.17.37-2.34.54-3.5A47.86,47.86,0,0,1,578,121a1.21,1.21,0,0,1,.56-1.08l.06-.12a1.52,1.52,0,0,1,1.06-2,42.58,42.58,0,0,0,8.63-5.88c3.53-3,7.65-5.24,11.53-7.76a63.09,63.09,0,0,0,5.61-4.43c3.52-3,7.65-5.25,11.43-7.94,5.44-4.27,11.48-7.64,17.1-11.64,3.66-2.68,7.49-5.12,11.33-7.52q11.5-7.64,23.28-14.9c3.86-2.27,7.52-4.86,11.25-7.34,4.82-3,9.74-5.91,14.48-9.09,4.85-3,9.88-5.66,14.6-8.85,2.79-1.8,5.75-3.32,8.64-5s5.67-3.54,8.53-5.27c10.5-6.3,21.23-12.22,31.7-18.57,1.2-.7,2.62-1.72,4-.77A1.3,1.3,0,0,1,762,3a30.84,30.84,0,0,1,5.44-1.73A70.3,70.3,0,0,1,788.9.42a48.61,48.61,0,0,1,21.23,6.67A55,55,0,0,1,819.46,13c2.69,2.3,5.19,4.8,7.81,7.18,3.79,3.11,6.32,7.29,9.13,11.22,3,4,6.28,7.76,8.58,12.2a96.19,96.19,0,0,1,5.56,13.65,76.6,76.6,0,0,1,2.38,11.51,36,36,0,0,1,.7,5.38,74.27,74.27,0,0,1-1.4,22.65,74.14,74.14,0,0,1-8.38,23.32,38.35,38.35,0,0,1-3.57,4.66,54.4,54.4,0,0,1-3.79,4.75l-.17.21c-.59.8-1.17,1.61-1.81,2.36a2.75,2.75,0,0,1-.54,2.29,26.16,26.16,0,0,1-6,3.77c-2.14.91-4.36,1.65-6.4,2.77A64.37,64.37,0,0,1,808.15,147c-4.45,1.79-9.08,3.09-13.48,5a106.85,106.85,0,0,1-13.74,5.69c-4.46,1.76-9.07,3-13.64,4.41-2.4.84-4.7,1.92-7,2.93-4.56,2-9.44,3.05-14.12,4.69s-9.37,3.2-14,5.07c-9.2,3.46-18.72,6-27.83,9.72.3-.64.61-1.29.92-1.93.55-1.14,1.15-2.25,1.64-3.41a8.61,8.61,0,0,0,.65-1.91q13.31-5.81,26.66-11.52c7.46-2.89,14.89-5.88,22.3-8.89,5-2.14,10-4,15-6.07l.74-.34c-2.89-.88-5.77-1.82-8.59-2.9a64.48,64.48,0,0,1-7.15-3.7c-4.42-2.42-8.75-5.08-12.17-8.84-5.43-5.65-11.2-11-15.58-17.58a87.9,87.9,0,0,1-7.2-13.38,97.17,97.17,0,0,1-5.29-13.7c-.67-2.3-1.37-4.61-1.81-7-.92-4.94-.82-10-.77-15,0-7.16,1.36-14.23,2.61-21.26a60.2,60.2,0,0,1,4.86-14.22,33,33,0,0,1,2.2-4c-2.79,1.69-5.6,3.35-8.5,4.85-4.89,2.83-9.57,6-14.56,8.69-3.91,2.18-7.54,4.83-11.37,7.14-5.93,3.38-11.37,7.5-17.19,11C660,68,648.16,75.37,636.72,83.3c-3.55,2.67-7.45,4.83-11.1,7.33-1.91,1.35-3.74,2.79-5.62,4.18-3.72,2.77-7.88,4.9-11.42,7.91a62.6,62.6,0,0,1-11.12,7.93,1.79,1.79,0,0,1-.2,1.07c-.41,1-.8,2-1.15,3a72.87,72.87,0,0,0-2.74,11.95c-1,6.34-1.43,12.86-.24,19.2.91,4.1,2.06,8.17,3.31,12.17,3.18,7.69,6,15.63,10.69,22.58,2.41,3.56,5.83,6.18,9.1,8.89,4.49,4.18,8.94,8.58,14.71,11,2,1,4.18,1.72,6.26,2.6-1.79.6-3.54,1.36-5.28,2.09-1.09.46-2.21.89-3.25,1.45s-1.88,1.07-2.81,1.62c-.73.39-1.47.75-2.24,1.08-1,.39-2,.76-3,1.08-1.27.39-2.51.87-3.75,1.37l.26-.11-.27.12-.06,0-.23.09-.25.06c-1.44.34-2.9.69-4.32,1.14-.3.09-.59.19-.89.3-.6-.28-1.21-.56-1.82-.82-3.27-1.39-6.58-2.74-9.36-5a3.62,3.62,0,0,1-1.93,1.11c-2,.8-4,1.74-5.88,2.68-4.05,2-8.05,4.06-12.22,5.76s-8.2,3.62-12.32,5.38c-4.12,1.59-8.26,3.12-12.3,4.9-4.34,1.83-8.86,3.18-13.2,5-3.84,1.5-18.85,9-24.1,8.22a2.72,2.72,0,0,1-1.86.46,30.49,30.49,0,0,1-6-2.44c-1.43-.72-2.87-1.47-4.25-2.31q-2,1-4.06,1.95c-4.75,2.4-9.41,4.94-14.37,6.89-3.75,1.68-7.29,3.77-11.1,5.3-5.95,2.41-11.68,5.32-17.53,8a60.24,60.24,0,0,0-7,3.7h0a2.68,2.68,0,0,1-1.84,1.1c-.9.54-1.8,1.09-2.72,1.61a33.13,33.13,0,0,1-5.93,2.81,5.84,5.84,0,0,1-.73.05A11.47,11.47,0,0,1,437.67,267.13Zm47.8-59.39c-8.05,3.57-16,7.29-24.05,10.92-3.9,1.81-7.5,4.21-11.4,6-2.37,1.09-4.79,2.07-7.18,3.1a1.34,1.34,0,0,1,.15.64c-.24,1.36-.94,2.61-1.18,4a28.5,28.5,0,0,0-.42,12.12c1.52,4.82,4,9.53,7.88,12.84l.1.09c6.08-3.34,12.48-6.06,18.7-9.12,1.87-.93,3.79-1.73,5.71-2.52,3.88-1.6,7.43-3.86,11.28-5.52,5.11-1.93,9.76-4.76,14.72-7,.47-.22,1-.43,1.43-.66-.38-.42-.75-.85-1.1-1.31-4.47-5.54-6-12.75-7.31-19.6a48.32,48.32,0,0,1-.61-6.89C489.94,205.74,487.7,206.74,485.47,207.74Zm87.18-65a164.53,164.53,0,0,0-16.48,9c-3.9,2.37-7.63,5-11.43,7.5-3.61,2.33-7.54,4.1-11.07,6.56-3.56,2.31-7.29,4.33-10.82,6.69-4.48,3.17-9,6.26-13.56,9.31a2.73,2.73,0,0,1-.32,1.46,15,15,0,0,1-.56,1.54,48.28,48.28,0,0,0-2.21,8.52c-2,9.76,2.13,18.17,7.08,26.3a29.64,29.64,0,0,0,7.58,8.16c2.22,1.45,4.9,1.88,7.37,2.76a2.76,2.76,0,0,1,1.82,1.19l8.73-3.86c4.27-1.8,8.71-3.12,13-4.81s8.46-3.39,12.73-5c2.18-.86,4.28-1.88,6.4-2.88,4-1.86,8.15-3.39,12.07-5.43,4.3-2.11,8.48-4.53,12.88-6.44-1.06-1.25-2.08-2.54-3.17-3.77-3.72-4.41-7.24-9.16-9.3-14.59-1.48-4.21-3.77-8.07-5.1-12.33s-2.6-8.5-3.55-12.83a100.82,100.82,0,0,1-1.58-13.76c0-1.25.06-2.49.17-3.74ZM449.53,195.22l-.81.33c.73,3.21,1.71,6.37,2.62,9.54s2,6.38,2.86,9.61c.13.75.5,1.52.65,2.28l.94-.57c1.41-.81,2.84-1.56,4.29-2.29-.2-.41-.37-.84-.56-1.22-1.41-2.77-2.82-5.55-4-8.44s-2.39-5.78-3.54-8.69a13.1,13.1,0,0,1-.5-1.37Zm2.24-16.7c-4.54,1.9-9,3.92-13.51,5.93-.05,0-.27.11-.29.16s.13.23.17.28a36.89,36.89,0,0,1,4.57,8.27c3.7-1.66,7.43-3.28,11.09-5,.75-.38,1.45-.83,2.16-1.27.18-.11.13-.15.07-.33a41.22,41.22,0,0,0-3.87-8.16h0A2.45,2.45,0,0,0,451.77,178.52ZM760.07,14.85a17.4,17.4,0,0,0-5.55,2.85c-.39.7-.76,1.42-1.11,2.15a.87.87,0,0,1,.36.87c-.11.53-.58.7-1.08.71C749.37,29.12,748,38.15,747,46c-.82,7.29-1.69,14.74.13,22,1,4.56,2.11,9.12,3.45,13.6s3.64,8.74,5.23,13.21a47.59,47.59,0,0,0,7.06,12.49,50.51,50.51,0,0,0,15.2,13.83,78.14,78.14,0,0,0,12.13,5.73,26,26,0,0,0,6.7,2.11c5.64.89,11.38,0,17-.86,2.32-.36,4.73-.23,7-1l.51-.19a39.36,39.36,0,0,0,4.13-6.78,81.39,81.39,0,0,0,4.74-12.45A47.72,47.72,0,0,0,833,94.29a83.87,83.87,0,0,0-2-26.94c-1.22-4.3-2.09-8.79-4.08-12.81-2.34-3.85-4.38-7.87-6.72-11.72a85.58,85.58,0,0,0-13.61-15c-3.27-3.11-7.18-5.36-11.08-7.58A34.28,34.28,0,0,0,786.32,16c-3.11-1.37-6.47-1.6-9.79-2a62.69,62.69,0,0,0-7.39-.52A26.53,26.53,0,0,0,760.07,14.85Z"/><path class="cls-1" d="M616.78,211.76l-.21.09h0Z"/><path class="cls-1" d="M616.82,211.74h0Z"/><path class="cls-1" d="M643.17,203.76l-.1-.08,3.2-1.28c-.38.2-.76.4-1.15.59-.6.31-1.21.6-1.83.89Z"/><path class="cls-1" d="M550.87,247.72c-3.09.07-5.93-1.55-6-4.9-.25-2.41-.52-4.82-.74-7.23-.13-2.89-.73-6,.21-8.78a2.52,2.52,0,0,1,3.06-1.49c1.35.43,1.75,1.8,2,3.06,3.55-1.36,6.81-3.68,10.19-5.48,2-1.43,4.65-1.39,5.85,1,2,4.73,4.82,9.62,4.23,14.9-.47,3.74-4.24,5.27-7.41,6.21C558.51,246.14,554.8,247.71,550.87,247.72Z"/><path class="cls-1" d="M539.31,540.64c-2.67-.48-3-2.66-2.71-5,0-4.35.09-8.69.43-13,.45-9.69,1-19.37,1.84-29,.56-6.47.23-13,.41-19.45.46-10.42,1.13-20.84,2.08-31.24.78-10.46,1.08-20.94,2-31.4,1-13.89,2.49-27.75,2.9-41.69,1.27-24.5,1.87-49,3.4-73.51.49-10.6,1.5-21.16,2.35-31.74.44-6.33.9-12.67,1.55-19,.38-2.45.25-6.09,3.14-6.86,2.54-.28,3.12,2.23,3,4.26.75,19.56-1.12,39.08-2,58.6-.71,10.55-1.16,21.11-1.58,31.68q-1.86,26.31-3.42,52.64c-1.19,17.32-2.68,34.63-3.59,52q-1.39,15.56-2.45,31.12c-.62,6.4-.47,12.83-.75,19.24-.63,9.29-1.72,18.55-2.13,27.86-.3,5.43-.85,10.86-.89,16.3C542.73,535.51,543.91,540.8,539.31,540.64Z"/><path class="cls-1" d="M621.76,529.87a3.17,3.17,0,0,1-2-1.18,9.92,9.92,0,0,1-.95-2.33c-1.38-4.09-2.42-8.29-3.61-12.44q-2.79-9.4-5.18-18.9c-1.53-6.41-2.66-12.93-4.67-19.22-2-6.46-4.19-12.88-6.14-19.37-2.83-9.31-4.59-18.88-6.56-28.39-4.39-19-8.15-38.08-12.29-57.1-1.81-10.33-4.09-20.55-6.41-30.77-4.45-19.34-6.4-39.17-11.45-58.38-2.82-11.07-6-22.16-7.34-33.53-.1-1.72-.31-4.3,1.84-4.86a2.37,2.37,0,0,1,2.72,1.28c3.25,11.91,6.66,23.82,9.94,35.75,5.12,19.1,6.79,38.9,11.08,58.18,1.38,6.73,3.12,13.39,4.39,20.14,1.18,6.53,2.38,13.05,3.8,19.53,3.13,14.47,5.85,29,9.27,43.44,1.81,8,3.11,16.16,5.06,24.16,2.27,9.7,5.62,19.08,8.46,28.62,2.67,9.41,4.11,19.11,6.77,28.53,1.65,6,3.37,12,5,18,.47,2,1.41,3.84,1.68,5.84A3.05,3.05,0,0,1,621.76,529.87Z"/><path d="M644.41,206.91c-1.32-.23-2-1.61-2.88-2.52A2.9,2.9,0,0,1,641,203a1.55,1.55,0,0,1,1.87-1.4,5.6,5.6,0,0,1,2.44,1.76,3,3,0,0,1,1,1.49A1.81,1.81,0,0,1,644.41,206.91Z"/><path d="M643.38,205a1.31,1.31,0,0,1-.75-.47c-.41-.44-1.13-.92-.88-1.61a.74.74,0,0,1,1.14-.33,1.36,1.36,0,0,0,.41.3,6.44,6.44,0,0,1,.73.47A.93.93,0,0,1,643.38,205Z"/><path d="M606.22,216.53a2,2,0,0,1-1-3.43c3.64-1.49,8-2,11.76-3.49,7.07-2.17,13.76-5.36,20.8-7.6a6.06,6.06,0,0,1,2.57-.46,1.06,1.06,0,0,1,.56,1.73c-5.42,2.6-11.08,4.8-16.53,7.38C618.47,212.92,612.46,215.36,606.22,216.53Z"/><path d="M597.67,215.88a2.1,2.1,0,0,1,1.44-3.46c2.23-.28,4.4-.83,6.61-1.2,4.86-1.15,9.6-2.78,14.45-4,4.07-1,8.07-2.32,12.13-3.37,1.93-.56,3.88-1.08,5.83-1.57.93-.18,2.26-.7,2.86.34a1.09,1.09,0,0,1-1.09,1.6,29.19,29.19,0,0,0-3.92,1.53c-6.37,2.64-13,4.52-19.48,6.92-2.46.69-4.84,1.57-7.28,2.3a65.8,65.8,0,0,1-6.84,1.25C600.84,216.25,598.9,217.14,597.67,215.88Z"/><path class="cls-2" d="M111.32,396.57c-1.18-.27-.86-1.75-1.11-2.65-.25-2.24-.93-4.51-.84-6.75a1.17,1.17,0,0,1,2.12-.25c.26.46,0,.95.11,1.42.24,2,.55,4,.81,5.93C112.61,395.28,112.8,396.67,111.32,396.57Z"/><path class="cls-2" d="M198.6,260.8a4.81,4.81,0,0,1-1.33-.48,1.08,1.08,0,0,1,1.08-1.87,40.58,40.58,0,0,0,12.68.64,1.39,1.39,0,0,1,1.67,2.05,1.45,1.45,0,0,1-1.18.58,32.41,32.41,0,0,1-3.26.2A39.25,39.25,0,0,1,198.6,260.8Z"/><path class="cls-2" d="M234.68,276.1a35.67,35.67,0,0,0-12.53-3.37c-5-.31-16,.15-19.51-3.47a1.63,1.63,0,0,1-.18-1.5c.14-.42.25-.92.69-1.13A.93.93,0,0,1,204.3,268c-.09.11.14.13.2.18a20.83,20.83,0,0,0,4.93,1.23c5.54.91,11.21-.05,16.74.9,2.16.43,9.44,1.85,10.17,3.9A1.54,1.54,0,0,1,234.68,276.1Z"/><path class="cls-2" d="M232.26,294.28c-1.13-.28-1.93-1.28-2.89-1.9A45.82,45.82,0,0,1,222,285.5a1.36,1.36,0,0,1,1.42-2.11,1.42,1.42,0,0,1,.83.63,24.54,24.54,0,0,0,3.23,3.05c1.94,1.63,4.09,3,6.12,4.51A1.6,1.6,0,0,1,232.26,294.28Z"/><path class="cls-2" d="M445.69,102.12c-2,.18-2-2.12,0-2a17.27,17.27,0,0,0,6.94-1.52,1.13,1.13,0,0,1,.9,1.86C451.23,101.91,448.32,102.19,445.69,102.12Z"/><path class="cls-2" d="M449.12,109.16a1.18,1.18,0,0,1-.65-2.12,1.09,1.09,0,0,1,1-.19,12.91,12.91,0,0,0,3.13-1.45c.83-.39,1.38-1.31,2.32-1.43a1.35,1.35,0,0,1,.49,2.6A12.14,12.14,0,0,1,449.12,109.16Z"/><path class="cls-2" d="M455.57,114.16a1.24,1.24,0,0,1-.22-2.45c1.21-.19,2.14-1.29,3-2.07a1.52,1.52,0,0,1,2.58,1.57,6.17,6.17,0,0,1-1.75,1.5A7.13,7.13,0,0,1,455.57,114.16Z"/><path class="cls-2" d="M406.83,95.19c-1.69-.33-3.69-5-3.5-6.66a1.12,1.12,0,0,1,2.07-.43,3.14,3.14,0,0,1,.24.79,11.88,11.88,0,0,0,2.31,4A1.36,1.36,0,0,1,406.83,95.19Z"/><path class="cls-2" d="M403.57,98.59c-1.6-.49-2.4-2.26-3.07-3.67-.05-.38-.43-.35-.68-.54-1.31-1.18.58-2.59,1.77-1.77s1.46,2.47,2.58,3.39A1.34,1.34,0,0,1,403.57,98.59Z"/><path class="cls-2" d="M398.74,101.51c-1.1-.24-1.71-1.44-2.4-2.24a4,4,0,0,1-.64-1.16,1.06,1.06,0,0,1,.93-1.35c.53,0,.86.39,1.2.73s.91.89,1.39,1.3C400.62,99.62,400.49,101.46,398.74,101.51Z"/><path class="cls-2" d="M283.47,300.6a43.72,43.72,0,0,1-7.78-1.71l-.51-2.74c-1.32-6.34-2.84-12.63-4.2-19-.34-1.62-.72-3.22-1.12-4.82,1.08,2.74,2.18,5.46,3.35,8.16C276.09,287.49,280,293.94,283.47,300.6Z"/><path class="cls-2" d="M443.12,150.66c.09.1.06.18-.07.24a1.85,1.85,0,0,0-.24.44,3,3,0,0,0-2.67-2.37l-.29,0a1.84,1.84,0,0,0-1.12.37c-.32.19-.42.56-.66.81-.57-1-.72-2,0-2.62C440.2,147.1,442.27,148.85,443.12,150.66Z"/><path class="cls-2" d="M367.38,150.62a47.32,47.32,0,0,0,5,10.8c-3.76,1.2-7.65,2.15-11.45,3.18,1.52-3.53,3.46-6.89,4.93-10.45C366.32,153,366.85,151.79,367.38,150.62Z"/></g></g></svg>