<svg xmlns="http://www.w3.org/2000/svg" viewBox="0 0 369.94 537.27"><defs><style>.cls-1{fill:#f7941d;}.cls-2{fill:#fdd52f;}.cls-3{fill:#fff;}.cls-4{fill-rule:evenodd;}</style></defs><title>Lapiz</title><g id="Capa_2" data-name="Capa 2"><g id="Capa_1-2" data-name="Capa 1"><path d="M105.19,164.52v-.07c0-.24,0-.48,0-.72h0l0,.94Z"/><path d="M111.86,86.49c0,.45,0,.89,0,1.34a2.83,2.83,0,0,1,0,.29c0,.13,0,.25,0,.38-.06,1.56-.13,3.11-.21,4.67,0,.83-.09,1.66-.14,2.5v.16a1.22,1.22,0,0,0-.55.17,1,1,0,0,0-.16.12l0-.5c0-.33,0-.66.08-1s0-.37,0-.55c.15-1.87.33-3.75.62-5.61l.12-.74c.06-.33.12-.67.19-1A2,2,0,0,1,111.86,86.49Z"/><path d="M72.06,92.22c-1-.46-.35-2,.66-1.8a.84.84,0,0,1,.65,1.14,6.85,6.85,0,0,0-.45.61.86.86,0,0,1-.47.14A1,1,0,0,1,72.06,92.22Z"/><path d="M80.65,125.89l0,0S80.66,125.91,80.65,125.89Z"/><path d="M80.64,125.87v0Z"/><path class="cls-1" d="M249.77,244.1l-.28.09c-1-1-2-1.94-3-2.92h0a5.56,5.56,0,0,0,.5.47c.3.29.62.58.93.86A19.29,19.29,0,0,0,249.77,244.1Z"/><path class="cls-2" d="M263.84,266c-3.28-3.75-6.45-7.59-9.8-11.28a105.71,105.71,0,0,0-7.81-8.17c-1.4-1.28-2.71-2.65-4-4a.93.93,0,0,0-.68.24c-2.89.87-5.77,1.75-8.66,2.64,0,.2-.06.41-.1.61a1.47,1.47,0,0,1-1.77,1.33,1.39,1.39,0,0,1-1.06-1c-9,2.78-17.9,5.62-26.85,8.41-7.32,2.39-14.58,4.95-22,7.12-11.26,3.1-22.2,7.14-33.2,11l-2.26.8-1.34.47a1.84,1.84,0,0,1-1.92,2.64c-1-.2-2.08-.43-3.12-.68h0L139,276q-10.53,3.78-21,7.63a2.49,2.49,0,0,1-1.46,1,3.53,3.53,0,0,1-1.18.33.75.75,0,0,1-.43-.16l-10,3.64L97.3,291l-4.78,1.63q-8.34,2.85-16.66,5.73l-2.71.93-.65.23-2.63.91-5.34,1.86-3.68,1.3Q50.38,307.22,40,311c-1.91.79-4,1.21-5.85,2.13a14.58,14.58,0,0,0-2.18,2.75,43.3,43.3,0,0,1-3.15,3.61c-5.88,5.78-12.15,11.17-17.67,17.3-3.7,4.14-7.43,8.29-11,12.54-.65,1.67,1.34,2.61,2.56,3.31,1.53.89,3.12,1.65,4.73,2.39,3.37,1.49,6.72,3.06,10.18,4.33,5.7,1.88,11.29,4,16.83,6.3,4.35,1.56,8.59,3.41,13,4.92a2.37,2.37,0,0,0,.79.12,5.14,5.14,0,0,0,1.16-.16,30.79,30.79,0,0,0,4-1.29l1-.41,2.59-1.1c1.53-.65,3.06-1.28,4.59-1.91l2.74-1.15h0l2.67-1.12,2.34-1,.53-.23q8.86-3.85,17.75-7.67l4.56-2,10.66-4.56c2.75-1.05,5.49-2.13,8.23-3.21.08-.16.15-.32.24-.47a8.32,8.32,0,0,1,.61-1,1.09,1.09,0,0,1,1.34-.15,1,1,0,0,1,.35.38,1.17,1.17,0,0,1,.09.24c8.27-3.27,16.54-6.56,25-9.36,5.16-1.77,10.27-3.7,15.34-5.71h0c1.24-.48,2.46-1,3.7-1.47h0l.73-.29c.47-1,1.14-1.77,2.5-1.43a1.31,1.31,0,0,1,.27.12c.22-.16.44-.32.65-.49q1.8-1.33,3.73-2.51a38.4,38.4,0,0,1,10.79-4.24,1.43,1.43,0,0,1,1.92.56l4.27-1.63c3.32-1.26,6.63-2.54,9.95-3.81l.8-.31c0-.59,0-1.16.05-1.75h0c.08-1.28.26-2.56.42-3.81a10.84,10.84,0,0,0,.23-1.47c.15-1.26.32-2.63,1.28-3.15.06-.55.14-1,.19-1.33.13-.81.89-1.19,1.52-1.59a93.09,93.09,0,0,1,14.47-8.55c5.15-2.62,10.31-5.24,15.61-7.53,3.79-1.65,7.79-2.77,11.55-4.5,4.54-1.77,8.72-4.37,13.33-6,2.67-.95,4.85-1.72,7.33-2.73,2.09-.87,4.18-2.12,6.25-3.05C265,267.2,264.39,266.58,263.84,266ZM45.77,366.35c-1.38-.5-2.74-1.06-4.11-1.59-5.37-1.95-10.67-4.13-16.08-6,.45-.84,0-2.11-.12-3.13-.3-3.28-.27-6.59-.89-9.85-.71-4.72-1.46-9.5-3.44-13.89l-.16-.36c4.89-4.74,10.28-9,14.32-14.55.22.86.45,1.71.65,2.57.63,2.88,1,5.8,1.83,8.63.8,3,1.25,6.13,2,9.17s1.19,6,1.76,9,1.46,5.91,2.13,8.88,1.5,6.16,2.33,9.22a1.81,1.81,0,0,0,.55,1c.08.45.18.89.28,1.33C46.49,366.61,46.13,366.46,45.77,366.35Z"/><path class="cls-1" d="M305.09,271.62l.88-.27a26.51,26.51,0,0,1-3.62,4.93l-.51.16c.4-.43.79-.88,1.15-1.35s.89-1.15,1.27-1.77l.05-.05a1.43,1.43,0,0,0,.4-.73,4.55,4.55,0,0,0,.37-.88Z"/><path class="cls-2" d="M369.79,249.3c-.12-1.17-.27-2.33-.5-3.48-1.16-4.95-2.65-9.88-4-14.8a76,76,0,0,0-4.87-14.14c-1-2.28-2.19-4.5-3.3-6.74a.84.84,0,0,0,.05-.17,1.57,1.57,0,0,0-1.37-1.71c-3,.33-5.83,1.48-8.69,2.37-2.53.83-5.09,1.57-7.64,2.33-14.78,4.75-29.68,9.09-44.49,13.75-2,.62-4,1.25-6,1.89l1.1,1.39c2.32,2.65,4.62,5.32,6.8,8.08A146.14,146.14,0,0,1,307,250.78a23.86,23.86,0,0,1,4.45,14.41,22.1,22.1,0,0,1-3.57,9.32c5.16-1.77,10.3-3.58,15.47-5.3,7.28-2.32,14.66-4.3,21.89-6.77,6.46-2.12,13.08-3.85,19.41-6.31a1.84,1.84,0,0,0,.71-.64,1.75,1.75,0,0,0,.28-.13,15.79,15.79,0,0,0,3.12-2.13C370,252.3,370.08,250.72,369.79,249.3Zm-7,3.77-.82.38c-5,1.94-10.47,3.51-15.67,5l-7.91,2.42a1.55,1.55,0,0,0-.07-.31c-.79-2.52-1.42-5.1-2.16-7.64-2.29-7.45-4.55-14.95-7.52-22.16-1.25-2.73-2.35-5.25-3.48-8.13-.2-.37-.39-.89-.62-1.37,4-1.22,7.89-2.49,11.79-3.84,6.27-2,12.52-4.06,18.62-6.53.37,2.06,1.09,4.08,1.64,6.09.9,3,2,6,2.88,9.06.88,3.39,1.64,6.82,2.66,10.17,1.22,4.72,2.89,9.35,3.47,14.21C364.63,251.33,363.11,252,362.78,253.07Z"/><path class="cls-1" d="M279.55,235.29s0-.09,0-.14l.74-.12.83-.17-1.59.51A.19.19,0,0,1,279.55,235.29Z"/><path class="cls-1" d="M282.64,230.62l0,.12-.65.1Z"/><path d="M191.26,133.22c-2.21-.1-6,.8-6.32-2.31-1.23,2.22-4.53,6.73-3.9,9.21,1.57-.15,2.79-1.27,4-2.19C187.06,136.29,189.25,134.87,191.26,133.22Zm3.56-2.26c2,1.51-1.76,3.77-2.81,4.78-1.77,1.41-3.65,2.65-5.44,4s-4,3.17-6.4,2.53c-3.32-1.86-.7-6.59.53-9.07.85-1.66,1.77-3.29,2.76-4.86a45.18,45.18,0,0,0,1.82-1.5,1.09,1.09,0,0,1,1.13,1c.31.95.58,1.92.85,2.89,1.94.18,3.87,0,5.8,0A3.49,3.49,0,0,1,194.82,131Z"/><path d="M189.37,124.52c-2.34-.11-5.78-1.11-5.94-3.89.31-3.17,7.09-5.07,9.72-6.07,4.75-1.47,5.58-2.18,8.35-6.26.36-.43.63-1,1.15-1.23a.88.88,0,0,1,1.15,1.09,29.31,29.31,0,0,1-1.68,3c-1.75,3.48-4.71,4.73-8.2,5.92a30.47,30.47,0,0,0-7.55,3.58c2.18,1.65,6.5,1.13,9.1.76a1.34,1.34,0,0,1,.59,2.61A24.6,24.6,0,0,1,189.37,124.52Z"/><path d="M228.72,116.21c-1.14-.85-2.56-1-3.86-1.46a21.49,21.49,0,0,1-3.72-1.85,42.92,42.92,0,0,1-7.24-5c-1.54-1.27-3.11-3.89-.78-5.21,2-.78,4.16.34,6,1.17a32.56,32.56,0,0,1,7.51,4.47,36.12,36.12,0,0,1,3.62,3.81c.82,1.07,2.17,2.38,1.62,3.83S229.69,116.92,228.72,116.21Z"/><path d="M211.4,125.92c-3-1-5.62-3.12-5.92-6.39-.19-1.2-.32-3.07,1.08-3.56.06-.66.7-1.47,1.44-1.26,6.2-2.76,11.66,1.29,12.18,7.78a2.48,2.48,0,0,1-1.36,3.14A8.28,8.28,0,0,1,211.4,125.92Zm3.89-1.86a5.58,5.58,0,0,0,2.44-.76c-.5-5.42-3.82-8.5-9.27-6.59a2.15,2.15,0,0,1,0,1.58,6.84,6.84,0,0,0,.31,2C209.72,122.56,213,123.91,215.29,124.06Z"/><path d="M216.1,118.45a1.94,1.94,0,0,1-1,1.85,2.8,2.8,0,0,1-2.82.23c-1.75-1-1.1-3.43.3-4.29a2,2,0,0,1,2.25.06A2.79,2.79,0,0,1,216.1,118.45Z"/><path d="M178.76,116.09c.06-1.3,2-1.15,2.05.06s-1.41,1.88-2.17,2.71a1,1,0,1,1-1.37-1.44C177.76,117,178.28,116.55,178.76,116.09Z"/><path d="M180.58,118.07a1,1,0,0,1,1.9,0,3.84,3.84,0,0,1-1.17,2.21,1,1,0,0,1-1.36.14C179,119.6,180.12,118.78,180.58,118.07Z"/><path d="M205,128.8a.81.81,0,1,1,1.52.58c-.34.82-1.24,2.56-2.32,1.81S204.67,129.58,205,128.8Z"/><path d="M209.65,130.37a1.22,1.22,0,0,1,.42,1.54c-.45.79-1,2.48-2.21,1.86a.94.94,0,0,1-.3-1.28c.19-.3.4-.58.6-.88a.9.9,0,0,1-.27-1.07C208.23,129.79,209.09,130,209.65,130.37Z"/><path d="M213.61,132.86a3.41,3.41,0,0,1-.49,2.45.9.9,0,1,1-1.64-.75c.19-.38.38-.77.55-1.17C211.69,132.35,213.17,132,213.61,132.86Z"/><path d="M213.53,120c.46-.1,1.12-.93.59-1.52a1.44,1.44,0,0,0-.46,0,6,6,0,0,0-.59,1A.6.6,0,0,0,213.53,120Zm3.56-2.26a3.4,3.4,0,0,1,0,2.47c-.82,2.09-3.38,3.65-5.41,2.26a3.26,3.26,0,0,1-1.37-3.8,6.36,6.36,0,0,1,1.68-2.52,3,3,0,0,1,2.07-.8,3.08,3.08,0,0,1,2.43,1.63A1.41,1.41,0,0,1,217.09,117.75Z"/><path d="M275.19,264.94c-.61-.11-1.31-.5-1.14-1.22a.9.9,0,0,1,1.08-.69,1.47,1.47,0,0,0,.8.14,18.78,18.78,0,0,0,4-.93,9.15,9.15,0,0,1,4-.7c1,.14,3.06-.18,2.88,1.36-.38,1.38-2.31.37-3.33.53C280.62,263.51,278,265.24,275.19,264.94Z"/><path d="M288,270.35a10.29,10.29,0,0,0-3.18-.73c-1.06-.08-2.25.43-3.22-.08-1.08-.8.06-2.62,1.19-1.71a11.56,11.56,0,0,1,5.88.67,1,1,0,0,1-.67,1.85Z"/><path d="M223.65,230.79c-.94-.25-1.87-.51-2.8-.78a1.15,1.15,0,0,1-.68-1.46c.67-1.68,3.13.13,4.36.33a1,1,0,0,1,1.54.35,1.37,1.37,0,0,1-.9,1.71A2.91,2.91,0,0,1,223.65,230.79Z"/><path d="M212.82,240.2c-.39-1,.39-1.56,1.23-1.78a20.16,20.16,0,0,1,3.49-1c1.72-.4,3.59-.15,5.22-.9a47.65,47.65,0,0,0,5.18-3.63,1.53,1.53,0,0,1,1-.48h0a.8.8,0,0,1,.62,1.33c-.29.26-.63.48-.92.76-1.9,1.58-3.71,3.47-6.08,4.34-1.67.52-3.46.46-5.15.91-.83.22-1.64.48-2.45.77S213.23,241.1,212.82,240.2Z"/><path d="M214.5,233.8c-1-.08-2-.12-3-.15a1.11,1.11,0,0,1-1-1.21,1.13,1.13,0,0,1,1.21-1c1.53,0,3,.29,4.57.38a1.27,1.27,0,0,0,.43-.05,1,1,0,1,1,1.32,1.55C217,234.11,215.65,233.84,214.5,233.8Z"/><path d="M103.13,97.32a1,1,0,0,1-1,1.11,8.09,8.09,0,0,0-1.63.13c-2.53.55-5.07,1.58-7.68.91a19.72,19.72,0,0,0-3.59-.39,1.08,1.08,0,0,1,0-2.16c2.33-.11,4.6,1,6.93.55C97.57,97.31,102.82,95.25,103.13,97.32Z"/><path d="M98.41,87.18c.57.57,0,1.41-.69,1.48-.5.19-1.15.16-1.35-.43a23.41,23.41,0,0,1-2.72-.9A1,1,0,0,1,93.1,86c.74-1.43,2.27,0,3.3.31A9.08,9.08,0,0,1,98.41,87.18Z"/><path d="M122.87,199a1.05,1.05,0,0,1-.45,2c-1.72,0-1.79-2.19-1.92-3.48a37.67,37.67,0,0,1,.46-10.28,7.52,7.52,0,0,0-.24-2.63,1.17,1.17,0,0,1,.71-1.36c3.35-.8,1.23,7.53,1.18,9.24A33,33,0,0,0,122.87,199Z"/><path d="M127.56,184.06a.94.94,0,0,1,1.62.95,30.2,30.2,0,0,0-1.69,4.22,23.5,23.5,0,0,0-1,2.44.86.86,0,0,1-1,.72c-1.33-.31-.47-1.84-.15-2.65a33.22,33.22,0,0,0,1.29-3.67A16.37,16.37,0,0,1,127.56,184.06Z"/><path d="M307,250.78a146.14,146.14,0,0,0-10.16-12.71c-2.18-2.76-4.48-5.43-6.8-8.08L289,228.6c-3.6-4.58-7.15-8.87-11-13.4a194.85,194.85,0,0,0-14.52-15.34c-5.5-5.46-11.36-10.78-18.11-14.64a35.36,35.36,0,0,0-8.85-3.45c-3-.59-6-.85-8.95-1.53a38.79,38.79,0,0,0-9-1.11h-.28c.12-.33.23-.67.35-1,1-2.87,2-5.71,2.93-8.6,2.1-7.74,5.69-14.95,8.92-22.26,4.05,1.71,11.9,1.72,13-3.68a9.09,9.09,0,0,0-1.42-6.85c1.43,0,2-2.15,3-3.08,6.84-6.42,8.08-6.55,9.7-16.26,5.28-1.27,6.48-6.8,5.56-11.52-.58-2.86-2.32-5.24-3.83-7.69,2.34-3.84,1.28-7.91-1.57-11.13a23.6,23.6,0,0,0-9.68-7.1A10.59,10.59,0,0,1,240,74.12c-1-2.39-2.12-4.87-4-6.72a15.49,15.49,0,0,0-12-4c-1.78-4.31-6.64-5.5-10.86-5.79-4.93-.65-11.14.65-13.22,5.71-7.21-1.85-11.48,4.83-12.61,11.06A18,18,0,0,0,189,82.61a26.74,26.74,0,0,0,1.89,3.44c.16.25.32.53.51.78-1.22,2.16-2.46,4.32-3.74,6.44a1.28,1.28,0,0,0-.46.75c-.33.55-.67,1.1-1,1.64-2.52,3.78-4.71,7.75-7.12,11.6-2.5,3.7-5,7.39-7.36,11.21a51.53,51.53,0,0,0-4,7.54c-1,2.47-2.44,4.85-2.65,7.55A14.23,14.23,0,0,0,169.77,145c2.68,2.41,6.07,3.78,9.35,5.16-1.21,4.57-2.77,9-4.33,13.48-.88,2.44-1.81,4.85-2.59,7.32-2.7-1.14-5.67-1.17-8.55-1.44-3.34-.37-6.76-.76-10.09-1.32h0c-5.47-7.87-10.6-16-15.92-23.93-1.93-2.94-3.93-5.84-5.8-8.83s-3.52-6.07-5.45-9c-3.13-5.7-6-11.53-8.73-17.43a122.26,122.26,0,0,0-6.23-13.33c-.19-.35-.39-.7-.6-1l-.16-.27a2.92,2.92,0,0,1,.21-.28c.22-.31.45-.61.69-.91,2.19-2.8,4.7-5.34,7.12-7.92,2.44-2.73,5-5.36,7.42-8.09,2.29-2.78,4.76-5.39,7.13-8.11,1.12-1.37,2.18-2.8,3.37-4.12a211.45,211.45,0,0,0,13.85-16.75c3.34-5.25,7.44-10,10.76-15.22a63.15,63.15,0,0,0,5.86-14.62c.77-2.5,2.89-16.67-3-11.92.35-2.66-1.17-6.14-4.12-3.71-.16-3-2.72-3.29-4.92-1.89-2.36,1.33-3.82,3.7-5.62,5.63a76.3,76.3,0,0,0-6.7,7.89.21.21,0,0,0,0,.06c-2.94,3.21-6.48,6-9.53,9.15-1.27,1.21-2.46,2.48-3.65,3.76a1.42,1.42,0,0,0-.31.47c-4.22,3.55-8.23,7.35-12.39,11a130.07,130.07,0,0,0-10.7,10.82C103.8,52,101.31,54.25,99,56.7c-2.72,3-5.74,6.2-8.62,9.23-.25.26-.49.52-.74.77q-1.56,1.78-3.2,3.49c-2.22,2.37-4.48,4.69-6.63,7.16-1.49,1.78-2.73,3.74-4.07,5.62a57.34,57.34,0,0,0-3.91,5.93A22.56,22.56,0,0,0,70.37,92a13.89,13.89,0,0,0-.83,7.46c.3,2.33.42,4.67.81,7A52.54,52.54,0,0,0,72.51,113c.48,1.26,1,2.52,1.39,3.8s.91,2.38,1.37,3.56c.91,2.34,1.86,4.67,2.83,7,.52,1.23,1,2.45,1.57,3.68.21.44.42.87.64,1.3,1,2,2.07,3.89,2.93,5.92q1,2.23,2,4.48h0c.58,1.27,1.16,2.55,1.76,3.83h0c2.43,5.26,5,10.54,7.51,15.67,2.17,4.35,4.3,8.71,6.49,13,1.25,2.47,2.51,4.92,3.81,7.36,1.38,2.59,2.79,5.16,4.26,7.71,2.5,4.65,4.74,9.44,7.12,14.15,2.15,3.82,4,7.81,5.91,11.73,0,3.45-1.12,7.16-1.6,10.67-1,5.57-2.39,11-3.82,16.48-1.11,4.09-2,8.23-3.15,12.33-.48,2.43-1.5,4.83-1.43,7.34.25,2.2,3.69,3.55,5.32,4.74l.63.4-.07.16a54,54,0,0,0-2.81,10.25c-.13,1.22-.9,3.21-.4,4.41a1.28,1.28,0,0,0,0,.67.81.81,0,0,0,.21,1.05.75.75,0,0,0,.43.16,3.53,3.53,0,0,0,1.18-.33,2.49,2.49,0,0,0,1.46-1q10.5-3.84,21-7.63l.27.07h0c1,.25,2.08.48,3.12.68a1.84,1.84,0,0,0,1.92-2.64l-.08-.14a1.79,1.79,0,0,0-1.25-.83,92.48,92.48,0,0,1-10.36-2.64c-6.17-2-12.4-4-17.76-7.83.39-3.29,1.66-6.5,2.51-9.71,2.2-8.42,4.86-16.75,6.34-25.36.47-2.59.92-5.19,1.33-7.79a10.46,10.46,0,0,0,.08-4.62c.55-2.69.85-5.43,1.13-8.16.22-2.26.37-4.53.6-6.8a1.27,1.27,0,0,0-2.51-.36c-.42,3.65-.49,7.32-.79,11,0,.3,0,.62-.08.95-3-6-6.08-12-9-18.05-2.87-5.74-6.19-11.24-9.18-16.92,0,0,0,0,0,0h0c-.69-1.32-1.37-2.64-2-4-.57-1.16-1.14-2.32-1.72-3.48l-.14-.31c-5.25-10.62-10.47-21.19-15.06-32.16-2-4.41-4.33-8.66-6-13.21L79,120.42h0l0-.08c-1-2.41-2-4.83-2.92-7.26h0c-.82-2.1-1.61-4.22-2.37-6.34-.11-.45-.21-.89-.3-1.33-.55-2.76-.81-5.58-1.09-8.38a13.63,13.63,0,0,1,2.06-6.45c.14-.26.29-.51.44-.76.72-1.17,1.5-2.31,2.24-3.42,1.69-2.23,3.12-4.4,4.9-6.63s3.71-4.09,5.61-6.06c.24.48.57.93,1.18.82,7,5.37,15.06,9.25,22.94,13.22l.19.1.16.08-.18.21c-.09.12-.19.23-.29.35A45.85,45.85,0,0,0,108.1,93a3.62,3.62,0,0,0-.27.51,18.81,18.81,0,0,1-4.68-.09c-2.07-.57-4-1.63-6.24-1.44a1.28,1.28,0,0,0-.86.35,1.21,1.21,0,0,0,.82,2.07c2-.08,3.72.92,5.6,1.28a15.9,15.9,0,0,0,4.41-.1c.32,0,.64-.12,1-.19.33,1.06,1.06,2.11,1.41,3.09,2.27,5.19,4.29,10.5,6.83,15.57,1.47,3.16,3.25,6.16,4.83,9.26.85,1.67,1.71,3.35,2.71,4.94,1.8,2.72,3.48,5.5,5.13,8.31,4.39,6.91,9.07,13.63,13.55,20.47,2.39,3.49,4.47,7.18,7.05,10.53,0,0,0,0,0,0-1-.11-2,0-2.13,1.15a1.2,1.2,0,0,0,1.18,1.22c.83,0,1.67-.11,2.5-.17,1,1.18,1.81,1.62,4.44,1.95q2.81.51,5.64.89c-.82,2.61-1.42,5.29-2.32,7.88-.26.72-.54,1.43-.87,2.12-.55.79-1,1.87-.08,2.58,1.27.76,3,0,4.37-.12,3.38-.73,6.85-1.29,10.26-2a1.36,1.36,0,0,0,1.05-1.34,50.08,50.08,0,0,0,1.32,6.95c.3,1.2.63,2.74,1.83,3.32-.14.57-.29,1.14-.43,1.71-2.15,8.18-4.89,16.2-6.76,24.46-1.1,4.71-2.7,9.28-3.79,14s-2.36,9.23-3.48,13.86c-.65,2.87-1.22,5.75-2,8.59-.43,1.64-.78,3.3-1.34,4.91-.76,2.11-1.68,4.18-2.24,6.37a1.22,1.22,0,0,0,.07.8h0c-.38.88-.78,2.27.57,2.44a1.2,1.2,0,0,0,1.17-1c.59-.31.63-1.08.82-1.66a1.63,1.63,0,0,0,0-1.28,3.86,3.86,0,0,1,.27-.85c3.32-8.29,4.67-17.23,7.19-25.78,1.28-4.61,2.35-9.27,3.81-13.83s2.6-9.38,3.87-14.08,2.57-9.39,3.51-14.17c.23-1.46.58-2.92.81-4.4a27.24,27.24,0,0,0,3.13-.69c3.54-1,6.86-2,10.5-3.05,7.85-2.28,15.77-4.31,23.61-6.66a2.15,2.15,0,0,0,.67-.28.85.85,0,0,0,.49.17.8.8,0,0,0,.46-.13c1.62.4,3.22.85,4.83,1.31l-.46.43a104.66,104.66,0,0,0-7.79,7.4c-2.33,2.17-4.72,4.29-7.22,6.28-2.29-2.38-4.46-4.87-6.68-7.31a.94.94,0,0,0-.74-1.21,5.69,5.69,0,0,1-1-.19,1,1,0,0,0-1.49,1.15c2.55,3.2,4.65,6.77,7.54,9.7.49.68,1,1.46,1.95,1.47,1.74-.12,3-1.85,4.34-2.88,1.48-1.35,3-2.71,4.4-4.12,1.88-1.79,3.56-3.79,5.49-5.54,1.62-1.41,3.28-2.78,4.83-4.29,1.86.52,3.72,1,5.61,1.39a47.33,47.33,0,0,1,7,1.53,42.89,42.89,0,0,1,14.18,8.2,70.8,70.8,0,0,1,7.79,6.89c2.21,2.25,4.6,4.29,6.75,6.6q4.77,5.34,9.46,10.75c2.46,3.05,5.07,6,7.53,9,2.19,2.89,4.55,5.63,7,8.34,3.62,4.63,7.51,8.55,11,13.37,2.25,2.87,4.53,5.83,5.52,9.4a13.24,13.24,0,0,1-.9,11.4c-.13.26-.27.51-.41.76a27.43,27.43,0,0,1-3.63,4.94,76.08,76.08,0,0,1-10.49,8.9A83.79,83.79,0,0,1,276,293.93c-2.27-4.13-4.57-8.22-7-12.3-2.14-2.5-3.6-5.44-5.35-8.2,1.21-.58,2.41-1.18,3.6-1.82a3.21,3.21,0,0,0,1.89-1.4,2,2,0,0,0,.66-.33,31.81,31.81,0,0,0,3.51,2.53,17.85,17.85,0,0,0,4.61,1.29,1,1,0,0,0,.43-2,14.34,14.34,0,0,1-4.49-1.32c-.75-.52-1.48-1.08-2.21-1.62,1.44.11,2.89.49,4.37.6a20.28,20.28,0,0,0,2.7,0,1,1,0,0,0-.08-2.09c-2.8.14-5.55-.53-8.35-.62-2.2-2.94-5-5.39-7.34-8.21-4.08-4.47-8-9.14-12.37-13.33l-1.06-1c-1-1-2-1.94-3-2.92s-2.16-2.15-3.25-3.21c-3.88-3.59-8-6.5-12.17-10a1.06,1.06,0,0,0-.71-.5,24.75,24.75,0,0,1-.92-3c-.24-1-.43-2.06-.6-3.09a1.15,1.15,0,1,0-2.27.38c.51,2.92,1.11,6.09,2.91,8.5a.83.83,0,0,0,.61.18c.55.65,1.21,1.23,1.76,1.86l.35.35c-.14.56-.15,1.16-.29,1.71a1.42,1.42,0,0,0-.41.85,46.35,46.35,0,0,1-.72,4.7c-.36,1.64-.63,3.3-.86,4.95a2.8,2.8,0,0,0,.05,1.32,1.39,1.39,0,0,0,1.06,1,1.47,1.47,0,0,0,1.77-1.33c0-.2.07-.41.1-.61.21-1.27.4-2.62.55-4,.27-2.24.62-4.47.7-6.71,1.58,1.53,3.2,3,4.79,4.53,1.14,1.06,2.22,2.17,3.3,3.29,1.32,1.36,2.63,2.73,4,4a105.71,105.71,0,0,1,7.81,8.17c3.35,3.69,6.52,7.53,9.8,11.28.55.63,1.12,1.25,1.67,1.89-2.07.93-4.16,2.18-6.25,3.05-2.48,1-4.66,1.78-7.33,2.73-4.61,1.6-8.79,4.2-13.33,6-3.76,1.73-7.76,2.85-11.55,4.5-5.3,2.29-10.46,4.91-15.61,7.53A93.09,93.09,0,0,0,197,300.17c-.63.4-1.39.78-1.52,1.59,0,.3-.13.78-.19,1.33-1,.52-1.13,1.89-1.28,3.15a10.84,10.84,0,0,1-.23,1.47c-.16,1.25-.34,2.53-.42,3.81h0c0,.59-.05,1.16-.05,1.75l-.8.31c-3.32,1.27-6.63,2.55-9.95,3.81L178.26,319a1.43,1.43,0,0,0-1.92-.56,38.4,38.4,0,0,0-10.79,4.24q-1.94,1.17-3.73,2.51c-.21.17-.43.33-.65.49a1.31,1.31,0,0,0-.27-.12c-1.36-.34-2,.4-2.5,1.43l-.73.29h0c-1.24.49-2.46,1-3.7,1.47h0c-5.07,2-10.18,3.94-15.34,5.71-8.45,2.8-16.72,6.09-25,9.36a1.17,1.17,0,0,0-.09-.24,1,1,0,0,0-.35-.38,1.09,1.09,0,0,0-1.34.15,8.32,8.32,0,0,0-.61,1c-.09.15-.16.31-.24.47a41.84,41.84,0,0,0-1.58,4.7c-.89,3.09-1.64,6.22-2.23,9.38-.82,4.25-1.78,8.48-2.63,12.73-2.1,10.82-3.43,21.78-5.29,32.64-2.68,12.94-4.53,26-6.74,39-.83,4.29-1.65,8.58-2.23,12.9-1.26,8.79-2.89,17.54-4,26.36-.83,6.54-1.83,13.12-3,19.63C82,510,80,517.6,79.58,525.44c-3.69-1.28-7.19-3-10.75-4.58-.87-.38-1.76-.74-2.64-1.11-1.15-.67-2.71-.81-3.25.66a2.79,2.79,0,0,0,.27,2,35,35,0,0,0,2,4.13c2.92,5.67,9.34,9,15.62,9,4.31.38,7-3.39,10.07-5.79-.34,1.73-.77,3.44-1.11,5.16a1.89,1.89,0,0,0,.41,2,1.52,1.52,0,0,0,1.91,0c2-.24,3.94-.18,5.91-.24a3.55,3.55,0,0,0,1.91-.53,3.89,3.89,0,0,0,1.17-2c.35-1,.69-1.91,1-2.87,1.41-4.06,2.69-8.15,3.9-12.27,3.84-12.24,7.92-24.41,11.6-36.71,1.43-4.07,2.62-8.22,3.72-12.39,1.88-6.29,2.58-12.84,3.9-19.26,1.65-7.82,4.08-15.44,6.5-23.05,5.74-16.75,10-34,15.86-50.7,4.21-12.14,7.73-24.51,10.89-37a59,59,0,0,1,2.36-8.26c.4-1.25.75-2.51,1.22-3.74a1.62,1.62,0,0,0,.1-.54c.75-.52,1.54-1,2.32-1.47a42.63,42.63,0,0,1,10.88-4.62c-1.34,5-1.93,10.12-2.85,15.19-1,6.62-2.1,13.2-2.86,19.85-1.12,9-2.23,18.06-3.06,27.12-.49,6.28-.51,12.58-.87,18.86a145.18,145.18,0,0,0,.16,18.54c.42,5.29,1.52,12.12,7.8,13.14s12.58-1.24,18.57-3c9.14-2.73,18.14-5.93,27-9.49s18-6.7,26.63-10.82c7.61-3.4,15.31-6.62,22.52-10.82-.69,2.7-1.35,5.4-2,8.12a11.46,11.46,0,0,0-.46,2.84,1.83,1.83,0,0,0,2.39,1.68c5.82-2.38,9.17-8.25,11-14a14.26,14.26,0,0,0-3-14.38c1.5-.29,4.05.63,4.57-1.36,0-2.18-.12-4.41-.17-6.6,0-2-1-3.06-2.9-2.24-4.57,1-9.22,1.62-13.81,2.52-6,1.13-12,2.65-18.07,3.67-3.08.58-6.07,1.53-9.08,2.39-5.39,1.25-10.77,2.57-16.18,3.75-1,.22-2,.45-3,.69,0-1.28.13-2.56.18-3.83.1-3.33.77-6.6,1.14-9.91.41-6,1.35-11.89,2.29-17.81.56-3.08,1.18-6.15,1.7-9.23.71-4.53,1-9.1,1.71-13.63.42-3.17.93-6.34,1.17-9.53.32-3.6.07-7.21.24-10.8,2.17-.56,4.34-1.14,6.52-1.67C244.91,307.5,257,303.94,269,300a81,81,0,0,0,29.26-15.47,43,43,0,0,0,9.68-10,22.1,22.1,0,0,0,3.57-9.32A23.86,23.86,0,0,0,307,250.78ZM105.38,55.25c4-3.76,7.36-7.73,11.46-11.62,4.82-4.49,9.69-8.92,14.32-13.6a1.34,1.34,0,0,0,.62-.33c.91-.86,1.77-1.78,2.62-2.7,1.41-1.26,2.83-2.51,4.15-3.85a38.66,38.66,0,0,0,7-7.1c2.07-2.8,4.55-5.25,6.84-7.87,1.53-1.6,2.65-3.71,4.64-4.82-.79,3.45-3.49,6-5.14,9.06-.61,1.21-2,2.67-.27,3.65,1.85.69,2.41-1.81,3.25-2.93,2.1-2.84,4-6.05,6.69-8.38.53,3.64-2.78,6.42-3.77,9.71a1.37,1.37,0,0,0,2.13,1.33c1.91-2.32,3.3-5.05,5.59-7.26.21,5.38-1.7,10.6-3.76,15.54-1,2-1.93,4-2.92,6-2.45,4-5.44,7.69-8.26,11.45-2.28,3.27-4.38,6.66-7,9.71-3.13,4.34-6.73,8.3-10.23,12.35-2.94,3.7-6,7.3-9.17,10.85,0-.06-.1-.11-.15-.17-3.11-2.75-6.14-5.61-9.43-8.15a141.11,141.11,0,0,1-11.41-8.83C103.89,56.61,104.63,55.92,105.38,55.25Zm-6.83,21.5C95.84,75.35,93,74.2,90.4,72.6a7.43,7.43,0,0,1-1.11-.78l1.18-1.25L91.89,69q1.27-1.29,2.52-2.61c2.21-2.33,4.37-4.69,6.61-7a1.08,1.08,0,0,0,.45.34,1,1,0,0,0,.44.06,80.29,80.29,0,0,0,10,9.14c3.17,2.7,6.31,5.43,9.53,8.07.07.07.16.13.23.19q-3,3.39-6.14,6.75l-1.05,1.12a2.71,2.71,0,0,0-.25-.17C109.08,82.07,103.8,79.42,98.55,76.75ZM172.73,180.5c-.95-.49-2,.17-3,.28-3,.44-5.91,1.2-8.89,1.74,1.22-3,1.55-6.22,2.23-9.35a1.78,1.78,0,0,0,.33-.25c.73.08,1.47.14,2.2.2a18.93,18.93,0,0,1,5.28,1,1.67,1.67,0,0,0,1.68-.15c.25,2.42.44,4.85.74,7.26A1.29,1.29,0,0,0,172.73,180.5Zm12.75-75.14a2.63,2.63,0,0,0,0,.93,3.74,3.74,0,0,0,.81,2.81,6.28,6.28,0,0,1-2.37-2.47A11,11,0,0,1,185.48,105.36Zm31,68.12c-.46,1.37-.87,2.75-1.37,4.11l-.06.14-.14,0c-.91.25-1.81.55-2.71.82-2.78.76-5.44,1.82-8.16,2.75s-5.39,1.59-8.1,2.38c-5.73,1.72-11.51,3.54-17.4,4.72-.82-3.08-1.68-6.16-2.29-9.29a36.18,36.18,0,0,0-1.42-5.53,1.79,1.79,0,0,0,.85-1.07c.38-1.32.75-2.64,1.18-3.95,1.4-4.06,2.8-8.11,4-12.25.51-1.8,1-3.61,1.4-5.46.32-1.27.32-3-1.24-3.34-3.2-1.43-6.55-2.8-9.18-5.19s-4.16-6.12-3.37-9.63c3-8.62,8.63-15.88,13.47-23.53a15.11,15.11,0,0,0,8.48,4.64,13.54,13.54,0,0,0,6.39-1.16,1.45,1.45,0,0,0,.58-2,1.33,1.33,0,0,0-.51-.54,1.26,1.26,0,0,0-.1-.33c-.28-.76-.52-1.55-.84-2.3-.78-3.35-4.73-5.6-8-5.94a5.63,5.63,0,0,0-1.59.1c.68-1.17,1.36-2.34,2-3.51l.26.12a46.46,46.46,0,0,0,10,3.68c2.29.58,5.22,0,3.64-3,1.46-2.3-3.39-4.39-5.05-5a22.23,22.23,0,0,0-5.94-1,100.12,100.12,0,0,0,5-10.71,8.66,8.66,0,0,0,4.23,2.87c4.05,1.37,8.18-.82,12.3-.28,3.7.54,4.27,1.64,5.29,5a13.51,13.51,0,0,0,6.12,7.45,21.69,21.69,0,0,0,8.5,2.36,6.33,6.33,0,0,1,2.88.75,4,4,0,0,1,1.85,2.77c0,1.5-.56,2.92-.62,4.42-.37,4.22,1.81,7,5.33,9q-3,4.57-5.77,9.29a53.36,53.36,0,0,0-3.58,6.76c-.2,1.13.75,1.86,1.7,2.21a11.76,11.76,0,0,1,3.85,2.37c1.61,1.9,3.64,6.5.09,7.43a10.26,10.26,0,0,1-5.22.1c-1.64-.2-3.68-2-5-.38a89.81,89.81,0,0,0-7.79,16.28C218.89,164.87,218,169.27,216.48,173.48ZM188.65,110.3l.23,0c1.81.07,3.86-1.24,4.07-3.09.25.51.79,1,1.09,1.48.08.13.16.26.25.39a1.84,1.84,0,0,0,.4,1.3,19.36,19.36,0,0,1-2.14.45,6,6,0,0,1-3.9-.55Zm57.42,193.36c-6,1.71-12.16,3.25-18.24,4.87a104.74,104.74,0,0,1-11.32,2.59,2.09,2.09,0,0,0-1.49,1.4,5.9,5.9,0,0,0-.32,1c-.86,2.31-1.91,4.55-3,6.77a8.33,8.33,0,0,1-1.41,2.15,18.2,18.2,0,0,1,.32-5.2c0-.63.3-1.44.38-2.17v0a1.44,1.44,0,0,0-.94-1.73,1.37,1.37,0,0,0-1.68,1l-.18.44h0a41.29,41.29,0,0,1-3.38,6.37,4.64,4.64,0,0,1-1,1.05l-.09.07c-.46.32-1,.48-1.26.1a11.72,11.72,0,0,1-.74-3.58v0c-.06-.67-.09-1.34-.15-2-.13-1,.29-2.47-.77-3.11a1.38,1.38,0,0,0-1.12-.1,1.46,1.46,0,0,0-.35.18c-.56.42-.64,1.17-.89,1.78a34.25,34.25,0,0,1-1.7,3.93c-.26-1.73-.28-3.48-.38-5.22a1.4,1.4,0,0,0-.41-.87c.08-.41.17-.82.27-1.22l0-.15c.35-1.44.76-2.88,1.12-4.31.36-1.23,1-2.84.45-3.87a1.5,1.5,0,0,0-.23-.33l0,0c0-.22.1-.44.16-.66l.19-.1c3.38-1.69,6.62-3.69,10.09-5.25,4.55-2.11,9.1-4.19,13.62-6.37,3-1.33,5.94-2.66,9-3.89,2.85-1,5.75-1.93,8.54-3.13,2.27-.89,4.48-1.93,6.69-3,.4,1,.94,1.94,1.39,2.93,2.21,4.77,4.16,9.67,6.73,14.28.44.87.86,1.76,1.3,2.64Q250.66,302.32,246.07,303.66Zm23.58-7.43c-3.82,1.33-7.65,2.58-11.51,3.79-.79-1.63-1.49-3.3-2.33-4.91-1.85-3.63-3.74-7.25-5.75-10.8-.83-1.36-1.68-2.7-2.55-4,1.62-.75,3.25-1.49,4.92-2.16,3-1.12,6.05-2.33,9-3.66.47.94.93,1.88,1.34,2.84a40.26,40.26,0,0,0,3.75,7c1.67,3.86,4.1,7.32,6.21,10.95C271.71,295.56,270.68,295.91,269.65,296.23Z"/><path class="cls-1" d="M136.62,278.82c-.54-1.12.76-1.65,1.57-2,1.36-1.19,3.28-1.56,4.88-2.33,1.06-.44,3.35-1.8,3.49.24a1.1,1.1,0,0,1-.48,1.68,1.12,1.12,0,0,1-1.2.46c-1.21.48-2.44.91-3.64,1.42-.53.22-1.16.56-1.72.32C138.63,279,137.32,280.09,136.62,278.82Z"/><path class="cls-1" d="M109.16,345.16a1.21,1.21,0,0,1-.57-.33v0c-1.31-.46-.78-2,.5-2.07a14.84,14.84,0,0,0,4.78-1.65,21.19,21.19,0,0,1,2.63-1,1.25,1.25,0,0,1,1.53.13c.68.84,0,1.67-.91,1.87-1.41.49-2.71,1.23-4.08,1.79-.91.37-1.87.55-2.76,1A1,1,0,0,1,109.16,345.16Z"/><path class="cls-1" d="M148.81,327.77a1.21,1.21,0,0,1,.54-1.63c2.21-.92,4.52-1.58,6.73-2.48,8.16-3.2,16.67-5.42,25-7.89a1.34,1.34,0,0,1,1.1,2.19c-1.9,1.37-4.32,1.87-6.47,2.75s-4.61,1.85-7,2.65c-4.4,1.37-8.61,3.6-13.14,4.39a.94.94,0,0,1-.9-.85h0c-1.49.51-3,1-4.47,1.48A1.23,1.23,0,0,1,148.81,327.77Z"/><path class="cls-1" d="M147,330.21c-.61-1,.42-1.59,1.29-1.81,1.4-.5,2.83-.92,4.25-1.34a83.44,83.44,0,0,0,8.65-3.4,131,131,0,0,0,13.36-5.83c3.18-1.26,6.39-2.41,9.59-3.6,1.53-.65,3.09-1.2,4.65-1.77,1-.21,1.95-1.15,2.93-.61,1.63-1.36,3.44.84,1.7,2a17.29,17.29,0,0,1-4.12,1.95c-2,.68-4,1.46-6,2-1.82.51-3.59,1.16-5.4,1.68a4.39,4.39,0,0,1-1.74.31c-4,1.64-7.81,3.61-11.83,5.14-3.17,1-6.12,2.58-9.3,3.57-2.2.71-4.48,1.14-6.63,2A1,1,0,0,1,147,330.21Z"/><path d="M192.34,320.28a29.63,29.63,0,0,1,.66-9.68c.46-1.66.53-3.44,1.24-5l-.05.12,0,0a17.13,17.13,0,0,1,2.21-4.4,1,1,0,0,1,1.21-.55,1,1,0,0,1,.65,1.11,21.64,21.64,0,0,0-1.91,8.11,46.88,46.88,0,0,0-.64,9.82A1.7,1.7,0,0,1,192.34,320.28Z"/><path class="cls-3" d="M220.55,84.65c-.75-2.2-1.13-4.05-3.9-4.13-.46,0-1-.3-.9-.79a.63.63,0,0,1,1-.46c3.35.06,4.28,2,5.22,4.82A.77.77,0,0,1,220.55,84.65Z"/><path class="cls-3" d="M228.2,91c-3.85-2.13-3.19-5.54-4.27-9.08-.5-1.13-1.57-1.81-2.35-2.71-.37-.81.72-1.27,1.15-.51,3.51,2.58,2.53,5.3,4,8.73a5.57,5.57,0,0,0,2.31,2.2A.8.8,0,0,1,228.2,91Z"/><path class="cls-3" d="M236.79,91.54c-2.39-.29-5.36-2.19-5.8-4.68a.54.54,0,0,1,1.07,0v-.09a6.35,6.35,0,0,0,6.42,3.31.76.76,0,0,1,.89.54C239.5,92,237.62,91.6,236.79,91.54Z"/><path class="cls-3" d="M202.61,68.85c-2.54-.54,2-3.86,2.91-4.23a7.66,7.66,0,0,1,4-.87.66.66,0,0,1,0,1.32,8.22,8.22,0,0,0-6.33,3A.62.62,0,0,1,202.61,68.85Z"/><path class="cls-3" d="M207.1,68.71a.64.64,0,0,1,.27-.85c1.81-1.73,4.6-3.12,7.12-2.34a.68.68,0,0,1,.35.87c-.37.77-1.25.11-1.88.24a7.52,7.52,0,0,0-4.17,1.61C208.33,68.65,207.62,69.49,207.1,68.71Z"/><path class="cls-3" d="M217.93,70.57c-1.3-1.23-2.26-.95-3.77-.41a.53.53,0,0,1-.52-.54c.05-.6.84-.65,1.27-.87a3.38,3.38,0,0,1,2.88.25c.49.3,1.46.78,1,1.47A.61.61,0,0,1,217.93,70.57Z"/><path class="cls-3" d="M247.86,114.57a5.65,5.65,0,0,1-3.68-1.76c-.33-.33-.79-.61-.9-1.09a.6.6,0,0,1,1.18-.23.57.57,0,0,0-.12-.23,5,5,0,0,0,4.67,1.86.69.69,0,0,1,.5,1.28A3.69,3.69,0,0,1,247.86,114.57Z"/><path class="cls-3" d="M246.26,117.58c-2.89-.53-.78-2.71-.21-1.33a5.54,5.54,0,0,0,2.83,0,.69.69,0,0,1,.83.5C249.87,118.23,247.12,117.76,246.26,117.58Z"/><path class="cls-3" d="M247,121.74c-.87-.2-2.12-.74-2.18-1.76a.54.54,0,0,1,1.07,0,2.8,2.8,0,0,0,2,.56.67.67,0,0,1,.92.44C249,121.94,247.66,121.9,247,121.74Z"/><path class="cls-3" d="M214.06,399.3a.67.67,0,0,1-.23-.91c.34-.58.66-1.18,1-1.78a15,15,0,0,0,1.34-3.66,3,3,0,0,1,.37-1.21.6.6,0,0,1,1.14.34c0,.22-.17.29-.21.49a15.16,15.16,0,0,1-1.64,4.9C215.38,398.08,215.06,399.77,214.06,399.3Z"/><path class="cls-3" d="M204.13,403.12c-.92-.66.55-2,.93-2.65,2.86-3.6,6.17-3.76,7.2-8.86a.61.61,0,0,1,1.12.48c-.55,1.88-1.11,3.69-2.67,5-1.65,1.52-3.7,2.75-5,4.64C205.26,402.19,205.06,403.56,204.13,403.12Z"/><path class="cls-3" d="M206.55,410.74A.68.68,0,0,1,206,410a14.81,14.81,0,0,1,2.32-6.25c.41-.44,1-1.54,1.69-1a.56.56,0,0,1,0,.79,4.9,4.9,0,0,0-.82.94,13.17,13.17,0,0,0-1.56,4C207.31,409.21,207.66,410.79,206.55,410.74Z"/><path class="cls-3" d="M125.37,422.71c-.5-.07-.63-.58-.52-1,.13-2-.68-3.79-.9-5.71a24.43,24.43,0,0,1,0-3.73c.11-1.33.22-2.66.46-4a.61.61,0,0,1,1.22,0c-.06.57-.2,1.27-.22,1.8a29.1,29.1,0,0,0,0,6.53C125.58,417.68,127.15,422.79,125.37,422.71Z"/><path class="cls-3" d="M128.44,414.12c-.48-2.61-.05-5.27,0-7.9.18-1.93-.22-4,.61-5.85a.61.61,0,0,1,.83-.21c.56.36.15.83,0,1.29-.23,1.56-.1,3.1-.19,4.66-.06,2.07-.29,4.13-.2,6.2-.08.76.65,2-.29,2.29A.67.67,0,0,1,128.44,414.12Z"/><path class="cls-3" d="M134,405.69a.62.62,0,0,1-.6-.63,56.53,56.53,0,0,0,.31-6.08.5.5,0,0,1,.5-.49c.94.07.51,2.49.56,3.19-.05,1.13-.09,2.27-.14,3.4A.63.63,0,0,1,134,405.69Z"/><path class="cls-3" d="M194.85,322.63c-.57-.7-.14-1.76-.23-2.6a58.38,58.38,0,0,1,.83-6.86c.66-3.21.75-6.6,2.46-9.49.27-.38.52-.8.81-1.16a.9.9,0,0,1,1.6.18c.22.78-.31,1.49-.64,2.15a53.06,53.06,0,0,1-1.45,7.58c.38-.79.61-2.48,1.83-2.07a.89.89,0,0,1,.46,1.15c-.65,1.4-1,2.67-1.54,4.06-.79,1.9-1.3,3.86-2,5.77C196.64,322.28,195.92,323.54,194.85,322.63Z"/><path class="cls-3" d="M203.37,325.59c-2.2-.86-1.64-3.83-1.68-5.73.06-1.45.3-7.28,1.46-7.93.85-.35,1.76,1.29.62,1.47-.05.36-.09.71-.12,1.07.51-.89,1.24-1.9,2.35-2a1.52,1.52,0,0,1,1.69,1.94.83.83,0,0,1,.6,1.12c-.34.92-.69,1.89-1,2.79-.53,1.53-1.11,3.05-1.73,4.54C205,323.84,204.73,325.61,203.37,325.59Zm.41-4.32c0,.41-.05.83-.05,1.24a52.68,52.68,0,0,0,2.26-8.36C204.09,315.9,203.92,318.84,203.78,321.27Z"/><path class="cls-3" d="M210.35,325.64c-.87-.1-1.11-1.05-1-1.79a35.44,35.44,0,0,1,1.11-7l1-3.41c.31-.77.39-2.22,1.45-2.23.41-.06.87.11.88.59a.91.91,0,0,1,1.25,1c-.08.57-.2,1.13-.32,1.69a49,49,0,0,1-1.17,5.06c-.49,1.51-1,2.81-1.49,4.22C211.74,324.64,211.42,325.73,210.35,325.64Zm2.41-11c-.13.72-.26,1.43-.41,2.13v.09c.35-1.54.64-2.9.92-4.37h-.1C213,313.16,212.9,313.89,212.76,314.6Z"/><path class="cls-4" d="M277.18,89.19c.76-2.21.49-4.79-1.05-9.63-2-6.24-3.38-8.49-7.27-11.69a13.49,13.49,0,0,0-6.55-3.37c-3.16-.8-7.39-.75-8,.1a1.2,1.2,0,0,0,.27,1.69,5.55,5.55,0,0,0,2.78.44,20.1,20.1,0,0,1,6.37,1.09c.94.33,1.59.77,3.62,2.38a13.18,13.18,0,0,1,3.51,3.5A28.69,28.69,0,0,1,274,81.16c1.48,4.66,1.59,6.44.47,8.58-.45.85-.46,1-.08,1.37a.69.69,0,0,0,.81.21A5.57,5.57,0,0,0,277.18,89.19Z"/><path class="cls-4" d="M267.45,91.47a14.19,14.19,0,0,0-1.37-8.06,11.65,11.65,0,0,0-4.44-5.24c-2.07-1.56-2.49-1.79-3.67-2.12-1.78-.47-2.93-.31-3.42.48-.32.53-.32.68.08,1a5.18,5.18,0,0,0,2.06.79,9.4,9.4,0,0,1,2.65,1,14.44,14.44,0,0,1,5.46,7,24.14,24.14,0,0,1,.89,5.56c0,1.08.08,1.23.5,1.21S267.26,92.41,267.45,91.47Z"/></g></g></svg>