<svg xmlns="http://www.w3.org/2000/svg" viewBox="0 0 3623.88 2041.93"><defs><style>.cls-1{fill:#fff;}.cls-1,.cls-2{opacity:0.17;}</style></defs><title>Camino</title><g id="Capa_2" data-name="Capa 2"><g id="Capa_1-2" data-name="Capa 1"><path class="cls-1" d="M3431.72,292.25c-1.94-1,.23-2.65,1.35-3.22,1-.41,3-2.34,3.93-1.28,1.17,1.92-3.08,2.8-4.14,3.78a.84.84,0,0,1-1.23.68Z"/><path class="cls-2" d="M26.38,2040.8c-8.79.16-17.62.44-26.38,1.13.94-3.47,2-7,3.32-10.33,6.32-18.68,7.48-39.21,16.89-57.17a114.82,114.82,0,0,0,15.62,13.36c-.56,1.32-1.13,2.6-1.69,3.91C40,2008.16,31.45,2025.22,26.38,2040.8Z"/><path class="cls-2" d="M96.76,1894.89c-17.25,22.12-34,44.71-48.07,68.93-2.88-1.28-5.66-2.59-8.45-4-2.25-1.32-4.44-2.72-6.6-4.16a6.47,6.47,0,0,0-1.69-4.35c13.3-24.1,29.51-46.44,46.12-68.31C84.11,1887.22,90.47,1891.07,96.76,1894.89Z"/><path class="cls-2" d="M155.05,1829.92a422,422,0,0,0-32.13,33.52c-1.44-.25-2.85-.5-4.29-.72-7.07-1.25-14.08-2.6-21.09-4,12.73-15.21,25.72-30.45,39.83-44.4C143.38,1819.35,149.26,1824.6,155.05,1829.92Z"/><path class="cls-2" d="M232.75,1762.18c-18.43,15.36-36.42,31.26-54.51,47.06-1.66-1.16-3.35-2.29-5.1-3.32a142.62,142.62,0,0,0-17.71-9c20.43-18.55,41.4-36.61,62.3-54.63C222.83,1748.88,227.87,1755.48,232.75,1762.18Z"/><path class="cls-2" d="M312.77,1704.6c-17.31,10.64-34,22.28-50.32,34.32-5-4.09-10.48-7.76-15.71-11.35-2-1.41-4.1-2.82-6.16-4.23,17.49-14.14,35.89-27.32,54.57-39.8C301.22,1690.39,307,1697.49,312.77,1704.6Z"/><path class="cls-2" d="M404.17,1654.53c-21.4,10.7-42.4,22.22-63.3,33.86l-2.16-1.6c-7.29-5.69-14.46-11.55-21.91-17,24.1-14.52,48.7-28.32,73.6-41.43C394.85,1637.19,399.79,1645.74,404.17,1654.53Z"/><path class="cls-2" d="M505.28,1616.67c-25,7.1-49.88,14.64-73.66,25.28-1.88-2.72-3.76-5.41-5.67-8.11-4-5.72-8.29-11.26-12.64-16.74a612.76,612.76,0,0,1,79-31C496.48,1596.36,500.93,1606.5,505.28,1616.67Z"/><path class="cls-2" d="M598.4,1579c-20.15,4.6-39.92,11-59.73,17-2.35-3.54-4.73-7-7.08-10.58-4.13-6.2-8.19-12.43-12.42-18.56,23.44-6.79,46.6-14.52,70.22-20.59A265.53,265.53,0,0,0,598.4,1579Z"/><path class="cls-2" d="M720.7,1559c-33.24,4.38-66.6,8.29-99.48,14.8-2.19-3.6-4.35-7.2-6.36-10.89a167.21,167.21,0,0,1-9-20.53c35.64-8.19,72.1-11.76,108.24-17C715.88,1536.73,718.32,1547.87,720.7,1559Z"/><path class="cls-2" d="M837.29,1542.33c-25.79,4.16-51.69,7.7-77.54,11.39-1.88-3.76-3.69-7.54-5.51-11.33q-4.74-10.7-8.86-21.53,38.93-6,77.8-12.14C826.62,1520.43,832,1531.38,837.29,1542.33Z"/><path class="cls-2" d="M944.69,1521.05c-22.82,5.1-45.63,10.23-68.6,14.49-1.81-2.19-3.63-4.35-5.54-6.51-7.1-8-14.3-16-20.3-24.81q41.49-7.14,82.58-16.65C936.36,1498.86,940.56,1510,944.69,1521.05Z"/><path class="cls-2" d="M1093.42,1472.45c-35,18.15-72.82,29.54-110.78,39.43-.59-.78-1.22-1.56-1.84-2.38-7.76-9.16-15.87-18-22.75-27.88,40.74-10.07,81.64-21.18,119.63-39.3C1082.9,1452.4,1088.07,1462.47,1093.42,1472.45Z"/><path class="cls-2" d="M1183,1418a608.3,608.3,0,0,1-57.55,37.17c-2.35-1.6-4.76-3.16-7.1-4.76a149.64,149.64,0,0,1-20.19-18.21A519.7,519.7,0,0,0,1162.7,1393C1170,1400.86,1177.25,1408.87,1183,1418Z"/><path class="cls-2" d="M1287.68,1329.38c-25.94,25.95-53,50.89-82.7,72.54-1.22-.91-2.41-1.78-3.6-2.72-7.58-5.82-15.18-11.64-22.85-17.37q14.92-10.75,29.51-22c.19-.15.38-.28.57-.44,18.05-14.45,35.17-29.88,52.07-45.65A263.44,263.44,0,0,0,1287.68,1329.38Z"/><path class="cls-2" d="M1353.55,1254.63c-12.55,15.52-24.78,31.45-38.27,46.15,0,0,0-.06-.06-.06a74.87,74.87,0,0,0-20-21.09q8.13-8.55,16-17.37h0q13-15.26,25.63-30.82C1341.85,1239.51,1346.82,1248.06,1353.55,1254.63Z"/><path class="cls-2" d="M1418.89,1170c-11.48,16.84-24.06,33-36.74,48.88a130.89,130.89,0,0,0-12.8-7.16c-3.78-2-7.66-4.54-11.7-6.07,15.33-19.38,30.86-38.62,45.22-58.71C1409.78,1153.49,1414.32,1161.75,1418.89,1170Z"/><path class="cls-2" d="M1837.68,494.59c-20,20.81-38.83,42.71-57.54,64.68-2.26-3-4.48-6.07-6.64-9.17-1.94-2.91-3.78-5.88-5.6-8.85,17-20,34-39.93,52-59.08C1825.86,486.2,1831.83,490.3,1837.68,494.59Z"/><path class="cls-2" d="M3623.88,511.33c-6.54,5.73-12.51,12.17-18.86,18.12-5-5.42-10-11-14.56-16.74-3.94-5-7.73-10.14-11.39-15.34,5.82-10,12-19.93,18.22-29.72C3606.39,482.07,3616.09,496.12,3623.88,511.33Z"/><path class="cls-2" d="M3569,422.43c-6,11.08-14.18,20.87-21.15,31.35-1.88-2.37-3.79-4.72-5.76-7-8.45-9.57-17.31-18.71-25.91-28.16,5.6-13.24,11.86-26.19,18.59-38.9C3547,393.3,3558.92,407.16,3569,422.43Z"/><path class="cls-2" d="M3506,343.73c-7.52,10.67-15.21,21.21-22.79,31.82-.22.32-.43.63-.65.91-3.54-4.82-7.08-9.67-10.61-14.49-6.45-8.76-13.24-17.18-20.28-25.47,6.07-12.83,13-25.28,19.65-37.83C3483.57,313.12,3494.71,328.49,3506,343.73Z"/><path class="cls-2" d="M3440.48,266.4c-8.82,10.77-17.59,21.57-25.94,32.67-.91-.81-1.82-1.66-2.72-2.47-9.42-8.63-19-17.08-28.48-25.72A170.46,170.46,0,0,0,3403.18,233C3415.82,243.87,3428.37,254.89,3440.48,266.4Z"/><path class="cls-2" d="M3368.38,201.88c-7.23,11.45-14.45,22.84-21.21,34.51-6-5.75-11.9-11.54-17.87-17.27a497.58,497.58,0,0,0-48.1-40c5-12.89,9.3-26.13,13.93-39.18C3321.26,158.51,3345.07,179.94,3368.38,201.88Z"/><path class="cls-2" d="M3270.75,123.43c-7.42,11.23-14.33,22.75-22.19,33.67-12.86-8-26.06-15.36-39.36-22.66q-10-5.53-20.22-10.85a325.22,325.22,0,0,0,13.8-38.18C3226,97.05,3248.94,109.32,3270.75,123.43Z"/><path class="cls-2" d="M3170.08,69.45C3164.36,81.37,3158,93,3152,104.75q-13.89-6.81-27.88-13.36c-10.39-4.57-20.74-9.08-31.26-13.33,4.82-11.93,8.79-24.54,9.39-37.3C3125.3,49.14,3147.8,59,3170.08,69.45Z"/><path class="cls-2" d="M3053.89,26.05a325.44,325.44,0,0,0-9.41,36.55c-12.87-3.16-25.73-6.36-38.75-8.67q-16.65-3-33.35-5.63a115.15,115.15,0,0,0,5-35.93C3003,15.94,3028.77,19.6,3053.89,26.05Z"/><path class="cls-2" d="M2926.63,6.68c-1.82,11.58-3.29,23.22-4.54,34.89q-18-2.16-36.14-3.82c-4.41-.41-8.86-.78-13.27-1.16a336.36,336.36,0,0,0,1.25-34.2C2891.52,3.45,2909.07,5.05,2926.63,6.68Z"/><path class="cls-2" d="M2835.44.73a274.4,274.4,0,0,0-4.19,33.05q-14.6-.81-29.26-1.44c-10.95-.47-22-.6-32.95-.66A290.89,290.89,0,0,0,2768.26,0C2790.66,0,2813.07.11,2835.44.73Z"/><path class="cls-2" d="M2725.64,1.89c-.66,10.2-1.38,20.43-1.51,30.67-21.74,1.44-43.43,3.19-65,6.1-.13-1.1-.25-2.22-.35-3.38-.84-8.48-1.62-17-2.87-25.41C2679,6,2702.29,3.83,2725.64,1.89Z"/><path class="cls-2" d="M2620.37,44.79c-24.44,4.48-48.66,10-72.79,15.9-.65-2.5-1.31-5-2-7.51-1.59-6.14-3.25-12.27-4.94-18.43,25.69-7,51.63-13,77.7-18.43C2618.71,25.83,2619.09,35.37,2620.37,44.79Z"/><path class="cls-2" d="M2502.68,72.42q-38,10.52-75.42,23.07c-.78-2.48-1.56-4.95-2.37-7.42-1.79-5.45-3.6-10.95-5.67-16.34,25.76-9,51.7-17.52,78-25Q2499.71,59.63,2502.68,72.42Z"/><path class="cls-2" d="M2389.71,109.19c-19.87,7.48-39.49,15.71-59,24-.32.16-.66.29-.94.44a99.29,99.29,0,0,0-11.24-19.4c-.31-.44-.62-.84-.9-1.25,19.9-9.42,40.33-17.74,60.77-25.91C2383.17,94,2387.27,101.09,2389.71,109.19Z"/><path class="cls-2" d="M2281.72,156.19c-18.8,9.27-37.52,18.72-55.76,29-2.22-1.82-4.41-3.63-6.57-5.54-3.85-3.57-7.64-7.23-11.52-10.76,19-10.77,38.09-21.31,57.64-31A211.53,211.53,0,0,0,2281.72,156.19Z"/><path class="cls-2" d="M2192.7,204.16c-15.93,9.14-31.7,18.62-47.16,28.57-1.1-.87-2.19-1.75-3.26-2.62-3.5-3.16-6.82-6.45-10-9.89-1.13-1.29-2.25-2.54-3.38-3.82q26.32-17.13,53.48-33C2185.53,190.46,2189.29,197.22,2192.7,204.16Z"/><path class="cls-2" d="M2122,248.1q-29.85,19.53-58.27,41.12c-.4-.28-.81-.54-1.19-.82-5.79-4.25-11.23-8.92-16.61-13.67q33.51-25.64,68.65-48.91A129.73,129.73,0,0,1,2122,248.1Z"/><path class="cls-2" d="M2039.86,307.46c-14.89,11.86-29.66,23.81-44.24,36-5.95-4.38-11.68-9-17.43-13.65-.1-.12-.22-.21-.35-.34,16.4-14,33.14-27.54,50.13-40.84C2032,294.88,2036.3,301,2039.86,307.46Z"/><path class="cls-2" d="M1973,362.82c-18.21,15.89-36,32.32-53.51,48.87v0c-.22-.16-.47-.35-.69-.54a1.38,1.38,0,0,1-.25-.15c-.22-.16-.44-.35-.65-.5l-.79-.57c-5.13-3.85-10.1-7.91-15-12,19-18.15,38.46-35.77,58.14-53.17C1964.42,350.8,1968.74,356.78,1973,362.82Z"/><path class="cls-2" d="M1893.48,437q-14.6,14.59-28.92,29.54c-1.94-.91-3.88-1.78-5.82-2.69-5.1-2.29-10.13-4.6-15.36-6.6,12.7-13.15,25.35-26.38,38.27-39.31C1885.84,424.12,1889.88,430.41,1893.48,437Z"/></g></g></svg>