<svg xmlns="http://www.w3.org/2000/svg" viewBox="0 0 880 888.09"><defs><style>.cls-1{fill:#d94a3d;}.cls-2{fill:#c9d9e1;}.cls-3{fill:#fff;}.cls-4{fill:#f7941d;}</style></defs><title>Imagen 2</title><g id="Capa_2" data-name="Capa 2"><g id="Capa_1-2" data-name="Capa 1"><path class="cls-1" d="M219.68,579.89a1.82,1.82,0,0,1-2.27,2.44c-4.63-2.1-8.43-5.92-11.28-10.05-.63-.9-1.19-1.87-1.73-2.83a1,1,0,0,1-.18-1c1-1.74,2.34.25,3,1.2a30.59,30.59,0,0,0,5.86,6.06,28.08,28.08,0,0,0,5.17,3.07A2.28,2.28,0,0,1,219.68,579.89Z"/><path class="cls-1" d="M266.3,555.54a2.31,2.31,0,0,1-.09,4.6c-1.48,0-3,0-4.13-.06-7.32-.67-14.3,2.4-21.57,2.14A16.18,16.18,0,0,1,227.28,553a47.53,47.53,0,0,1-4.73-17.23,17.64,17.64,0,0,1,.41-6.07.88.88,0,0,1,1.63.52.28.28,0,0,0,0-.09.09.09,0,0,0,0,0c-.24,7.84,2.67,17.3,7.54,23.45,6.53,6.77,15.48,2.59,23.4,1.86A74.69,74.69,0,0,1,266.3,555.54Z"/><path class="cls-1" d="M381.12,500.11c.85,1.41-.74,2.44-1.82,3-1.72,1-3.44,1.93-5.15,2.91-4.42,2.56-8.83,5.14-13.32,7.58-2.24,1.07-4.48,2.51-7,2.86a.89.89,0,0,1-.7-1.3c.69-.9,2.17-1.19,3.05-1.78,5.06-2.71,9.84-5.9,14.69-9,2.07-1.32,4.13-2.68,6.24-3.95C378.28,499.83,380.13,498.65,381.12,500.11Z"/><path class="cls-1" d="M395.2,545a2.31,2.31,0,1,1-2.44,3.92c-2.27-1.64-4.69-3-7.06-4.5-1.4-1.11-3.95-1.91-4.05-3.94a1.14,1.14,0,0,1,2.23-.17C387.38,542.46,391.49,543.3,395.2,545Z"/><path class="cls-1" d="M414.69,516.26a2.56,2.56,0,0,1-2.42,2.65c-1.31,0-2.61-.08-3.91,0-9.32,1.88-18.16,6.58-27.88,6.26-4.39-.06-8.68-1.16-13-2.11-1.44-.41-3.11-.68-4.25-1.71a1,1,0,0,1,.6-1.55c7.9,1,16.12,2.32,23.94.18,5.78-1.41,11.15-4,16.82-5.75C407.2,513.55,414.46,512.41,414.69,516.26Z"/><path class="cls-2" d="M196.34,324.7c1.16,2.18-1,4.18-3.34,5.89a13,13,0,0,1-.37-3.39c-.53.46-1.11,1.11-1.85,1a.8.8,0,0,1-.63-.93,2.66,2.66,0,0,1,.81-1.13c.91-1,1.81-2,2.71-3H194A2.9,2.9,0,0,1,196.34,324.7Z"/><path class="cls-2" d="M220.27,378.61a3.27,3.27,0,0,1,4,4.46,3.47,3.47,0,0,1-.35,1.12,4.17,4.17,0,0,1-.82-.18,4.43,4.43,0,0,1-1.85-1.61c-.84-1.09-1.62-2.23-2.37-3.39A4.25,4.25,0,0,1,220.27,378.61Z"/><path class="cls-2" d="M311.6,346.82a1.75,1.75,0,0,1-2.4,2.55A37,37,0,0,1,302,339.21c-.43-.92-3.84-8.66-1.12-7.62h0c1.74,3.65,3.4,7.52,6.16,10.54C308.51,343.9,310,345.22,311.6,346.82Z"/><path class="cls-2" d="M384.58,349.83c.5,1.75-1.19,2.47-2.58,2.68a36.8,36.8,0,0,1-13.6.36,19.06,19.06,0,0,1-12.73-6.31c-.5-.63-1.28-1.32-1.27-2.18a.54.54,0,0,1,1.06,0c6.74,7.33,18,7.39,26.8,4.27A1.88,1.88,0,0,1,384.58,349.83Z"/><path class="cls-2" d="M488.66,384.74l.09.11c-1.35,1.4-2.7,2.81-4.09,4.18l-1,1a3.75,3.75,0,0,1-.92-1.13,3.64,3.64,0,0,1,5.93-4.13Z"/><path d="M134.07,436.92c-12.54-1.64-21-9.72-24.27-21.82-1.12-5.89-.82-12-1.11-17.92-.6-9.59,1.07-19.1,2-28.57,2.72-21.73,8.55-42.92,13.34-64.25,2.29-9.91,5.92-19.44,9-29.12,1.94-6.66,3.64-13.39,5.53-20.05,2.16-7.27,1.91-14.79.82-22.15-.3-4-.51-14.63,4.07-15.83,3.2-.34,6.2,2.13,8,4.55-.72-16.51,15.24-7.28,18,2.46.21-3.66.19-8.2,3.2-10.77,3.31-2.22,7.5,0,9.87,2.61,6.32,6.11,5.94,15.43,6.28,23.56.15,8.27,0,16.57-.61,24.82-.83,10.23-3.25,20.38-4.59,30.51-.51,6.49-2.2,13.16-3.11,19.52s-1.55,12.67-2.87,18.91c2.82-2.32,5.71-4.54,8.72-6.6,2.37-1.4,4.66-3.58,7.55-3.63a2.87,2.87,0,0,1,2.39,1.55c1.89,3.53-5,6.6-7.14,8.73-3.62,2.89-7,6.07-10.5,9.1-1.93,2.28-6.7,3.15-7.53-.52v0a4.45,4.45,0,0,1,.49-3.06,87.9,87.9,0,0,1,2.1-9.66c1.35-6.32,2-12.73,2.73-19.13,1.28-6.41,1.87-12.91,2.53-19.41,1.29-9.29,2.67-17.88,3-27.13.27-8.19.4-17.1.33-25.15-.15-6.52.12-13.79-4.44-19-6.93-8.53-4.35,10.47-4.87,13.68-.32,2.77-.36,5.68-1.28,8.33a2.52,2.52,0,0,1-4.3.35c-.88-1.66-.66-3.65-.93-5.47-.33-4.44-.8-9-3.1-13-.8-1.45-5.82-6.94-7.23-5.52,0-.09.09-.15.13-.24-.74,1.28-.66,2.83-.72,4.27.08,3.44.41,6.9.83,10.32,0,3,2.79,10.07-1.13,11.18-2.44.55-3.24-2.15-3.57-4-1.61-5.74-1.64-13.63-7.26-17-2.18,7.44,1.37,14.86,1.56,22.33.4,7.57-2,14.57-3.86,21.68-1.92,8.14-4.5,16.09-7.12,24-4.76,14.33-7.71,29.2-11.31,43.85-3,12.34-6.15,24.73-7.67,37.33-.7,6.16-1.68,11.76-2,17.76-.21,4.08,0,8.79,0,12.69.14,4.28,0,8.66,1,12.85,2.58,8.16,8.09,14.79,16.76,16.49,9.26,2.46,17.74-1.28,25.68-5.75,7.37-3.58,14-8.42,20.46-13.37,13-9.56,26.38-18.67,38-29.86,1-1.75,2-3.49,4.21-3.76a3.27,3.27,0,0,1,4,4.46,4.77,4.77,0,0,1-1.36,2.54c-14.32,13.21-31,23.54-46.72,35-6.55,4.86-13.78,8.65-21.08,12.25A35.09,35.09,0,0,1,134.07,436.92Z"/><path d="M323.93,160.34a3.2,3.2,0,0,1-1,4,9.68,9.68,0,0,1-3.76,1.33c-3.2.84-6.77,1.54-9.83-.13-7.9-4.7-6.4-16.41,2.2-19.38-.6-2.47-3.22-7.45-1.6-9.61a1.76,1.76,0,0,1,2.51-.12c2.39,3.3,3.5,7.46,5.75,10.86a2.93,2.93,0,0,1-2.68,3.89,7.29,7.29,0,0,0-4.83,2c-2,1.95-1.68,5.82.81,7.23,2.31,1.1,4.91-.18,7.06-1.12C320.34,158.37,322.89,158.27,323.93,160.34Z"/><path d="M302.64,144.73a2.57,2.57,0,0,1-3.88,2.68,8.93,8.93,0,0,1-2.35-2.89c-1.25-1.79-6-8.62-8.34-7.08-3.11,2.65-4.74,6.75-5.25,10.74-.47,1.9.61,8.7-2.25,8.35-2-.69-1.8-3.38-2.31-5.06-1.91-6.93,3.9-22.76,12.95-19.29,3.66,1.56,6.26,4.8,8.59,7.92C300.77,141.61,302.14,143,302.64,144.73Z"/><path d="M368.19,130.32c1.46,1.81,1.87,4.71-.52,5.94-3.9,1.64-4.75-2.47-6.22-5-2-3.15-4.3-6.39-7.61-8.32-1.21-.79-2.61-.43-3.91-.08a3.47,3.47,0,0,0-2.62,2.21,56.26,56.26,0,0,0-4.72,11.68c.7.55.18,1.39-.5,1.64a1.17,1.17,0,0,1-1.6.72c-2.64-1.38.57-11.13,1.37-13.57,1.78-5.53,3.92-7.8,9.91-8.21,5,0,9,3.7,12.07,7.19A40.36,40.36,0,0,1,368.19,130.32Z"/><path d="M289.47,168.2a1.62,1.62,0,0,1-2.87,1.49c-.54-1.12-3.11-7.79-.25-7.07a.84.84,0,0,1,1,.74.85.85,0,0,1-.21.63C287.85,165.44,288.76,166.77,289.47,168.2Z"/><path d="M296.39,166.68a1.71,1.71,0,0,1-3,1.58c-.76-1.75-1.06-3.61-1.78-5.36-1-1,.6-2.3,1.55-1.47A33.48,33.48,0,0,1,296.39,166.68Z"/><path d="M351.75,152.79A1.34,1.34,0,0,1,349.4,154c-.68-1.06-2.06-5.73-.39-6.21a.68.68,0,0,1,.66.46C350.44,149.73,351.1,151.27,351.75,152.79Z"/><path d="M360.79,150a2,2,0,0,1-2.66,2.4c-1.74-.82-1.7-5.43-.81-6.87.71-.79,1.65,0,1.87.8C359.7,147.52,360.37,148.7,360.79,150Z"/><path d="M325.64,110.59c-2.05-.2-4.6,0-5.92-1.89a3,3,0,0,1,1.38-4.51c.38-1.78,2-2.68,3.54-3.43a59.92,59.92,0,0,1,8-3.62A55.89,55.89,0,0,1,357,94.06a105.08,105.08,0,0,1,10.9,1.39c1.8.35,4.44.68,4.82,2.88s-1.58,3.17-3.26,3.74c-1.82.75-3.69,1.4-5.55,2A96.64,96.64,0,0,1,325.64,110.59Z"/><path d="M431.92,109.91c6.34,1.12,10.35,6.94,10.24,13.88-.88,6.91-9,12.52-15,14.94-2.12.91-4.3,1.65-6.47,2.43,3.69,17.3,5.14,35.05,5.64,52.69.54,11,1.32,22.08,2.22,33.09.14,1.73.22,3.47.44,5.19a4.45,4.45,0,0,1,.15,2.81,3,3,0,0,1-.2.49,3.82,3.82,0,0,1-6.23.9,3.49,3.49,0,0,1-.77-1.29,4.94,4.94,0,0,1-.11-2.36c-.06-2-.3-4.05-.46-6.07-.52-6.79-1.16-13.59-1.76-20.38-1-9.35-1.49-18.73-2-28.12-.87-11.74-1.29-23.52-1.43-35.29a4,4,0,0,1-1.1,0c-4-.37-4.11-5.73-.38-6.73a40.35,40.35,0,0,0,7.46-2.42c3.36-1.28,6.92-2.3,9.73-4.64,4.15-3.66,6-5.6,3.73-11.21a6.13,6.13,0,0,0-5.51-2.87,44.14,44.14,0,0,0-14.55,3.3c-2.66,1.24-5.15,2.78-7.69,4.22a3.17,3.17,0,0,1-4.65-.5c-3.17-5.52-2.85-12.22-3.93-18.34-.88-5.78-1.83-11.54-2.76-17.31-.26-2-.81-4.09-.33-6.07a1.32,1.32,0,0,1,.66-.78c-.19-1.09-.39-2.18-.57-3.26-3.5,4.77-8.21,9.56-14.25,10.67C373.6,88.33,365,75.33,359.67,69.7c-1.91,5.7-6.3,10.24-11.06,13.73-8.69,6.65-19.08,2.75-26.34-4-3.47,8.86-12.55,15.26-22,16.06-7.8.47-14.87-4.08-20.14-9.43,1.2,9.3-6,17.17-13,22.21a9.64,9.64,0,0,1-7.73,2.14c1.37,3,2.77,5.91,4,9a68.61,68.61,0,0,1,25.13-5.16c2.52.24,7-.78,7.69,2.52,2.25,1.21,2.36,3.91-.26,4.76-3.14,1.21-6.3,2.38-9.44,3.59a62.06,62.06,0,0,1-19.73,4.42l-.26.05c1.45,4.22,2.88,8.44,4.1,12.75,2.42,8,5.62,15.79,8.53,23.65,1.69,4.78,2.89,9.73,4.81,14.43A73.35,73.35,0,0,0,298,178.46a132.45,132.45,0,0,0,18.15-4c5.61-1.36,11.07-3.21,16.58-4.93,6.31-1.89,12.71-3.48,19-5.38,3.56-1,7.06-2.25,10.56-3.43a2.82,2.82,0,0,1,4.16,2.14l.16.63a56.28,56.28,0,0,1,2.4,11.77,6.73,6.73,0,0,1-.47,2.91c-1.82,3.81-5.06,6.87-8.46,9.3-6.21,4.21-13.25,6.83-20.35,9.1a199.61,199.61,0,0,1-28,6.33,43.06,43.06,0,0,0,3.62,7.64c.73,1,1.34,2.36,2.54,2.89,8,2.21,16.46-.56,24.32-2.12a2.7,2.7,0,0,1,3.5-.53c1.25.72,1.7,2.34,2,3.67a119.38,119.38,0,0,1,1.59,14,44.66,44.66,0,0,0,.8,6.72,23.65,23.65,0,0,1,.3,3.46,3.53,3.53,0,0,1-6.75.54,21.86,21.86,0,0,1-.34-4,15.84,15.84,0,0,0-.3-2.73c-.74-5.39-.44-10.86-1-16.26-8.12,2-24.77,6.67-30.39-1.51a44.68,44.68,0,0,1-5.65-10.44c-.55-1.73-2.05-3.36-1.09-5.23a3.73,3.73,0,0,1,3.45-1.95c1.83-.32,3.65-.72,5.47-1.08,14.68-3.37,29.69-6.85,42.88-14.38a27.16,27.16,0,0,0,6.84-6.07,46.62,46.62,0,0,0-1.63-8.9c-9.53,3.2-19.85,5.15-29.42,7.94a315.51,315.51,0,0,1-39.73,9.46,76.26,76.26,0,0,1-8.4.8,4.26,4.26,0,0,1-4.77-2.34c-2.71-5.47-3.83-11.57-6.11-17.23A227.47,227.47,0,0,1,264,134.93c-.42-1.63-.87-3.27-1.29-4.9a29.25,29.25,0,0,1-6,0c-3.21-.19-5.47-3.48-2.89-6.05a24.06,24.06,0,0,1,3.92-2.17c-.59-1.39-.55-3.18-1-4.58-.74-3-1.49-6.09-2.34-9.12a.19.19,0,0,0,0-.07,24.44,24.44,0,0,1-4.67-4.79,12.69,12.69,0,0,1-12.11,8.67c-7.25-.37-10.91-7.77-14-13.37-5.84-10.27-5.53-31.43,7.68-35.72-2.9-7.78.24-15.5,4.75-21.94,4-6,9.62-12.75,17.5-12.64,3.16.23,5.52,2.62,7.73,4.65,4.21-10.86,14-18.49,24.29-23.27,10.38-5,18.06-.29,22.8,9.43C318.31,7.92,335.81-2.29,351.17.45c11,2.41,14.93,17.42,15.71,27.19a126.87,126.87,0,0,1,17.76-4.39c5.08-.69,10.22-1.89,15.36-1.22,9.08,1.53,13.84,11.64,13.42,20.12,7.45-2,11.79,1.9,14,8.78a50.12,50.12,0,0,1,3,16.72c0,2.2-.1,4.39-.11,6.58a10,10,0,0,1,6.91,7.61C438.81,90.43,437.3,102.67,431.92,109.91Z"/><path d="M540.21,429.83a55.43,55.43,0,0,1-13.34-3.72c-4.24-2-8.08-4.75-12.08-7.19-10.44-6.5-19-15.52-27.18-24.58-1.08-1.24-2.07-2.55-3.12-3.82a3.64,3.64,0,1,1,4.17-5.77,3.61,3.61,0,0,1,.94,2.13c.76,1.15,1.5,2.21,2.28,3.17,7.75,9.55,16.67,18.29,27.19,24.74,3.68,2.27,7.41,4.91,11.43,6.46,7.78,2.72,16.18,4.17,24.37,2.72,8-1.35,16.07-3.18,22.94-7.67,7.18-4.52,14.31-9.55,18.56-17.1,10.67-17,16.25-40.18,13.13-60.11-1.8-11.47-4.48-22.77-6.71-34.15-1-5.88-2.21-11.74-3.47-17.57-1.33-6-2.48-12.07-3.49-18.14-2.05-11.91-4.92-23.66-7.51-35.46-2.33-11.65-5.74-23-7.83-34.74-1.52-8-3.55-15.45-1-23.08,1.53-5.09,3.74-9.93,5.57-14.9,1.24-4,3.72-8.2,2.85-12.5h0C582,150,575.56,159,572.59,164.07c-1.64,2.52-1.26,6.53-3.81,8.35a2.39,2.39,0,0,1-3.22-1c-.72-1.64.08-3.43.58-5,.6-1.77,1.32-3.51,2.08-5.22,1.69-4.49,7.14-11.05,5.51-15.82-7,4.72-11.73,12-15.13,19.63-1.13,2.33-1.38,4.92-2.21,7.34-.5,1.51-2.49,2.42-3.76,1.23h0c-1.4-1.28-.82-3.44-.42-5.06a89.87,89.87,0,0,1,3.51-11.36c1.29-3.65,4.29-7.69,3.51-11.66-5.16,2.55-8.27,7.58-11,12.44-3.38,5.41-4.45,11.69-5.79,17.82-4.58,18.42-1.6,37.49.87,56,.7,9.19,1.95,18.32,3,27.49,1.09,12.05,2,24.13,2.45,36.23.48,12.26,0,24.41.21,36.66.13,9.12,1.95,18.22,1.19,27.35-.51,3.7-4.85,3.67-6.6.77-2.35-3.72-4.46-7.62-6.5-11.52-1.85-3.78-3.47-7.68-5.47-11.38-.55-1.21-1.5-2.38-1.52-3.75a1.86,1.86,0,0,1,2-1.8c4.25,1,10.43,13.47,13.14,17.44-.51-8.11-1.37-16.21-1.45-24.35-.36-11.3-.17-22.62-1.1-33.91-1.22-21.36-3.44-42.64-5.75-63.91-1.63-11.88-3.08-23.89-2.33-35.9.35-9,2.67-17.81,4.44-26.64a36.26,36.26,0,0,1,3.51-8.53c2.07-3.88,4.28-7.76,7.44-10.86,2.76-2.51,6.46-5.36,10.4-4.3,3.46,1.17,4,5.35,3.27,8.48,2-2.24,8.22-9,11.36-7.65,3,1.77,3.1,5.8,2.58,8.85,3.55-4.8,13.08-11.3,15.26-1.92.72,4.4-.75,8.8-1.75,13-.73,2.8-1.56,5.56-2.48,8.3-1.06,3.22-2.48,6.36-3,9.72-.4,6,.8,12,2.06,17.8,1.45,8.8,3.78,17.39,6,26,4.24,17.65,8.35,35.35,11.3,53.26,2.26,11.7,4.51,23.41,6.91,35.08,3,14.61,6.81,29.48,5.65,44.5-1.94,19.76-10,44.58-25.51,57.74a102,102,0,0,1-15.63,10c-5.44,2.7-11.42,4.14-17.37,5.27C552.75,430.56,546.4,431.23,540.21,429.83Z"/><path d="M483,838.25c-.07-1.08-.17-2.24-.32-3.13-1.12-6.47-2-13.15-2.92-19.6-2.29-17.13-5.25-33.3-6.81-50.34-.37-3.66-.79-7.26-1.24-10.83a3.68,3.68,0,0,1-1-.51c-7.64,1.83-15.34,3.31-22.71,6.07-8.29,3.38-17,5.67-25.37,8.72-6.14,2.08-12.18,4.82-18.52,6.2q.67,3.54,1.39,7.1c2.79,16.64,6.2,33.16,9.32,49.74,1.85,9.93,3.62,19.86,5.71,29.73,4.6-2.22,9.61-3.74,14.34-5.73,5.94-2.58,11.9-4.35,18-6.5,7-3.11,15-5.16,22-8.15C477.31,840,480.32,839.11,483,838.25Zm40.82-3.44a9.8,9.8,0,0,1,4.37,8.5c-.54,7.85-14.08,13.16-20.59,15.43-4.67,1.44-9.14,3.42-13.81,4.85a103.81,103.81,0,0,0-15.41,5.74c-12.17,4.85-24.55,9.1-37.07,12.93-4.9,1.4-9.66,3.26-14.58,4.64-2.13,1.85-5.43,1.59-6.7-1.11a3.72,3.72,0,0,1-.2-2.7c-1-4.39-2.2-8.73-3.34-13.08-2.6-10.94-4.67-22-7.12-33-3.31-16.32-7.17-32.52-10.42-48.86-3.65-16.57-7.15-33.17-9.55-50-2.34-14.4-3.8-28.91-6.11-43.32-.88-8-1.91-16-3.25-24-.17-1.19-.35-2.34-.5-3.5-.09-.65-.17-1.3-.24-2-.08-1.61-.58-3.35.11-4.87a2.4,2.4,0,0,1,3.42-1,3.91,3.91,0,0,1,1.5,2.14,44,44,0,0,1,1.22,4.71c.12.54.24,1.08.37,1.61,3.46,14.34,5.85,28.91,8.45,43.42,2.62,19.71,5.35,39.41,8.94,59,5.77-1.72,11.4-3.84,17-6,6.28-2.38,12.76-4.18,19.13-6.3a155.22,155.22,0,0,1,30.15-8.4,3.13,3.13,0,0,1,1.29-1.54c-1.5-11.08-3.19-21.93-4.45-33.14-1.45-15.66-2.74-31.37-3.25-47.1-.14-4.47-.26-8.95-.31-13.42,0-1.07,0-2.18,0-3.3a12.29,12.29,0,0,1,1-5.57,1.53,1.53,0,0,1,2.5,0c.83,1.07.84,2.51,1.09,3.8l.12,1c.47,3.51.89,7,1.36,10.54,4.86,36.47,9.15,73,12.44,109.69.73,10.3,2.37,20.51,3.58,30.77,1.22,10.67,2.2,21.38,4,32a13.62,13.62,0,0,0,.42,2.46,46.47,46.47,0,0,1,7.12-2.09C505.29,831.74,515.43,830.33,523.79,834.81Z"/><path d="M106,596.06q-10.55-6.13-20.84-12.71c-4-2.72-7.86-5.65-11.72-8.58-3.46-2.44-7-4.74-10.55-7l0,.07c-1.83,2.65-3.76,5.21-5.73,7.74-5.08,7.2-11.16,13.59-16.88,20.27-3.5,3.79-6.9,7.68-10.63,11.23a5.07,5.07,0,0,0,.67.5c12.87,9.92,23.23,22.83,36,32.91,2,1.66,4,3.35,6,5,.48-.92,1.13-1.79,1.54-2.67,2.89-5.25,6.08-9.94,9.42-14.83C90.38,617.11,98.82,607,106,596.06Zm119.29,33.48a2.81,2.81,0,0,1,4.21,3c-.21.48-.43,1-.67,1.41-1.78,3.4-4.33,6.36-6.32,9.66a220.93,220.93,0,0,1-15,20.95c-7.59,8.57-15.19,17.84-25.6,23.07-3.85,2-7.68,4.13-11.89,5.28a72.65,72.65,0,0,1-19.88,1.86,49.76,49.76,0,0,1-13.31-3.36c-12.6-4.4-24-11.48-35-19.08a257.66,257.66,0,0,1-34.33-25.62c-10.6-8-20.2-17.22-29.47-26.74q-4.64-4.59-9.44-9c-.51-.51-1.07-1-1.61-1.49C20.77,615,13.63,623.18,5,622.82-7,620,5.9,603.93,9.13,598.06c8.42-12.65,18-24.52,27.32-36.49A59.69,59.69,0,0,1,45,553.29a3.33,3.33,0,0,1,1.93-1c1.83,0,3.2,1.38,4.54,2.57,3.19,1.41,6,3.65,9,5.4,4,2.46,8.19,4.74,12.15,7.33,6.16,4,11.78,8.83,18,12.71,18.14,11.11,36.06,22.3,54.74,32.41,2.35-2.4,4.84-4.67,7-7.27,2.37-2.94,4.43-6.1,6.78-9.06,2.36-3.2,5-5.49,7.29-8.61a3.17,3.17,0,0,1,1.12-.58,3,3,0,0,1,2.57,5.15c-.28.29-.55.59-.81.89-6,6.74-10.54,14.23-17.42,20.07-1.33,1.12-2.69,2.2-4,3.38a2.32,2.32,0,0,1-3.57.11c-11.63-5.84-23.15-12-34.46-18.41a10.12,10.12,0,0,0-1.5,2c-7.39,11.16-15.86,21.53-23.6,32.44Q80.3,638.76,76.23,645c-.43.5-1,1.58-1.73,2.47,4.83,4.14,9.68,8.24,14.87,11.93,3.66,2.63,7.42,5.15,11.24,7.55,6.83,4.56,13.51,9.34,20.76,13.25a100,100,0,0,0,20.71,9,41.67,41.67,0,0,0,16.47,1.47c4.41-.3,8.9-.63,13-2.34a85.29,85.29,0,0,0,13.56-7.4c6.23-4.71,10.88-10.64,15.7-16.6,7.55-9.44,14.13-19.62,20.73-29.73.87-1.1,1.51-2.4,2.32-3.54A7.8,7.8,0,0,1,225.26,629.54Z"/><path class="cls-3" d="M493.33,850.38c-3.28-.81-4.48-4.73-6.95-6.71a1.45,1.45,0,1,1,2.31-1.62c1.1,2.35,2.55,5,4.73,6.47.44-2.33.58-5.23-.76-7.26a1,1,0,0,1-.15-.69c.34-1.27,1.74-.79,2,.26,1.51,2.42,3,5.37,5.4,7a14.91,14.91,0,0,0,.89-7.2c0-1.19-1.81-3.22.11-3.68,1.22-.05,1.35,1.43,1.56,2.32,1,1.87,2.22,4,4.3,4.76a14.73,14.73,0,0,0-1.86-8.32.79.79,0,0,1,.05-1.12c1.59-1.12,2.56,1.56,3.07,2.66.8,2.19,2.22,6.9.38,8.75-2.18,1.17-4.45-1.14-5.72-2.73-.86,7.73-3.1,8-7.4,1.74C495.25,846.79,496,850.35,493.33,850.38Z"/><path class="cls-3" d="M353.87,516.49a.89.89,0,0,1-.7-1.3c.69-.9,2.17-1.19,3.05-1.78,5.06-2.71,9.84-5.9,14.69-9,2.08-1.32,4.13-2.68,6.24-3.95,1.13-.67,3-1.85,4-.39s-.74,2.45-1.82,3c-1.72,1-3.44,1.93-5.15,2.91-4.42,2.56-8.83,5.14-13.32,7.58C358.59,514.7,356.35,516.14,353.87,516.49Z"/><path class="cls-3" d="M380.48,525.18c-4.39-.06-8.68-1.16-13-2.1-1.44-.42-3.11-.69-4.25-1.72a1,1,0,0,1,.6-1.55c7.9,1,16.12,2.32,23.94.18,5.78-1.41,11.15-4,16.83-5.75,2.55-.69,9.81-1.83,10,2a2.56,2.56,0,0,1-2.42,2.65c-1.31,0-2.61-.08-3.91,0C399,520.79,390.2,525.5,380.48,525.18Z"/><path class="cls-3" d="M392.76,548.9c-2.27-1.63-4.69-3-7.06-4.49-1.4-1.11-3.95-1.91-4.05-3.94a1.14,1.14,0,0,1,2.23-.17c3.5,2.16,7.61,3,11.32,4.69A2.31,2.31,0,1,1,392.76,548.9Z"/><path class="cls-3" d="M217.41,582.33c-4.63-2.1-8.43-5.92-11.28-10.05a32.39,32.39,0,0,1-1.73-2.83,1,1,0,0,1-.18-1c1-1.74,2.34.25,3,1.2a30.87,30.87,0,0,0,5.86,6.06,28.65,28.65,0,0,0,5.17,3.07,2.31,2.31,0,0,1,1.43,1.12A1.82,1.82,0,0,1,217.41,582.33Z"/><path class="cls-3" d="M240.51,562.22A16.19,16.19,0,0,1,227.28,553a47.63,47.63,0,0,1-4.73-17.24,17.63,17.63,0,0,1,.41-6.07.88.88,0,0,1,1.64.52s0-.06,0-.09a.09.09,0,0,0,0,0c-.24,7.84,2.67,17.3,7.55,23.45,6.52,6.77,15.47,2.58,23.39,1.86a73.28,73.28,0,0,1,10.79.16,2.3,2.3,0,0,1-.09,4.59c-1.48,0-3,0-4.13-.07C254.76,559.41,247.78,562.48,240.51,562.22Z"/><path class="cls-3" d="M309.2,349.37A37.21,37.21,0,0,1,302,339.21c-.43-.92-3.84-8.66-1.12-7.62h0c1.74,3.65,3.4,7.52,6.17,10.54,1.5,1.78,3,3.1,4.59,4.7A1.75,1.75,0,0,1,309.2,349.37Z"/><path class="cls-3" d="M368.4,352.87a19,19,0,0,1-12.72-6.31c-.51-.63-1.29-1.32-1.28-2.18a.54.54,0,0,1,1.06,0c6.74,7.33,18,7.38,26.8,4.27a1.87,1.87,0,0,1,2.32,1.22c.5,1.75-1.19,2.47-2.57,2.68A36.65,36.65,0,0,1,368.4,352.87Z"/><path class="cls-3" d="M252.51,67.4c-.89-.94-.94-2.33-1.15-3.54a15.52,15.52,0,0,1,2.84-11.37.7.7,0,0,1,.86-.35c1.14.64-.3,1.91-.51,2.74-1.58,3.28-2,7.47,0,10.62A1.39,1.39,0,1,1,252.51,67.4Z"/><path class="cls-3" d="M263.27,66c-.78-3.76-2.35-9.33-.07-12.73.77-.92,2.58-1.46,3.07,0A1.32,1.32,0,0,1,265.12,55c-.88,3.1.43,6.57,2,9.23A2.15,2.15,0,1,1,263.27,66Z"/><path class="cls-3" d="M324.35,49.33a10.43,10.43,0,0,1-7.1-9.29,2.22,2.22,0,0,1,.52-1.9.85.85,0,0,1,1.27.24c.19.27.07.56.12.85a8.55,8.55,0,0,0,6,7.18A1.53,1.53,0,0,1,324.35,49.33Z"/><path class="cls-3" d="M338.15,44.83c-2.79-1-9.27-5.14-7.37-8.66.71-.79,2.27.23,1.29,1,.89,2,3.11,3.09,5.11,3.7,1,.32,2.32.08,3.07,1A1.88,1.88,0,0,1,338.15,44.83Z"/><path class="cls-3" d="M393.58,55.4c-1.82-1.14,2.09-3.59,2.9-4.31,1.25-.78,4.69-3.84,5.71-1.66a1.14,1.14,0,0,1-.75,1.42,20.66,20.66,0,0,0-6.83,3.93C394.4,55.17,394.08,55.6,393.58,55.4Z"/><path class="cls-3" d="M401.07,60.71a1,1,0,0,1,0-2c1.82-.73,3.6-1.59,5.35-2.48.57-.32,1.14-.66,1.69-1a1.93,1.93,0,1,1,1.36,3.54C406.6,59,403.93,60.45,401.07,60.71Z"/><path d="M217.41,582.33a1.82,1.82,0,0,0,2.27-2.44,2.28,2.28,0,0,0-1.43-1.12,28.08,28.08,0,0,1-5.17-3.07,30.59,30.59,0,0,1-5.86-6.06c-.66-.95-2-2.94-3-1.2a1,1,0,0,0,.18,1c.54,1,1.1,1.93,1.73,2.83C209,576.41,212.78,580.23,217.41,582.33Zm48.8-22.19a2.31,2.31,0,0,0,.09-4.6,74.69,74.69,0,0,0-10.79-.15c-7.92.73-16.87,4.91-23.4-1.86-4.87-6.15-7.78-15.61-7.54-23.45a.09.09,0,0,1,0,0,.28.28,0,0,1,0,.09.88.88,0,0,0-1.63-.52,17.64,17.64,0,0,0-.41,6.07A47.53,47.53,0,0,0,227.28,553a16.18,16.18,0,0,0,13.23,9.22c7.27.26,14.25-2.81,21.57-2.14C263.25,560.1,264.73,560.16,266.21,560.14Zm113.09-57c1.08-.59,2.67-1.62,1.82-3s-2.84-.28-4,.39c-2.11,1.27-4.17,2.63-6.24,3.95-4.85,3.06-9.63,6.25-14.69,9-.88.59-2.36.88-3.05,1.78a.89.89,0,0,0,.7,1.3c2.48-.35,4.72-1.79,7-2.86,4.49-2.44,8.9-5,13.32-7.58C375.86,505.07,377.58,504.11,379.3,503.14Zm13.46,45.77A2.31,2.31,0,1,0,395.2,545c-3.71-1.69-7.82-2.53-11.32-4.69a1.14,1.14,0,0,0-2.23.17c.1,2,2.65,2.83,4.05,3.94C388.07,545.88,390.49,547.27,392.76,548.91Zm19.51-30a2.56,2.56,0,0,0,2.42-2.65c-.23-3.85-7.49-2.71-10.05-2-5.67,1.71-11,4.34-16.82,5.75-7.82,2.14-16,.79-23.94-.18a1,1,0,0,0-.6,1.55c1.14,1,2.81,1.3,4.25,1.71,4.27.95,8.56,2,13,2.11,9.72.32,18.56-4.38,27.88-6.26C409.66,518.83,411,518.9,412.27,518.91Zm67.47,111.86c0,5,.07,10-.17,14.92-.32,2.19-2.38,3.38-4.49,3.39-2.52.42-5,.92-7.54,1.38l-.12-1c-.25-1.29-.26-2.73-1.09-3.8a1.53,1.53,0,0,0-2.5,0,12.29,12.29,0,0,0-1,5.57c-15,2.81-30,5.33-45,8.52-6.4,1.42-12.8,2.84-19.24,4.12-4.36.75-8.74,1.72-13.13,2.52a44,44,0,0,0-1.22-4.71,3.91,3.91,0,0,0-1.5-2.14,2.4,2.4,0,0,0-3.42,1c-.69,1.52-.19,3.26-.11,4.87.07.67.15,1.32.24,2a61.7,61.7,0,0,1-7.68.55,3.39,3.39,0,0,1-2.92-3.15c-.72-3-1.43-6-2.11-9-2.88-12.65-4.39-25.56-7.27-38.21-2-12.75-4.84-25.37-6.9-38.11-1.48-10-3.49-19.84-5.31-29.75a240.38,240.38,0,0,0-3.77-26.17c-5,5.66-9.78,11.5-14.82,17.12-5.69,6.28-12.06,12.06-18,18-9.91,10.83-20,21.52-29.08,33.08-8.27,9.6-16,19.75-23.9,29.63-4.08,5.32-7,11.36-10.72,16.9-2.72,4.39-3.54,3.21-7.64,1.22-3.56-1.82-7.08-3.73-10.56-5.69.24-.46.46-.93.67-1.41a2.81,2.81,0,0,0-4.21-3,7.8,7.8,0,0,0-1.38,1.54q-4.78-2.82-9.49-5.79c-8-5.42-15.8-11.14-23.91-16.4q-10.69-7.67-21.12-15.69c.26-.3.53-.6.81-.89a3,3,0,0,0-2.57-5.15c2-3.76,4-7.49,6.06-11.22,6-11.48,12.33-22.82,19.2-33.82,4.91-8,10.1-15.83,14.23-24.26,7.06-14.95,14.42-29.76,21.21-44.83,4.24-8.87,8.94-17.51,13-26.44,6.08-11.88,11.55-24.08,17.9-35.82a10.56,10.56,0,0,0,1.87.12c5.21.05,10.39.58,15.59.91,5.89.73,11.36,1.24,17.43,1.63,8.73,1.17,17.49,2.13,26.24,3.2,21.35,1.16,42.43,3.35,63.81,4.87,21.1,2.2,42.32,2.58,63.47,4.08a40.72,40.72,0,0,0,9.93-.22c-.11,3-.15,6.1-.13,9.14-.22,8.26.69,16.46,1.55,24.66,1.73,13.5,3.5,27,6.13,40.4,1.83,10.31,2.75,20.55,5,30.69,2.57,11.49,3.65,23.24,5.69,34.76C479,586.61,478.93,609.1,479.74,630.77Z"/><path class="cls-4" d="M261.38,406.92c.47-.82.94-1.65,1.42-2.47a7.59,7.59,0,0,1-1-.36c-.24,1-.48,1.89-.73,2.84Zm47.82-57.55a1.75,1.75,0,0,0,2.4-2.55c-1.61-1.6-3.09-2.92-4.6-4.7-2.76-3-4.42-6.89-6.16-10.54h0c-2.72-1,.69,6.7,1.12,7.62A37,37,0,0,0,309.2,349.37Zm72.8,3.14c1.39-.21,3.08-.93,2.58-2.68a1.88,1.88,0,0,0-2.32-1.22c-8.81,3.12-20.06,3.06-26.8-4.27a.54.54,0,0,0-1.06,0c0,.86.77,1.55,1.27,2.18a19.06,19.06,0,0,0,12.73,6.31A36.8,36.8,0,0,0,382,352.51ZM538.71,336a7.42,7.42,0,0,1,.45,3.4c-2.42-3.73-5-7.1-7.15-7.62a1.86,1.86,0,0,0-2,1.8c0,1.37,1,2.54,1.52,3.74,1.16,2.15,2.19,4.36,3.21,6.57-2.79,2.7-5.57,5.41-8.45,8-4.15,3.52-8.56,6.73-12.55,10.44-2.57,2.32-5,4.84-7.58,7.14-3.59,3.19-7.57,5.91-11.13,9.14-2.23,2-4.29,4.08-6.33,6.21l-.09-.11a3.64,3.64,0,0,0-5.93,4.13,3.75,3.75,0,0,0,.92,1.13c-1.75,1.66-4,3.5-6.17,1.83a4.54,4.54,0,0,1-1.28-2.35c-1-2.16-2-4.29-3.18-6.35a156.74,156.74,0,0,0-10.13-14.37c-.22,1.52-.44,3-.65,4.56.09,2.53.24,5.05.37,7.58,0,12.42-.15,24.83-.61,37.25-.17,2,.35,4.23-1,5.91a3.49,3.49,0,0,1-3,1.22l-.42.08a40.72,40.72,0,0,1-9.93.22c-21.15-1.5-42.37-1.88-63.47-4.08-21.38-1.52-42.46-3.71-63.81-4.87-8.75-1.07-17.51-2-26.24-3.2-6.07-.39-11.54-.9-17.43-1.63-5.2-.33-10.38-.86-15.59-.91a10.56,10.56,0,0,1-1.87-.12,2.39,2.39,0,0,1-1.06-.46,2,2,0,0,1-.15-2.89c.95-3.56,1.92-7.11,2.84-10.67.32-2,.64-3.94,1.07-5.89,2.61-12.15,5.1-24.32,9-36.14-7.33,5.36-14.81,10.46-22.38,15.46-6.08,4.16-12,8.66-18.57,12-1.87.83-3.94,2.25-6.05,2a3.47,3.47,0,0,0,.35-1.12,3.27,3.27,0,0,0-4-4.46,4.25,4.25,0,0,0-1.36.4c-.53-.81-1-1.63-1.53-2.46-2.69-4.55-5.79-8.83-8.58-13.31-3.56-6.08-6.81-12.35-10.25-18.5-1.3-2.7-4.47-9.18-5.55-14.15h0c2.34-1.71,4.5-3.71,3.34-5.89a2.9,2.9,0,0,0-2.39-1.55h-.28c2.32-2.6,4.65-5.2,7.11-7.66,8.65-8.3,17-16.94,25.69-25.17,3.6-4,7.21-7.92,10.94-11.77,5.44-6.09,11.39-11.69,17.39-17.21,7.71-7.09,15.66-14.56,25.6-18.31,9.7-4.38,20.43-5.25,30.9-6.24a271.67,271.67,0,0,1,32-1.71,21.86,21.86,0,0,0,.34,4,3.53,3.53,0,0,0,6.75-.54,23.65,23.65,0,0,0-.3-3.46c14.56.12,29.13.68,43.67.29,9.44,0,18.82-.22,28.19-.37a3.49,3.49,0,0,0,.77,1.29,3.82,3.82,0,0,0,6.23-.9,3,3,0,0,0,.2-.49c3.54,0,7.08-.05,10.62,0,4,0,8,.28,12,.45a2.36,2.36,0,0,1,1.94,3.38,63.79,63.79,0,0,1,8.23,2.8c11.88,6.06,21.94,15,31.2,24.53,11.68,12.21,22.94,25,31.35,39.6,3.76,6.17,6.77,12.74,10,19.21A48.21,48.21,0,0,1,538.71,336Z"/><path d="M712.72,125a2.74,2.74,0,0,1-2.37,0,235.72,235.72,0,0,1-26.59-6.6A133.3,133.3,0,0,1,662,111.05c-5.41,11.25-12.58,21.58-18,32.85-1.89,3.81-3.31,7.83-5.06,11.71-.63,1.88-3,4.07-4.75,2.14a6.32,6.32,0,0,1-1.06-3.62c-.23-4.59-.09-9.19-.13-13.78.37-13.18,1.09-26.4,3.49-39.39-12.88,1.66-25.41,4.57-38.36,5.63-2.67,0-12,2.91-10.58-2.25,2.18-2.74,5.52-4.43,8.18-6.69C605.91,89.29,617.4,82.81,628,75.08c-.22-8.08-.74-16.14-1.42-24.19-1-.94-1-2.53-1.12-3.82-.3-3.38-.2-6.68-.26-10.08a47.27,47.27,0,0,1,0-6.41,2.6,2.6,0,0,1,4.32-1.28A103.16,103.16,0,0,1,636.49,39a51.86,51.86,0,0,0,9.84,12.25c5.45,5.63,9,12.35,15.55,16.69a270.79,270.79,0,0,1,31.18-15,46.64,46.64,0,0,1,6.37-2.32,3.65,3.65,0,0,1,2.93.21c1.65,1.08,1.16,3.15.15,4.5-1.46,2.55-3,5-4.5,7.56-4.82,9.14-10.6,17.68-16.13,26.38,5.44,3.49,9.78,8.39,14.46,12.8a112.48,112.48,0,0,1,14,15.5C711.72,119.68,716.16,122.78,712.72,125Z"/></g></g></svg>