<svg xmlns="http://www.w3.org/2000/svg" viewBox="0 0 725.8 339.6"><defs><style>.cls-1{font-size:237.7px;font-family:Reenie Beanie, cursive;}</style></defs><g id="Capa_2" data-name="Capa 2"><g id="Capa_1-2" data-name="Capa 1"><text class="cls-1" transform="translate(265.37 200.8) rotate(-0.19) scale(0.97 1)"></text><path d="M690.06,101.71c-115.31-84.15-392.76-67.19-535.33-14C32.62,124.21-55,215.61,40.6,284.62c10,7.09,22.57,13.41,36.85,19,1,.4,2,.79,3.06,1.17,62.88,23.77,157.6,34,224.9,34.8,47.16.2,95.81-2.95,138.15-15.2,74.7-12.26,156.37-35.62,212.63-66.21C720.41,216.43,757.25,148.84,690.06,101.71Zm32.83,68.05A53.59,53.59,0,0,1,720.13,181a113.49,113.49,0,0,1-7.5,15.33.35.35,0,0,0,0,.08,212.6,212.6,0,0,1-21.76,29.31l-.09.09A186.18,186.18,0,0,1,675.64,241l.07,0c-10.18,9-22.8,16.92-36.84,24l.07,0c-11.28,5.64-23.51,10.61-36,15.37-15.62,6-32,11.3-49,16-29.18,7.69-57,17.23-87.46,23.2l.08,0c-7.62,1.42-15.35,2.62-23.28,3.3-2.15-1.14-5.09.26-7.37.66-2.91.63-18.16.32-12.6,2.92l-7.21,1.53.16,0q-12.72,2.5-25.83,4.17l.23,0-.35,0c-32.75,4-66.45,4.13-99.81,3.71l-9.94-.23h-.06c-68.16-3.76-137.6-14.62-197.33-33.67h0l-1-.41L79,300.24q-6.8-2.76-13.14-5.87a1,1,0,0,0,.21.1,154.53,154.53,0,0,1-13.74-7.71l0,0C27.2,270,10,248.93,6.46,227c-.46-5.27-1-10.54-.35-15.81.56-6,2.78-11.93,4.85-17.83a.42.42,0,0,1,0,.15c9.85-23.73,30-46.05,59.26-64.06q11.8-7.17,24.71-13.72c13.59-6.65,28.13-12.66,43-18.37l5.79-2.19c17.78-6.57,36.13-12.67,54.84-18.34,57.48-16.93,120.94-27,185.71-29.23h-.12c50.84-1.87,102.38-2.24,152.28,4.31l-.25,0c54.56,6.63,107.51,20.91,143.55,45.48l-.07,0c28,18.08,43.73,41.6,43.73,65.5a54,54,0,0,1-.44,6.83A.38.38,0,0,1,722.89,169.76Z"/></g></g></svg>