<svg xmlns="http://www.w3.org/2000/svg" viewBox="0 0 1578.77 918.31"><defs><style>.cls-1{fill:#fff;}.cls-2{fill:#f7941d;}</style></defs><title>imagen 4</title><g id="Capa_2" data-name="Capa 2"><g id="Capa_1-2" data-name="Capa 1"><path d="M686.75,917.47a1.69,1.69,0,0,1-.11-1.1,2,2,0,0,1,.65-1,4.29,4.29,0,0,1,2.24-1.22c4.56-.88,9.2-3.55,13.77-4.06,21.49-5,42.82-2.64,64.25-7.2,8.82-2.06,17.53-2.34,26.25-2.77,17.93-1.93,35.69-1.89,53.54-2.8a289.61,289.61,0,0,1,34.13-1.38c6.09-.15,12.2-.55,18.24-.28,22.07,1.24,44.23,1.6,66.32,2.58,26.56-.34,52.53,2.59,78.84,3.31,32.05-1,63.92,0,96-1.66,76.65-3.39,153.43-8.22,230.16-12.58,25.78-.51,51.44.36,77.26-.6,14-.15,28.12-2.59,42.08-2.64,15.77-.23,31.53-.33,47.22.26a156.5,156.5,0,0,0,19.12-.15c1.33-.12,2.25,2.12,2,4.82s-1.49,5-2.82,5.14a115,115,0,0,1-12.58.2c-13.55-.6-27.16-.59-40.78-.46-23-.44-46.35,2.31-69.43,2.35-27.9.19-55.65-1.37-83.69.34-13.55.46-27.15,1.55-40.72,2.21-9.25.2-18.51.55-27.79,1.14-46.69,2.8-93.5,7.17-140.12,9-22.21,1.48-44.28,1.31-66.41,1.88-13-.28-26,.92-39,.22-19.21-1.14-38.39-2.62-57.62-3.53-15.91.27-31.67-1.07-47.5-1.56-18-.27-35.91-1.48-54-.71a194.19,194.19,0,0,0-26.14.93c-13.22,1.08-26.31.54-39.52,1.41-9.09.72-18.2,1.7-27.27,2.16-8.77.4-17.52,2.82-26.27,4.08-10.77,1.39-21.51,2-32.21,2.48-10.49.75-21,1.59-31.42,1.91a46.1,46.1,0,0,1-5.11.14A1.85,1.85,0,0,1,686.75,917.47Z"/><path class="cls-1" d="M1054.85,529.39l.05.16q-7.38.42-14.76.82c-12,.65-24,1.32-36,1.94l-35.6,1.84L932.38,536l-17.84.94-8.93.49-4.33.26c-.73,0-1.45.07-2.18.15l-.37,0a2.71,2.71,0,0,0-.39-1.35c-.14-.4-.27-.8-.41-1.19s-.32-.81-.48-1.22c-.72-2.13-1.44-4.27-2.17-6.4-2.68-7.92-5.27-15.87-7.87-23.81s-5.31-16.15-7.94-24.23c-1.34-4.11-2.72-8.21-4.1-12.3s-2.61-8-3.92-11.94c-1.24-3.78-2.54-7.53-3.76-11.32q-1.92-5.93-4-11.8t-4-11.83c-.65-2-1.31-3.95-2-5.93-.16-.47-.32-.94-.49-1.41L859,413q11.63-1.12,23.27-2.2,11.87-1.12,23.74-2.26c7.88-.76,15.77-1.47,23.65-2.2,7.64-.7,15.28-1.35,22.91-2.05s15-1.42,22.58-2.09c3.82-.34,7.64-.71,11.46-1.05q2.75-.27,5.5-.51c1.79-.17,3.59-.3,5.39-.46l5.32-.48c.82-.08,1.64-.14,2.46-.2s1.66-.19,2.49-.28l1.7-.17c.18.62.43,1.22.64,1.82.56,1.52,1.12,3,1.62,4.56s1,3.15,1.53,4.71c1.29,4,2.82,8.18,4.25,12.43,1.17,3.49,2.45,6.93,3.7,10.4s2.48,7.06,3.73,10.59c2.57,7.25,5.09,14.52,7.63,21.78,1.23,3.55,2.51,7.08,3.75,10.62s2.56,7.4,3.84,11.09c2.5,7.19,5,14.36,7.5,21.56,1.18,3.48,2.37,6.94,3.56,10.41S1053.7,525.92,1054.85,529.39Z"/><path class="cls-1" d="M1058.41,533.89c.66,3.43,1,6.86,1.39,10.31l-11.33.62c-11.14.59-22.28,1.28-33.41,1.88s-22.3,1.15-33.44,1.77-22.31,1.21-33.47,1.8l-16.76.86-8.59.46-5.07.32a2.06,2.06,0,0,0-1.84-.68,4.6,4.6,0,0,0-.78.23c-.25-1.54-.56-3.06-.9-4.6s-.26-3.46-.62-5.14l2.06-.11,17.85-1q18.09-1,36.17-2l35.53-2q18-1,36-1.91Z"/><path class="cls-1" d="M1180.77,527.87a7.67,7.67,0,0,1,.9,6c-.22,1-.68,2.35-.92,3.65l-.15,0-.27.05-.5,0c-.31,0-.61,0-.92.07s-.44,0-.67.06c-.72,0-1.44,0-2.17.06-1.19,0-2.39.07-3.59.11s-2.15.15-3.23.21q-4.18.25-8.37.46c-4.94.2-10.21.55-15.48.8s-10.7.63-16.06.89-10.69.6-16,.9l-16.2.91c-5.44.3-10.88.65-16.32.93-5.26.26-10.51.56-15.77.86-.4-3.43-.8-6.87-1.42-10.28l13.74-.75c11.68-.65,23.36-1.21,35-1.84,11.36-.61,22.71-1.22,34.07-1.77,5.68-.28,11.37-.55,17-.93,2.86-.19,5.72-.32,8.58-.48,2.36-.13,4.73-.29,7.1-.43h0a2.32,2.32,0,0,0,1,.08A1.72,1.72,0,0,0,1180.77,527.87Z"/><path d="M1183.93,825.78c7.28,6.86-.66,19.63-10,16.72-1.79-.67-3.83-1.49-4.91-3.14a2.53,2.53,0,0,1-.6-1.23,2.79,2.79,0,0,1,2.52-3.26,9.33,9.33,0,0,0,4.81-.9,21,21,0,0,1,2.51-3.27,15.48,15.48,0,0,1,1.18-1.11l.16-.12a7.2,7.2,0,0,0-2.22-1.26,2.78,2.78,0,0,0-.5-.11c-1.53,0-3.42-.17-3.95-1.87a1.47,1.47,0,0,1-.06-.27,5.76,5.76,0,0,0,1.71,0,5.34,5.34,0,0,0,1.11-.29l0,0a2.3,2.3,0,0,0,.58.22c1.49.37,2.82-.87,3.55-2.15l.32-.45A16.61,16.61,0,0,1,1183.93,825.78Z"/><path d="M1185.19,824.85c3.38,5,4.59,12.58.53,17.53a17.1,17.1,0,0,1-11.75,4.88c-3.61-.23-8.29-2.23-9.19-6a3.07,3.07,0,0,1,3.6-3.09,2.52,2.52,0,0,1,1.4.75c2.8,3.93,7.67,2.23,11,0,1.9-1.49,1.89-4.36,1.41-6.53-1.94,1.36-3.19.06-4-1.68a15.84,15.84,0,0,1-.88-2.49c-.07-.27-.13-.51-.19-.73a2.69,2.69,0,0,1-1.4-1.49c0-.1-.07-.2-.1-.3l0,0a2.3,2.3,0,0,0,.58.22c1.49.37,2.82-.87,3.55-2.15l.32-.45c.23-.32.46-.65.67-1A7.84,7.84,0,0,1,1185.19,824.85Z"/><path d="M1342,820.45c4.87,10.12-8.5,23.87-18.76,20.07-10.67-3.6-17.86-12.38-11.15-23.25a16,16,0,0,1,4.19-4.67,10.37,10.37,0,0,1,2.73-1.4,12.2,12.2,0,0,1,7.36-1.92q.35,0,.69.06a22.16,22.16,0,0,1,10.63,4.77A19,19,0,0,1,1342,820.45Z"/><path class="cls-2" d="M1357.23,340.19c7.48,8.24,6.73,13,5.9,23.31-1.12,14.42-3.63,28.7-5.3,43.07-2.87,24.53-6.6,49.07-6.52,73.84.09,13.36.14,26.74-.15,40.1-.36,9.21-.71,18.41-.39,27.62.38,9.74,2,19.39,2.28,29.14a104.71,104.71,0,0,1-1.83,19.84c-1.76,7.92-4.44,16.12-9.91,22.27a39,39,0,0,1-7.71,5.88c-4.22,2.74-8.43,5.55-13.23,7.14-8.19,2.73-16,6.39-24.47,8.39-9,2.45-18.46,3.21-27.71,4.45-6,.39-12,1.13-18,1.92a156.49,156.49,0,0,1,1.1,28.63c-.16,1.31.15,3.22.06,4.86.61,0,1.21,0,1.83.07,1.76,0,3.94.76,3.91,2.85,1.41,1,1.38,2.92,1.77,4.43.21.94.41,1.89.65,2.82.94,4.19,3.9,14.09-1.37,16.2l-3.57.57c1,8.06,2.55,16,2.83,24.15a112.57,112.57,0,0,0,.66,13c.61,4.43.53,8.92,1.11,13.35a96,96,0,0,1,1,13.23c.63,5.85,1,11.7,1.34,17.57.08,1,.39,2.1.45,3.15a74.24,74.24,0,0,1,7.75-.15c5.6-.33,11.17-.85,16.78-.36a97.81,97.81,0,0,1,13.15,0,51.91,51.91,0,0,1,12,.41c8.61,1,16,8.37,15.37,17.26a.49.49,0,0,1,0,.12q-.35,0-.69-.06a12.2,12.2,0,0,0-7.36,1.92,10.37,10.37,0,0,0-2.73,1.4c-1.3-.62-2.58-1.28-3.88-1.88-2.91-.93-6-1.13-9-1.64-4.15-.72-8.31-.28-12.48-.2-2.45,0-4.89-.29-7.35-.33-4.19.2-8.35,1-12.57.82-5.74-.06-11.39,1.28-17.15,1a69,69,0,0,0-8.82.95c-3.47.44-7,.28-10.45.62a104.3,104.3,0,0,1-16.23,2,112,112,0,0,1-13.67,1.46c-2.32.33-4.61.83-7,1-5,1.22-10.65.26-15.06,3.28l-1.14,1a5.1,5.1,0,0,1-.73,1.67c-.21.34-.44.67-.67,1l-.32.45c-.73,1.28-2.06,2.52-3.55,2.15a2.3,2.3,0,0,1-.58-.22l0,0a5.34,5.34,0,0,1-1.11.29,5.76,5.76,0,0,1-1.71,0,7.09,7.09,0,0,1-.91-.22c-6.43-2.26-5.07-12.7-1.37-16.91a2.58,2.58,0,0,1,1.24-2.74c2.35-4.77,9-5.32,14.41-6,4.55-.63,9-2.08,13.56-2.35,5.21-.12,10.27-1.25,15.43-1.81,3-.25,6-.15,9-.51l.33-.06c-1-1.29-.85-3.62-.79-5.28.16-6.59.83-13.72.76-20.22,0-7,.17-13.88.28-20.82s-.62-13.82-.36-20.74c.12-6.22-.78-12.54-.23-18.72a4.43,4.43,0,0,1-3.28-2.27c-1.72-3.69-1.27-8.61-1.93-12.35-.06-3.71-3.59-11.94,2.42-12.25,1,0,2-.09,3-.21a1.49,1.49,0,0,1,.24-.14v-.18c-.19-2.74-.08-5.5-.27-8.24a119.71,119.71,0,0,1-.65-12.12c0-3.86-.44-7.76.13-11.6a3.11,3.11,0,0,1,0-.32l-1.37,0c-9.76.37-19.53.7-29.3.74-6.47.08-12.94,1.26-19.4.39a16.7,16.7,0,0,1-8.19-3.2c-2.12-1.57-6.33-3.66-4.44-6.79a2.82,2.82,0,0,1,3.59-.91c2.34,1.34,4.35,3.23,6.82,4.34,6,1.93,12.49.65,18.68.4,12.78-.27,25.57-.39,38.34-1.18,10.56-.64,21-2.6,31.51-3.66,5.63-.42,11.24-1,16.82-1.89a115.12,115.12,0,0,0,31.57-7.54c5.35-2.29,11.16-3.51,16.23-6.44,4.56-3.08,9.82-5.41,13.51-9.6,5-6.75,7.31-15.15,8.41-23.39,1.85-12.09.33-24.29-1-36.36-1.34-14.56.13-29.73.16-44.21.15-16-.26-32,.41-48,.88-16.89,3.48-33.63,5.31-50.43,1.78-15.23,4.27-30.38,5.77-45.64.25-4.75,1-9.54.63-14.29a20,20,0,0,0-7.59-10.56c-2.26-1.22-4.86-1.56-7.35-2-9.07-1.26-18.18.55-27.24.8-1.79,0-2.59-2.36-1.62-3.7s2.77-1.42,4.29-1.57c2.24-.2,4.46-.62,6.7-.87C1335.12,333.43,1350,331.88,1357.23,340.19Z"/><path d="M1189.91,253.86c-4.43-.78-9.79-3.08-10.5-8.07-.87-8,7.14-10.76,13.6-8.19,1.42.62,3.33,1,4,2.51,1.62,1.56,4,2.89,3.79,5.48C1201.12,251.78,1195.6,255.16,1189.91,253.86Zm2.5-3.52c3.25.09,4.73-1.86,4.45-5-.9-.67-1.69-1.48-2.61-2.12a3.61,3.61,0,0,1-1.54-1.18c-2.51-.91-5.63-1.69-8.07-.21a3.83,3.83,0,0,0-.83,4.57C1185.7,249,1189.34,250,1192.41,250.34Z"/><path d="M1205.57,239.7c-2.44-.51-4.36-2.16-6.55-3.24a137.47,137.47,0,0,0-14.68-3.93,2.36,2.36,0,0,1-2.92-3.18c-1.3-2.37,1.39-4,3.5-4,6.9-.22,13.72,2.39,19.76,5.54,2.34,1.42,5,3.46,5,6.45C1209.77,239.64,1207.5,240.46,1205.57,239.7Z"/><path d="M1163.05,279c-2.22-1.08-3.11-3.64-3.15-6-.08-1.23,0-3,1.49-3.27,2.75-.33,2,3.06,2.49,4.75,1.08,3.16,3.35-.74,4.17-2a1.73,1.73,0,0,1,2-.66c3.19,1.62-1.06,6-3,7.07A4.25,4.25,0,0,1,1163.05,279Z"/><path d="M1180.32,266.2c-.63-1.48-.39-3.14-.51-4.71a2.07,2.07,0,0,1,.3-1.91,1.6,1.6,0,0,1,2.06-.26,2.3,2.3,0,0,1,.9,1.64,21.83,21.83,0,0,1,.18,4.64A1.56,1.56,0,0,1,1180.32,266.2Z"/><path d="M1187.09,266.76c-.44-1.88-.79-6.23,2.28-5.44a1.31,1.31,0,0,1,.76,1.87c0,1.12.09,2.24.06,3.35A1.57,1.57,0,0,1,1187.09,266.76Z"/><path d="M1194.51,268.39a15.71,15.71,0,0,1-.27-3.81c-.09-1.39,1.38-2.61,2.58-1.58a3.45,3.45,0,0,1,.73,2.46c.07.82.21,1.65.24,2.47A1.66,1.66,0,0,1,1194.51,268.39Z"/><path d="M1149.32,254.87a5.36,5.36,0,0,1-.15-2.22,3.94,3.94,0,0,1,.63-2.36,1.49,1.49,0,0,1,2.33.15,7.44,7.44,0,0,1,.33,4.43A1.68,1.68,0,0,1,1149.32,254.87Z"/><path d="M1154.34,255.56c-.67-2-.09-6.78,2.8-6,1.5.77.3,2.33.28,3.52s.52,3.17-1.18,3.54A1.68,1.68,0,0,1,1154.34,255.56Z"/><path d="M1187.56,247.57c-6.28-.53-6.76-8.32-.17-8.4,2.71.07,5.42,2.46,4.9,5.32A3.65,3.65,0,0,1,1187.56,247.57Z"/><path d="M1249,484.58a4.3,4.3,0,0,1-.72,0c-9.73.85-19.28-2.28-28.13-6-2.78-1.18-5.37-2.76-8.16-3.91a44.15,44.15,0,0,0-10.37-2.53c-2.33,0-4.79-.2-7,.67a24.07,24.07,0,0,0-9.48,8.18,77.18,77.18,0,0,0-5.21,7.28c-1.25,2.27-3.44,4.42-3.5,7.1,3.12-1,5.27-3.62,7.2-6.14a72.44,72.44,0,0,1,8.05-8.9,2,2,0,0,1,2.66,2.81h0a57.5,57.5,0,0,0-8.12,10.59,33.37,33.37,0,0,0-3.72,7.1c-.41,1-1,2.15-.11,3.11,2.55-1.49,4.41-3.84,6.3-6.06,2.47-2.88,4.94-5.1,7.15-8.07.36-.52.49-1.15.81-1.69a2.6,2.6,0,0,1,3.28-1,2.65,2.65,0,0,1,.71,4.22c-.39.42-.83.77-1.25,1.16l-.13.12c-1.25,1.36-2.45,2.77-3.68,4.14-2.74,2.95-5.28,6.1-8.18,8.89a11.09,11.09,0,0,1-1.19,1.06,8.06,8.06,0,0,1-1.26.83,4.57,4.57,0,0,1-3.74.42,6.53,6.53,0,0,1-3.56-4.07,4.51,4.51,0,0,1-.12-1.9,23.35,23.35,0,0,1,1-3.24c-5.2,2.08-7.16-1.5-6-6.26.79-3,2.87-5.42,4.43-8a89.26,89.26,0,0,1,8.77-10.81c3.5-2.79,7.72-5.24,12.28-5.49.6-.06,1.2-.09,1.79-.1a39.82,39.82,0,0,1,13,2.52l.38.13c6.59,2.69,12.88,6.26,19.9,7.85a48.06,48.06,0,0,0,13.9,1.94c.56,0,1.16-.12,1.74-.16A37.28,37.28,0,0,0,1249,484.58Z"/><path d="M1213.34,496.6a2.11,2.11,0,0,1,1,2,5.18,5.18,0,0,1-1.84,2.76c-.91.8-2,1.48-2.82,2.24-1.85,1.48-3.41,3.29-5.17,4.86s-4.15,3.19-6,4.54c-2.84,2.25-5.64,5.62-9.64,5.22-3.07-.4-4.26-3-4.45-5.88a15.44,15.44,0,0,1,.53-4.93c.06-.23.13-.44.2-.65s.17-.62.28-.92c1-2.8,2.94-5.1,4.73-7.43,2.19-3.13,4.22-6.41,7.07-9a1.72,1.72,0,0,1,2.39-.23c1.09,1,.51,2.18-.23,3.19-.25.34-.52.66-.74,1-1.45,2-2.69,4.17-4,6.27-2.75,4.21-7,9-5.35,14.35,3-.12,4.89-3.11,7.25-4.65a110.89,110.89,0,0,0,11.69-10.2c1.16-1.26,2.52-3,4.44-2.78A1.71,1.71,0,0,1,1213.34,496.6Z"/><path d="M1250.54,509.74c0,1.52,0,3.07.14,4.58a6.19,6.19,0,0,1-2.81.22c-1.33,0-2.67,0-3.7,0-3.31.11-6.08.38-9.2.29-6.44-.27-13.07-1.82-18.19-5.92a16.1,16.1,0,0,1-4.31-7.5c-.19-.67-.36-1.34-.5-2h0a2,2,0,0,1,1.36-2.79,2.16,2.16,0,0,1,2.54,1c.72,1.19.87,2.62,1.49,3.87a10.71,10.71,0,0,0,4.8,5.12c5.54,3.21,12,4,18.32,3.59,2.79-.3,5.66.07,8.42-.48A2.39,2.39,0,0,1,1250.54,509.74Z"/><path d="M1156.52,240.06c3.44,0,3.65-1.05,3.1-4.19a5.22,5.22,0,0,0-1.67-2c.62,2.1-.75,4.95-3.26,4.52a3.08,3.08,0,0,1-2.21-2A3.72,3.72,0,0,0,1156.52,240.06Zm110.71-23.65c7,6.32,5.21,18.53-3.42,22.4,6,6.22,7.84,17.47,1.73,24.21-2.87,3.19-6.62,6.37-11.16,6.12.68,8.49-7.37,19.52-16.61,15.93-.62,6.77-7.88,11.65-14.38,10l-.26-.09c0,2.41.2,4.79.44,7.16-.13.13-.25.26-.37.4a2.47,2.47,0,0,0,.87,3.65c.1.69.2,1.39.31,2.08a56.59,56.59,0,0,0,1.56,7.73,2.18,2.18,0,0,0-.38,1.45,21.83,21.83,0,0,1-1.61,6.18c-2-2.39-2.79-8.05-3.58-10.45a89.22,89.22,0,0,1-1.82-30.68c.64-4.76,1.58-9.75,2.16-14.44.33-1.55-.06-3.62,1.43-4.64a2.28,2.28,0,0,1,3,.51c2.59.76,8.42-.62,10.19-2.68,2.66-5.29-.94-10.12-6.46-10.9a4.3,4.3,0,0,1-2.59-.82,2,2,0,0,1-.4-.47c-2.06-1.48,0-5.42.82-7.42-6.65-1.88-7.9-10.53-4.26-15.68-8.71-1-20.35-6.54-18.54-17-6.48,2.12-14.09,2.54-20.31-.62-2.51-1.45-3.9-4.13-4.93-6.73-4.63,6.54-14.77,12.47-22.42,9.3-.53,2.53-1.18,5-1.7,7.56,1.13.22,2.3.73,3.25.93,3.52.87,7.16,2,9.92,4.47,2,1.87,2.06,3.53,1,4.54a1.9,1.9,0,0,1,.38.32c.69.8.35,1.91.35,2.88-.23,4.43-1.85,8.36-3.09,12.49-1.17,5-3,9.82-2.94,15,1.71-.08,3-1.67,3.65-3.15.47-1,.55-2.26,1.29-3.15a1.76,1.76,0,0,1,3,.8c-.09,4.22-6,11.61-10.46,8.14-2.37-2.43-.56-9.41.25-12.46,1.36-6.69,4.39-13,5-19.84a7.36,7.36,0,0,1-2-.12,33.93,33.93,0,0,1-8.53-3.45,21.77,21.77,0,0,1-2.41-1.27c-.35,1.35-.72,2.69-1.08,4a11.86,11.86,0,0,1,5.76.76,9,9,0,0,1,5.18,5.12c.64,2.35.76,5.35-.89,7.31-1.81,2-5,2.35-7.53,2a7.2,7.2,0,0,1-4.82-2.74l-.21-.37c-.61,3.83-1.11,7.67-1.7,11.5-1,7.07-1.32,14.38,1.22,21.18,1.7,7.2,7.57,12.73,14.57,14.78a31.28,31.28,0,0,0,4.42,1.35,2.62,2.62,0,0,1,1.57.25c2.27,1.15,1.35,4,1.23,6.05s-.44,4-.64,6c-.46,6-1.36,11.95-1.73,18-.41,2.49.34,7-3.24,7a2.52,2.52,0,0,1-2.3-2.12,6,6,0,0,0,0-1.75c0-.13,0-.25.08-.37.24-1.94.41-3.88.57-5.83.18-1.79.35-3.59.53-5.38a3,3,0,0,0,.65-.19,2.38,2.38,0,0,0,.78-3.65,2.62,2.62,0,0,0-1-.7c.44-4.33.9-8.66,1.41-13-7.29-2.16-14.2-6.39-18.2-13a43.46,43.46,0,0,1-4.89-25c0-.44,0-.88.07-1.32a2.62,2.62,0,0,1-1-.2c-7.44-2.68-10.66-5-7.4-13.28a9,9,0,0,1-8.14-7c-.93-5.06,2.67-9.71,5.88-13.25-12.41-4.83-13-15-2.5-22.64,2.54-2,5.41-4.49,8.74-4.4a17.68,17.68,0,0,1-2-9.63c1.06-8.57,9.09-15.4,17.42-16.6,4.93-.55,9.16,2.9,12.72,5.87l.06.05c1.22-3.83,4.39-6.7,7.41-9.2,5.21-4.22,11.67-7.33,18.5-7.05,8,0,16.54,2.88,17.88,11.82,5.88-3.23,15.75-7,19.91.52a10.76,10.76,0,0,1,1,6,37.39,37.39,0,0,1,7.7,0c5.25.46,11,2.34,14.41,6.5,3.16,4.78,2.86,11.51.08,16.4,3.34.35,6.86,1.54,9,4.21,1.69,2,3.92,9.1,1.25,11.08A34.38,34.38,0,0,1,1267.23,216.41Z"/><path d="M1314.22,552.06c1.94,9.58-9.45,27-16.18,33.62-4.76,4.56-9.4,9.36-14.89,13.06-5.81,3.53-11.25,7.69-17.36,10.7-4.77,2.15-9.41,4.61-14.13,6.88-9.62,4.39-19.5,8.11-29.46,11.64-10.14,3.62-20.24,7.35-30.48,10.69-5.72,1.7-10.89,4.41-16.4,6.38-7.18,2.56-14.31,5.27-21.4,8.06-5.45,2.75-11,5.28-16.43,8.08,1.44,8.56,1.62,17.27,2.78,25.86,1,5.2,2,10.37,3,15.56,1.41,6.24,3.84,12.18,4.83,18.51a189.37,189.37,0,0,0,5.09,22.82c2,8.51,4.94,16.76,6.8,25.3s3.28,17.41,6.83,25.55a12.64,12.64,0,0,1,1.06,3.14,4.34,4.34,0,0,1,0,.51,2.71,2.71,0,0,1,.21,1.66c3.33,6,4.67,12.76,7.2,19.07,1.35,3.8,3.84,7.29,3.81,11.44a2.82,2.82,0,0,1-.26,3.54c-4.09,2.94-9,4.66-13,7.86-4.22,3.19-9.15,5.24-13.38,8.44-4.53,3.69-9.67,6.08-14.46,9.33a78.71,78.71,0,0,1-10.22,6.73c-3.29,2-5.71,4.35-9,6.08-2.92,1.41-6,2.5-8.6,4.52-4.41,3.4-10.72,6.15-16.14,3.6-7.59-3.93-1.17-11.86,2.65-16.09,2.91-4.37,7.41-7,11.19-10.52,2.15-2.09,4.11-4.38,6.42-6.31,3.28-2.72,7.35-5.28,9.91-8.66,9.61-11.3,8-14.8,5.3-28.29a2.9,2.9,0,0,1-.64-1.17l-.58,0c-3,.22-3.62-2.71-5.11-4.62-1.47-2.29-3.33-4.27-4.87-6.5-2.94-4.23-5-9-7.68-13.37-4.17-6.56-8.78-12.84-12.79-19.5-3-4.72-6.73-8.87-9.58-13.66a125.12,125.12,0,0,0-8.31-13.2c-5.53-7.1-8.78-15.57-13.91-22.9-4.06-5.2-7.07-11.07-10-17-2.38-4.39-5-8.62-7.28-13.09-2.88-5.67-4.76-11.76-7-17.71a52.54,52.54,0,0,1-3.16-17.27l-.46.37c-3.06,2.72-6,5.69-9.37,8.09a59,59,0,0,0-9,8.73c-2.93,3.11-6.09,6-8.66,9.43-4.74,6.33-8.39,13.41-13.44,19.51-4.24,5.53-6.77,12.09-10.15,18.13-2.19,3.85-4.52,7.62-6.75,11.45a181.16,181.16,0,0,0-10.56,20.91c-3.31,6.73-7.27,12.77-10,19.73-3,8.31-6.64,16.4-10.47,24.38-1.82,3.91-3.6,7.86-5.26,11.85-.68,1.35-1,3.23-2.62,3.74a1.14,1.14,0,0,1-.24.25,52.94,52.94,0,0,1-1.85,7.13c-1.65,4.22-3,8.54-4.51,12.82a50.15,50.15,0,0,1-3.77,10.78c-.34.67-.71,1.52-1.15,2.33a2.38,2.38,0,0,1,0,2,8.25,8.25,0,0,1-8.2,5.22c-2.73-.1-5.26-1.2-7.84-2a50.38,50.38,0,0,1-6.27-2.25c-8.83-3.23-17-7.81-25.62-11.44a210.41,210.41,0,0,1-24.26-11.91A52.24,52.24,0,0,1,846.89,813a37.42,37.42,0,0,1-8-8.08,8.94,8.94,0,0,1-1.46-7.08c.12-3.26,2.25-6.14,6.44-7.26a29.91,29.91,0,0,1,11.66-.11c3.39.92,6.65,2.25,9.93,3.46,3.92,1.65,7.75,3.48,11.82,4.76,3.89,1.28,7.6,3.13,11.72,3.58,4.93,1,10.81,2.66,14.3-2,1.11-1.39,2.3-5.17,4-7.27-1.73-1-3-2.47-2-4.59a113.79,113.79,0,0,1,2.84-13.51q3.68-16.93,8.41-33.6c2.6-9.87,5.71-19.59,8.72-29.35,2.1-7.35,3.85-14.79,6.37-22s5.62-14,8-21.12c1.89-5.47,3.68-11,5.83-16.38q5.63-14.22,11.8-28.26c1.86-4.72,3.5-9.56,5.71-14.14s5.53-8.44,8.31-12.65c3.72-4.85,7.29-9.92,11.43-14.41a47.2,47.2,0,0,1,6.36-5.27A77.2,77.2,0,0,1,1008,566.29a2.8,2.8,0,0,1,.6-.3,2.9,2.9,0,0,1,1.62-1.74c4.79-1.8,10.08-1.66,15.12-2,3-.18,6-.59,9-.73,14.06-.18,28.18-.76,42.17-2.13,6.53-.75,13-1.81,19.63-1.94,6.4-.23,12.81.16,19.21-.05,4.07-.26,8.14-.47,12.21-.66a2.63,2.63,0,0,0,3-.13c11.5-.51,23-.88,34.47-1.62,6.35-.3,12.69-.3,19-.19,13-.13,26.07-.46,39.11-.43,23.87-.93,47.6-4.75,71.52-4.48,3.89,0,7.77.08,11.66,0a20,20,0,0,0,2,0,2.67,2.67,0,0,0,5-.1A8.66,8.66,0,0,1,1314.22,552.06Z"/><path d="M1209.53,473a2.29,2.29,0,0,1-2-1.27c-1.58.3-3.51.21-4.67-1.05a2.14,2.14,0,0,1-3.28-2.34,16.15,16.15,0,0,1,1.91-3.11c3.79-5.17,7-10.73,10.67-16,2.16-2.61,3.75-5.73,6.56-7.66,3-2.11,6.93-1.88,7.61,2.26.36,4.14-1.63,8-3.83,11.37-3.07,5-5.77,10.17-9.44,14.74C1212.17,471.26,1211.42,473,1209.53,473Z"/><path d="M1170.86,525.86c-2.8-1-.8-4.68-.58-6.75,1-4.44,3.26-8.45,5.64-12.3.75-1.07,1-2.48,2.06-3.33a2.23,2.23,0,0,1,3.28.83,2.13,2.13,0,0,1,2.92.51,2.23,2.23,0,0,1,.32.7c3.44,1,1.67,4.23.29,6.23-2.74,4.64-5.66,9.41-10.13,12.57C1173.53,525.09,1172.32,526.25,1170.86,525.86Zm4.47-8.38.17-.21-.06-.08c0,.1-.08.19-.11.29Z"/><path class="cls-2" d="M1250.68,514.32c-.13-1.51-.1-3.06-.14-4.58,0-.49,0-1-.06-1.44-.82-6.23-.4-12.5-1-18.63a48.88,48.88,0,0,0-.47-5.09,37.28,37.28,0,0,1-.33-4.32c-.58,0-1.18.15-1.74.16a48.06,48.06,0,0,1-13.9-1.94c-7-1.59-13.31-5.16-19.9-7.85l-.38-.13.37-.57c3.67-4.57,6.37-9.77,9.44-14.74,2.19-3.36,4.19-7.23,3.83-11.37-.68-4.14-4.65-4.37-7.61-2.26-2.81,1.93-4.4,5.05-6.56,7.66-3.65,5.29-6.88,10.85-10.67,16a22.31,22.31,0,0,0-1.76,2.74c-.59,0-1.19,0-1.79.1-4.56.25-8.78,2.7-12.28,5.49a89.26,89.26,0,0,0-8.77,10.81c-1.56,2.61-3.64,5-4.43,8-1.11,4.76.85,8.34,6,6.26a23.35,23.35,0,0,0-1,3.24,4.51,4.51,0,0,0,.12,1.9,32.47,32.47,0,0,0-1.72,3c-2.38,3.85-4.62,7.86-5.64,12.3-.22,2.07-2.23,5.75.58,6.75,1.46.4,2.67-.77,3.8-1.54,4.27-3,7.12-7.49,9.75-11.93.19,2.86,1.38,5.48,4.45,5.88,4,.4,6.8-3,9.64-5.22,1.83-1.35,4.19-3,6-4.54s3.32-3.38,5.17-4.86c.84-.76,1.91-1.44,2.82-2.24a16.1,16.1,0,0,0,4.31,7.5c5.12,4.1,11.75,5.65,18.19,5.92,3.12.09,5.89-.18,9.2-.29,1,0,2.37,0,3.7,0A6.19,6.19,0,0,0,1250.68,514.32Zm108.94-50.77c2.4-.62,4.79-1.3,7.17-2a74.27,74.27,0,0,0-13.12-8.8c-4.77-3.22-10.06-5.33-15.3-7.61a134.31,134.31,0,0,0-17.18-6.64c.7,8.62,1.13,17.39,1.81,26,0,1.41.36,2.83.5,4.23,1.55-.24,3.1-.46,4.66-.64,3-.32,6-.42,9-.59A152.21,152.21,0,0,0,1359.62,463.55Zm88,1.78c.07,4.86.18,9.81-1,14.56a152.15,152.15,0,0,1-7.4,19.66c-2.17,4.18-5.53,7.56-8.42,11.23a57.37,57.37,0,0,1-10,9.58c-3.49,3.14-7.58,5.43-11.59,7.8-5.73,4.11-12.34,6.75-19.06,8.77-18.15,6.21-37.83,5.31-56.76,4.8-4.61-.17-9.23-.36-13.81-.94-1.81-.26-3.61-.58-5.4-.92,0,.61-.08,1.23-.1,1.82-.29,2.53-.4,5.07-.49,7.6a2.62,2.62,0,0,1-.13.5,2.67,2.67,0,0,1-5,.1,20,20,0,0,1-2,0c-3.89,0-7.77,0-11.66,0-23.92-.27-47.65,3.55-71.52,4.48-13,0-26.07.3-39.11.43-6.35-.11-12.69-.11-19,.19-11.47.74-23,1.11-34.47,1.62a2.63,2.63,0,0,1-3,.13,2,2,0,0,1-.39-.33,4.55,4.55,0,0,1-.8-1.26h0c-1.07-2.23-1-4.74-1.44-7.12a68.11,68.11,0,0,1-2.26-11.51,38.51,38.51,0,0,1-.85-9.08c0-.48,0-1,.09-1.48a54,54,0,0,1-1.55-8.58c-1.63-8.62-2.22-17.39-3.54-26.06-.63-6.46-2.37-12.95-2.55-19.42-1-11.34-2.36-22.68-2.68-34.05-10.92.38-21.8,1.49-32.72,1.56-8.11-.05-16.17-1-24.28-1.15-7.83-.07-15.67.57-23.49,0-6.31-.39-12.53-1.6-18.8-2.36a157.55,157.55,0,0,1-36.12-7.68C958.87,422.88,942.39,413.28,931,399a90.38,90.38,0,0,1-8.65-14.22,68.33,68.33,0,0,1-6.27-15.35c-2.61-10-3-20.45-2.45-30.73.34-18.64,4.07-36.89,8.46-54.94,3.2-13.73,8.61-26.83,13.76-39.92,1.52-4.07,3.7-7.85,5.52-11.79,2.36-5.37,4.55-10.81,7.3-16,1.31-2.55,2.79-5,4.19-7.52,2.45-4.3,4-8.44,6.28-12.56l6.06-.25,11.08-.45c1.88-.08,3.76-.15,5.63-.24a9.15,9.15,0,0,0,1.57-.12,2.46,2.46,0,0,0,1.76-1.32,3.58,3.58,0,0,0,.16-1.92,4.17,4.17,0,0,0,0-.5l0-.4c0-.53-.07-1.05-.1-1.57-.08-1.26-.17-2.51-.27-3.77-.19-2.51-.4-5-.59-7.54-.55-7.18-1.08-14.37-1.64-21.56,0-.31,0-.62-.07-.93a39,39,0,0,1,3.2-5.13,2.29,2.29,0,0,1-.53-.87,2.18,2.18,0,0,1-.54-.89,1.9,1.9,0,0,1,3.25-1.8,1.27,1.27,0,0,1,.55,0c.89-.45,1.88,0,2.78.21a15.19,15.19,0,0,0,1.48.36c1.45.27,2.93.37,4.4.53l1,.12c7.66,1.07,15.34,1.88,22.81,3.88.6.16,1.2.33,1.79.51a16.21,16.21,0,0,1,3.25,1.26,19.67,19.67,0,0,1,3.85,2.62l.07.06a2.22,2.22,0,0,1,1.48,1.59,2.11,2.11,0,0,1,1.77,2c-.69,4.06-1.39,8.17-2.1,12.24-1.53,8-4.07,15.7-6.07,23.55-2.2,7.91-3.53,16-5.35,24-1.19,5.21-2.38,10.63-3,15.91-2,12.61-5.42,25-5.65,37.8,0,6.75,1,13.45,1.73,20.14.56,3.71,2.84,6.79,4.87,9.83,2.21,3.26,4.32,6.66,7.56,9,15.78,12.08,35.85,15.6,54.86,19.5,15.06,2.39,30.27,3.36,45.48,4.21a31.23,31.23,0,0,1,4.71-8.95,10.84,10.84,0,0,1,13.25-3.71c2.2-7.86,8.79-13.73,16.48-16.07,1.4-.4,3.22-1,4.62-.44a2.62,2.62,0,0,1,1,.7,2.38,2.38,0,0,1-.78,3.65,3,3,0,0,1-.65.19c-.18,1.79-.35,3.59-.53,5.38-.16,2-.33,3.89-.57,5.83,0,.12-.06.24-.08.37a6,6,0,0,1,0,1.75c0,.39-.06.78-.06,1.17a11.37,11.37,0,0,0,1.1,4.87l-.12-.28a122.57,122.57,0,0,0,6.09,11.43c2.48,3.1,5.49,5.75,7.69,9.08a33,33,0,0,0,6.76,6.59c3.31,2.7,6.46,6.4,10.45,7.84.91-.61,1.78-1.3,2.66-1.95,1.14-1.91,4.07-3.57,5.31-5,3-2.95,4.81-6.75,7-10.23s4.39-6.69,6.45-10.12c1.35-2.17,2.54-4.43,3.67-6.71,1.31-2.58,2.77-5.16,3.87-7.85a21.83,21.83,0,0,0,1.61-6.18,2.18,2.18,0,0,1,.38-1.45,56.59,56.59,0,0,1-1.56-7.73c-.11-.69-.21-1.39-.31-2.08a2.47,2.47,0,0,1-.87-3.65c.12-.14.24-.27.37-.4a14,14,0,0,1,4.12-2.4,26.6,26.6,0,0,1,14.8-2.41,10.52,10.52,0,0,1,9.39,7.44,17.2,17.2,0,0,1,.51,6.91c.83-.33,1.66-.65,2.51-1,8.8-3.39,22.07-3.62,26.26,6.6a6.2,6.2,0,0,1,.73,2.83c.88.23,1.76.49,2.62.78,4.29,1.6,8.52,3.36,12.7,5.22,6.51,2.53,13,5,19.37,7.93,8.91,4.71,18.46,8.08,27.17,13.18a107.76,107.76,0,0,1,20,11.27c4.81,2.94,9.6,6.1,14.26,9a50.17,50.17,0,0,1,8.62,5.79c5.45,4.32,11,8.47,16.34,12.95q5.92,5.31,11.92,10.51c3.34,3.33,6.52,6.8,9.9,10.08s5.74,7.8,8,12.06c2.28,4.08,5,7.94,6.69,12.29a192.52,192.52,0,0,1,6.54,20.11A70.51,70.51,0,0,1,1447.64,465.33Z"/><path d="M418.68,83.06c.13,2,.18,4,.13,6-.24,5.88-.75,11.74-1.17,17.61-.27,8.07-.89,16.35-4.06,23.87a60.8,60.8,0,0,1-5.94,11,21.23,21.23,0,0,1-4.92,4,27.27,27.27,0,0,1-5.18,3.11c-2.19.9-4.48,1.47-6.7,2.24-.84,3.63-1,7.37-1.62,11a17.3,17.3,0,0,1-.44,3.43,2.75,2.75,0,0,1-.31.67,2.23,2.23,0,0,1-2.21,1l-.25,0a2.51,2.51,0,0,1-2-2.27c-.24-1.73.57-4,.67-5.56A68.87,68.87,0,0,1,386.75,149c.55-2.14,2.85-2.13,4.62-2.49a21,21,0,0,0,6.15-2,59.29,59.29,0,0,0,6.29-4.37,22.79,22.79,0,0,0,2.75-4c5.08-8.35,6.48-17.86,6.73-27.39,0-1.13,0-2.25,0-3.37l0-.76h0q.09-1.87.21-3.78h0c.11-1.61.23-3.23.36-4.84.19-2.31.38-4.62.53-6.89.07-1.16.14-2.31.19-3.45a17.71,17.71,0,0,0,0-1.8,4.13,4.13,0,0,1,.3-2l3.74.88h0A1.24,1.24,0,0,1,418.68,83.06Z"/><path d="M345.85,123.16v1.33c-.11,6.64-1.75,13.27-2.48,19.88-.57,4.89-1.22,9.77-2.21,14.59-.67,3-.75,6.06-1.12,9.07,0,.3-.07.59-.11.88a2,2,0,0,1-3.8,0,4.37,4.37,0,0,1-.15-.7,14.66,14.66,0,0,1,.11-2.81c.33-3.11.74-6.57,1.19-9.59.54-3.44.88-6.9,1.29-10.35a2.23,2.23,0,0,0,1.79-3.16,2,2,0,0,0-1.23-1.07c.12-.8.25-1.58.39-2.37.79-4.73,1.65-9.15,2-13.68,0-.3.06-.61.11-.91a3.25,3.25,0,0,1,.72-1.79,2.05,2.05,0,0,1,3.46.7Z"/><path d="M348.39,107.94a1.51,1.51,0,0,1,.13.33,2.45,2.45,0,0,0-1.57,2.48,2.05,2.05,0,0,1-1.7-.42,7.79,7.79,0,0,0-2.46-1.27,7.05,7.05,0,0,0-4.32,1.54c-1.7,2.15-.82,5.3.66,7.32,1.77,1.7,4.43,1.46,6.57,2.35a2.43,2.43,0,0,1,.15,4.22,2.36,2.36,0,0,1-1.06.33,8.05,8.05,0,0,1-3.13-.55l-.3-.09c-2.49-.71-5-2-6.34-4.31-2-3.91-2.72-9.73,1.21-12.7,4-2.8,8.86-3.38,12.17.77Z"/><path d="M400.62,114.23c1,3.1,1,8.22-3.39,8.13-2.69.15-4.86-1.69-6.23-3.84a4.19,4.19,0,0,1-.92-2.3,1.75,1.75,0,0,1,3-1.27c1.18,1.42,2.11,3.68,4.32,3.53l.19-.3c-.16-2.87-1.84-5.42-2.17-8.3-.55-2.1-3.48-9.14.23-9.38a1.94,1.94,0,0,1,1.7,1.74,41.13,41.13,0,0,0,1.65,5.55C399.68,109.92,400,112.11,400.62,114.23Z"/><path d="M412.09,100.5a2.5,2.5,0,0,0-.86-1.16,5.23,5.23,0,0,0-4.08-.62,5.63,5.63,0,0,0-3.88,5.07c.14,1.87,2.16,2.89,3.88,3h.27C411.1,106.92,412,103.51,412.09,100.5Zm3.37-1c1.91,2.7-.09,6.7-1.89,9a4.12,4.12,0,0,1-.28.31c-2,2-5.16,2.32-7.85,2-6.46-1.44-7.39-7.13-4.89-11.4a10.36,10.36,0,0,1,2.06-2.49,8.52,8.52,0,0,1,1.17-.88,9.58,9.58,0,0,1,3-1.3,5.2,5.2,0,0,1,.62-.13A8.94,8.94,0,0,1,413.94,96,3.8,3.8,0,0,1,415.46,99.48Z"/><path d="M382.79,102.2a9.25,9.25,0,0,0-4.89-3c-3.82-1.12-8.36-.77-8.95,2.83.63,3.47,4.71,5,7.9,4.77l.18,0C379.71,106.66,382.38,105,382.79,102.2Zm1.71-3.94c1.06.93,2.39,2.39,1.58,3.86.79,1.94-.69,3.79-1.9,5.15-2.34,3.6-7.6,3.71-11.43,3.07-6.89-1.68-9.31-7.8-6.48-11.94a7.55,7.55,0,0,1,2.44-2.27,10.24,10.24,0,0,1,1.52-.75,12.45,12.45,0,0,1,2.6-.71c.29,0,.57-.08.86-.11A15.32,15.32,0,0,1,384.5,98.26Z"/><path d="M382.27,99.61c4.28,3-.85,10.06-5,7.38l-.21-.16c-2.42-2-1.37-6,.87-7.58A3.31,3.31,0,0,1,382.27,99.61Z"/><path d="M413.58,100.88a4.51,4.51,0,0,1-.21,3.78h0a4.7,4.7,0,0,1-4.44,3,3,3,0,0,1-1.78-.82,3.21,3.21,0,0,1-1-1.88c-.27-2.36,1.78-4.94,4-5.62a4.8,4.8,0,0,1,1.08,0,2.78,2.78,0,0,1,2.35,1.54Z"/><path d="M368.71,96.13c.31,1,.36,1.94-.67,2.48a1.69,1.69,0,0,1-1.77-.21,1.54,1.54,0,0,1-.41-.53c-.43-1.24-1.58-2.24-1.58-3.61A1.72,1.72,0,0,1,367,93a3.88,3.88,0,0,1,1.18,1.71C368.31,95.1,368.55,95.61,368.71,96.13Z"/><path d="M373.7,94.61a1.73,1.73,0,0,1-3.12,1.3c-.12-.17-.23-.35-.35-.53A7.24,7.24,0,0,1,369.06,93a1.74,1.74,0,0,1,2.67-1.78,6.55,6.55,0,0,1,2,3.32S373.7,94.59,373.7,94.61Z"/><path d="M399.74,98.83c-.71-1-1.49-2.32-.88-3.53a1.51,1.51,0,0,1,2.08-.69,5,5,0,0,1,1.78,2.5A1.76,1.76,0,0,1,399.74,98.83Z"/><path d="M407.37,94.57a1.86,1.86,0,0,1-3,2l-.6-.54a4.33,4.33,0,0,1-1.51-2.49,1.78,1.78,0,0,1,1-1.67c1.77-.78,3.32,1.09,4,2.49A2.44,2.44,0,0,1,407.37,94.57Z"/><path d="M415.15,84.64c.83,1.12,2.05,2.87.72,4.08a1.86,1.86,0,0,1-1.4.43c-1.43-.22-2.32-2.58-3.45-3.47s-2.81-1-4.26-1.14a3.13,3.13,0,0,0-2.09,1c-1.13,1-2.29,1.88-3.39,2.86-.67.6-1.06,1.53-2,1.75a1.55,1.55,0,0,1-1.82-1.81c.72-1.88,2.42-3.19,3.9-4.49,1.49-1.84,3.55-3.34,6-3a9.25,9.25,0,0,1,7.23,3.05A8.12,8.12,0,0,1,415.15,84.64Z"/><path d="M386.12,87.26a2.3,2.3,0,0,1,.39,3.2,2,2,0,0,1-2.42.46c-1.65-1-2.41-3.06-4-4.21A10.62,10.62,0,0,0,369,86.23c-1.46.89-3,1.61-4.39,2.64-.77.52-1.28,1.43-2.21,1.67a1.72,1.72,0,0,1-1.75-2.63,29.61,29.61,0,0,1,9.31-6.27c3.47-1.22,7.66-1.26,10.89.63A13.92,13.92,0,0,1,386.12,87.26Z"/><path d="M396.89,128.82c.78,1.13.19,2.52-.62,3.47-2.11,3.08-6.61,5.43-10,2.89a7.22,7.22,0,0,1-2.27-4.37,3.89,3.89,0,0,1-.11-2.16,2,2,0,0,1,3.17-.83c1.5,1.2.73,4.91,3.33,4.36a3.76,3.76,0,0,0,2.86-2.67C393.79,128,396,127.37,396.89,128.82Z"/><path d="M369,114.92a1.8,1.8,0,0,1,2.14,2.54c-.57,1.28-1,3.64-2.91,3.05-1.72-.64-.92-2.58-.42-3.8A1.8,1.8,0,0,1,369,114.92Z"/><path d="M376.79,114.66c1.39,1.38.08,3.49-.52,5a1.74,1.74,0,0,1-2.11.86c-1.94-.74-.94-3.11-.36-4.5C374.19,114.74,375.62,113.64,376.79,114.66Z"/><path d="M381.79,114.22c1.73.36,1.49,2.44,1.07,3.73a2,2,0,0,1-2.53,1.71c-1.45-.49-1.33-2.21-.85-3.38C379.76,115.21,380.5,113.92,381.79,114.22Z"/><path d="M405.23,114.33c2.19,0,2.12,2.27,1.48,3.74-.34,1.33-1.21,3.23-2.89,2.66s-1.18-2.65-.58-3.9C403.61,115.8,403.9,114.41,405.23,114.33Z"/><path d="M411.11,114.8c2.31.69.58,5.69-1.62,5.15C406.72,119.26,408.46,113.93,411.11,114.8Z"/><path class="cls-2" d="M421.31,78.8c0,.75,0,1.5-.05,2.25a2.21,2.21,0,0,1-2.55,1.74h0l-3.74-.88c-3-.69-6.08-1.37-9.11-2.12-3.51-.55-5-2-5-6.56-1.41,2.39-2.77,6.41-6.07,6.37a1.76,1.76,0,0,1-.65-.25h-.31a1.55,1.55,0,0,1-.65.14c-3-.16-5.89-.77-8.89-.58a64.61,64.61,0,0,0-10.18,1.23,60.66,60.66,0,0,0-16.39,4,1.86,1.86,0,0,0-.54.22c.11,1.81-1.12,3.76-1.52,5.48a1.48,1.48,0,0,1-.38,1.14c-.27,1.39-.52,2.78-.68,4.13-.66,5.42-1.63,11.08-2.17,16.47-.25,2-.19,4-.61,5.87a1.87,1.87,0,0,1-3.32.37c-.86-1.77-.8-3.86-1.33-5.75a3.57,3.57,0,0,1-.21-1.31,2.45,2.45,0,0,1,1.57-2.48,1.51,1.51,0,0,0-.13-.33h0c-3.31-4.15-8.14-3.57-12.17-.77-3.93,3-3.26,8.79-1.21,12.7,1.3,2.36,3.85,3.6,6.34,4.31l.3.09c-.05.3-.08.61-.11.91-.38,4.53-1.24,8.95-2,13.68-.14.79-.27,1.57-.39,2.37a2,2,0,0,1,1.23,1.07,2.23,2.23,0,0,1-1.79,3.16h-.22a2.79,2.79,0,0,1-1.74.22,41.36,41.36,0,0,0-4.38.87,1.41,1.41,0,0,1-1.36.45,9.13,9.13,0,0,0-3.06,1.9,15,15,0,0,0-3.9,5.81c-.23.87-.3,1.78-.61,2.63a1.85,1.85,0,0,1-3.38.22c-1.59-4,1.5-8.11,4.09-11a10.63,10.63,0,0,1,1.23-1.19c-.49,0-1-.08-1.46-.1a14,14,0,0,0-8,1.65c-2.18,1.48-4.74,2.79-6.38,4.87a1.78,1.78,0,0,1-3.36-.67c-.48-3.84,6.88-7.61,10-8.85a14.86,14.86,0,0,1,4-.71,30.6,30.6,0,0,1-7.55-5.37c-2.93-2.63-5.7-5.57-7.27-9.25A53.59,53.59,0,0,1,302,111.45c-.17-4.39,1.16-8.63,2.12-12.87.58-2.5,1.24-5,2-7.48a22.33,22.33,0,0,1-16,5.16c-6-.33-11-4.7-13.1-10.2-3-5.41-3.24-11.7-2.3-17.69.88-6.32,2.49-12.64,5.68-18.22C286.76,39.85,296,30,308.38,27.76c6.17-1,13.41-.13,17.2,5.4,3.76,4.29,3.95,10.36,3.75,15.78a42,42,0,0,1-2.09,11.33,68.47,68.47,0,0,1,11-5.72A55.26,55.26,0,0,1,347.05,52c3.16-.7,6.61-.26,9.73.15,5,.62,12.42,2.39,16.47,6.29,10.12-3.54,18.79-5,29.49-1.33,6.68,2.34,14.36,5.66,16.87,12.84A35.49,35.49,0,0,1,421.31,78.8Z"/><path d="M389.27,166.44c.23,2.19-1.58,2.8-3.37,3-.48.05-1,.08-1.41.09-9.89.89-19.82,1.38-29.74,1.87-5.6.39-11.16,1.66-16.8,1.46l-.63,0h-.68a2.43,2.43,0,0,1-1.6-4,2.19,2.19,0,0,1,.94-.66h0c1.36,0,2.71-.08,4.06-.18,4.88-.38,9.76-1.23,14.69-1.56,9.79-.3,19.46-1.19,29.21-1.84H384c1.76-.17,3.75-.79,4.75.62a3.19,3.19,0,0,1,.46,1Z"/><path d="M337.32,172.84c.44,3.12,1.45,6.2,1.3,9.33a1.34,1.34,0,0,1,0,.2,2.29,2.29,0,0,1-3.56,1.53,2.93,2.93,0,0,1-1.08-1.69c0-.15-.06-.3-.08-.45-.19-1.6-.49-3.19-.74-4.78-.07-2.17-1.33-6.12.5-7.68a2,2,0,0,1,1.39-.43,2.51,2.51,0,0,1,2.12,2.57C337.2,171.91,337.25,172.38,337.32,172.84Z"/><path d="M396.88,182.42h0a2.06,2.06,0,0,1-1.78.2c-5.27-2.26-9.39-4.26-9.05-10.73,0-.81-.11-1.64-.15-2.46a6.44,6.44,0,0,1,.17-2.15,1.69,1.69,0,0,1,.19-.38,2.14,2.14,0,0,1,2.21-1,1.9,1.9,0,0,1,.4.14,2.92,2.92,0,0,1,.37.24c2.14,1.64,1.14,6,1.74,8.38l.27.27a2.18,2.18,0,0,0,.28,2.93,2.61,2.61,0,0,0,2,.61c.66.08,1.33.15,2,.2C395.8,179.93,396.74,181.11,396.88,182.42Z"/><path d="M338.62,182.17a2.21,2.21,0,0,1,.2,2.85c-.54.7-1.48.87-2.15,1.41a4,4,0,0,1-1.28.83v0c.07-1.41-.23-3.06-1.79-3.5a2.39,2.39,0,0,0-.73-.09,3.48,3.48,0,0,0-.51-.34,1.88,1.88,0,0,1,.39-.35,14.08,14.08,0,0,1,1.22-.74c1.33-.7,2.87-1.15,4.2-.4A2.73,2.73,0,0,1,338.62,182.17Z"/><path d="M189,364c-2.34-1-1-3.56-.11-5.13a11.78,11.78,0,0,0,1.07-4.48,32.36,32.36,0,0,0-.69-6.8c-.55-1.73.45-3.78,2.47-3.32a1.76,1.76,0,0,1,1.24,1.79,40.76,40.76,0,0,1,1,7.71A21.08,21.08,0,0,1,191.6,363,2.15,2.15,0,0,1,189,364Z"/><path d="M204.85,349.94c-2.24-1.56-4.42-3.95-4.6-6.78-.16-1.45,1.24-3,2.66-2.17a3.22,3.22,0,0,1,1.14,1.69c.84,1.59,2.35,2.59,3.71,3.7A2.31,2.31,0,0,1,204.85,349.94Z"/><path d="M279.85,259.05a2.15,2.15,0,0,1-2.69,2.89c-3.39-1.1-8.35-10.43-8.05-13.85a1.75,1.75,0,0,1,3-.81,32.47,32.47,0,0,0,5.53,9A10.42,10.42,0,0,1,279.85,259.05Z"/><path d="M288.41,262.88a2.16,2.16,0,0,1-3.61,1.65c-1.11-1-1.4-2.58-1.8-4-1.39-4.22-3-8.19-3.77-12.47-1.26-4.73-2.79-9.75-2.22-14.65a1.53,1.53,0,0,1,2.21-.52c1,.84.87,2.32,1.16,3.49a59,59,0,0,0,2.38,8.85,103.81,103.81,0,0,0,3.49,11C287,258.45,288.16,260.57,288.41,262.88Z"/><path d="M330.58,317.62a1.88,1.88,0,0,1,1.08,2.89,49.48,49.48,0,0,1-6.68,5.36c-1.37,1.14-3.87,2.39-4.94.25-1.14-2.83,3.26-3.64,4.81-5.2,1.12-.83,2.2-1.69,3.31-2.52A2.75,2.75,0,0,1,330.58,317.62Z"/><path d="M323.79,312.76a1.84,1.84,0,0,1-.38,3.29,4.9,4.9,0,0,1-2,0c-3.46-.36-6.85-1.12-10.25-1.81-1.83-.36-5,.12-5.16-2.45.43-4.37,7.46-1.38,10.05-.83C318.59,311.71,321.37,311.72,323.79,312.76Z"/><path d="M156.57,205.05c-6.63-.92-4-15.33,2.4-13,3.73-1,4.77,3,4.29,5.88C163.08,201.44,160.61,205.72,156.57,205.05Z"/><path d="M154.08,230.73c-4.29-1.08-3.1-6.6-2.56-9.86.59-2.3,1.76-5.19,4.43-5.51a3,3,0,0,1,2.69,1C164.84,218.3,159.78,231.65,154.08,230.73Z"/><path d="M427,292.33c-3.06-.24-2.91-4.27.23-4.17a69.63,69.63,0,0,0,6.52-2.52c1.81-.65,3.87-1.9,5.8-1.06a1.85,1.85,0,0,1,.63,2.69c-1.37,1.66-3.78,2-5.65,2.92C432,291.05,429.6,292.39,427,292.33Z"/><path d="M439.08,307c-3.26-1.18-7.21-2-9.51-4.72a2.06,2.06,0,0,1,.78-2.95,2.41,2.41,0,0,1,2.51.47c2.65,1.15,5.71,1.33,8.14,3A2.37,2.37,0,0,1,439.08,307Z"/><path d="M631.23,209.3c3.59,3,1.17,17.78-5,12.79-2-2.9-3.37-11.21.92-12.65A3.13,3.13,0,0,1,631.23,209.3Z"/><path d="M635.05,233.8c1.07,1.71.74,3.81.72,5.73-.08,3-.81,9.26-5.25,6.95-1.32-.93-1.58-2.62-1.88-4.1a13.67,13.67,0,0,1,.26-7.61C629.73,232.14,633.55,231.32,635.05,233.8Z"/><path d="M584.89,302.79a2.24,2.24,0,0,1,0,1.76c-.4,1.82-.58,3.68-.84,5.53-.57,2.3,0,7.13-3.42,7-2.59-.41-2-3.43-1.58-5.29.4-2.37.71-4.76,1.27-7.09a5.09,5.09,0,0,1,1.17-2.53A2.13,2.13,0,0,1,584.89,302.79Z"/><path d="M578.25,298.31a2.22,2.22,0,0,1,1,2.26c-.62,2.74-5,3-7.19,4.22-2.81.9-7.24,7.07-9.83,4.08-1.66-2.3,1.33-4.1,3-5.16a30.22,30.22,0,0,1,10-4.46,2.11,2.11,0,0,0,1-.76A1.72,1.72,0,0,1,578.25,298.31Z"/><path d="M472.23,249.28a1.88,1.88,0,0,1-1.13,3.35,8.43,8.43,0,0,1-2.89-.44c-2.1-.95-9.77-2.44-8.07-5.72.67-1.23,2.2-1.07,3.25-.46,1.45.52,2.93.94,4.4,1.39A13.34,13.34,0,0,1,472.23,249.28Z"/><path d="M489.2,233.61a2,2,0,0,1-1.46,2.18,24,24,0,0,0-7.7,2.78c-5.05,2.33-10.71,3.06-16.21,3.28-3.62.18-3-4.62.33-3.78a72.44,72.44,0,0,0,12.55-2.59c2.7-1,5-2.89,7.89-3.4C486.22,231.79,488.86,231.41,489.2,233.61Z"/><path d="M203.4,150a76.29,76.29,0,0,0,.27-10.9,30.35,30.35,0,0,0-2.47-13.72c-1.28-4.12-2.3-8.4-4.3-12.26-1.33-1.94-2.91-3.7-4.35-5.57-2.3-3.09-4.62-6.16-7.82-8.38-1.83-1.4-3.19-3.36-5.19-4.53-2.49-1.18-5.37-2.38-8.15-1.72.31,1.89,1.54,3.5,2.37,5.19A39.77,39.77,0,0,0,177,103.5a98.33,98.33,0,0,1,9.34,11.87c.92,1.55,2.22,3.19,2.08,5.08a2.25,2.25,0,0,1-3.87,1.11h0c-3-3-5.83-6.23-9.24-8.81a29.39,29.39,0,0,1-4-3.14c-2-2.41-4.06-4.76-6.95-6.17-1.58-.79-3.18-2.57-5.05-2-.53.17-1.38.52-1.35,1.17l0-.17a1.53,1.53,0,0,0,.1.45,48.94,48.94,0,0,0,6,7.47c4.13,3.66,8.63,7,12,11.41.86,1.23,2,2.42,2.27,3.93a2.22,2.22,0,0,1-3.11,2.28,51.24,51.24,0,0,1-7.14-5.31,53.32,53.32,0,0,0-9.59-5.63c-2-.9-3.75-2.36-5.93-2.85-2-.31-4.18-1-6.21-.37a1.91,1.91,0,0,0,.6,1.67,20.64,20.64,0,0,0,7.34,6c5.44,3.39,11.33,6.12,16.36,10,8,6,9.12,16.57,8.94,25.87-.11,2.29-.65,4.54-.64,6.83a29.12,29.12,0,0,1-.59,6.32c-.07.29-.12.59-.17.89,1.3-.61,2.59-1.23,3.88-1.87,4.47-2.13,8.75-4.67,13.38-6.43,2.44-.94,4.92-1.78,7.37-2.67a2.8,2.8,0,0,1-.24-1.6C203.16,156,203.1,153,203.4,150ZM289.55,270.6c-.71-7.87-1-15.78-1.6-23.66-.71-8.56-.54-17.18-1.6-25.72-1.08-9-.85-18.16-1.77-27.18a4.84,4.84,0,0,0-1-.45c-3.29,4.85-3.81,10.92-5.64,16.37a91.06,91.06,0,0,1-3.88,8.82c-2.3,5-4.35,10.07-6.85,14.95-5,7.78-9.37,15.73-15.09,23a155.12,155.12,0,0,1-9.52,13.1c-3.06,4.25-6.12,8.48-9.44,12.54-5,7-10.44,13.6-15.51,20.53-4.88,5.73-9.16,11.91-13.91,17.75-2.44,3-4.4,6.42-6.84,9.46-1.74,2.13-3.5,4.24-5.06,6.5a19.06,19.06,0,0,0-1.68,2.57,62.21,62.21,0,0,1-1.36,7.65c-.55,2.39-1.43,4.69-2.07,7a5.26,5.26,0,0,1-1.06,2.48,2.22,2.22,0,0,1-3.7-.83,3.75,3.75,0,0,1,.17-2.45c.53-1.61,1.16-3.17,1.7-4.77a65.33,65.33,0,0,0,1.61-7.82c-.74-1-.35-2.59.57-4.36.05-.45.1-.91.14-1.36,1.33-11.37,4-22.54,6-33.82a166.89,166.89,0,0,1,3.32-18.71c1.74-8.36,3-16.49,5.41-24.73,1.41-5.84,2.08-11.83,3.29-17.71,2.51-12.2,6-24.22,6.93-36.7.61-9.16,2.45-18.25,3.81-27.24a76.67,76.67,0,0,0,2.25-12.57,29.48,29.48,0,0,0-.1-3.49l-.06,0c-3.11,1.32-6,3-9.2,4.2-5.59,2.19-10.79,3.63-16,6.3-8.11,4.31-16.56,7.92-24.92,11.72-4.33,2.11-8.59,4.33-13.07,6.12-.58.22-1.16.51-1.75.71-.19,3.95-1,7.86-1.53,11.77-.93,8.11-2.41,16.12-3.57,24.19-2.47,19.8-3.56,39.91-6.39,59.63-1.3,7.63-2.54,14.79-3.15,22.44-.95,15.42-1.67,30.84-3.23,46.22-1.23,14-3,28-1.64,42.05.79,7.95,2.88,16.21,8.19,22.39,4,4.16,10.56,4.3,15.73,2.41a44.42,44.42,0,0,0,13.15-9.15,85.27,85.27,0,0,0,8.25-8c2.35-2.7,5-5.09,7.39-7.76,2.84-3.51,5.79-6.92,8.91-10.19,8.84-10.19,17.62-20.43,26.05-31,5.16-6,10.09-12.26,15.29-18.24,3.33-4.32,6.86-8.47,10.2-12.78a103.07,103.07,0,0,1,8.08-10.2,175.86,175.86,0,0,1,11.7-14.14c2.72-3.55,5.79-6.79,8.77-10.12,3.32-4.24,6.31-8.86,9.88-12.85a13.78,13.78,0,0,1,2.7-2.95A5.72,5.72,0,0,1,289.55,270.6Zm58.3,111.87a24.58,24.58,0,0,0-1.32-4.3,2.67,2.67,0,0,1-.42-1.53,20.6,20.6,0,0,1-.37-2.6c-.3-3.19-.63-6.39-1-9.58-1.34-13.31-2.53-26.63-4.2-39.91-3.4-26.24-5.78-52.61-7.41-79-.31-5.26-1-10.68-1.3-15.86-.37-5.37-.33-10.76-.62-16.14-.72-8.35-.62-16.74-.75-25.12a47.52,47.52,0,0,0-5.58.7c-1.61.25-3.23.46-4.84.67a68.26,68.26,0,0,1-5,5.83,84.2,84.2,0,0,0-6.16,7.81c-1.67,2-3.38,3.85-4.95,5.81,7.12,1.89,14.92,1.17,22.23,2.48a2.19,2.19,0,0,1,1.7,2.64,2.62,2.62,0,0,1-1.45,1.7l-4.22,2.45c-4.91,3.14-10.07,4.33-15.39,6.21.62,2.67,2,5.07,2.86,7.66,1.28,3.62,1.94,7.44,3.28,11,2.92,7.4,5.09,15,7.73,22.52,1.73,5.18,2.46,10.63,4.26,15.79,1.92,7.72,6.51,14.29,9.14,21.72.35,1.19,1.15,2.44.75,3.7a2.06,2.06,0,0,1-3.76.14c-2.38-7.4-6.94-13.81-9.41-21.17-2.39-5.59-3.41-11.53-5.15-17.21-1.24-3.74-2.72-7.4-3.81-11.18-2.55-7.49-5.5-14.82-7.34-22.53-.88-3.41-2.63-6.58-3.07-10.1-.45-2.71,1-3.91,3.5-4.46a76.74,76.74,0,0,0,13.64-5.34c-3.94-.61-22-.19-19.84-6.69a49.25,49.25,0,0,1,4.82-6.39c1.83-2.29,3.35-4.81,5.27-7,1.37-1.58,2.82-3.08,4.22-4.62-2.68.34-5.35.7-8,1.14a134.21,134.21,0,0,1-14.47,2.76c-.82.06-1.67.23-2.51.35a1.94,1.94,0,0,1-.44.31c.08.66.14,1.27.22,1.71.68,6.55,1,13.12,1.59,19.68,1.63,14.25,1.68,28.65,2.77,42.95.48,8.85,1.91,17.6,2.89,26.4.68,12.68,2.32,25.38,1.42,38.09-.95,13.44-5.39,26.25-8.93,39.16a263.39,263.39,0,0,1-10,31.9c11.66-1.76,23.36-3.28,35-5.43,6.25-1.21,12.25-3.41,18.49-4.63C337.1,383.71,342.52,383.45,347.85,382.47ZM390.36,625.1a71.45,71.45,0,0,0,.77-19.36,57.81,57.81,0,0,1-1.95-15.7c-.14-2.86-.57-5.66-.95-8.49-.86-5.75-.73-11.59-1.63-17.33-.57-4.06-.23-8.17-.72-12.23a70.21,70.21,0,0,1-1.25-7.86c-.23-4.3.27-8.62-.52-12.89a87.81,87.81,0,0,1-1.05-14.85c0-.44-.05-.88-.08-1.32-2.22.23-4.44.46-6.66.71-11.3.69-22.69.89-34,1.32-7.06-.23-14.19,0-21.24-.55.05.33.1.65.18,1,1.72,9.48,3.17,19,5.08,28.46,1.09,6.95,3.06,13.69,4.43,20.59.52,2.41.94,4.83,1.29,7.27a2.55,2.55,0,0,1,.86,3.25,2.7,2.7,0,0,1-2,1.42,2.34,2.34,0,0,1-1.2.16h-.07c-1.17,1.42-3.49.91-4.93.16a2.41,2.41,0,0,1-2.14-.46c-7.25.44-14.52.11-21.78.26-5.28.46-10.72.49-15.88.61-10,.6-20.09-.09-30.12.5-12.56-.28-24.92.3-37.43.84-5.46-.14-10.9-.62-16.37-.18-5.52.06-11-.48-16.51-.74-3.73,0-7.54.25-11.28,0a9,9,0,0,0-.71,1.29,92.76,92.76,0,0,0-4.4,14.52c-.63,1.5-.71,4.33-1.58,6.11,17.16,2.89,34.84,7.08,51.63,11.27,13.32,2.93,26.76,5.92,40.18,8.24,11.35,3.12,23,4.76,34.53,6.76a205.73,205.73,0,0,0,22.15,4c7.11,1.18,14.16,2.86,21.35,3.62,6.67.57,13.18,2,19.77,2.22,4.07.09,8.66-.53,12.59-.33,4.56.13,8.82-1.74,12.95-3.43C385.51,632.28,389.22,629.29,390.36,625.1Zm104.35-251c-2-6.17-6.43-11.29-8.8-17.33-3.75-9.18-8.79-17.77-12.17-27.1-3.37-8.35-7.27-16.57-9.38-25.36C462,294.49,458,285,455.81,275.2c-1.62-6.57-2.39-13.3-3.71-19.92-.89-4.46-1.94-8.89-2.62-13.39C447,226.4,445,210.86,444,195.2c-.49-5.59-.48-11.21-.73-16.81a3.14,3.14,0,0,1-1.94.11c-5.19.13-10.38-.18-15.58-.1-3.42.23-6.84.41-10.27.49.78.78,1.49,1.56,2.06,2.08a25.57,25.57,0,0,0,4.8,3.8,33.92,33.92,0,0,1,8,5.85,2.33,2.33,0,0,1,.47,3.43c-2.39,1.93-4.33,4.37-6.7,6.35s-4.91,4.16-7.21,6.38c3.87,1.08,8.09,1,12,1.92a2.71,2.71,0,0,1,2.8,3.5c-.81,7-1.27,14-2.35,21-.53,7.41-2.11,14.48-3.47,21.68-.74,5.75-1.72,11.47-2.2,17.24-.16,1.93-.37,3.86-.53,5.79-.26,2.1.45,5.93-2.67,5.82a2.23,2.23,0,0,1-2-2.41c.15-2,.41-4,.53-6,.48-5.77,1.22-11.52,1.9-17.28.62-5.52,1.81-11,2.67-16.4,1.07-9.68,2.27-19.34,3.42-29-3-.31-19.6-.55-15.59-6.24,4.92-4.64,10.45-8.69,15-13.7-1.53-1.55-3.54-2.32-5.42-3.35a29.78,29.78,0,0,1-5.87-4.23c-1.5-1.49-2.85-3.15-4.49-4.5a3.13,3.13,0,0,1-1.53-1.59l-1.72,0c-2.15,0-4.32,0-6.47,0,1.44,3.42,1.71,8.36,2.39,11.19,1.27,7.35,2.65,14.69,3.64,22.08.53,4.91,1.14,9.81,2.1,14.65,3.08,15,4.32,30.25,6.31,45.4,2.76,17.3,5.87,34.53,8.54,51.84,3,16.14,6.52,32.21,9.85,48.29a87.6,87.6,0,0,1,9.39,1.44c4.31.6,8.66.95,13,1.14C469,374.94,481.87,374.07,494.71,374.07Zm19.94,411.56a339.14,339.14,0,0,1-5.06-37.88c-1.13-24.29-4.42-48-6.25-72.2a276.84,276.84,0,0,0-1.95-28c-.56-9.82-1-19.65-2.05-29.44-.43-5.14-.51-10.29-.77-15.27-.72-7.93-1.33-16.43-1.7-24.23-1.55-18-.94-36.12-2.35-54.1-.5-6.55-.41-13.2-.81-19.73-.09-1.44-.21-2.87-.33-4.3-6.46,1.08-13.06,1.72-19.34,3-12.81,3.08-25.93,4.25-39,5.87.71,2.33,1,4.81,1.49,7.17.69,3.26,1.54,6.46,2,9.77,1.48,12.7,3,25.4,3.36,38.2.3,4.24.87,8.45,1.31,12.68.76,8.32,1,16,2,24.18,1.47,14.55,4.21,28.93,6.36,43.39,2.73,16.57,4.69,33.34,7.74,49.84,3.1,14,6.4,27.88,9.55,41.82a269.61,269.61,0,0,0,10.4,42.58c1.16,4.23,2.23,8.47,3.28,12.72a12.28,12.28,0,0,1,2.51-.56c2.41-.35,4.85-.56,7.27-.89,2.88-.32,5.48-1.71,8.3-2.29,2-.43,4-.4,6-.67C509.26,786.72,511.94,785.66,514.65,785.63ZM639,307.19c1.63-9.94,1.59-20,1-30-.06-8.4-.39-16.8-.92-25.18.06-15.82-3.79-31.55-2.4-47.36a44.19,44.19,0,0,1-6.58-2.2c-4-1.25-8.24-1.79-12.09-3.53-7.28-3.41-15.13-6.15-22.58-8.92-4-1.12-7.68-3.24-11.55-4.82a46.06,46.06,0,0,0-6.16-1.37,2.53,2.53,0,0,1-.94.44c.23,3.58.35,7.15.54,10.73.77,8.71,1.42,17.44,2.52,26.11,1,6.47,2.16,12.93,3.19,19.4,1.61,13.39,2.91,26.85,5.69,40.06a121.26,121.26,0,0,0,2.88,12.76c.39,2.64,2.83,6.35.44,8.52a2.45,2.45,0,0,1-2.93,0c-1.08-.78-1.12-2.14-1.33-3.33-.15-.71-.32-1.41-.49-2.12a8.87,8.87,0,0,1-3-1.45c-2.84-1.79-5.5-3.84-8.21-5.81-4.62-3.14-9.17-6.36-13.49-9.9-2.94-2.22-6.24-4-9.07-6.33-2.23-1.9-4.35-3.91-6.55-5.84-3.91-3.19-8.15-6-11.75-9.56-2.85-2.76-4.79-5.49-7.63-8a122,122,0,0,1-10.41-9.27c-7.36-8.11-15.21-15.44-22.14-24-3.37-3.75-7.18-7.06-10.65-10.72-4.3-4.89-8.79-9.57-13.38-14.17s-8.42-10-13-14.74c-1.69-1.61-3.17-4.09-5.63-4.45-.95,1.29-2,3.07-2.81,4.34a2.65,2.65,0,0,1-2,1.82c.23,3,.35,6,.56,9,.88,12.18,1.81,24.36,3.32,36.48,1.17,6.58,1.87,13.23,3,19.82.45,2.37.93,4.73,1.39,7.1a2.14,2.14,0,0,1,1.15.5c2.07,2.41,3.42,4.9,5.49,7.23,3.35,3.62,7.61,6.21,11,9.79a96.92,96.92,0,0,0,7.43,7.6c4.92,3.87,10.1,7.47,14.34,12.12,3.91,4.49,9.22,7.38,13.78,11.05,1.76,1.47,3.35,3.14,5,4.7,3.15,2.64,6.76,4.65,9.94,7.24a115.47,115.47,0,0,0,17,11.65c2.51,1.49,4.78,3.31,7.18,5,3.13,2.08,6.68,3.38,10,5.19,2.14,1.18,4.13,2.56,5.89,3.73a79.62,79.62,0,0,0,11.15,5.7c5.73,2.84,11.34,5.94,17.42,8,2.59.87,5.19,1.67,7.79,2.48,3.92,1.07,7.91,3.13,12,2.15a21.83,21.83,0,0,0,10.53-5.95c5.49-4.49,8.91-11,11.65-17.25,1.73-3.77,2.29-7.89,2.71-12S638.6,311.34,639,307.19Zm14.16-175.84a.84.84,0,0,0,0-.17.87.87,0,0,0-.07-.17c-7-1.45-17.19,5.79-23.7,8.39-1.15.61-2.58,1.32-3.88.77a2.39,2.39,0,0,1-1-3.62,5.94,5.94,0,0,1,2.27-1.61c3.75-2,7.61-3.73,11.47-5.47,2.48-1.47,4.89-3,7.34-4.56,1.58-1.26,6.55-3.12,6.48-5.23-2.9-2.06-10.39,1.19-13.77,2-2.77.84-5.52,1.71-7.92,2.53-2.3.59-4.79,2.41-7.17,1.33-2.5-1.7-.59-4.43,1.75-5a66.28,66.28,0,0,0,9.7-3.83c3.12-1.43,6.25-2.87,9.32-4.4,2.26-1.18,5-2.41,5.71-5.1A2,2,0,0,0,649,107l0,0c-6.15.67-11.65,3.81-17.16,6.4-7.83,3.7-16.41,5.94-23.14,11.65a48.33,48.33,0,0,0-4.82,3.56c-1.37,1.88-2.3,4-3.77,5.85-7.2,8.3-7.23,13.59-7.75,24-.35,5.25-1,10.78-.68,15.9h0c.18,3.33.65,6,.84,9.11,3.13,1.32,6.39,2.3,9.54,3.56,3.83,1.46,7.64,3,11.44,4.5a85.75,85.75,0,0,1-.63-10.29c.07-7.45-.28-14.91.33-22.34.23-3.27.22-6.57.52-9.82.65-2.37,3.53-2.47,5.5-3.15a84,84,0,0,0,14.2-4.91c5-1.78,10.11-3.38,14.88-5.81C650.19,133.93,652.18,133.31,653.18,131.35ZM652,126a5.58,5.58,0,0,1,5.55,6.29,4.7,4.7,0,0,1-1.48,2.45,19.37,19.37,0,0,1-6.08,4.66,41.8,41.8,0,0,1-4.5,2.23l0-.39c-.33.12-.65.25-1,.4a21.91,21.91,0,0,1-2.48,1l-.18.06,0,.41c-2.81,1.06-5.66,2-8.42,3.24-4.77,2.41-10,3.5-15.13,4.94,0,4.16-.07,8.3-.3,12.45-.1,4.41.24,8.81.17,13.22s.17,8.57.54,12.84a17.33,17.33,0,0,1,.13,4c1.13.48,2.26,1,3.38,1.47,4.58,1.37,9.32,2.19,13.69,4.22a32.48,32.48,0,0,0,4.32,1.08c2.8,1.28,1.15,4.72,1.16,7A200.76,200.76,0,0,0,643,233.7a189.21,189.21,0,0,1,.9,19.05c.76,12.52.69,25.07.91,37.61,0,6.38-1.19,12.67-1.8,19-.48,4.17-1.4,8.27-1.8,12.45a42.56,42.56,0,0,1-1,6.05,58.79,58.79,0,0,1-5.1,11.88A38.19,38.19,0,0,1,627.81,350c-5.55,6.33-14.29,11.51-22.87,8.83-6.1-1.78-12.3-3.27-18.2-5.65-4.29-1.73-8.43-3.78-12.48-5.88a112,112,0,0,1-11.46-5.69,88.4,88.4,0,0,0-8.9-5.38,61.22,61.22,0,0,1-13.06-7.81c-3.47-2.26-7.18-4.1-10.6-6.44s-6.75-5.05-10.09-7.61c-2.49-2-5.17-3.65-7.69-5.57s-4.7-4.26-7.1-6.37c-3.26-2.61-7-4.61-10.07-7.44-3-2.63-5.52-5.7-8.57-8.26-3.23-2.77-6.74-5.18-9.93-8s-5.69-6-8.74-8.86-6.77-5.11-9.38-8.48c-.4-.54-.81-1.07-1.22-1.61a170.82,170.82,0,0,0,7.37,30.52c2.71,7.13,4.06,14.94,6.75,22C475,320.64,478.3,329,482,337.11c3.76,7.19,6.88,14.67,10.39,22,1.3,2.34,2.81,4.56,4.06,6.93a57.11,57.11,0,0,1,3.65,8.38c0,.12.06.24.08.35a2.31,2.31,0,0,1,.49,3.73c-1.5,1.52-3.89,1-5.81,1-2.42,0-4.84.08-7.25.12l-2.95.05c1.15,2.86,2.07,5.79,3.11,8.68,1.58,3.89,2.2,8,3.38,12a114,114,0,0,1,4,12.51c1.3,4.24,2.16,8.59,3.39,12.83,1.52,3.92,2.71,8,4.21,11.88a60.86,60.86,0,0,1,2.46,5.91c.66,2,1.13,4.12,1.77,6.15,1.65,4.69,4.16,9,5.67,13.74,1.59,4.26,1.75,8.85,3.16,13.16a79.82,79.82,0,0,1,2.66,9.48c.43,2.14,1.48,4.54.86,6.68a2.51,2.51,0,0,1-1.64,1.45c-.77,1.17-2.68,1.45-4.15,1.64-4.54.81-8.89,2.4-13.41,3.3l-1.62.37c.6,6.36.8,12.75.93,19.14.84,14.5,1.26,29,1.44,43.55.07,9.66,1.22,19.63,1.55,29.22,1.14,11.53,1.16,23.12,2.34,34.64.6,6.45.8,12.93,1.14,19.4.34,5.19,1.18,10.33,1.58,15.51.38,4.81.37,9.64.64,14.46.61,7.62,1.62,15.19,2.26,22.8.91,11.9,2.68,23.71,3.38,35.62a344.69,344.69,0,0,0,6.5,55.09c2.6,12.71,5.31,25.41,9.15,37.81.44,1.19.94,2.36,1.49,3.51h0l.22.3c1.31,1.74,2.41,3.63,3.82,5.3,2.94,3.26,7.13,5,11.21,6.4,2.7,1.13,6.21,1.44,7.93,4.07,2.67,5-3.34,8.83-7.6,9.83a19.07,19.07,0,0,1-6.82.27c-8.06-.66-15.08-4.24-22.05-8a44.24,44.24,0,0,1-7.59-5.5c-1.84-1.86-3-4.29-4.71-6.23q-1.91-2.07-3.71-4.23c.09.59.19,1.17.33,1.75.78,4,3.6,16.48-2.79,16.67a6.61,6.61,0,0,1-3.46-2.22,2.59,2.59,0,0,1-2.27-1.92c-3.85-12.81-8.64-25.3-12-38.26-2.48-10.14-4.76-20.35-7.75-30.35-1.11-3.36-2.29-6.69-3.17-10.11-2.74-10.41-5-20.91-6.79-31.53-3.12-14-6.5-28-9.51-42-1.48-7.1-2.21-14.32-3.31-21.49s-2.27-14.34-3.18-21.54c-2.1-14.45-4.63-28.84-6.54-43.31-1.7-13.2-2.05-26.51-3.75-39.71-.42-4.83-.59-9.67-.87-14.51-.48-7.47-1.6-14.87-2.41-22.31a85,85,0,0,0-2.39-13.25c-.62-2.79-.9-5.64-1.66-8.39-13.95,1.93-28,3.22-42,4.63.18,2.27.21,4.56.21,6.84-.06,5,1.3,9.81,1.47,14.76-.08,4.44-.24,8.89.86,13.24,1.15,6.33.41,12.54,1.58,18.77.32,8.51,1.9,16.9,2,25.4,0,4.33,1.42,8.46,1.94,12.72a64.94,64.94,0,0,1,.07,8.6c-.44,5.7-.4,12-3.93,16.83-4.73,6.19-12.53,9.19-19.94,10.7a61.17,61.17,0,0,1-7.66.29c-3.88.24-7.79.71-11.67.21-8.24-.9-16.3-1.82-24.46-3-6.19-1-12.3-2.45-18.54-3.1-9.29-1.32-18.35-3.9-27.65-5.13a206,206,0,0,1-23.33-4.75c-6.1-1.35-12.3-2.22-18.42-3.48-19.67-4-39.17-9.49-58.82-13.34-7.38-1.61-14.75-3.26-22.25-4.16-4.12-.82-7.76-1.74-11.81-2.46-2.91-.54-5.78-1.46-8.75-1.49a27.68,27.68,0,0,0-11.66,3.87c-2.41,1.7-4.74,3.52-7,5.4l-.19.2a97.16,97.16,0,0,0-8.48,10.2c-3.83,3.59-7.85,16.48-13.55,15.55a7.91,7.91,0,0,1-6.06-6.51c-.41-4.36,2.37-8.11,4.2-11.85,4.33-7.74,9.16-15.18,14-22.62,7.76-10.66,12-20.95,26-21.55-3.06-1.43-6-3.08-9.19-4.29-2.52-1.19-8-2.31-8.14-5.64a2.18,2.18,0,0,1,2-2.09,5.41,5.41,0,0,1,1.21.24,2.58,2.58,0,0,1,1.73-.71c2.85-.39,5.85.14,8.66.4,5-.8,9.92.51,14.89,1.07,6.51,1.37,11.92,5.55,17.7,8.61a2.69,2.69,0,0,1,1,1.08,3.12,3.12,0,0,1,2,.32,26.36,26.36,0,0,0,5.15.92c3.51.33,7-.1,10.51,0,6.24.26,12.77,1.06,19,.89,4.9-.44,9.79.17,14.7.19,7.95-.32,15.89-.77,23.85-.77,4.43-.26,8.88-.05,13.31-.06,8-.43,16-.28,24.07-.38,5.17-.3,10.33-.44,15.5-.54,4-.28,8-.59,12.09-.47,5.74,0,11.5.08,17.23-.46a2.63,2.63,0,0,1,1.85.53,15.1,15.1,0,0,1,2-.05,56.57,56.57,0,0,0-1.38-7.19c-2.34-9.69-4.63-19.39-6.24-29.24-1.08-7-2.52-13.9-3.17-20.92q-.63-.07-1.26-.18c-4.72-.9-9.62-1-14.25-2.28a3.14,3.14,0,0,1-2.12-3.48c-.66-4.32-.47-8.69-.48-13.05-.26-9-.44-18-.34-27.06-.17-8-.54-16,0-24,1.05-12.6,1.84-25.15,3.43-37.68.41-3.3.63-6.62,1-9.93.08-.52.14-1.1.24-1.68-2.72.39-5.44.73-8.16,1.06-4.2.57-8.37,1.34-12.57,1.87-1.95.22-3.89.43-5.85.48a3.41,3.41,0,0,1-2.56-.84,3,3,0,0,1-.33-3.42c.67-2,1.3-4,2.05-5.89,1.62-4.18,3-8.21,4.36-12.43,1.95-6.36,3.15-12.92,5-19.3,2.1-7.54,4.52-15,6.13-22.66,2.67-13,2-26.27,1-39.4-.23-6.41-.69-12.66-1.52-19-.21.17-.41.32-.61.46-1.33,1.6-2.43,2.95-3.72,4.51-2.18,2.62-4.08,5.44-6.09,8.19-2.19,2.9-4.8,5.46-7.15,8.23-1.54,1.94-3,3.95-4.72,5.77a113.8,113.8,0,0,0-9.13,11.08,129.86,129.86,0,0,0-8.63,10.93c-12.36,15.39-25.24,30.65-37.77,45.8-3.18,4.2-7,7.88-10.4,11.86-2.45,3.08-5.17,5.91-7.87,8.77a142.07,142.07,0,0,1-10.71,11.77A120.07,120.07,0,0,1,169.26,418c-7.51,6.08-17.39,10.47-26.85,6.2-3.81-1.6-6.4-5-8.33-8.49-8.44-14.71-7-36.07-5.16-52.44,2.1-20.84,2.66-41.81,4.71-62.65.57-5.14,1.49-10.24,2.28-15.35,1.64-10.4,2.15-20.91,3.31-31.37,1.16-10.25,1.6-20.58,2.93-30.82,1.44-9.17,2.6-18.37,4-27.55a75.56,75.56,0,0,0,1-8.63,4.17,4.17,0,0,1,.37-1.81,2.44,2.44,0,0,1,3.59-.86l.24-.11c3.84-1.69,7.64-3.49,11.35-5.45,3.51-1.76,7.09-3.36,10.67-5-.63-1.66.27-3.87.35-5.6a60.23,60.23,0,0,1,.5-9.86,48.35,48.35,0,0,0-1.59-14.57c-2.77-9.26-13.05-12.28-20.37-17.12a32.25,32.25,0,0,1-5.47-3.88c-2.64-3-6.89-8-3.21-11.71,1.93-1.56,4.68-1.34,7-1.17,3.72.08,6.94,1.94,10.22,3.5a33.93,33.93,0,0,1-3.14-4.12c-1.32-2-3.42-3.81-3.41-6.39-.09-3,2.79-4.93,5.5-5.1a9,9,0,0,1,4.85,1.3c2.72,1.38,5.53,2.77,7.66,5-1.51-3-6.42-10.43-4-13.3,2.83-2.69,7.67-1.72,11-.63,3.33.91,5.73,3.41,8.39,5.45a26.1,26.1,0,0,1,5.85,5.24c2.49,3,5.11,6,7.43,9.17,1.73,2.56,2.54,5.61,3.62,8.48,1.06,4.49,3,8.73,3.76,13.29.55,4,.34,8.1.57,12.15-.12,5-1.08,9.85-1.33,14.79l.55-.24c3.46-1.52,6.64-3.85,10.41-4.51a2.64,2.64,0,0,1,3.06,2.89l0,.05c1.31,6.7-.43,13.64-1.87,20.2-.7,5.38-1.76,11.3-2.75,16.48-1.21,8.32-1.7,16.77-3.44,25s-4.05,16.62-5.47,25.06c-1.88,12.27-5.41,24.17-7.67,36.36-2.71,10.57-3.64,21.45-6.14,32.07-1,5.75-1.71,11.06-2.82,16.6.88-1,1.61-1.89,2-2.39,2.68-3.62,5.12-7.41,8.1-10.8,3.7-4.64,7-9.55,11-14,2.59-3.35,4.91-6.91,7.64-10.16,4-4.93,7.4-10.26,11.47-15.11,4-5.16,7.7-10.49,11.74-15.58,3.41-5.58,7.64-10.58,11.09-16.11,3-5.35,6.79-10.3,9.43-15.86,2.77-6.5,5.79-12.89,8.61-19.37,1.67-4.56,2.19-9.49,4.33-13.89,1.45-3,3.58-7.3,7.54-6.38a22.55,22.55,0,0,1,2.37,1c1.82-.52,3.86-.49,5.69-1,4.32-.62,8.57-1.54,12.81-2.51,8.28-1.2,16.58-2.14,24.84-3.42a3.4,3.4,0,0,1,2.21.3,3.48,3.48,0,0,1,.51.34,2.39,2.39,0,0,1,.73.09c1.56.44,1.86,2.09,1.79,3.5v0c.08,1.7.18,3.38.28,5.07.3,6.56.08,13.14.65,19.68,1.14,28.67,3.36,57.29,5.77,85.88.87,9,2,18,3,27.05a9.77,9.77,0,0,1,3.63-1c3-.56,6-1.32,9-1.9a118.26,118.26,0,0,0,12.21-2.87c2.85-.65,5.76-.86,8.64-1.31,8-1.55,16.13-2.74,24.25-3.66,3.86-.53,7.75-1.54,11.45-1.9,1,0,2-.34,3.06-.23l.18,0c-2.37-13.61-4.77-27.23-7-40.87-1.84-15.09-3.4-30.21-6.45-45.11-1.39-7.33-2.12-14.76-3.43-22.1s-2.73-14.37-3.8-21.6h0c-.14-1.31-1.08-2.49-1.38-3.74-.66-.05-1.33-.12-2-.2a2.61,2.61,0,0,1-2-.61,2.18,2.18,0,0,1-.28-2.93,2.93,2.93,0,0,1,2.66-1.15c9.39.17,18.83.39,28.21-.19,6.26-.41,12.53.21,18.79,0a7.09,7.09,0,0,1,2.43.2,3.1,3.1,0,0,1,.62.38,2,2,0,0,1,1.9-.24,2.69,2.69,0,0,1,.34.17c.17-.33.34-.64.5-.92,1-2.2,2.23-4.85,4.86-5.37,3.75-.83,6.79,2.19,9.12,4.7,4,4.05,7.54,8.58,11.27,12.86,3.91,4.18,8.05,8.1,11.89,12.34a170.26,170.26,0,0,0,12.09,12.38c3.65,3.67,6.8,7.8,10.26,11.63,4.91,4.95,9.85,9.87,14.52,15,5.34,5.57,11.86,9.85,16.74,15.89a82.78,82.78,0,0,0,11,9.3c3.11,2.37,5.77,5.28,8.86,7.67,4.7,3.26,9.44,6.4,13.84,10.06,4.94,3.34,9.69,6.92,14.54,10.4l.05,0-.15-.62a343.06,343.06,0,0,1-7.25-47.53c-2-13-4.42-26-5.05-39.19-.54-6.06-.64-12.13-.63-18.21a13.71,13.71,0,0,1,.23-3.62,2,2,0,0,1,1.34-1.44,2.52,2.52,0,0,1,.27-.3c1.72-1.59,4.25-.33,6.29-.16a27.52,27.52,0,0,1,6.18,1.78l-.06-.65a67.78,67.78,0,0,1-.56-12.41c.11-3.43.49-7.16.71-10.5.35-6.52.52-13.37,3.93-19.15,1.56-3,3.94-5.36,5.8-8.12a34.28,34.28,0,0,1,3.41-5.23c1.66-1.58,3.72-2.7,5.52-4.13s3.52-2.62,5.35-3.84c5.6-3.51,12.12-5.17,18.07-8,3.34-1.56,6.69-3.19,10.14-4.46,0,.07,0,.14,0,.21l.19-.08a5.11,5.11,0,0,1,1.94-.64,4.46,4.46,0,0,1,1,0l.12,0,.15,0,.16-.11,0,0,0-.48a31.77,31.77,0,0,1,4.62-.93c8.73-.6,7.6,8.49,1.88,12C657.42,114.4,658.49,122.07,652,126Z"/><path d="M801.37,576.05a10.58,10.58,0,0,1-2.15-4.93,10.26,10.26,0,0,1,1.25-6.84,11.25,11.25,0,0,1,6.31-5,10.93,10.93,0,0,1,4.72-.28c2.27,0,4.57-.14,6.82-.26l9.25-.5c6.11-.32,12.22-.6,18.34-.88,12.42-.57,24.82-1.54,37.24-2.26,12.23-.7,24.48-1.22,36.72-1.85s24.55-1.31,36.82-2c25.1-1.37,50.2-2.57,75.3-3.82,24.6-1.22,49.19-2.57,73.78-3.85,12.64-.66,25.29-1.22,37.93-1.87q18.46-1,36.93-2c25-1.32,50-2.48,75-3.85q36.67-2,73.37-4c11.66-.6,23.31-1.33,35-2.07q8.8-.57,17.63-1.06c5.48-.3,11-.44,16.45-.83a.69.69,0,0,1,.19,0h.15a10.65,10.65,0,0,1,7.15,1.2,10.9,10.9,0,0,1-6.68,20.3c-2.15,0-4.32.25-6.46.37q-4.44.27-8.88.49c-6.18.32-12.36.58-18.53.83-12.28.5-24.56,1-36.83,1.67-24.58,1.3-49.16,2.48-73.74,3.71-25,1.26-50,2.71-75,4s-50.15,2.7-75.23,4c-24.69,1.29-49.38,2.53-74.07,3.88s-49.62,2.76-74.44,4q-18.84.93-37.68,1.92c-12.29.65-24.58,1.4-36.88,2-11.46.54-22.94.82-34.4,1.49-5.75.34-11.5.69-17.26,1-5.56.28-11.12.49-16.67.93l-.33,0a11.52,11.52,0,0,1-2.49.37h-.26A10.8,10.8,0,0,1,801.37,576.05Z"/><path d="M785,896.66a10.43,10.43,0,0,1-1.34-7.31c0-.39,0-.78,0-1.16-.09-.9-.2-1.8-.3-2.7-.35-3.92-.3-7.84-.47-11.77s-.38-7.87-.49-11.82c-.25-8.42-.76-16.82-1-25.24-.28-8.6-.54-17.19-.93-25.78-.38-8.42-.95-16.84-1.26-25.27-.65-17.66-1.54-35.29-2.35-52.94-.8-17.41-1.9-34.79-2.57-52.2-.34-8.88-.8-17.75-1.13-26.63-.32-8.69-.89-17.37-1.16-26.05-.21-6.75-.34-13.49-.72-20.22-.17-3.17-.28-6.33-.33-9.5,0-1.56,0-3.13.05-4.7a26.12,26.12,0,0,1,.44-4.58,11.11,11.11,0,0,1,3.78-6.16,10,10,0,0,1,12.1-.26,11.72,11.72,0,0,1,4.44,7.53c.18,1,.27,2,.38,3,.24,2.4.42,4.8.57,7.2.25,4.06.31,8.14.47,12.2.17,4.31.42,8.6.65,12.9s.38,8.82.52,13.23c.26,8.76.76,17.52,1.07,26.28s.71,17.46,1,26.19.51,17.21.79,25.82c.27,8.89.53,17.79.87,26.68.34,8.68.56,17.36.9,26s.87,17.51,1.13,26.27.45,17.23.84,25.84.94,17,1.18,25.48c.2,6.91.64,13.8.91,20.7.12,3.21.15,6.42.37,9.63a91,91,0,0,1,.22,9.34c0,.54,0,1.07,0,1.61a10.58,10.58,0,0,1-.88,7.92,10.36,10.36,0,0,1-8.64,5.3h-.32A10.34,10.34,0,0,1,785,896.66Z"/><path d="M1432.35,870.17a11.5,11.5,0,0,1-2.57-7.92,13.83,13.83,0,0,1,.12-2.24c-.08-1.09-.26-2.18-.33-3.25-.12-1.85-.08-3.71-.15-5.56-.16-4-.5-8-.76-12-.56-8.48-1-17-1.65-25.44-.68-8.66-1.16-17.33-1.71-26-.27-4.29-.67-8.58-.94-12.87s-.54-8.74-.81-13.11c-1.08-17.53-2.41-35-3.32-52.58-.16-3.11-.4-6.21-.69-9.3l0-.18c-1.78-17.86-2.46-35.8-3.74-53.7-.61-8.57-1.17-17.15-1.62-25.73s-1.06-17.2-1.45-25.8c-.18-3.86-.31-7.72-.49-11.58-.1-2-.2-4-.25-5.94,0-1.46,0-2.91.06-4.37a14.46,14.46,0,0,1,1.52-5.76,9.77,9.77,0,0,1,8.36-5.17,9.9,9.9,0,0,1,8.57,4.54c1.81,2.76,2.2,6,2.53,9.25.25,2.41.44,4.81.63,7.22.33,4.12.73,8.23,1.06,12.34.68,8.61,1.2,17.22,1.83,25.83s1.17,17.21,1.67,25.82,1.13,17.46,1.68,26.19l.84,13.34c.27,4.34.4,8.67.54,13,.28,8.79,1.12,17.56,1.65,26.33s1.07,17.75,1.66,26.62c.57,8.6,1.25,17.19,1.69,25.79s1.1,17.42,1.61,26.13c.5,8.5,1,17,1.51,25.5.47,7,.77,14,1.36,20.93.2,1.85.43,3.7.56,5.55.06.9.08,1.79.12,2.68.09.37.16.73.22,1.1a12.78,12.78,0,0,1,.16,1.59,10.9,10.9,0,0,1-.58,5.54,11.18,11.18,0,0,1-8.53,7,10.72,10.72,0,0,1-1.79.15A11.2,11.2,0,0,1,1432.35,870.17Z"/><path d="M782,597.75a9.57,9.57,0,0,1-4.66-1.85,12.4,12.4,0,0,1-2.44-2.2,12.22,12.22,0,0,1-2.39-5.33,14.22,14.22,0,0,1,.42-7,29.88,29.88,0,0,1,3.44-7.24,23,23,0,0,1,2.41-3,31,31,0,0,1,8.07-6.29,34.05,34.05,0,0,1,9.42-3.85,36.81,36.81,0,0,1,9.42-.77,23.42,23.42,0,0,1,2.37.2l.6.08a10.18,10.18,0,1,1-.28,20.27,9.88,9.88,0,0,1-3.24-.93c-.44.06-.87.11-1.3.19-.71.2-1.41.44-2.11.7l-.12,0-1.92.76a20.2,20.2,0,0,0-1.89.86q-1,.58-2,1.26c-.65.49-1.27,1-1.88,1.54-.27.28-.54.56-.8.85s-.33.42-.48.64l-.09.16v0c0,.37-.06.74-.09,1.11a11.26,11.26,0,0,1-.44,2.34,7.46,7.46,0,0,1-1,2.73,9.86,9.86,0,0,1-3.19,3.39,9.18,9.18,0,0,1-4.84,1.4A8.22,8.22,0,0,1,782,597.75Z"/><path d="M1418.18,576.56a9.57,9.57,0,0,1-6.83-7.93,9.47,9.47,0,0,1,.05-2.66c0-.12,0-.24,0-.36a8.9,8.9,0,0,1,.51-2c0-.21,0-.41,0-.61-.17-.66-.36-1.32-.57-2-.13-.35-.27-.7-.42-1l-.08-.15c-.32-.66-.65-1.31-1-1.93s-1-1.41-1.48-2.12l-.31-.46.5.75.13.19c-.3-.44-.6-.88-.94-1.29l-1.6-1.81-1.05-1.18c-.92-.74-1.85-1.45-2.56-2-.39-.34-.77-.66-1-.82l-.34-.28-.35-.23c-.58-.39-1.16-.77-1.74-1.18A8.9,8.9,0,0,1,1400,530a9.24,9.24,0,0,1,4.93.78,13.76,13.76,0,0,1,2.8.56,32.47,32.47,0,0,1,5.41,2.3,16.14,16.14,0,0,1,3.11,2c.64.54,1.26,1.1,1.88,1.66a25.24,25.24,0,0,1,5.13,5.14,32.7,32.7,0,0,1,3.51,5.43,41.77,41.77,0,0,1,2.32,5.68c.32,1.12.66,2.22.89,3.37a29.15,29.15,0,0,1,.54,4.76,23.39,23.39,0,0,1-.12,4.59,11.84,11.84,0,0,1-1.5,6,9.58,9.58,0,0,1-8.21,4.67A9.38,9.38,0,0,1,1418.18,576.56Z"/><path d="M105.12,217.86a6.75,6.75,0,0,1-1.08-.43c-.27-.13-.54-.29-.81-.44-.43-.23-.89-.42-1.32-.64-.66-.34-1.31-.7-2-1a3.12,3.12,0,0,1-.72-.21,5.64,5.64,0,0,1-1-.64c-.82-.58-1.62-1.19-2.45-1.78-1.75-1.23-3.53-2.43-5.29-3.65s-3.64-2.58-5.47-3.85-3.57-2.44-5.37-3.63c-3.56-2.38-7.07-4.84-10.57-7.31s-7-4.76-10.5-7.17-7.13-4.93-10.71-7.36-7.25-5-10.89-7.5-7.27-4.82-10.86-7.31-7.2-5-10.83-7.52c-3.07-2.1-6.17-4.14-9.24-6.22-1.47-1-3-2-4.41-3-.21-.14-.42-.3-.62-.46a3,3,0,0,1-.86-1.27,3.2,3.2,0,0,1,.22-2.39,3,3,0,0,1,1.07-1.31c1-1.39,2-2.72,3.06-4,1.4-1.75,2.77-3.52,4.14-5.29,2.64-3.44,5.25-6.9,7.88-10.35,5.42-7.1,10.89-14.18,16.25-21.32l2.22-3c.3-.41.6-.81.71-.94,2.61-3.5,5.24-7,7.82-10.52,1.69-2.3,3.38-4.58,5.08-6.87a1.94,1.94,0,0,1,.21-.29l2.78-3.73,6-7.94.76-1c1.61-2.14,3.19-4.3,4.78-6.46s3.45-4.57,5.14-6.82c2.25-3,4.47-6.08,6.71-9.12s4.43-6,6.67-8.94C87,28.93,92.37,21.68,97.79,14.47l2.06-2.73a6.26,6.26,0,0,1,.45-.6l.22-.3.82-1.1.15-.2c.6-.8,1.19-1.61,1.78-2.41Q104.86,5,106.4,2.78c.34-.49.69-1,1.06-1.43a3.44,3.44,0,0,1,3.28-1.3,7.17,7.17,0,0,1,1.39.44,4.3,4.3,0,0,1,1.15.63,2.2,2.2,0,0,1,.31.3l.55.33,1.43.84c1,.56,1.91,1.12,2.88,1.67l5.88,3.35c3.8,2.15,7.62,4.25,11.38,6.46,3.23,1.9,6.44,3.82,9.69,5.68l-.35.58c-.62,1-1.25,2.06-1.85,3.11l-.36.64c-3-1.7-6-3.37-9-5q-3.06-1.71-6.09-3.48c-3.08-1.78-6.15-3.59-9.22-5.37-2.19-1.27-4.37-2.53-6.56-3.75-.31-.18-.62-.37-.94-.53l-.2-.05a1.47,1.47,0,0,0-.1.13c-.49.59-1,1.2-1.43,1.8q-1.65,2.13-3.26,4.28l-.29.38-.21.28,0,.06-.45.6-.94,1.26-1.69,2.28c-2.42,3.25-4.84,6.5-7.14,9.57L87.73,36.57C85.14,40,82.58,43.5,80,47s-5.15,6.74-7.57,10l-4.78,6.45C66,65.51,64.4,67.64,63,69.51c-3.24,4.35-6.47,8.72-9.52,12.79a13.89,13.89,0,0,1-.88,1.18l-.05.06C49.93,87,47.27,90.47,44.66,94l-.2.25a.24.24,0,0,1-.06.08l-.12.18-.05.06-.06.07-7.91,10.62c-2.68,3.6-5.45,7.14-8.19,10.7-5.37,7-10.78,13.91-16.12,20.91-.69.9-1.38,1.8-2,2.67-1.35,1.82-2.67,3.71-4.12,5.47,2.81,1.93,5.6,3.86,8.38,5.83,3.49,2.48,7.05,4.85,10.61,7.24s7.35,5,11,7.56,7.14,4.94,10.74,7.35,7.31,5,11,7.51,7.07,4.78,10.58,7.22,7,4.73,10.55,7.11,7.09,5,10.7,7.37q3.72,2.46,7.4,5c1.18.8,2.37,1.59,3.57,2.35.46.3.94.58,1.38.9a3.58,3.58,0,0,1,.92.9l.18.32.09.1,1,.53c.54.3,1.1.57,1.65.85,1.19-1.62,2.33-3.28,3.5-4.93s2.46-3.4,3.7-5.1c2.5-3.43,5-6.86,7.49-10.29q7.8-10.68,15.55-21.4c5.1-7.05,10.24-14.08,15.34-21.13q3.88-5.37,7.76-10.77c2.23-3.11,4.5-6.2,6.73-9.32l.53.4c.9.67,1.82,1.28,2.75,1.89a3.11,3.11,0,0,0,.38.25l.33.22q-1.5,2-3,4.07c-2.58,3.52-5.19,7-7.77,10.54q-7.76,10.59-15.49,21.2c-2.63,3.6-5.27,7.19-7.89,10.81s-5.24,7.13-7.83,10.71-5.08,7-7.61,10.46-4.93,6.82-7.45,10.19c-.91,1.23-1.83,2.45-2.64,3.53-.3.42-.62.82-.91,1.24l-.48.7a7.36,7.36,0,0,1-.54.83,2.58,2.58,0,0,1-1.74.8l-.23,0A3.52,3.52,0,0,1,105.12,217.86Z"/><path d="M173.14,125a4.12,4.12,0,0,0-1.82-2.2h0c-.13-.08-.26-.14-.4-.21l1.62-2.25c1,1.11,2.08,2.2,3.14,3.29l.39.44-1.4,1.88Z"/><path d="M179.35,113.83c-.44-.36-.92-.68-1.35-1l1.95-2.73.09.14c.76,1.19,1.49,2.41,2.22,3.63.2.36.38.72.58,1.07l-.78,1-.13.18C181.1,115.34,180.25,114.57,179.35,113.83Z"/><path d="M187.63,99.32q4.65-6.43,9.34-12.83c4.93-6.75,9.82-13.53,14.8-20.24l1.38-1.85a16.19,16.19,0,0,1-1.7-1l-.07,0c-.83-.45-1.65-.92-2.47-1.39l-1.34-.76L203,58.63c-3.92-2.19-7.76-4.53-11.66-6.74s-7.76-4.42-11.63-6.66q-2.37-1.38-4.75-2.73c.71-.92,1.48-1.8,2.24-2.68l1-1.18,3.31,1.9c3.85,2.19,7.71,4.38,11.54,6.62s7.75,4.34,11.59,6.59c1.7,1,3.39,2,5.1,3l2.52,1.45,1.46.88c.41.2.81.4,1.2.63s.91.56,1.37.82l.07,0a3.41,3.41,0,0,1,.6.24c.13,0,.27.05.4.09a3.25,3.25,0,0,1,1.2.68,2.73,2.73,0,0,1,.17,4,14.89,14.89,0,0,1-.84,1.28c-.61.87-1.24,1.74-1.87,2.62-1.22,1.71-2.44,3.41-3.68,5.11-2.41,3.32-4.84,6.62-7.25,10q-6.76,9.36-13.6,18.68C190.21,101.92,188.93,100.61,187.63,99.32Z"/><path d="M102.36,205.37c-.88-.51-1.72-1.09-2.57-1.65l-4.74-3.09c-3.37-2.2-6.73-4.39-10.09-6.6q-10-6.57-20.07-13.12l-20-13.09c-6.62-4.34-13.27-8.65-19.89-13l-3.73-2.45-2-1.29c-.48-.31-1-.63-1.44-.92l-.13-.06a1.91,1.91,0,0,1-.87-.86,2.34,2.34,0,0,1-.19-1.74,7.17,7.17,0,0,1,1.19-1.89l.9-1.19c1.28-1.69,2.57-3.37,3.78-5l.2-.27,1-1.39.12-.17.07-.09.11-.15.23-.31q1.77-2.4,3.55-4.78l.07-.11c3.64-4.89,7.3-9.76,10.92-14.66q7.29-9.83,14.6-19.64L56.29,94c1.93-2.63,3.86-5.28,5.8-7.91l.06-.08.42-.57L64.7,82.5l.18-.24.12-.17,2.7-3.65.46-.63.56-.76.4-.54,0-.06c.17-.23.34-.46.49-.68s.31-.4.46-.61l.07-.09,0-.06.38-.51.09-.13c4.81-6.51,9.61-13,14.47-19.51,1.57-2.09,3.14-4.18,4.65-6.21l10.31-14c1.73-2.35,3.44-4.72,5.05-6.89s3.2-4.35,4.81-6.52c.79-1.05,1.58-2.11,2.38-3.16.36-.49.73-1,1.11-1.46a3.79,3.79,0,0,1,.32-.38,2.45,2.45,0,0,1,0-.27,1.85,1.85,0,0,1,.89-1.27s0,0,0,0,.26-.28.4-.41.22-.18.32-.28l.3-.32.31-.29c.3-.31.6-.63.8-.82l.12-.13h0c.15-.16.31-.32.45-.49l.56-.85c.13-.18.26-.35.38-.54a2.59,2.59,0,0,1,.17-.38l.12-.19.26-.34a6.43,6.43,0,0,1,.64-.82,2.09,2.09,0,0,1,2-.46,19.78,19.78,0,0,1,1.79.88q2.17,1.11,4.33,2.24c3.18,1.66,6.39,3.29,9.6,4.9,1.81.91,3.58,1.88,5.39,2.77l2.33,1.17c-.62,1-1.25,2.06-1.85,3.11l-.23-.12-2.39-1.25c-.9-.47-1.82-.91-2.72-1.36-1.78-.89-3.54-1.8-5.3-2.71l-4.8-2.45-1.67-.84c-1.07-.54-2.16-1.05-3.22-1.6-.46-.23-.91-.47-1.36-.71a1.68,1.68,0,0,1-.21.18c-.2.3-.4.6-.61.89s-.39.55-.6.8a8.53,8.53,0,0,1-.65.69l-.82.83c-.22.23-.44.46-.67.68l-.26.31a3.87,3.87,0,0,1-.4.41,1.65,1.65,0,0,1-1.11.89,7.61,7.61,0,0,1-.51.75c-.55.78-1.11,1.55-1.67,2.31q-1.74,2.38-3.5,4.74-3.57,4.83-7.18,9.62c-2,2.69-4,5.41-6,8.11s-4.09,5.48-6.09,8.18c-2.39,3.25-4.75,6.52-7.15,9.76s-4.81,6.5-7.22,9.74q-2.06,2.79-4.13,5.57l-.11.15q-5.06,6.8-10.1,13.58c-2,2.64-3.94,5.25-5.86,7.86-3.38,4.59-6.76,9.18-10.1,13.68l-.74,1c-2.54,3.46-5.1,6.9-7.63,10.33s-4.84,6.61-7.15,9.73l-.61.83,0,0-.11.15-3.76,5.07a1.33,1.33,0,0,1-.14.19l0,0L23.75,143c-1.15,1.58-2.31,3.15-3.44,4.73.43.29.88.57,1.32.85L24,150.1l5,3.25c3.29,2.12,6.57,4.28,9.85,6.42q10,6.58,20.13,13.14c6.63,4.31,13.28,8.6,19.9,12.93S92.26,194.57,99,198.93q2.27,1.47,4.51,3l.52-.69c2.27-3.11,4.43-6.3,6.68-9.42l6.75-9.38c2.3-3.17,4.58-6.35,6.87-9.53s4.6-6.33,6.89-9.49c4.64-6.42,9.32-12.82,14-19.23,2.38-3.3,4.75-6.61,7.14-9.91,2.22-3.07,4.46-6.14,6.69-9.22.94.65,1.88,1.3,2.77,2-1,1.32-1.91,2.64-2.86,4-4.68,6.52-9.39,13-14.07,19.52s-9.26,12.86-13.87,19.3-9.11,12.65-13.69,19l-4.15,5.74c-1.35,1.86-2.75,3.69-4.09,5.5-.67.91-1.33,1.82-2,2.74l-.83,1.2a4.65,4.65,0,0,1-.63.83,2.76,2.76,0,0,1-.77.67,2.05,2.05,0,0,1-1.07.29A2.65,2.65,0,0,1,102.36,205.37Z"/><path d="M163.86,118.19l2.74-3.83a3.46,3.46,0,0,0,.22-.31c.82.87,1.62,1.76,2.41,2.65l-2.47,3.41Z"/><path d="M173.15,108.82c-.53-.44-1.05-.88-1.62-1.28l2.27-3.14c.41-.57.82-1.15,1.24-1.72.7,1,1.41,2.06,2.08,3.12l-2.86,4Z"/><path d="M181.29,94c2.22-3.08,4.45-6.17,6.69-9.24q3.51-4.83,7-9.69c1.11-1.55,2.26-3.09,3.37-4.65.93-1.31,1.8-2.67,2.78-4,.17-.24.35-.47.37-.51a9.87,9.87,0,0,0,.64-.95l.08-.17a4.93,4.93,0,0,1,.64-1l.73-1c.28-.38.54-.77.83-1.15.13-.18.26-.37.4-.54l-.69-.42L203,60.1c-1.39-.88-2.8-1.72-4.21-2.56s-3-1.85-4.55-2.75-3.28-1.95-4.91-2.94-3.34-2-5-3-3.24-2-4.83-3.08l-4.66-3.07a1.33,1.33,0,0,1,.14-.19c.71-.92,1.47-1.8,2.24-2.68,2.57,1.66,5.16,3.29,7.71,5,1.63,1.09,3.32,2.07,5,3.06s3.37,2,5.05,3,3.28,1.94,4.92,2.91,3.19,1.94,4.8,2.83l1.36.79.51.29c.19.11.36.23.51.33l0,0,.33.17a5.22,5.22,0,0,1,.48.34,3.17,3.17,0,0,1,1.23,1.75,2.38,2.38,0,0,1-.18,1.51.7.7,0,0,1-.09.17c-.12.22-.27.42-.41.63s-.33.47-.5.7-.36.52-.55.77l-.74,1-.56.81A7.26,7.26,0,0,1,205.3,67l-.18.17c-.16.19-.32.38-.47.58-.57.79-1.09,1.61-1.69,2.38s-1.15,1.48-1.61,2.11c-1.08,1.48-2.14,3-3.21,4.47l-3.53,4.86c-2.34,3.24-4.65,6.5-7,9.73L184.2,96A11.38,11.38,0,0,0,181.29,94Z"/><path d="M107.83,55.57a31.61,31.61,0,0,1-6.1-3.88c-1.27-.81-2.39-2.12-1.21-3.54,1.86-2.58,3.48-5.55,5.91-7.6a2.2,2.2,0,0,1,2.32.3c1.11.77,2.26,1.46,3.37,2.21,1.27.84,3.6,2.07,2.38,3.86.83,1.73-1.25,3-2,4.38C111.18,52.86,110.27,55.76,107.83,55.57Zm0-3.61c1.25-1.7,2.44-3.44,3.64-5.17-1.3-.86-2.63-1.68-4-2.52-1.29,1.52-2.38,3.2-3.67,4.71Q105.87,50.51,107.87,52Z"/><path d="M91.36,79.72c-2.28-.59-8.19-3-7.91-5.79.61-1.72,2-3.1,3.09-4.53,1.54-1.51,3.08-4.62,5.64-3.45,1.61.71,6.42,3.8,5.59,5.81.89,1.42-.59,2.63-1.35,3.7C95.05,77.05,94,80.52,91.36,79.72Zm.2-3.37c1-1.45,2-3,2.92-4.47a19.81,19.81,0,0,0-3.19-2.6,40.41,40.41,0,0,0-4,4.58c1,.67,2,1.32,3,1.89C90.7,76,91.13,76.17,91.56,76.35Z"/><path d="M74.57,108.08c-1.77-.68-3.72-.94-5.28-2.14-1.29-1-3.17-1.65-3.67-3.33a2.32,2.32,0,0,1,.43-1.81,29.38,29.38,0,0,1,2-3.16c1.47-1.71,3.31-5.85,6-4C76.36,95.19,79.4,97,80,99.86c1.24,1.24.18,2.83-.74,3.89C77.91,105.26,77,108.23,74.57,108.08Zm0-3.44a38.18,38.18,0,0,0,2.38-4,31,31,0,0,0-4-3.61c-1.42,1.55-2.4,3.08-3.67,4.63A28.26,28.26,0,0,0,74.54,104.64Z"/><path d="M54.28,137.66a23.65,23.65,0,0,1-5.43-2.8c-1.37-.77-3.25-2.32-2.05-4,1.17-2.15,2.56-4.17,3.66-6.19a2.69,2.69,0,0,1,1.34-1.47,2.3,2.3,0,0,1,1.67.15,33.39,33.39,0,0,1,5,3.11c1,.88,3.16,1.5,2.5,3.16.92,1.48-.54,2.82-1.45,3.87-.71.88-1.45,1.74-2.14,2.63S55.61,138.15,54.28,137.66Zm-2.51-5.17c.53.34,1,.69,1.57,1s.86.55,1.31.8c1.12-1.5,2.14-2.88,3.14-4.44-.45-.26-.88-.55-1.32-.82-1.13-.7-2.23-1.43-3.37-2.1-.46.78-.92,1.56-1.41,2.32s-.92,1.48-1.41,2.21C50.78,131.83,51.27,132.17,51.77,132.49Z"/><path d="M155.37,78.17a93,93,0,0,1-8-5.22,68.5,68.5,0,0,1-8.24-5.15c-2.81-1.86-6-3.15-8.63-5.22s-6-3.2-8.54-5.41a2.66,2.66,0,0,1-1.16-1.65,1.47,1.47,0,0,1,2.59-1.08,33.83,33.83,0,0,0,5.61,3.63c3.29,1.93,6.39,4.13,9.83,5.79,1.83,1.07,3.41,2.3,5.12,3.5,2.58,1.54,5.3,2.83,7.73,4.6,1.74,1.13,3.58,2.11,5.39,3.1a2,2,0,0,1,1,1A1.81,1.81,0,0,1,155.37,78.17Z"/><path d="M152.77,83.73c-1.73-.79-3-2.4-4.61-3.37-1.35-.9-2.82-1.61-4.23-2.4s-2.68-1.92-3.88-2.73c-2.29-1.52-4.86-2.6-7.08-4.25s-5-2.54-7.34-4c-1.43-.91-2.8-1.93-4.12-2.85-1.44-1.11-3.35-1.74-4.48-3.21-.79-1.91,1.27-2.76,2.71-1.56,3.18,1.61,5.84,4,9,5.74,3.21,1.31,6,3.35,8.88,5.07a42.75,42.75,0,0,1,7.08,4.41c1.89,1.2,4.06,2.13,5.88,3.42,1.37,1.11,3.05,1.95,4.32,3.1A1.74,1.74,0,0,1,152.77,83.73Z"/><path d="M135.66,101.36a59.82,59.82,0,0,0-6.78-4.49c-7.45-5.34-15-9.94-22.8-14.76a6,6,0,0,1-1.65-1.2,1.47,1.47,0,0,1,1.73-2.24c3.88,2,7.5,4.55,11.4,6.57C121.71,88,126,90.49,130,93.45c3.24,2.15,7.17,3.72,9.62,6.78a1.76,1.76,0,0,1-1.63,2.42A4.09,4.09,0,0,1,135.66,101.36Z"/><path d="M134.17,107.66c-2.72-1.9-5.7-3.39-8.34-5.43-3.12-1.89-6.12-3.24-8.92-5.52-2.44-1.55-5.46-2.75-7.72-4.46-2.61-1.92-5.45-3.14-8.09-5A2.29,2.29,0,0,1,100,85.5a1.49,1.49,0,0,1,2.23-1.25,99,99,0,0,1,9.09,5.27c2.1,1.51,4.55,2.4,6.77,3.7,2,1.18,3.69,2.7,5.74,3.74a39.74,39.74,0,0,1,7,4.27c1.8,1.14,3.71,2.09,5.45,3.31a2,2,0,0,1,.88,1.15A1.9,1.9,0,0,1,134.17,107.66Z"/><path d="M116.94,129.29a34.33,34.33,0,0,0-4.72-3.29c-2.17-1.26-4-3-6-4.43-4-2.27-7.44-5.35-11.49-7.54-2.44-1.57-4.76-3.32-7.29-4.76-1.14-.83-3.13-1.49-3-3.18a1.52,1.52,0,0,1,2.12-1.15c6,3.88,12.38,7.39,18.07,11.78a70.76,70.76,0,0,1,8.41,5.83c1.64,1.28,7.86,3.77,6.07,6.33A1.64,1.64,0,0,1,116.94,129.29Z"/><path d="M114.79,135.08c-3-.72-5.1-3.35-7.67-5s-4.93-3-7.25-4.77a97.35,97.35,0,0,1-10-6.53c-2.89-2-6.26-3.41-8.76-5.89a1.5,1.5,0,0,1,1.76-2.27,128.36,128.36,0,0,1,13,8.42,96.46,96.46,0,0,1,8.85,5.55c3.5,2,6.65,4.48,10,6.61a4.61,4.61,0,0,1,1.59,1.21A1.65,1.65,0,0,1,114.79,135.08Z"/><path d="M95.14,156.38a2.44,2.44,0,0,1-1.62-.72c-3.73-2.62-7.53-5-11.23-7.66-5.39-4.14-11.28-7.28-16.62-11.41a1.62,1.62,0,0,1,.32-2.88,2,2,0,0,1,1.82.63c4.28,2.76,8.63,5.55,12.75,8.42s8.18,5.8,12.47,8.53c1.2,1,3.09,1.56,3.65,3.11A1.59,1.59,0,0,1,95.14,156.38Z"/><path d="M91.52,161.83c-3.68-3.13-7.94-5.54-11.87-8.32a97,97,0,0,1-9.74-6.19c-2.58-1.64-5.13-3.35-7.56-5.23-.89-.74-2.39-1.49-2.06-2.87h0c1-2.41,3.5.05,4.8.93,4.23,3,8.25,5.71,12.54,8.5a52.68,52.68,0,0,1,7.24,4.6c2.89,2,6.09,3.57,8.79,5.81A1.77,1.77,0,0,1,91.52,161.83Z"/><path class="cls-2" d="M183.59,31c.61,1.2-.49,2.22-1.14,3.07-1.14,1.48-2.19,3-3.35,4.5-.28.35-.57.7-.86,1l-1,1.17c-.76.88-1.53,1.76-2.24,2.68a1.33,1.33,0,0,0-.14.19c-.23.29-.45.6-.67.91a38.88,38.88,0,0,1-3.65,3.94,2,2,0,0,1-1.43.51c-2-.32-3.66-1.49-5.4-2.42s-3.8-1.95-5.62-3.07c-3.63-1.93-7.54-3.31-11-5.61-2.56-1.47-5.46-2.62-7.49-4.82-1.58-1.86.95-3.54,1.73-5.23.48-.95,1-1.88,1.5-2.81l.36-.64c.6-1.05,1.23-2.08,1.85-3.11l.35-.58c1-1.66,2-3.32,3-5a2,2,0,0,1,2.15-1.86c.89,0,1.4.69,2.09,1.11,4.65,2.17,9.16,4.63,13.79,6.88s9,4.41,13.43,6.68C181.09,29.31,182.76,29.74,183.59,31Z"/><path class="cls-2" d="M889.38,100.67c1.41,5.57-.42,11.39-2.33,16.62-1.86,4.93-6,8.5-9.95,11.77A27.24,27.24,0,0,1,863,134.77c-3.28.49-6.42,1.62-9.69,2.15a100.8,100.8,0,0,1-19.87.73c-3.29-.3-6.51-1.06-9.75-1.67a53.43,53.43,0,0,1-6.94-1.54c0,.1,0,.2,0,.3l1.17,22.51q.59,11.22,1.18,22.43c.17,3.24.33,6.49.5,9.73.08,1.6.17,3.21.26,4.81,0,.93.1,1.87.13,2.81a1.67,1.67,0,0,0-.59.49l-.42.08h-.27a1.06,1.06,0,0,0-.08,2.12H819l.42.06a2.39,2.39,0,0,1-1.44.92,13.86,13.86,0,0,1-1.58.16l-1.31.1c-1.82.14-3.65.27-5.48.38l-11,.73-21.06,1.41L754.9,205l-23,1.57c-7.76.53-15.52,1-23.27,1.59s-15.51,1.05-23.26,1.6-15.59,1.09-23.38,1.59q-5.75.38-11.5.8l-1,.07h-.21a3.48,3.48,0,0,1-1-.15,2.78,2.78,0,0,1-1.71-1.44,4.86,4.86,0,0,1-.35-2.07c-.13-1.85-.26-3.7-.38-5.54q-.72-11.13-1.46-22.26-.76-11.4-1.54-22.82-.5-7.46-1-14.92l0-.41.18-.06a21.91,21.91,0,0,0,2.48-1c.32-.15.64-.28,1-.4l0,.39a41.8,41.8,0,0,0,4.5-2.23,19.37,19.37,0,0,0,6.08-4.66,4.7,4.7,0,0,0,1.48-2.45A5.58,5.58,0,0,0,652,126c6.49-3.9,5.42-11.57-2.61-11.69,5.72-3.56,6.85-12.65-1.88-12a31.77,31.77,0,0,0-4.62.93l0,.48,0,0-.16.11-.15,0-.12,0a4.46,4.46,0,0,0-1,0,5.11,5.11,0,0,0-1.94.64l-.19.08c0-.07,0-.14,0-.21q-.49-7.17-1-14.34-.78-11.31-1.55-22.63l-1.44-22q-.24-3.52-.47-7.05L634.6,35a6.68,6.68,0,0,1,0-1.73s0-.06,0-.09a2.1,2.1,0,0,1-.16-.62,2,2,0,0,1,1.81-2.18c.28,0,.55-.05.83-.06s.69-.07,1-.11l1-.08c1.39-.15,2.78-.27,4.18-.41,3.53-.35,7.06-.67,10.59-1l22.52-2.13,5.74-.54c2-.19,4-.2,6-.24,3.85-.07,7.7-.11,11.55-.15,7.63-.07,15.28-.22,22.91-.32S738,25.06,745.68,25s15.18-.26,22.77-.35,15-.25,22.55-.32c5.39-.05,10.78-.11,16.11-.25a9.29,9.29,0,0,1,1.75,0,2.76,2.76,0,0,1,1,.37l-.54,0h-.23a2,2,0,1,0,.11,4c.68-.06,1.37-.09,2-.13.08,1.62.17,3.23.26,4.84.2,3.72.38,7.44.57,11.16q.55,11.31,1.16,22.61c.2,3.73.37,7.46.56,11.19s.39,7.47.58,11.21c0,.1,0,.19,0,.29a58,58,0,0,1,5.84-3.79,73,73,0,0,1,16.82-6.68,70,70,0,0,1,15.14-1.38,91.63,91.63,0,0,1,10,1.34,26.32,26.32,0,0,1,10,3.11c2.92,1.78,6.19,3.16,8.64,5.6C884.12,91.79,887.92,95.64,889.38,100.67Z"/><path d="M1037.09,106.47c3.2,9.8-1.53,19.87-4.59,29.1-1.69,5.48-3.73,10.82-5.73,16.19a17.06,17.06,0,0,1-.64,1.86,16.21,16.21,0,0,0-3.25-1.26c-.59-.18-1.19-.35-1.79-.51h0c1.35-3.91,2.86-7.77,4.35-11.63,2.19-6.59,4.89-13,6.68-19.73,1.7-5.61,2.53-12.89-2.57-17a68.48,68.48,0,0,0-9.25-4.77c-10.72-4-21.87-7.41-33.37-7.89-5.37-.06-11.53-1.26-16.34,1.69a0,0,0,0,0,0,0c3.95,2.36,8.77,2.6,13.09,4.07a82.18,82.18,0,0,1,9.38,3.43h0a2.29,2.29,0,0,1-.28,4.39,3.1,3.1,0,0,1-1.87-.31c-1.19-.24-2.37-.36-3.48-.5-5-.59-19.19-1.44-22.81,2.08l0,0v0c.81,1.22,2.3,1.77,3.57,2.43,4.76,2.08,9.48,2.71,14.43,3.85,3.89.84,7.71,2.11,11.7,2.39h0a2.23,2.23,0,0,1,1.11,4,3.48,3.48,0,0,1-2.74.26,22,22,0,0,0-4.44-.33c-4.21.53-14.89-2.06-17,2,.52,2.53,5.24,2.88,7.29,3.9A53.7,53.7,0,0,0,996.91,128a26.11,26.11,0,0,0,5.3-.53,2.24,2.24,0,1,1,2.51,3.7l-.24.09c-.36,1.28-1.39,2.63-1.72,3.68-1.1,2.94-2,6-3.57,8.69-.75,1-1.18,2.9-1.91,4.27-1.47-.16-2.95-.26-4.4-.53a5.37,5.37,0,0,1,.65-2.39c.76-1.91,1.61-3.79,2.44-5.67a64.85,64.85,0,0,1,2.64-7c-4,.07-8.08-.86-11.9-1.55a50,50,0,0,1-5.68-1.52l.12,5.2c.06,1.82.23,3.63.37,5.44s.28,3.71.43,5.57c.26,3.33.49,6.67.74,10,0,.31,0,.62.07.93.56,7.19,1.09,14.38,1.64,21.56.19,2.52.4,5,.59,7.54.1,1.26.19,2.51.27,3.77,0,.52.07,1,.1,1.57l0,.4a4.17,4.17,0,0,1,0,.5,3.58,3.58,0,0,1-.16,1.92,2.46,2.46,0,0,1-1.76,1.32,9.15,9.15,0,0,1-1.57.12c-1.87.09-3.75.16-5.63.24l-11.08.45-6.06.25q-8.19.34-16.37.66c-7.34.29-14.68.6-22,.88s-14.92.58-22.38.88-15.22.57-22.83.87c-3.77.15-7.54.34-11.32.39s-7.34.13-11,.21c-7.52.16-15,.29-22.57.45l-4.51.08c-1.44,0-2.88,0-4.32,0-.27,0-.54,0-.82,0h-.06a2,2,0,0,1-1.47-.67h0l-.42-.06h-.39a1.06,1.06,0,0,1,.08-2.12H819l.42-.08A1.67,1.67,0,0,1,820,197c0-.94-.09-1.88-.13-2.81-.09-1.6-.18-3.21-.26-4.81-.17-3.24-.33-6.49-.5-9.73q-.58-11.22-1.18-22.43l-1.17-22.51c0-.1,0-.2,0-.3a53.43,53.43,0,0,0,6.94,1.54c3.24.61,6.46,1.37,9.75,1.67a100.8,100.8,0,0,0,19.87-.73c3.27-.53,6.41-1.66,9.69-2.15a27.24,27.24,0,0,0,14.11-5.71c4-3.27,8.09-6.84,9.95-11.77,1.91-5.23,3.74-11.05,2.33-16.62-1.46-5-5.26-8.88-8.51-12.84-2.45-2.44-5.72-3.82-8.64-5.6a26.32,26.32,0,0,0-10-3.11,91.63,91.63,0,0,0-10-1.34,70,70,0,0,0-15.14,1.38,73,73,0,0,0-16.82,6.68,58,58,0,0,0-5.84,3.79c0-.1,0-.19,0-.29-.19-3.74-.39-7.48-.58-11.21s-.36-7.46-.56-11.19q-.62-11.31-1.16-22.61c-.19-3.72-.37-7.44-.57-11.16-.09-1.61-.18-3.22-.26-4.84-.68,0-1.37.07-2,.13a2,2,0,1,1-.11-4h.23l.54,0c3.22-.1,6.43-.27,9.65-.42,3.45-.17,6.91-.31,10.36-.46l22.13-1c3.76-.16,7.52-.29,11.27-.45s7.66-.35,11.48-.51l22.46-1c7.5-.32,15-.62,22.49-.95s14.91-.66,22.37-1l22.14-1,5.27-.23,2.57-.11c.63,0,1.27,0,1.86-.09a4.43,4.43,0,0,1,.51-.06,4.71,4.71,0,0,1,2.73.52,3.14,3.14,0,0,1,1,1.12,3.49,3.49,0,0,1,.31,1.63l0,1.41c0,1.75.09,3.5.13,5.26.08,3.65.17,7.31.25,11q.27,11,.51,21.94c.15,7.44.35,14.88.53,22.32l.1,4.17c1.48,0,3,0,4.37,0a88.81,88.81,0,0,1,26.07,4.21,91.35,91.35,0,0,1,15.43,5.49C1030.7,98.32,1035.37,101.31,1037.09,106.47Z"/><path class="cls-2" d="M417.52,312.11l-.18,0c-1-.11-2,.24-3.06.23-3.7.36-7.59,1.37-11.45,1.9-8.12.92-16.22,2.11-24.25,3.66-2.88.45-5.79.66-8.64,1.31a118.26,118.26,0,0,1-12.21,2.87c-3,.58-6,1.34-9,1.9a9.77,9.77,0,0,0-3.63,1c-1.06-9-2.16-18-3-27.05-2.41-28.59-4.63-57.21-5.77-85.88-.57-6.54-.35-13.12-.65-19.68-.1-1.69-.2-3.37-.28-5.07a4,4,0,0,0,1.28-.83c.67-.54,1.61-.71,2.15-1.41a2.21,2.21,0,0,0-.2-2.85c.15-3.13-.86-6.21-1.3-9.33l.63,0c5.64.2,11.2-1.07,16.8-1.46,9.92-.49,19.85-1,29.74-1.87.44,0,.93,0,1.41-.09,0,.82.16,1.65.15,2.46-.34,6.47,3.78,8.47,9.05,10.73a2.06,2.06,0,0,0,1.78-.2c1.07,7.23,2.59,14.39,3.8,21.6s2,14.77,3.43,22.1c3.05,14.9,4.61,30,6.45,45.11C412.75,284.88,415.15,298.5,417.52,312.11Z"/><path class="cls-1" d="M213.15,64.4l-1.38,1.85c-5,6.71-9.87,13.49-14.8,20.24-2.49,3.42-5,6.83-7.47,10.25-.57-.44-1.16-.86-1.76-1.28s-1.33-1.06-2-1.6c.63-.86,1.25-1.72,1.87-2.59,2.34-3.24,4.65-6.49,7-9.73l3.53-4.86c1.07-1.49,2.13-3,3.21-4.47.46-.63,1-1.36,1.61-2.11s1.12-1.59,1.69-2.38c.15-.2.31-.39.47-.58l.18-.17a7.26,7.26,0,0,0,.85-1.08l.56-.81.74-1c.19-.25.37-.52.55-.77s.34-.46.5-.71a6.65,6.65,0,0,0,.41-.62h0c.82.47,1.64.94,2.47,1.39l.07,0A16.19,16.19,0,0,0,213.15,64.4Z"/><path class="cls-1" d="M111.51,46.79c-1.2,1.73-2.39,3.47-3.64,5.17q-2-1.45-4-3c1.29-1.51,2.39-3.19,3.67-4.71C108.88,45.11,110.2,45.93,111.51,46.79Z"/><path class="cls-1" d="M94.48,71.88c-1,1.5-1.89,3-2.92,4.47-.43-.18-.86-.38-1.28-.6-1-.57-2-1.22-3-1.89a40.41,40.41,0,0,1,4-4.58A19.81,19.81,0,0,1,94.48,71.88Z"/><path class="cls-1" d="M76.92,100.65a38.18,38.18,0,0,1-2.38,4,28.26,28.26,0,0,1-5.28-3c1.27-1.55,2.25-3.08,3.67-4.63A31,31,0,0,1,76.92,100.65Z"/><path class="cls-1" d="M56.47,129.07c.44.27.87.56,1.32.82-1,1.56-2,2.93-3.14,4.44-.44-.25-.88-.51-1.31-.8s-1-.7-1.57-1-1-.66-1.49-1c.49-.72.95-1.46,1.41-2.19s1-1.54,1.4-2.33C54.24,127.64,55.34,128.38,56.47,129.07Z"/><path class="cls-2" d="M106.4,50.53a10.1,10.1,0,0,1-.28-2.4,1.41,1.41,0,1,1,2.82-.12c3.29-1.21,6.53-2.59,9.75-4A1.61,1.61,0,1,1,120,47c-3.48,1.12-6.66,2.8-10.15,3.85C108.71,51.19,107.1,51.84,106.4,50.53Z"/><path class="cls-2" d="M89.44,76.15a1.58,1.58,0,0,1-.56-1.22,3.29,3.29,0,0,1,.61-2.84,1.35,1.35,0,0,1,2.23,1c2.67-1,5.33-2,8.07-2.78,1.09-.43,2.74-.93,3.27.54a1.52,1.52,0,0,1-.74,1.86c-2.08.77-4.27,1.22-6.34,2-1.62.52-3.22,1.16-4.86,1.63A1.86,1.86,0,0,1,89.44,76.15Z"/><path class="cls-2" d="M72.87,104.52c-.85-.42-.92-1.44-1.31-2.21s-.78-1.6-.18-2.34c1.2-1.3,2.65.17,2.92,1.48a60.28,60.28,0,0,0,7.85-2.63c1.29-.58,3.37-1.8,4.13.12.76,2.49-3.49,2.68-5,3.55-1.58.58-3.2,1.06-4.82,1.51C75.26,104.24,74.05,105,72.87,104.52Z"/><path class="cls-2" d="M53.56,134.23a2.33,2.33,0,0,1-1.17-1.74,3.17,3.17,0,0,1-.18-2.24c.86-1.57,2.76-.77,3,.82,1.87-.67,3.91-1.42,5.7-2.19,1.74-.5,4.25-3.11,5.7-.93.92,2.37-2.48,2.89-4,3.7-2,.85-4.11,1.57-6.19,2.29A4.1,4.1,0,0,1,53.56,134.23Z"/><path d="M896.39,542.44h0a2.73,2.73,0,0,1-2-2.23c0-.06,0-.11,0-.17-.24-.78-.52-1.55-.66-2.19-.2-.83-.52-1.65-.78-2.47l-.87-2.69q-.95-2.94-1.9-5.88-2-6.1-4-12.22-4.07-12.23-8.12-24.47c-1.36-4.07-2.73-8.14-4.08-12.21s-2.65-8.21-4-12.29-2.69-8-4-12-2.59-7.79-3.89-11.69-2.52-8-3.81-12S855.6,422,854.3,418c-.39-1.18-.77-2.36-1.13-3.55-.19-.62-.37-1.24-.53-1.87a4.37,4.37,0,0,1-.2-2.12,2.17,2.17,0,0,1,3.4-1.16,6.2,6.2,0,0,1,1.49,2.72c.36.95.69,1.92,1,2.88q1,3,2,6c1.31,4,2.63,8,4,12s2.71,8,4,12c1.24,3.83,2.55,7.64,3.81,11.46,1.33,4,2.62,8.07,4,12.09s2.79,8.3,4.15,12.46q4,12.27,8,24.53c2.64,8,5.26,16.09,8,24.11.74,2.16,1.46,4.32,2.2,6.48.16.41.34.81.48,1.23s.28.8.41,1.21a2.68,2.68,0,0,1-.15,3h0a2.76,2.76,0,0,1-2.16,1A2.56,2.56,0,0,1,896.39,542.44Z"/><path d="M1066.82,531.55a2.43,2.43,0,0,1-.36-1.2c-1.18-3.78-2.48-7.52-3.73-11.28-1.38-4.16-2.74-8.32-4.14-12.48s-2.69-8.17-4-12.25c-1.41-4.24-2.85-8.46-4.27-12.69q-4.2-12.5-8.38-25c-1.38-4.12-2.71-8.26-4.1-12.38s-2.77-8.22-4.15-12.34-2.77-8.13-4.11-12.21q-2.07-6.35-4.18-12.69c-.66-2-1.32-4-2-6-.29-.93-.6-1.84-.87-2.77a3.91,3.91,0,0,1-.15-2,2.5,2.5,0,0,1,.85-1.31,2.47,2.47,0,0,1,2.08-.45c1.53.3,2,2,2.41,3.24.35,1,.69,2,1,3,.71,2.11,1.41,4.23,2.12,6.35q2.07,6.26,4.18,12.5c1.37,4.07,2.66,8.18,4,12.26s2.72,8.36,4.1,12.53,2.77,8.29,4.13,12.45,2.7,8.31,4.08,12.46c2.78,8.36,5.46,16.75,8.25,25.1s5.49,16.49,8.23,24.75c1.07,3.22,2.1,6.47,3.22,9.68a2.53,2.53,0,0,1-1.36,3.87,2.82,2.82,0,0,1-.7.1A2.57,2.57,0,0,1,1066.82,531.55Z"/><path d="M853.68,413.59a2.35,2.35,0,0,1-.62-3.83,2,2,0,0,1,.24-.19h0a2.92,2.92,0,0,1,1.54-.46c.45,0,.89-.06,1.34-.1l2.94-.25,5.87-.51,11.88-1.05Q888.95,406.1,901,405q11.76-1,23.51-2.12t23.51-2.2c7.67-.73,15.34-1.39,23-2.1l22.86-2.11c1.82-.16,3.63-.37,5.45-.54l5.39-.5c.83-.07,1.66-.16,2.48-.25s1.69-.13,2.54-.19c1.71-.12,3.41-.31,5.12-.47.84-.08,1.68-.16,2.52-.22.59,0,1.18-.05,1.49-.1a13.45,13.45,0,0,1,1.42-.19l.75,0a8.13,8.13,0,0,1,1.4-.19,2.23,2.23,0,0,1,1.66,4,2.16,2.16,0,0,1-1.23.39,7.58,7.58,0,0,1-1.43.08l-.8.11c-.44.05-.88.05-1.33.06s-1.07.12-1.6.18c-.81.1-1.62.16-2.43.24-1.7.15-3.41.28-5.12.47-.84.09-1.68.21-2.52.28s-1.66.12-2.49.2l-5.39.49c-1.82.16-3.64.29-5.46.46l-5.56.51c-3.87.36-7.74.73-11.61,1.07-7.62.68-15.24,1.41-22.86,2.12s-15.47,1.37-23.2,2.08c-8,.73-16,1.45-24,2.22s-16,1.53-24,2.29q-11.77,1.11-23.56,2.23l-2.93.29-1.26.13a5.31,5.31,0,0,1-.68.05A2.43,2.43,0,0,1,853.68,413.59Z"/><path d="M898.84,544.1a2.55,2.55,0,0,1-.75-.55,2.23,2.23,0,0,1,0-2.93,2.89,2.89,0,0,1,2.1-.88c.73-.09,1.47-.12,2.2-.16l4.39-.26,9-.49q9-.5,18.07-1l36.63-1.9,36-1.87q18.21-.95,36.42-2l18.17-1c6.1-.34,12.2-.64,18.31-1,11.83-.61,23.67-1.3,35.5-1.93l17.76-.93c5.72-.3,11.45-.66,17.18-1s11.35-.67,17-.9c2.86-.12,5.72-.28,8.58-.44,2.67-.14,5.33-.25,8-.38a2.44,2.44,0,0,1,1.62-.11l.33,0a2.31,2.31,0,0,1,.1,4.53h0l-.26.05a2.42,2.42,0,0,1-1.55,0h0c-2.4.13-4.8.3-7.2.43-2.89.16-5.79.29-8.68.48-5.74.39-11.5.66-17.25.94q-17.25.86-34.5,1.8c-11.82.64-23.65,1.2-35.47,1.86q-18.27,1-36.56,2t-36.48,1.94l-36,2q-18.32,1-36.62,2l-18.08,1-9.25.49-4.19.2-2.21.1c-.33,0-.69,0-1,0A3.13,3.13,0,0,1,898.84,544.1Z"/><path d="M1187.29,543.82c-3.65-1-1.56-5.63-1-8.15a7.78,7.78,0,0,0-.91-6.06,1.9,1.9,0,0,1-1-2.88c1-2.19,4-1.8,5.17,0,2.6,3.26,2.87,7.66,1.68,11.54C1190.64,540.42,1190.23,544.09,1187.29,543.82Z"/><path d="M911.66,556.54a3.82,3.82,0,0,1-.36-1.38.77.77,0,0,0,0,.15v.07c-.29-4.17-2.16-8.42-1.24-12.61v0a2.48,2.48,0,0,1,4.44-.18c.72,2,.46,4.18.92,6.23s.9,4.32,1.18,6.52A2.66,2.66,0,0,1,911.66,556.54Z"/><path d="M916,559.34l.2-.05,1.06-.77c0-.22.08-.43.11-.65a.84.84,0,0,1-.24.07,1.9,1.9,0,0,1-.36.08l.13,0,.46-.5-.3-1.79-.44-.36.39,0-.12-.74-1.2-.54-.26,0h.94c2.61-.11,5.21-.33,7.82-.47l8.7-.47,17-.87q16.95-.88,33.89-1.82c11.29-.63,22.57-1.18,33.86-1.79s22.55-1.3,33.83-1.9c10.9-.58,21.81-1.27,32.72-1.82,5.51-.28,11-.63,16.52-.94l16.4-.92c5.42-.3,10.83-.65,16.25-.91s10.83-.65,16.25-.9,10.68-.61,15.68-.81c2.83-.15,5.65-.3,8.48-.47,1.09-.07,2.17-.17,3.26-.21s2.43-.07,3.64-.12l2.2-.06c.23,0,.45,0,.68-.06s.61-.06.92-.07l.52,0,.26-.05a2.77,2.77,0,0,1,2.36,4.92,2.72,2.72,0,0,1-1.7.49h-.16l-.39,0H1185l-.55,0c-.23,0-.47,0-.7,0h-.3c-.92.06-1.82.18-2.4.19-1.19.06-2.39.18-3.59.27s-2.31.1-3.46.15c-4.8.24-9.59.56-14.39.8-5.24.27-10.48.6-15.72.88l-32.8,1.73c-5.35.28-10.7.57-16,.82-5.65.27-11.29.62-16.94.91-5.45.28-10.91.58-16.37.84s-10.73.6-16.1.87c-5.68.28-11.36.6-17,.89s-11.18.57-16.77.89q-17.09,1-34.19,1.89t-34.13,1.9q-7.07.42-14.12.8c-2.24.13-4.47.25-6.71.36l-3.53.16c-1.11.05-2.22.08-3.32.21Z"/><path d="M914.29,557.89c-1.16-2.07.83-4.27,2.87-4.62a2.26,2.26,0,0,1,2.36,3,2.14,2.14,0,0,1,.61,2.14C919.23,561,915.26,560,914.29,557.89Z"/><path d="M917,555.52a1.56,1.56,0,0,1,1.58-1.5,1.54,1.54,0,1,1-1.58,1.5Z"/><path d="M1058.77,534.13a2.31,2.31,0,0,1-.47-1.58l-.44-1.4c-1.17-3.51-2.46-7-3.67-10.48s-2.41-7-3.6-10.54c-2.48-7.3-5.06-14.55-7.59-21.83-1.3-3.74-2.58-7.49-3.89-11.23-1.26-3.59-2.55-7.16-3.8-10.75-2.57-7.36-5.12-14.72-7.72-22.06-1.27-3.57-2.51-7.16-3.79-10.73s-2.56-7-3.74-10.52c-1.45-4.3-3-8.57-4.3-12.58-.53-1.59-1-3.18-1.55-4.77s-1.08-3.09-1.64-4.62a24.44,24.44,0,0,1-.8-2.37,2.9,2.9,0,0,1,.07-1.84,2.13,2.13,0,0,1,2.22-1.25c1.11.12,1.67,1.08,2.06,2a19.6,19.6,0,0,1,.64,1.87c.11.33.21.65.23.69,1.16,3.57,2.55,7.05,3.79,10.6s2.47,7,3.72,10.56,2.44,7.19,3.65,10.79,2.47,7.22,3.71,10.83c2.48,7.3,5,14.59,7.53,21.88,1.27,3.65,2.49,7.31,3.74,11s2.62,7.52,3.93,11.27c2.51,7.23,5,14.47,7.52,21.68q1.86,5.25,3.7,10.51c.62,1.76,1.23,3.51,1.82,5.27s1.18,3.59,1.85,5.35l.48,1.26a2.38,2.38,0,0,1-.87,3.8,2.22,2.22,0,0,1-.88.17A2.39,2.39,0,0,1,1058.77,534.13Z"/><path d="M1063.28,549.14c-.71-4.61-1-9.2-1.88-13.79-.25-1.43-.87-3.15.43-4.28,2.09-1.76,4.45.22,4.55,2.59,1,4.87,1.48,9.83,2.07,14.74A2.68,2.68,0,0,1,1063.28,549.14Z"/><path d="M1191.59,535.13a2.81,2.81,0,0,1-1.73-.29,2.47,2.47,0,0,1-.29-4,2.87,2.87,0,0,1,1.68-.54c2-.18,3.9-.27,5.84-.37l5.89-.34c3.74-.22,7.47-.39,11.21-.62s7.65-.46,11.47-.71,7.71-.46,11.55-.73c2.52-.18,5-.4,7.54-.57s4.87-.28,7.12-.45l.25,0h0c1.51-.14,3-.26,4.54-.35l3.18-.16c.23-.08.46-.14.58-.17a4.48,4.48,0,0,1,.5-.11,2.61,2.61,0,1,1,.44,5.19,5.68,5.68,0,0,1-1.24-.14c-1.49.09-3,.24-4.49.33-1.92.11-3.84.18-5.76.31-3.82.25-7.64.45-11.47.65s-7.64.49-11.45.73-7.66.49-11.49.75-7.52.56-11.29.81l-5.87.41c-1.94.14-3.89.31-5.83.4l-1.21,0Z"/><path d="M1260.13,534.35c.14-2.66-1.28-6.5,1.55-8.15a2.68,2.68,0,0,1,3.77,2.95c-.41,2.62,1.23,7.44-2.56,8A2.62,2.62,0,0,1,1260.13,534.35Z"/><path d="M1187.63,542.59a2.28,2.28,0,0,1-.18-3.6h0a3.46,3.46,0,0,1,2.29-.69c.82-.06,1.64-.14,2.46-.19l6.23-.42c4-.26,8-.43,12-.69s7.88-.54,11.81-.77,7.92-.42,11.87-.72c1.93-.15,3.87-.3,5.8-.4s4-.19,5.94-.36,3.95-.3,5.94-.42l2.78-.18c.89-.06,1.78-.18,2.67-.24s1.68-.08,2.52-.08l.72-.1a2.52,2.52,0,0,1,1.83.39,2.4,2.4,0,0,1-1.23,4.37h-1c-.76.11-1.51.19-2.27.23s-1.75,0-2.62.1l-5.83.39c-1.91.13-3.81.17-5.72.31s-4,.29-6,.42c-4,.23-7.89.44-11.84.74s-7.8.53-11.7.78-8.05.52-12.07.82-7.89.56-11.84.74c-.33,0-.66,0-1,0A2.57,2.57,0,0,1,1187.63,542.59Z"/><path class="cls-1" d="M312.2,79c-2.11-.76-.18-3.61.26-5,1.45-3,4-5.43,6.6-7.55.49-.37,1.27-.94,1.93-.7a1.13,1.13,0,0,1,.58,1.6,24.11,24.11,0,0,1-2.12,2c-1.73,1.73-3.57,3.45-4.6,5.71C314,76.29,314.12,79.26,312.2,79Z"/><path class="cls-1" d="M295.51,82.39c-12.46-2.1-5.49-22.34-1.41-29.46,3-5.42,5.69-11.65,11.55-14.52,2.71-1.49,6.62-1.19,8.44,1.54,1.88,3.11,1.15,7.07.06,10.35-.78,3.1-10.22,20-13.78,14-1.23-3.27.62-6.79,1.81-9.82.63-1.28,1.42-4,3.33-2.91a1.46,1.46,0,0,1,.35,1.95c-1.63,3-3.85,6.29-3.4,9.8,5.08-3.51,11.45-13.66,10.71-20-1.42-8.16-10.92-1.1-13.06,3.09-4.59,8-9.27,16.53-9.49,26-.21,12.4,11.36,7.83,15.53.48A30.74,30.74,0,0,0,310.3,65c.46-1,.25-2.47,1.26-3.1a1.05,1.05,0,0,1,1.49,1,22.49,22.49,0,0,1-.6,2.28c-1.16,3.87-3.51,7.24-5.71,10.59A13.74,13.74,0,0,1,295.51,82.39Z"/><path class="cls-1" d="M324.48,100.38c-4.17-.68-8.42-4.09-7.84-8.68.19-.82.23-2.12,1.31-2s.49,1.35.51,2c0,4.52,5.21,6.89,9.14,6.38,2.7-.25,5.11-1.59,7.62-2.41a1,1,0,0,1,1.15,1.37c-.55,1.22-2.06,1.59-3.19,2.12C330.43,100.22,327.42,101,324.48,100.38Z"/><path class="cls-1" d="M322,108.86c-2.14-.51-3.86-2-5.43-3.47-.59-.58-1.72-1.24-1.25-2.2a1,1,0,0,1,1.67-.12c1.17.85,2.2,1.85,3.45,2.59,5.69,3.86,11-4.11,13.09-2.16,1.05,1.68-1.68,2.62-2.76,3.37C328.18,108.39,325.12,109.73,322,108.86Z"/><path class="cls-1" d="M319.67,116.49c-1.63-.39-5.23-1.95-5.45-3.76a.88.88,0,0,1,.94-.8c.77.27,1.61,1.22,2.59,1.54,6.36,3.14,10.13-3.68,11.82-1.47.63,1-.55,1.73-1.22,2.31A10.51,10.51,0,0,1,319.67,116.49Z"/><path class="cls-1" d="M368.85,73.41c-3.7-1.3,6.21-14.39,8.81-13.34a.9.9,0,0,1-.16,1.71,21.09,21.09,0,0,0-6.82,9.11C370.29,71.83,370.27,73.65,368.85,73.41Z"/><path class="cls-1" d="M378,71.8c-3.81-1.24,3.81-9.41,5.75-10.15a.8.8,0,0,1,1.13.35,1.21,1.21,0,0,1-.52,1.4,25.57,25.57,0,0,0-2,2.16,22,22,0,0,0-2.53,4C379.33,70.37,379.19,71.87,378,71.8Z"/><path class="cls-1" d="M388.61,69.81c-1.53-.42-.79-2.23-.45-3.28.55-1.27,1.94-5.91,3.82-4.85.67.47.38,1.32,0,1.88a26.41,26.41,0,0,0-1.47,3.82C390.2,68.37,390.05,70.1,388.61,69.81Z"/><path class="cls-1" d="M383.15,457.1c-2.61-2.86,12.74-14.76,15-17.32,3.18-3,6.24-6.09,9.85-8.54,1.23-.67,5-3.89,6.08-2.42a1,1,0,0,1-.19,1.23c-2.58,2.29-5.63,4-8.16,6.31-2.76,2.43-5.38,5-8.11,7.47-4.27,3.91-8.87,7.54-12.34,12.21C385.13,457,384,457.86,383.15,457.1Z"/><path class="cls-1" d="M404.45,445.82c.46-1.2,1.73-1.92,2.63-2.8,2.73-2.26,5.54-4.42,8.26-6.69,4.42-3.7,8.94-7.28,13.69-10.54,2.34-1.61,4.57-3.38,7-4.9,1-.56,2.66-1.81,3.44-.35.74,1.68-2.46,2.55-3.43,3.52-3.7,2.66-7.51,5.19-11.18,7.9-4.92,3.78-9.64,7.79-14.59,11.52-1.5,1.11-2.89,2.38-4.44,3.42A1,1,0,0,1,404.45,445.82Z"/><path class="cls-1" d="M1110.2,421.52a142.77,142.77,0,0,1-.92-25c.08-1.78.2-3.54.41-5.3,0-.66.24-1.45,1-1.65,1.08-.32,1.81.78,1.57,1.77a155.91,155.91,0,0,0,.06,22.77c.14,2.37.3,4.75.42,7.12a1.27,1.27,0,0,1-1,1.29A1.29,1.29,0,0,1,1110.2,421.52Z"/><path class="cls-1" d="M1307.86,430.84c-7.11-.88-14-3.17-21-4.66-1-.2-2-.85-1.74-2a1.47,1.47,0,0,1,1.54-1.08,25.16,25.16,0,0,1,4.11.75c5.61,1.29,11.11,3.06,16.78,4.12a3.67,3.67,0,0,1,1.93.69C1310.6,429.9,1309.22,431.15,1307.86,430.84Z"/><path class="cls-1" d="M1275.59,444.32a28,28,0,0,1-10.37-2c-1.53-.68-7-2.32-4.12-4.44a1.6,1.6,0,0,1,1.25,0c2.11.71,4.16,1.59,6.3,2.25a28.16,28.16,0,0,0,11,1c6.35-.91,12.23-3.81,18.44-5.35,1.21-.22,3-1.06,3.83.31.42,1-.56,1.57-1.44,1.57-1.4.34-2.76.79-4.12,1.25C1289.53,441.13,1282.89,444.58,1275.59,444.32Z"/><path class="cls-1" d="M1203.66,376.69a1.27,1.27,0,0,1,0-2.33,30.24,30.24,0,0,0,3.92-1.46c8.56-4.25,15.89-10.4,24-15.29,5.38-3.57,10.88-7,16.24-10.55,6.45-4.5,12.69-9.26,19-13.95.94-.61,2.15-2,3.2-.85a1.25,1.25,0,0,1-.18,1.73c-9.65,7.08-19.11,14.5-29.35,20.72-4,2.81-8.21,5.45-12.38,8.07-2.07,1.45-4,3-6.13,4.37-4.84,3-9.44,6.45-14.72,8.63C1206.09,376.12,1204.9,377,1203.66,376.69Z"/><path class="cls-1" d="M1191.3,380.6c-5.08-1.62-9.78-4.3-14.92-5.8a132.65,132.65,0,0,1-12.76-4.58c-3-1.39-5.73-3.26-8.62-4.82-3.86-2.25-8-4.09-11.65-6.65-2.23-1.6-4.25-3.89-6.33-5.58a47.86,47.86,0,0,1-7.57-7.42c-.49-.49-1.16-1-.94-1.81,1.17-2.53,3.39.74,4.41,1.75,2.23,2.54,5,4.51,7.49,6.74a41.61,41.61,0,0,0,12.08,8.36c6.64,3.6,13,7.75,20.35,9.76a114.8,114.8,0,0,1,19.32,7.84A1.2,1.2,0,0,1,1191.3,380.6Z"/><path class="cls-1" d="M1150.82,348.24c-3.29-3-4.94-7.43-6.39-11.55-.38-1-1-2.71.6-2.86.87,0,1.19.84,1.44,1.52.53,1.32,1.08,2.62,1.68,3.91a44.34,44.34,0,0,0,4.52,7.27A1.29,1.29,0,0,1,1150.82,348.24Z"/><path class="cls-1" d="M1231.42,337.35c-1.2-1.47,1.16-3,2-4.05a44.91,44.91,0,0,0,6-7.57c1-1.42,5.39-9.88,7.33-7.8.53.7.09,1.38-.56,1.76-3,4-5,8.78-8.17,12.63C1236.69,333.53,1233.26,338.88,1231.42,337.35Z"/><path class="cls-1" d="M1161.25,462.38c-1.44-1.25.32-3.09,1-4.29,1-1.53,2.07-3,3.1-4.52a69.46,69.46,0,0,0,9.46-19.94l0,.1v0a200.42,200.42,0,0,0,7.79-35.44,62.9,62.9,0,0,0-.2-17.76c-.14-.93-.42-2.26.56-2.84a1.38,1.38,0,0,1,2.06,1.6c2.3,10.06.66,20.4-1.08,30.38a166,166,0,0,1-5.91,24.21,76.82,76.82,0,0,1-10.22,21.57c-1,1.48-2,3-3,4.46C1164,461.1,1162.93,463.4,1161.25,462.38Z"/><path class="cls-1" d="M1241.29,441.62c-4.52-3.28-9.39-6.27-13.15-10.44a76.83,76.83,0,0,1-7.68-10.44c-2.14-3.76-3.56-7.87-5.29-11.82a63.86,63.86,0,0,1-4.37-16.39c-.53-4.72-.58-9.37-1.27-14.07h0a1.15,1.15,0,0,1,2-.77c.75,1,.73,2.33,1,3.5.56,4.28.6,8.62,1.32,12.88a78.71,78.71,0,0,0,6,18.73,54.33,54.33,0,0,0,12.53,18.84c3.32,2.84,6.95,5.28,10.47,7.83A1.32,1.32,0,0,1,1241.29,441.62Z"/><path class="cls-1" d="M1252.78,478.82a1.42,1.42,0,0,1,.68-2.73c3.75-.3,7.47-1.18,11.2-1.52,10.92-1.63,21.75-2.83,32.66-4.2,5.56-.2,11-1.77,16.53-1.65a31.62,31.62,0,0,0,3.67-.2,1.63,1.63,0,0,1,1.16.25,1.55,1.55,0,0,1-.79,2.81c-3.83.26-7.71-.16-11.47.78-5.28.87-10.53,1-15.74,1.77-8.94.83-17.88,2.3-26.78,3.41C1260.2,477.82,1256.47,479,1252.78,478.82Z"/><path class="cls-1" d="M1337.28,527.54c-13-1.3-26-2.78-39-4.21-12.56-1.92-25.17-3.45-37.83-4.51-.3-.05-.62-.05-.92-.12a1.32,1.32,0,1,1,.69-2.55c11.38,1.17,22.83,2.2,34.14,4,10.7,1.59,21.49,2.42,32.24,3.61,2.5.27,5,.76,7.47.91a23.05,23.05,0,0,1,5.38.6,1.23,1.23,0,0,1,.5,2C1339.22,527.9,1338.14,527.58,1337.28,527.54Z"/><path class="cls-1" d="M1076.09,419.81c-3.36-3.32-5.9-7.55-8.6-11.41-.87-1.41-3.47-5-.55-5.56a.8.8,0,0,0-.31.09,1,1,0,0,1,1.33.4,1,1,0,0,1,0,1c2,3.93,5.27,7.5,7.91,10.93a18.56,18.56,0,0,1,2.24,2.92A1.31,1.31,0,0,1,1076.09,419.81Z"/><path class="cls-1" d="M1100.37,425.25c-7-4-13.52-9.26-17.7-16.22-2.61-4.42-5.54-9.06-6.26-14.2.1-1.37,2.29-1.34,2.16.09a53.7,53.7,0,0,0,12,19.62A70.32,70.32,0,0,0,1102,422.7,1.5,1.5,0,0,1,1100.37,425.25Z"/><path class="cls-1" d="M1000.72,309.65a101.31,101.31,0,0,1-14-2.9c-1.29-.4-2.82-.63-3.79-1.66a1.39,1.39,0,0,1,1.24-2.31c1.95.58,3.88,1.24,5.87,1.71,4.61,1.13,9.36,2.51,14,2.72a1.06,1.06,0,0,1,.64,1.7C1003.74,310,1002.06,309.75,1000.72,309.65Z"/><path class="cls-1" d="M999.83,298.3c-2.73-.36-4.89-2.5-6.94-4.19-6-5.36-11.34-15.05-9.19-23.25a1.45,1.45,0,0,1,2.83.48c-1.11,9.92,5,19.64,13.43,24.5.91-.49,1.8.66,1.41,1.49A1.64,1.64,0,0,1,999.83,298.3Z"/><path class="cls-1" d="M1161,192.43c-2.52-2.46-4.78-6-4.31-9.63.09-.82.52-1.84,1.49-1.84,1.18-.1,2.92,2.58,1,2.85.17,2.83,2.15,5,3.5,7.33A1.07,1.07,0,0,1,1161,192.43Z"/><path class="cls-1" d="M1166.91,189.8a9.65,9.65,0,0,1-3.13-4.39,2.84,2.84,0,0,1,0-2.37,1.21,1.21,0,0,1,2-.12,17.54,17.54,0,0,0,3.07,5A1.36,1.36,0,0,1,1166.91,189.8Z"/><path class="cls-1" d="M1223.06,202.91c-1-.12-2.11-.94-1.66-2,.25-.75,1.25-1.23,1.82-.53,3.3.47,6.58-1.46,9.16-3.26a1,1,0,0,1,1.55,1.2C1232.3,201.42,1226.46,203.58,1223.06,202.91Z"/><path class="cls-1" d="M1229.33,210.8c-.88-.13-2-.27-2.41-1.2a1.09,1.09,0,0,1,1-1.49c3.11,1,6.37-1.24,8.39-3.5.72-1.47,2.79-1,2.32.67A10.42,10.42,0,0,1,1229.33,210.8Z"/><path class="cls-1" d="M1241.29,236a1.16,1.16,0,0,1-.9-1.54c.53-1.27,2-1.71,3.27-2.07,1.69-.65,9.6-1,8.74,2-.44,1.06-1.64.69-2.49.49a13.15,13.15,0,0,0-7,.3C1242.72,235.9,1241.89,236,1241.29,236Z"/><path class="cls-1" d="M1251.32,244c-1.84-.51-3.6-1.49-5.52-1.63a1.21,1.21,0,0,1-1.21-.54c-.81-2.76,3.34-2,4.82-1.44,1.27.53,4,1,3.44,2.87A1.3,1.3,0,0,1,1251.32,244Z"/><path class="cls-1" d="M1194,186.44c-1.4-.22-1.14-1.89-.86-2.9a11.28,11.28,0,0,1,5.73-6.26c1.34-.62,2.92.82,1.42,1.78a10.56,10.56,0,0,0-4.25,4.69C1195.47,184.69,1195.55,186.61,1194,186.44Z"/><path class="cls-1" d="M1202.62,191.77c-2.44-.58-.23-4.35.41-5.74.78-1.1,2.09-4.28,3.76-3.51.75.4.57,1.37.21,2-.49,1-1,2-1.44,2.79a23.89,23.89,0,0,0-1.49,3.54A1.33,1.33,0,0,1,1202.62,191.77Z"/><path class="cls-1" d="M1044.9,632.92c-3.65-6.51,13.59-21.33,18.67-24.78,4.24-2.84,8.7-5.4,13-8,6-3.48,12.33-6.2,18.18-9.89a93.08,93.08,0,0,1,12.24-5.58c5.2-2.39,10.51-4.52,15.78-6.74,3.45-1.53,6.91-3.05,10.43-4.4,1.81-.42,4.72-3,5.85-.55a1.65,1.65,0,0,1-1,2.08c-1.73.68-3.47,1.34-5.21,2-3.93,1.54-7.75,3.35-11.65,5-4.8,1.91-9.48,4-14.2,6a76.82,76.82,0,0,0-10.72,4.91c-7.3,4.51-15.31,7.74-22.55,12.37-5.66,3.33-11.29,6.68-16,11.32-4.38,4.12-9.73,8.39-11,14.54C1046.55,632.16,1046,633.71,1044.9,632.92Z"/><path class="cls-1" d="M1011.91,571.08h-.13a1.41,1.41,0,0,1-1.11-.79,1.37,1.37,0,0,1,.05-1.2,1.38,1.38,0,0,1,1-.68,3.91,3.91,0,0,1,.91,0h.37l2.07-.08,4.38-.24,8.91-.48q9.4-.49,18.81-1,19.2-1.1,38.4-2.09,18.73-1,37.47-2l37.91-2,38.61-2.08c12.7-.69,25.41-1.4,38.11-2.06s25.58-1.26,38.37-2c5.14-.27,10.27-.6,15.4-.89l7.94-.42,3.74-.17c1.25,0,2.51-.08,3.75-.2a1.29,1.29,0,1,1,.1,2.57c-1.45,0-2.9.15-4.35.24l-4.71.28c-3,.16-6.06.33-9.1.47-6.48.32-13,.63-19.45,1q-18.85,1.07-37.71,2.11-19.24,1-38.49,2-19,1-38.1,2l-38,2.05q-18.88,1-37.77,2-19.15,1-38.31,2l-14.46.77-7.2.38c-2.15.12-4.31.18-6.45.39h-.07a6.15,6.15,0,0,1-.75.07Z"/><path class="cls-1" d="M932.75,801.64a94.21,94.21,0,0,1-11.89-4.82c-1.46-.69-2.91-1.38-4.31-2.16a1.78,1.78,0,0,1-1.22-2c.41-1.58,2.11-1.29,3.19-.59,1.1.55,2.53,1.24,3.51,1.71a119.91,119.91,0,0,0,11.7,4.76A1.63,1.63,0,0,1,932.75,801.64Z"/><path class="cls-1" d="M1138.36,811.67a1.46,1.46,0,0,1-.31-2.67c3.21-1.87,6.88-2.85,10.41-3.91,3.43-.87,6.93-1.45,10-3.12,1.32-.94,3.36.16,2.55,1.81-.36.74-1.2,1-1.89,1.26a36.33,36.33,0,0,1-5.36,1.81,80.79,80.79,0,0,0-12.84,3.87C1140.56,811.66,1139.25,811.8,1138.36,811.67Z"/><path class="cls-1" d="M882.87,820.08c-1.32-2.64-1.81-5.61-2.65-8.43-.19-1-.73-2.18-.4-3.24a1.17,1.17,0,0,1,2.2.11h0c.89,3.64,2.18,7.18,2.73,10.9A1,1,0,0,1,882.87,820.08Z"/><path class="cls-1" d="M890.27,821.84c-.84-3.9-1.94-8.07-1.29-12a1.1,1.1,0,0,1,2.09.23,64.41,64.41,0,0,0,1.86,11.22A1.37,1.37,0,0,1,890.27,821.84Z"/><path class="cls-1" d="M1137,850.94a48.55,48.55,0,0,1-9.29-1.36c-1.39-.48-3.78-.3-4.45-1.83a1.26,1.26,0,0,1,1.94-1.33c4,.89,8.22,1.28,12.12,2.68A1,1,0,0,1,1137,850.94Z"/><path class="cls-1" d="M1138.93,845c-2.15-.4-6.4-.68-7.25-3-.28-1.29,1.91-1.83,2.39-.78,3,1.26,6.35,1.22,9.48,1.45,1,0,2.35,0,2.38,1.32C1145.93,846.46,1140.54,845,1138.93,845Z"/><path class="cls-1" d="M1107.92,665.51c-.61-1.35,1-2.14,2-2.47,4.89-1.59,9.77-3.91,15-4.07.67-.37,1.47.43,1.48,1.09a1.35,1.35,0,0,1-1,1.33,67.57,67.57,0,0,0-10,3l.09,0h0c-1.45.52-2.54.93-3.89,1.39C1110.43,666.12,1108.61,667,1107.92,665.51Z"/><path class="cls-1" d="M1125,652.79a95.6,95.6,0,0,1-15.72-4.59c-1.27-.61-3.07-.74-3.83-2a1.67,1.67,0,0,1,2.12-2.2c5.76,2.28,11.63,4.27,17.43,6.4a3.49,3.49,0,0,1,1.27.91c.69,1-.41,1.82-1.42,1.49Z"/><path d="M1577.49,537.56a2.74,2.74,0,0,1-2.37,0,235.72,235.72,0,0,1-26.59-6.6,133.3,133.3,0,0,1-21.76-7.27c-5.41,11.25-12.58,21.58-18,32.85-1.89,3.81-3.31,7.83-5.06,11.71-.63,1.88-3,4.07-4.75,2.14a6.32,6.32,0,0,1-1.06-3.62c-.23-4.59-.09-9.19-.13-13.78.37-13.18,1.09-26.4,3.49-39.39-12.88,1.66-25.41,4.57-38.36,5.63-2.67.05-12,2.91-10.58-2.25,2.18-2.74,5.52-4.43,8.18-6.69,10.16-8.36,21.65-14.84,32.26-22.57-.22-8.08-.74-16.14-1.42-24.19-1-.94-1-2.53-1.12-3.82-.3-3.38-.2-6.68-.26-10.08a47.27,47.27,0,0,1,0-6.41,2.6,2.6,0,0,1,4.32-1.28,103.16,103.16,0,0,1,6.93,9.73,51.86,51.86,0,0,0,9.84,12.25c5.45,5.63,9,12.35,15.55,16.69a270.79,270.79,0,0,1,31.18-15,46.64,46.64,0,0,1,6.37-2.32,3.65,3.65,0,0,1,2.93.21c1.65,1.08,1.16,3.15.15,4.5-1.46,2.55-3,5-4.5,7.56-4.82,9.14-10.6,17.68-16.13,26.38,5.44,3.49,9.78,8.39,14.46,12.8a112.48,112.48,0,0,1,14.05,15.5C1576.49,532.27,1580.93,535.37,1577.49,537.56Z"/></g></g></svg>