<svg xmlns="http://www.w3.org/2000/svg" viewBox="0 0 1978.05 689.6"><defs><style>.cls-1{opacity:0.49;}.cls-2{fill:#44bad4;opacity:0.7;}</style></defs><title>Pintura 1</title><g id="Capa_2" data-name="Capa 2"><g id="Capa_1-2" data-name="Capa 1"><g class="cls-1"><path class="cls-2" d="M616.51,197.76c-25.89-19.44-213.72-.13-227.49-6-11.22-7.85,5.14-144,15.29-164.07,3.58-7.15,7.78-8.23,17.48-4.82,15.37,6.39,213.44-3.69,213.44-3.69,2.67,4.27,10.35-9.92,11.87-4.74,4.69,12,325.68-.79,353-1.2,16.61-.25,3.55,7.85,23.07,4.73,41.6-6.1,132.44,1.18,163.9-6,25.19-6,30.63-6,54.94-.82,24.82,4.7,156.49-.3,171.44-9.66,3.65-2.59,6.48-1.61,6.52,1.43,0,.63,92.88,3.84,93.32,6.22.75,3,3.58,4.51,6.18,2.44,4.81-3.09,103.54-13.51,105.22-4.61,5.12,25.29-7.33,132.5-18.53,158.54-11.44,27.77-76.29-4.26-128,12.05l-241.42-1-51.65,9.9c-6-9.16-28.6,13.46-42.53-2.92-5.89-6.51-47-7.92-56-1.19-7.83,5.19-218.33-10.38-239.71,7.62C808.31,174.31,652.62,194.44,616.51,197.76Z"/><path class="cls-2" d="M1285.53,58.14c36.34,14,276.82-42.69,295.5-39.63,15.67,5.52,14.2,143.57,4,165.41-3.6,7.8-8.88,9.71-22,8.28-20.83-3.24-275.89,46.42-275.89,46.42-4.08-3.69-12,11.88-14.69,7.07-7.82-11-421.68,66-457.07,71.93-21.47,3.57-5.73-7.06-30.57-.06-53,14.37-171.69,25.37-211.39,38.77-31.77,10.94-38.8,12.11-71,11.82-32.83.32-202.63,31.65-220.65,43.91-4.34,3.29-8.14,2.89-8.64-.11-.11-.62-120.84,14.81-121.76,12.55-1.41-2.85-5.29-3.75-8.36-1.18-5.78,4-132.14,34.11-135.6,25.64-10.29-24-9.7-132.58,1-160.59,10.79-29.77,99.43-11.07,164-37.57l312.81-47.41,65.46-20.15c9.1,7.86,35.09-19.05,55.5-5.63,8.57,5.26,62-1.58,72.73-10.05,9.4-6.71,284.28-33.48,309.36-55.58C1040.52,119.79,1239.24,68.66,1285.53,58.14Z"/><path class="cls-2" d="M394.2,452.84c-41.87-20.68-322.64,2.67-340-1.88-16.94-7.48,5.68-144.13,20.85-164.58,5.38-7.25,11.77-8.8,26.46-5.42,13.31,3.06,157.12-1.72,170.61-2.15,78-2.45,153.2-4.36,153.2-4.36,4,4.3,15.89-9.79,18.1-4.6,1.72,3.07,33.47,4.62,80.75,5.68,0,0,280,2.69,454.77,8.86,25.19.89,4.86,8,34.63,6.68,63.45-2.88,200.39,13.79,248.52,10.44,38.65-2.69,46.89-2.37,83.16,5.76,29.54,6.62,236,21.69,260,15.1,5.82-2,10-.54,9.67,2.49,0,0,84.26,12,117.91,17.6,13.13,2.2,21.91,3.9,22,4.51.73,3.14,4.78,5.06,9,3.53,7.61-2.76,157.64,6.29,159,15.43,3.75,26-30.47,129.53-50.52,153.34-21.07,25-111-18.62-191.6-11.51-68.29-7.71-122.25-13.72-179.43-19.51-205.7-20.82-178.14-17-257.6-13.12-8.16-9.85-43.51,9.78-63.15-7.58-8.14-7.19-69.49-12.68-83.47-6.89-5.5,1.93-165.49-10.14-171.31-10.46-23.73-1.3-165.9-10.29-187.09.93C677.18,432.76,457.12,448.88,394.2,452.84Z"/><path class="cls-2" d="M1564.63,326.68c30.21,20.8,291.26,37.68,316.73,50.27,14,10.27-33.6,140.51-50.47,158-6.05,6.27-12,6.66-24.25.9-18.74-8.79-179.27-28.1-287.39-34-3.17-4.57-15,8.59-16.51,3.26-1.28-3-29.35-7.72-71.49-11.27-98.56-8.29-129.14-8.25-198.26-9.19-29.08-.4-94.92-.2-118.6.43-46.14,1.23-80.31,2.26-89.59,2.52-22.51.63-4.84-7.55-31.33-3.95-56.21,7.62-179.71,5.73-221.87,16.77-33.63,8.8-40.93,8.51-74.23,6.7C676.44,506,603.22,515,576.7,519.45c-20.91,3.51-94.14,15.31-109,24.58-4.53,3.3-8.44,2.91-8.92-.1C454.58,544.13,333,558,333,558c-1.5-2.82-5.54-3.62-8.67-1-6.2,3.24-135.26,39.88-139.33,31.67-11.66-23.53-16.17-131.67-5.9-160.5,5.39-15.14,31.81-19.65,65.57-23.7,127.9-15.34,26.81-9.34,215.87-37.15,176.26-25.92,166-11.83,302.75-41.36,8.94,8.42,39.19-16.23,60-1.07,8.52,6.21,66.28,4.22,78.86-3,4.64-2.67,98.17-3,103.69-3.08,18.43-.19,38.1.38,57.9.4,76.74.1,159,2.36,176.17-6.65C1281.9,327.12,1467,323.05,1564.63,326.68Z"/><path class="cls-2" d="M638.61,656.19c-14.14-7.37-66.86.67-117.55,11.31-25.35,5.31-50.2,11.14-69.6,15.58s-33.4,7.18-37.06,6.38c-12.59-5.59-22.84-142.2-16.37-163.9,2.3-7.7,6.31-9.59,16.76-8.12,9.46,1.88,104.56-18.19,114-20.12,51.87-10.65,101.93-20.46,101.93-20.46,3.34,3.82,9.1-11.35,11.4-6.46,3.64,6.31,113.55-10.46,172-18.42,54.48-7.41,130-17.55,189-23.72,17-1.78,4.23,7.45,24,3,42.23-9.56,136-7.5,167.94-15.91,25.71-6.77,31.28-7.31,56.46-3.07,20.58,3.46,160.69-3.43,176.35-12.52,3.76-2.58,6.67-1.59,6.71,1.45,2.64.36,95.54,4.58,96,7.17.71,3,3.56,4.54,6.31,2.56,4.89-3.53,106.88-10.46,108.3-1.5,4,25.46-13,132.09-24.9,157.81-6.29,13.66-25.12,11.92-49.07,8.7s-53-7.45-78.85.18c-263-2.54-246,2.91-291.74,13.66-6.41-8.93-27.58,14.36-42.45-.9-6.1-6.26-47.26-5.3-55.83,1.91-1.87,1.37-16.4,2.46-37.48,3.47-21.55,1-183.27,6.72-199.85,24.52C822.32,607,681.51,645.23,638.61,656.19Z"/><path class="cls-2" d="M1749.2,130.7c23.18,19.35,210,11.49,226.49,19.52,10.46,8.66-16.69,143.23-27.86,162.46-4,6.89-8.12,7.65-17.23,3.56-12-6.22-127.45-9.17-206.3-7.66-2.44-4.34-10.33,9.6-11.63,4.38-5.82-17.42-322.63-.1-341.23.88-16,.84-3.67-7.57-22.47-3.9-39.89,7.78-128.17,4.53-158.07,14.08-23.91,7.64-29.05,7.47-53,4.5C1109.69,325,986.75,342,973.81,353.39c-3.29,2.89-6,2.3-6.42-.72,0,0-1.41-.05-3.87.07-1.55.09-86,5.8-86.48,4.32-1.1-2.92-4-4-6.24-1.68-4.34,3.25-97.3,26.86-100.27,18.32-8.47-24.38-12.09-132-4.91-159.39,3.8-14.5,22.71-16.22,46.87-17s53.51-.33,78.13-11.7c305-33.48,195.74-10.77,290.64-35.84,6.55,8.7,27.44-15.16,42.59.28,6.16,6.28,47.08,5.17,55.92-1.84,4.08-3.24,109.3-3.11,114.51-3.14,19.92-.11,59.56-.86,79.36-2.09,22.79-1.4,39.9-4.08,45.23-8.51C1549.56,147.21,1660.83,136.79,1749.2,130.7Z"/></g></g></g></svg>