<svg xmlns="http://www.w3.org/2000/svg" viewBox="0 0 3660.9 962.95"><defs><style>.cls-1{fill:#fdd52f;}.cls-2{fill:#231f20;}.cls-3{fill:#fff;}.cls-4{fill:#78539d;}.cls-5{fill:#d94a3d;}.cls-6{fill:#7a529e;}.cls-7{fill-rule:evenodd;}</style></defs><title>Recurso_1</title><g id="Capa_2" data-name="Capa 2"><g id="Capa_1-2" data-name="Capa 1"><path d="M308.31,857.66c-44.48-2.93-86.13-35.14-96-79.26C202,721,232.71,662,274.31,623.87,195,581.66,89.2,587.36,20.7,647.84c.93,27.11-29.44,5.81-18.2-12.25,5.37-10.17,16.56-15.43,25.65-21.79,15.36-11,32.73-18.4,50.5-24.53C149,564.9,230.57,571.19,295.57,607.6c70.17-50.44,166.65-77,251.41-53.6,53.38-58.56,145.91-95.69,222.45-63.72,25.8,10.34,54.44,27,61.05,56.08,1,4.84,1.15,9.92,1.46,14.84,1,8.82-8.91,18.66-17.25,12.6-8.32-8.22-1.29-21.79-12.43-32.06-29.4-31.36-75.86-43.28-117.73-38.55-43,7.39-85.16,27.22-116.24,58.07,51.14,17.42,91.62,64.58,96.07,119.07,3.31,42.8-27.8,87.32-71.65,92.45-57.83,2.7-96.8-53.58-96.6-107.32-.32-33.65,14.39-66,34.73-92.18-73.46-15.53-154,4.36-215.29,46.77,48,34.22,88.7,88.4,92.38,148.75C408.54,823.83,361.75,862,308.31,857.66Zm19.76-26c66.67-12.29,67.22-67.36,41-118.57-17.34-31.75-43.62-58.45-74.11-77.74-39.82,31.77-75.9,94.1-57.5,145.53C252.48,815.51,291.05,835.48,328.07,831.64Zm263.55-81.4c54-8.49,65.61-70.61,37.69-111.24-15.31-30.14-46.17-48-77-59.09-19.73,23.89-35.29,53.6-35,85.23C517.39,706.31,546.72,752,591.62,750.24Z"/><path d="M3137.19,712.93c-44.47-2.93-86.12-35.14-96-79.26-10.31-57.42,20.43-116.42,62-154.53-79.3-42.21-185.1-36.51-253.6,24,.93,27.1-29.44,5.81-18.21-12.25,5.38-10.17,16.57-15.43,25.66-21.79,15.35-11,32.73-18.4,50.49-24.53,70.31-24.37,151.93-18.08,216.93,18.33,70.17-50.44,166.65-77,251.41-53.6,53.37-58.56,145.91-95.69,222.44-63.72,25.8,10.34,54.45,27,61.05,56.08,1,4.84,1.15,9.92,1.47,14.84,1,8.82-8.91,18.66-17.25,12.6-8.33-8.22-1.3-21.79-12.43-32.06-29.4-31.36-75.86-43.28-117.74-38.55-43,7.39-85.16,27.22-116.23,58.07,51.14,17.42,91.62,64.58,96.06,119.07,3.32,42.8-27.79,87.32-71.64,92.45-57.84,2.7-96.81-53.58-96.6-107.32-.33-33.65,14.38-66,34.73-92.18-73.46-15.53-154,4.36-215.29,46.77,48,34.22,88.69,88.4,92.37,148.75C3237.43,679.1,3190.64,717.28,3137.19,712.93Zm19.76-26c66.67-12.29,67.22-67.36,41-118.57-17.34-31.75-43.62-58.45-74.11-77.74-39.82,31.77-75.89,94.1-57.49,145.53C3081.37,670.78,3119.93,690.75,3157,686.91Zm263.55-81.4c54-8.49,65.62-70.61,37.7-111.24-15.31-30.14-46.17-48-77-59.09-19.72,23.89-35.28,53.6-35,85.23C3346.27,561.58,3375.6,607.23,3420.5,605.51Z"/><path class="cls-1" d="M1334.18,442.47c-2.63-.31-4.55-2-6.16-4-9.6-5.12-15.87-15.09-23.3-22.84a540.54,540.54,0,0,1-39.58-53.84c-7.17-.3-14.63-.33-21.47-2.72h0a1.7,1.7,0,0,1-.89-1.54c-9.49-14.21-15.82-39.5-14-56.59-3.49-4.86,11.23-5.85,14.13-8,21.45-8.85,41.65-20.43,63-29.6l-.5.23,3.1-1.46c12.33-5.88,24.66-11.79,37-17.55l-.49.23c42.56-20.32,84.86-41.22,127.34-61.72h0c2.81-1,6.74-4.93,9.2-1.46a1.93,1.93,0,0,1,1.56.69c14.44,6.66,20.22,32.49,25.25,46.44a2.88,2.88,0,0,1-.13-.31,4.76,4.76,0,0,1,.34,2.06c5.08.24,19.19-5.73,15.91,4.33,5,10.35,6.54,21.82,9,33,2.67,13.08-.1,24.93-15.34,25.83a2.12,2.12,0,0,1-.93,2.61c5.27,19,11.53,40.51,3.34,59.47-.39,8.37-17.45,3.14-23.25,4.12-13.18-.57-26.35-1.29-39.53-1.68-36.34-1.22-72.75-.95-109.07.46l.46,0c-9.91.5-19.83,1-29.76,1.25,8.81,16.68,18.54,32.86,28.08,49.13,3.12,5.11,8.28,10.91,6.37,17.29C1350.6,433.79,1343.12,442.88,1334.18,442.47ZM1276.25,362l.73,1,.2-.18-.43-.84Zm165.33-12.44c18.79.37,37.57,1.35,56.34,2.21-11-13.7-17.53-30.28-23.55-46.63l.22.57c-.25-.65-.51-1.29-.76-1.93.07.18.15.37.22.56-6.08-16.06-11.32-32.76-13.25-49.87v.1c-.08-.73-.15-1.45-.22-2.17h0s0-.08,0-.12a.13.13,0,0,1,0,.06.17.17,0,0,0,0-.07h0c-2-18.51-5.41-38.29,2-56.06-41.77,20.32-83,41.8-125.09,61.39l.49-.23c-8.48,4-16.91,8.13-25.41,12.12l.5-.23-.78.36.5-.23-1.16.54.5-.23c-1.15.55-2.3,1.11-3.46,1.63h0c-2,.95-4,1.87-6.06,2.79,6.32,23.07,15.25,45.7,24.74,67.71h0s0,0,0,0h0l.16.4h0l0,.07h0c1,2.73,2.19,5.39,3.34,8.06h0a5.87,5.87,0,0,1,.36,1.17c3.38-.11,6.75-.25,10.12-.39h-.3C1374.5,349.47,1408.06,349.27,1441.58,349.51Zm63.9-51.72c-7.37,2-14.87,3.52-22.12,6,6.53,16.43,11.9,35.85,26.61,46.84,8-14.77,4.46-32.46.79-48v0c-.41-2.05-1.37-4.07-1.16-6.18C1508.24,296.92,1506.87,297.38,1505.48,297.79Zm-37.08-50.85c1.8,17.93,7,35.41,13.23,52.27,11.44-6.08,24-9.45,36-14.3-6.13-13.75-12.31-31.78-7.94-46.67-13.38,1.77-26.81,1.71-40.26,2.37a1.62,1.62,0,0,1-1.76,1C1467.93,243.4,1468.18,245.17,1468.4,246.94Zm50.78,16.64a64.65,64.65,0,0,0,7.17,17.78c1.76-11.41-4.5-33-9.63-43.56-4.27,6.74.36,15.23,1.63,22.33,0-.2-.09-.39-.14-.59l.39,1.62c0-.19-.09-.39-.14-.58Zm-39.28-76.1c-17.83,8.94-14.64,32.08-13,48.74,10.93-3.31,22.41-2.9,33.61-4.73-4.65-12.52-8.86-36.81-19.43-45A4.31,4.31,0,0,1,1479.9,187.48Z"/><path d="M1111.27,314.78c-3.47.21-8.22-2.8-4-5.82,16.8-2.11,28.06-10.13,4.64-16-8-2.47-8.51-12.23-9.69-19.2a.75.75,0,0,0,0,.16l-.11-.41v0c-.16-2.1-2.81-5.93,0-7,.31-8.36,6.15,13.34,6.92,14.75.82,3.06,1.76,6.08,5.42,6.34l-.09,0C1136.91,292.74,1131.63,312.92,1111.27,314.78Z"/><path d="M1059.9,329.14a.81.81,0,0,1-.48-.85h0a49.16,49.16,0,0,1,11.19-14.86c2.67-.76.61,2.16-.48,2.83h0a46.29,46.29,0,0,0-4,4.32l.07-.11,0,.07h0l-.69.9v0l-.08.1,0,0a59.47,59.47,0,0,0-3.77,5.68l.06-.11c-.09.16-.18.32-.28.48h0C1061.05,328.11,1060.87,329.4,1059.9,329.14Z"/><path d="M1072.37,325.42c-3-1.05,9.67-14.9,11.24-17,5.66-1.67-3.24,6.81-4,8.17l0-.05-.1.14,0,0C1077.15,318.88,1075.27,324.67,1072.37,325.42Z"/><path d="M1049,333.06c-3.11-.42,8-18.86,9.83-15.89.35,2.76-4.27,5.35-5.36,8.13-1.31,2.21-3.08,4.43-3.66,6.93A.88.88,0,0,1,1049,333.06Z"/><path d="M1134.58,306.31c.57-2.28,7.88-16.55,10.2-14.79.83,2.57-5.59,8-6.64,11.15v0C1137.14,303.54,1136,309.4,1134.58,306.31Z"/><path d="M1144,305.76c-3.42-1.12,2.56-5.86,3.16-7.84,1.63-1.51,2.65-6.17,5.24-5.4a1.5,1.5,0,0,1,.07,2.1C1149,297.78,1147.48,303.11,1144,305.76Z"/><path d="M1041,304.82c-3.8-4.47-.18-10.45,2.41-14.61,5.6-8.08,16-9.69,25.14-8.09,7.15.53,15.57,7.88,12.24,15.46-4.33,3.34-11,3.46-16.24,4.82-6.57,1.28-13,3-19.74,1.51A2.32,2.32,0,0,1,1041,304.82Zm3.06-3.59c11.32-.5,22-4.48,33.07-6.52-4.37-14-34.93-9.09-33.37,6.37A1.4,1.4,0,0,1,1044,301.23Z"/><path d="M1043,305.56a1.87,1.87,0,0,1-.24-3.73c9.61-.7,19.78-3.6,29.09-6.66,9.67,3.72-16.87,9.45-19.68,9.57h0A20.53,20.53,0,0,1,1043,305.56Z"/><path d="M1037.49,290.53h0c-.44-.49-.06-1.09.33-1.46l0,0c6.69-11.76,23.23-17,35.23-10.47a1.46,1.46,0,0,1,.16,2.75c-2.07-.41-4-2.16-6.23-2.47l.16,0a26.43,26.43,0,0,0-11.87,0l.14,0a25.91,25.91,0,0,0-16.34,11C1038.69,290.35,1038.06,291.1,1037.49,290.53Z"/><path d="M1123.49,283.75c-5.5-1.4-3.58-8.59-2.53-12.59,1.79-6.39,8.31-10.79,14.42-12.55,8.39-2,22.6,3.78,18.35,14.24-3.41,4.24-10.09,4-14.73,6.57C1133.93,280.93,1128.82,283.89,1123.49,283.75Zm1.78-4.58a1.66,1.66,0,0,1,1.23.83c7.37-3.59,14.77-7.09,22.67-9.32l-.14.06.3-.12,0,0,.65-.28c-1-7.25-12.48-8.12-17.76-5-4.36,2.1-7.63,5.6-8,10.6C1124.19,277.05,1123.52,279.28,1125.27,279.17Z"/><path d="M1135.26,274.46c-5.3-2.24-4.24-10.79,1.17-12.12,3.27-3.94,9.31-1.44,10,3.29C1147.55,271.61,1140.88,277.33,1135.26,274.46Z"/><path d="M1061,296.6c-5.79-4.17-1.27-14.64,5.75-12.52C1077.11,287.47,1070.19,302.45,1061,296.6Z"/><path d="M1017.85,287.36c-2.08.28-4.57-.5-5.13-2.75-.8-7,7.68-10.56,12.49-13.95,10.31-6.09,21.83-9.8,33.51-12.15,21-3.7,42.46,6.26,7.37,11.5l.3-.07c-16,3.91-30.77,12.1-46.44,17.12A1.19,1.19,0,0,1,1017.85,287.36Z"/><path d="M1080.42,265.92c-2.07-.35-2.76-3-1.8-4.65-8.83-1.73-18.63,0-27.21,2.42,2.36,4.3-11.44-.05,6.86-4.87l-.13,0c8.21-1.72,19.29-7.11,26.52-.75C1086.67,261.17,1084.15,266.1,1080.42,265.92Z"/><path class="cls-2" d="M1028.05,387c0-.28-.08-.56-.11-.84l0,.19c-.18-1.65-.29-3.31-.47-5,0,.06,0,.12,0,.18-.13-1.94-.8-3.85-.82-5.78l0,.07h0a1.82,1.82,0,0,1,.16-.55v0c2.58-2.84,2.34,3.18,2.84,4.69-.1,2.4,2.07,6.29-.17,7.92A1.13,1.13,0,0,1,1028.05,387Z"/><path class="cls-2" d="M1033.56,389.19c-.07-3.26-2.77-10.75-.11-12.83,1.21-.14,1.23,1.24,1.14,2.1v0a44.11,44.11,0,0,0,.24,5h0C1035,384.75,1036.56,392.52,1033.56,389.19Z"/><path class="cls-2" d="M1111.88,394.5c-2.08-.6-6.87-3.54-3.53-5.55,1.82,0,2.68,2.53,4.66,2.91C1114.34,392.58,1113.33,395,1111.88,394.5Z"/><path class="cls-2" d="M1115.82,390.89c-.79-1.37-2.7-2.1-3-3.54.92-2.89,3.47.84,4.57,1.81C1118.25,390.08,1116.84,391.9,1115.82,390.89Z"/><path class="cls-2" d="M824.78,492.07c-4.92-1.85,17.86-21.74,19-16.21,1,3.92-5,4.54-7.23,6.61-3.38,2.29-6.82,4.73-9.38,7.94A1.74,1.74,0,0,1,824.78,492.07Z"/><path class="cls-2" d="M816.66,466.67c-6.06-1.35,5.09-16.58,8.78-12.14,1.67,4.25-5.85,4.88-6,9.18,0-.11.05-.21.07-.31C819.29,465,818.48,466.73,816.66,466.67Z"/><path class="cls-2" d="M872.3,204.48c-2.59-2-21.25-6.35-17.69-9.77,1.74-2.23,11.81,3.26,15.37,3.37,2.34.79,7.32,1.07,5.86,4.69A3,3,0,0,1,872.3,204.48Z"/><path class="cls-2" d="M924.12,146.29c-2.78-3.84-5.2-8.35-9.23-11-2.82,9.49-5.67-12.45,9.2,5.34,0-.06-.09-.11-.12-.16l.16.21,0-.06a1,1,0,0,1,.13.16h0c.09.12.18.24.28.35l0,0,.13.16-.05-.06.13.16-.06-.07c.13.15.24.31.36.45l-.13-.16c.71.88,1.38,1.79,2.06,2.69C928,145.86,925.29,147.92,924.12,146.29Z"/><path class="cls-2" d="M1097.12,95.24c-3-6.26,1.39-14.08,1.22-20.85.31-3.42,6.23-3.78,5.65.16-.51,6-2.16,12-2.11,18C1101.88,94.82,1099,96.64,1097.12,95.24Z"/><path class="cls-2" d="M1213.27,151.23c-3.93-4.33,5.84-9.47,8.8-11.85,5.41-1.56,4.3,4.5.07,5.72C1218.55,146.2,1217,152.4,1213.27,151.23Z"/><path d="M970.71,962.94c-26.86.12-53.63-1.4-80.1-6.07a109.76,109.76,0,0,1-38.5-9.69c-23.73-9.11-29.17-37.14-32.29-59.6v.11c-.06-.48-.11-1-.16-1.44l.06.51c-5.06-48.1-8.23-96.33-11.73-144.56-4.31-70.57-11.72-152.07,35.92-210.48,20.29-21.83,49-33.12,76-44.29,28.12-11.71,56.95-21.6,84.74-34.09-2.66-12.31-3.32-25-5.28-37.4,0,.05,0,.09,0,.14A125.25,125.25,0,0,0,996.84,400a1.64,1.64,0,0,1-.22-.14c-17.63,6.37-27.18-15-29.22-29.14-25.73,2.8-36-26.76-21.44-44.91-8.41-10.25-19.65-19.23-23.09-32.6-4.44-14.28,3.64-29.31,19.75-28.08-3.35-19.17,8.21-39.79,28-43.43,2.49-31.65,28.77-59.61,62-49.63,9.82-18.95,36.75-40.68,55.41-19.94,7.13-25.92,56.46-30.84,55.34,1.65,19.91-12.2,47.61,1.71,33.1,26,12.65,2.52,11.92,20.1,5.44,28.4-7.41,11.77-21.22,17.52-34.81,17.18,1.37,2.94,2.32,6,3.45,9.06h0c5.82,14.51,9,29.92,13.31,44.9,2.64,8.71,6.08,17.16,9,25.8,2,4.23,4.07,10-1.15,12.75-26.76,11.73-56.29,17.15-85,22.46,9.43,22.94,36.71,20.7,56.61,14.92l-.06,0,.29-.07h0l.1,0h0c6.47-.6,31-11.85,34.14-7.58,16.85,26.08-12.76,38.47-34.48,41.05.55,16.15,5.29,31.79,6.61,47.86,25.69,10,54.72,9.79,80.19,21,45,15.78,73,73.52,96.42,112.28h0q14.07,25.93,28.4,51.74v0l.66,1.17c-.08-.16-.17-.31-.26-.46.44.76.88,1.52,1.3,2.29l-.25-.46c14.29,26.8,30.18,52.66,45.52,78.85a.61.61,0,0,1-.07-.1l.18.3,0,0c3,4.91,6.1,11.05,12,12.74,4.2-9.16-2-19.26-3.11-28.6v0c-.18-.72-.35-1.44-.53-2.16,0,0,0,0,0,0-.6-2.4-1.17-4.79-1.76-7.19,0,.07,0,.15.05.22-12.4-43.82-29.1-86.43-46.22-128.61-8.51-19.16-16.07-38.81-25.43-57.58-7.24-10.22-13.62-21-21.22-31l.13.17-.22-.27,0,.05-.14-.18c-10.9-15.76-19.86-37-14.1-56.15l-.09.3c0-.12.07-.24.1-.36v0c1.49-9.94,14.43-25.17,17.28-7.11.08,8-1.56,16-.55,24a2.54,2.54,0,0,1-1.57,3c-6.47-.23-.18-23.78-2.81-28.71-4.89-6.39-10.26,23.65-7.21,27,2.68,8.59,4.7,17.5,9.41,25.28,8.94,13,18.72,25.42,27.5,38.55,19.13,38,35.29,77.62,49.61,117.67h0l0,0h0c.23.57.45,1.14.67,1.7v0c7.74,19.73,14.36,40,20.12,60.34,0-.19-.09-.38-.14-.57.1.4.2.8.29,1.2l0-.14c1.54,10.17,17.73,64.06-6,53.46-8.93-5.46-12.57-16-18.26-24.28-14.13-21.54-26.86-44-39.28-66.52v0l-.11-.19v0c-.06-.12-.13-.23-.19-.34l.06.11c-10.83-19.19-21.2-38.65-31.86-57.94h0c-3.78-6.53-7.72-13-11.36-19.59h0l0,0h0l0-.06h0l0,0v0h0c-13.71-23.79-28.64-47.32-48.68-66.33l0,0-.06-.06h0l-1.9-1.77,0,0-.16-.15.23.21c-19-20.46-48-23.23-73.5-30.53-4.65,15.51-10.4,30.65-15.75,45.94-3.53,7.81-4.57,17.44-9.92,24.14-3.6,2.14-5.94-2.61-8.25-4.61-5.68-6.12-11.64-11.92-17.65-17.7-2.38-2.94-12-9.53-2.56-9.15,1.19-.55,2.06.95,1.43,1.93,9,5.81,17.44,12.29,24.62,20.24,6.9-20.9,14.76-41.49,21.15-62.55a93.19,93.19,0,0,1-20.06-6.19l.14.06a45.88,45.88,0,0,1-4.6-2.3c-14.08,25-31.76,48.16-46.59,72.87l0,0-.2.35,0-.05-.33.56.06-.11c-4.84,7.65-8.18,17-15.46,22.67,9.09,38.62,12.48,78.18,16.21,117.6,0-.05,0-.1,0-.15,4.31,36.08,10.83,71.94,12.51,108.28.55,34.44,5.29,68.62,5.38,103.06q31.15-.22,62.13,2.5c12.18,2,25.39,0,37,4.37.81-.11,1.14.77,1.59,1.29l0-.06c.1.11.19.26.33.31a1.08,1.08,0,0,1,.91.56c18.76.33,38.11-5.21,56.33,1.77-7-52.12-7.89-104.73-9-157.24-.88-17-2.79-33.92-4.57-50.85.34-6.06-5.09-15,1.17-19,5.63-2.39,6.88,5.5,9.29,8.86,4,7.08,8.34,13.92,12.61,20.82,24.28,41.57,44.79,85.94,77,122.21,7.27,7.84,15.46,15.84,25.3,20.26,21,6.47,43.79,3.1,64.86-1.57,11.17-3.42,21.47-9.59,26.95-20.27,7.79-11.46,13.23-24.62,13.54-38.63,2.07-43.74-11.77-85.49-29-125.09l0,.07-.33-.84,0,.07c-6-17-13.2-33.47-20-50.11l.21.52c-10.52-25.27-21.81-50.53-37-73.39-9.94-15.4-22-29.25-33.53-43.38-4.18-7.82-8.47-15.55-13-23.17l.25.44c-13.21-24.59-4.44-15.91-1.23-33.4-3.25-.48-6.22,3.34-9.22,1.68-3.8-4.53,5.78-12.3,2.59-17.64-4,.15-8.07,4.17-11.93,2.49-4.43-5.44,6.73-13.06,4.95-19.81,0,.1.05.21.08.31a2.74,2.74,0,0,0-1.33-2l.27.12a5.76,5.76,0,0,0-1.36-.47l.28.08-.8-.14.28,0a16,16,0,0,0-8.46,1.92c1.35,1.81-2.66,3.24-3.89,4.11-5.52,1.54-.27-5.48,1.87-6.37,14.63-10.26,21.89.5,14.93,14.78,12.1-4.78,12.28,7.4,8.79,15.48,12.8-3.15,7.83,14.1,3.49,19.95,3.76,13,13.42,23.1,18.71,35.4,13.11,16.69,27.22,32.76,38.46,50.87,26,42.1,42.15,89.3,61.06,134.8-.07-.19-.15-.37-.22-.55,6.58,16.63,12.74,33.48,17.16,50.82h0v0h0c.09.38.19.77.28,1.15v0c5.56,27.55,10.31,60.59.14,87.42-7.77,16.84-18,34.28-36.77,40.16-19.6,6.46-41.44,9.12-62,6.53-25.61-2.5-41.29-25.92-56.68-44a1.47,1.47,0,0,0,.1.13c-27.15-35.68-45.65-76.91-69.13-114.93,5.6,45.08,3.62,90.52,6.86,135.75,1.37,17,2.58,33.93,4.22,50.87-.1,5.35,3.57,12.69-.9,16.83,15.24,6.74,31.85,15.11,40.73,29.8,6.79,14.6-6,15.83-15.27,7.8,12.56,8.34,8.5,22.67-6.67,14.24h0c7.29,14.79-11.33,8.66-18.45,5.48,5.8,13.62-15.47,4.21-21.57,4.42-15.74-1.77-31.42-4.81-47.33-3.15-11.38,10.48-59.18,6.74-76.52,9h0c-5,.37-10,.77-15,1.13l.5,0c-21.61,1.42-43,4.53-64.56,6.69-10.24.5-20.56.54-30.6,2.87C1012,963.27,991.16,961.06,970.71,962.94Zm-76.1-12c42.11,6.47,84.86,5.06,127.18,2.31,18.84-5,38.35-3.94,57.44-7.12,42.53-7.13,86-4.71,128.51-10.61,1.31-11.84,2.36-23.69,4.42-35.44h0c1-6.21,1.67-12.51,3.57-18.53-61.74-6.76-123.9-4.06-185.86-6.09h0c-11.54-1.08-23-2.86-34.57-3.77-17.16-1.83-42.39,3.09-48-18.72-7.67-26-10.28-53.12-11.51-80.09-1.16-36.27-4.42-72.36-7.38-108.51-1.38-10.69-3.61-21.33-3.37-32.16,0-3.6,5.68-5.09,6.31-1,.2,1.64.37,3.28.55,4.92h0l.18,1.64,0-.17c6.1,39.68,11.88,79.61,12.71,119.84,1.44,22.71,1.44,45.6,5.94,68,2.26,10.4,2.09,22.33,8.39,31.28l-.13-.12.24.22-.15-.14c11.47,9.2,28.28,3.86,42,6.51,39.05,5.73,78.43,4.34,117.78,4.31.24-20.93-1-41.8-2.82-62.64-1.61-25.62-1.56-51.33-4.88-76.82l0,.27c-4.06-32.94-10.13-65.61-13.38-98.65l0,.23c-.1-.87-.19-1.75-.29-2.62,0,.12,0,.25,0,.37-3-29.44-8.45-58.67-10.77-88.16-5.2-.74-8.32-6.34-12.17-9.49-6.25-6.07-11.91-12.71-18-19-16.55-17.19-33.17-34.2-48-52.87a2.49,2.49,0,0,1-2.5-1c-4.95,3.85-10.46,6.92-15.81,10.16,8.81,19.36,17.54,38.8,24.85,58.79,3.76-3.87,17.38-30.76,22.45-25a4.11,4.11,0,0,1-.16,5.32c-5.39,6.86-10.17,14.15-14.9,21.46-2.65,3.23-3.86,8.65-8.19,10-5.88-.18-6-9.79-8.47-13.94-6.72-18.15-13.83-36.16-18.35-55-35.34,17.64-73.86,28.54-108.56,47.54l.08,0-.12.07h0l0,0,0,0-.21.12h0c-52.95,26.24-64.47,92-66.37,145.69,0-.11,0-.23,0-.34l0,1.4h0v.24C812.16,717.3,817.67,771,821,824.65c5.25,31.64-.36,95.63,28.27,114.36a3.62,3.62,0,0,1-.32-.22,48.47,48.47,0,0,0,5.91,3l-.35-.16c9.1,3.79,18.37,7.58,28.32,8.17h.1l2.43.21h0C888.49,950.33,891.55,950.58,894.61,950.9Zm336.47-20.74c16.52.59,33.08,3.78,49,8.25a76.69,76.69,0,0,0-11.45-7.11,3.17,3.17,0,0,1,2.2-5.13c10.5,2.26,20.12,7.43,30.62,9.8-6-7.6-16.55-11.77-25.68-14.57-2.56-1.38-1.2-6,1.67-5.88,5.84,1.19,11.76,2.49,17.26,4.85,6.91,2.13,12.83,8.8,20.12,8.75-6.71-10.28-18.79-16-29.48-21.28-5.78-2.83-1.61-8.58,3.64-5.8A216.35,216.35,0,0,1,1310.3,910c4.64,1.93,8.17,6.15,13.24,7-8.93-18.2-31.53-26.2-49.78-32.1-16.32-4.26-33.69.55-49.82-4.54-.12.71-.24,1.42-.35,2.13l.09-.64c-2.41,16.06-5.16,32.25-5,48.5C1222.84,930,1227,930.08,1231.08,930.16ZM1011.24,455.05c26.85,23.81,51.11,50.38,76,76.19,19.63-28.83,37.88-58.78,56.64-88.15-1.51-19.45-8-38.46-7.65-58,3.3-10.24,51.75-3.29,37.82-32.9-11.09,3.33-22,7.43-33.28,9.92h0l-2.89.68h0c-24.88,6.33-51.36,2.93-58.43-25.44,2.34-6.19,17-5.05,22.93-7.31,6.93-1.54,13.9-2.86,20.83-4.39l-.47.11c15.6-4.67,32.62-6,47.29-13.16-.2-.72-.49-1.43-.76-2.13h0c-8.72-21.38-14-43.83-20.19-66-1.67,7.42-11.85,5.35-17.51,7.4-7,.08-12,6.13-18.78,6.43.19,1.83-1.89,1.32-1.66-.28-15.05-10.41,28.93-26.86,35.93-19.88a65.76,65.76,0,0,1-1.76-6.47h0c-.5-2.16-1.08-4.31-1.47-6.49-10.88-2.77-19.72-11.75-27.58-19.41-4.85,18.44-25.78,24.49-40.56,13.06-2.88,21.24-27.88,28.88-45.44,19.9,0,11.91-10.74,22.21-22.82,19.05,2.17,8.55-4.77,16.57-13.6,14.82,6.29,18.86,14,37.36,21.8,55.66,2.56,7.72,8.05,15.22,7.38,23.61-6.8,11.95-19.71-12.29-22.85-18h0l0-.11,0,.08c-2.18-5-9.24-.6-12.9.79-9.71,5.92,7,20,12.42,24,6.23,8.63,9.72,29,2.21,37.61,4.4,19.08,6.19,38.61,9.31,57.93h0A3,3,0,0,1,1011.24,455.05Z"/><path d="M1337.1,490.75c-1.89-8.68,14.39-10.28,19.61-14.26,6.33-3.9,13.31-6.46,19.94-9.72,1.59-1.35,4.41-1.8,5.21.63,6.81,4.9-20.78,13.79-24.21,16.52C1352.46,484.68,1340.22,496.26,1337.1,490.75Z"/><path class="cls-2" d="M1334.82,387.5c-3.42-1.76,1.16-6.55,3.72-6.42C1342.3,382.55,1337.31,387.77,1334.82,387.5Z"/><path class="cls-2" d="M1348.67,399.55c-4.46-.44,3.75-12.15.8-18.87l.12.3c-2.67-3.23-8.21,2.41-10.63,4.38-1.94,1.22-3,4.26-5.41,4.39-8.89.51,10-15.78,13.46-15C1358.39,371.08,1354.66,399.27,1348.67,399.55Z"/><path class="cls-2" d="M916.93,870.05c-.32-2.56,2.84-2.44,4.58-2.83h0l.18,0h0l.15,0h0l.18,0h0l.27,0h0c2.22.06,5.91-2.56,7.41-.39-.16.86-.36,2.38-1.31,2.67-.83.06-.89-.91-.62-1.48C924.94,868.29,918.5,873.41,916.93,870.05Z"/><path class="cls-2" d="M922.11,848.83c-3.58-.79-21.47-3.8-18.66-9a2.61,2.61,0,0,1,3.37-1.34c5.29,2.4,10.43,5.59,16.32,6.18C925.64,845.22,924.45,849.27,922.11,848.83Z"/><path class="cls-2" d="M988.37,792.72c-1.87-.67-6.31.12-6.36-2.51,1.13-2.5,4.9,0,7.06-.32C990.79,790.25,990,793,988.37,792.72Z"/><path class="cls-2" d="M1057.34,560.4c-3.26-3,5-8.54,6-12,.87-1.26,1.41-3.78,3.41-3.25a1.82,1.82,0,0,1,.82,2.6C1065.25,550.76,1061.24,560.92,1057.34,560.4Z"/><path class="cls-2" d="M1276.08,633c-3.39-1.6,2-5.49,3.18-7.26,2-1.47,4.13-6.53,7-4.9,2,3.4-7.08,7.7-8.65,11l0,0C1277.31,632.36,1276.85,633,1276.08,633Z"/><path class="cls-2" d="M1293.13,652c-.19-2.48,5.17-10.29,7.83-8.25,1.84,2.78-2.69,4.6-3.88,6.73-.81.88-.67,2.49-2.08,2.78A1.52,1.52,0,0,1,1293.13,652Z"/><path class="cls-2" d="M1397.54,759.42c-1.7-4.22,3.36-8.37,5.3-11.85l0,0c.13-.18.27-.35.41-.53l0,0,.1-.13,0,0,.08-.11h0l.14-.18,0,0c4.9-7.62,8.57-1.68,4.46-.72a.3.3,0,0,1-.08.08l.08-.07-.15.15,0,0a40.18,40.18,0,0,0-7,11.7C1400.81,759.38,1398.73,760.67,1397.54,759.42Z"/><path class="cls-2" d="M1415.6,762.35c-4.43-2.22,1.92-8.91,3.09-12l0,.06c1.87-2.13,3.67-7.87,7.13-6.57a2.28,2.28,0,0,1,.11,3.24C1421.45,750.26,1419,763,1415.6,762.35Z"/><path class="cls-2" d="M1544.82,775.58c1.36-8.42,2.07-17.12-.6-25.36l.06.25c-.07-.28-.13-.56-.2-.84l.06.24c-1.72-3.56,2.84-6.68,3-2.16a52.86,52.86,0,0,1,3.53,22.48V770c0,.14,0,.27,0,.4h0c0,.16,0,.31,0,.47v-.17c-.26,2.74.56,7.28-3.11,7.9A2.61,2.61,0,0,1,1544.82,775.58Z"/><path class="cls-2" d="M1513.51,810.79c-2.56-2.34.9-4.83,2.29-6.7,3.35-4.64,5.39-10.05,7-15.48,0,0,0,.11,0,.16a59.45,59.45,0,0,0,2.38-11.42c0,1.21-1.79,1.82-1.67.28a4.46,4.46,0,0,1,2.08-3c4.8,2.35-1.88,23.67-4,28.17,0-.11.09-.21.14-.32C1519.89,805.32,1517.75,812.43,1513.51,810.79Z"/><path class="cls-2" d="M1490.13,830.86c-5-2,1.68-5.67,3.81-7,1.47-.84,2.63-2.53,4.39-2.7,5,2-4.87,6.9-6.38,8.84l.22-.18A3.1,3.1,0,0,1,1490.13,830.86Z"/><path class="cls-2" d="M783.18,957.69c-3-.05-4.94-3.44-2.71-5.76,3.5-2.93,8.8-1.68,13-2.41,10.14-1.34,20.26.25,30.39-.52,12.49-1.19,25.06-1,37.52-2.63,5.35-1.29,6,4.83.86,5.61l.4-.12C836.71,958.21,809.61,955.43,783.18,957.69Z"/><path class="cls-2" d="M1327,912.22a1.64,1.64,0,0,1-.82-.56c-4.39,1.55-6.65-4.64-2.48-6.53,7.9-1.8,16.32-1.77,24.38-3.18,32.08-2.3,64.36-.85,96.47-2.94h.29c15.65-.12,31.21-2,46.86-2.27,4.31.86,16-3,16.29,3.3-1.73,6.42-15.56,3.58-21,5-36.73,4.63-73.81,3.2-110.66,6.48l.53,0c-15.18.28-30.36.77-45.55.7C1330.42,914.15,1328.29,912.93,1327,912.22Z"/><path class="cls-3" d="M953.92,304.68c-4.3-4.35-10-10.37-8.85-16.95h0c.26-1.08,2-.92,1.68.28a3.36,3.36,0,0,0,0,2l0-.13c1.49,5.12,5.66,8.92,9.45,12.45C957.41,303.66,955.29,306,953.92,304.68Z"/><path class="cls-3" d="M967.51,254.64c-6.16-1.56.94-11.32,4-13.41,2.39-.88,6.56-5.59,8.73-3.11a2.09,2.09,0,0,1-.88,2.57c-3.68,2.28-8.07,3.85-10.19,7.9l.14-.21a8,8,0,0,0-1.31,3.46C969.7,252.07,969.06,254.73,967.51,254.64Z"/><path class="cls-3" d="M1017.3,223.32c-2.57-.42-9.44-1.43-9.66-4.39h0v0c1.29-3.18,5,.67,7.32.64,1.49.49,4.71-.08,4.25,2.33A1.84,1.84,0,0,1,1017.3,223.32Z"/><path class="cls-3" d="M1031.72,201.3c-3.54-3.6,8.87-14.27,12.93-14.19,3.79-.14,1.7,4.07-1,4.14l.25-.09c-4.24,1.26-7.29,4.82-9.71,8.35A1.83,1.83,0,0,1,1031.72,201.3Z"/><path class="cls-3" d="M1090.73,179.57c-3.1-2.44,9.76-7,11.74-7.72,1.77-.19,5.79,1,4.75,3.31a1.57,1.57,0,0,1-2,.76C1100.62,173.1,1094.82,177.68,1090.73,179.57Z"/><path class="cls-3" d="M1124.09,189.3c-2.24-.27-5.62-.81-6.62-3,.14-.45.6-.35.75,0h0l.2.13h0a8.68,8.68,0,0,0,2.36.91h0l.08,0h0a11.28,11.28,0,0,0,1.42.2h0c2.88.44,5.76-1.53,8.48-1.09C1132.65,189.78,1126,189.22,1124.09,189.3Z"/><path class="cls-3" d="M1142.61,169.37c-.48-2.19,2.4-2.32,3.77-3.1,2.35-.78,4.32-2.79,6.72-3.21,1.7.29,1.43,2.69,0,3.23C1150.48,166.86,1144.49,171.82,1142.61,169.37Z"/><path class="cls-3" d="M1069.11,206.27c-5.09-3.73-.19-8.51.89-4.39a11.87,11.87,0,0,0,1.67,1.73C1073.12,205.09,1070.65,207.79,1069.11,206.27Z"/><path class="cls-3" d="M1243,320.48c-1-4.87,4.75-9.89,7-14.06a1.93,1.93,0,0,1,2.88-.29c2.26,3.54-5.64,9.2-6.54,13.23,0-.11.05-.21.08-.31l-.06.22v-.07C1246.24,320.83,1244.07,322,1243,320.48Z"/><path class="cls-3" d="M1254,319.15c-2.93-2.16,2.66-4.84,3.38-7.15,1.81-1.68,2.68-7,5.75-5.84a2,2,0,0,1,.37,2.65C1260.61,312.17,1258.35,317.89,1254,319.15Z"/><path class="cls-3" d="M1267.21,316.28c1.79-5.44,4.81-11.42,8.91-15.41,4.18-.66,2.76,4.36.72,6.08a3,3,0,0,0,.2-.29,70.93,70.93,0,0,0-5.94,9.66C1271,318.92,1267.05,319.07,1267.21,316.28Z"/><path class="cls-4" d="M2045.48,869.92a2.92,2.92,0,0,1-1.9-2.53c-.23-2.54,2.71-3.92,4.57-4.94,1.49-.82,3-1.56,4.54-2.31,3.29-1.63,6.56-3.29,9.73-5l4.36-2.4c2.49-1.39,4.92-2.85,7.31-4.39s5-3.16,7.46-4.7c5-3.08,10-6.07,15-9.06,3.35-2,6.76-3.84,10.2-5.64l4.57-2.35c0-.15-.07-.31-.09-.48,0-5.83.36-11.68-.13-17.51s-1.11-11.46-1.72-17.18c-1.57-11.88-2-23.85-2.41-35.81-.23-5.81-.22-11.62-.33-17.42q-1-23.76-2-47.51c-1.5-18-2.25-36-2.66-54-1.24-18.33-1.67-36.68-1.81-55q-.45-17.14-1.47-34.27a76.14,76.14,0,0,1-9.13-2.63c-3.47-1.36-7.91-3.52-8.57-7.58-.3-2,1.08-3.87,2.08-5.51a54.13,54.13,0,0,1,12.51-15c-4-2.57-8.16-4.74-12.14-7.29-4.39-2.91-8.57-6.13-12.77-9.29a196,196,0,0,1-16.84-15.63c-7.31-7.31-14.24-15.12-19.08-24.33-2.46-4.66-4.68-9.44-6.91-14.22-5.11-12.21-8.42-25.09-12.36-37.71-5.65-18.76-11.4-37.57-15.24-56.8-3.6-19.22-8.16-38.25-12-57.42-1.11-5.33-2.38-10.64-3.37-16a17.61,17.61,0,0,1-.27-4.1,3.89,3.89,0,0,1,1.15-2.51,1.89,1.89,0,0,1,.72-.46l.16-.14a9.37,9.37,0,0,1,1.67-1.05l1-.49c.66-.3,1.36-.57,2-.81,2.72-1,5.46-1.89,8.23-2.74s5.65-1.59,8.5-2.3,5.76-1.3,8.65-1.92c5.5-1.17,11-2.31,16.55-3.31,5.79-1.06,11.6-2,17.46-2.54,2.75-.27,5.51-.44,8.26-.62l8.57-.54c3.09-.19,6.19-.42,9.28-.67,2.68-.23,5.37-.49,8.06-.73,3-.27,6-.51,9.07-.7,2.77-.17,5.54-.25,8.31-.32,5.77-.15,11.55-.17,17.32-.43,2.71-.12,5.42-.37,8.12-.61,2.91-.25,5.82-.49,8.74-.66s5.88-.18,8.83-.09c2.72.08,5.44.29,8.16.48,2.89.21,5.77.42,8.66.56s5.84.24,8.76.33c5.77.18,11.54.4,17.3.71,2.86.15,5.72.33,8.58.47s5.86.27,8.78.43c5.49.31,10.93.95,16.38,1.58s11.2,1.27,16.73,2.27c2.54.46,5.05,1.11,7.54,1.77l3.77,1c1.14.29,2.29.62,3.45.82l1.25.12a4.74,4.74,0,0,1,3.18,1.62,4.67,4.67,0,0,1,1,3.92h0a1.7,1.7,0,0,1,.35.45l0,.05h0a5.45,5.45,0,0,1,.48,2.43,16.85,16.85,0,0,1,0,2c-.08,1.44-.16,2.89-.29,4.33-.28,3-.57,6-.86,9-.25,2.67-.48,5.34-.73,8s-.49,5.63-.87,8.43c-1.56,11.4-4,22.65-5.86,34-.91,5.42-1.5,10.89-2.5,16.3-1,5.61-2.14,11.2-3.15,16.82-.54,3-1.08,6-1.73,8.93-.6,2.68-1.29,5.33-1.95,8-1.35,5.44-2.64,10.89-3.8,16.37-1.12,5.23-2.5,10.39-3.92,15.54s-2.84,10.5-4.32,15.74-3.18,10.1-5,15.08c-.47,1.34-1,2.67-1.56,4s-1.24,2.5-1.91,3.72c-1.29,2.4-2.67,4.75-4.1,7.07s-3,4.83-4.64,7.13a55.41,55.41,0,0,1-5.8,6.63c-1.92,2-3.92,3.87-5.89,5.79s-4.13,4-6.24,5.91c-8.42,7.69-17.89,14.07-27.2,20.62-4.37,3.08-8.69,6.23-13,9.37-1.39,1-2.8,2-4.21,3a17.78,17.78,0,0,1,3.86,4.31c4,8.45-5.47,11.35-11.21,14.55-1.27.7-2.53,1.41-3.78,2.14-.28.15-.56.31-.84.49-.34,20.59,1.23,41.18,1.58,61.77.55,25.07.63,50.15.9,75.23.6,42.33.1,84.65-.74,127-.14,5.4.35,10.85,0,16.23a3.36,3.36,0,0,1-1.47,2.4,4.79,4.79,0,0,1,1,1.73c.06.21.12.41.17.62.85.45,1.71.87,2.59,1.25a24.2,24.2,0,0,0,2.68,1.81c.65.41,1.32.78,2,1.16,2.62,1.5,5.29,2.91,8,4.34,5.36,2.89,10.72,5.79,16,8.79q4,2.25,8,4.45c2.61,1.44,5.25,2.84,7.86,4.29s5.27,3,7.92,4.44l2.25,1.24-7.3,1c-1.6.21-3.2.44-4.81.6s-3,.25-4.46.35c-5.81.39-11.62.72-17.43,1.15s-11.64.82-17.46,1.11-11.55.67-17.31,1.13c-6,.49-12,1-18,1.17-2.86.1-5.72.1-8.58.18-3,.08-6.05.24-9.07.42-5.75.36-11.49.9-17.23,1.45L2061.06,869l-7.33.71c-1.23.12-2.46.24-3.69.33-.56,0-1.12.07-1.67.08-.35,0-.71,0-1.07,0A5.09,5.09,0,0,1,2045.48,869.92Z"/><path class="cls-5" d="M2197.58,845.21l-.09,0,.15.06Z"/><path class="cls-6" d="M2251.22,504.07c-44.95-9.05-35.66-49.27-17.94-79.71,9.26-15.14,24.35-25.29,37.87-36.27,20.94-19.15,43.37-39.1,53.44-66.39,4.82-14.72,5.76-36.44-7.82-46.58-18.75-3.3-38.24,2.59-53.52,13.62-5.7,4.57-15.95,10.36-20.24,1.07-3.65-9,7.39-11.81,12.47-16.65,12.14-10.56,26.31-18.13,42.43-20.16,38.18-9.24,53.64,20.91,47.28,54.62-4.15,18.59-14.78,35.11-26.92,49.53-11.15,14.21-24.29,26.58-37.35,39-10.64,9.72-22.47,18.15-32,29-10.37,13.17-28.17,46.45-7,56.93,6.93,3.61,17.76,4.23,17-6.38-5.09-4.6-4.49-13.19,3.1-14.48C2281.73,462.27,2278.83,506.52,2251.22,504.07Z"/><path class="cls-6" d="M2003.35,506.61c-10.65.42-20.91-5.59-26.53-14.52a62.1,62.1,0,0,1-4.2-8.35c-2.16-6-2.07-13.07,1.29-18.6,3.78-7,11.16-11.23,19.15-9.47a20.7,20.7,0,0,1,11,5.26,9.09,9.09,0,0,1,1.42,11,9.2,9.2,0,0,1-10.25,4.18c-2.12-.53-4.07-1.54-6.2-2a7,7,0,0,0-4.93,1.37,11,11,0,0,0-1.89,1.64,6,6,0,0,0-.69,2.49c-.35,4.9,2.41,9.62,5.94,12.85a18.14,18.14,0,0,0,10.37,3.93c5.59.17,14.77-3.4,18.92-7.12,3.39-3,4.61-7.62,5.77-11.82a33.77,33.77,0,0,0-.64-15.45,27.67,27.67,0,0,0-4.67-7.36c-2.18-2.28-4.58-4.34-6.81-6.57s-4.29-4.47-6.58-6.56c-13.27-11-25.79-22.81-39.49-33.24-8.08-6.19-15.56-13.12-23-20-4.48-3.95-9.22-7.58-13.68-11.55-4.14-3.93-8.21-7.95-12.12-12.1-9.53-10.28-17.69-28-20.16-41.77-1.41-9.72.52-19.76,4.3-28.75a49.56,49.56,0,0,1,19.91-22.8,48.42,48.42,0,0,1,20.62-6.72,42.59,42.59,0,0,1,10,.62,53.87,53.87,0,0,1,10.7,2.59,61.93,61.93,0,0,1,20,12.94c3.4,3.32,6,7.3,8.6,11.25a48.77,48.77,0,0,1,6.76,13.1,38.78,38.78,0,0,1,2.35,8.62h0a1.67,1.67,0,0,1-2.3,1.53c-1.07-.42-1.76-1.58-2.47-2.44s-1.23-1.68-1.81-2.54c-1.9-2.78-4-5.39-6.12-8a55.23,55.23,0,0,0-43.58-19.31,41,41,0,0,0-14.78,4.43,25.33,25.33,0,0,0-5.28,3.64,41.55,41.55,0,0,0-8.69,10.79,47.73,47.73,0,0,0-4.71,16c-.06,11,4.83,24.13,10.57,33.48,7.69,10.86,20,16.79,30.72,24.06,4.88,3.23,9.46,6.88,14.24,10.26,6.07,4.28,12.37,8.24,18.39,12.6,7.09,5.27,13.49,11.38,20.36,16.93,10.19,8.94,20.94,17.43,29.56,28,5.89,7.51,8,15.11,7.94,24.6.27,10.21-2.61,20.89-9.49,28.63C2024,503.59,2013.38,506.66,2003.35,506.61Z"/><path class="cls-3" d="M2093.14,292.88c-5.1,0-10.17-.54-15.26-.71s-10-.24-14.93-.79q-11.49-1.22-22.83-3.35c-5-.88-10-1.41-15-2.45-3.76-.89-30.41-6.49-28.6-10.85.69-1.07,3,0,4.08.11a1,1,0,0,1,.52,1.64c6,2.69,12.23,3.9,18.5,5.41,6.91,1.77,14,2.48,21,3.51,8.61,1.45,17,2.65,25.68,3.42,6.82.53,13.67.44,20.49,1,6.55.41,13.11.08,19.66-.06a139.13,139.13,0,0,0,14-.46c8-1.26,16.14-1.93,24.23-2.66,7.48-1,14.94-2.14,22.4-3.31,9.92-2,19.79-4.37,29.49-7.26,7.12-2.33,14.38-4.2,21.55-6.35,5.16-1.3,10.12-3.23,15.19-4.84,1.59-.45,3.21-.81,4.78-1.34a3,3,0,0,1,3.51,4.1,3.54,3.54,0,0,1-2.84,1.74c-2.22.59-4.4,1.34-6.56,2.12-11.58,4.45-23.81,6.89-35.62,10.68-4.79,1.37-9.71,2.28-14.58,3.35s-9.84,2.14-14.84,2.76c-10.07,1-20.12,2.46-30.24,2.8-7.29.11-14.48,1.53-21.76,1.66C2107.72,292.66,2100.57,292.83,2093.14,292.88Z"/><path class="cls-3" d="M2007.31,301.35a12.63,12.63,0,0,1-1.19-4.22,1.08,1.08,0,0,1,1.52-.75h0a7.48,7.48,0,0,1,2.49,3.8A1.53,1.53,0,0,1,2007.31,301.35Z"/><path class="cls-3" d="M2237,296.76a1.27,1.27,0,0,1,.57-1.69c1.21-.59,2.44-1.11,3.67-1.66a17.49,17.49,0,0,1,3.57-1.39,1,1,0,0,1,.58,1.69c-1,.67-2.18,1.17-3.25,1.78s-2.28,1.26-3.44,1.85A1.29,1.29,0,0,1,2237,296.76Z"/><path class="cls-3" d="M2239.17,303.47c-.49-2,2.29-1.84,3.56-2.27.9-.17,1.81-.44,2.71-.59a.65.65,0,0,1,.43.09c1.11,1.18-1.61,1.91-2.33,2.38C2242.25,303.51,2240,305.36,2239.17,303.47Z"/><path class="cls-3" d="M2100.34,522.84a.56.56,0,0,1-.28-1,6.65,6.65,0,0,1,1.6-.7c7.5-2.11,15.31-3,22.93-4.62,3.52-.5,7-1.76,10.53-1.86a1.46,1.46,0,0,1,.39,2.83c-2.92.82-6,.84-9,1.37C2117.79,520.17,2109,521.32,2100.34,522.84Z"/><path class="cls-3" d="M2089.84,536.87a.88.88,0,0,1,.36-.49,16.32,16.32,0,0,1,3.05-1.36c3.19-1.18,6.43-2.2,9.7-3.12,9.09-2.49,18.34-4.3,27.48-6.62,3.41-.81,6.84-1.55,10.29-2.15a1.82,1.82,0,1,1,.5,3.6,156.22,156.22,0,0,0-16.48,2.94c-7.94,1.65-16,2.91-23.81,5-2.76.71-5.5,1.51-8.24,2.31C2092,537.1,2089.65,538.34,2089.84,536.87Z"/><path class="cls-3" d="M2119.5,837.91c-.89-.09-2.24.24-2.77-.69-.28-.67.32-1.08.94-1.05.44,0,.93-.55,1.33-.19a36.61,36.61,0,0,0,6.88-1.92,1.59,1.59,0,1,1,1,3A31.93,31.93,0,0,1,2119.5,837.91Z"/><path d="M2502.31,86.35c-.48-5.8-1.09-11.59-1.51-17.4-.43-4.55-1.08-9.08-1.23-13.65-.16-6.26-.61-12.51-1.12-18.75-.55-7.83-1.23-15.66-1.52-23.51-.06-3.92-.58-7.93,0-11.81a1.7,1.7,0,0,1,3.1-.39h0c1.25,2.77,1.3,6,1.69,9,.51,4.93,1,9.86,1.53,14.79.78,7.87,1.61,15.76,1.42,23.68-.06,3.75-.49,7.47-.56,11.22s.09,7.76.18,11.64q.12,7.45.85,14.88A1.44,1.44,0,0,1,2502.31,86.35Z"/><path d="M2698.74,125.14a.94.94,0,0,1-.19-1.3c1.82-2.25,3.56-4.54,5.15-7,2.13-3.39,3.93-7,5.78-10.53s3.6-7.42,5.74-10.94c2.29-3.84,5-7.45,7.45-11.19q10.66-17.61,21.21-35.32c1.26-1.83,2.37-4.23,4.65-4.91a2.17,2.17,0,0,1,2.55,2.89c-1.51,4.28-4.12,8.11-6.19,12.14-4.15,7.63-8.79,15-13.35,22.35-4.2,7.31-10,13.45-14.81,20.33-3.83,5.46-7.5,11-11.34,16.46-1.73,2.31-3.56,4.54-5.35,6.79A.94.94,0,0,1,2698.74,125.14Z"/><path d="M2818.3,245c-.57-1.45.89-2.06,2-2.55q10.44-5.59,20.63-11.66c6.23-3.66,12-8.09,18.19-11.76,10.66-6.06,21.87-11.13,33-16.26,2.27-1.05,4.53-2.09,6.8-3.11,2.34-.8,6.65-3.56,8.59-1.18a2,2,0,0,1-.18,2.6c-9.61,5.29-19.42,10.07-29.2,15-5.33,2.75-10.67,5.49-15.92,8.39s-10.41,6.54-15.83,9.46c-5.86,3.27-12.18,5.58-18.25,8.41-2.6,1.18-5.17,2.42-7.82,3.47A1.52,1.52,0,0,1,2818.3,245Z"/><path d="M2917.62,413.89c-7.53-.55-15-1.5-22.48-2.71-6.43-1-12.74-2.06-18.89-4.15-13.59-5-27.62-8.48-41.55-12.32-2.24-.66-4.45-1.41-6.67-2.11a1.53,1.53,0,0,1,.92-2.92c4.86,1.34,9.79,2.49,14.75,3.37a217.73,217.73,0,0,1,24.22,5.41c7.48,2.33,14.86,5.09,22.62,6.41,5.06,1,10.21,1.91,15.29,2.8,3.74.65,7.51,1.19,11.25,1.9a14.06,14.06,0,0,1,4.09,1.19,1.67,1.67,0,0,1-.35,3A9.81,9.81,0,0,1,2917.62,413.89Z"/><path d="M2759.36,345.42c6.5,15.62,7.23,26.89-6.51,38.74-12.23,10.88-22.82,7.53-37.35,9.74-5.21,1-11.23,1.79-14.89,6a74.62,74.62,0,0,1-13.25,11.33,23.84,23.84,0,0,1-7.28,3.48,47.57,47.57,0,0,1-7.95,1.38c-1.07.07-2.13.27-3.19.43.28,2.67.53,5.35.88,8,.64,4,1.51,8,2.07,12.09.22,1.42.49,2.83.72,4.24a3.11,3.11,0,0,1-.41,2.23,3,3,0,0,1-5.38-1.37c-.13-5.51-1.6-10.82-2.61-16.19s-1.31-11.07-2.61-16.49c-1.29-5.93-1.88-12-3.18-17.89-1.82-8-3-16-4.88-24-1.62-8.19-3.72-16.32-4.52-24.64a199.11,199.11,0,0,0-6.39-37.16c-1.13-4-1.21-6.94,3-8.83a78.07,78.07,0,0,0,12.17-8.35,19,19,0,0,0,4.51-7.94c1.14-6.1-2.82-11-6.38-15.48-3.64-4.91-10.27-5.91-16-6.12h0c-1.53,5.17-1.72,10.58-1.95,15.94-.29,2.64.34,10.18-3.89,9.33-2.51-1-3.05-4.1-3.56-6.48-1.23-5.73-1.37-11.61-2.09-17.41-1.33-.65-2.68-1.25-4-1.82-3.15-1.28-6.64-1.88-9.41-4-9.89-7.4-12.31-20.29-15.33-31.53a34.13,34.13,0,0,0-6.11-12.37c-2.67-3.35-5.79-6.44-9.88-8-5.55-2.11-11.63-2-17.47-2.63-4.41-.22-8.87-.78-13.22-1.34a52.93,52.93,0,0,1-10.89-2c-6.76-2.34-13.32-5.53-18.72-10.31-5.48-4.95-10.7-10-17-14-3.75-2.15-9.79-2.1-13.12.77A34.88,34.88,0,0,0,2487,180c-.71,1-1.21,2.13-1.94,3.08a1.24,1.24,0,0,1-1.78-.16,2.45,2.45,0,0,1-1.34-.77,11.25,11.25,0,0,0-6.21-2,3.75,3.75,0,0,0-3.52,2.67,73,73,0,0,0-2.27,7.42c-1.52,5.19-1.48,10.61-2.21,15.92a30.75,30.75,0,0,1-7.44,15.33c-4.59,4.34-10.22,7.45-15.8,10.35-1.71.85-3.49,1.6-5.14,2.56a7,7,0,0,1-1.44.9c2,7.36,4.66,14.8,6.82,21.92,2,7.42,4.36,14.74,6.66,22.08,3.27,10.79,6.86,21.48,10.66,32.09,2.41,7.28,4.44,14.59,6.88,21.83,2.86,9.08,5.75,18.2,9.67,26.9a41.22,41.22,0,0,0,4.7,8.47A35.52,35.52,0,0,0,2489,374c3.82,2.77,8.56,3.58,13,5,3.86,1.19,7.91,2.38,11.81,3.31,2.92.76,5.85,1.43,8.8,2,2,.41,4,.73,6,1.06a6.31,6.31,0,0,1,4.43,2.22c1.78,2.2,2.58,5,3.48,7.64,1.44,4.46,2.41,9.06,3.64,13.35,2.9,8.42,4.65,17.16,7,25.74.69,2.71,1.21,5.46,1.89,8.18a9,9,0,0,1,.54,3.08,3,3,0,0,1-4.25,2.57c-2.46-1.31-2-4.59-2.77-6.89a72.18,72.18,0,0,0-2.62-9.07c-.45-1.46-.88-2.92-1.31-4.37a12.36,12.36,0,0,1-3.28.89,28.39,28.39,0,0,0-5,2.23c-3.58,1.64-6.47,4.35-9.64,6.64-7.43,5.5-12.32,7.71-21.75,7.43a31.21,31.21,0,0,1-16.81-6.48c-3.17-2.58-5.69-5.87-9-8.33-4.25-3.1-8.45-5.22-13.75-3.57-5.64,1.86-11.27,4.54-17.37,3.92-4.49-.22-8.46-2.75-11.78-5.61s-5.7-7-8-10.81a25.42,25.42,0,0,1-3.83-12.4,27,27,0,0,1,.77-8.73c1.19-4.45,3.66-8.31.28-12.52a17,17,0,0,0-4.25-3.23c-4.22-2.52-8.84-4.22-13.09-6.63-7.06-4.58-7.36-14.17-6.11-21.67,1.43-11.26,6.91-21.35,12.35-31.13,2.39-4.21,5.2-8.15,7.73-12.28,3.36-6.25,4.47-13.43,5.1-20.42.32-6.61-.73-13.22-1.45-19.79-1.63-8.79-3.41-17.57-3.8-26.54a88.49,88.49,0,0,1,.07-18.12c.51-6,.53-12.21,2.2-18.09a103.61,103.61,0,0,1,17.4-31.39c3.88-4.66,9-8,14-11.34a120,120,0,0,1,16.13-9.27,35.57,35.57,0,0,1,14-3.68,7.11,7.11,0,0,1,1.16,0c1.19-.8,2.54-1.39,3.78-2.06,10.54-5.09,21.76-8.59,33-11.77a121.93,121.93,0,0,1,21.54-4,73.67,73.67,0,0,1,13.35.72c8.56,1.27,16.65,4.61,24.82,7.3a107.57,107.57,0,0,1,23.81,11.85,86.34,86.34,0,0,1,13,10c1.67,1.65,3.28,3.36,5,5,4.17,4,8.71,7.72,12.63,12,2,2.19,3.88,4.44,5.86,6.61q9.45,9.93,19,19.81c7.39,7.29,16.62,12.47,26.11,16.55,6,2.48,12.4,3.74,18.73,5.12a87.26,87.26,0,0,1,18.29,6.14,55.27,55.27,0,0,1,16,9.58c11.1,9.15,16.73,23.76,16.84,37.95-.11,7.9-2.47,15.61-5.71,22.76-1.32,3.07-3,6-4,9.2-.9,4-1,8.43,1,12.15C2748.78,329.92,2755.59,336.75,2759.36,345.42Z"/><path d="M2502.61,322.76a4.79,4.79,0,0,1-4.41-4.83,31.49,31.49,0,0,1,1-10.67c.73-3.11,1-6.28,1.48-9.43.85-4.73,1.94-9.41,2.51-14.18.74-5.39.57-10.81.65-16.22,0-1.28.92-3.3,2.41-2.23,1.29,1.46,1.22,3.64,1.62,5.46.33,2,.67,4,.88,6,1.05,9.57-1.55,19-2.82,28.4-.74,4.08-2.16,8.09-2,12.28,5.08-.29,7-3.13,9.18-7.23a69.25,69.25,0,0,0,3.49-6.94c.43-1.68,1.44-3.09,3.37-2.54,2.06.76,1.82,2.8.91,4.39-.7,1.74-1.42,3.45-2.19,5.15C2515.51,317.88,2511.83,323.24,2502.61,322.76Z"/><path d="M2550.19,272a21.55,21.55,0,0,1-6.26-1.47,9.52,9.52,0,0,1-3.55-1.67c-1.57-.94-1.76-3.11-2-4.75a15.29,15.29,0,0,1,1.49-7.87c1.51-4,4.51-7.12,7.49-10.06a26.16,26.16,0,0,1,14.17-5.82c6.36-.75,13.43.37,18.1,5.08,4.49,4.17,2.9,8.67-.21,13.1a20.33,20.33,0,0,1-3.21,3.89,35.45,35.45,0,0,1-4.45,2.92c-2.79,1.72-5.52,3.59-8.66,4.62A46.41,46.41,0,0,1,2550.19,272Zm1.32-5.41a50.2,50.2,0,0,0,10.71-1.52,43.09,43.09,0,0,0,6.66-3.06,47.31,47.31,0,0,0,5.44-2.92,21.94,21.94,0,0,0,4.14-5.06c.52-1.12,1.38-2.34,1-3.62-1.16-3.06-4.58-4.59-7.54-5.41-4.13-1.08-8.42-.37-12.49.64a18.45,18.45,0,0,0-8.51,4.93c-3.55,3.9-7.26,8.21-8.1,13.59a13.31,13.31,0,0,1,2.48,1A24.48,24.48,0,0,0,2551.51,266.58Z"/><path d="M2473.44,291.78a30.07,30.07,0,0,1-12.35-3c-4.45-1.93-5.62-7.26-4.77-11.65a12.68,12.68,0,0,1,4.85-7.78,20.27,20.27,0,0,1,8.84-3.52,29.28,29.28,0,0,1,12.14,1.41c3.48.74,14.25,8,13.2,11.9-.47,2.86-3.29,4.92-5.41,6.65A25.94,25.94,0,0,1,2473.44,291.78Zm-1.68-4.22a30.78,30.78,0,0,0,16.41-5.11c1.17-.76,2.69-1.46,3-2.93a4.39,4.39,0,0,1,.36-1.6c-3.6-2.53-8-3.69-12.27-4.35-5-.58-10.39-1.24-15.14.93a6.73,6.73,0,0,0-3.71,9.15C2462.4,286.5,2468.57,287.45,2471.76,287.56Z"/><path d="M2460.12,272.6c-2.23-2.58-3.51-5.8-5.14-8.75a36,36,0,0,1-1.67-3.56,1.3,1.3,0,0,1,.11-1.33c0-.29.14-.66.52-.59a.41.41,0,0,1,.3.52c-.16.27-.06.45.13.66,3.09,3.27,4.71,7.58,7.31,11.2A1.22,1.22,0,1,1,2460.12,272.6Z"/><path d="M2468.35,266.08a86.39,86.39,0,0,1-3.82-11.27.4.4,0,0,1-.21-.6c0-.21-.12-.41,0-.63.54-1,1.41,0,1.68.65,1,2.1,1.88,4.51,2.8,6.56.63,1.46,1.27,2.88,1.88,4.28A1.26,1.26,0,0,1,2468.35,266.08Z"/><path d="M2477.56,268.37a111.44,111.44,0,0,1-1.51-12.49c-.07-1.48-.27-3.4,1.78-3.3a.58.58,0,0,1,.63.54c0,.54-.47.69-.91.64.76,4.76,2,9.45,2.79,14.2A1.41,1.41,0,0,1,2477.56,268.37Z"/><path d="M2547,249.42c-1.65-2.86-2.63-6.06-4.16-9-.86-1.86-2.19-3.47-3-5.34a.83.83,0,0,1,.84-1.08c.43,0,.32.56-.08.55h0c3.66,4,6.06,8.87,8.5,13.62A1.21,1.21,0,0,1,2547,249.42Z"/><path d="M2556.63,242.33c-1.67-2.9-2.58-6.18-3.74-9.31-.43-1.2-1.38-3.83.91-3.3a.55.55,0,0,1,.24,1.06c1.59,3.48,3.52,6.78,5.25,10.17A1.51,1.51,0,0,1,2556.63,242.33Z"/><path d="M2568.74,241.14a1.54,1.54,0,0,1-.68-1c-.32-2.15-.73-4.28-1.08-6.42s-1-4.36-.8-6.35a.76.76,0,0,1,1.13-.39,2.47,2.47,0,0,1,.74,1.46c.41,1.49.81,3.08,1.22,4.52.62,2.17,1.33,4.33,1.88,6.51A1.59,1.59,0,0,1,2568.74,241.14Z"/><path d="M2473.37,322.7a28.8,28.8,0,0,1-.24-4.63,33.2,33.2,0,0,1,.18-4.46c0-.88,1-2,1.77-1.1a5.64,5.64,0,0,1,.42,1.91c.25,1.85.49,3.82.76,5.64.06,1.09.64,2.19.06,3.18A1.64,1.64,0,0,1,2473.37,322.7Z"/><path d="M2483,319.42a1.54,1.54,0,0,1-.65-.95,13,13,0,0,1-.46-3.52c0-1.07.17-3.1,1.64-3,.34.07.56.38.92.43a.67.67,0,0,1-.22,1.29c.3,1.4.79,2.76,1.07,4.17A1.52,1.52,0,0,1,2483,319.42Z"/><path d="M2491,314.35c0-.85-.7-4.07.88-3.64,1,.72,1,2.21,1.43,3.3A1.17,1.17,0,1,1,2491,314.35Z"/><path d="M2550.37,297.57a31.05,31.05,0,0,1-.3-3.86,7.14,7.14,0,0,1,.12-2.69.83.83,0,0,1,1.52.1,25.77,25.77,0,0,1,1.51,5.83,1.46,1.46,0,0,1-2.85.62Z"/><path d="M2559.24,294.53c-.16-1.36-1.2-7,1.3-6.43.27.11.48.35.79.35a.61.61,0,0,1,.7.56c0,.49-.41.7-.82.66.31,1.41.86,2.76,1.11,4.19a1.63,1.63,0,0,1-.22,1.2A1.59,1.59,0,0,1,2559.24,294.53Z"/><path d="M2569,291.39c.1-1.86.34-3.7.52-5.56a.64.64,0,0,1,.09-.45c1.76-2.65,3.19,4.89,3.16,6A1.89,1.89,0,1,1,2569,291.39Z"/><path d="M2527.66,366.71c-7.15-4.91-11-14.89-13.26-23-.64-2.22-1.07-4.49-1.69-6.71a33,33,0,0,0-1.15-3.2,2.61,2.61,0,0,1-.24-2.06,2.4,2.4,0,0,1,4.39-.31c1.94.7,3.65,1.9,5.55,2.68,2.94-1.23,5.36-3.63,7.56-5.82,1.12-1,2.17-3,3.89-2.25s1.39,4.95,1.78,6.68c.34,2.84.63,5.7.88,8.55s.46,5.74.67,8.61c.26,4.2.87,8.52-.22,12.65C2534.84,366.16,2531.25,369.39,2527.66,366.71Zm3.18-1.5v0c4.22-2.4,1.87-11,1.82-15.12-.55-6.29-.93-12.6-1.54-18.89-2.39,3-5.24,6-9,7.16-2,.55-3.74-.87-5.37-1.81a77.23,77.23,0,0,0,4.55,16.39C2523.15,357,2526.11,364.1,2530.84,365.21Z"/><path d="M2490.05,249.82a28.55,28.55,0,0,0-26.44-8.3c-3.87.7-7.94,1.48-11,4.07-.72.58-1.45,1.18-2.12,1.82s-1.55,1.72-2.69,1.79c-5.54-.77,1-8.12,3.15-9.57,5.78-4.29,18.61-5.9,25.45-3.73a41.54,41.54,0,0,1,17.13,9.89A2.65,2.65,0,0,1,2490.05,249.82Z"/><path d="M2521.49,237.29c-2.12-1.28-.83-5.87-.2-7.8,1.88-6.37,6.31-11.52,11.38-15.65a43.61,43.61,0,0,1,9.13-6.17c3.28-1.57,6.57-3.32,10.2-3.9,7-1.29,14.14.73,20.48,3.71a22.84,22.84,0,0,1,5,3.47,1.58,1.58,0,0,1,.29,2c-.94,1.32-2.23.45-3.26-.22a30.71,30.71,0,0,0-2.76-1.36,41.5,41.5,0,0,0-9.48-2.31,22.42,22.42,0,0,0-12.27,1.53,53.2,53.2,0,0,0-21.43,16.13,30.45,30.45,0,0,0-3.5,6.38C2524.36,234.7,2523.86,238.06,2521.49,237.29Z"/><path d="M2476.17,286.57a6.8,6.8,0,0,1-3.93-9.83c1.91-4.09,6.43-3.55,9.26-.76a6.28,6.28,0,0,1,2.55,5.87C2483.37,285.26,2479.52,287.74,2476.17,286.57Z"/><path d="M2560.59,263a5.59,5.59,0,0,1-4.51-3.72c-1.1-.84-1.14-2.43-.89-3.68-.53-1.37-.28-3.34,1.19-4a5.17,5.17,0,0,1,6.9-1.79,11,11,0,0,1,3.35,2.08C2570.46,255.93,2566,263.62,2560.59,263Z"/><path d="M2276.67,789.32A3.75,3.75,0,0,1,2274,784c2.1-6,3.53-12.22,5.48-18.27,2.62-10.05,6.36-19.72,10.17-29.36,3.71-10.08,6.79-20.38,9.83-30.68,2-7.07,4.38-14,6.64-21,1.85-5.79,3.11-11.73,4.64-17.6,2.95-10.42,6.62-20.63,9.32-31.12,3.93-13.59,9-26.81,12.88-40.4,2.09-6.88,4.15-13.84,7.19-20.37,4.84-9.77,9.63-19.58,15-29a127.16,127.16,0,0,1,8.62-13.78c7.71-10.19,17.06-18.95,26.26-27.77,7.79-7.58,15.69-15.09,24.49-21.51s18.81-11.27,28.92-15.42a199.13,199.13,0,0,1,31.22-10.11,449,449,0,0,1,46.88-10.24c5.63-.7,11.28-1.25,16.89-2.09a43.62,43.62,0,0,1,8.14-.59,2.18,2.18,0,0,1,1.94,1.91c.12,1.84-1.74,2.78-3.23,3.27-5,1.52-10.21,2.64-15.38,3.68-18.49,3.61-36.76,8.31-54.87,13.5a159.7,159.7,0,0,0-21,6.68c-13.19,5.05-26.38,10.75-37.48,19.64a197.74,197.74,0,0,0-15.53,13.84c-9.82,9.67-20.33,19.45-28.61,30.41-6,8.55-10.74,18-15.53,27.25-3.36,6.73-7.45,14-10.07,20.72-2.47,6.38-4.52,12.92-6.89,19.34-4.86,13.37-10.5,26.45-14.76,40q-1.7,5.16-3.47,10.29c-3.84,10.11-6.41,20.63-9.86,30.87-1.16,3.36-2.43,6.69-3.63,10-2.46,6.81-4.34,13.81-6.57,20.69-2.2,6.66-4.1,13.42-6.46,20-3.12,8.54-6.49,17-8.77,25.83-1.22,5-2.55,9.36-3.83,14.24a57.82,57.82,0,0,0-1.36,7c-.2,1.57-.12,3.34-1.43,4.47A3.72,3.72,0,0,1,2276.67,789.32Z"/><path d="M2277.11,791.5a4.57,4.57,0,0,1-2.67-2.88c-.59-1.7-1.51-4.42-2.11-5.88-4.8-12.2-9.89-24.29-14.72-36.48-3.22-7.07-6.1-14.3-9.4-21.34-3.11-7.2-5.76-14.59-8.77-21.84-2-5-4.64-9.71-6.83-14.63-2.63-5.76-4.5-11.08-6.6-16.55-2.56-6.48-4.86-13.08-7.67-19.46-4.71-9.78-9-19.73-13.59-29.58-4.17-8.36-7.54-17.09-11.87-25.38a108.29,108.29,0,0,0-11.35-16.9c-4.84-6-9.44-11.37-17.05-13.81-6.31-2-13-1-19.52-1a154.92,154.92,0,0,0-18.9.9,79.65,79.65,0,0,0-11,1.27c-4.78,1.24-9.53,2.64-14.21,4.21-2.81,1.18-14.23,6.22-10.12,10a12,12,0,0,0,8,3.36,54.78,54.78,0,0,0,13.94-1.12,118.46,118.46,0,0,1,16-2.46c2.27-.23,4.53-.55,6.81-.68a4.09,4.09,0,0,1,3.92,6.41c-.93,1.42-2.62,1.62-4.14,1.93a95.59,95.59,0,0,1-13.42,1.07c-4.48.18-8.88,1.23-13.37,1.27-5.48.91-14.22.44-17.51,5.57-.81,1.53-1.85,3.46-1.11,5.17v-.07c1.61,2.37,4.82,2.18,7.37,2.47,5.33.27,10.5-1,15.74-1.69,3.6-.6,7.22-1,10.86-1.26l7.11-.69a7.14,7.14,0,0,1,3,.2h0a3.16,3.16,0,0,1,1.15,5.08c-2,1.74-4.89,1.71-7.36,2.17-7.65.68-15.32,1.18-23,1.65a36.24,36.24,0,0,0-9,1.87c-2.76.95-7.91,3.77-4.65,7,4.74,3.83,11.35,1.82,16.87,1.38,6.5-.81,12.92-2.42,19.44-3a4.61,4.61,0,0,1,4.93,3.47c2.5,4,4.79,8.19,7.06,12.36a323.49,323.49,0,0,1,14.3,29.66c3.51,7.74,7.77,15.24,10.27,23.39.27,1.81,2.14,6.86-.63,7-1.08-.18-1.12-1.55-1.45-2.4a33.78,33.78,0,0,0-1.52-3.15c-4.06-6.94-8.58-13.61-12.49-20.65-4-7.27-7.37-14.86-11.15-22.25-3.33-6.41-6.42-13-9.86-19.29-10,1.71-20.37,4-30.55,2.41-10.74-2.19-15-12.78-4.54-18.93-3.27-.79-6.23-3.45-6.67-6.88-.16-5.24,3.36-10.27,7.89-12.7a13.41,13.41,0,0,1-7.11-7.35c-.72-2.22.43-4.57,1.81-6.28a24.46,24.46,0,0,1,6.59-5.15c4.63-2.87,9.85-4.43,14.95-6.22,7.43-2.88,15.34-4.12,23.16-5.45,4.85-.64,9.75-.74,14.62-1.21,5.83-.52,11.74-1.11,17.5.18a37.26,37.26,0,0,1,15.38,7.8,131.36,131.36,0,0,1,11.23,12.24,96.48,96.48,0,0,1,13.15,21.12c3.23,7.42,6.18,15,9.68,22.26,4.21,10.13,8.71,20.11,13.33,30.06,3.79,9.41,7.06,19,10.9,28.44,2.1,5,4.7,9.8,7.15,14.64,2.3,4.6,4,9.45,6,14.19,2.76,7.37,6.13,14.49,9.32,21.67s6.11,14.37,9,21.63c3.41,8.09,6.24,16.38,9.62,24.44.87,2.21,1.68,4.44,2.62,6.61.8,1.76,1.85,3.64,1,5.59A4.52,4.52,0,0,1,2277.11,791.5Z"/><path d="M2263,911.1a49.78,49.78,0,0,1-9.44-2.11c-5.48-2.2-10.6-5.2-15.93-7.72-8.12-3.8-14.91-9.75-20.71-16.51a106,106,0,0,1-8.38-10.07c-2.63-3.6-4.71-7.56-7-11.35-4.71-7.49-9.63-14.87-13.41-22.9a349.5,349.5,0,0,1-19.5-49.64c-6-18.47-13.2-36.92-17.75-55.76-1.52-6.61-3-13.48-4.56-20q-.78-3.27-1.55-6.52c-.46-2.39-1.41-4.89-.6-7.29a2.31,2.31,0,0,1,4.09-.39c1.35,2.61,1.88,5.6,2.91,8.36,3.87,11,6.69,22.42,10.33,33.54,4.78,13.54,9.75,26.44,14.61,39.69,4.42,12.94,8.72,25.92,14.09,38.5,3.36,8.15,6.8,16.27,10.95,24,2.38,4.36,5,8.55,7.54,12.83s4.72,8.74,7.63,12.78a155.92,155.92,0,0,0,10.64,12.47,48.75,48.75,0,0,0,17.34,12.13c4.14,1.94,7.49,3.77,11.3,5.42a54,54,0,0,0,8.85,2.56A4,4,0,0,1,2263,911.1Z"/><path d="M2274.15,912.53a59.47,59.47,0,0,1-11-2.48c-1.4-.49-3-.61-4.23-1.4a2.63,2.63,0,0,1-.72-3.4c1.35-2.22,4.26-1.87,6.5-2,7.89-.06,15.82.15,23.62-1.21,1.94-.29,3.87-.61,5.8-1a56.39,56.39,0,0,0,9.93-3.82c9.21-4,18.48-8,26.81-13.66,6.2-4.69,12.45-9.49,17.49-15.45,1.75-2.19,3.43-4.43,5.13-6.66,4.42-5.72,9.34-11.07,13.1-17.27a271,271,0,0,0,17.28-33.81c5.45-13.57,11.14-27,16.63-40.61,3.69-9.63,7.42-19.26,10.89-29a99,99,0,0,1,4.84-11.89c2.4-5.14,4.27-10.49,6.41-15.74,3.86-8.67,7.21-17.56,11.52-26,.63-1.36,1.27-2.72,1.9-4.09.79-1.64,1.26-3.65,3.08-4.44a4.07,4.07,0,0,1,5.45,5.14c-2,5.22-4,10.44-6.19,15.61-2,5.36-4.07,10.7-6.53,15.88-3.12,7.24-6.19,14.5-9.87,21.48-3.3,7.92-6.22,16-9.7,23.84-5.43,13.49-11.1,26.88-16.4,40.44-2.21,5.4-4.14,10.91-6.36,16.32-3.5,8.36-7.45,16.52-11.71,24.52a119.79,119.79,0,0,1-14.71,21.8c-3.6,4.68-6.78,9.69-10.83,14A119.59,119.59,0,0,1,2332,895c-7.36,4.71-15.38,8.2-23.42,11.56-5.38,2.52-11,4.71-16.93,5.29A69.89,69.89,0,0,1,2274.15,912.53Z"/><path d="M2453.65,856.69a78.12,78.12,0,0,0,0-10.71c-.18-6-.79-12-1.25-18-.23-6-.79-12.06-1.09-18.09-.1-9.2-.42-18.39-.47-27.59-.51-12.29-1.3-24.58-2-36.86-.53-12.21.13-24.46-1-36.65a62.36,62.36,0,0,0-2.92-14c-1.61-4.51-4.37-8.42-7-12.4-6.69-10.83-9.41-23.6-9.74-36.21-.38-9.6.62-19.31,4.08-28.32,2.83-8.56,5.78-17.08,9.25-25.4,1.21-2.88,2.43-5.75,3.42-8.7a38.48,38.48,0,0,0,1.78-9.33c.26-3.32-.31-6.66,0-10,.09-.62.5-1.25,1.16-1.06a1.06,1.06,0,0,0,.25,0c.53,0,.57.75.07.85,3.76,17.35,2.61,20.55-2.09,37.23-2.31,9.06-5.09,18-7,27.17a88.5,88.5,0,0,0-.51,21.39c.91,11,4.32,21.91,10.92,30.9,5.57,8.19,8,18,8.82,27.77.74,9.23.63,18.5.53,27.75-.06,6.1.38,12.18.49,18.28-.06,6.11.12,12.2.24,18.3,0,9.21-.36,18.41-.42,27.61-.23,11.15-.12,22.3.25,33.44,0,4.65-.35,9.28-.3,13.93-.06,3-.07,5.92,0,8.88A2.76,2.76,0,1,1,2453.65,856.69Z"/><path d="M2145.63,703c-.82-3.56,8.6-8.9,11.24-11.08,10.64-7.78,21.72-15.09,33.57-20.91,6-2.33,11.5-5.67,17.12-8.77,3.06-1.59,5.92-3.52,8.93-5.19s6.65-2.42,8.35,1.11a4.42,4.42,0,0,1-1.67,5.56c-1.2.65-2.53.93-3.71,1.63-5.59,3.24-11.54,5.78-17.18,8.94-4.37,2.28-9.11,3.77-13.42,6.17-8.45,4.9-17,9.63-25.21,14.91-3.74,2.36-7.5,4.69-11.15,7.2-1.43.88-2.72,2.35-4.48,2.44A2.41,2.41,0,0,1,2145.63,703Z"/><path d="M2176.93,766.94a1.84,1.84,0,0,1-.94-2.56c.73-1.29,2.23-1.85,3.45-2.59,3.5-1.93,7.06-3.74,10.58-5.63,4.39-2.37,8.59-5,12.92-7.52s8.8-4.81,13.13-7.32c5.59-3,11.16-5.91,16.76-8.83,3.46-1.7,7.1-3.09,10.28-5.33,1.68-1.19,3.08-2.74,4.93-3.67a4.31,4.31,0,0,1,4.07,7.57c-1.48.83-3.16,1.2-4.65,2-1.91,1.09-3.82,2.18-5.83,3.08-9.86,4.38-19.39,9.45-28.84,14.64-8.34,4.14-16.25,9.15-24.83,12.81-2.34,1-4.69,2-7.1,2.87C2179.61,766.86,2178.23,767.45,2176.93,766.94Z"/><path d="M2294.66,815.38a2.51,2.51,0,0,1-.78-1.75c-.1-1.94-.25-3.87-.4-5.8a41.67,41.67,0,0,0-2.32-11c-1.43-4.11-4.37-7.35-6.87-10.83a2.67,2.67,0,0,1-.52-1.74,1.1,1.1,0,0,1,1.84-.71h0l-.07-.08.11.08.25,0c.33-.07.49.31.37.54a29.67,29.67,0,0,1,9.75,13,44.89,44.89,0,0,1,2.8,16.4A2.5,2.5,0,0,1,2294.66,815.38Z"/><path d="M2334.65,805.49c-12.75-.65-17.62-4.18-24.86-14.4-3-4.29-7.7-6.74-12-9.46-.48-.36-1-1.06-.47-1.6a1.55,1.55,0,0,1,.72-.31c.32-.16.64-.35.95-.53s.71.34.35.55l-.69.41c12.54,3.1,12.81,6.45,21.64,13.72a18.09,18.09,0,0,0,7.83,3.53c2.59.41,5.24.47,7.79,1.13A3.54,3.54,0,0,1,2334.65,805.49Z"/><path d="M2332.92,778.86c-4.27-.32-8.48-1.09-12.74-1.53-1.14-.19-2.38-.06-3.42-.61a1.6,1.6,0,0,1-.24-2.63,5.28,5.28,0,0,1,1.63-.89,2,2,0,0,1,2.48,1.37c8.42.93,17.43,1.24,25.39-2.09a2.76,2.76,0,0,1,3.61,1.34c1.29,3.46-2.79,4.24-5.24,4.93C2340.62,779.46,2336.73,779.08,2332.92,778.86Z"/><path d="M2422.09,665.1c-4.13-.42-8.28-.8-12.36-1.62a3,3,0,0,1,1.05-5.91,36.64,36.64,0,0,1,5.66,1.33c2.18.7,4.33,1.51,6.53,2.16a6.29,6.29,0,0,1,3.07,1.72C2427.3,665.3,2423.66,665.26,2422.09,665.1Z"/><path d="M2420.59,641.18c-9.71-3.44-15.15-12.2-16.87-22-.91-4.8-.6-9.09-3.76-13.21a1.57,1.57,0,0,1,1.69-2.34,1.62,1.62,0,0,1,.95.69,24,24,0,0,1,2,3.32c1.79,3.66,1.65,7.88,2.6,11.78,2,9.88,6.1,14.73,14.11,20.41a2.51,2.51,0,0,0,.1-.44.36.36,0,1,1,.71.13C2421.94,640.64,2422.18,641.58,2420.59,641.18Z"/><path d="M2428.23,596c-3.11-2.8-5.37-11.24-5.92-15.42s.12-8.12.24-12.18a89,89,0,0,0-.13-9.24,2.68,2.68,0,0,1,4.48-2c1.58,1.6.66,5.11.66,7.21-.36,4.93-1.47,9.77-1.72,14.71a42.62,42.62,0,0,0,1.16,9.67c.5,1.65,1.49,6.9,3.54,6.87a.5.5,0,0,1,.16,1A3.11,3.11,0,0,1,2428.23,596Z"/><path d="M2676.24,434.22a.59.59,0,0,1,.62-.56.6.6,0,0,1,.56.62.61.61,0,0,1-.62.56A.59.59,0,0,1,2676.24,434.22Z"/><path d="M2851.2,921.84a4,4,0,0,1,1.65-5.34c1.43-.69,2.82-1.42,4.2-2.19,2.13-1.38,4.12-3,6.2-4.43,3.25-2.38,7.14-4.06,9.43-7.52,3-4.22,5.07-9,7.23-13.72a84,84,0,0,0,3.62-15.09,161.21,161.21,0,0,0,2.29-16.95c.26-7.05-.15-13.34.5-20.26.72-10.06.11-20.16-.12-30.23-.31-15.75-.23-31.52-1.78-47.22-1.65-17.7-3.72-35.36-5.28-53.08-.66-7.69-1.76-15.41-2.94-23-1.27-9.73-3.65-19.25-5.57-28.87-1-5-1.8-10-2.9-15-2.71-10.94-5.46-21.88-8.32-32.79-3.59-11.72-8.16-23.11-12-34.75a171.84,171.84,0,0,0-9.11-21.76c-2.58-5.65-4.91-11.4-7.68-17a237.2,237.2,0,0,0-14.5-24.68,118,118,0,0,0-10.85-13.37,96.87,96.87,0,0,0-16.56-15.23c-4.92-3.4-9.44-7.4-14.67-10.34-7.24-4.11-15.06-7-22.72-10.19-3-1.27-6-2.47-8.95-3.67-7.7-2.84-15.32-6-23.24-8.15a50.8,50.8,0,0,0-9.43-1.27c-4.88-.45-9.7-1.3-14.54-2a108.31,108.31,0,0,0-12.6-.79c-3.52.1-7.05.27-10.56,0a6.18,6.18,0,0,1-3.93-1.26,3.54,3.54,0,0,1-.42-5c1.25-1.49,3.28-1.78,5.09-2.12a71.79,71.79,0,0,1,17.66-1.49c6.79.21,13.36,2.1,20,3.07,2.37.26,4.73.48,7.08.91a80.28,80.28,0,0,1,14,4.32c6.63,2.61,13.36,5,19.93,7.78,12.91,5.65,26.31,10.77,37.3,19.85,3.83,2.81,7.68,5.6,11.39,8.57,13.71,11.55,24.33,26.36,33.3,41.77,5.87,9.75,10,20.4,14.77,30.67,5.77,11.71,9.2,24.36,13.61,36.61a256.57,256.57,0,0,1,8.69,28.42c1.86,7.44,4,14.81,5.75,22.27s2.84,15.05,4.47,22.54c4.44,19.7,6.55,39.82,8.36,59.91,2.47,25,5.64,50,5.42,75.18,0,12,.34,24.05.21,36.07-.35,7.37-1,14.72-.9,22.1-.36,9-2.21,17.8-3.49,26.66A56,56,0,0,1,2887,892.8c-3.62,8.83-7.41,17.53-16.19,22.4-3,1.91-5.8,4.18-8.88,6a47.44,47.44,0,0,1-5.86,2.52A4,4,0,0,1,2851.2,921.84Z"/><path d="M2673.09,935.48c-7-.48-13.94-.36-20.92-.29-10.24,0-20.49.14-30.74-.09-10.13-.47-20.25-1.14-30.4-1.05-7-.14-13.89-.76-20.85-.83a52,52,0,0,0-7.59.18,3.34,3.34,0,0,1-3,.56c-2.76-.93-3.3-4.28-4.24-6.68-1.13-3.27-2-6.63-2.84-10-1.88-9.09-4.69-17.95-6.64-27a145.64,145.64,0,0,1-2.79-22.81c-.21-3-.56-6-.59-9,0-2.8.19-5.61.18-8.41a3.56,3.56,0,0,1,7.12,0c-.11,3.1-.23,6.2-.12,9.29.84,7.83,1.15,15.73,2.73,23.46,1.43,7.91,3.6,15.65,5.35,23.49,1.54,7.47,2.69,15.06,4.94,22.37,8.95-.71,17.92.2,26.88.35,6.7,0,13.4-.19,20.1.16,3.43.18,6.87.42,10.31.53,13.7.35,27.41-.21,41.11-.31,7,0,14.06.54,21.1.35,21.32-.3,42.43-4,63.74-4.56,21.48-.93,42.81-2.65,64.29-3.14,8.12-.62,16-2.3,23.82-3.7a134.55,134.55,0,0,0,18.83-4c5.77-1.69,11.92-2.7,17-6.08a26.78,26.78,0,0,1,3.59-2,.51.51,0,0,1,.72,0,.51.51,0,0,1-.07.76c-11.82,12.83-14.36,16.54-32.27,20.37-13,2.34-26.16,4.37-39.42,3.84-13.67-.36-27.34.71-41,1.1-10.24.51-20.49.21-30.73.8C2711.41,934.25,2692.39,936.32,2673.09,935.48Z"/><path d="M2545.34,851.15l.07-.07.15-.18c-1.61-3.76,3.79-4.33,6.27-5,7.88-1.63,15.79-3.17,23.78-4.17,10.58-1.11,21.07-2.76,31.59-4.36s21.07-3.6,31.78-3.63c12.46-.28,24.24-3,36.52-4.49,5.19-.66,10.4-1,15.59-1.64,8.4-1.14,16.83-2,25.29-2.31,10.13-.75,20.19-2.35,30.35-2.51,4.89,0,9.79.25,14.67,0,2.58-.18,5.14-.44,7.72-.66a4.61,4.61,0,0,1,3.25.86,4.46,4.46,0,0,1-2.68,8c-2.58,0-5.16.23-7.74.31-8.24.17-16.48-.43-24.71.3h0l.16,0c-10.53.76-21,1.87-31.57,2.19-5.06.31-10.08,1-15.13,1.45-5.28.45-10.56.75-15.81,1.41-7.91.95-15.75,2.33-23.65,3.3-7.05.76-14.15.92-21.22,1.31-18.37,1.93-36.49,5.77-54.92,7.25q-9,1-18.05,2.28c-2.63.4-5.28.73-7.92,1.12a4.53,4.53,0,0,1-2.76-.15c-.2.13-.39.41-.64.39A.57.57,0,0,1,2545.34,851.15Z"/><path d="M2769.9,824.53c0-2.23.35-4.46.18-6.69-.16-1.8-.39-3.59-.52-5.4-.25-4-.16-8-.39-12-1.58-13.82-3.41-27.64-6-41.31-1-5.7-1.4-11.46-2.06-17.2-2.54-20.22-4.89-40.48-6.44-60.81-.77-9.32-1.82-18.62-2.61-27.94-.1-2.42-1.1-6.78,1.15-8.28a1.61,1.61,0,0,1,1.69.34.61.61,0,0,1,.23,1.13c2.06,8.4,4.15,16.8,5.71,25.31,1.52,8.73,2.52,17.53,3.87,26.28.75,5.69,1.89,11.31,2.76,17,1.15,8.69,2.4,17.38,3.48,26.08.79,8.49,1.63,17,2.82,25.4,1.41,11.27,3.16,22.54,3.4,33.91.07,5.46-.16,10.91.07,16.37,0,2.77.68,5.54.4,8.31A3.89,3.89,0,0,1,2769.9,824.53Z"/><path d="M2783.66,838.88c-3.28-3.58-6.44-7.41-10.82-9.71-3.86-1.61-2.83-6.36,1.26-6.44a10.35,10.35,0,0,1,3.77,1,25.17,25.17,0,0,1,12.22,10.21A4.1,4.1,0,0,1,2783.66,838.88Z"/><path d="M2812.08,839.12a22,22,0,0,1-6.43-2.33c-2.59-1.5-4.76-3.61-7.23-5.28a60.37,60.37,0,0,0-7.73-4.13c-1.17-.62-2.54-1-3.53-1.85a1.39,1.39,0,0,1,0-1.95c1.82-1.67,7.76.13,10,.76,4.22,1.18,7.95,4.25,11.62,6.33,5.13,2.82,10.88,2.27,16.27.54a48.62,48.62,0,0,1,13.14-2.42,3.26,3.26,0,0,1,.86,6.39c-2.19.56-4.45.71-6.67,1.16C2825.79,838.07,2819,840.7,2812.08,839.12Z"/><path d="M2808.57,815.17c-.93-.91.6-1.59,1.34-1.84s1.71-.81,2.55-1.25c4.77-2.5,8.62-6.42,13.39-8.9a2.09,2.09,0,0,1,2.11,3.61C2824.78,808.36,2811,816.88,2808.57,815.17Z"/><path d="M2751.83,630.77a.76.76,0,0,1,0-.3c-3.53-4.16-7.77-8.29-8.53-13.93a35.73,35.73,0,0,1-.28-5.37,2.73,2.73,0,0,1,2.34-2.69c3.36-.21,3.06,3.1,3.57,5.45.6,5.52,3.41,10.37,5.18,15.54.38.8,0,2-1,1.91A.87.87,0,0,1,2751.83,630.77Z"/><path d="M2744.87,646.45a5.48,5.48,0,0,1-3.45-1.45,72.72,72.72,0,0,1-7.72-6.17c-8.38-8.11-10.94-14.63-14.35-25.39,0,.07,0,.08.05.14-1.64-5.21-4.65-9.75-7.58-14.29a2.54,2.54,0,0,1,4.2-2.83c.92,1.26,1.83,2.53,2.64,3.87a56.13,56.13,0,0,1,5.39,11.58c1.68,4.67,2.83,9.2,5,13.41a62.42,62.42,0,0,0,12.42,16.79c1.2,1.09,2.34,2.4,3.58,3.38A.49.49,0,0,1,2744.87,646.45Z"/><path d="M2740.11,658.86c-2.33-3.16-7.54-2.88-11.08-3-3.81,0-7.58.7-11.4.63a2.79,2.79,0,0,1,0-5.57c1.92.1,3.84.14,5.75.25,5,.38,10.23.81,14.75,3.09a5.67,5.67,0,0,1,3.24,3.86A.73.73,0,1,1,2740.11,658.86Z"/><path d="M2649.89,836a3.88,3.88,0,0,1-3.18-4.83,20.28,20.28,0,0,0,.46-3.11c.12-3.45.33-6.9.52-10.35.24-21.13.4-42.3,2.45-63.36.62-12.15,1.07-24.31,2-36.45.69-10.56.52-21.17,1.57-31.72,1.5-14.36,1.22-28.14,2.13-42.33.93-10.61,1.42-21.24,1.7-31.88.42-9.27,1.56-18.29,1.94-27.46.22-6.49.38-13.05.85-19.51,1.27-16.12,4-32.12,4-48.32.1-8-.07-16.11.69-24.13.34-4,1.12-7.93,1.52-11.91,1.31-12.89,2.09-25.85,3.75-38.7.34-1.73.2-3.8,1.58-5.07A2,2,0,0,1,2675,438c.42,3.57-.17,7.23-.13,10.83-.3,14.32-1.17,28.63-2.44,42.89-.92,16,.24,32-1.67,47.94-1.84,15.22-2.73,30.51-3.41,45.81-.54,8.26-1.47,16.49-2,24.75-.46,11.44-1,22.88-1.9,34.29-.7,16.14-1.28,32.27-2.86,48.36-.6,9.48-.61,19-1.42,28.48-.9,10.48-1.39,21-2.05,31.46-.82,10.76-2,20.61-2,31.12-.21,9.75-.59,19.5-.59,29.25-.13,4.16-.55,8.3-.46,12.47,0,2.18,0,4.36.18,6.54A3.87,3.87,0,0,1,2649.89,836Z"/><path d="M2626.37,916.82a102.46,102.46,0,0,0-1.59-13.09,56.8,56.8,0,0,1-1.05-6.35c-.67-6.51-.65-13.07-.88-19.6q-.51-16.42-1.44-32.83c0-2.12-.26-4.24-.19-6.36a1.61,1.61,0,0,1,2.69-1.22c.79.81.82,2,1.13,3.08.75,3.18,1.29,6.41,1.83,9.63,1.43,8.48,2.27,17,3.27,25.57.68,8.89.34,17.83.59,26.73.35,4.69.45,9.4.69,14.1A2.54,2.54,0,0,1,2626.37,916.82Z"/><path d="M2529.11,845.69a3.81,3.81,0,0,1-1.09-2.63c-.12-3.89,0-7.78.12-11.67.05-3.62.18-7.23.41-10.84.34-16,1.22-31.9,1.63-47.86.11-8.13.29-16.26.73-24.37.73-16.72.05-33.47,1.35-50.16.84-12.32.71-24.66.71-37,.36-16.8,1-33.6,1.64-50.4.36-9.34.45-18.69,1-28,1-13.25,2-26.51,1.87-39.8,0-8.09.37-16.16.84-24.23.64-12.46.24-25,1.83-37.37,1-8.26,1.63-16.57,2.4-24.86.55-3.87.45-8,1.92-11.62h0a2,2,0,0,1,3.68.48c.54,3.91.13,7.91.11,11.85-.24,10.53-1,21-1.39,31.56-.13,6,.17,12,.11,18,0,8.45-.5,16.89-.87,25.33-.31,7.48-.22,15-.46,22.45-.36,10.72-1.57,21.38-2.23,32.07-.63,10-.76,20.22-1.51,30.19-1.4,21.2-2.19,42.44-2.5,63.68-.6,16.57-1.67,33.13-1.36,49.72,0,8.24-.11,16.48-.44,24.72-.37,16.54-.55,33.09-1.16,49.62.11,10.43-.59,20.82-.87,31.24,0,2.44,0,4.88-.13,7.32a3.73,3.73,0,0,1-6.36,2.63Z"/><path d="M2417.25,936.13c-6-1.51-9.79-8.93-7.93-14.76-10.94,5.06-13.79-7.11-9.21-14.86-13.77-11.31,8.1-31.74,18.69-37.28,15.2-8,32.52-9.09,49.37-9.39,20.52-2.26,41.17-3.13,61.77-4.22,5.2,0,11.07-2.09,15.94,0,1.43,1.33.44,3.53-1.31,3.95-12.86,3.28-26.15,4-39.27,5.64-12,.95-23.92,1.68-35.77,3.56-15.59.92-31.59,2.27-46.27,8-7.39,2.86-25.67,17.18-20.89,25.85a2.6,2.6,0,0,0,.39,0c11.18-11.2,36.38-27.31,52.38-21.62,2.2,2.7-1.16,5.17-3.8,5.28-8.37,1.43-17.39,1.11-24.91,5.62-8.43,6.33-24.27,12.06-21.61,25,15.39-3.14,26.55-16.52,41.9-20.27,3.08-1.07,15.93-3.87,11.25,2.91-5.95,2.65-12.69,3.05-18.7,5.59-7.16,3-31.83,16-20.82,24.81,17.19-8.32,36.46-10.94,55.24-13.35,19-1.09,38-.36,57,.13,7.84-.27,15.7.74,23.49.11,4.27.13,5.64,6.36,1.69,8.17-26.34,1.42-53.32-3.12-79.87-1.09a225.39,225.39,0,0,0-35.33,5.9c-5.06,1.34-10.18,2.51-15,4.59C2423,935.4,2420.21,936.77,2417.25,936.13Z"/><path d="M2528.17,857.84c-1.75-.5-1.63-2.61-1.7-4.07a58,58,0,0,1,.4-7.68c.45-3.38.5-6.87,1.56-10.14.33-1,1.71-1.94,2.46-.82a6,6,0,0,1,.22,2.8c1.48.06,1.95,1.66,1.93,2.91.14,1.79.21,3.59.26,5.39.06,2.55.08,5.1,0,7.65a2.14,2.14,0,0,1-2.53,2.09A2.12,2.12,0,0,1,2528.17,857.84Z"/><path d="M2454.66,863a2.54,2.54,0,0,1,.56-3.23c.46-1.81.61-7.7,2.44-8.36a.54.54,0,0,1,.61.52,37.56,37.56,0,0,0,0,7.79C2461.23,862.21,2456.87,866.23,2454.66,863Z"/><path d="M2519,625.68c-1.4-3.65-2.3-7.45-3.56-11.15-1.6-4.16-3.41-8.24-5-12.41-2.45-6.52-4.23-13.27-6.49-19.86-1.54-4.28-3.28-8.48-4.86-12.74-2.47-6.37-5.79-12.38-8.27-18.76-1.78-4.26-3.56-8.6-4.13-13.22-1.23-10.44,7-13.47,14.15-18.5q6.17-4.23,12.46-8.25c-7.76-1.68-30.16.81-31.65-9.38-.06-3.41,1.23-6.71,2.58-9.79,3-6.47,8.16-11.59,12.7-17,6.31-7,11.74-15,19-21.17,1.41-1.2,3.75-.8,3.38,1.41a9.67,9.67,0,0,1-1.81,2.9c-2.11,2.76-4.11,5.59-6.05,8.47q-6,8.91-12.56,17.45c-3.91,5.06-7.89,10.29-9.57,16.58a16.4,16.4,0,0,0,5.91,1.28c4.38.25,8.78.09,13.15.48a40.62,40.62,0,0,1,10,2.1c3.5.84,7.21,3.39,4.48,7.22-1.41,1.69-3.45,2.72-5.26,3.93-4,2.47-7.93,5-11.88,7.5-3,1.85-6,3.6-8.9,5.53-1.72,1.22-3.71,2.44-4.48,4.51-2,5.91,4,16.69,6.29,22.48a208.54,208.54,0,0,1,10.16,25.63c2.59,8.42,4.35,17.13,7.39,25.4,2.35,6,3.85,12.22,5.79,18.33A1.56,1.56,0,0,1,2519,625.68Z"/><path d="M2672.6,639a2.39,2.39,0,0,1-1.64-2.89c1.32-6.85,4.26-13.16,6.64-19.67,3.1-9,6-18.14,8.83-27.24,5-14.06,11.61-27.49,16.78-41.48,2-4.68,4.22-9.22,6.52-13.75.79-2,5.87-9.71,3.34-11-3.73-2.33-7.62-4.41-11.54-6.43-4.1-2.07-16.47-7.5-14.65-13.19,1.7-3.81,6.51-5.72,10-7.54a120.66,120.66,0,0,1,11.87-6.22c5-2.25,10.53-3.54,15-6.82-1.5-3.33-3.88-6.13-6.12-9s-4.55-5.94-6.82-8.92c-2-3-3.44-6.38-5.3-9.51q-2.2-3.89-4.33-7.81c-1.15-2.26-3.81-6.92-1.83-9.15a1.63,1.63,0,0,1,2.44.16h0c3.65,6.21,8.77,11.45,12.53,17.6,3.51,6.63,8.34,12.46,12.23,18.87,1.47,3,4.29,6.8,2.83,10.16-2.13,3.95-7.36,6.47-11.23,8.49-2.19,1.08-4.41,2.07-6.6,3.13-5.23,2.6-10,6.19-15.66,7.83,6.7,4.05,14.09,7,20.23,11.94,4.18,2.64,5.24,6.92,3.95,11.53-1.25,4.32-3.52,8.27-5.27,12.4-1.9,4.22-3.67,8.48-5.23,12.83a277.31,277.31,0,0,1-10.7,27.36c-4.07,8.58-6.61,17.75-10.06,26.58-2.9,7-6.42,13.78-9.62,20.67-1.18,2.61-2.27,5.24-3.23,7.94C2675.53,637.57,2674.73,639.5,2672.6,639Z"/><path class="cls-4" d="M2558,451.13a98.89,98.89,0,0,1-10.86-1c-1.29-.17-2.9-.19-3.87-1.17h0a2.77,2.77,0,0,1,1.88-4.62c2.42-.2,4.85.09,7.26.13a81.39,81.39,0,0,0,17.64-1.1c5.6-.66,11.21-1.3,16.85-1.64,8.79,0,17.43-1.43,26.13-2.47,5.54-.5,11-1.35,16.55-2.16,9.58-1.31,19.24-2.17,28.62-4.66a50.79,50.79,0,0,1,7.42-1.4,5,5,0,0,1,4.88,4.26c.36,5.2-4.05,5.71-8.07,6.25-9.64,1.89-19.44,2.46-29.18,3.58-8.45,1.24-16.94,2-25.42,2.86-9.67,1.61-19.47,1.22-29.2,2.11C2571.75,450.37,2564.9,451.5,2558,451.13Z"/><path class="cls-4" d="M2615.34,531.58c-18.14-5.35-18.18-44.23-19.59-60-2.15,6.64-4.05,13.36-6.39,19.94-1.8,4.66-3.68,9.3-5.43,14s-3.68,9.45-5.85,14c-1.79,3.71-3.73,7.46-6.67,10.4a5.69,5.69,0,0,1-8,.78c-2-1.7-3.1-4.2-4.14-6.56a72.31,72.31,0,0,1-4.68-14.11c-1.73-7.5-2.08-15.21-2.68-22.86-.79-11.19-1.45-22.44-.86-33.66.23-1.38-.19-7.8,2.14-6.42a.88.88,0,0,1,.32.49,29.62,29.62,0,0,1,.71,6.24c1.13,13.24,2.24,26.52,4.86,39.57,1.3,7.31,2.64,14.66,5.05,21.71,1.09,3,2.16,6.09,3.27,9.13,5.48-8.14,8-17.85,11.28-27,2-5.35,4.06-10.65,5.64-16.12,1.49-4.77,3.19-9.47,4.59-14.27,1.62-5.66,3.78-11.17,5-16.94.28-2.16,1.46-4.7,4-4.62,3,.08,3.89,2.86,3.42,5.4.07,4.14.38,8.4.64,12.5,1.3,16.88,3.55,33.84,8.32,50.12,1.49,3.82,3.84,10.19,7.79,11.87,4.38,1.53,8.43-1.87,10.67-5.37,3.81-6.11,6.45-12.86,9.38-19.43,2.4-5.62,4.77-11.26,6.85-17,2.93-9.84,7.2-19.18,10.89-28.74.91-2.44,1.77-4.9,2.52-7.39.88-2.33.79-5.49,3.17-6.88a4.19,4.19,0,0,1,6.12,4.71,41.41,41.41,0,0,1-1.62,4.12c-3.09,8.38-6.35,16.7-10.06,24.83-2,4.52-3.5,9.19-5.29,13.78-3.82,9.56-8.19,18.9-12.71,28.14C2633.52,525,2626.84,534.49,2615.34,531.58Z"/><path class="cls-4" d="M2585.39,840.73a3.3,3.3,0,0,1-2.59-4.13c.15-3.73,0-7.46.31-11.18.22-4.59.88-9.13,1.26-13.7.2-3.5.21-7,.25-10.52.48-26.49.07-53,.71-79.49.42-7.47.79-14.94,1-22.42.5-11.7,1.58-23.38,1.8-35.09.12-7.67-.41-15.32-.58-23,0-15,.72-30.05.67-45.08.52-11.69,1.36-22.59,1.59-34.16.29-7.86,1.07-15.7,1.14-23.57.14-7.37.45-15,1-22.25s.71-14.76,1.28-22.13c.51-5.82,1.06-11.64,1.7-17.45.31-1.91.3-3.94,1.15-5.7a.78.78,0,0,1,1-.36.55.55,0,0,1,.07,1c-1.75,13.08-1.1,26.37-1.25,39.54-.28,11.66.13,23.31.3,35-.15,7.75-.37,15.5-.42,23.25s-.5,15.47-.89,23.2c-.33,15.41-.91,30.83-1,46.24.19,7.82.76,15.62.75,23.45s-.34,15.37-.72,23c-.79,11.53-1,23.08-1.82,34.6-.84,19.12-.38,38.28-.47,57.41-.07,10.74.05,21.49-.11,32.23-.42,6.76-1.61,13.44-2,20.21-.13,1.67-.33,3.33-.46,5-.09,1.14-.16,2.28-.28,3.41A3.12,3.12,0,0,1,2585.39,840.73Z"/><path class="cls-3" d="M2709,270.78c-4.44-5.26-8.82-10.81-14.7-14.53a30.7,30.7,0,0,0-4.46-2.19,62.26,62.26,0,0,0-15.66-4.21c-5.33-.54-10.67.18-16,.26a56.39,56.39,0,0,1-11.62-1.56c-5.25-1.11-10.66-2.32-15.18-5.38a66.88,66.88,0,0,1-14.5-14.54c-4.56-6.14-7.93-13-12.46-19.2-7-9.06-17.93-15.43-28.83-18.69-6.91-1.47-14.08-1-20.95-2.72-4.69-1.12-9.72-1.16-14-3.67a64.17,64.17,0,0,1-7.66-5.11c-3.23-2.52-7-4.67-9.27-8.14-.19-.28.26-.58.44-.29,2.27,3.23,5.86,5.1,9,7.41,3.83,2.59,7.61,5.31,12.13,6.46,2.5.47,5,.66,7.55,1.07A79.41,79.41,0,0,0,2564,187c4,.16,8.07,0,12.05.72,12.06,2.76,25.33,10,32.6,20.24,4.43,6.14,7.84,12.95,12.38,19a67.67,67.67,0,0,0,12,12.27c6.3,4.53,14.27,5.68,21.7,7.22,5.57.74,11.2-.05,16.8.34,6,.28,11.88,2.12,17.47,4.33a36,36,0,0,1,14.8,10.33c2.39,2.54,4.52,5.3,6.66,8.05a.94.94,0,0,1-1.41,1.23Z"/><path class="cls-3" d="M2713.71,380.47c-7.51-6.77-11.92-17.15-14.09-26.87a107.16,107.16,0,0,1-1.85-16.08c-.28-5.75-.66-11.51-.58-17.27.26-11.67,2.13-23.68-1.42-35.05-1.73-6.15-4.42-11.87-9.54-15.88a42.93,42.93,0,0,0-9.1-6.06c-1.86-.88-3.8-1.56-5.67-2.42-.8-.41-2.81-1.2-1.45-2.1.47-.15.67.26,1,.44,4.35,2,9,3.28,13,6.06a36.5,36.5,0,0,1,9.49,8.14c3.52,4.92,5.56,10.77,7,16.6,2,9.46,1.07,19.17.69,28.74-.17,6.36.22,12.71.57,19.06.44,7.66,1.27,15.4,3.89,22.65a51.38,51.38,0,0,0,7.43,13.82,35.83,35.83,0,0,0,3,3.46A1.83,1.83,0,0,1,2713.71,380.47Z"/><path class="cls-3" d="M2742.94,362.2c-6.11-1.95-10.76-7-14.68-11.87a43.3,43.3,0,0,1-8.15-16.47,122.38,122.38,0,0,1-4.2-22.53,84.21,84.21,0,0,0-2-10.32c-.07-.31.41-.4.49-.09,1.51,5.86,2.76,11.77,3.87,17.72a82.49,82.49,0,0,0,8.08,22.64A48.06,48.06,0,0,0,2737,353.37a21.65,21.65,0,0,0,6.81,3.76,3.77,3.77,0,0,0,1.38.08,2.51,2.51,0,0,1,2.59,2C2748.25,361.93,2745,362.75,2742.94,362.2Z"/><path class="cls-3" d="M2679.79,327a1.46,1.46,0,0,1-1.14-1.71,44.6,44.6,0,0,0,1.17-7.18c.36-6.76.29-13.83-2.3-20.19a23,23,0,0,0-6-8.06.47.47,0,1,1,.72-.58c7.77,6.31,9.67,14.82,10.09,24.39a46,46,0,0,1-.84,12.24A1.48,1.48,0,0,1,2679.79,327Z"/><path class="cls-3" d="M2674.33,384.18a51.21,51.21,0,0,1-11.59-35.13c.17-4.86.06-9.74.51-14.59.53-5.18,1.31-10.49,1.43-15.67a20.83,20.83,0,0,0-3.2-12c-.2-.32.28-.63.47-.32a24.15,24.15,0,0,1,3.93,13.75c0,5.41-.63,10.76-.69,16.16.26,6.21.17,12.45.68,18.65,1,7.68,3.34,15.28,7.73,21.7,1.14,1.69,2.41,3.27,3.63,4.9A2,2,0,0,1,2674.33,384.18Z"/><path class="cls-3" d="M2685.23,369.27c-3.13-.87-6-16.73-6.24-20.15-.1-1.13-.55-8.08,1.09-7.73a.65.65,0,0,1,.51.76,13.47,13.47,0,0,0-.38,2.09c-.27,6.09,1.46,12.16,3.92,17.68a40.12,40.12,0,0,0,2.84,4.76A1.7,1.7,0,0,1,2685.23,369.27Z"/><path class="cls-3" d="M2732.49,277.61a47.17,47.17,0,0,0-11.7-24.59,42.2,42.2,0,0,0-10-8.78c-11.14-6.07-23.76-8.37-36.23-9.88-3.44-.5-6.85-1.18-10.26-1.88-5.1-1.08-10.34-1.54-15.3-3.19-8.27-2.83-15.16-8.47-21.78-14-5.17-4.79-9.46-10.44-14.21-15.65-4.3-4.81-8.39-9.9-13.54-13.85a51.62,51.62,0,0,0-19.48-8.47,79.17,79.17,0,0,1-8.31-1.88.5.5,0,1,1,.32-.95c3.66,1.15,7.5,1.34,11.21,2.25a51.08,51.08,0,0,1,16.79,7.1,57.86,57.86,0,0,1,9.66,8.91c5.53,6.14,10.89,12.62,16.41,18.75a75.32,75.32,0,0,0,8.78,7.47,54.71,54.71,0,0,0,9.67,6.25c5.14,2.59,10.81,3.34,16.44,4,6,.84,12,1.72,18.12,2a86.66,86.66,0,0,1,20.92,3.4c5.13,1.73,10.45,3.25,15,6.29a54,54,0,0,1,14.31,15.78,44.92,44.92,0,0,1,6.34,17.06c.09,1.76,1.3,4.66-1.07,5.27A1.8,1.8,0,0,1,2732.49,277.61Z"/><path class="cls-3" d="M2492.8,158.53c-.25-.64.55-1.06.9-1.48a13.86,13.86,0,0,1,5.2-3.25c5.44-2.23,10.21-1.24,14.93,2.06a1.13,1.13,0,0,1-1.24,1.88c-2.08-1.3-4.22-2.65-6.66-3a16,16,0,0,0-11.64,3.65C2493.87,158.7,2493.15,159.16,2492.8,158.53Z"/><path class="cls-3" d="M2501.66,147.5a.47.47,0,0,1,.54-.43l.08,0h-.06c5.37-4.31,12.26-3.87,18.22-1.07a1,1,0,0,1-.84,1.72c-5-2.8-11.41-3.57-16.29-.19C2502.87,147.85,2501.74,148.4,2501.66,147.5Z"/><path class="cls-3" d="M2535.54,141.06a19.07,19.07,0,0,0-9.66-3.54c-.43,0-1-.22-.92-.75s.66-.74,1-.35a24.45,24.45,0,0,1,9.16,2.18c.86.41,2.55.93,1.83,2.17A1,1,0,0,1,2535.54,141.06Z"/><path class="cls-3" d="M2422.84,241.62a1.35,1.35,0,0,1-1-1.59,29.32,29.32,0,0,1,3.93-10.67c6.14-11,18.25-16.73,24.93-27.24,5-7.36,4.74-16.8,9.09-24.39,2.52-4.13,7.78-7.24,12.68-6.73.31.06.2.55-.11.49a5.2,5.2,0,0,0-.78-.1,12,12,0,0,0-5.79,1.6,14.42,14.42,0,0,0-6.87,8.72c-1.53,5.54-1.89,11.35-3.54,16.86a37,37,0,0,1-6.85,12.16c-6.62,7.33-15.38,12.8-20.53,21.43a28.47,28.47,0,0,0-3.11,6.86C2424.55,240.1,2424.39,241.94,2422.84,241.62Z"/><path class="cls-3" d="M2418.09,334.25a1.71,1.71,0,0,1-.69-2.3c.71-1.21,1.45-2.4,2.25-3.55,2.1-3,4.48-5.9,6.48-9,5-8.08,5.91-17.84,6.42-27.12,0-5.47-1.13-10.94-1.67-16.36-.49-4.1-1.46-8.16-1.44-12.31.13-6.26-.1-12.83,2.73-18.59a.25.25,0,0,1,.44.24c-2.83,5.88-2.2,15.21-1.29,21.61,1.34,6.26,3.21,12.39,4.63,18.63,1.3,5.66,1.08,11.52.45,17.26a43.41,43.41,0,0,1-4.9,15.87c-2.14,4-5.23,7.26-8,10.79-1.12,1.42-2.16,2.9-3.25,4.34A1.72,1.72,0,0,1,2418.09,334.25Z"/><path class="cls-3" d="M2418.37,368.61a9.31,9.31,0,0,1-2-8.14,49.68,49.68,0,0,1,3.75-11.87c3.3-7.57,9.8-12.89,15.21-18.89,2.54-3,4.13-6.71,5.77-10.23a43.68,43.68,0,0,0,4.14-12.27,40.36,40.36,0,0,0,.44-5.37c0-.68,0-1.36,0-2a.48.48,0,0,1,.51-.42c.48.06.44.58.4.92a42.91,42.91,0,0,1-1.23,11.3,56.87,56.87,0,0,1-2.69,7.47,60.68,60.68,0,0,1-5.3,10.64c-5.93,7.65-13.27,13.34-15.88,23.19-.88,3.69-2.44,7.83-.94,11.53.5,1,1.62,1.81,1.51,3A2.09,2.09,0,0,1,2418.37,368.61Z"/><path class="cls-3" d="M2452.4,402.14c-1.91-3.81-5.26-6.48-8.09-9.57a24.08,24.08,0,0,1-4.82-8.18c-1.66-5.65-1.69-11.68-1.15-17.5a84,84,0,0,1,3.13-13.16c1.66-5.44,3.51-10.93,6.92-15.56,1.83-2.83,4.36-5.3,5.56-8.48,0-.29.51-.39.6-.07.65,1.95-3.58,7.06-4.64,9a40.57,40.57,0,0,0-4.91,11.1h0l0-.08c-2.23,7.76-4.61,15.76-4,23.93.26,4,.63,8.19,2.43,11.85,2.44,5.37,7.87,8.39,10.94,13.29.72,1.17,1.86,3,.33,4A1.72,1.72,0,0,1,2452.4,402.14Z"/><path class="cls-3" d="M2495.4,427.23c-1.15-.89-1-2.56-1.59-3.79-1.78-4.35-5.76-7.22-9.45-9.9-6.29-4.57-13.38-8-19.31-13.08-10.15-9.38-11.44-21.59-9.14-34.56.4-2.32,1-4.6,1.52-6.88a.84.84,0,0,1,1-.63.83.83,0,0,1,.62,1c-2.35,8.72-3.58,18.35-.45,27a28.77,28.77,0,0,0,12.75,14.71c6.61,4,13.56,7.55,19.68,12.3a23.18,23.18,0,0,1,6.12,6.85,15.43,15.43,0,0,1,1.7,4.78A2.22,2.22,0,0,1,2495.4,427.23Z"/><path class="cls-3" d="M2500.39,404a37.81,37.81,0,0,0-7-9.55,31.64,31.64,0,0,0-5.44-4,.48.48,0,0,1-.31-.56c.35-1.06,2.61.57,3.28.81a33.42,33.42,0,0,1,12,11.7A1.49,1.49,0,0,1,2500.39,404Z"/><path class="cls-3" d="M2436.2,203.23a1.62,1.62,0,0,1-1.16-2.14c.86-2.18,1.54-4.41,2.33-6.6,3.53-10.34,8.31-17,16.2-24.44a.55.55,0,0,1,1,.29,1.25,1.25,0,0,1-.39.73,52.39,52.39,0,0,0-14.36,24.18c-.43,1.41-.76,2.57-1.11,4S2438.49,203.6,2436.2,203.23Z"/><path class="cls-3" d="M2641.61,206.13c-6.31-1.85-10.93-6.57-15.2-11.31-2.68-3.11-5.52-6.07-8.07-9.29s-4.67-6.37-7.4-9.22c-4.12-4.47-9.31-7.71-14.37-11s-10.28-6.51-16.09-8a48.24,48.24,0,0,0-6.53-1.15.51.51,0,0,1,0-1,54.14,54.14,0,0,1,11.68,2.42,91,91,0,0,1,11,5c4.87,2.49,9.84,4.94,14.09,8.43a58.67,58.67,0,0,1,9.74,10.6c2.78,3.67,5.89,7.18,8.73,10.78a52.2,52.2,0,0,0,9.07,8.88,35.19,35.19,0,0,0,4.29,2.17,1.41,1.41,0,0,1,.76,1.68A1.4,1.4,0,0,1,2641.61,206.13Z"/><path class="cls-7" d="M1634.21,238c-2.3-1.36-4.22-1.36-14.65.15-6.53,1-16.88,2.07-23,2.4s-12.89,1.22-15,1.86c-4.58,1.63-6.54,4.71-4.8,7.59,1.63,2.57,17.63,3.94,35.31,3,15.15-.81,20.4-1.94,23.2-5.06S1637.49,239.84,1634.21,238Z"/><path class="cls-7" d="M1625,187.94a9.65,9.65,0,0,0-5-1.11c-5,.38-55,26.31-59.21,30.67-3.62,3.81-4.16,7.55-1.94,11.36,1.62,2.47,6.07,2.33,7.31-.39.67-1.31,4.4-3.1,11.17-5.48,19.82-6.69,45.25-19.62,48.28-24.56C1627.57,195.24,1627.16,189.63,1625,187.94Z"/><path class="cls-7" d="M1631.14,293.7c-1.4-2.26-21.11-11.51-30.84-14.6-15.66-5-24.27-5.18-24-.52.15,2.86,2,4,20.57,13.34,17.34,8.63,25.91,12,30,11.77C1631.55,303.44,1633.91,297.9,1631.14,293.7Z"/></g></g></svg>