<svg xmlns="http://www.w3.org/2000/svg" viewBox="0 0 814.23 1402.17"><defs><style>.cls-1{fill:#f7941d;}.cls-2{fill:#fff;}.cls-3{fill-rule:evenodd;}</style></defs><title>Recurso 46</title><g id="Capa_2" data-name="Capa 2"><g id="Capa_1-2" data-name="Capa 1"><path class="cls-1" d="M.06,444c-1.43,22.91,22.63,58.41,47.19,58.48,10.91.23,22.4-3.59,27.84-13.69,6.13-7.78,3.41-16.15-2.35-23.16,28.05,5.94,53.28-21,32.68-46.05,11.15.54,23.55,0,33.29-6,15.22-11.93,9.8-33.66.11-47.42,15.77,4.82,33,10.32,49.42,5.48,13.58-4.56,24.17-18.49,22.94-33.07,13.77,12.58,47.2,30.59,52.37,1.12a293.48,293.48,0,0,0,28.76,40.5,170.44,170.44,0,0,0,21.54,25.88c7,7.66,13.43,16.68,22.14,22.39,4.08.73,8.22-5.51,11.76-7.46,15.58-10.85,11.32-9,1.1-22.47-7.51-8.41-14.24-17.46-21.64-26-3.44-5.18-10.87-9.66-8.72-16.59a99.08,99.08,0,0,1,18.84-7.54c8.58-2.54,18.24-2.58,26.23-6.64,1.44-1.22,1.65-3.13,1.52-4.89.48-1.76,1.32-3.4,1.72-5.18,1.05-7.67-6.12-16.07-13.82-16.33,1.63-14.19-7.32-28.24-18.69-36.06-12.21-6.59-29.05-4.26-38.86,5.62-3.83-25.72-30.63-42.4-55.3-42.88-24.38-2.63-50,12.18-56.92,36.23-22.1-15.87-54.23-13.21-75.06,3.63-14.86,10.92-28.36,29.75-21.45,48.84-17.71-4.13-39.63-4-53.92,8.67C12,359.19,0,394.58,19.85,418.85,6.37,420.22.48,431.59.06,444Z"/><path d="M264.47,581.22c-1.41,2.53.74,6.7,3.83,6,11.3-2.49,22.4-6.14,23.38-19.54.42-7.49,1.68-15.17,1-22.55-1.25-4.11-5.9-1.44-4.58,2-1.53,8.83.75,23.2-7.6,28.62C276.36,578.76,266.89,578.09,264.47,581.22Z"/><path d="M221.62,473.5c2.39-2,4.68-4.1,6.91-6.26,4.43-4.27,8.6-8.81,12.71-13.4,3.86-4.31,7.66-8.68,11.56-12.93,4.16-4,9-7.38,12.47-12.05-13.25-2.94-30.41-2.69-41,6.55a26.15,26.15,0,0,0-5.73,7.14c-1.95,6-1.64,12.26-.41,18.42A112.67,112.67,0,0,0,221.62,473.5ZM253.55,421c5,1,17,.6,18.05,6.84,2.19,2.46,1.24,6.21-1.39,7.93-4.45,4.66-9.66,8.47-13.95,13.32-10,11.21-19.88,22.9-32.3,31.48-6.68,4.88-7.86-6.73-9.92-10.8-3.07-10.47-5.12-22.91.37-32.91C222.69,424.24,239.16,419.86,253.55,421Z"/><path d="M234.52,454.27a2.1,2.1,0,0,0,.56-.08c0-.36,0-.72,0-1.08-2.34-2.4-5.44-4.63-8.9-4.74a6.2,6.2,0,0,0,.54,2C229.64,450.59,231.31,454.34,234.52,454.27Zm-6,6.3a23.34,23.34,0,0,1-4.69-3.45,14.56,14.56,0,0,1-3.34-4.77C221,456.4,224.89,459.28,228.49,460.57Zm-4.19-25.16c8.89.41,14.87,8.36,16.74,16.49a13.12,13.12,0,0,1,.2,1.94c.12,4.93-2.26,11.43-6.84,13.1a13,13,0,0,1-5.87.3A17.65,17.65,0,0,1,218.16,461a16.12,16.12,0,0,1-3.19-6.1c-1.53-7.09-.82-19.26,8.69-19.47Z"/><path d="M173.86,431c-4.29-9.79,16.34-22.58,22.72-28.56,8.17-7,17.29-12.66,26.18-18.65,4.13-2.81,8.25-5.47,12.62-7.94,2.35-2,5.72-2.19,6.21,1.49,6.35-3.31,11.91,1.45,9.12,8.09-6.48,8.25-15.65,14.19-23.41,21.23-6.57,5.78-14.09,12.11-21,17.88-7.42,6.26-14.55,14.36-24.5,16.23C176.92,440.86,175.74,434.52,173.86,431Zm8.67,2.54c.45-.18.89-.38,1.32-.58a4.47,4.47,0,0,1-1.57-2.45,4,4,0,0,1-2.46-3.94c-.18.19-.35.39-.52.59-.31.39-.61.78-.89,1.2.52,1.35,1.16,2.65,1.79,3.95.27.57.55,1.13.86,1.67C181.56,433.86,182,433.71,182.53,433.54Zm31.84-29.64c-3.27,2.28-6.5,4.6-9.59,7.13l-1.23,1.13c1.54-1.11,3.06-2.24,4.58-3.38C210.25,407.2,212.32,405.56,214.37,403.9Z"/><path d="M182.05,437.11c5.52-1.63-1.23-17.13-5-9.59C174.07,430.55,178.06,437.55,182.05,437.11Z"/><path d="M301.92,471.67c2.41.17,2.92-3.11,1.44-4.51-3.1-2.26-7.45-2-11.09-2.89-3.18-.14-11.6-2.61-12,2.11a2.81,2.81,0,0,0,2.31,2.81A108.67,108.67,0,0,1,301.92,471.67Z"/><path d="M288.2,482.83c2.1-.7,1.93-4,.13-5-1.31-.59-2.83-.31-4.21-.64-4.53-.08-9.23-2.67-13.58-2C264.63,481.79,284.7,483.07,288.2,482.83Z"/><path d="M276.53,495.8c4-.22,2.31-6-1.21-5.4-3.37.32-15.51-4.71-15.57.09a3.08,3.08,0,0,0,2.08,3.29A123.66,123.66,0,0,0,276.53,495.8Z"/><path d="M189.76,575.09c5.15-6.67-12.27-7.13-16-8-3.11,0-2.87,5-.16,5.56,4.63,1.1,9.48,1.18,14.06,2.45A2,2,0,0,0,189.76,575.09Z"/><path d="M809.14,1052.45a.15.15,0,0,0,0,.07s0,0,0-.07h0a.16.16,0,0,1,0,.07h0ZM693.88,329.25c.19-4.44-1.83-15,5.11-14.45,8.13,2.13,15.86,5.58,24,7.75,21.9,7.29,47.23,18,70.52,12.8h0C778.87,323,759.53,318.6,742,311.7c-6.55-2.4-13.6-3.54-19.79-6.82-1.2-.89-1.15-2.72-.59-3.94,1.15-2.68,4.13-1.94,6.31-1.19,15.52,4.09,59.53,20.89,71.7,9.6-8.66-14.92-47.09-26.32-63.72-31-3.39-.92-6.77-1.89-10.18-2.73-1.68-.53-2-2.68-1.47-4.12,1-3.13,4.59-2.52,7.11-2.1,13,1.24,61.85,16,70.1,6.6-2.46-10.84-21.55-13.7-30.7-16.8-10.74-3.11-21.52-5.79-32.39-8.47-3.83.16-4.65-4.72-1.58-6.47,1.38-.75,3-.27,4.52-.17,6.83,1,13.61,2.17,20.43,3.18,10.05.83,21.59,4.48,31.31,1.22-8.92-15.8-43.41-21-60.23-25.44A150.24,150.24,0,0,0,718,220.15a4.2,4.2,0,0,1-2.92,2.12c-1.4-.13-2.18-1.2-2.59-2.78a94.18,94.18,0,0,0-25.88.82c-13.45,11.05-15.18,38.77-16.58,55.29-1.35,31.75,8.12,56.11,25.28,82.25C695.27,348.29,694.53,338.77,693.88,329.25Zm-27,708.47c7.37,25.43,25,30.59,48.59,35.53,22.51,5.11,45.34,10.43,68.52,10.71,5.63-.28,12.37.2,16.84-3.77-7.32-9.32-22.36-11.14-32.91-15.7-14.22-5.79-29.11-9.53-43.32-15.37-3-1.34-1.56-6.53,1.55-6.58,9.86,2.42,19.42,6.21,29.09,9.31,10.56,2.54,21.45,2.91,32.25,3.4,5.53-.35,18.43,2.2,21.51-3-4.2-10.19-18-11.35-27.13-15.08-9.71-3.24-19.1-7.38-28.86-10.5-10.55-.84-20.59-4.53-30.55-7.85-3.66-1.69-1-7.61,2.75-6.47a237,237,0,0,1,30.14,7.61c14.76-.38,30.48-1.37,44.1-7.47-12.62-9.05-28.48-11.59-43.13-15.75-6.06-2.1-12.3-2.54-18.55-3.74-7.73-1.68-15.2-4.27-22.82-6.32-3.28-1-1.66-7,1.7-6.44A233.56,233.56,0,0,1,749.48,988c13.89-.44,35.34,1.72,46.55-7-10.74-23.26-82.65-31.44-107.64-38.21-6.38,2.58-6.21-6.58-6.63-10.6-.9-9.59-2.91-19-2.67-28.73-9.18,8-12.65,19.88-15.9,31.15-4.66,14.6-4.58,29.92-4.44,45.08C659.86,999.08,660.13,1019.27,666.92,1037.72ZM471.06,458.86c1.33,1,2.67,2.06,4,3.06a14.54,14.54,0,0,1,4.54,3.68c1.36.28,2.77,1.38,3.81,3.6,19,23.94,38.37,47.68,57.54,71.53a3.39,3.39,0,0,1,.84-1.49c3.56-3.82,7-7.74,10.4-11.71,15.5-16.7,34.83-29.43,51.18-45.29-30.62-15.69-63.3-26.43-95.53-38.17-12.69-4.14-24.88-9.73-37.51-14,.25,3.19.49,6.37.72,9.56C470.94,443.11,472.9,454.25,471.06,458.86Zm-7.37,282c15.62,2.52,31.59,1.74,47.44,2.83,21.19,1.35,42.38,2.92,63.56,4.51-11.8-23.89-25.63-47-33.3-72.68a18.4,18.4,0,0,1-.93-4.07c-3,.74-6,1.48-9.07,2.25-21.87,6.25-43.93,12.18-66,17.12-2.56.21-3.88-1-4.26-2.63.37,17.46,1.09,35.07,2,52.73A2.47,2.47,0,0,1,463.69,740.87Zm-2.63-54.64h0v0S461.06,686.24,461.06,686.23ZM154.46,532q3.19-2.38,6.45-4.7,2.53-1.8,5-3.7c-7.84-4.2-17.45-8-26.15-4.74C146.27,520.56,152.93,526.27,154.46,532ZM144,530.88l.08,0-.13-.13,0,.05Zm-2.33,10.92A23.91,23.91,0,0,1,130.05,532c.59,4.9,3.28,10.17,6.19,14.08Zm-5.89-12.33a5.9,5.9,0,0,1,.29-1.91,2.76,2.76,0,0,1,.47-.88h-.07l-.41,0,.22,0,.16,0c-1.83,0-1.11,1.8-.65,2.87A.08.08,0,0,1,135.79,529.47Zm-7.23-45.83c-3.32,2.73-6.58,5.53-9.71,8.47C122.19,489.41,125.44,486.59,128.56,483.64Zm-3.84,50.54c-4-14.5,10.24-24,23.31-23.25,7.52,1.78,16.69,3,21.85,9.31l.15-.12c-1.82-3.07-3.35-5.67-4.53-7.58-5.46-10.11-11.05-20.16-16.09-30.49-.46-1.07-1.36-2.63-2.22-4.32a43.21,43.21,0,0,1-5.78,7c-11.1,11-24.29,20.2-36.81,29.41,6.68,7.42,13.57,14.64,20.59,21.74C125,535.21,124.82,534.62,124.72,534.18ZM99.16,505.4a4.48,4.48,0,0,0-1.06,1.41l.19.21A9.86,9.86,0,0,1,99.16,505.4ZM75.88,478.34c4.19,8.58,10.91,15.53,17.22,22.6l1.05,1.25c5.37-8.5,21.13-22.22,25.66-25.6,4-2.89,7.94-6.16,12.43-8.33,8.64-2.5,14.07-2.2,16.24.11h.17c1.58.38,2.39,1.89,3,3.28,5.06,10.09,10.42,20,15.7,30,14,24.71,27.62,50.41,47.71,70.82,16.33,17.3,25.75-12.91,28.17-25.65,1-7.11,2.52-14.12,3.93-21.16.61-3.63-1-11,4.88-10.14,8.47,2.51-.5,22.41-.82,29-2.36,13.41-8.48,35.39-23.26,39.39-8.78,2-20.11-8.67-30.86-22.51a3.87,3.87,0,0,1-.6,2.44,1.82,1.82,0,0,1-1.73.48h0c-4.69-1.74-9.76-2.18-14.64-3.24-2-.06-4.31-.14-4.58-2.6-.11-5.59,8.65-2.51,11.94-2,2,.52,5.56,1.12,7.76,2.5-8-10.67-15.61-22.84-21.42-32.5-10.82,8.62-22.29,16.48-33.24,25q13.2,13.32,27.15,25.8a2.49,2.49,0,0,1,.67-1.4c3.45-2.11,11.8,1.25,8.49,6-1.09,1.16-2.39.19-3.34-.54a14.06,14.06,0,0,0-1.71-.37c13.06,11.54,26.53,22.6,40.31,33.31,17.06,14.51,34.56,28.56,52.52,42,7.41,4.59,17.11,12.35,26.25,9.91,10.09-4.66,18.21-12.55,25.15-21.08,5.27-6.24,11.42-13.12,15.83-20.28,3.52-6.29,6.92-12.65,10.64-18.85,2.61-3.11,4.09-14.73,9.74-10.73a4.56,4.56,0,0,1,1.77,3.82l.19.21c13,8.53,25.86,18,38.72,26.89,11.81,10.34,25.15,18.58,37.59,28.08,8.76,7.11,17.91,13.69,26.82,20.61,2,2.14,6.23,4.28,8.72,6.93a4.82,4.82,0,0,1,1.24.26c6.85.12,13-3,19.47-5,9.5-2.66,19.22-4.49,28.73-7.1,31.94-8.46,64.14-16,95.25-27.28-24.12-33.49-50.34-65.66-77.12-97.08-18.74-24.11-39.13-47.06-56.72-72a8.24,8.24,0,0,1-.95-1.43c-2.83-1.1-5.19-3.87-7.73-5.44-7.59-6-15.43-11.74-23.19-17.55-18.64-14.85-38.69-27.83-56.95-43.15-6.07-5.47-13.54-10.21-17.42-17.59-1.6-3.44,1-6.59,2.15-9.72,12.85-24.93,2.7-40-25.19-31.72-4.24,1.42-8.92,2.51-12.58,5.15a4.84,4.84,0,0,1-2.41,4.57c-1.63,1-3.74,3.25-5.65,1.82-3.61,1.55-6.36,4-9.54,6.17-2.8.7-5-2.68-4.33-5.19.43-2.52,3.4-3,5-4.53,2.44-1.3,7.14-6.85,10.77-8.34a6.38,6.38,0,0,1,2.9-2.3c12-5.94,27.09-10.4,40.18-5.63,17.79,9.58,14,31.76,5.68,46.73,24.6,22.86,53,41.11,79.06,62.26,2.81,2.06,5.52,4.23,8.23,6.41-.06-2.5.11-5.14-.13-6.88-.7-8.42-1.3-16.85-2-25.27-4.31-36.62-6.33-73.5-7.37-110.33-3.77-34.34-1.72-68.77,1.67-103,2.51-18.77,6-38.4,15.67-54.89a69.84,69.84,0,0,1,42.78-25.84,370.7,370.7,0,0,1,63.39-.63c27.53,3,54.29,10.25,80.8,18.31a288.79,288.79,0,0,1,52.67,20.29c0-3.31,0-6.62,0-9.91,0-28.82-1.05-57.78,1-86.54,3.15-21.18,2.17-42.67,5.5-63.81-3.28-1.36-.82-5.77,2.17-5.45,6,1.38,1.81,10,2.08,14.38-1.1,24.53-2.68,49-4.43,73.51,0,23,.17,45.9.43,68.84a7.06,7.06,0,0,0-.75,3.46c.15,2.39.08,4.8.09,7.19,0,.37,0,.75,0,1.12v1.08c0,.64,0,1.29,0,1.93v3c0,.58,0,1.15,0,1.73,0,1.68,0,3.36,0,5.05q0,1.62.09,3.24c0,.51,0,1,.08,1.52a15.29,15.29,0,0,0,.39,2.93,7.74,7.74,0,0,0,.56,1.46c-.07,6.26-.31,12.5-.67,18.75a21.4,21.4,0,0,0-.17,4.19c4.71.68,9.35,1.75,14,2.88,17.07,4,34.39,8,50.18,15.9,18.32,9,22.75,25.61-2.87,23.37,9.94,3.23,32.44,10.75,24.58,24.66-7.58,7.69-22.75,4.14-32.53,3.4,11.07,5.3,23.51,10.83,31,20.93,5.92,14.36-16.15,15.49-25.46,14.05,6.69,3.59,13.79,7.07,19.33,12.31,8.92,15.26-22.07,12.44-30,11.45C744,338.58,722.37,329.92,700.33,323c.21,13.39,2.44,26.81.53,40.17a3.23,3.23,0,0,1,0,3.63c.79,26.45-2,52.78-3.65,79.13,0,37.33-3.42,74.53-3.3,111.88-2.12,44.65,1,89.23-.35,133.91.22,59,2.51,117.93,1.84,176.89-.1,16-1,31.89-1.4,47.84-.59,3.57.84,14.68-1.19,19.64,26.91,6.49,54.4,11.13,80.37,21.06,34.14,13.56,40.75,34-2.24,36.82,42.35,11.82,49.14,25.13,0,31.79,12.11,5.81,26.1,7.79,37.15,15.63,6.22,3.85,9.11,13.53,1.86,17.88-9.09,4.68-20,2.63-29.88,2.68,9,3.79,21.23,6.07,26,15.51,2.09,11.64-13.86,14.36-22.48,14.24-20.21.08-40.2-3.9-60-7.81-11.5-2.56-24.55-4.82-35.78-9.73a5.84,5.84,0,0,1,.81,5c-.6,9.23-1.18,17.95-1.35,27.28-.87,25.2,1,51-.06,76.38.16,40.14,1.58,80.29.18,120.42-.22,11.66-.08,23.31-.11,35-.73,4.81,2.6,13.07-3.26,15.31-6.49,1.13-2.47-18-3.71-22.61-.82-21.73.65-43.45.21-65.19.5-61.59-3.21-123.37,1.17-184.86-2.07-1-1.28-3.95.4-5,.73-1.92,1.75-2.85,2.78-3.07a52.87,52.87,0,0,1-7.06-4.18,3.55,3.55,0,0,1-1.56.42c-51.92-9.5-160.15-22.64-195.08-62.4-4.26-6.22-3.37-14.39-4.76-21.54-1-8.06-2-16.12-3.33-24.14-7.64-49.14-8.92-99-13.34-148.47.41-9.7-12.23-109.68-4.56-130.1-2.2-1.54-4.37-3.13-6.53-4.73-18.38-12-35.55-25.79-53.07-39-14.53-11.31-31.19-19.94-44.75-32.46-2,3.64-4,7.28-6.24,10.76-5.94,10.78-12.41,21.2-21,30.13-9.56,10.55-19.75,23.28-34.35,26.33-17.11-.64-30.43-14-43.58-23.52Q227.78,636.4,210.61,622c-18.08-14-35.92-28.46-52.86-43.87-17.91-17.16-35.59-35.06-52.73-53-7.18-7.43-13.26-15.79-20.1-23.51A127.57,127.57,0,0,1,74.2,487.79c-1.45-2.53-3.44-5.09-3.4-8.13A2.73,2.73,0,0,1,75.88,478.34Z"/><path class="cls-2" d="M639.81,302.53c3.59-3.61-2.65-9.16-3.58-13.12a130,130,0,0,1-8.49-24.64,2,2,0,0,0-2.89-1.29c-4.23,2.73,2.79,16.17,3.75,20.55C630.47,287.1,635.74,305.43,639.81,302.53Z"/><path class="cls-2" d="M687.78,402.72c3.59-4.13-2.93-6.83-5.77-8.72-7.62-4.63-15.45-8.89-23.24-13.21-15.33-9.17-31.27-17.13-47.07-25.41-9.33-5-18.47-10.44-28.18-14.65a2.53,2.53,0,0,0-2.93,1.52c-1.83,4.88,6.1,5.47,8.92,7.77,23.3,12.52,47,24.2,69.9,37.49,8.47,4.79,17.22,9.17,25.26,14.66A1.88,1.88,0,0,0,687.78,402.72Z"/><path class="cls-2" d="M656.59,902.69c2.3-.31,3.9-3.47,2.31-5.34-3.07-2-7.48-.36-11-.62-9,.39-18.11.19-27.14-.2-18.33-.6-36.83-3.22-55.11-.81-2.59.38-3.16,5.25-.15,5.33,29.71-1.79,59.37,3.4,89.09.93A1.86,1.86,0,0,0,656.59,902.69Z"/><path class="cls-2" d="M276.55,299.78c9.79-4.86-8-22.57-13.78-25.27-5.84-4.71-28.82-4.2-29.15,5,1.07,4.18,9.52-2.77,13.19-2.23,12.46-1.6,23.5,8.24,28,19.15C274.22,297.7,274.87,299.89,276.55,299.78Z"/><path class="cls-2" d="M178.4,310.2c10.17-10-18.42-19.13-25.77-19.23-9.58-1.63-19.21,2.94-24.85,10.71-2.06,4.23,2.5,5.6,4.58,1.76,10.67-12.32,28.72-6.42,40.92.35C176.58,305,175.17,310.29,178.4,310.2Z"/><path class="cls-2" d="M168.77,353.61c15.64-6.22,16-24.45,9-16.33h0c-1.15,5.36-6.07,8.8-10.47,11.51C164.78,350,165.6,355,168.77,353.61Z"/><path class="cls-2" d="M97.22,387.58c8-.54,16.31-4.19,20.26-11.54,1.24-2.76,3.9-7.31,1.09-9.79-4.26-1.89-3.24,8.2-8.48,11.06-4.3,3.38-10,4.3-15.24,5A2.86,2.86,0,0,0,92.36,385C92.06,387.93,95.17,387.75,97.22,387.58Z"/><path class="cls-2" d="M43.19,386.58a3.07,3.07,0,0,0,2.7-2.91c.32-21.46,21-26.35,38.31-20.3,2,1.87,4.54-1.53,3.32-3.5-3.76-3.83-10.37-3.43-15.4-4.32a24.78,24.78,0,0,0-18.22,4,27.29,27.29,0,0,0-12.18,18.18C41.6,380.37,39.29,385.91,43.19,386.58Z"/><path class="cls-2" d="M72.66,440.41c8.87-4.2,11.45-15.89,9.81-24.84-.31-1.59-.76-4.22-2.93-3.92s-3.75,4.25-1.51,5.54c1.06,6.44-.55,14.42-6.56,17.92C68.92,436.25,69.4,441.36,72.66,440.41Z"/><path class="cls-2" d="M29.58,457.18c4.33-1.87-1.07-12.6,3.62-20.2,0-3.3-3.89-2.5-4.93-.19C25.83,440.08,23.62,457.49,29.58,457.18Z"/><path class="cls-2" d="M304,325.84c1.79-6.95,7-14.59,14.95-14.22,1.26,2.79,5.18.21,5.17-2.15-1.09-6.32-11.17-2.94-14.73-.34-4.09,2.6-13.19,14.55-8.5,18.63A2.64,2.64,0,0,0,304,325.84Z"/><path class="cls-2" d="M312.36,339.1A27.56,27.56,0,0,1,323,330.27c5,.64,3.78-7.52-1.77-4.43-4.09,2-15.37,8.79-12.05,14.07A2.21,2.21,0,0,0,312.36,339.1Z"/></g></g></svg>