<svg xmlns="http://www.w3.org/2000/svg" viewBox="0 0 478.64 524.34"><defs><style>.cls-1{fill:#f7941d;}.cls-2{fill:#78539d;}.cls-3{fill:#ffab2a;opacity:0.71;}.cls-4{fill:#fff;}</style></defs><title>Recurso 33</title><g id="Capa_2" data-name="Capa 2"><g id="Capa_1-2" data-name="Capa 1"><path class="cls-1" d="M137.14,62.06c-.14.6-.27,1.19-.41,1.78-.09.34-.17.67-.26,1l-.54-.08a16.27,16.27,0,0,0-3-.44l.21-.79c.16-.62.32-1.25.47-1.88h.35c.54,0,1.09,0,1.64.07l.45.08.32.06h.06l.36.09h0Z"/><path d="M207.84,196.07c-2.11-1.87-4.84-2.82-7-4.66-.42-.4-1.21-.84-1-1.52s1.76-.55,1.37.32c2.42,1.72,5.37,2.53,7.64,4.47A.88.88,0,0,1,207.84,196.07Z"/><path d="M213.9,192.91a64.46,64.46,0,0,1-6.19-2.26c-.64-.25-1.28-.48-1.91-.78-.38-.17-.93-.4-.94-.89a.57.57,0,0,1,1-.37,7.59,7.59,0,0,0,1.37.58c2.39.78,4.79,1.54,7.17,2.34A.73.73,0,0,1,213.9,192.91Z"/><path d="M210.06,215.05a.77.77,0,0,1-.28-.49c-.16-1-.31-2-.49-3s-.49-2.26-.59-3.4c-.12-1.74,0-3.46-.88-5a54.69,54.69,0,0,0-3.79-4.77.89.89,0,0,1-.24-.42.38.38,0,0,1,.71-.2.18.18,0,0,0-.05-.07c6.93,6.68,4.54,5.17,6.35,13.61a29.77,29.77,0,0,1,.42,3.11A.73.73,0,0,1,210.06,215.05Z"/><path d="M221.64,207.59a1.09,1.09,0,0,1-.73-.32c-1.22-1.14-2.29-2.43-3.45-3.63-.85-.9-1.74-1.77-2.58-2.68a.71.71,0,0,1-.27-.58.49.49,0,0,1,.88-.2c1.69,1.35,3.41,2.67,5.09,4,.63.51,1.23,1,1.82,1.6A1.05,1.05,0,0,1,221.64,207.59Z"/><path class="cls-2" d="M158.61,355.59a3,3,0,0,0,1-2.68c-2.33-2.44-6.91-1.15-10-1.11-1.34.08-2.69.13-4,.33-2.75.41-5.55.36-8.3.77-2.62.59-5.32.39-8,.73a77.51,77.51,0,0,1-11.64,1.86c-2.68.83-5.52.49-8.23,1.11-1.58.45-2.3,2.12-3.06,3.46-.56,1.06.92,1.3,1.62,1.67a9.71,9.71,0,0,0,1,.34,2,2,0,0,1,.51-.48,47.76,47.76,0,0,1,11.71-3.92c1.76-.36,3.53-.7,5.3-1,2.72-.45,5.48-.37,8.21-.71a72.35,72.35,0,0,1,9.67-.76c4.14-.27,8.29-.11,12.42-.54A1.62,1.62,0,0,1,158.61,355.59Zm84.8,44a55.75,55.75,0,0,1,.58,7.52,84.16,84.16,0,0,1-1.09,14.79c-.47,2.5-1,5-1.57,7.46-2,9.5-3.54,19.11-5.9,28.53-.86,3.8-1.4,7.66-2.24,11.47-.92,4.06-2,8.1-2.92,12.16-.83,4.24-1.69,8.47-2.78,12.64-.72,2.84-1.49,5.67-2,8.55-.19.87-.25,1.75-.38,2.63a2,2,0,0,1-1.31,1.25A87.81,87.81,0,0,1,211,509.12c-2.24.36-4.51-.06-6.75.29a46.92,46.92,0,0,1-5.65.72c-1.68-.23-1.65-2.15-1.78-3.46-.3-2.91-.16-5.86-.62-8.75a7.66,7.66,0,0,0-.43-1.71,3.61,3.61,0,0,0-1.45-.51c0,2.49-.18,5-.32,7.47.06,2.58,0,3.58-2.72,4.38-3.66,1.07-7.49,1.46-11.18,2.4-2.14.65-5.12,2.4-6.93.28C171,507,170.39,502.84,170,499l-.09-1.28c-.58,0-1.15,0-1.73,0a89.22,89.22,0,0,0-8.9,1.18,115.55,115.55,0,0,1-17.13,1.34,77.9,77.9,0,0,0-8.35.83,23.67,23.67,0,0,1-7.11.68c-.14,5.08-.66,10.44-.85,15.47,0,1,.26,2.07-.58,2.77-1.57,1.21-3.77,1.17-5.67,1.25s-3.75.77-5.63,1.16c-1.5.31-3,.55-4.54.77-3,.37-6.07.48-9.09.74-2.12-.43-2.15-3.27-2.56-5-.79-3.75-.53-7.59-1.07-11.35a14.58,14.58,0,0,0-.6-2.36,11.33,11.33,0,0,0-2.43,0c.12,4.21.24,8.11.24,12.27.32,1.81.19,3.65-2,3.91-5.16,1-10.34,2.11-15.51,2.93-3.42-.75-3.9-9-5-12-.82-4.23-1.95-8.42-2.5-12.68a3.48,3.48,0,0,1,.09-.59c-3.58-1.14-7.24-2.07-10.8-3.3-4.24-1.31-8.38-3-12.51-4.58s-8.17-3.14-12.08-5.12-8.29-3.92-11.7-7C16.69,474,11.66,468.43,8,462c-1.92-4-2.83-8.33-4.18-12.5-.54-1.81-1.21-3.59-1.65-5.43a32.09,32.09,0,0,1-.58-5.93c-.15-2.9-.4-5.79-.59-8.68-.05-1.66-.47-4.61.06-6.72a23.51,23.51,0,0,1,.54-3.45,21.92,21.92,0,0,1-1.46-6.86,41.92,41.92,0,0,1,2.14-17.36,54.12,54.12,0,0,1,5.66-12,11.61,11.61,0,0,1,12.58-4.54,14.37,14.37,0,0,1,3.74,2.15c.26.2.57.42.87.67,1.49-1.17,3-2.33,4.46-3.53a145.21,145.21,0,0,1,17.66-10.58c6.2-3.18,12.57-6.09,18.92-8.95,2.95-1.17,6-1.92,8.93-3.27,3.42-1.64,7.11-2.56,10.64-3.92a70.92,70.92,0,0,1,10.59-3.38c4.63-1.39,9.3-2.71,14-3.73,2.35-.45,4.76-.61,7.12-1s4.85-1,7.3-1.35c3.72-.61,7.47-1.05,11.22-1.39a55.2,55.2,0,0,1,7.37-.6c4,.21,7.86-.31,11.8-.28,5,.1,10.07,0,15.09.35,11.3,1,22.64,3,33.19,7.27,3.44,1.53,7.07,2.58,10.44,4.25,4.74,2.76,9.61,5.49,13.58,9.33,2.37,2.16,4.06,4.91,6,7.4a19.82,19.82,0,0,1,4,6.55c.4,1.29.66,2.62,1.07,3.91a59.67,59.67,0,0,1,3.34,10.34A94,94,0,0,1,243.41,399.59Z"/><path class="cls-3" d="M163.18,271.59c1.77,6.05.17,12.34-1.91,18.09-2.05,5.54-4.37,11.89-9.88,14.83-2.34,1.12-4.89,1.75-7.33,2.64a26.61,26.61,0,0,1-9,.77c-8.1-.44-16.05-5.39-21-11.64-3.11-4.1-4.35-9.36-4.47-14.44a20,20,0,0,1,1.76-9.7c.87-2,1.61-4.14,2.63-6.09a10.75,10.75,0,0,1,1.93-2.52,29.86,29.86,0,0,1,4.84-4.56c6.13-5.2,9.51.36,6.14,1.66.45,1.58.51,3.32,1.37,4.75a7.31,7.31,0,0,0,2.86,2.82c1.34.39,3,.71,4.18-.21,2.53-2.69.41-6.95.59-10.2.14-3.71,4.1-2.05,6.34-1.55,1.35.29,2.71.5,4.05.82a30.85,30.85,0,0,1,8.35,3.58,6.53,6.53,0,0,1,1.84,1.38c1.55,1.81,3,3.7,4.51,5.55A13,13,0,0,1,163.18,271.59Z"/><path class="cls-3" d="M476.69,280.18c1.93,4.77,1,13.7-1.34,18.23a25.13,25.13,0,0,1-5.55,6.67,23,23,0,0,1-5.57,2.84c-.82.42-1.68.75-2.53,1.1a2.08,2.08,0,0,1-2.92,0c-.89-1.1-.85-2.8-2-3.75-.3-.18-.68-.07-1-.26-3.33-1.8,1.71-6.69.85-9.27a12.12,12.12,0,0,0-1.46,1.1,1.91,1.91,0,0,1-2.34-.35c-1.27-1.5.28-3.56.08-5.3-2.4-3.41-3.42.91-5.62,1.75-2.38.93-3.4-1.92-3.77-3.74-.34-1.47-.72-2.92-1.05-4.38a34,34,0,0,1-.64-5.77,2,2,0,0,1,0-1.39,13.91,13.91,0,0,1,3.92-4.9c1.62-1.39,4.17-2,6.05-2.58a18.66,18.66,0,0,1,3.12-.84,28.24,28.24,0,0,1,12.62,1.56,16.42,16.42,0,0,1,2.91,1.52c1.56,1.14,2.53,2.85,3.73,4.33A22.36,22.36,0,0,1,476.69,280.18Z"/><path d="M191.32,88.71a7.63,7.63,0,0,1-4.54,7.63,14,14,0,0,1-4.95.58c-6.36-1-6.32-8-4.22-12.78.39-2.28-1.23-4.25-2.53-6-.44-.61-1.09-1.15-1.14-2a1.61,1.61,0,0,1,1.29-1.66c1.55-.26,2.35,1.44,3.22,2.42a10.94,10.94,0,0,1,2.27,4.8c.88,2.57-.86,4.82-.92,7.33,0,1.57.4,3.46,2.13,3.91,1.89.36,4.24.46,5.58-1.16,1.49-1.71,0-2.5.65-4.12A1.69,1.69,0,0,1,191.32,88.71Z"/><path d="M203.89,45.25A2,2,0,0,1,202,47.61c-.92,0-1.85-.22-2.78-.17-2.62.06-5.27.11-7.89.35-3.47.43-5.66,2.33-7.74,5-1,1.13-2.17,2.12-3.14,3.29a2.11,2.11,0,0,1-1.22,1.11,1.66,1.66,0,0,1-2.2.78c-2.88-1.66,2.38-8.79,3.85-10.46A20.4,20.4,0,0,1,189.4,41a11.91,11.91,0,0,1,7.14-.2,18.54,18.54,0,0,1,5.83,2.91A2,2,0,0,1,203.89,45.25Z"/><path d="M165.89,86.6a10.68,10.68,0,0,0,.15-2.88A3.08,3.08,0,0,1,165,81.43a7.92,7.92,0,0,0-3.57-.58c-1.82,0-4.77,0-5.31,2.15a6.58,6.58,0,0,0,.47,3.48,8.82,8.82,0,0,0,1.77,3,2.44,2.44,0,0,0,1.31.59,11.77,11.77,0,0,0,4.75-1.58,9.58,9.58,0,0,0,1.12-.76A2.1,2.1,0,0,0,165.89,86.6Zm3-5.27c1.12,1.88.21,4.08.07,6.11-.83,3.79-6.19,5.82-9.7,5.75a7,7,0,0,1-5.38-4.38c-1.81-3.23-2.27-8.17,1.33-10.33,2.14-1.62,5-1.61,7.51-1.41a8.18,8.18,0,0,1,3.6.89C167.47,78.7,169.06,79.78,168.89,81.33Z"/><path d="M160.75,84.48a3.61,3.61,0,0,1,3.65,4,.13.13,0,0,1,0,.06c-.46,1.66-2.23,3.17-4,2.7a3,3,0,0,1-2-1.77C157.45,87.51,158.23,84.62,160.75,84.48Z"/><path d="M203.73,70c1.61-1.48,3.56-3.2,3-5.63-.06-1.49-1.85-1.5-3-1.75-1.89-.19-3.64.72-5.22,1.65a9.3,9.3,0,0,0-3.69,3.51c.31,1.27-.15,2.71.63,3.88a1.53,1.53,0,0,0,1.53.82c.54,0,1.1-.08,1.59-.09a10.47,10.47,0,0,0,3.22-.83,8.89,8.89,0,0,0,1.41-1.12Zm3.34-9.89c2.58,1,3.34,4.1,2.79,6.58-.65,3-3.38,4.93-5.45,7-2.28,1.9-5.51,2.13-8.36,2.17-2.39-.16-4-2.39-4.33-4.62-2.08-1.57.42-5.15,1.53-6.71a10.88,10.88,0,0,1,3.43-3C199.82,59.47,203.5,58.48,207.07,60.07Z"/><path d="M201,66.54a4,4,0,0,1,2.21,3.86c-.2,1.91-2,3.48-4.78,2.8a4,4,0,0,1-1.44-.76C194.24,70.1,197,64.67,201,66.54Z"/><path d="M197.7,98.3c1.29,3.39-1.26,8.11-5.1,8-2.18-.06-3.72-1.77-5.4-2.89a1.47,1.47,0,0,1,1.55-2.35c1.51.75,2.67,2.69,4.57,2.35a3.31,3.31,0,0,0,2-2.87c-.49-1.36-1.88-3.32.1-4.13C196.8,95.93,197.56,97.19,197.7,98.3Z"/><path d="M138.51,259.59c.56,5,2.24,12.77-5.4,12.17-6.38.05-7.53-7.36-9.07-12.14-.22-2.12-1.91-5.56-.31-7.29,2.53-1.74,3.51,1.33,3.73,3.34a57.19,57.19,0,0,0,3,9.94c.46,1.79,2.13,2.45,3.84,2.36,2.34-.13.91-3.55,1-5.05a28.41,28.41,0,0,0-.68-5.75c-.71-1.69-1.58-4.45.92-5,2.27-.39,2.91,2.13,2.55,3.89A30.26,30.26,0,0,0,138.51,259.59Z"/><path d="M355.51,146.76a1.29,1.29,0,0,1-.7,1.49c-1,.75-1.89,1.54-2.81,2.36-1.29,1.17-2.5,2.41-3.76,3.62a1.62,1.62,0,1,1-2.16-2.41c1.15-1,2.34-2,3.54-3s4.81-4.67,5.9-2Z"/><path d="M241.85,198.38c1,1.49-1,3.56-1.76,4.84a29.76,29.76,0,0,1-2.88,3.74,1.72,1.72,0,0,1-2.6-2.23c.83-1.08,1.78-2,2.65-3.09.72-.84,1.43-1.7,2.11-2.57a2.75,2.75,0,0,1,1.24-1.1A1.19,1.19,0,0,1,241.85,198.38Z"/><path d="M392.91,183.74c-1.56-.41-1-2.22-.47-3.26a47.37,47.37,0,0,0,1.83-4.63,1.18,1.18,0,0,1,2.14-.75,1.92,1.92,0,0,1,.11,1.59c-.23.92-.53,1.81-.81,2.72C395.08,180.76,395,184.08,392.91,183.74Z"/><path d="M400.37,185.61c-1.17-1.11,0-2.54,1-3.3,1.3-.95,2.6-2.55,4.29-2.65a1.23,1.23,0,0,1,1.11,1.34c-.11.93-1,1.46-1.59,2.07C403.85,184,402.17,187.09,400.37,185.61Z"/><path d="M235.28,267.71c-2-1-9.32-3.83-8.9-6.44h0c.78-2.14,2.71-.57,3.9.25a34.51,34.51,0,0,0,3.07,1.62c1.09.53,2.21,1,3.26,1.62a1.75,1.75,0,0,1,.7.75A1.63,1.63,0,0,1,235.28,267.71Z"/><path d="M212,258.57a30.81,30.81,0,0,0-3.94-2.88A46.67,46.67,0,0,1,202,252l-.07-.05c-.48,1.49-1.49,3.19-1.81,4.08-1.49,3.08-3,6.17-4.29,9.35a61.85,61.85,0,0,0-2.94,9c-.92,2.92-2.5,5.58-3.35,8.53a41.7,41.7,0,0,0-1.65,5.56,12.75,12.75,0,0,1-.35,1.62l1,.65c1.64.95,3.39,1.71,5.08,2.56s3.17,1.83,4.83,2.59c.11-.4.24-.79.35-1.16.46-1.94.77-3.91,1.28-5.83,1-3.66,1.82-7.36,3.12-10.91,1-2.68,2.66-5.43,3.78-8C208.79,266.28,210,262.17,212,258.57Zm38.47-143.76c.07-.16.13-.32.2-.47-1.24.7-2.46,1.43-3.65,2.21-4.4,2.47-9,4.64-13.25,7.35,1.32.94,2.67,1.84,4,2.74a31.09,31.09,0,0,1,2.82,2c2,1.73,3.47,4.09,5.68,5.62C247.62,127.76,248.12,121,250.51,114.81Zm26.17-20.64a38.21,38.21,0,0,0-4-4.18c-1.63-1.77-3.26-3.53-4.77-5.4-2.69-3.64-5.78-7-8.39-10.66-2-2.58-3.43-5.52-5.28-8.18-1.77-2.3-3.26-4.78-4.86-7.18a30.23,30.23,0,0,1-3.06-6.06,5.86,5.86,0,0,1-.59-2.34,1.86,1.86,0,0,1,1.25-1.6,8.06,8.06,0,0,0,1-.79,9.92,9.92,0,0,0,1.75-3.44c1.11-3.19-1.05-7.54-4.69-7.52a6.09,6.09,0,0,0-2.21.55,4.87,4.87,0,0,0-2.62,1.9c-.35.58-.49,1.32-1.1,1.7a1.76,1.76,0,0,1-2.29-.28,1.91,1.91,0,0,1-1.29.16c-2.24-.79-4.54-1.42-6.79-2.19q-4-1.69-8-3.29a45.15,45.15,0,0,1-10.33-8,45.15,45.15,0,0,1-3.32-5.29c-1-1.77-2.21-3.53-2.5-5.55a2.08,2.08,0,0,1-.66.12c-1.39.29-2.79.43-4.15.8a77,77,0,0,0-9.21,3.06,56.31,56.31,0,0,0-7.27,3c-5.61,2.52-11.16,5.17-16.56,8.09-3.33,2.14-6.49,4.53-9.65,6.92a32.69,32.69,0,0,0-4.2,3.31c-2.2,2.48-5,4.36-7,7a30.17,30.17,0,0,0-3.59,6,7.72,7.72,0,0,0-.41,1.23c.63,3.64,1.43,7.24,2.35,10.8.18-.21.35-.42.49-.62,1.12-1.39,1.84-3.14,3.31-4.21,3.08-1.79,7.26-1.3,10.18.61,1.35,1,3.71,2.08,3.12,4.09a1.86,1.86,0,0,1-2.94.78c-4.3-2.05-10.54,1.21-12.45,5.45.27.9.55,1.8.83,2.7.87,2.9,1.69,5.81,2.83,8.62,1.94,4.52,4.24,8.88,6.47,13.26a28.58,28.58,0,0,0,6.57,7.75,24,24,0,0,0,4,3.15A62,62,0,0,0,175,111.8a28.82,28.82,0,0,0,11.71.75c5.81-.76,11.65-1.36,17.34-2.84a89.2,89.2,0,0,0,10.42-3.63,31.26,31.26,0,0,1,3.28-.91,2.27,2.27,0,0,1,2.77.83,57.8,57.8,0,0,0,6.29,7.67,64,64,0,0,1,5,6.4,1.88,1.88,0,0,0,.16.23c1.32-.84,2.71-1.56,4.07-2.34,2.89-1.81,6-3.27,9-4.9,1.75-1,3.48-2.12,5.3-3.06a153.93,153.93,0,0,0,13.38-7.65c1.47-.86,3-1.63,4.45-2.47C271.13,98.21,273.81,96,276.68,94.17Zm2.61,13.91a41.57,41.57,0,0,0,.07-5.58,40.11,40.11,0,0,1-.13-4.78c-2,1.18-3.82,2.54-5.76,3.76-2.39,1.51-4.91,2.79-7.37,4.18-3.23,2-6.52,3.9-9.83,5.76l-.73.37c5.62.85,10.7,3.43,16,5.38,2.55.83,5.22,1.17,7.77,2C279.19,115.55,279,111.55,279.29,108.08ZM316,508.72a46,46,0,0,1,8.81-1.11c0-2.87-1.48-5.52-1.2-8.43a93.6,93.6,0,0,1,0-9.91,51.42,51.42,0,0,0-.69-5.4c-2.84.11-5.67.5-8.52.43l-5.22-.38a10.59,10.59,0,0,1,0,1.95c-.13,6.66-3.45,9.45-7.78,13.82a20,20,0,0,1-6.21,3.71,60.47,60.47,0,0,1-5.5,2.52c-1.17.36-2.37.59-3.53.95-3.34,1.4-7.09.66-10.48,1.72,1.31,1.79,3.5,2.68,5.55,3.32,3.22.54,6.47-.05,9.65-.57,1.65-.22,3.07-.14,4.66-.39,1.1-.22,2.11-.7,3.18-1a20.16,20.16,0,0,0,5.07-1.69c2.44-1.77,5.09-3.23,7.49-5a1.68,1.68,0,0,0,.61-.84,1.82,1.82,0,0,1,2-.91C316.13,502.23,316,506.78,316,508.72Zm62.38-.32a27.85,27.85,0,0,0-.8-6.67,39.17,39.17,0,0,0-.24-5.83c-.14-2,.12-4,.1-6-.1-1.24-.1-2.48-.1-3.73a40,40,0,0,1,0-4.38c-4.37-.73-8.82-.44-13.23-.65a10.68,10.68,0,0,0-1.49,0,22,22,0,0,1,.47,4.21c-.06,2.07-.46,4.11-.64,6.18-1.51,6.24-6.65,10.87-12.12,13.81a64.37,64.37,0,0,1-8.7,4,4.77,4.77,0,0,0-2.85,2c.71,1,2,1.4,3.09,1.91a16.12,16.12,0,0,0,10.58.17,19.27,19.27,0,0,0,3.94-1.74,70.37,70.37,0,0,0,7.11-4.56c1.53-1.24,2.48-3.05,3.94-4.35s3.07,0,3.35,1.61a23.51,23.51,0,0,1,.81,5.07A21.32,21.32,0,0,1,378.4,508.4Zm53.7-302.13-.39-2.53c-1.27-8.16-3.18-16.21-5.2-24.21-1.68-7.11-3.53-14.18-5.7-21.15-1-3.38-2.07-6.74-3.38-10a155.39,155.39,0,0,0-8.51-15.63c-3.51-6.2-6.37-12.76-10.51-18.58-3.34-5.13-7.51-9.74-11.16-14.62-2.54-3.53-5.89-6.26-9.24-9-2-1.73-4-3.55-6.08-5.17a53.65,53.65,0,0,0-5.62-3.3c-2.1-1.17-4.07-2.56-6.27-3.55A39.07,39.07,0,0,0,353.36,77c-7.93-2.15-16.18-1.06-23.84,1.55a94.86,94.86,0,0,1-11.23,3.13c-5.32,1.7-10.75,3.12-15.86,5.39a56.25,56.25,0,0,0-5.72,2.41c-.85.54-1.67,1.14-2.53,1.66-2.66,1.61-5.77,2.18-8.64,3.28-.92.55-1.73,1.29-2.69,1.8a14.28,14.28,0,0,1-.14,2.61c0,3.56.31,7.11-.12,10.67-.13,2.15-.16,4.31-.12,6.46-.16,1.79.73,6-1.4,6.67-.95.23-1.76-.49-2.72-.54-3.2-.66-6.48-1-9.54-2.3-4.88-1.82-9.66-4-14.87-4.75-1.48,3.13-2,6.58-2.66,9.94-.51,2.43-1,4.88-1.42,7.32-.25,1.35-.5,2.69-.65,4a1.75,1.75,0,0,1-2.71,1.62,21,21,0,0,1-3.5-2.31c-1.71-1.48-3-3.37-4.67-4.88-2-1.54-4.26-2.81-6.22-4.4a19.46,19.46,0,0,0-2.11,1.13c-3.07,1.75-6,3.76-9,5.62A25.17,25.17,0,0,0,214.8,138c-1,.95-2.14,1.85-3.17,2.82-1.29,1.29-2.32,2.81-3.53,4.17s-2.63,2.72-3.82,4.2-1.74,3.21-2.65,4.79c-.69,1.27-1.39,2.52-2,3.84a33.25,33.25,0,0,0-2.31,11,33.87,33.87,0,0,0-.35,5.78c0,3.41-.51,6.82-.08,10.23.55,3.7,1.19,7.4,2,11.05,1.48,4.71,3.19,9.36,4.66,14.08,1.61,4.92,3.41,9.77,5,14.69,1.35,4.58,2.84,9.12,4.52,13.6,1.28,3.82,3,7.11,4.55,10.75,1,2.45,2,4.92,3,7.38.7,1.81,1.61,3.54,2.43,5.29a1.21,1.21,0,0,1,.05.18,1.8,1.8,0,0,1,.73.91c.23,1.87,1.07,3.7.95,5.6a1.47,1.47,0,0,1-2.68.64,13.24,13.24,0,0,1-1.44-4.71,1.81,1.81,0,0,1-.89-.11,11.14,11.14,0,0,1-2.29-1.77c-.87-.63-1.81-1.16-2.72-1.72-.07.14-.13.29-.19.44-2.31,5.28-4.34,10.69-7.06,15.78-1.92,4.08-2.93,8.52-4.1,12.87-.51,1.91-.86,3.86-1.29,5.79-.13.51-.23,1.12-.4,1.67h0q.85.32,1.71.69c1.43.65,2.74,1.54,4.18,2.18a65.9,65.9,0,0,0,11.73,3.42,31.87,31.87,0,0,0,15.22.42,23.18,23.18,0,0,0,7.92-2.7,30.64,30.64,0,0,0,8.8-6.16,24.91,24.91,0,0,0,4.15-6.05,26.21,26.21,0,0,0,3.48-7.13c1-3.87,1.71-7.83,2.55-11.75a55.37,55.37,0,0,0,1.35-9.05c.57-5.38.15-10.78.42-16.17.05-3.06-.54-6.09-.54-9.15,0-1.94.15-3.87,0-5.81-.09-2.69-.84-5.54.1-8.14-2.6-3.64-5-7.4-7.67-11A113.73,113.73,0,0,1,246,198.15c-1.45-2.55-2.82-5.14-4.41-7.6-.18-.32-.36-.62-.55-.93.06,1.48-2.12,2-3.21,2.72-1.36.58-3.67,2-4.6.16-.74-1.92,1.67-2.41,3-2.92,1.3-.35,2.81-1.79,4-1.27a27.42,27.42,0,0,0-2.92-3.46,6.67,6.67,0,0,1-1.18-1.52,2.14,2.14,0,0,1,1.13-3c2.39-.68,3.85,2.32,5.34,3.7,2.19,2.42,3.81,5.79,5.48,8.45a97.88,97.88,0,0,0,7.52,11.39A84.67,84.67,0,0,1,262,212.4c2,2.8,3.8,5.71,5.83,8.47,3.17,4,6.29,7.94,9.06,12.23,2.78,4.46,5.35,9.07,8.62,13.2a7.2,7.2,0,0,0,.52.6l.45-.12c2.16-.53,4.31-1.1,6.43-1.81,2.28-.85,4.48-1.93,6.8-2.7s4.63-1.2,6.92-1.87,4.24-1.73,6.4-2.51,4.5-1.14,6.7-1.9c1.38-.55,2.77-1.09,4.17-1.57a2.65,2.65,0,0,1-.31-1.07c-2.07-3.16-4.2-6.33-6.22-9.54-3.78-6.43-6.55-13.5-11-19.49-2.25-3.35-4.56-6.65-6.68-10.08a76.25,76.25,0,0,0-8.05-11.47,57.7,57.7,0,0,1-6.69-9.92c-1.57-2.63-3.19-4.71-4.79-7.21a192.07,192.07,0,0,1-9.94-17.86c-1.95-3.93-4.33-7.62-6.3-11.54-.87-1.73-1.67-3.49-2.55-5.21-1.79-3.34-3.33-6.81-5.43-10-.89-1.54-2.82-3.12-2.22-5a.87.87,0,0,1,1.18-.69c1.32.3,2.06,1.91,2.79,2.85.9,1.3,1.74,2.55,2.54,3.91,2.43,4.35,4.5,8.54,6.66,13,2.46,4.6,5.24,9,7.54,13.73a141,141,0,0,0,10.82,18.48c2.27,3.09,3.9,6.57,6,9.74,2.33,3.23,4.9,6.28,7.21,9.53s4.21,7,6.58,10.36c2.95,4.52,6.13,8.9,8.65,13.68,1.94,3.54,3.53,7.27,5.57,10.77,2,3.26,4.09,6.51,6.3,9.64a4.28,4.28,0,0,1,1.3,2.55c.75-.17,1.5-.32,2.26-.43,3.74-1,7.45-2,11.26-2.65,4.22-1.1,8.4-2.32,12.7-3.05,2.23-.49,4.42-1.18,6.68-1.57,3.86-.52,7.67-1.24,11.48-2.07a57.08,57.08,0,0,0,7.33-1.4,18.15,18.15,0,0,1,5.14-.51c.39,0,.8,0,1.21,0-.08-.33-.16-.65-.25-1-1-3.75-1.86-7.54-2.67-11.33a192.83,192.83,0,0,0-5.61-19.06,31.71,31.71,0,0,0-1.93-5.47,34.28,34.28,0,0,1-1.85-5.42,53.07,53.07,0,0,1-3.77-12.08c-1.2-2.41-2.32-4.85-3.44-7.29-1.69-3-3.43-5.91-5.05-8.91-1.21-2.11-2.7-4-4-6.08S354.17,141.1,353,139c-.78.4-1.81.48-2.59.79-1.5.33-4,1.63-4.74-.47-.49-2.21,2.41-2.34,3.9-2.78.56-.09,1.15-.26,1.74-.37-.2-.31-.41-.62-.63-.92-1-1.64-3.63-3.6-1.16-5.1,2.86-1.58,7.65,8.88,8.88,11,1.56,3.12,3.8,5.8,5.55,8.8,1.42,2.54,2.83,5.09,4.33,7.59s2.51,5.43,3.87,8.09c1.95,3.63,3.73,7.36,5.81,10.92a89.59,89.59,0,0,1,5.61,10.61c2.75,7,6.49,13.38,9.72,20.09a122.12,122.12,0,0,1,4.65,12l.41-.16c1.33-.55,2.68-1.06,4-1.62,4.45-2.09,9.09-3.76,13.41-6.13a77.76,77.76,0,0,1,11.37-3.59,34.26,34.26,0,0,0,3.95-1.15A3.58,3.58,0,0,1,432.1,206.27Zm2.39,19,.25-.11q-1-7.69-2.11-15.35c-.83.35-1.79.57-2.44.82-2.39.65-4.79,1.21-7.15,2a37.56,37.56,0,0,0-8.56,3.37c-3,1.46-6.2,2.52-9.2,4-2.06,1-4.22,1.68-6.3,2.57.21.73.41,1.46.61,2.2q1.7,5.83,3.29,11.68a.91.91,0,0,1,.54,0c4.17-1.71,8.52-2.9,12.62-4.76,1.38-.54,2.79-1,4.22-1.39C425.1,228.83,429.75,226.89,434.49,225.23ZM456,308.67a4,4,0,0,0,.89-2.78c-.46-.18-.93.22-1.34.38-1.15.61-2.25,1.31-3.37,2a6,6,0,0,1-2.5,1,1.74,1.74,0,0,1-1.44-2.71,7,7,0,0,1,1.24-1.42c1.51-1.52,2.95-3.14,4.35-4.75h0c1-1.22,2.15-2.57,2.06-4.24-2.53.89-4.12,3.28-5.87,5.19a3.28,3.28,0,0,1-2.25,1.39,1.72,1.72,0,0,1-1.66-2,5.84,5.84,0,0,1,1.54-2.76q1.51-2,2.94-4a5.88,5.88,0,0,0,1.09-3.17,4.87,4.87,0,0,0-3.39,2.6c-1.21,1.53-3,4-5.15,3.79a1.59,1.59,0,0,1-.39-.1h0a1.93,1.93,0,0,1-1.39-1.1,10.19,10.19,0,0,1-.41-3.61c-.06-1.12-.15-2.23-.24-3.34-.37-4.64-.87-9.27-1.16-13.92-.49-7-1.38-13.89-1.81-20.85q-1-12.81-2.58-25.57c-3.29,1.17-6.56,2.42-9.86,3.57s-7,2-10.27,3.57c-3,1.29-6.21,2.12-9.25,3.35-.63.21-1.3.53-2,.77.74,2.81,1.46,5.63,2.13,8.47,1.11,3.82,2.31,7.61,3.18,11.5,1.4,5.93,3.34,11.72,5,17.59,1.7,5.66,3.05,11.42,4.86,17.05,1.54,5.94,3.22,12.15,5.83,17.66a56.37,56.37,0,0,0,5.58,8.83,1.68,1.68,0,0,1,1.41.17c1.15.72,1.37,2.19,2.29,3.13a7.31,7.31,0,0,0,5.2.32,36.09,36.09,0,0,0,4.69-2.36,33.64,33.64,0,0,0,7.55-8C453.12,312.24,454.63,310.72,456,308.67Zm.35-6.28c4.07-.24,5.14,3.94,3.58,7.06-1.29,2.63-3.38,4.75-5.13,7.08-3,4.32-6.68,8.51-11.57,10.69-2.54,1.46-5.49,2.35-8.38,1.45a5.91,5.91,0,0,1-4-2.05,1.78,1.78,0,0,1-1.34-.55,60.14,60.14,0,0,1-8.18-12.74c-2.72-6-4.43-12.41-6.16-18.78-1.62-4.64-2.56-9.48-4-14.16-2.29-7.71-4.65-15.4-6.48-23.24-1.87-5.87-3.3-11.86-4.82-17.83-2.88-10-5.31-20.27-9.64-29.83-2.39-5-5.06-10-7.55-15-1.4-2.87-2.47-5.89-3.87-8.75.74,2.1,1.49,4.2,2.33,6.26a86.69,86.69,0,0,1,2.4,8.8c1.09,3.76,2.16,7.66,2.89,11.46.67,3.11,1.4,6.19,2.16,9.27.2,1.22,1,2.72,0,3.77h0a1.4,1.4,0,0,1-.58.38,32.07,32.07,0,0,1,1.3,5,69.57,69.57,0,0,1,1.2,6.9c.53,7.51.63,15.08.53,22.58-.09,5.12-.57,10.23-.57,15.36.09,6.3-.44,12.59-.57,18.88.05,13.12-1,26.23-1.47,39.33-.47,8.15-1,16.3-1.05,24.47-.07,3.85-.33,7.7-.38,11.56,0,3.31.3,6.62.41,9.93.14,7.43.07,14.88.22,22.31-.08,15.88-1.73,31.7-2.57,47.54-.39,6.63-.49,13.27-.73,19.9-.24,3.21-.17,6.45-.59,9.65-.12,1.49-.31,3.55-2.31,3.45l-.39-.08c-.06,2.14-.11,4.28,0,6.43s-.2,4.39-.09,6.59a47.46,47.46,0,0,1,.17,5.33,48.68,48.68,0,0,1,.64,6.71c.25,1.89-.87,4.2-3,4.15-2.39.37-4.88.28-7.1,1.38a2.12,2.12,0,0,1-3.24-1.58,34,34,0,0,0-.68-4.81c-2.17,3.48-6.11,5.08-9.45,7.19a21.41,21.41,0,0,1-12.75,3.48,11.23,11.23,0,0,1-4.43-.85,14.32,14.32,0,0,1-4-2,3.73,3.73,0,0,1-.72-5.69c1.72-2.17,4.41-2.81,6.83-3.87a43.7,43.7,0,0,0,10-5.65,17.08,17.08,0,0,0,5.64-8.44c.16-2.68,1-5.33.52-8a5.9,5.9,0,0,1-.06-1.63c-1.59-.09-2.93-.57-3.07-2.23a15.33,15.33,0,0,0,.06-3.83c-.39-7.49-.28-15-.4-22.51-.38-8.79-.34-17.59-.56-26.38-.2-4.26-.54-8.52-.78-12.77-.47-6.43-1.61-12.8-1.45-19.26s-.8-13-.44-19.57c.29-14.76-.17-29.53-.47-44.29-.19-8.75.13-17.5-.05-26.26a59.56,59.56,0,0,0-1.12-14.41,29.28,29.28,0,0,0-1.54-6.06,14.09,14.09,0,0,0-5.47-5.2,20.78,20.78,0,0,1-2-.67,9.3,9.3,0,0,0-2.21,1.34c-2.44,2.5-2.92,6.08-3.51,9.37-2.35,14.17-2.88,28.57-4.2,42.86-.77,6.77-1.21,13.56-1.73,20.35-.77,6.33-1.77,12.63-2,19-.76,8.86-.29,17.73-.19,26.61a106,106,0,0,0,.21,11c.39,4.33.32,8.67.59,13,.86,8.61,1.1,17.25,1.16,25.9.16,6.3.64,12.6.07,18.89-.25,4.18-.29,8.36-.58,12.53-.24,1.83.57,4.61-2,4.65a2.26,2.26,0,0,1-.83-.25,3.29,3.29,0,0,1,.07.57,36.39,36.39,0,0,1,.34,7.07,56.94,56.94,0,0,0-.14,7.39c-.3,3.67,1.44,7.15,1,10.81-.12,1.88-2.31,1.74-3.7,1.84a24.9,24.9,0,0,0-5.81.94,33.43,33.43,0,0,1-3.59.54c-2.91-.4-2-4.35-2.33-6.43-2.35,1.64-4.67,3.33-7.11,4.82a24.78,24.78,0,0,1-6.25,2.28,25.15,25.15,0,0,1-7.8,1.73,29.29,29.29,0,0,1-9.5.88,13.67,13.67,0,0,1-8.15-4c-2.12-2.26-1.69-5.33,1.45-6.25a20.33,20.33,0,0,1,5.31-.87,29.14,29.14,0,0,0,6.14-1.42,18.65,18.65,0,0,0,5.74-2.33c1.91-.95,3.49-1.52,5.21-2.58a37.38,37.38,0,0,0,4.39-4.15,12.17,12.17,0,0,0,3.55-6.16,29.38,29.38,0,0,0,.41-4.07c-.94-.06-1.91-.06-2.84-.2a2.05,2.05,0,0,1-1.59-2.57c-1-3.94-1.08-8-1.23-12.07-.29-6.4-1.24-12.75-1.45-19.16-.75-9.9-2.54-19.83-3.52-29.68a180.63,180.63,0,0,1-2.23-22.15c-.46-7.46-.3-14.94-.78-22.41-.33-4.83-.75-9.65-.87-14.5,0-7.53-1.47-14.94-1.75-22.45-.51-7.19-.88-14.47-.77-21.57.07-4.81-.45-9.61-.55-14.42-.4-8.74.8-17.47.1-26.2-.41-5.31-.45-10.63-.71-15.95-.18-2.6-.7-5.16-.93-7.76a20,20,0,0,1-.12-2.19,2.13,2.13,0,0,1-3.07.25c-5.13-6.08-8.49-13.46-13.45-19.7-1-1.35-2.12-2.66-3.2-4a66.08,66.08,0,0,1,.22,8c0,2.71.36,5.4.46,8.1-.18,6.31,0,12.65-.59,18.94-.67,7.35-2.47,14.56-4.27,21.71-.73,2.79-2.43,5.14-3.88,7.59a28.12,28.12,0,0,1-4.52,6.55,35.73,35.73,0,0,1-11.16,7.74A37.2,37.2,0,0,1,224.92,309c-2.73-.19-5.35-1.08-8-1.46-3.48-.56-6.77-1.92-10.12-3-2.73-1.05-5.13-2.83-8-3.64a62.23,62.23,0,0,1-7.18-3.56c-1.53-.78-3.09-1.49-4.6-2.3-4.26-2.56-8.69-5.66-12.7-8.52-2.22-1.71-4.36-3.55-6.56-5.31a67.05,67.05,0,0,1-6.68-6.16,2.3,2.3,0,1,1,3.06-3.32,51.25,51.25,0,0,0,7.19,6.7,98.41,98.41,0,0,0,11.13,8.27c.72.46,1.43.93,2.14,1.4.17-.82.36-1.65.55-2.47a71.09,71.09,0,0,1,3.76-10.45c1.2-3.23,1.74-6.68,3.15-9.84a125.71,125.71,0,0,1,5.59-11.86c.5-1,1-2,1.45-3,0-.08.07-.15.1-.22-1.05-.55-2.15-1-3.22-1.55-2.36-1.07-4.45-2.64-6.81-3.7-3-1.08-5.92-2.28-9-3.2a50.36,50.36,0,0,1-6.37-1.95c-6.48-2.26-13.39-2.94-20.07-4.42a59.19,59.19,0,0,0-19.29.73c-2.51.65-4.63,2.18-6.9,3.35a14.7,14.7,0,0,0-4.38,4.08,20,20,0,0,0-2.31,2.88c-1.35,2.42-1.45,5.3-1.63,8,0,1.3.16,2.59.29,3.88a2.57,2.57,0,0,1-.57,2.18,2.09,2.09,0,0,1-3.52-.79,10.66,10.66,0,0,1-.24-2.11c-.46-4.31-.21-8.89,1.72-12.83a16.34,16.34,0,0,1,3-4,22.16,22.16,0,0,1,3.81-3.81,38.07,38.07,0,0,1,9.29-4.74,51.26,51.26,0,0,1,15.71-1.42,49.52,49.52,0,0,1,10.44,1.35c5,1,10,1.68,14.83,3.19a63.74,63.74,0,0,0,8.87,2.77c2.78.93,5.57,1.87,8.27,3,2.37,1.08,4.51,2.6,6.9,3.67a44.71,44.71,0,0,1,8.33,4.78,46.38,46.38,0,0,1,9,5.8,19.91,19.91,0,0,0,1.67,1.17c-.53-1.26-1-2.52-1.54-3.79-2.84-6.14-6-12.15-8.11-18.62s-4.33-13-6.63-19.54c-1.1-3.21-2.12-6.45-3.18-9.68a94.29,94.29,0,0,1-2.93-9.57c-.64-3.37-1.33-6.75-1.74-10.17a53.92,53.92,0,0,1,.1-9.84A62.23,62.23,0,0,1,194,162.44a43.41,43.41,0,0,1,4.6-11.68,24.41,24.41,0,0,1,2.61-4.4c2.18-2.68,4.58-5.17,6.8-7.81,2.47-2.36,4.87-4.84,7.5-7,4.19-2.77,8.42-5.49,12.8-8l.67-.39c-1.21-1.51-2.24-3.16-3.45-4.66a49.65,49.65,0,0,0-3.7-4c-1.6-1.9-2.78-3.45-4.2-5.34-2.58.65-4.93,1.94-7.45,2.75a92.09,92.09,0,0,1-15,3.32c-3.48.43-6.95.84-10.44,1.16a30.56,30.56,0,0,1-10.42-1.08,50.11,50.11,0,0,1-9.92-3.82,27.83,27.83,0,0,1-4.18-3.32,32.24,32.24,0,0,1-7.23-7.83c-1.77-2.95-3.11-6.14-4.79-9.14a72.32,72.32,0,0,1-5.66-14.58c-.44-1.42-.88-2.85-1.31-4.27a2.2,2.2,0,0,1-.26.15c-1.18.53-2.4,0-3.5-.5a6.64,6.64,0,0,1-3.87-4.12c-3,6.62-7.75,2.67-9.42-2.33a18.26,18.26,0,0,1-.28-5.9,4.27,4.27,0,0,1-6.35.11A7.42,7.42,0,0,1,116.34,56c-.57-3.51,1-6.83,2-10.14A13.25,13.25,0,0,1,122,40.55c1.78-1.75,3.4-3.66,5.29-5.3a43.22,43.22,0,0,1,4.07-2.93h0a2.61,2.61,0,0,1,.83-1c1.81-1.51,3.59-2.77,5.43-4.19a37.13,37.13,0,0,1,8-4.87c4.1-2.11,8.18-4.29,12.35-6.27a112.41,112.41,0,0,1,12.31-5.3c4.39-1.17,8.73-2.49,13-4s8.58-3,13-4.25C200.64,1,205.2-.23,209.82,0a18,18,0,0,1,7.35,1.17c2.29.77,4.72,1.74,6.24,3.7,2.83.23,5.91.51,8.29,2.2a54.33,54.33,0,0,1,6.1,6.13,48.44,48.44,0,0,1,3.06,5.4c1.52,3.54,6.6,7.66,3.12,11.52a13,13,0,0,1,1,2.73,9.26,9.26,0,0,1,3.66.9,10,10,0,0,1,4.94,7.38,12.63,12.63,0,0,1-.82,5,15.75,15.75,0,0,1-2.53,4.39l-.18.29a7.76,7.76,0,0,0,.47,1,91.73,91.73,0,0,0,6.8,11c1.86,2.67,3.36,5.55,5.13,8.27s3.84,5.11,5.72,7.73a82.64,82.64,0,0,0,7.66,9.43c1.1,1.08,2.2,2.15,3.22,3.31a11,11,0,0,1,1,1.15h0a15.54,15.54,0,0,0,1.72-1.25,7,7,0,0,1,3.58-1.91c1.69-.55,3.39-1,5.05-1.7,1.86-.74,3.35-2.11,5.15-3,1.31-.65,2.72-1.1,4.07-1.64a71.42,71.42,0,0,1,9.48-3.51c4.35-1.35,8.9-2.76,13.31-3.74,5.52-1.7,11-3.68,16.78-4.37a38.56,38.56,0,0,1,14,.69c3.35.75,6.85,1.14,9.93,2.76,1.51.76,2.92,1.71,4.37,2.57,2,1.16,4,2.13,5.92,3.38,2.84,1.94,5.26,4.44,7.92,6.62,1.79,1.48,3.66,2.87,5.35,4.48,3,2.87,5.16,6.4,7.81,9.54a119.57,119.57,0,0,1,10.61,14.61c2.43,4.1,4.45,8.41,6.71,12.6,3.52,6.16,7.3,12.23,10,18.83,2.44,6.64,4.35,13.48,6.3,20.28,2.3,9.14,4.71,18.27,6.54,27.53,2.34,12,3.79,24.1,5.29,36.21v-.07c1.84,14.26,2.51,28.64,3.8,43,.46,5.68.86,11.48,1.5,17.14a13.91,13.91,0,0,1,2.1-2.6c1.49-1.19,5.06-2.64,6.68-1.12,1.38,1.37,1.19,3.54.63,5.25,2.87-1.07,4.81.69,4.49,3.65A10.26,10.26,0,0,1,456.38,302.39Z"/><path d="M21.51,435c-4.22-.77-3.35-6.56-2.59-9.61.42-1.71,1.3-4.76,3.59-3.22,2.3.31,2.13,3.35,2.27,5.12s.28,3.83-.55,5.57A3,3,0,0,1,21.51,435Z"/><path d="M38.26,435.75c-4.25-.63-3.88-6.82-2.87-9.91.47-1.63,1.2-3.59,3-4.14a2.49,2.49,0,0,1,2.79,1.12,3.69,3.69,0,0,1,1.43,2.86C42.89,428.72,42.37,435.71,38.26,435.75Z"/><path d="M30.12,447.29a43.46,43.46,0,0,1-9.49-1.43,15.7,15.7,0,0,1-7.31-3c-7.71-5.72-7.87-17.61-2.79-25.15a22.65,22.65,0,0,1,5.67-5.88c7.34-2.69,15.5-1.46,23.15-.76,6,.34,13.39,2.5,15.63,8.77,1.34,2.85,2.89,5.66,2.87,8.9,1.34,7.47-3.45,12.11-8.91,16.26C43.27,448.48,36.36,446.5,30.12,447.29Zm5.2-3.92c4,.21,7.72.71,11.37-.88,3.53-2.68,7.59-5.69,7.92-10.48a16,16,0,0,0-2-8.92c-1.17-2.73-2.7-5.34-5.66-6.41-5.17-2.41-11.21-1.95-16.79-2.57-1.27-.06-2.53-.22-3.81-.23-1.71,0-3.6.72-5.23,0-3.06,0-5.18,2.26-7,4.47a17.8,17.8,0,0,0-2.63,16.57c1.7,4.7,6.33,7.11,11.06,7.67C26.73,443.81,31,443.56,35.32,443.37Z"/><path d="M76.88,406.86c-2.1-1.64.5-4.39,2.37-2.72C81,405.61,78.57,408.36,76.88,406.86Z"/><path d="M76.69,406.58c-1.83-2,1.37-3.54,2.71-4.62,1.22-.73,2.36-2,3.84-2a1.67,1.67,0,0,1,1.29,2.57,2.17,2.17,0,0,1-.91.76c-.88.53-1.73,1.12-2.57,1.71C79.75,405.72,78.27,407.84,76.69,406.58Z"/><path d="M16.57,408.87a28.53,28.53,0,0,1-2.84-1.5,1.91,1.91,0,0,1,.43-3.7,4.44,4.44,0,0,1,2.68,1.13c.74.52,1.67,1.12,1.88,2.06A1.75,1.75,0,0,1,16.57,408.87Z"/><path d="M3.31,414c-2.3-.67-.48-3.76-.06-5.25a46.08,46.08,0,0,1,2.14-5.07,32.15,32.15,0,0,1,2.91-5A72.47,72.47,0,0,1,14,389.74a15.31,15.31,0,0,1,3.44-3.33c1.63-1.29,2.69-2.63,4.21-3.93a2.08,2.08,0,0,1,1.75-.64,1.51,1.51,0,0,1,1,2.3c-1.67,1.67-3.23,3.45-5,5a23,23,0,0,0-4.88,5.71c-1.2,1.88-2.27,3.83-3.44,5.72a49.54,49.54,0,0,0-4,7.13c-.56,1.37-1.07,2.77-1.55,4.16C5.08,412.85,4.63,414.27,3.31,414Z"/><path d="M112.05,402.89c-7.45-.41-14-4.51-20.81-7.07a37.66,37.66,0,0,1-9.57-5.72c-1.57-1.55-5.13-5-2.27-6.86-.7-1.91,2.64-3.42,3.93-4.3a21,21,0,0,1,4.12-1.73c2.8-.92,5.56-2,8.18-2.71a26.59,26.59,0,0,1,5.92-1.2,29.27,29.27,0,0,1,5.75.71c2,1.07,3.11,3.25,4.45,5,1.81,2.51,2.63,5.55,3.47,8.49.62,2.37,1.46,4.68,2,7.07a21.81,21.81,0,0,1,.47,5.64C117.8,403.17,114.17,403,112.05,402.89Zm2.09-3.57c-.15-4.13-1.88-7.92-2.88-11.88a23.53,23.53,0,0,0-5.54-10.24,13.4,13.4,0,0,0-4.76-.33,64.61,64.61,0,0,0-9.44,2.67c-1.68.59-3.4,1-5.06,1.69A29.73,29.73,0,0,0,81.78,384a12.75,12.75,0,0,0,4.91,4.81c2.91,2.37,6.55,3.35,9.88,4.95C102.24,396.05,107.88,399.14,114.14,399.32Z"/><path d="M111.29,364.53c-2.9.18-7.17-1.21-7.06-4.7.16-1.42.74-3.14,2.11-3.8s3.22,1.28,1.51,2.16a4.65,4.65,0,0,0-.59,1.88,3.52,3.52,0,0,0,1.1.69,2.22,2.22,0,0,1,2.24-1.69c1-.16,2.07-.34,3.1-.51,3.59-.63,7.17-1.28,10.79-1.67,1.81-.32,3.63-.42,5.46-.57,2.33-.4,4.61-1.08,7-1.28,1.93-.24,3.63-.83,5.54-1.09,1.66-.22,3.35-.3,5-.53,4.24-.43,8.72-1.62,12.79,0,1.92.67,2.53,3,.6,4.13a27.91,27.91,0,0,1-4.8,1.61c-2.87.49-5.79.62-8.63,1.36-2.7.44-5.43.73-8.12,1.27-4.44.44-8.89.85-13.33,1.33C120.89,363.49,116.34,364.78,111.29,364.53Z"/><path d="M107.66,363.17a1.74,1.74,0,1,1,2.12-2.67,1.56,1.56,0,0,1-.71,2.76A1.82,1.82,0,0,1,107.66,363.17Z"/><path d="M161.79,357.2c-2.84-.78,0-4-3.14-5.58-3.4-1.8-9.76-.81-13.61-.56a36.17,36.17,0,0,1-6.64.88c-2,.19-3.89.56-5.9.7a38.13,38.13,0,0,0-7.8,1.2c-2.73.46-5.42,1.12-8.15,1.62-1.06.2-2.14.37-3.19.64a1.6,1.6,0,0,1-1.3-.12,1.16,1.16,0,0,1,.34-2.09c2-.65,4.07-.92,6.11-1.39,2.89-.54,5.76-1.17,8.59-2,2.62-.59,5.32-.62,8-1,2.94-.47,5.92-.68,8.81-1.39,2.39-.46,4.83-.48,7.25-.71,3.47-.2,7.28-.38,10.26,1.67a5.75,5.75,0,0,1,2.35,3.3C164.37,354.1,164.38,357.51,161.79,357.2Z"/><path d="M93.81,502.18c-6.07-.47-12.21-.07-18.21-1.24-.76-.14-1.51-.3-2.27-.47s-2-.33-2.38-1.28a1.6,1.6,0,0,1,1.47-2.2c.73,0,1.45.26,2.18.33,5.86.95,11.79.94,17.7,1.15,1,.09,2.06-.15,2.8.59A1.84,1.84,0,0,1,93.81,502.18Z"/><path d="M174,498.1a1.68,1.68,0,0,1-.44-3.28c4.56-.57,9.14-1,13.7-1.54,1.51-.17,3-.33,4.54-.46a1.72,1.72,0,1,1,.47,3.41c-1.5.23-3,.3-4.54.49-2.91.47-5.85.69-8.8.95C177.26,497.78,175.62,498.13,174,498.1Z"/><path d="M223.72,397.3a2.1,2.1,0,0,1,.8-3.13,8.18,8.18,0,0,0,2.23-6.16,8.9,8.9,0,0,1-7.32.19,6,6,0,0,1-2.24-8.1c2.64-4.66,8.94-2.41,11.29,1.38,2.47-2.5,3.21-5,1.61-8.27a5.65,5.65,0,0,0-1.37-1.74,1.9,1.9,0,0,1-1.2-1.68,1.71,1.71,0,0,1,1.21-1.64c3.11-.58,5.59,4.54,5.76,7.13.61,4.84-1.81,6.78-4.6,10.16a13.91,13.91,0,0,1,.14,5.85C229.47,393.52,226.65,400.15,223.72,397.3Zm-.43-11.81a4.49,4.49,0,0,0,2.67-1c-.46-1.93-2.92-4.08-5-3.52-1.09.31-1.28,1.69-1.23,2.67C220.21,385.39,221.68,385.66,223.29,385.49Z"/><path d="M114.69,294.26A8.18,8.18,0,0,1,114,291a27.48,27.48,0,0,1,.81-12c2-6.23,5.32-12.46,10.65-16.44a1.17,1.17,0,0,1,1.48.45c.71,1.36-1.11,2.2-1.82,3.11a28.3,28.3,0,0,0-5.3,7.46,26.09,26.09,0,0,0-3.17,18.19,10.47,10.47,0,0,1,.22,1.93A1.17,1.17,0,0,1,114.69,294.26Z"/><path d="M157.92,269.72a2.24,2.24,0,0,1-1.32-.75c-.76-.76-1.58-1.46-2.36-2.19a27.61,27.61,0,0,0-8-3.77c-1.89-.1-3.73-.75-5.63-.58-.68,0-1.26.5-1.94.37a1.33,1.33,0,0,1-1-1.57c.74-2.19,5.21-1.34,7-1.06a15.18,15.18,0,0,1,6.17,1.75,22.94,22.94,0,0,1,6.23,3.83c.79.84,2,1.53,2.17,2.77A1.16,1.16,0,0,1,157.92,269.72Z"/><path d="M121.84,264.4c-1.07-.38-3.67-1.39-2.73-2.88.54-.77,1.47-.37,2.11,0a4.08,4.08,0,0,1,1.73,1.3A1,1,0,0,1,121.84,264.4Z"/><path d="M117.84,269.79a7.9,7.9,0,0,1-2.26-1,1.15,1.15,0,1,1,.94-2.1,5.89,5.89,0,0,1,2.2,1.39A1,1,0,0,1,117.84,269.79Z"/><path d="M113.22,275.63c-2.51-.43-1.84-3.21.64-2.27.77.16,1.93.55,1.72,1.56S114,275.78,113.22,275.63Z"/><path d="M111.64,282.54c-.57-.06-1.27.06-1.68-.45a1.09,1.09,0,0,1-.24-.78c.28-1.58,2.52-1.2,3.49-.51a1,1,0,0,1-.39,1.73A5.82,5.82,0,0,1,111.64,282.54Z"/><path d="M142,259.58a3.15,3.15,0,0,1,0-2.87,1.08,1.08,0,0,1,1.63.06c.53.7.44,3.2-.65,3.35A1,1,0,0,1,142,259.58Z"/><path d="M150,261.31c-1.62-.21-1.15-3.07.42-2.91a1.19,1.19,0,0,1,.84,1.85C151.06,260.82,150.65,261.38,150,261.31Z"/><path d="M135.75,299.75c-3.17-.14-6-1.95-8.39-3.93-2.28-1.58-3.56-4.11-4.72-6.56-1.51-4.51-.36-9.59,1.66-13.75,1.15-2.47,3.12-5.25,5.92-5.86a1.2,1.2,0,0,1,1.15.68c.31.67-.12,1.71-.94,1.63-4.29,2.75-6.3,9.94-5.73,14.8.23,2.11,1.52,3.91,2.62,5.67a20.52,20.52,0,0,0,6.17,4.38,14.79,14.79,0,0,0,7,.36c1.7-.61,3.5-.93,5.15-1.66a19.26,19.26,0,0,0,8.37-12c.41-1.75-.29-3.39-.9-5a19,19,0,0,0-1.39-3,12.78,12.78,0,0,0-4.3-3.07,31.07,31.07,0,0,0-6.62-2.16,11.7,11.7,0,0,0-2.51-.08c-1.1.17-2.72.13-2.79-1.32,0-1.61,1.74-1.56,2.91-1.57,4.06-.2,8,1.41,11.6,3.17a15.54,15.54,0,0,1,4,3.22,18.76,18.76,0,0,1,2.06,4.59c1.55,3.33.61,7.1-1.11,10.17a27.13,27.13,0,0,1-3.87,5.66c-1.16,1.23-2.61,2.13-3.88,3.24-1.44.93-3.2,1.13-4.79,1.72A15.27,15.27,0,0,1,135.75,299.75Z"/><path d="M471.39,301.55a1.06,1.06,0,0,1-.57-1.25c.17-.72.87-1.14,1.06-1.84a8.81,8.81,0,0,0,.24-.95,30.5,30.5,0,0,0,.36-3.55,16.83,16.83,0,0,0-.19-6.56c-.47-1.42-1.09-2.46-1.58-3.81a9.9,9.9,0,0,0-3.79-5,8.44,8.44,0,0,0-1.4-1.28c-1.1-.45-2.16-1-3.29-1.4-2.49-.45-5.07-1-7.54-.32-1.11.29-2.24.47-3.34.78a22.6,22.6,0,0,0-2.92,1.44,12.49,12.49,0,0,0-2.73,1.73c-.56.77-1.37,1.94-2.38,1a1.29,1.29,0,0,1,0-1.58c.89-1.77,2.76-2.69,4.43-3.59a14.46,14.46,0,0,1,5.6-2.12c3.2-1.07,6.66-.61,9.87.15a18.41,18.41,0,0,1,4.52,2.21,13,13,0,0,0,1.66,1.57,19.78,19.78,0,0,1,2.55,2.94,13.47,13.47,0,0,1,1,2.51,21.5,21.5,0,0,1,1.87,6.51,31.19,31.19,0,0,1-.5,6.18,20.32,20.32,0,0,1-.82,3.84C473.16,300.17,472.83,302.06,471.39,301.55Z"/><path d="M458.46,302.29a3,3,0,0,1-1.35-.31,1.43,1.43,0,0,1,.4-2.58,6.42,6.42,0,0,1,1.69.09,10.85,10.85,0,0,0,4.49-1.66,6.89,6.89,0,0,0,1.76-7.85c-1-2.76-3.08-5.54-6-6.33a15.65,15.65,0,0,0-5.46-.13c-.71.25-1.39.59-2.1.85a5.92,5.92,0,0,0-4.44,4.22c-.36.63-.47,1.56-1,2a1,1,0,0,1-1.09,0c-.71-.39-.59-1.36-.45-2a8.28,8.28,0,0,1,5.26-6.45c1-.42,2.06-.89,3.12-1.25a17.9,17.9,0,0,1,5.32-.16c5.7.39,9.63,6.06,9.95,11.44a9.85,9.85,0,0,1-3.85,8.06,8.53,8.53,0,0,1-3.17,1.4A7,7,0,0,1,458.46,302.29Z"/><path d="M447.37,275.26c-.78-.38-.87-1.32-1-2.08-.06-.27-.15-.53-.2-.8a1.08,1.08,0,0,1,1.5-1.1C448.88,271.8,449.5,275.91,447.37,275.26Z"/><path d="M451.12,273.2a4.46,4.46,0,0,1-.62-2.76,1.1,1.1,0,0,1,1.34-.73c1.08.34,1.14,1.93,1.18,2.88A1.06,1.06,0,0,1,451.12,273.2Z"/><path d="M459,272.53c-1.11-.16-1-1.52-.81-2.32s.68-1.74,1.61-1.47.91,1.26.7,2S460,272.7,459,272.53Z"/><path d="M464.65,273.77c-.89-.54-.49-1.67-.08-2.39s.66-1.54,1.53-1.37C468.2,270.42,466.47,274.85,464.65,273.77Z"/><path d="M470.08,278.15a.88.88,0,0,1-.75-.78c0-1.17,1.35-1.8,2.22-2.36a1,1,0,0,1,1.18,1.62C472,277.25,471.13,278.16,470.08,278.15Z"/><path d="M471.79,282.19c-.47-.85.33-1.57,1.11-1.76a7.92,7.92,0,0,1,3.31-.65.82.82,0,0,1,.43,1.39,4.18,4.18,0,0,1-1.74,1C473.91,282.3,472.49,283.33,471.79,282.19Z"/><path d="M474.55,288.62a1,1,0,0,1-.16-1.55,4.61,4.61,0,0,1,1-.6c.84-.43,2.07-1.12,2.94-.42,1,1-.54,1.94-1.42,2.24S475.32,289.06,474.55,288.62Z"/><path d="M474.87,295.77c-1.83-.2-1.48-2.52.3-2.39C477.41,293.51,477,296,474.87,295.77Z"/><path class="cls-2" d="M279.36,102.5a41.57,41.57,0,0,1-.07,5.58c-.26,3.47-.1,7.47,0,11.07-2.55-.81-5.22-1.15-7.77-2-5.27-2-10.35-4.53-16-5.38l.73-.37c3.31-1.86,6.6-3.77,9.83-5.76,2.46-1.39,5-2.67,7.37-4.18,1.94-1.22,3.8-2.58,5.76-3.76A40.11,40.11,0,0,0,279.36,102.5Z"/><path class="cls-2" d="M250.71,114.34c-.07.15-.13.31-.2.47-2.39,6.21-2.89,13-4.18,19.44-2.21-1.53-3.65-3.89-5.68-5.62a31.09,31.09,0,0,0-2.82-2c-1.35-.9-2.7-1.8-4-2.74,4.26-2.71,8.85-4.88,13.25-7.35C248.25,115.77,249.47,115,250.71,114.34Z"/><path class="cls-2" d="M199.18,250.27c0,.07-.07.14-.1.22-.47,1-1,2-1.45,3A125.71,125.71,0,0,0,192,265.35c-1.41,3.16-1.95,6.61-3.15,9.84a71.09,71.09,0,0,0-3.76,10.45c-.19.82-.38,1.65-.55,2.47-.71-.47-1.42-.94-2.14-1.4a98.41,98.41,0,0,1-11.13-8.27,51.25,51.25,0,0,1-7.19-6.7,3,3,0,0,0-1.18-.81,12.91,12.91,0,0,0-2-3.36c-1.5-1.85-3-3.74-4.51-5.55a6.53,6.53,0,0,0-1.84-1.38c-1.13-.65-2.27-1.27-3.45-1.82a1,1,0,0,0-.78-.43h-.16a23.93,23.93,0,0,0-4-1.33c-1-.24-2-.42-3-.61h0a1.17,1.17,0,0,0-.37-.08l-.64-.13a18.82,18.82,0,0,0-4.07-.8c.12-1.68-.62-3.63-2.63-3.28-2.5.56-1.63,3.32-.92,5a28.41,28.41,0,0,1,.68,5.75c-.09,1.5,1.34,4.92-1,5.05-1.71.09-3.38-.57-3.84-2.36a63,63,0,0,1-2.23-6.68,1.74,1.74,0,0,0-.22-.85c-.2-.8-.38-1.6-.54-2.41-.22-2-1.2-5.08-3.73-3.34-1.08,1.16-.66,3.1-.21,4.89a10.33,10.33,0,0,0-2.77,1.75c-.5.36-1,.75-1.46,1.15a2.73,2.73,0,0,0,.25-1.74c-.13-1.29-.27-2.58-.29-3.88.18-2.71.28-5.59,1.63-8a20,20,0,0,1,2.31-2.88,14.7,14.7,0,0,1,4.38-4.08c2.27-1.17,4.39-2.7,6.9-3.35a59.19,59.19,0,0,1,19.29-.73c6.68,1.48,13.59,2.16,20.07,4.42a50.36,50.36,0,0,0,6.37,1.95c3,.92,6,2.12,9,3.2,2.36,1.06,4.45,2.63,6.81,3.7C197,249.23,198.13,249.72,199.18,250.27Z"/><path class="cls-2" d="M208.1,255.69a30.81,30.81,0,0,1,3.94,2.88c-2.06,3.6-3.25,7.71-5,11.45-1.12,2.54-2.79,5.29-3.78,8-1.3,3.55-2.15,7.25-3.12,10.91-.51,1.92-.82,3.89-1.28,5.83-.11.37-.24.76-.35,1.16-1.66-.76-3.21-1.75-4.83-2.59s-3.44-1.61-5.08-2.56l-1-.65a12.75,12.75,0,0,0,.35-1.62,41.7,41.7,0,0,1,1.65-5.56c.85-3,2.43-5.61,3.35-8.53a61.85,61.85,0,0,1,2.94-9c1.3-3.18,2.8-6.27,4.29-9.35.32-.89,1.33-2.59,1.81-4.08l.07.05A46.67,46.67,0,0,0,208.1,255.69Z"/><path class="cls-2" d="M434.74,225.12l-.25.11c-4.74,1.66-9.39,3.6-14.23,5-1.43.41-2.84.85-4.22,1.39-4.1,1.86-8.45,3-12.62,4.76a.91.91,0,0,0-.54,0q-1.59-5.85-3.29-11.68c-.2-.74-.4-1.47-.61-2.2,2.08-.89,4.24-1.61,6.3-2.57,3-1.49,6.18-2.55,9.2-4a37.56,37.56,0,0,1,8.56-3.37c2.36-.76,4.76-1.32,7.15-2,.65-.25,1.61-.47,2.44-.82Q433.76,217.44,434.74,225.12Z"/><path class="cls-2" d="M456.92,305.89a4,4,0,0,1-.89,2.78c-1.4,2.05-2.91,3.57-4.49,5.67a33.64,33.64,0,0,1-7.55,8,36.09,36.09,0,0,1-4.69,2.36,7.31,7.31,0,0,1-5.2-.32c-.92-.94-1.14-2.41-2.29-3.13a1.68,1.68,0,0,0-1.41-.17,56.37,56.37,0,0,1-5.58-8.83c-2.61-5.51-4.29-11.72-5.83-17.66-1.81-5.63-3.16-11.39-4.86-17.05-1.64-5.87-3.58-11.66-5-17.59-.87-3.89-2.07-7.68-3.18-11.5-.67-2.84-1.39-5.66-2.13-8.47.67-.24,1.34-.56,2-.77,3-1.23,6.24-2.06,9.25-3.35,3.3-1.56,6.84-2.4,10.27-3.57s6.57-2.4,9.86-3.57q1.55,12.76,2.58,25.57c.43,7,1.32,13.89,1.81,20.85.29,4.65.79,9.28,1.16,13.92.09,1.11.18,2.22.24,3.34a10.19,10.19,0,0,0,.41,3.61,1.93,1.93,0,0,0,1.39,1.1h0a1.59,1.59,0,0,0,.39.1c2.17.17,3.94-2.26,5.15-3.79a4.87,4.87,0,0,1,3.39-2.6,5.88,5.88,0,0,1-1.09,3.17q-1.42,2-2.94,4a5.84,5.84,0,0,0-1.54,2.76,1.72,1.72,0,0,0,1.66,2,3.28,3.28,0,0,0,2.25-1.39,28.76,28.76,0,0,1,4.13-4.27,1.88,1.88,0,0,0,1-.25c.26-.18.5-.4.74-.6.05,1.64-1.08,3-2.06,4.17h0c-1.4,1.61-2.84,3.23-4.35,4.75a7,7,0,0,0-1.24,1.42,1.74,1.74,0,0,0,1.44,2.71,6,6,0,0,0,2.5-1c1.12-.65,2.22-1.35,3.37-2C456,306.11,456.46,305.71,456.92,305.89Z"/><path class="cls-2" d="M377.6,501.73a27.85,27.85,0,0,1,.8,6.67,21.32,21.32,0,0,0-6.82,1.06,23.51,23.51,0,0,0-.81-5.07c-.28-1.59-1.94-2.83-3.35-1.61s-2.41,3.11-3.94,4.35a70.37,70.37,0,0,1-7.11,4.56,19.27,19.27,0,0,1-3.94,1.74,16.12,16.12,0,0,1-10.58-.17c-1.07-.51-2.38-.9-3.09-1.91a4.77,4.77,0,0,1,2.85-2,64.37,64.37,0,0,0,8.7-4c5.47-2.94,10.61-7.57,12.12-13.81.18-2.07.58-4.11.64-6.18a22,22,0,0,0-.47-4.21,10.68,10.68,0,0,1,1.49,0c4.41.21,8.86-.08,13.23.65a40,40,0,0,0,0,4.38c0,1.25,0,2.49.1,3.73,0,2-.24,4-.1,6A39.17,39.17,0,0,1,377.6,501.73Z"/><path class="cls-2" d="M324.83,507.61a46,46,0,0,0-8.81,1.11c0-1.94.11-6.49-2-7.25a1.82,1.82,0,0,0-2,.91,1.68,1.68,0,0,1-.61.84c-2.4,1.81-5.05,3.27-7.49,5a20.16,20.16,0,0,1-5.07,1.69c-1.07.3-2.08.78-3.18,1-1.59.25-3,.17-4.66.39-3.18.52-6.43,1.11-9.65.57-2.05-.64-4.24-1.53-5.55-3.32,3.39-1.06,7.14-.32,10.48-1.72,1.16-.36,2.36-.59,3.53-.95a60.47,60.47,0,0,0,5.5-2.52,20,20,0,0,0,6.21-3.71c4.33-4.37,7.65-7.16,7.78-13.82a10.59,10.59,0,0,0,0-1.95l5.22.38c2.85.07,5.68-.32,8.52-.43a51.42,51.42,0,0,1,.69,5.4,93.6,93.6,0,0,0,0,9.91C323.35,502.09,324.8,504.74,324.83,507.61Z"/><path class="cls-4" d="M206.75,64.33c.54,2.43-1.41,4.15-3,5.63l-.48.44A4,4,0,0,0,201,66.54c-4-1.87-6.8,3.56-4,5.9a1.53,1.53,0,0,1-1.53-.82c-.78-1.17-.32-2.61-.63-3.88a9.3,9.3,0,0,1,3.69-3.51c1.58-.93,3.33-1.84,5.22-1.65C204.9,62.83,206.69,62.84,206.75,64.33Z"/><path class="cls-4" d="M166,83.72a10.68,10.68,0,0,1-.15,2.88,2.1,2.1,0,0,1-.37,1.15,9.58,9.58,0,0,1-1.12.76,3.61,3.61,0,0,0-3.65-4c-2.52.14-3.3,3-2.41,5a8.82,8.82,0,0,1-1.77-3A6.58,6.58,0,0,1,156.1,83c.54-2.18,3.49-2.15,5.31-2.15a7.92,7.92,0,0,1,3.57.58A3.08,3.08,0,0,0,166,83.72Z"/><path class="cls-2" d="M150.68,104.14c-3.9-.2-6.14-1.8-8.27-5a17,17,0,0,1-4.92-9.59,9.84,9.84,0,0,1,1.22-7.2c2.35-4.46,7-6.82,11.38-9a19.79,19.79,0,0,1,6.78-3A44.22,44.22,0,0,1,162.56,69a9.54,9.54,0,0,1,3.64-.31c4.22.45,8.52,2.62,10.67,6.39.71,1.31,2.23,3.62,1.41,5.06a11.19,11.19,0,0,1-1.71,11.74,67.34,67.34,0,0,1-4.8,4.76c-1.51,1-3.22,1.78-4.64,3a13.48,13.48,0,0,1-5.74,2.9A26.51,26.51,0,0,1,150.68,104.14Zm3.62-4.2a20.87,20.87,0,0,0,5.35-1.27,33.87,33.87,0,0,1,3.89-1.61c2.24-1.51,4.68-2.72,6.9-4.27,1.72-1.67,3.6-3.15,4.68-5.28a8.76,8.76,0,0,0,1.1-2.07,7.63,7.63,0,0,0-.22-3,10.55,10.55,0,0,0-1.56-3,11.08,11.08,0,0,0-5.51-5.77,12.48,12.48,0,0,0-6.1-.34,20.12,20.12,0,0,0-4.67,1,34,34,0,0,0-3.74,1.22c-.92.47-1.73,1.11-2.64,1.57-1.07.56-2.2,1-3.25,1.62s-1.82,1.46-2.76,2.16c-2.16,1.39-4.15,3.61-3.83,6.36-.43,3.4,2.17,6,3.42,8.89C146.92,99.31,151,100,154.3,99.94Z"/><path class="cls-2" d="M197.43,84.69a15.26,15.26,0,0,1-3.42-1,9.89,9.89,0,0,1-3.3-1.71,10.39,10.39,0,0,1-2-2.9,19.15,19.15,0,0,1-2.59-5.55c-.7-2.94-1.23-6.11-.38-9.07a7.25,7.25,0,0,1,3.3-4.59c1.73-1.09,3.49-2.13,5.23-3.21a114.71,114.71,0,0,1,18.6-6.38c5.06-1.08,9.62-.28,11.47,5.14a51.79,51.79,0,0,0,2.34,5,14.86,14.86,0,0,1,.49,8.63,11.34,11.34,0,0,1-1.77,4,22.24,22.24,0,0,1-4,3.71,29.58,29.58,0,0,1-3.2,2c-.77.3-1.54.6-2.28.94-1.26.58-2.42,1.34-3.72,1.82s-2.83.71-4.21,1.16C204.56,83.75,201.09,85.31,197.43,84.69Zm-1-4.2a67.61,67.61,0,0,0,10.46-2.14c2.69-.9,4.85-2.21,7.39-3.24A23,23,0,0,0,218,73.52c1.08-.73,2.06-1.6,3.15-2.31,1.32-.58,1.75-2,1.87-3.38.15-1.74-.72-3.36-1-5.06-1-3.09-1.5-7.44-5.17-8.47A40.1,40.1,0,0,0,207.14,56,53.79,53.79,0,0,1,202,57.71c-1,.36-2,.83-3.06,1.24a23.31,23.31,0,0,0-3.91,1.66c-1.64,1.11-3.54,2-4.41,3.87a11.14,11.14,0,0,0-.62,9.68c.48,1,.45,2.15,1,3.13a12.09,12.09,0,0,0,1.83,2.25A7.84,7.84,0,0,0,196.43,80.49Z"/><path class="cls-2" d="M177.07,78.07a1.52,1.52,0,0,1-.2-.43A1.34,1.34,0,0,1,175.19,76c.17-.65.76-.93,1.33-1.17,2.27-.86,4.25-2.44,6.64-3a19.82,19.82,0,0,0,2.67-.44A1.27,1.27,0,0,1,187,73a1.38,1.38,0,0,1,0,2.39c-1.37.56-2.9.68-4.3,1.19a19.35,19.35,0,0,0-2.7,1.24C179.17,78.27,177.88,79.13,177.07,78.07Z"/><path class="cls-2" d="M221.72,56.32c-1.08-1.67.67-3,1.56-4.26a49,49,0,0,1,4.87-4.9c1.53-1.51,3.44-2.55,5-4a18.43,18.43,0,0,1,3.63-3.59,26.67,26.67,0,0,1,4.44-3.7c.9-.52,2.47-.46,2.94.62.82,2.27-4.55,6.75-6.19,8.15-2.61,2.24-4.77,4.95-7.61,6.91a36.27,36.27,0,0,1-2.85,2.7c-1.06.77-2.23,1.34-3.33,2A1.67,1.67,0,0,1,221.72,56.32Z"/><path class="cls-4" d="M129.37,41.82c-.66-1.06.69-2,1.22-2.88a30.2,30.2,0,0,1,6.57-6.25,1,1,0,0,1,1.12,1.53c-.63.41-1.22.86-1.81,1.33a43.78,43.78,0,0,0-5.27,5.62c-.25.33-.39.78-.8.94A.88.88,0,0,1,129.37,41.82Z"/><path class="cls-4" d="M133.69,44.13c-.73-.1-1-1.17-.3-1.47,1.25-1.31,2.69-2.58,3.9-3.89.86-.9,4.72-5.36,5.83-3.89.52.72-.3,1.31-.83,1.69a21.46,21.46,0,0,0-2.57,2.29c-1.48,1.55-3.07,3-4.64,4.47C134.68,43.67,134.27,44.21,133.69,44.13Z"/><path class="cls-4" d="M139.15,44.81a.83.83,0,0,1-.27-1.46c1.18-.93,2.32-1.94,3.51-2.87,1.07-.73,5.19-5.3,6.11-3.2a.92.92,0,0,1-.41,1.15,15,15,0,0,0-2.93,1.94c-1.44,1.24-3,2.47-4.44,3.66C140.26,44.38,139.8,45,139.15,44.81Z"/><path class="cls-4" d="M218.41,27.13A30.11,30.11,0,0,1,215,24.05c-.66-.59-1.48-1.87-.33-2.4,1-.35,1.63.75,2.28,1.29a20.08,20.08,0,0,0,3.28,2.84c.58.29,1.5.52,1.36,1.35C221.2,28.55,219.24,27.71,218.41,27.13Z"/><path class="cls-4" d="M223.1,23.48a7.79,7.79,0,0,1-4.76-3.14,1.63,1.63,0,0,1-.35-1.49,1,1,0,0,1,1.21-.53c.39.13.48.56.81.78a9.13,9.13,0,0,0,3.34,2.13,2.8,2.8,0,0,1,1.42,1.16C225.11,23.47,223.93,23.77,223.1,23.48Z"/><path class="cls-4" d="M228.43,19.34a11.58,11.58,0,0,1-6-2.74c-.72-.61-.88-2.17.39-2.09a26.63,26.63,0,0,0,2.78,1.38c1.18.45,2.52.52,3.6,1.22A1.22,1.22,0,0,1,228.43,19.34Z"/><path d="M63.28,450.61c1.29,3.39-1.25,8.11-5.09,8-2.19-.06-3.73-1.77-5.4-2.88a1.47,1.47,0,0,1,1.54-2.36c1.52.75,2.68,2.69,4.57,2.35a3.27,3.27,0,0,0,2-2.87c-.49-1.36-1.88-3.32.11-4.13C62.39,448.24,63.14,449.5,63.28,450.61Z"/></g></g></svg>