<svg xmlns="http://www.w3.org/2000/svg" viewBox="0 0 1072.83 776.68"><defs><style>.cls-1{fill:#f7941d;}.cls-2{fill:#ffab2a;opacity:0.71;}.cls-3{fill:#fff;}</style></defs><title>Chica-Amarillo</title><g id="Capa_2" data-name="Capa 2"><g id="Capa_1-2" data-name="Capa 1"><path class="cls-1" d="M1059.39,302.18c-.08,4.34-.17,8.68-.22,13l-1.07,1c-.36.33-.73.64-1.1,1l-.69.58-.63.51c-.35.3-.71.58-1.07.86l-.91.72c-.82.63-1.66,1.25-2.51,1.86l-.92.66-.28.2c0-3.76,0-7.51.08-11.27,0-.92,0-1.84,0-2.76h.05a5.75,5.75,0,0,0,3.49-1.15,7.91,7.91,0,0,0,1.68-1.83,5.61,5.61,0,0,0,1.94-.93h0a5.84,5.84,0,0,0,1-1C1058.67,303.15,1059,302.67,1059.39,302.18Z"/><path class="cls-1" d="M1057.86,275h0Z"/><path class="cls-1" d="M1058.79,269.93l.06-.15c0,.06,0,.13,0,.19Z"/><path class="cls-1" d="M823.18,152.48c-.06,3.44-.21,6.87-.48,10.29-13.24-1.09-26.46-2.3-39.67-3.75q-10.39-.61-20.79-1.08a12.35,12.35,0,0,0,1-3.39,12.82,12.82,0,0,0-.73-6.56C782.77,149.06,803,150.8,823.18,152.48Z"/><path class="cls-1" d="M1058.08,247.82c0,.44,0,.88,0,1.32a5.56,5.56,0,0,0-1.19.34,5.49,5.49,0,0,0-2.9,2.77c-.34.75-.63,1.54-.9,2.33-.56,1.35-1.16,2.7-1.76,4s-1.28,2.84-1.91,4.27l-.24.53h0a2,2,0,0,1,0-.25c-.19-4.26-.35-8.49-.54-12.72,2.56-4.08,5.52-7.89,8.38-11.77.18-.27.39-.56.6-.84.18,2.71.32,5.41.41,8.12C1058.05,246.59,1058.06,247.2,1058.08,247.82Z"/><path class="cls-1" d="M520.38,151c-.08.19-.17.39-.25.59a23.06,23.06,0,0,0-11.36,1.32,8.22,8.22,0,0,0-5.38,8.25,6.53,6.53,0,0,0,.1.66c-9.95.72-19.9,1.4-29.87,1.89.43-.72.86-1.45,1.28-2.18,1.5-2.48,3-5,4.45-7.48L480,154C493.45,153,506.9,151.83,520.38,151Z"/><path class="cls-1" d="M532.57,150.36l1,0-1,.29Z"/><path d="M558.71,191.38c-6.76.16-14.05-5.35-11.37-12.66,2-7.38,9-11.77,15.09-15.64a46.74,46.74,0,0,0,20.91-20.38,49.87,49.87,0,0,0,3.76-11.55c.35-1.82.66-3.65.88-5.5,0-1.73.78-4.42,2.86-4.16a2.11,2.11,0,0,1,1.65,3.63A48.38,48.38,0,0,1,574,163.05c-5.88,4.26-12.69,7.36-17.69,12.78-7.65,8.92,2,10,9.08,7.57a68.24,68.24,0,0,0,6.95-2.6,3.55,3.55,0,0,1,3.29,6.28C570.29,189.41,564.59,191.5,558.71,191.38Z"/><path d="M550.79,256.17c-6-1.48-7.33-8.13-7-13.5,0-11,2.19-22,4.61-32.63-3.83-4,4.35-7.72,4.76-2.53a3.26,3.26,0,0,1,1.62,1.61,14.72,14.72,0,0,0,8,3.7,34.59,34.59,0,0,0,13.7-3,2.72,2.72,0,0,1,3.45,3.56c-.58,1.39-1.17,2.76-1.57,3.86a201.66,201.66,0,0,1-10.1,24.89C565.38,249,559.56,258.64,550.79,256.17Zm2.75-5.6c7.13-1.82,10.12-12.67,13.31-18.58a144.88,144.88,0,0,0,5.95-15.14c-6.19,1.69-13.12,2.58-18.64-1.44a162.28,162.28,0,0,0-3.76,24C550.49,242.81,548.49,250.19,553.54,250.57Z"/><path d="M669,173.36c-9.92-.3-20.34-1.9-28.5-8-2.75-2.29-8.16-5.73-7.34-9.79-5.17-3.35,3.81-12.14,6.21-15.21,3.66-4.07,7.8-7.88,12.88-10.06,6.37-2.26,13.2-4.23,20-3.95,13.71,1.68,21.85,14.46,28.74,25.12,2,3.7-1.72,6.51-4.29,8.58C689.13,166.16,678.94,172.9,669,173.36ZM670.6,166c8.66-1.76,16.58-6.83,23.16-12.61-5.54-7-10.67-15.59-19.41-18.9-6-1.89-12.34.48-18.17,1.93-7.86,2.8-13.82,9.38-18.95,15.72,2.45-.28,4.1,1.85,5.45,3.64a25.86,25.86,0,0,0,5,4.19C654.36,164.37,662.7,165.61,670.6,166Z"/><path d="M648.35,160.88c-7.74-5.92-5.54-18.54,2.08-23.58a11.73,11.73,0,0,0,1.87-1.21,9,9,0,0,1,9.2-1.18c4.87,2.19,3.78,8.37,2.46,12.51C662,153.76,656.71,166.35,648.35,160.88Z"/><path d="M655.54,131.15c-1.6-2.06-.36-4.94-.17-7.28.49-2.86.8-5.77,1.56-8.57a2.91,2.91,0,0,1,5.6,1.55c-1,4-2.22,7.9-3.13,11.9C660.5,131.09,657.19,132.93,655.54,131.15Z"/><path d="M664.73,129.74c-2.21-1-1.59-3.62-1.16-5.48a52.2,52.2,0,0,1,3.37-10.3,3,3,0,0,1,5.52.82,3.14,3.14,0,0,1-.27,2.14c-1.36,3.19-2.83,6.72-3.9,9.85C668.91,128.78,666.56,130.57,664.73,129.74Z"/><path d="M674.77,131.51c-3.37-1.14-.56-6.35-.39-8.84.59-2.57.83-7.21,4.59-6.35a2.94,2.94,0,0,1,2,3.59c-1,3.31-2.15,6.54-3.35,9.78A2.35,2.35,0,0,1,674.77,131.51Z"/><path d="M712.72,112.89c-8.57-9.22-15.69-21.76-28.71-25-5.88-1.17-11.85.64-17.5,2.18-2.6.83-5.18,1.72-7.69,2.79a2.18,2.18,0,0,1-1.7.82,2.3,2.3,0,0,1-1.19-4.38c7.52-4.57,16.07-7.89,24.91-8.44,6.38-.2,12.36,2.46,17.67,5.77,6.69,4.26,11.68,10.6,16.7,16.62,1.48,2.27,4.4,4,4.51,6.88C719.79,113.6,715.06,115.54,712.72,112.89Z"/><path d="M517.6,174.64c-.6-1.63.95-2.83,1.93-3.9a71.66,71.66,0,0,1,5.33-4.82,2.38,2.38,0,0,1,3.31.5,2.41,2.41,0,0,1-.5,3.32c-1.85,1.47-3.71,2.93-5.54,4.41C522,176.4,518.34,176.63,517.6,174.64Z"/><path d="M531.17,179.34a2.23,2.23,0,0,1-2.37-1.92c-.11-1.53,1.07-2.62,2-3.66,2.11-1.7,5.27-7.37,8.23-4.67a2.5,2.5,0,0,1,0,3.51c-1.92,1.68-3.86,3.31-5.78,5A2.07,2.07,0,0,1,531.17,179.34Z"/><path d="M618.41,194.08c-3.56.27-4-3.49-1.16-5.05,2.42-1.19,5.6-5.4,8.16-2.48,2.09,3.32-2.71,4.74-4.85,6.1A2.3,2.3,0,0,1,618.41,194.08Z"/><path d="M630.11,198.9a2.28,2.28,0,0,1-2.27-1.66c-.37-1.5.95-2.6,1.93-3.51l4.58-4.13a2.6,2.6,0,1,1,3.35,4c-1.82,1.45-3.78,2.72-5.66,4.1A2.1,2.1,0,0,1,630.11,198.9Z"/><path d="M645.9,201.12a2.14,2.14,0,0,1,.81-3.46c2-1.36,3.75-3,5.6-4.54,2.83-2.05,6,2.16,3.17,4.32C653.36,198.74,648.16,203.38,645.9,201.12Z"/><path d="M572.2,290.46c-1.63-1.29-.25-3.16,1.07-4,1.7-1.39,3.36-2.8,5.08-4.16a2.19,2.19,0,0,1,2.59,3.52c-1.84,1.46-3.71,2.86-5.65,4.16A2.24,2.24,0,0,1,572.2,290.46Z"/><path d="M584.66,291.42c-3.41-2.12,1.39-4.68,3-6.12,2.34-1.72,5,1.9,2.64,3.6-1.3.84-2.65,1.6-4,2.42l.2-.12.05-.05A1.92,1.92,0,0,1,584.66,291.42Z"/><path d="M1054,252.25a24.29,24.29,0,0,0-.89,2.33c-.58,1.35-1.17,2.7-1.77,4,0,.05,0,.1-.07.15a85.36,85.36,0,0,1,5.63-9.29A5.45,5.45,0,0,0,1054,252.25Zm18.33,12.8c-.51-8-1.28-26.23-9.35-30-2.33-.68-4.06,1-5.36,2.76h0l-.61.84L1053.8,243l-1.08,1.46c-.35.48-.7,1-1,1.46s-.7,1-1,1.48-.68,1-1,1.5-.66,1-1,1.52l-.65,1c-.07-3.63-1.17-12.21-4.4-15.31a4.05,4.05,0,0,0-1.43-.93,3.42,3.42,0,0,0-2.09-.09,5.48,5.48,0,0,0-.78.26s0,0,0,0a8.52,8.52,0,0,0-1.93,1.23c-.65.58-1.29,1.18-1.9,1.79a46,46,0,0,0-10.17,15.05c.1-5.28.31-11.25-2.69-15.85a6.41,6.41,0,0,0-.73-.89l-.27-.26-.27-.23a6.7,6.7,0,0,0-.58-.4c-.21-.12-.41-.22-.62-.32a4.88,4.88,0,0,0-.64-.23,6.89,6.89,0,0,0-6.81,2.05c-6.9,7.26-9.62,17.47-11.8,27-.35,2.28-1.78,6.85-2,10.53-2.67.4-5.29,1.05-7.93,1.53a43.2,43.2,0,0,0-5.7,1.09,33.66,33.66,0,0,0-3.23,1l-1,.4c-.68.27-1.34.56-2,.88s-1.29.64-1.92,1-1.23.74-1.82,1.14c-.3.2-.59.4-.87.61-.58.42-1.14.87-1.67,1.33A26.14,26.14,0,0,0,964.62,297c-4.4,15.39-5,31.52-6.9,47.33-3.76,24.21-7.22,48.48-10.06,72.83-7.07,53.66-16,107.07-22.26,160.84-2.82-9.77-7-19.07-10-28.8-4-13.46-8.62-27-13.42-40.21-2.19-6.69-3.44-13.64-5.12-20.46-4.05-14.74-7.52-29.75-14.43-43.48-3.42-7.57-6.13-15.53-10.72-22.5-3.93-6.49-10-12.39-15-18.24a45.79,45.79,0,0,0-8.31-8,17.72,17.72,0,0,0-1.87-1.23,19.61,19.61,0,0,0-3-1.42,28.81,28.81,0,0,0-3.15-1,17.83,17.83,0,0,1,.19-2.92c.23-3.19.64-6.53,1.2-10.18a69.28,69.28,0,0,0-2.63-36.76c-2.63-8.06-5.38-16.34-10.46-23.23-6.33-8.08-12.19-16.51-18.67-24.47-14.16-16.43-9.07-35.71-3.58-54.54,2.5-8.69,5-17.39,7.26-26.16.36-1.51.7-3,1-4.54s.64-3,1-4.54c.15-.76.31-1.52.45-2.28.75-3.8,1.44-7.61,2.12-11.42.81-4.57,1.59-9.15,2.42-13.72.59-3,1-6,1.41-9.06l.15-1.25c.11-1,.2-2,.29-3,.06-.6.1-1.19.15-1.78,0,0,0-.09,0-.13s0-.14,0-.21l.15-2.08a4.93,4.93,0,0,1,0-.55c0-.77.08-1.54.11-2.3s.07-1.55.1-2.33c0-.27,0-.54,0-.81,0-.67,0-1.34,0-2,.15-8.27-.24-16.57-.85-24.82a135.71,135.71,0,0,0-7.15-36.61C811.57,79.28,806,68.12,797.69,59,779,37.46,754.5,20,726.55,13.4c-7.4-2.15-14.86-4.2-22.56-4.91-1.1-.12-2.22-.25-3.33-.33a104.87,104.87,0,0,0-20.18-4.42C672.77,3,665.1,1.93,657.4,1.11,645.58,0,633.69.06,621.84,0a93,93,0,0,0-55.69,17.51c-13.25,8.12-23.53,20.06-32,32.95C530,56.86,527,63.87,522.88,70.24a121.56,121.56,0,0,0-10.83,20.88c-3.07,7.14-6.65,14-10.27,20.9-7.12,14.2-14.45,28.31-22.44,42-.72,1.25-1.46,2.51-2.2,3.75s-1.49,2.49-2.24,3.73c-.42.73-.84,1.46-1.27,2.18h0c-.46.79-.93,1.57-1.41,2.36-.35.57-.7,1.15-1.06,1.72-4.94,8-10.29,15.7-14.81,23.9-.23.4-.44.8-.65,1.2-1.52,2.82-2.93,5.68-4.19,8.64-6.95,13.68-10.51,28.85-12,44.06-1.18,19.39,9.69,38.33,25.1,49.59,10.11,7.2,21,14,28.14,24.45,3.45,5.25,4.47,11.57,4.72,17.73.12,3.31.31,7.42-.45,10.89-.88,4.27-2.79,8.21-3.78,12.44-.77,3.28-1.7,11.15-.33,16.1A54.46,54.46,0,0,0,487,375c-11-2.62-22.4-4-32.85-8.49-2.16-1.05-3.19-3.47-4.79-5.18-5.18-6.23-10.23-12.64-16.16-18.19s-13.31-10.05-21.58-10.38a42.87,42.87,0,0,0-6.4.46c-1,.16-2.06.35-3.08.58s-2,.48-3,.78l-1.5.47c-1,.33-2,.69-2.93,1.09h0c-1,.39-1.92.82-2.86,1.28s-1.86.94-2.76,1.46c-.45.25-.89.52-1.34.8-13.52,9.05-22.52,23.54-31.79,36.6a322.42,322.42,0,0,0-23.09,42.23c-4.73,11.41-9.24,22.9-13.82,34.36-4.72,11.29-10.33,22.16-14.38,33.73s-8.45,22.95-13.36,34.17c-4.35,11-8,22.24-11.8,33.41-1.28,3.75-2.86,7.56-4.44,11.33-.34-.74-.67-1.49-1-2.28-.16-.39-.33-.79-.49-1.2s-.33-.82-.49-1.25c-6.27-20.9-14.8-41.2-23.07-61.4-5.57-13-10.18-26.34-16-39.21-2.9-6.56-5.22-13.35-7.85-20-5.58-13.06-11.23-26.11-17.11-39-7.36-15.63-14.74-31.27-21.67-47.12-11.48-22.28-20.41-46.76-35.18-67.27l-3-4.11c-.71-1-1.42-2-2.13-2.92s-1.56-2.07-2.36-3.06c-.45-.57-.9-1.14-1.37-1.69-.61-.73-1.23-1.44-1.86-2.12-.21-.23-.44-.46-.66-.69-.58-.62-1.19-1.21-1.79-1.78l-.62-.56c-.66-.59-1.33-1.15-2-1.68-.28-.22-.57-.44-.86-.64s-.49-.35-.74-.52l-1.15-.74-.59-.35a4,4,0,0,0-.45-.25l-.73-.4-.06,0c-.32-.17-.64-.32-1-.47s-.65-.3-1-.45l-.1,0c-.32-.14-.64-.27-1-.39h0c-.65-.25-1.33-.46-2-.67l-.17-.05-.85-.23-.11,0c-.3-.08-.6-.14-.91-.21l-.13,0-.81-.16-1.13-.19a39.79,39.79,0,0,0-4.08-.19c-.29,0-.58,0-.87,0-4.61.07-9.23.72-13.83.95-3.54.15-7.07.3-10.62.43a3.3,3.3,0,0,0-1-.45c-9.75-1.54-14-11.6-19.06-18.87-4-5.77-6.09-13.81-10.94-19.16-2.43-2.41-6.06-4.11-9.49-3-8.38,3.16-7.87,14.37-7.29,21.77-2.15-3.71-3.91-7.65-6.12-11.34-1.45-2.42-3.15-5-5.94-6-11.12-3.07-8.79,17.81-8.88,24.3C14.64,236.58-.87,225.11,0,252c.57,12.63,6.85,24,13.81,34.28,4.44,5.91,9.22,11.87,15.32,16.14a136.24,136.24,0,0,0,13,7.29c7.32,3.26,15.56,2.94,23.35,4.21,1.38,13.69,6.1,26.73,10,39.83q4.66,15.06,8.54,30.36c3,11.66,5.66,23.39,8.31,35.13Q94,426.12,95.5,433q1.44,6.38,2.87,12.74c.72,3.11,1.43,6.22,2.15,9.31.57,2.46,1.14,4.9,1.72,7.36,4.45,15.59,8.71,31.23,11.55,47.21,7.17,37.09,14.91,74.19,26.53,110.17,6.14,20.26,15.29,39.33,25.57,57.77,4.84,9.38,11.34,17.71,18.43,25.49,3.23,3.55,6.57,7,9.94,10.33h0c11.68,10.5,27.1,16.29,42.61,17.9l1.32.13a67.81,67.81,0,0,0,13.28-.47h0c1.54-.18,3.09-.38,4.64-.58,3.62-.47,7.24-.95,10.87-1.14,12.15-1.56,23.4-6.39,33.8-12.66.86-.52,1.72-1.06,2.57-1.6,1.28-.8,2.55-1.64,3.81-2.49s2.5-1.72,3.73-2.6c6.58-4.6,13.23-9.1,19.76-13.78s12.92-9.52,19-14.79c7.65-6.61,15-13.53,22.14-20.68q7.13-7.14,14-14.58,5.14-5.55,10.14-11.25t9.89-11.47c1-1.12,2.09-2.25,3.15-3.35a90.06,90.06,0,0,0-2.72,18.38c-.59,9.43.51,19.46,7.07,26.77.22.24.44.48.67.71a30.74,30.74,0,0,0,2.87,2.6,36.45,36.45,0,0,0,3.94,2.75c6,3.7,13,6.07,19.35,9,.21,12.28.49,24.58-.57,36.83-.75,10.31-1.05,20.89-1.81,31.23-.09,3.49.05,7-.18,10.47-.12,1.35-.33,2.67-.54,4a4.55,4.55,0,0,0,.25,2.35,3.52,3.52,0,0,0,.16.39,4.08,4.08,0,0,0,.42.72l.24.32h0l.3.33.32.29a4.55,4.55,0,0,0,1.17.74,4.12,4.12,0,0,0,.67.24,3.22,3.22,0,0,0,.6.13,4.55,4.55,0,0,0,2.08-.16l.3-.1.4-.17.34-.18.15-.09a2.2,2.2,0,0,0,.25-.17,4.11,4.11,0,0,0,.35-.27,2.89,2.89,0,0,0,.32-.29,3.08,3.08,0,0,0,.24-.26.11.11,0,0,0,.06-.07,1.1,1.1,0,0,0,.11-.14,4.59,4.59,0,0,0,.94-2.23c1-7.07.56-14.21,1.12-21.3.76-7.19.62-14.83,1.1-22.13a197.22,197.22,0,0,0,.7-22.54c-.06-5.46-.21-10.91-.41-16.36-.18-2.42,0-5.2-1.52-7.24-2.53-2.56-6.35-3.22-9.43-4.94-11.71-5.4-22.46-8.95-22.57-24-.53-9.88,1.25-19.61,4-29a120.34,120.34,0,0,1,3.78-12.34,64.32,64.32,0,0,1,2.61-6,97.6,97.6,0,0,0,10.51-49.33c0-16.92-.59-33.74-1.34-50.66,1.61-1.68-.49-5-2.7-4.44-2.37.71-2.15,3.49-2.4,5.51-.41,5.44-.69,10.89-.88,16.34,0,.72-.08,1.45-.11,2.17-.05,1-.11,2.06-.16,3.1-.56,13-.61,26-.89,39.06-1,6.61-1.81,13.32-4,19.66-2.18,7.6-6.26,14.33-9.34,21.56-.28.79-.56,1.58-.83,2.38-5.12,5.6-10.58,11-15.63,16.71C380.79,641,362.41,661,342,678.88c-14.24,11.49-29.38,21.82-44.56,32-12.47,8.29-27.1,12.52-42,13.3-5.82.81-11.67,1.86-17.59,1.19-14.53-1.27-29.33-6.88-40.28-16.8-5.17-5.1-9.95-10.59-14.74-16.05-6.11-7.31-10.74-15.63-15-24.14A266.49,266.49,0,0,1,148,622.27a2.08,2.08,0,0,0,1.42-1.36c5.56-2.06,10.91-4.67,16.31-7.1,8.69-3.94,17.6-7.42,26-11.93,21.65-11.19,42.42-24,64.38-34.61,3-1.35,6.18-2.3,9.25-3.51,2.07,5.55,4.9,10.77,7,16.32,2.44,6.15,4.26,12.52,6.53,18.71,2.32,5.23,9.47,1.92,7.75-3-2.61-7.14-4.76-14.45-7.67-21.47,1.23-1.81,1.84-4.64,2.74-6.44,2.8-6.57,5-13.36,7.34-20.11,6.54-19.35,15.52-37.69,22.36-56.93,3.93-11.55,9.31-22.49,14.18-33.66,6.12-14.84,11.25-30.11,18.23-44.58,3-5.78,6.14-11.48,9.21-17.23a233.6,233.6,0,0,1,17.67-27.16c6.83-8.89,13.89-18.43,24.33-23.24,5.73-2.27,12.13-4.22,18.32-3,13.3,3.88,20.87,16.86,29.52,26.75l.42.53c.74,1,1.48,1.94,2.3,2.82a10.88,10.88,0,0,0,3.15,2.48,49.27,49.27,0,0,0,7.57,3.18c10.57,3.94,21.71,5.86,32.47,9.11,3.73,1.48,7.43,3,11.14,4.54a10.16,10.16,0,0,1-.54,1.31q-2.62,7-5.3,14c-3.46,9.25-7.31,18.68-7.93,28.63-.42,8.33,1.37,17.89,11.58,17.95,3.72,0,7.34-1.21,10.78-2.54,5.93-2.24,11.86-4.6,17.25-8,3.27-2,6.32-4.29,9.69-6.5a91.38,91.38,0,0,1,12.12-6.16c4.78-2.07,2-9.07-2.84-7.32a110.82,110.82,0,0,0-12.4,6.51c-5.66,3.67-10.84,8.11-17,10.92-5.57,2.27-11.13,5.06-17.18,5.8-4.37.4-4.05-4.65-4.36-7.7-.11-10.79,3.94-21,6.93-31.21q2.08-6.84,4-13.75c5.41,2.18,10.86,4.26,16.44,6,9.74,2.93,19.17,6.9,29.14,8.9.33,2.63,1.6,5.79,1.92,7.36,3.57,9.84,7.39,19.64,11.25,29.37,2.33,5,4.94,9.89,6.93,15.06,2.6,6.59,6,12.81,9,19.23.69,1.41,1.27,3.22,2.52,4.34-.48,13-2.74,26-4.23,38.88-2.43,18.72-4.52,37.5-6.72,56.25-3.54,24.81-7.74,49.49-8.52,74.59-1.83,18.56-4.25,37-5.43,55.64-1.55,16.69-3,33.26-4.55,50-.17,1.07-.3,2.16-.43,3.25,0,.12,0,.24,0,.37l-.06.62c0,.2,0,.4-.07.59v0l-.18,1.43c0,.11,0,.22,0,.33-.07.5-.14,1-.22,1.52,0,.15,0,.31-.09.47-.06.34-.12.69-.19,1a3.54,3.54,0,0,0-.49,2.43c0,.13,0,.26.08.38a.19.19,0,0,0,0,.07,3.05,3.05,0,0,0,2.08,2.06,6.4,6.4,0,0,0,.73.05,3.24,3.24,0,0,0,3.21-2.45h0c0-.14.1-.29.14-.43a12.21,12.21,0,0,0,.28-1.29l.05-.36c0-.06,0-.11,0-.17.06-.48.11-1,.13-1.46,0-.2,0-.4,0-.59,0-.93.06-1.85.12-2.66,0-.34,0-.65.07-.95l.06-.42.09-.9c.36-3.71.77-7.44,1-11.16,2.13-25.5,4.41-51.55,7.22-77.08,2.56-18,3.21-36.17,5.4-54.21,1.68-12.43,4.08-24.75,5.84-37.16,3.51-28.11,7.34-56.23,9.82-84.43.12-4.48.3-9,.08-13.43a53.85,53.85,0,0,0,5-2c2.91-1.27,5.82-2.54,8.7-3.87,11.77-5.34,22.45-12.69,33.91-18.65,5.59-3.15,10.9-6.74,16.37-10.07,5.58-3.49,11.79-5.76,17.64-8.69,9.9-5,19.31-11,29.15-16.15l.08,0a3.8,3.8,0,0,0,4.31-1.89c1.06.06,2.16,0,3.19,0h1.85c9.47.09,18.83-1.08,28.21-2.07-.74,1.35-1.5,2.69-2.33,4-4.17,6.94-9.61,13-14,19.78-6.26,8.11-13.4,15.49-20.1,23.23-4.45,5.21-10.72,11.66-18.21,8.77-7.27-5-9.05-14.46-12.71-22,1-1.25.38-2.7-.7-3.64-1.31-1.5-2.24-4.52-4.79-3.55-4.08,1.59.49,11.85,1.14,15.08,1.92,7.43,4.8,15.07,11,20,9.56,7,22.23,1.09,28.63-7.45,6.37-7.7,13-15.21,19.38-22.86,5.82-8.29,11.64-15.82,17.26-24.38,1.15-2.24,3.91-5.13,4.32-7.75,7.07-.07,14.1,1.14,21.16,1.34,12,.28,24.14.48,36.18-.09a9.07,9.07,0,0,0,1.66-.19,8,8,0,0,0,5.6-4.26c.23-.3.44-.6.67-.88a66.32,66.32,0,0,1,9.7-10.16c3-2.57,6.66-4.39,10.72-3.66,3.73.4,7.64.53,11.07,2.19,4.38,2.3,7.41,6.35,10.77,9.87,3.81,4,7.65,8.07,10.56,12.82,6.08,10,10,21.06,14.82,31.68,4.84,13.41,8.34,27.29,11.8,41.12,4,16,10.62,31.18,15.5,46.92,3.62,11.69,8.84,22.78,12.9,34.3,1.22,2.79,3,10.3,5.51,14.46,1,1.63,2.1,2.75,3.35,2.87a3.15,3.15,0,0,0,.43,0c2.89.18,4.2-3,4.3-5.51.6-3.82,1-7.67,1.33-11.51.67-7.93,1.81-15.79,3-23.65.11-.81.22-1.63.34-2.43,5.78,1.92,11.41,4.42,17.34,5.88,8.38,2.08,17.12,1.64,25.58,3.21,9.51,1.85,19.19,2.17,28.86,2.47,7.78.91,15.17,2.42,23,3a519.37,519.37,0,0,1-6.32,53.36c-3.51,21.65-8.12,43.66-19.74,62.56C998.8,697.5,990.29,708,978,712.39c-7.95,3.07-16.57,3.55-24.95,4.66a142.39,142.39,0,0,1-19.91,1.2c-20.87-1.45-40.57-10.37-59.44-18.87-9.68-5.31-19.45-10.31-29.22-15.47C829.35,674.6,815,663.4,803.32,650c-4.46-5.63-8.45-11.61-13.14-17-2.26-2.16-3.48-6.56-7.15-6.35a2.2,2.2,0,0,0-.37.07h0a4.22,4.22,0,0,0-3,2.77,1.17,1.17,0,0,1,0,.11c-1.66,6.7-2.21,13.71-3.78,20.45-2,9.51-5,18.76-7.89,28a479.43,479.43,0,0,0-15.21,69c-.14,1-.28,2-.41,2.93-.22,1.62-.43,3.24-.63,4.87h0l1.31-.53,2.38-.91c.93-.36,1.86-.71,2.8-1l1.41-.49c.47-.17.94-.31,1.43-.46l.36-.09.36-.11c.25-1.68.52-3.35.79-5,0-.2.06-.39.1-.59q.63-3.86,1.31-7.7,1.34-7.6,2.89-15.15,2.67-12.53,5.56-25c4.72-19.78,11.29-39.16,13.1-59.54,4.07,4.86,7.49,10.22,11.39,15.21,1.29,1.66,2.65,3.28,4.09,4.82.76.81,1.51,1.62,2.28,2.41s1.54,1.59,2.32,2.37c1.18,1.17,2.38,2.32,3.6,3.43l1.25,1.09q2.89,2.46,5.83,4.9c3.41,2.83,6.87,5.62,10.41,8.29,1.51,1.15,3.05,2.28,4.6,3.38,1,.73,2.08,1.45,3.14,2.15a164.63,164.63,0,0,0,16.86,9.44c1.9,1,3.81,2,5.7,3,11.92,7.13,24.64,12.65,37.52,17.8,15.53,6.08,32.27,10.32,49,8.81,35.31-3,51.94-5.75,69.35-39.35,11.56-19.51,15.25-42.39,19.37-64.36,2-11,3.6-22.17,4.55-33.36,1.71-17.28,3.63-34.57,3.26-52,0-22.33-.77-44.65-.74-67,0-11.7-.21-23.41-1.09-35.07-1.55-22-4-43.82-5.58-65.77-.28-11.29,0-22.6-.62-33.9,5.66-4.06,12-7.84,17.94-12h0l.28-.19c.31-.22.62-.43.93-.66h0q.22-.18.45-.33l.24-.18c.38-.28.76-.56,1.12-.84l1.26-.95.09-.08c.23-.17.45-.35.66-.52l1.29-1,0,0,.37-.32a3,3,0,0,0,.27-.23h0a.9.9,0,0,0,.12-.1l.49-.43c.54-.45,1.05-.92,1.57-1.4a41.65,41.65,0,0,0,11.48-16.73C1073.9,287.68,1072.62,276.15,1072.34,265.05ZM128.73,547.77c-4.52-20.83-8-41.87-12.6-62.68-2.39-10.52-5.75-20.78-8.16-31.3s-4.52-21.18-6.81-31.76h0c-.24-1.12-.48-2.22-.72-3.33a0,0,0,0,1,0,0c-1.68-7.74-3.39-15.49-5.19-23.2h0c-.1-.44-.2-.88-.31-1.32h0c-2.62-11.24-5.41-22.45-8.48-33.59-2.94-10.14-6.24-20.16-9-30.34-1.56-5.91-3.43-11.78-4-17.87.07-1.8.19-3.84-1.48-5-1.18-.93-2.65-.86-4.08-1-4.36-.36-9.43-1-13.94-1.25-7.84-.25-14.56-4.68-21.08-8.6-14-10.83-32-36-25.66-54.34,8.47,5.21,13.3,14,18.4,22.34.85,1.42,1.73,2.8,2.61,4.18.91,2.58,3.31,6.32,6.41,4.21,1.94-1.38,1.23-3.88,0-5.51a17.51,17.51,0,0,1-2.33-5.13A50.29,50.29,0,0,1,30,249c.1-5.53-.53-11.43,1.44-16.69,2.85,3,4.15,7.11,6.17,10.63,4.65,8.52,9.73,16.85,14.88,25.06,2.15,2.35,6.24.06,5.4-3-.54-1.81-1.27-3.59-1.88-5.38-3.21-9.08-7.15-19.56-3.45-29.09,4-7.62,9.74,10.69,11.79,13.26a119.87,119.87,0,0,0,10,14.26c3.17,4.09,7.28,7.85,12.24,9.25a1.64,1.64,0,0,0,.21.25,3.27,3.27,0,0,0,2.21.83c10,.75,20.09.75,30.13,1.15,12.32,1.21,17.58,10.19,24.12,19.24,8.07,10.4,14.28,22,20,33.8,8,17.29,17.07,34.09,24.5,51.66,10.79,22.8,21.36,46.17,31.27,69.5,3.55,9.9,7.53,19.62,11.8,29.24,2.72,7.07,5.36,14.16,8.12,21.21a3.09,3.09,0,0,0-1.07.57,8.41,8.41,0,0,1-1.71,1c-3.22,1.83-6.59,3.4-9.85,5.18-15.87,9.37-32.37,17.64-48.34,26.86-16.09,9.47-31.11,20.62-46.67,30.92Q130,553.21,128.73,547.77Zm122.7,14.17c-8.94,4.86-18.24,9-27,14.21C211,583.85,197.28,591,183.5,598.06c-9.77,4.82-19.7,9.24-29.16,14.65-2.68,1.39-5.36,2.76-8.14,3.92-5.45-17.35-9.73-35.13-13.82-52.87,17.17-9.08,33-20.45,49.91-30,16-9.08,32.44-17.49,48.31-26.87,3.23-1.72,6.48-3.41,9.67-5.18a6.21,6.21,0,0,0,1.36-.69l.7,1.71c7.26,17.91,14.8,35.76,20.81,54.13C259.27,558.65,255.23,560,251.43,561.94ZM532.72,116.42c.21,0,.41.08.62.1-.43.55-.83,1.12-1.22,1.7C532.33,117.61,532.53,117,532.72,116.42Zm242,116.6c-6.22,6.86-15.27,8.57-24,9.93-4.24.51-7,.89-8.49,5.53-1.73,5-2.58,10.23-4.29,15.24-2.56,6.81-5.79,13.36-8.33,20.19-6,14.72-8.44,30.48-12.85,45.69-5.69,22.83-9.92,46-15.92,68.78-1.56,5.68-2.89,11.42-4.27,17.14a5.05,5.05,0,0,0-.7,2.45s0,0-.08,0c-5.58,3-11,6.27-16.53,9.33s-10.83,6.3-16.47,9a141.67,141.67,0,0,0-14.73,7.26c-10,6.31-20.18,12.32-30.63,17.89a206.58,206.58,0,0,1-31.05,15.47c-5.34-11.31-9.64-23.07-15.26-34.25-2-4.3-3.68-8.71-5.59-13-2.61-6-5.79-11.65-8.28-17.66a4.5,4.5,0,0,0,3.43-3.79c.86-9.45.82-19,1.51-28.41,1.94-22.06,2.6-44.19,2.46-66.32-.4-8.76.45-17.82-1.46-26.42-1.05-3.17-4.44-4-7.29-4.88a87.76,87.76,0,0,1-9.12-4.12,102.17,102.17,0,0,1-25.4-18.56c-4.17-5.49-8.44-11.22-10.65-17.81-7-24.42,1.31-50,6.91-73.95,2.71-10.37,5.42-20.77,8.44-31.07,2.71,6.13,7.56,11.61,13.26,13.28a30.25,30.25,0,0,0,19.4-.39,40.65,40.65,0,0,0,13.71-10.26c1.78-3.49-.43-7.49-1.2-11a40.86,40.86,0,0,0-8.79-15.78c.19-.23.37-.45.52-.66a64.36,64.36,0,0,0,5.59-8.45,2.78,2.78,0,1,0-5-2.5,77.7,77.7,0,0,1-4.41,8.56.73.73,0,0,0-.09-.08,15.42,15.42,0,0,0-3.81-2c1.37-2,2-5.6,2.82-7.23,1.21-3.09-3.32-5-4.63-2-.88,2.36-1.24,4.86-1.91,7.27a1.73,1.73,0,0,0-.52,1,19.82,19.82,0,0,0-3.18-.1,2.1,2.1,0,0,0-.2-2,68.4,68.4,0,0,0,2.81-8.36,2.47,2.47,0,1,0-4.76-1.32c-.65,2.7-1.51,5.33-2.4,8-.44,1.34-1.16,3.1-.54,4.43-.76.19-1.52.42-2.26.66-1.67.66-3.86,1.21-5.8,2.06q.79-2.77,1.46-5.58c2.42-10.6,5.78-20.94,8.83-31.36a2.23,2.23,0,0,0,2.09-.45,43.76,43.76,0,0,0,6.11-.55c3.06-.42,6.13-.85,9.14-.24,6.13,2.82,10.26,8.75,14.24,14,3.23,4.2,9.51-.44,6.49-4.77a65.52,65.52,0,0,0-9.88-11c-7.8-7.19-13.62-5.82-23-3.32a34,34,0,0,1-3.64.89,39.71,39.71,0,0,0,1.27-4.78,40.23,40.23,0,0,1,6.55-5.75c6.33-3.44,13.8-4.14,20.88-3.91,12.06.88,23.2,5.93,34.84,8.73a60.22,60.22,0,0,0,22.09,1.21c5.57-1,11.5-4,17-5.73,5.21-1.65,11.34-2.73,16.87-2C675,57.27,684,60.6,693.21,59.25a48.25,48.25,0,0,0,12.34-4.15l.52-.23c.39,1.7.81,3.41,1.18,5.12a57.15,57.15,0,0,0,9.38,21.08c3.14,4.2,7.07,7,10.83,10.71,3.16,3.2,5.62,7,8.17,10.69,5.68,8.15,11.23,16.56,14.43,26,2.74,9.39,1.41,19.29-1.11,28.56a140.71,140.71,0,0,0-2.88,30.5c.09,4,.32,7.95.7,11.9.27,3,.71,8.48,5,7.63,4.7-.43,9.12,1.69,13.28,3.59s7,5.34,9.41,9.09S778.37,229.48,774.76,233Zm-224-120.67a10.75,10.75,0,0,1,5,2.5c5.81,5.78,9,13.59,10.89,21.47-7.43,7.5-16.17,9.72-26,5.47a15.94,15.94,0,0,1-5.34-6.21,7.74,7.74,0,0,0,2.5-.47C547.75,137.33,556.84,120,550.81,112.35Zm480.86,438.2c-.14,3.72-.32,7.45-.54,11.16-7-.78-13.77-2.21-20.83-3.15-7.26-.63-14.56-.23-21.82-.82-4.64-.41-9.24-1.21-13.89-1.63-6.22-.56-12.5-.27-18.68-1.2-6.49-.94-12.65-3.31-19-4.74l-.25,0c2.69-19,5.47-38,8.51-57,5.16.54,10.26.84,15.54,1.15,17,1.07,34.07.6,51.09,1.34,2.11.1,4.25,0,6.38,0,4.16-.12,8.32-.23,12.37.8l.28.05c0,1,0,2,0,3C1031.25,516.46,1031.91,533.5,1031.67,550.55Zm33.65-279.31c-.14,7.22-.24,14.48-1.67,21.58a28.08,28.08,0,0,1-6.38,11.78h0a52.27,52.27,0,0,1-7.18,6.66c-2.29,1.8-4.68,3.47-7,5.08-5,3.53-9.94,7.11-15,10.58a9.56,9.56,0,0,0-4.33,5.16c-.67,2.15-.38,4.5-.32,6.71.25,8.14-.26,16.28-.35,24.41,0,16.91,3,33.62,4.21,50.47,2.85,25.15,3.22,50.43,3.46,75.71-1.35-.29-2.81-.37-4-.52-1.37-.07-2.75-.09-4.14-.09-1.89,0-3.8.05-5.7.09-2.77.07-5.54.15-8.3.07-11.45-.38-22.9-.42-34.34-.24-4.52.13-9.06.07-13.61,0-5-.08-9.92-.15-14.84,0,.86-5.36,1.77-10.73,2.68-16.09,6.08-40,11.32-80.19,16.53-120.36,1.77-12.05,2.28-24.24,3.89-36.3,1.26-7.77,1.78-16.15,5.88-23,2.88-4.49,7.6-7.32,12.67-8.71,4-1.18,8.71-2.8,12.94-4.35a2.42,2.42,0,0,0,3.2-.89.27.27,0,0,0,.06-.1,2.83,2.83,0,0,0,1.17-2,2.09,2.09,0,0,0-.64-1.57c.67-6.24,3.32-12.31,5.12-18.3,2.1-5.27,4.16-11,8.29-15,2.78,8.45,0,17.55-.73,26.16-.39,3.3-.82,6.62-.92,10-.38,2.56,1.7,5.16,4.42,4.51,2.41-.52,2.85-3.16,3.48-5.13s1.23-3.91,1.84-5.85c3.4-10.48,6.23-21.79,14.66-29.48,4.3,11.63-1,23.85-2.36,35.47a3.46,3.46,0,0,0,6.59,1c.83-3.45,1.33-7,2.68-10.31q.83-2.58,1.89-5h0c.63-1.5,1.34-3,2.09-4.41a85.36,85.36,0,0,1,5.63-9.29h0c.37-.56.76-1.11,1.16-1.66,1.24-1.75,2.53-3.46,3.85-5.14C1066,251.58,1065.25,261.68,1065.32,271.24Z"/><path class="cls-2" d="M497,348.25c-.88,4.27-2.79,8.21-3.78,12.44-.77,3.28-1.7,11.15-.33,16.1A54.46,54.46,0,0,0,487,375c-11-2.62-22.4-4-32.85-8.49-2.16-1.05-3.19-3.47-4.79-5.18-5.18-6.23-10.23-12.64-16.16-18.19s-13.31-10.05-21.58-10.38a42.87,42.87,0,0,0-6.4.46c-1,.16-2.06.35-3.08.58s-2,.49-3,.78l-1.5.47c-1,.33-2,.7-2.93,1.09h0c-1,.39-1.91.82-2.86,1.28s-1.85.94-2.76,1.46c-.45.25-.89.52-1.34.8-13.52,9.05-22.52,23.54-31.79,36.6a322.42,322.42,0,0,0-23.09,42.23c-4.73,11.41-9.24,22.9-13.82,34.36-4.72,11.29-10.33,22.16-14.38,33.73s-8.45,22.95-13.36,34.17c-4.35,11-8,22.24-11.8,33.41-1.28,3.75-2.86,7.56-4.44,11.33-.34-.74-.67-1.49-1-2.28-.16-.39-.33-.79-.49-1.2s-.33-.82-.49-1.25c-6.27-20.9-14.8-41.2-23.07-61.4-5.57-13-10.18-26.34-16-39.21-2.9-6.56-5.22-13.35-7.85-20-5.58-13.06-11.23-26.11-17.11-39-7.36-15.63-14.74-31.27-21.67-47.12-11.48-22.28-20.41-46.76-35.18-67.27l-3-4.11c-.71-1-1.41-2-2.13-2.92s-1.56-2.07-2.36-3.06c-.44-.58-.9-1.14-1.37-1.69-.61-.73-1.23-1.44-1.86-2.12q-.33-.36-.66-.69c-.58-.62-1.19-1.21-1.79-1.78l-.62-.56c-.66-.59-1.33-1.15-2-1.68-.28-.22-.57-.44-.86-.64s-.49-.35-.74-.52l-1.15-.74-.59-.35-.45-.25-.73-.4-.06,0c-.32-.17-.64-.32-1-.47s-.65-.3-1-.45l-.1,0c-.32-.14-.64-.27-1-.39h0c-.66-.25-1.33-.46-2-.67-.33-.09-.67-.2-1-.28l-.11,0c-.3-.08-.6-.14-.91-.21l-.13,0-.81-.16-1.13-.19a39.79,39.79,0,0,0-4.08-.19h-.87c1.86-7.7,3.4-15.47,5.84-23,4.22-14.71,11.15-25.45,26.21-30.89,17.45-6.12,36.08-8.26,54.41-10.06,17.87-2,35.59-5.89,53.62-6.11,19.68.52,39-3.58,58.07-7.58-1.46-12.5-4.69-24.68-7.37-37q-4.65-19.92-7.45-40.19c-.7-6.47-3.18-17.12,3.47-19,2-.5,3.8.45,5.4,1.55,2.55,1.88,4.95,4,7.35,6,15.12,13.89,25.19,32,36.83,48.61,2.76,3.85,5.58,7.67,8.59,11.31a55,55,0,0,0,4.32,4.58,15.58,15.58,0,0,0,2.32,1.76c.79-.08,1.58-.22,2.38-.34,8.33-1.1,16.56-2.86,24.91-3.79,27.73-2.27,55.31-2,82.82-4-.72,1.25-1.46,2.51-2.2,3.75s-1.49,2.48-2.24,3.73c-.42.73-.85,1.46-1.28,2.18s-.93,1.57-1.41,2.36c-.36.57-.71,1.15-1.06,1.72-4.94,8-10.29,15.7-14.81,23.9-.23.4-.44.8-.65,1.2-1.52,2.82-2.93,5.68-4.19,8.64-6.95,13.68-10.51,28.85-12,44.06-1.18,19.39,9.69,38.33,25.1,49.59,10.11,7.2,21,14,28.14,24.45,3.45,5.25,4.47,11.57,4.72,17.73C497.55,340.67,497.74,344.78,497,348.25Z"/><path class="cls-2" d="M552,762.19c0,.12,0,.24,0,.37l-.06.62c0,.14,0,.28,0,.43a.78.78,0,0,0,0,.16v0l-.18,1.43c0,.11,0,.22,0,.33-.07.5-.14,1-.22,1.52,0,.16,0,.31-.09.47-.06.34-.12.69-.19,1a3.54,3.54,0,0,0-.49,2.43c0,.13,0,.26.08.38a.19.19,0,0,0,0,.07c-10,.55-20,.94-30,.93-24.2-.37-48.34,1.08-72.47,2.65q-61.53,1.58-123.08,1.63-16.59,0-33.17-.13c-20.78-.33-41.48-2.43-62.28-2a519.26,519.26,0,0,1-75.21-4.06c-17.29-1-34.88-1.53-51.17-8.07C85.89,755.89,68.94,747.72,67,727c-1.22-8.53-3.77-16.9-3.55-25.58-.42-22.83,1.95-45.5,5.07-68.09C74.27,581.54,78.1,529.5,85.5,477.89c3-19.48,5-39.08,6.88-58.69Q94,426.12,95.5,433q1.44,6.38,2.87,12.74c.72,3.11,1.43,6.22,2.15,9.31.57,2.46,1.14,4.9,1.72,7.36,4.45,15.59,8.71,31.23,11.55,47.21,7.17,37.09,14.91,74.19,26.53,110.17,6.14,20.26,15.29,39.33,25.57,57.77,4.84,9.38,11.34,17.71,18.43,25.49,3.23,3.55,6.57,7,10,10.33,11.68,10.5,27.1,16.29,42.61,17.9l1.32.13a67.81,67.81,0,0,0,13.28-.47h0c1.55-.18,3.09-.38,4.64-.58,3.62-.47,7.24-.95,10.87-1.14,12.15-1.56,23.4-6.39,33.8-12.66.86-.52,1.71-1.06,2.57-1.6,1.28-.8,2.55-1.64,3.81-2.49s2.5-1.72,3.73-2.6c6.58-4.59,13.23-9.09,19.76-13.78s12.92-9.52,19-14.79c7.65-6.61,15-13.53,22.14-20.68q7.13-7.14,14-14.58,5.14-5.55,10.14-11.25t9.89-11.47c1-1.12,2.09-2.25,3.15-3.35a90.06,90.06,0,0,0-2.72,18.38c-.59,9.43.51,19.46,7.07,26.77.22.24.44.48.67.71a28.18,28.18,0,0,0,2.87,2.6,36.45,36.45,0,0,0,3.94,2.75c6,3.7,13,6.07,19.35,9,.21,12.28.49,24.58-.57,36.83-.75,10.31-1.05,20.89-1.81,31.23-.09,3.49.05,7-.18,10.47-.12,1.35-.33,2.67-.54,4a4.55,4.55,0,0,0,.25,2.35,3.52,3.52,0,0,0,.16.39,5.2,5.2,0,0,0,.42.72l.24.32h0l.3.33.32.29a4.55,4.55,0,0,0,1.17.74,4.12,4.12,0,0,0,.67.24,3.22,3.22,0,0,0,.6.13,4.55,4.55,0,0,0,2.08-.16l.3-.1.4-.17.34-.18.15-.09a1.84,1.84,0,0,0,.25-.17,2.74,2.74,0,0,0,.35-.27,2.15,2.15,0,0,0,.32-.29,2,2,0,0,0,.24-.26.11.11,0,0,0,.06-.07.75.75,0,0,0,.12-.14c15.54-.76,31-2.51,46.58-2.81,16.43-.43,32.88-.05,49.3-.79C545.11,762.56,548.56,762.37,552,762.19Z"/><path class="cls-2" d="M1059,389.74c-1,20.65-3.08,41.26-3.23,61.95,0,20.52-.81,41-2.13,61.53-1.35,22.75-1.41,45.55-2.7,68.31-2.68,28.18-3.12,55.54-4.17,83.67-1.33,21.91-4.27,47.72-22.86,62-6.36,3.45-13.65,5-20.61,6.79-20.19,4.31-40.53,7.94-61.13,9.48-41.26,2.88-82.53,5.69-123.76,9-11.77.68-23.59,1-35.33,1.6-20.5.77-40.78,3.64-61.15,5.8-21,2.24-42,3.19-63.06,4.84-16.4,1.44-32.69,4-49.13,4.9-16.1.68-32.24.23-48.34,1.15l-4.65.29h0c0-.14.09-.29.14-.43a12.21,12.21,0,0,0,.28-1.29l.05-.36c0-.06,0-.11,0-.17.06-.48.11-1,.13-1.46,0-.2,0-.4,0-.59.05-.93.06-1.85.12-2.66,0-.34,0-.65.07-.95l.06-.42.09-.9c16.49-.73,33-.95,49.51-1.06,20.57-1,40.9-4.57,61.45-5.93,20.9-1.5,41.82-3,62.64-5.36q10.7-1.47,21.42-2.49c-.15,1-.28,2-.41,2.93-.23,1.62-.44,3.24-.63,4.87l1.31-.53,2.38-.91,2.8-1,1.41-.49c.47-.16.94-.3,1.43-.45l.36-.1.36-.11c.25-1.68.52-3.35.79-5,0-.2.06-.39.1-.59q.63-3.86,1.31-7.7,1.34-7.6,2.89-15.15,2.67-12.53,5.56-25c4.72-19.78,11.29-39.16,13.1-59.54,4.07,4.86,7.49,10.22,11.39,15.21,1.3,1.66,2.65,3.28,4.1,4.82.75.81,1.51,1.62,2.27,2.41s1.54,1.59,2.32,2.37q1.77,1.77,3.6,3.43l1.25,1.09q2.89,2.46,5.83,4.9c3.41,2.83,6.87,5.62,10.41,8.29,1.51,1.15,3.05,2.28,4.6,3.38,1,.73,2.08,1.46,3.14,2.16a164.55,164.55,0,0,0,16.86,9.43c1.9,1,3.81,2,5.7,3,11.92,7.13,24.64,12.65,37.52,17.8,15.53,6.08,32.27,10.32,49,8.81,35.31-3,51.94-5.75,69.35-39.35,11.56-19.51,15.25-42.39,19.37-64.36,2-11,3.6-22.17,4.55-33.36,1.71-17.28,3.63-34.57,3.26-52,0-22.33-.77-44.65-.74-67,0-11.7-.21-23.41-1.09-35.07-1.55-22-4-43.82-5.58-65.77-.28-11.29,0-22.6-.62-33.9,5.66-4.06,12-7.84,17.94-12l.28-.2c.31-.22.62-.43.93-.66l.45-.33.24-.18.64-.47c.36-.26.7-.52,1-.78l.7-.54.09-.08c.23-.17.45-.34.66-.52l1.29-1c.07-.06.14-.11.21-.18s.13-.11.19-.16a3,3,0,0,0,.27-.23h0l.12-.11c.17-.14.33-.27.49-.43.54-.45,1.05-.92,1.57-1.4,0,4.15,0,8.3,0,12.46C1059.66,348.36,1060,369.06,1059,389.74Z"/><path class="cls-2" d="M1057.63,237.84h0l-.61.84L1053.8,243l-1.08,1.46c-.35.48-.7,1-1,1.46s-.7,1-1,1.48-.68,1-1,1.5-.66,1-1,1.52l-.65,1c-.07-3.63-1.17-12.21-4.4-15.31a4.45,4.45,0,0,0-1.43-.93,3.5,3.5,0,0,0-2.09-.09,5.48,5.48,0,0,0-.78.26s0,0,0,0a8.6,8.6,0,0,0-1.93,1.24c-.65.58-1.29,1.17-1.9,1.78a46,46,0,0,0-10.17,15.05c.1-5.28.31-11.25-2.69-15.85a6.41,6.41,0,0,0-.73-.89l-.27-.26-.27-.23a6.7,6.7,0,0,0-.58-.4c-.21-.12-.41-.22-.62-.32a4.88,4.88,0,0,0-.64-.23,6.89,6.89,0,0,0-6.81,2.05c-6.9,7.26-9.62,17.47-11.8,27-.35,2.28-1.78,6.85-2,10.53-2.67.4-5.29,1.05-7.93,1.53a43.2,43.2,0,0,0-5.7,1.09c-1.11.29-2.18.62-3.23,1l-1,.4c-.68.27-1.34.56-2,.88s-1.29.64-1.92,1-1.23.74-1.82,1.14c-.3.2-.59.4-.87.61-.58.42-1.14.87-1.67,1.33A26.14,26.14,0,0,0,964.62,297c-4.4,15.39-5,31.52-6.9,47.33-3.76,24.21-7.22,48.48-10.06,72.83-7.07,53.66-16,107.07-22.26,160.84-2.82-9.77-7-19.07-10-28.8-4-13.46-8.62-27-13.42-40.21-2.19-6.69-3.44-13.64-5.12-20.46-4.05-14.74-7.52-29.75-14.43-43.48-3.42-7.57-6.13-15.53-10.72-22.5-3.93-6.49-10-12.39-15-18.24a45.79,45.79,0,0,0-8.31-8,17.72,17.72,0,0,0-1.87-1.23,21.74,21.74,0,0,0-3-1.42,28.81,28.81,0,0,0-3.15-1,17.83,17.83,0,0,1,.19-2.92c.23-3.19.64-6.53,1.2-10.18a69.28,69.28,0,0,0-2.63-36.76c-2.63-8.06-5.38-16.34-10.46-23.23-6.33-8.08-12.19-16.51-18.67-24.47-14.16-16.43-9.07-35.71-3.58-54.54,2.5-8.69,5-17.39,7.26-26.16.36-1.51.7-3,1-4.54s.65-3,1-4.54c.15-.76.31-1.52.45-2.28q1.13-5.7,2.12-11.42c.81-4.57,1.59-9.15,2.42-13.72.59-3,1-6,1.41-9.06l.15-1.25c.11-1,.2-2,.29-3,.06-.6.1-1.19.15-1.78,0,0,0-.09,0-.13s0-.14,0-.21l.15-2.08a4.93,4.93,0,0,1,0-.55c0-.77.08-1.54.11-2.3s.07-1.55.1-2.33c0-.27,0-.54,0-.81,0-.67,0-1.34,0-2,12.21,1,24.42,2,36.64,2.85,21.54,1.72,43,4.09,64.68,4.19,20.85.31,41.49,3.51,62.25,5.13a234.29,234.29,0,0,1,29,4.19c10.26,1.73,20.53,5.16,27.83,13,8.78,9.27,11.54,22.91,12.54,35.26C1056.53,224,1057.19,230.91,1057.63,237.84Z"/><path class="cls-3" d="M767.91,117.18c-5.17-9.67-11.55-18.9-20-25.93a52.12,52.12,0,0,0-6.47-5.41,28.65,28.65,0,0,1-10.95-16.68c-.12-1.3-1.5-3.4.32-4,1.68-.32,1.69,1.81,2,2.92,1.66,7.88,7.71,13.49,14,17.83,3.5,3.35,7.15,6.16,10.25,9.84a104,104,0,0,1,13.5,20A1.52,1.52,0,0,1,767.91,117.18Z"/><path class="cls-3" d="M784.31,133.67c-1.65-13.72-7.6-26.86-15.87-37.78a31.49,31.49,0,0,0-5.35-5c-.89-.7-2.08-1.46-2.12-2.73a1.12,1.12,0,1,1,2.23-.12c3,2.24,6.18,4.2,8.52,7.17a77.79,77.79,0,0,1,10,15.82c1.33,3,9.72,24.05,4.67,24.28A1.9,1.9,0,0,1,784.31,133.67Z"/><path class="cls-3" d="M799.72,158.1a1.87,1.87,0,0,1-1.82-1.88c-.13-3.28-.22-6.58-.31-9.87-.21-4.6-.07-9.56-.21-14.09a53.78,53.78,0,0,0-2.22-13,60.24,60.24,0,0,0-10-23.31,1.17,1.17,0,0,1,.16-2.33c2.85-.11,9.22,13.43,10.34,16.31a131.34,131.34,0,0,1,4.62,16.32c1.12,6.26.68,12.65,1,19,.1,3.13.16,6.27.29,9.17C801.65,155.94,801.84,158.05,799.72,158.1Z"/><path class="cls-3" d="M778,315.11c-1.17-19.72,2.53-39.58,9.66-57.91,1.86-5.39,3.77-10.8,4.68-16.45a57.31,57.31,0,0,0-5.08-30.65c-3.65-8.56-10.16-15.09-15-22.86-1.29-2-7.24-13.59-4-14a1,1,0,0,1,.92.94,32.57,32.57,0,0,0,4.4,9.76c3.19,5.07,7.36,9.18,10.91,13.91a60.23,60.23,0,0,1,11.64,41.71c-1.58,11.7-7,22.37-10.17,33.64a141,141,0,0,0-4.62,25.49,129.44,129.44,0,0,0-.32,16.12A1.49,1.49,0,0,1,778,315.11Z"/><path class="cls-3" d="M812.32,369.35A36.76,36.76,0,0,0,808,355.26c-2.1-3.83-5.05-7.11-7.27-10.87a119.81,119.81,0,0,1-9.05-18.09c-1.25-3.19-2.89-6.34-3.2-9.8a64.8,64.8,0,0,1-.14-8.59c.23-2.65,0-5.68,1.58-8a1.18,1.18,0,0,1,1.85,1.45,3.94,3.94,0,0,0-.58,2.19A53,53,0,0,0,792.32,318a170.81,170.81,0,0,0,12.5,25.79c4.08,5.93,8.4,11.82,10,19,.28,2,2.45,7.74-.56,8.13A1.81,1.81,0,0,1,812.32,369.35Z"/><path class="cls-3" d="M827.33,380.66a2.12,2.12,0,0,1-1.71-2.59c.11-1.81,0-4.1,0-5.79a59.72,59.72,0,0,0-8-27.87c-.73-1-1.28-2.9.53-3.05a1.26,1.26,0,0,1,1.13.79,85.94,85.94,0,0,1,7.45,14.38,59.2,59.2,0,0,1,3.15,18.14C829.81,376.74,830.45,380.85,827.33,380.66Z"/><path class="cls-3" d="M792.74,402.55a2.1,2.1,0,0,1-1.77-2.37c.38-2.35.84-4.69,1.29-6.9a66.28,66.28,0,0,0,1.83-13.06c0-7.69-.35-15.24-2.35-22.64-.29-2.66-7.56-14.88-3.32-15.2a1.17,1.17,0,0,1,.8,1.66v-.13c.92,4.68,4.29,8.56,5.66,13.14a69.1,69.1,0,0,1,2.67,31.5c-.79,4.17-1.55,8.35-2.51,12.49A2.1,2.1,0,0,1,792.74,402.55Z"/><path class="cls-3" d="M754.28,337.81a2.08,2.08,0,0,1-2-2.08c0-7.05-.18-14.17,1.06-21.13,2.13-11.65,7.07-22.24,11.91-32.91,2.25-6,1.61-12.43,1.74-18.67a1.12,1.12,0,0,1,1.12-1.08,1.11,1.11,0,0,1,1.07,1.12c0,1.67,0,3.34.06,5a38.2,38.2,0,0,1-1.85,16.28c-2.58,7-5.43,13.85-7.44,21A67.55,67.55,0,0,0,756.43,328c0,2.6,0,5.21-.07,7.81A2.07,2.07,0,0,1,754.28,337.81Z"/><path class="cls-3" d="M768.86,397.59c-2.56-1.21-.89-3.77-.22-5.66a37.1,37.1,0,0,0,2-12.83c-.09-8.18-1.79-16.27-3.43-24.23a96.93,96.93,0,0,1-.91-23.13c.17-1.18.46-3.08,2-3a1.14,1.14,0,0,1,.6,1.94c-1.6,18,7.33,35.07,5.91,53a44.9,44.9,0,0,1-2.33,11.23C772.13,396.61,770.76,398.4,768.86,397.59Z"/><path class="cls-3" d="M473,193.54a1.71,1.71,0,0,1-.6-2.31c4-7.19,8-14.5,13-21.08,6.47-8.07,13.63-15.67,18.6-24.81,7.16-12,11.22-25.68,15.55-38.89,1.57-5,2.73-10.26,5-15.06.72-1,.81-3,2.3-2.85,1.24.21,1.2,1.61.67,2.41-3.3,7-4.2,14.79-6.58,22.09-4.14,13.86-9.26,27.49-17.2,39.66-5.41,8.44-12.84,15.34-18.47,23.61-3.49,5.43-6.81,11-9.9,16.63A1.71,1.71,0,0,1,473,193.54Z"/><path class="cls-3" d="M466.75,249.39a1.85,1.85,0,0,1-1.8-1.86,127.32,127.32,0,0,1,1-14.86,54.77,54.77,0,0,1,3.75-14.52,95,95,0,0,1,8.44-18.32c3.95-7.68,9.79-14,15.1-20.67-.7-1.67,2-2.28,2.73-.95a1.71,1.71,0,0,1-.16,1.69,46.62,46.62,0,0,1-3.31,4.93,117,117,0,0,0-18,30.78,71.65,71.65,0,0,0-5.76,26.3c-.08,1.89-.13,3.78-.2,5.68A1.84,1.84,0,0,1,466.75,249.39Z"/><path class="cls-3" d="M460.6,272.32a62.59,62.59,0,0,1-3.94-50.6,54.55,54.55,0,0,1,4.39-9.31,3.49,3.49,0,0,1,1.51-1.53,1.18,1.18,0,0,1,1.59,1,1.32,1.32,0,0,1-.51,1.14c-.28.44-.52.9-.76,1.36A63.43,63.43,0,0,0,460.5,262a57.26,57.26,0,0,0,3.4,8.27A2,2,0,0,1,460.6,272.32Z"/><path class="cls-3" d="M515.91,321.67c-2.08-9.51-9-16.76-15.17-23.91a193.23,193.23,0,0,1-15.58-19.62c-5.88-10.87-7.64-27.68-3.11-39.26a1.37,1.37,0,0,1,2.49-.54,1.61,1.61,0,0,1,0,1.24,27,27,0,0,0-.63,3.9c-1.06,13.53.67,28.36,10.35,38.56,6.88,9,15.22,17,21.28,26.65,1.48,2.48,7.4,13.62,3,14.6A2.25,2.25,0,0,1,515.91,321.67Z"/><path class="cls-3" d="M529.6,355.41c-1.71-.73-1.77-2.7-1-4.14a60.8,60.8,0,0,0,2.34-9.46,79.11,79.11,0,0,0-4-33.68,1.9,1.9,0,0,1,0-1.48,1.17,1.17,0,0,1,2,.12c6.25,11.77,8.06,25.85,6,39C534.18,348.51,534,356.87,529.6,355.41Z"/><path d="M429.58,521.3c-5.9-3.81-8.25-11.56-9.27-18.22-.23-1.94-.26-3.89-.42-5.83a1.43,1.43,0,1,1,2.85-.33c.39,7.87,1.78,15.91,7.25,21.83C431.64,518.92,431.19,521.59,429.58,521.3Z"/><path d="M418.17,528.61c-1.51-.88-2.25-2.66-3.31-4-1.35-2-2.72-3.9-4.22-5.75-3.31-4.16-8.76-7.23-9.42-12.94-.51-4-.35-8-1.44-11.83-.3-1.91-2.92-4.72-.37-6,2.38-.75,2.86,2.49,3.57,4.06a34.14,34.14,0,0,1,1.49,8.73c0,6.28,1.42,8.26,5.84,12.47,3.66,3.66,6.09,8.27,8.81,12.6a1.33,1.33,0,0,1,1.76.54C421.68,528.07,419.42,529.06,418.17,528.61Z"/><path d="M410.76,488.18c-2.11,0-1.81-3.22-2.41-4.68a76.78,76.78,0,0,1-1.92-9.92,2.19,2.19,0,0,1,4.35-.5c.27,4.47.65,8.93.72,13.4a1.07,1.07,0,0,1-.88,1.71Z"/><path d="M780.8,630c-1.65-.34-2.52-2.59-3.37-3.71a125.15,125.15,0,0,0-11.87-17.08,3.25,3.25,0,0,1,.69-4.5c4-2.52,6.13,3.29,7.89,5.92,3.05,5,5.16,10.45,7.41,15.82C784.5,626.22,782.94,630.29,780.8,630Z"/><path d="M739.34,635.7a2.06,2.06,0,0,1,.81-3.79c4.22-.66,8.48-.95,12.7-1.59,5.88-1,11-3.71,16.95-4.33a1.19,1.19,0,0,1,1.31,1,1.2,1.2,0,0,1-1.05,1.32,21.43,21.43,0,0,0-4,.86c-3.79,1.28-7.4,3-11.25,4.13a93.67,93.67,0,0,1-9.38,1.76C743.44,635.22,741.21,636.42,739.34,635.7Z"/><path d="M760.83,617.46a137.17,137.17,0,0,1-16.44-6c-4.84-1.88-8.23-5.81-10.3-10.47a15.47,15.47,0,0,0-2.87-3.36c-1.41-1.26-4.11-2.54-2.51-4.75,1.82-2.12,4.08.4,5.54,1.69,3.64,2.94,4.44,7.92,7.9,11,5.58,4.2,12.43,6,18.59,9.16.62.24,1.33.49,1.4,1.29A1.31,1.31,0,0,1,760.83,617.46Z"/><path d="M655.79,690.28c-5.15-1.34-9.82-4-14.39-6.69a85.67,85.67,0,0,1-12.64-8.41,82.48,82.48,0,0,1-7.47-7c-.71-.92-1.79-1.79-1.89-3a1.23,1.23,0,0,1,1.24-1.2c.94,0,1.11,1,1.66,1.51,6.9,7.61,16.42,12.53,25.26,17.35a46.18,46.18,0,0,0,9.28,3.73A1.94,1.94,0,0,1,655.79,690.28Z"/><path d="M682.94,686.22a58.91,58.91,0,0,1-9.36-1.73c-5.33-1-10.69-2.19-15.39-5-1.11-.63-2.16-1.38-3.21-2.12-.64-.45-1.36-1.11-1.24-2,.19-1.64,3-1.86,3.18-.11,7.5,4.78,16.77,5.42,25.24,7.11,5.59.47,11.08-1.65,16.52-2.27a2,2,0,0,1,1.74,3.11c-1,1.1-2.8.83-4.16,1.21-4.42.72-8.83,2.06-13.34,1.81Z"/><path d="M922,626.89a2.73,2.73,0,0,1-2.29-3.06c.58-3.37,1.42-6.7,1.7-10.12.31-6.48.31-13.06,2.05-19.36.63-1.66,1.44-6.89,4-6,.78.39,1.51.91,2.3,1.27a1.21,1.21,0,0,1,.43,1.64c-.65,1.07-1.82.36-2.61-.11-1.58,8.22.1,16.37-.59,24.61a52.09,52.09,0,0,1-2,9.14A2.73,2.73,0,0,1,922,626.89Z"/><path d="M893.1,628.23a1.69,1.69,0,0,1,0-2.37c2.29-2.39,4.55-4.81,6.83-7.22,4.56-4.9,10.59-8.26,14.08-14.15,1.18-1.43,4.07-6.51,6.1-4.11a1.3,1.3,0,0,1-.52,1.76c-2.66,1.72-3.78,5.09-5.76,7.49-2.66,3.93-6.88,6.29-10.09,9.69-2.85,2.92-5.41,6.08-8.31,8.94A1.68,1.68,0,0,1,893.1,628.23Z"/><path d="M901,654.08a2.38,2.38,0,0,1-2-2.67,110.84,110.84,0,0,1,2.77-11.23c1.32-3.73,2-8.27,5.26-10.86,1-.69,2.94-1.41,3.4.22.27,1.09-.74,1.63-1.64,1.82-2,1.4-2.32,4.43-2.9,6.6-.93,4.68-1.61,9.4-2.22,14.12A2.38,2.38,0,0,1,901,654.08Z"/><path d="M426.6,471.79a1.78,1.78,0,0,1-1.75-1.8c.11-1.63.16-3.26.25-4.89.33-5.07.71-10.13.85-15.21.4-13.29-1.3-26.73.89-39.91,1.48-6.67,2.93-13.21,4.26-19.88a37.76,37.76,0,0,1,8.58-17.53c1.59-1.54,3.49-4.41,6-3.39.93.4,2,1.45,1.22,2.47a1.38,1.38,0,0,1-2.09,0c-8.3,7.11-10.18,18.39-12,28.6-1.07,5.33-2.66,10.5-3,15.72-.31,3.74-.37,7.46-.43,11.21,0,12.18.17,24.36-.65,36.53-.11,2.11-.15,4.22-.3,6.32A1.8,1.8,0,0,1,426.6,471.79Z"/><path d="M767.48,562.18c-2.57-.19-1.71-3.19-1.64-4.91.39-8.13,2.89-15.9,4.62-23.8,1.69-7.43,3.33-14.88,5.09-22.29,2.81-9.76,6.4-19.44,9.51-29.09a129.61,129.61,0,0,0,5.86-20.32c1.59-7.54,4.28-14.79,6.11-22.27,2.44-7.92,4-17.13,10.42-22.92,1.61-1.29,3.6-.06,2.59,2-.47.89-1.1,3-2.46,2.29-4.39,8.27-5.29,17.84-7.73,26.77-1.34,5.14-3.05,10.19-4.05,15.41l.12-.58c-1.43,7.87-4.32,15.36-7.07,22.86-2.93,9.32-7,18.27-9.67,27.67-2.29,8.6-4.18,17.31-6.21,26-1.35,5.35-2.81,10.39-3.28,15.82-.14,1.85-.23,3.68-.29,5.53A1.91,1.91,0,0,1,767.48,562.18Z"/><path d="M431.65,379.78a63.85,63.85,0,0,1-8.31-3.65c-2.53-1.48-.24-5.37,2.28-3.87,2.27,1.54,4.42,3.22,6.65,4.82a2.69,2.69,0,0,1,1.31,1.58A1.23,1.23,0,0,1,431.65,379.78Z"/><path d="M417.42,402.75a2.3,2.3,0,1,1,.07-4.59,75.74,75.74,0,0,1,7.67.77c1.33.38,4-.1,4.14,1.73a1.28,1.28,0,0,1-1.13,1.23A50.94,50.94,0,0,1,417.42,402.75Z"/><path d="M414.55,437a2.65,2.65,0,0,1-.58-5.07c3.7-1.46,7.51-2.67,11.34-3.76a1.25,1.25,0,0,1,1.63-.89c1.06.46.65,1.7.09,2.41-1.67,1.82-4.29,2.49-6.25,4C418.7,434.64,417,437,414.55,437Z"/><path d="M800.54,447.86c-1.32-.22-3.34.27-4-1.16-.53-1.27,1.3-2.37,2.33-1.72A90.3,90.3,0,0,0,810,443.45a2.07,2.07,0,1,1,.73,4.06A63.52,63.52,0,0,1,800.54,447.86Z"/><path d="M802.1,476.19c-3.3-.72-6.37-2.16-9.56-3.24-1.19-.3-3-.86-2.18-2.44.92-1.25,2.75-.5,4.06-.47,2.91.39,5.81.81,8.72,1.24A2.51,2.51,0,1,1,802.1,476.19Z"/><path d="M787.43,519.81a56.07,56.07,0,0,0-10.4-9.22c-1.65-.68-1.52-2.77.31-2.51h0c.55.1,1.23,0,1.57.53,4.45,1.93,9.07,3.88,12.64,7.24C794.14,518.52,790.05,522.48,787.43,519.81Z"/></g></g></svg>