<svg xmlns="http://www.w3.org/2000/svg" viewBox="0 0 791.91 1221.08"><defs><style>.cls-1{fill:#f7941d;}.cls-2{fill:#fff;}</style></defs><title>Recurso 45</title><g id="Capa_2" data-name="Capa 2"><g id="Capa_1-2" data-name="Capa 1"><path class="cls-1" d="M542.29,651.43c5.93,1.55,3.6,10-.51,12C494,762.39,482.65,875.1,464.16,982.53c-1.13,17.77-7.47,13.43-15.63,1.74-22.91-28.49-32.84-65.78-42.1-100.58-14.71-59-21.44-120.44-12.13-180.89-.07-50.93,16.72-56.86,61.24-71.77,18.55-10.33,24.64,39.47,82.08,19.65h0A3.21,3.21,0,0,1,542.29,651.43Z"/><path class="cls-1" d="M694.77,399.92c61.37,84.88-26.17,222-28.64,319.27-11.12,97,11.06,195.32-2.84,292-4.43,18.18-8.26,37.54-20.54,52.28-12.92,16.7-32.48,5.34-33.29-13.77-4.42,11.14-6.33,24-13,33.94-11.14,7.94-18.49-7.45-17.74-17-21.47,47.06-81.15,77.53-66.18-2.33,5.75-30,21.31-57,29-86.55,18.16-59.3,25.61-120.66,35.67-181.64a500.71,500.71,0,0,1,27.86-127.81c3.09-11.76,10.2-22.54,11.89-34.55-2.72-2.47-6.67-2.61-9.57-4.77-10.07-9.45,14.31-21.14,18.84-28.16,18.43-19.74,31.86-43,42-67.94C711.49,458.31,657,372,570.59,384.65c-32.83,7-74.43,33.67-85.61,65.62-7.61,5.5-15.58-10.32-21.71-14.22-32.71-27.48-38.83,9.14-27.27,35.22.83,5.35,10.5,13.34,3.06,17.13h0c-32.5,14.87-64.51,33.33-101.87,28.76-17.16,1.74.46-38,4.38-45.58,6.69-14.08,16.42-26.3,26.39-38.16C445.23,346.65,607,309.54,694.77,399.92Z"/><path d="M599.27,511.78c7.79-.22-3.89,29.7-4.32,35.36-4.18,28.23-15.4,62.62-33.48,16.52-.72-3-4.09-8.46.18-10.11,1.84-.44,3.65,1.19,4.08,2.9,14.41,43.9,17.32,14.15,22.7-11C592.59,536.09,592.11,518,599.27,511.78Z"/><path d="M656,535.57c.13,3,2.91,16.15-1.91,15.6-5.14-1.49-2.06-8.49-3-12.35-.51-14.72-17.06-20.7-29.7-20.53C599.56,509.77,652.62,506.05,656,535.57Z"/><path d="M588,485.46a2.52,2.52,0,0,1-2.61,2.85c-4.74-.89-2.63-10.16-3.64-13.88-2-30.6-26.41-32.6-50.62-37.55-1.88-1.72-1-5.26,1.82-5.09C565.23,432.47,590.87,450.85,588,485.46Z"/><path d="M633.44,556.15c.4-14-8.88-22-26.43-15,5.49,10.2,12.69,22.07,24.59,25.65A41.17,41.17,0,0,0,633.44,556.15Zm2.67-13.91c4.46,6.06,4.91,30.11-3.54,31.57-11.51-1.5-20.66-11.19-25.88-21-8.23-9.51-8.66-19.16,6.23-20.31C622,531,631.71,533.7,636.11,542.24Z"/><path d="M555.38,493.52c4-21.42-15.91-37.25-36.24-31.74,4.76,17.42,17.18,35.32,35.54,39.88C554.94,499,555.21,496.28,555.38,493.52Zm1.2-23c4.88,4.42,8.3,40.49-1.15,38.16-12.32-1.62-22.51-9.35-29.63-19.23-7.58-8.28-9.81-19.71-14.66-28.72-.29-5.46,9.43-5.24,13.25-5.88C536.86,453.91,550.25,459.38,556.58,470.54Z"/><path d="M557.18,483c2.17,5.17-3.74,18.75-11,14.53C535.65,489.88,552.09,464.29,557.18,483Z"/><path d="M632.29,547.81c3.81,5.87-.46,19.89-8.88,18.07C612.13,561.93,623.08,536.74,632.29,547.81Z"/><path d="M546.68,491.64c3.88-.86,7.34-5.54,5.83-9.43C548.12,480,540.56,491.1,546.68,491.64Zm6.23-16.59c13.2,5.91,1.28,29.25-11.21,22.11C531.29,490.91,542.4,469.51,552.91,475.05Z"/><path d="M526.87,456.82c-1.34-2.74.32-5.83.58-8.67.29-2,.86-5.69,3.74-4.56,3.73,2,1.08,7,.83,10.19C532.22,457,529.46,460.56,526.87,456.82Z"/><path d="M538.26,460.82c-4.54-1.17-2.24-5.95-.56-8.63,1-2,1.7-6.66,4.9-5C546.37,448.68,541.39,461.63,538.26,460.82Z"/><path d="M544.77,462.89c.26-2.82,2.88-4.83,4.11-7.29,2.22-2.62,5.83,1.42,4.3,3.9C551.74,462.9,546.44,469.79,544.77,462.89Z"/><path d="M615.79,537.62c-5.59.3-2.38-20.22,2.76-16.29,2.42,2.14.56,5.2.42,7.82C618.08,531.87,620,537.55,615.79,537.62Z"/><path d="M624.12,536.91c-4-3.36,5.93-21.07,7.39-9.83C629.94,530.1,629.1,540.57,624.12,536.91Z"/><path d="M633.35,544.66c-6.12-2,.38-8.86,1.93-12.23a2.29,2.29,0,0,1,3.31-.23c3.7,3.58-2,8.44-3.4,11.66v0A1.9,1.9,0,0,1,633.35,544.66Z"/><path d="M518.86,609c-4.39-12.4,11.3-21.12,17.15-30.46.31-3.38,5.57-2.54,6.34.13,3.87,4.91,14.65,10.07,11.34,17.19C547.93,603.82,526.32,622.79,518.86,609Zm6.28-1.32c7.22-1.34,18.69-9.31,23.23-15.12-3-2.55-5.48-5.62-8.4-8.25C537.62,588.73,518.81,604.6,525.14,607.69Z"/><path d="M507.47,511.85c-3.92-.33-4.09-6.31.1-6.44,3.58-.3,9.72-4.38,11.56.47C520.89,510.3,510.4,511.4,507.47,511.85Z"/><path d="M518.81,521.57c-12.79-7.35,22.83-13.43,13-2.77C527.48,519.86,523,520.37,518.81,521.57Z"/><path d="M532.21,531.4c-6.45-6,15-11.9,12.23-2.91C543.45,530.77,534.26,532.58,532.21,531.4Z"/><path d="M587.89,587.89c-4.33-6.53,9-7.67,13.08-8,7.83,5.82-6.83,7.34-10.7,8.83l0,0A2.51,2.51,0,0,1,587.89,587.89Z"/><path d="M594.46,598.57c-10.17-4,11.61-13.14,13-7.11C607.72,596.91,598.28,596.76,594.46,598.57Z"/><path d="M602.54,605.4c-2.47-1-2.56-5.2.44-5.5,3.29-.68,8.58-5.08,10.78-.73C615.42,604.29,606,605.41,602.54,605.4Z"/><path d="M112.21,396.07c0-17.49.06-41.1-17.7-50.28-27.63-1.05-66.39,8.27-84.08,31.25a119.66,119.66,0,0,0,34.93-6.29c4.8-1,12.07-5.65,16.59-3.93,2.45,1.39,3.3,5.78.41,7.12h0c-18.69,7.95-42.66,17.2-54.29,34.74,19,1.7,37.16-6,55.07-10.34,3.12.74,4.36,6.26.83,7.26-20.33,8.81-46.18,16.09-58.54,35.71,10.27-1.83,20.85-2.84,30.85-5.9,6.63-.06,34.2-20.5,32.37-6.83-18.14,10.83-40.54,19.36-53.55,37.47,22.83,6.86,45.54-14.7,66.13-19.12,7.51,1.37,8.53,18.4,9,25.57C98.83,447.51,110.6,422.79,112.21,396.07ZM538.13,659.3c-24.31,10.73-60.44,4.86-72.42-21.1-13.83,5.46-27.1,12.27-40.92,17.8-20.27,7.69-23.83,6.71-24.8,30,17,97.75,16.67,201.6,51.53,296.2C476.65,873.73,488.11,759.84,538.13,659.3Zm64.48-1.18c3.21-8.83,9.38-16.67,11-26-10.4,6.49-17.2,17.61-24.28,27.37-15,4.8,10.53-28.6,11.67-33.6-10.35,7.72-17.4,18.87-23.6,29.92-13,2.84,9.42-28.3,9.87-33.81-11.31,8.73-17.09,22.55-24.31,34.3-13.07,5.29,6.49-25.11,5.34-30.73-24.19,25.1-38.54,68.59-50.55,101.64C612.25,736.82,561.43,743.94,602.61,658.12Zm84.87-188.67c1.89,48-29.06,96.83-59.79,132.78a135.77,135.77,0,0,1-21.32,19.35,10,10,0,0,1-.24,7.56c32.13-17.56-3.92,44.46-6.28,54.28-4.47,13.21-7.94,26.76-11.94,40.12-7.75,56.54-10.52,115.47-22.92,172-12.28,68.43-16.42,140.15-44.09,204.64-34,71.45-131.91,88-177.9,18.87-45.35-69.25-52.93-156-68.93-235.52C229.15,892.8,185,906.17,141,919c-13,4.54-25.59,10-38.29,15.29-6.18,4-1.16,16.67-2.75,23.84,2.19,87.05,5.56,174.21,8.09,261.18-17,18.48-7.92-117.37-13-130.54-8.8-211,1.2-422.62-14.08-633.84-15.2,8.5-31.34,17.67-48.59,20.78-30.71,2.92-28.55-16.24-6.59-30-44.21,10.62-23.09-21.25,1.43-31-43.63,6.41-22.13-19.28.19-31.88C.39,389-4.1,375.35,17.73,360c17.27-12.17,37.85-18.1,58.56-20.57-4.62-70.18-4.57-141.76-5.8-212.46-.27-7.72-8.73-157.8,4-121.23,3.89,109.24,4,218.61,8,327.88,76.77-36.71,178.89-5.44,212.74,75.16,11.49,23.23,18.79,48.28,22.93,73.83,12.31,53.18,84.89,22,114.91-.4-15.71-17.46-10.28-60.74,19.28-56.46,10.34,1.32,23,7.43,27.79,17,.4,10.36-15.85-7.46-21.54-7.17-27.39-11.23-34.15,28.48-18.53,43.9,4.29,1.91,4.71,9.29-.52,10.17-34.29,23.57-102.5,55.89-125.36,3.21C263.85,544.22,220,601.06,174.36,656.47c72.46,9.93,145.69,33,218.51,32.32a136.45,136.45,0,0,1,3-21.18c1-10.64,4.82-10,13.29-14.18,13.66-5.93,27.53-11.38,41-17.78,35.66-19.71,5.16,15.93,60,21.5,12.07.36,24.1-3.5,34.26-9.87,5.1-10.55,22.69-41.58,29.55-21.19,4.86-8.42,22.42-20.14,18.77-1.48,45.92-36.08,79.51-89.48,89.89-147.78C682.87,473.79,682.57,466.5,687.48,469.45Z"/><path class="cls-2" d="M624.74,767.84c-9.83-51.8,15.09-118.69,32.17-169.15,22.87-58.29,78.89-160.36,2.31-199.83-4.92-3.71-.37-7.61,4.38-4.42C770.21,459.08,630.86,622.47,631,717a255.48,255.48,0,0,0-2.7,29.48C627.26,751.11,630.68,768.72,624.74,767.84Z"/><path class="cls-2" d="M646.41,969.71c-4.1-2.24-1.2-7.79-1.1-11.4,7.78-46.79-5.48-93.88-7.85-140.67-2.27-8.12,4.65-138.7,9.41-85.48-11.79,76,11.66,151.45,4.54,226.88C650.35,962.42,651.58,970.68,646.41,969.71Z"/><path class="cls-2" d="M610.55,1018.44c-4.94-4.05,1.62-10.66,2.56-15.42,7-19,9.07-39.53,12.5-59.38,3.26-6.41-7.53-59.45,2.5-51.29,6.4,32.3,3.59,65.15-4,97C622.81,993.54,615.89,1022.81,610.55,1018.44Z"/><path class="cls-2" d="M602.54,916.81c-5.59-1.67-1.18-36.45-3.69-44.71-7.27-52.16-14.33-134.26,12.45-177.62-9.56,44.74-16.7,93.41-10.74,140.65C600.37,852.1,613.85,907,602.54,916.81Z"/><path class="cls-2" d="M618.18,832.77c-.09-5.13-4.56-43.2,2.1-41.27,2.28.25,3.68,3.47,2,5.18C620.13,801.05,628.55,847.59,618.18,832.77Z"/><path class="cls-2" d="M565.26,1027.72c-5.52-3.57,16.32-35.64,17.15-45.22,4.7-6.83.62-39.85,8-37.08,4.75,21.78-3,46.17-13.37,66C574.53,1014.66,570.18,1031.61,565.26,1027.72Z"/><path class="cls-2" d="M460.9,846c-9.35-56.62,4.59-113.58,22-167.14.84-5.25,7.53-2.38,5,1.93-13.62,47.67-27.35,95.65-23.88,145.82C463.77,830.57,469.62,857.34,460.9,846Z"/><path class="cls-2" d="M449.15,883.1c-26.39-63.63-30-142.15-4.78-206.75,1.25-2.84,5.58-3.34,6.14.25-23.12,57.3-21.35,126.69-3.3,185.57C447.85,866.29,458.34,885.72,449.15,883.1Z"/><path class="cls-2" d="M452.37,737.7c-7.25-3.57,6.53-49.74,9-58.08,2.94-2.61,6.52,2.5,3.39,4.54-1.47,14.2-6.09,27.78-8.24,41.85C455.28,729.31,457.46,738.05,452.37,737.7Z"/><path class="cls-2" d="M493.31,755c-5.66-1.57-1.42-20-.8-25,7.11-4,3.86,9.18,4,12.65C495.59,745.94,497.77,754.46,493.31,755Z"/><path class="cls-2" d="M461.61,409.5c-9.35-1.08-39.68.18-39.25-13,.82-1.63,3.1-1.12,3.85.32,17.34,9.84,44.51,6.5,63.38,3.59C497.67,410.65,467.13,409.1,461.61,409.5Z"/><path class="cls-2" d="M496.27,393.15c-11.58,0-23.48-2.4-32.93-9.42-4.12-2.51-.16-9,2.79-4,11.15,7,24.84,8.41,37.72,7.28,4.29.31,15.61-6,16.85-.71C522.7,392.26,500.37,393.32,496.27,393.15Z"/><path class="cls-2" d="M528.58,374.92c-5.6-.15-25.27-1.63-19.36-10.76,8.54,5,15.23,4.38,25.74,5.13,2.91.2,3.93,5.54.62,5.88C533.25,375.18,530.91,375.06,528.58,374.92Z"/><path class="cls-2" d="M368,469.87c-7.42-19.44,52.29-58.76,67.74-45.13.53,3.36-3.3,2.87-5.52,3-21.43,1.34-40.71,14.68-53.71,31.18C373.85,461.28,372.06,472.26,368,469.87Z"/><path class="cls-2" d="M380.62,489.4c-10.72-3.88,24.43-42.41,28.64-34.81,2.41,4.47-12,11.67-14.48,16.47C390,474.18,383.59,491.7,380.62,489.4Z"/><path class="cls-2" d="M521,752.71c-3.92-.24-2.27-16.13,2-14.44,3.45,1.2,1.68,4.71,1.29,7.15C523.49,747.74,524.7,753.2,521,752.71Z"/><path class="cls-2" d="M545,754.57c-4.32-.57-2.64-11.27-.39-13.38,3.93-1.6,4.66,3.28,3.26,5.88C547.13,749.42,548.46,754.44,545,754.57Z"/><path class="cls-2" d="M565.86,754.44c-3.63-.4-2.73-11.6.75-11.22C570.56,743.17,569.75,755.65,565.86,754.44Z"/><path class="cls-2" d="M292.88,488.52c-3.05-1-9.08-3.79-5.41-7.5,2.9-.89,6.31,1.71,9,2.76C299.53,486.33,296.22,490.47,292.88,488.52Z"/><path class="cls-2" d="M273.16,505.21c-2.85-1.32-7.94-3-6.76-7,2-4,5.64.72,7.84,2.09C276.94,501.22,276.39,506.41,273.16,505.21Z"/><path class="cls-2" d="M245.78,531.21c-2.76-1.35-7.88-3.08-6.77-7,1.93-3.8,5.46.93,7.89,1.77C249.74,527,249.24,532.46,245.78,531.21Z"/><path class="cls-2" d="M212.49,563.67c-10.18-3-5.29-11,3.09-5.07l-.34-.17C219.63,560.47,216.79,565.78,212.49,563.67Z"/><path class="cls-2" d="M186.89,591.9c-3.7-.44-8.78-6.88-2.66-7.38C192.8,585.89,194.34,595.33,186.89,591.9Z"/><path class="cls-2" d="M164.54,619.75c-4.73-.59-7-7.61-1.49-6.81,2.06,1.39,5.64,1.13,6.09,4.13C169.67,619.91,166.69,620.5,164.54,619.75Z"/><path class="cls-2" d="M150,647.17c-3.5.15-9.23-1.59-6.2-6,1.73-1.39,4,.27,6,.35C152.74,641.79,153.45,647.29,150,647.17Z"/><path class="cls-2" d="M171,686.55c-1.93-3.17,1.85-4.8,4.07-6.15,2.22-1,4.84-4.91,7.11-2C185.73,681.46,172.74,691.34,171,686.55Z"/><path class="cls-2" d="M206.83,699.21c-3.66-2.59,3-11.81,6.53-11.06,4.09,1.72,2,5.36-.71,7.24C211,696.92,209.65,701.3,206.83,699.21Z"/><path class="cls-2" d="M256.29,709.8c-4.56-.79,1.66-16.47,4.84-15.77,2.63.3,3.82,4.63,1.45,6C260.43,702.5,260.43,710.81,256.29,709.8Z"/><path class="cls-2" d="M303.22,714.85c-4.06-1.77-.23-14.13,3.94-13.92,2.6.33,3.76,4,1.47,5.56C306.2,708.65,307.55,715.82,303.22,714.85Z"/><path class="cls-2" d="M352.54,726.92c-4.57-.45-2.69-14.44.67-15.75,3.2-1.4,6,3.89,2.73,5.36C354.32,719.54,356.72,726.22,352.54,726.92Z"/><path class="cls-2" d="M377.9,721.22c-3.47-.59-3.47-6.14-1.82-8.39C380.81,709.76,382.53,721.26,377.9,721.22Z"/><path class="cls-2" d="M289.33,877.1c-2.71-3.87,2.53-4.85,5-6.38,7.72-4.17,14.88-9.5,23.1-12.69,3-1,5.17,4,2.31,5.35-1.66.81-3.59,1.81-5.06,2.63C309.52,867.82,293.12,881.28,289.33,877.1Z"/><path class="cls-2" d="M327.13,901.76c-4.84-.58-33.46-4.22-25-12.48,5.08,1.87,11.06,4.34,16.62,5,3.48,1.25,10.1.2,10.78,4.89A2.28,2.28,0,0,1,327.13,901.76Z"/><path class="cls-2" d="M152.62,878.62c-22.3-1.17-41.34-21.24-47.21-41.73-.25-4.49,4.93-2.86,4.76.8C125.85,878.09,165,869.24,152.62,878.62Z"/><path class="cls-2" d="M109,471.67c-7.72-6.49,20.68-19.94,24.58-25.27,4.2-2.25,23.06-22.14,25.64-17,2.78,4.55-4.83,7.09-7.24,10C138,449.84,123.21,463.92,109,471.67Z"/><path class="cls-2" d="M168.24,466.22A118.92,118.92,0,0,0,150,464.71c-3.94.18-4.37-6.29,0-5.66C154.06,458.45,178.42,459.53,168.24,466.22Z"/><path d="M738.12,390.18c-2.72-1.34-1.16-7.26,2-5.55C742.89,386,741.29,391.89,738.12,390.18Z"/><path d="M735.89,395.88c-7.15-4.83,11.87-16.17,15.13-20.11,3.22-2.68,7.1,3.15,4.33,5.69-5.63,4.8-11.06,9.88-16.83,14.47h0A2.58,2.58,0,0,1,735.89,395.88Z"/><path d="M763.5,455.23c-8-6.9,10-9.63,14.25-11.64,3-.77,7.16-4.07,8.94.13,1.84,6.37-8.65,5.79-12.46,8.12C770.62,452.6,767.18,455.66,763.5,455.23Z"/><path d="M788.59,522A65.39,65.39,0,0,0,763,519.74c-4.51,2.36-7.13-6.45-1.64-6.73C765.83,510.68,803.05,514.52,788.59,522Z"/></g></g></svg>