<svg xmlns="http://www.w3.org/2000/svg" viewBox="0 0 269.36 443.78"><defs><style>.cls-1{fill:#d94a3d;}.cls-2{fill:#78539d;}.cls-3{fill:#fff;}</style></defs><title>Cohete</title><g id="Capa_2" data-name="Capa 2"><g id="Capa_1-2" data-name="Capa 1"><path d="M72.27,234v-.09c0-.32,0-.65,0-1h0c0,.43,0,.86,0,1.29Z"/><path d="M27.39,136c-1.32-.63-.47-2.69.89-2.44a1.13,1.13,0,0,1,.88,1.54c-.21.27-.41.54-.6.83a1.2,1.2,0,0,1-.64.19A1.16,1.16,0,0,1,27.39,136Z"/><path d="M39,181.64l0,.05A.08.08,0,0,0,39,181.64Z"/><path d="M39,181.61v0a.06.06,0,0,1,0,0Z"/><path class="cls-1" d="M79.89,277.05a.93.93,0,0,1,1.06.69h0c-.13.79.53,2.08-.55,2.36-.24.74-.49,1.48-.74,2.21-.55-1-1.1-1.94-1.64-2.91C78.53,278.57,78.91,277.42,79.89,277.05Z"/><path class="cls-1" d="M6.35,83.88l.24,1h0l0,0,0,0-.09,0-.12,0h0A2.07,2.07,0,0,1,5,85l0,0a1.84,1.84,0,0,1-1.07-.9v0C4,82.54,4.77,81.65,6,82H6A1.12,1.12,0,0,1,6.35,83.88Z"/><path class="cls-1" d="M111.15,331.37a3.21,3.21,0,0,1-.34,2.82q-1.2-1.86-2.39-3.73A2.08,2.08,0,0,1,111.15,331.37Z"/><path class="cls-1" d="M143.54,375.43a2.37,2.37,0,0,1-3.16,1.92l0,0a.29.29,0,0,0,0-.09l0-.12h0a34.5,34.5,0,0,0-1.16-3.56s0,0,0,0q-.17-.45-.3-.9a.14.14,0,0,1,0-.06,10.45,10.45,0,0,1-.62-3.18v-.05a1.49,1.49,0,0,1,0-.21v0a1.64,1.64,0,0,1,.61-1.21l0,0,.08-.05,0,0h0l.9,1.32.9,1.32,2,2.87.44.66A1.8,1.8,0,0,1,143.54,375.43Z"/><path class="cls-1" d="M205,342.65c.67,3.86-4.33,3.67-4.52,0,1.19-.47,2.67-1.24,3.77-.18a.77.77,0,0,1,.75.23Z"/><path class="cls-1" d="M195.3,295.69c.33,1.23.65,2.47.94,3.72-1.16-.3-2.3-.63-3.43-1C189.46,296.73,193.3,295,195.3,295.69Z"/><path class="cls-1" d="M93.4,44.41c.42.24.83.49,1.22.76C93.06,48.16,91.33,43.37,93.4,44.41Z"/><path class="cls-1" d="M178,230.6c.26,1,.53,2,.8,3C177,233.13,174.77,231.05,178,230.6Z"/><path class="cls-1" d="M7.45,81.14C7.78,82.66,8,84.52,6.27,85,3.15,84,5.67,81.94,7.45,81.14Z"/><path class="cls-1" d="M94.19,42.66c2.19,2.8-1.75,6.17-4.76.45,1.43-.3,2.83-1.35,4.31-1.07Z"/><path d="M25.65.82A.93.93,0,0,1,25,2.06c-.22.41-.43.83-.64,1.24C15.67,20.23,9.08,38.57,7.2,57.54a83.43,83.43,0,0,0-.32,17.73c-.18,1.32.46,3.7.69,5.79,0,.24,0,.49.06.72,0,0,0,0,0,0,0,.22,0,.44,0,.65a4.43,4.43,0,0,1-.22,1.43s0,0,0,0a1.72,1.72,0,0,1-.82,1h0a0,0,0,0,0,0,0h0l-.08,0-.09,0-.12,0h0l-.19.06A2.43,2.43,0,0,1,4.6,84.8,2,2,0,0,1,4,84.21a.57.57,0,0,1-.08-.13c-1-1.56-.58-4.57-1-6.19-.09-.79-.16-1.6-.22-2.43-.12-1.62-.19-3.33-.21-5.08C2.2,47.54,10.15,15.12,24.42.35A.86.86,0,0,1,25.65.82Z"/><path d="M94.6,45.16a1.94,1.94,0,0,1-1.32,1l-.37.1-.19,0-.07-.07q-1.59-1.55-3.17-3.1C78.61,32.48,67.22,21.49,53.89,13.68,47.71,9.88,32.11,1.48,25.24,2.87a1.13,1.13,0,0,1-.9.43c-.68-.09-.62-1.58,1.31-2.48l.14-.07c9.28-3.9,29.6,8.37,37.31,13.88C70.3,19.21,76.51,25,82.79,30.75a8.81,8.81,0,0,0,.77.79c1,.94,2.63,2.37,4.35,4a38,38,0,0,1,6,6.56,2.39,2.39,0,0,1,.13.21h0l.26.47A2.74,2.74,0,0,1,94.6,45.16Z"/><path d="M111.15,331.37a2.34,2.34,0,0,1,.09.24c0,.11.06.2.08.31a1.53,1.53,0,0,1,0,.3v.16a.81.81,0,0,1,0,.15v.05s0,.07,0,.1a1.55,1.55,0,0,1-.06.31,1.81,1.81,0,0,1-.09.31,7.1,7.1,0,0,1-.36.88h0c-.35.71-.8,1.4-1.06,2a160.21,160.21,0,0,0-7.61,15c5.45,15.22,11.07,30.37,16.45,45.61,1.07,5.85,16.52,37.79,8.74,38.88-2.56,0-6.65-4.95-8.38-6.83a381.12,381.12,0,0,1-23.26-31.79c-13.24-19.83-26.49-40.27-36.56-61.88-2.29-6.67,4.15-18.07,6.13-24.91.57-2.34,8.12-24.05,12.72-31,.08-.13.17-.25.25-.37h0l.13-.18c1.12-1.55,2-2.08,2.59-1h0c-.14.79.53,2.08-.55,2.36-.26.72-.51,1.43-.78,2.15-3.52,9.66-7.63,19.09-10.57,29-1.7,6.49-8.92,18.5-5.68,24.31,18,32.68,37.88,64.69,61.64,93.53-7.56-26.35-18.61-51.61-27.21-77.61,1.46-5.95,5.19-11.33,8-16.77a28.24,28.24,0,0,0,1.47-3,2,2,0,0,1,1.14-1.25l.22-.08a2,2,0,0,1,1.5.05h0l.17.08a2,2,0,0,1,.47.35,3.92,3.92,0,0,1,.25.32Z"/><path d="M242.15,368.19q1,2.56,2,5.13a2.09,2.09,0,0,1-.78,2.41,1.4,1.4,0,0,1-.47.24c-3.42,1.23-4.65-7.6-6.08-9.86-2-5-4.23-10.37-6.09-15.25-6.85-16-14-31.91-20.32-48.06a52.6,52.6,0,0,1-8.56-2.07c-.77-.36-3.27-.71-5.6-1.24a16,16,0,0,1-3.41-1.08c-1.05-.53-1.58-1.19-1.06-2a1.48,1.48,0,0,1,.22-.29q.31-.13.72-.27a6.51,6.51,0,0,1,1.18-.25h0a2.32,2.32,0,0,1,.37,0h.21a2.15,2.15,0,0,1,.81.2,1.24,1.24,0,0,1,.39.3,42.06,42.06,0,0,1,11.46,2c2.12.59,4.87.35,6.4,2.16,3.21,6.93,5.87,14.16,9.28,21C229.81,336.68,236,352.45,242.15,368.19Z"/><path d="M232.93,252.28c0,.07,0,.13,0,.19.32,1.27.62,2.54.91,3.81,5.82,25.75,6.23,52.31,9.4,78.46.32,9.71,2.31,19.26,2.34,29-.11,2.75,2.3,12.52-2,12.05l-.21-.07c-2.52-.85-.77-4-1.18-6,0-.52,0-1.05-.06-1.57-.19-3.72-.53-7.42-.73-11.14-2.09-23.64-4.64-47.22-6.57-70.9-1-10-2.58-19.93-3.58-29.88q-.26-2.47-.45-4.95a1,1,0,0,1,0-.1C231.44,249.93,233.62,251,232.93,252.28Z"/><path d="M233.88,256.28a2.13,2.13,0,0,1-2,.35l-.64-.36c-2.58-1.42-5.18-2.8-7.81-4.12-.51-.25-1-.51-1.52-.75a126.92,126.92,0,0,0-22.45-8.79c-5.92-2.34-11.71-5-17.49-7.67a31.17,31.17,0,0,0-3.18-1.32l-.39-.16-.08,0a7.09,7.09,0,0,1-1.48-.89,3.31,3.31,0,0,1-.44-.4.77.77,0,0,1,0-.8l0,0a1.38,1.38,0,0,1,.44-.38l.17-.08.17-.06a2.8,2.8,0,0,1,.76-.17h0a2.54,2.54,0,0,1,.86.06c.39.1,1.16.36.64.84,10.13,1.88,19.24,7.12,29.27,9.44a141.15,141.15,0,0,1,22.09,10.28l2.08,1.24h0A2.17,2.17,0,0,1,233.88,256.28Z"/><path d="M148.32,386.44a2.29,2.29,0,0,1-1.27,2.73,1.54,1.54,0,0,1-1.49-.08c-2.27-1.31-3.57-7.91-4.59-9.77a15.17,15.17,0,0,0-.59-2l-.09-.23h0s0-.07,0-.11c-.45-1.28-1-2.88-1.43-4.38a.14.14,0,0,1,0-.06c-.15-.53-.28-1.05-.38-1.54h0c0-.1,0-.19-.06-.29a6.91,6.91,0,0,1-.16-1.6v0c0-.63.21-1.08.61-1.21l.12,0H139a1.73,1.73,0,0,1,.69.12l.22.09.24.1h0l.37.65a.05.05,0,0,1,0,0c.28.51.54,1,.8,1.57.46,1,.89,2,1.3,3,.29.69.57,1.39.86,2.09.36.87.73,1.73,1.12,2.58C145.16,379.9,147.93,383.71,148.32,386.44Z"/><path d="M211.72,364a1.36,1.36,0,0,1-.43.09,1.93,1.93,0,0,1-2.21-1.07,4.63,4.63,0,0,1-.51-1.67l-.12-.37c-.22-.72-.45-1.44-.69-2.15-.5-1.53-1-3.05-1.46-4.6-.09-.81-1.68-5.17-2.32-8.34,0-.18-.06-.35-.1-.52-.28-1.6-.25-2.79.44-2.88a1.31,1.31,0,0,1,.72.2h0l0,0C206.46,345.32,215.67,362.47,211.72,364Z"/><path d="M212,361.7l-.1.12c-.92.4-1.85.79-2.79,1.16-5.37,2.12-11,3.86-16.15,6.6-13.1,6.15-26.23,12.27-39.62,17.81-.83.14-3.23,1.32-5.16,1.87-1.24.35-2.28.45-2.59-.17a1.37,1.37,0,0,1,0-.93c.91-.58,1.83-1.16,2.77-1.72,3.15-1.9,6.44-3.69,9.75-5.33l2.26-1.1.45-.18c4.34-1.8,8.62-3.77,12.87-5.79l2.93-1.4c4.49-2.15,9-4.33,13.49-6.41,1-.46,2-.92,3-1.36q3.83-1.72,7.74-3.27c1-.41,2.08-.81,3.13-1.19.39-.16.8-.3,1.2-.44a23.67,23.67,0,0,0,2.59-1.18,4,4,0,0,1,3.58-.32A2.15,2.15,0,0,1,212,361.7Z"/><path d="M212,363.69c-.08.09-.15.18-.24.27-1.4,1.47-3.93,1.41-5.72,2.29-4.66,1.93-9,4.54-13.85,6.07-9.64,4.26-19,9.25-28.8,13.08-1.19.57-14.19,5.31-15.2,3.86-.13-.19-.06-.47.26-.88,3.55-1.75,7.11-3.46,10.68-5.16l2.57-1.22q6.42-3.06,12.87-6.08l2.9-1.36q5-2.37,10-4.77c4.91-1.81,9.57-4.16,14.36-6.23.93-.41,1.86-.8,2.8-1.17l1.63-.63a14.73,14.73,0,0,0,2.23-.82,3.14,3.14,0,0,1,2.64-.15,2,2,0,0,1,.88.91A2.1,2.1,0,0,1,212,363.69Z"/><path d="M203.71,346c-20.35,7.64-40,17-60.66,23.95-1,.24-3.69,1.27-3.64-.32a.76.76,0,0,1,.61-.53c12.57-7.28,26.09-12.47,39.61-17.64,7.85-3.19,15.64-8.13,24-9.45A2.18,2.18,0,0,1,203.71,346Z"/><path d="M96.93,181.54c-17,7-37.89,2.66-49.83-11.64-8.8-11.49-12.67-27.18-8.15-41.15C42.79,109.12,56.7,99.14,75,93.93c8-2.41,15.88.06,23.6,2.11,6.93,2.4,11.87,8.32,16.13,14,8.06,11,12.8,25.92,9.15,39.44C118.74,162.72,110.45,175.76,96.93,181.54Zm-1.19-4c10.13-4.68,17.47-13.41,22.13-23.37,4.83-7.31,5.07-16.59,2.86-24.88-3-11.12-10.51-21-19.61-27.88-3.87-2.28-8.43-2.52-12.61-4-8.5-1.89-17.36,1-24.9,4.84-2.42,1.16-4.63,3.67-7.3,3.91-14.45,13.41-20.8,37.12-10.07,54.59C55,178.49,78.1,184.91,95.74,177.57Z"/><path d="M45.39,151c-4-.64-3-7.65,1.1-6.32C49.61,145.62,49.05,151.66,45.39,151Z"/><path d="M116.61,136.37c-4.58,0-4.1-7.75.42-7.24C120.85,129.51,120.26,136.33,116.61,136.37Z"/><path d="M79,103.89c-3.14.83-6.28-3.48-3.44-5.74C79.66,95.5,84.73,102.34,79,103.89Z"/><path d="M81.55,179.48c-4.78-.73-5-7.79.48-7.29C87.37,172.22,86.36,179.79,81.55,179.48Z"/><path d="M50.37,123c-3.6.49-5.17-5-1-5.51,1.35-.18,3.13,1.22,2.82,2.69C51.92,121.28,51.73,122.7,50.37,123Z"/><path d="M62.94,168.59a2.89,2.89,0,0,1-2.19,4C53.6,171.82,58.75,161.17,62.94,168.59Z"/><path d="M102.52,110.85c-3.6,1.09-6.31-5.81-2.67-7.27C104,102.25,107.06,109.42,102.52,110.85Z"/><path d="M107.87,121.29c5,11,6.34,25.54-.57,36,5.89-4.56,8,6.6,1.31,6.17-2.64-.62-3-3.54-1.85-5.46-10.84,14.66-35,17.88-47.72,4a45.4,45.4,0,0,1-9-16.74c-6.42-22.13,13.94-46.08,37-39.85a1.12,1.12,0,0,1,1.33.48C96.5,108.5,104.46,113.09,107.87,121.29Z"/><path d="M18.4,69.58c-3.49.82-5.67-4.15-2.43-5.94C20.13,61.57,23.6,69,18.4,69.58Z"/><path d="M46.46,56.43c-4.59,1.36-7.09-5.32-2.43-6.84C48.25,48.71,50.48,54.67,46.46,56.43Z"/><path d="M71.07,45c-3.31,1.36-5.58-4.27-2.86-6.07C72.14,36.58,75.15,43.33,71.07,45Z"/><path d="M3.75,75.59a1.59,1.59,0,0,1-1-.13h0c-3.81,1.47-3.27-5-.19-5.07a2.33,2.33,0,0,1,.72.09C6,70.82,6.64,74.86,3.75,75.59Z"/><path d="M87.91,35.51a1.92,1.92,0,0,1-.73.36c-2.69,1-4.08-2.38-3.62-4.33.26-1.15,1.18-1.78,2.85-.68C88.54,31,89.5,34.27,87.91,35.51Z"/><path class="cls-2" d="M134.7,112c-6.49-13.45-14-26.4-21.12-39.54-6-8.95-9.76-19.85-18.36-26.81a2.41,2.41,0,0,0-1.35-3.53l-.13,0a2,2,0,0,1,.26.24h0a2.94,2.94,0,0,1,.73,1.42,2.4,2.4,0,0,1-.12,1.46l0,.07a.54.54,0,0,1-.07.13.91.91,0,0,1-.11.16.22.22,0,0,1-.05.08,1.71,1.71,0,0,1-.87.56l-.18.05h0a2,2,0,0,1-.56,0,2.38,2.38,0,0,1-1.65-.93c-.61-.68-1.06-1.59-1.64-2.23C73.34,48.14,58.09,55.62,43,63,31.15,69,19,74.23,7.57,81.06l-.12.08a3.83,3.83,0,0,1,.18.64s0,0,0,0a3.43,3.43,0,0,1,0,1.35,3.28,3.28,0,0,1-.23.73s0,0,0,0a2.25,2.25,0,0,1-.82,1s0,0,0,0h0A1.65,1.65,0,0,1,5,85l0,0a2.57,2.57,0,0,1-.35-.2A3.4,3.4,0,0,1,4,84.21l-.09-.11c4.63,71,39.85,134.54,74.1,195.24l0,.06a4.13,4.13,0,0,1,.21-.43h0c.12-.22.26-.47.42-.71h0a2.66,2.66,0,0,1,1.3-1.2h0a.63.63,0,0,1,.48.08h0a1.51,1.51,0,0,1,.47.61h0c-.14.79.53,2.08-.55,2.36-.24.74-.49,1.48-.74,2.21q13.64,24.54,28.76,48.15l.22-.08a1.88,1.88,0,0,1,1.5.05h0a2.32,2.32,0,0,1,1.19,2.15v.07a2.79,2.79,0,0,1-.52,1.53h0c9.68,14.42,19.51,29.05,29.52,43.14a.29.29,0,0,0,0-.09,1.4,1.4,0,0,0-.06-.24c-.19-.73-.67-2-1.12-3.45,0,0,0,0,0,0-.27-.83-.52-1.7-.7-2.5h0c0-.1,0-.19-.06-.29a7.75,7.75,0,0,1-.18-1.34v-.05c0-.78.15-1.34.65-1.48l.1,0H139a2.17,2.17,0,0,1,.69.12l.22.09.24.1h0l.37.65a.05.05,0,0,1,0,0c1.63-1,3.27-1.87,4.94-2.75l.1-.05a214.25,214.25,0,0,1,20.19-9.17l2.29-.92q4.59-1.82,9.22-3.58l2.31-.89c.69-.25,1.73-.71,3-1.31,1.71-.79,3.84-1.82,6.1-2.87l.3-.14c1.77-.82,3.61-1.66,5.38-2.4l.09,0a46.1,46.1,0,0,1,6.46-2.28h0a10.13,10.13,0,0,1,1.9-.29h0a2.2,2.2,0,0,1,1.39.3h0a.73.73,0,0,1,.75.22h0l0,0c-3.4-14.27-5.35-28.91-8.79-43.19a.31.31,0,0,1,0-.08c-1.15-.29-2.27-.61-3.39-1l-.05,0c-1.48-.73-1.55-1.47-1-2a2.67,2.67,0,0,1,.94-.56,4.84,4.84,0,0,1,1-.24h.16a2.32,2.32,0,0,1,.37,0h.21a2.91,2.91,0,0,1,.79.14c-4-13.93-7.24-28.06-10.87-42.08-.05-.21-.1-.41-.16-.62-1.68-6.49-3.46-13-5.45-19.37l0-.05-.37-.11-.08,0a4.64,4.64,0,0,1-1.48-.89c-.42-.4-.64-.84-.46-1.2l0,0a1.06,1.06,0,0,1,.44-.38l.17-.08.17-.06a4.12,4.12,0,0,1,.76-.17h0A803.62,803.62,0,0,0,134.7,112Zm-9.57,27.6A39.19,39.19,0,0,1,123,151.66v0a42.59,42.59,0,0,1-4.9,9.89c-.7,1.07-1.46,2.11-2.26,3.12a34.57,34.57,0,0,1-2,3.19,38,38,0,0,1-10.73,10.28,40.73,40.73,0,0,1-20.63,6.46c-1.17.11-2.36.17-3.55.17a42.13,42.13,0,0,1-25.66-8.93c-.32-.24-.63-.49-.94-.74l-.91-.79a35.57,35.57,0,0,1-8.68-11.4,40.52,40.52,0,0,1-2.52-5.23c-.07-.18-.14-.36-.2-.54a44.14,44.14,0,0,1-1.48-4.61c0-.21-.11-.42-.16-.64s-.11-.48-.17-.72A48,48,0,0,1,37.49,135a51.77,51.77,0,0,1,3-12.06.08.08,0,0,1,0,0,49.22,49.22,0,0,1,8.23-14.15c.27-.33.55-.64.83-1,4.24-4.89,12.53-9.65,20.87-12.41a1.69,1.69,0,0,1,.24-.08A44.22,44.22,0,0,1,82.73,93a22.58,22.58,0,0,1,3.92.18l2.41.55h.06c1.31.29,2.63.58,3.95.89,1.13.26,2.26.55,3.36.88l.16,0a34,34,0,0,1,5.29,2l.06,0c.65.32,1.3.68,1.93,1.06l1.22,1h0a60.28,60.28,0,0,1,5.86,5.67h0a53.67,53.67,0,0,1,8.75,13,44.69,44.69,0,0,1,2.11,5.28,38.24,38.24,0,0,1,3.31,16Z"/><path d="M181.91,438.17c-2.91-2.84-3.51-7.66-5.56-11.2-4.46-10.71-10.47-21.5-13-32.72.54-1.36,3-.74,2.66.76,7.14,12.64,12.67,26.1,18.26,39.48C185.61,436.23,184.21,439,181.91,438.17Z"/><path d="M201,425.62c3.29,5.6-1.49,7.29-3.1,4.4a336.84,336.84,0,0,1-14.52-39.34c-.2-.73-1.13-3.7.45-2.76a134.22,134.22,0,0,1,9.81,19.59C196.13,413.51,198.45,419.62,201,425.62Z"/><path d="M216.28,414.57a2.16,2.16,0,0,1-4,1.67c-.56-2.33-18.73-40-11.73-35.41.52.62,1.86,1.18,1.07,2.12A270.37,270.37,0,0,1,216.28,414.57Z"/><path d="M222.41,395.61c2.4,5.73,4.5,11.59,6.49,17.46,1.58,5.14,4.84,10.74,5.14,15.95a2.11,2.11,0,0,1-3.86,0c-6.19-16.35-12.31-32.63-17.6-49.25-.11-.63-1.6-4.22-.15-3.5A124.78,124.78,0,0,1,222.41,395.61Z"/><path d="M175.68,441a2,2,0,0,1-3.71,1.55c-.39-2-13-32.56-8.82-29.35h0c.19.31.65.52.59.94C168.67,422.67,172.08,431.88,175.68,441Z"/><path class="cls-3" d="M18.94,121a1.35,1.35,0,0,1-1.62-1.28c-2.93,1.69-4.87-38.54-1.78-30,1.3,0,1.17,1.54,1.18,2.48.13,4.24.33,8.47.68,12.7.48,3.62,1.15,7.21,1.68,10.83C19.05,117.37,21,120.15,18.94,121Z"/><path class="cls-3" d="M20.77,135.55c-1.27-1.47-1.32-4-1.35-5.91a1.1,1.1,0,0,1,2.09-.17C22.06,130.6,23.48,136.65,20.77,135.55Z"/><path class="cls-3" d="M64.87,149c-1.77.29.68-3.68.87-4.39,1.91-4.43,4.1-8.73,6.1-13.11.39-.53.38-1.68,1.22-1.54.93.42-.09,1.47-.28,2.08C70,137.63,67.68,143.61,64.87,149Z"/><path class="cls-3" d="M67,156.54c3.67-10.91,8.76-21.46,13.09-32.17.43-.71.6-2.29,1.73-1.9,1.61.21-3.56,9.91-4,11.38-2.06,4.9-4,9.85-6.22,14.67C70.69,149.6,68.48,158.64,67,156.54Z"/><path class="cls-3" d="M86.93,145.91c-1.43,0,.72-3.1.82-3.89.65-1.05,2.08-6.94,3.3-6.4,1.14.76-3.28,8.32-3.84,9.91A.37.37,0,0,1,86.93,145.91Z"/><path class="cls-3" d="M88.94,154.5c-.8.31-.71-.38-.51-.92,2.17-6,4.73-11.91,7.19-17.82a92.44,92.44,0,0,0,3.45-9.08.76.76,0,1,1,1.42.52Q95.3,140.92,88.9,154.1A.2.2,0,0,1,88.94,154.5Z"/><path d="M12.85,179.91c1.32,4.31,2.7,8.62,4.33,12.82.33,2,3.84,5.18,1.54,6.68-3.18,1.31-7.25-17.48-6.49-19.91C12.53,179.14,13.48,179.59,12.85,179.91Z"/><path d="M6.49,185.48a83.15,83.15,0,0,0,4.18,11.67c.6,1.34,2.85,4.65-.12,4.46-1.41.31-6.44-17.23-4.18-16.67A.28.28,0,1,1,6.49,185.48Z"/><path d="M154,136.38a1.28,1.28,0,0,1-1.65-.72,84.23,84.23,0,0,0-5-11.15c-1.74-1.88,1.5-3.25,1.73-1.05C150.07,125.43,156.59,135.22,154,136.38Z"/><path d="M162.68,134.57c-2.34.57-2.33-3-3.28-4.4a67.52,67.52,0,0,0-4.9-9.5c1.4-3.35,7.75,9.55,8.37,10.81C163.44,132.47,164.1,134,162.68,134.57Z"/><path d="M81.85,400.21c.29,2.09,5,10,3.22,10.92-1.89.22-1.7-3-2.54-4.19-.9-2.28-1.94-4.51-2.81-6.81C77.55,393,74,386.21,72.18,378.92c.2-.88,1.06,1.21,1.22,1.42A108.84,108.84,0,0,1,81.85,400.21Z"/><path d="M68.9,386.75c2.8,6.62,5.14,13.4,7.64,20.13.17,1.67,3.48,7.14,1.8,7.85-1.71,1.27-4.74-11.48-5.78-13.21-.21-1.72-6.62-16.9-4-15.79C68.65,386.06,69.11,386.38,68.9,386.75Z"/><path d="M258.53,319.74c-1.93.5-1.8-2.38-2.5-3.53-2-5.18-4.66-10.13-6.33-15.45-1.94-4.72,1.53-3.36.86-2.17C251.32,302.38,261.28,317.9,258.53,319.74Z"/><path d="M268.83,326.17c-2.16.39-2.43-4-3.44-5.37-3.35-8.05-6.5-16.33-9.27-24.55a.39.39,0,0,1,.71-.07,108.54,108.54,0,0,1,8.25,18.06C265.46,316.14,271.09,325.83,268.83,326.17Z"/><path d="M159.18,383.39a86.26,86.26,0,0,1-6-16c-1.48-1,0-4,1.22-1.63,2.65,5.31,5,10.73,7.24,16.22A1.48,1.48,0,0,1,159.18,383.39Z"/><path d="M174.57,376c-.68-1.05-9-20.4-4.8-17.59h0c2.51,5.28,5.19,10.47,7.52,15.84A1.62,1.62,0,0,1,174.57,376Z"/><path d="M192.29,367.22c-1.89.67-2.43-1.4-2.91-2.76a76,76,0,0,1-4.28-12.63c-.57-2.09,2-1.79,1.89-.15C187.76,354.39,195.84,366.13,192.29,367.22Z"/><path d="M202.47,364c-1.45-.42-1.73-3.14-2.22-4.41-1.33-4.58-2.82-9-4.26-13.51h0c.09-1.79,1.76-.33,2.07.6a.53.53,0,0,1,.38.68,93.66,93.66,0,0,1,6,14.46A1.65,1.65,0,0,1,202.47,364Z"/><path d="M72.23,331.5c-2.71-.23-5.71-4-8.21-5.51h0c-.27-2.75,6.86,3,7.87,3.49,2.52-4.65,5-9.3,7.83-13.79,1.82-3.75,3.93-7.33,6.08-10.9.52-.78.71-2.56,2-2.1a.93.93,0,0,1,.47,1.22c-3.88,6.8-7.45,13.75-11.49,20.45C75.8,326,74,331.11,72.23,331.5Z"/><path d="M217.19,265.85c-5.55-1.88-11.45-3.47-17-5.45-1.25-.73-12-4.13-10.31-5.52.33-.28,1.2-.44,1,.24a224.35,224.35,0,0,1,25.84,8.5c1.2-2.81,2.67-5.5,3.82-8.34.86-1.19.94-4.95,2.72-4.67a.82.82,0,0,1,.42,1.08c-1.78,4.3-4,8.46-5.31,12.93A1.42,1.42,0,0,1,217.19,265.85Z"/><path d="M186.78,254.49c-.95-.27-2.36-.47-2.74-1.4.79-.44,2,.13,2.94.13A.64.64,0,0,1,186.78,254.49Z"/><path d="M185.77,249.82a1.62,1.62,0,0,1,3-1.18A1.62,1.62,0,0,1,185.77,249.82Z"/><path d="M194.81,252.75a1.34,1.34,0,0,1,2.5-1A1.34,1.34,0,0,1,194.81,252.75Z"/><path d="M204.06,255.91a1.43,1.43,0,0,1,2.66-1A1.43,1.43,0,0,1,204.06,255.91Z"/><path d="M212,257.62a1.37,1.37,0,0,1,2.55-1A1.37,1.37,0,0,1,212,257.62Z"/><path d="M70.92,321.51a1.52,1.52,0,0,1,2.83-1.12A1.52,1.52,0,0,1,70.92,321.51Z"/><path d="M76.08,312.21a1.52,1.52,0,0,1,2.82-1.11A1.52,1.52,0,0,1,76.08,312.21Z"/><path d="M80.91,303.08A1.45,1.45,0,0,1,83.6,302,1.45,1.45,0,0,1,80.91,303.08Z"/><path d="M84.71,295.9a1,1,0,0,1,1.89-.75A1,1,0,0,1,84.71,295.9Z"/></g></g></svg>