<svg xmlns="http://www.w3.org/2000/svg" viewBox="0 0 1179.4 315.39"><defs><style>.cls-1{fill:#f660b2;}.cls-2{font-size:219.63px;font-family:GuthenBlootsPersonalUse, Guthen Bloots Personal Use;}.cls-3{fill-rule:evenodd;}</style></defs><title>Recurso 60</title><g id="Capa_2" data-name="Capa 2"><g id="Capa_1-2" data-name="Capa 1"><path class="cls-1" d="M159.2,258.22C138.92,244.74,12.54,283.78,4.42,281.66c-8.06-4.37-3.77-110,2.31-126.73,2.15-5.93,5-7.61,11.89-6.19,7.32,1.52,82.08-16.25,148.16-28.33,2,3,6.93-8.49,8.13-4.68.9,2.24,15.52,1.3,37.25-.88l80-8.07c26.43-2.66,17.11-1.89,43.61-4,45-3.53,5.11-2.37,85.52-5.78,11.59-.49,2.44,5.93,16.09,3.58,29.08-5,92.42,2.25,114.47-1.87C587.73,92,559,101.24,652.52,106c26.46,1.36,52.13,1.49,57.52-1.16,2.65-1.63,4.58-.63,4.49,1.69,1.28.37,64.44,12,64.67,14.22.37,2.38,2.27,3.83,4.18,2.54C786.87,121,856,126,856.66,133c2,19.84-12.77,99.32-21.69,117.76-4.71,9.74-17.53,6.48-33.79,1.61-48.54-14.54-28.61-3.95-79.59-11.12-37.28-5.24-23.62-4.31-86.81-10.49-32.31-3.17-23.53-2.11-45.08-3.88-9.45-.78-1.3-1.47-42.57,5-3.94-7.25-19.65,9-29-3.48-3.88-5.17-32-7-38.27-2-1.35.92-11.34,1-25.81.54-11-.32-124.79-4.66-138,9.2C285.88,225.1,188.26,251,159.2,258.22Z"/><text class="cls-2" transform="translate(45.31 200.96)">ConectaTE</text><path class="cls-3" d="M365.41,78.93c-1.64-1.37-4.4-.75-7.36,1.72-5.87,4.85-11,11.11-11,13.41,0,1.2,1.14,2.12,2.73,2.13s4.12-2.11,11.3-9C366.17,82.24,367.17,80.4,365.41,78.93Z"/></g></g></svg>