<svg xmlns="http://www.w3.org/2000/svg" viewBox="0 0 1599.04 321.59"><defs><style>.cls-1{fill:#4ac2ef;opacity:0.7;}.cls-2{font-size:219.63px;font-family:GuthenBlootsPersonalUse, Guthen Bloots Personal Use;}.cls-3{fill-rule:evenodd;}</style></defs><title>Recurso 42</title><g id="Capa_2" data-name="Capa 2"><g id="Capa_1-2" data-name="Capa 1"><path class="cls-1" d="M274.44,245.19c-35-17.78-252.83,33.74-266.83,30.94-13.88-5.76-6.48-145.17,4-167.27,3.71-7.83,8.64-10.06,20.49-8.18,12.63,2,141.5-21.45,255.4-37.4,3.41,4,11.95-11.2,14-6.18,1.56,3,26.76,1.73,64.22-1.16S453,49.21,503.58,45.3c45.56-3.52,29.5-2.5,75.18-5.24,77.49-4.65,8.8-3.12,147.41-7.62,20-.65,4.22,7.82,27.73,4.72,50.15-6.61,159.33,3,197.33-2.46,61.91-8.86,12.34,3.28,173.59,9.59,45.61,1.79,89.87,2,99.17-1.53,4.55-2.15,7.88-.83,7.73,2.23,2.2.49,111.08,15.9,111.48,18.77a4.85,4.85,0,0,0,7.2,3.36c6-3.1,125.14,3.51,126.33,12.71,3.4,26.2-22,131.11-37.4,155.46-8.11,12.84-30.21,8.54-58.25,2.11-83.67-19.19-49.31-5.21-137.19-14.67-64.26-6.92-40.72-5.69-149.64-13.85-55.7-4.18-40.57-2.78-77.71-5.12-16.29-1-2.25-1.94-73.39,6.66-6.8-9.57-33.88,11.83-50-4.59-6.7-6.82-55.22-9.22-66-2.67-2.34,1.2-19.56,1.27-44.5.71-19-.42-215.12-6.16-237.83,12.14C492.81,201.48,324.53,235.66,274.44,245.19Z"/><text class="cls-2" transform="translate(102.04 207.16)">Forma tu empresa</text><path class="cls-3" d="M1242.82,3.8c-1,1.89-1,7.3-.19,14,1.86,14.41,1.72,28.55-.28,52.89-1.38,16.79-1.35,20.57.66,23.55,2,3.38,2.47,3.48,5.69,1.37,5-3.08,6.71-7.56,9-23,3.49-22.65,3-57.23-.88-66.9-1.21-3-8.19-6.59-10.75-5.56A9.37,9.37,0,0,0,1242.82,3.8Z"/><path class="cls-3" d="M1306.05,67.59a147.89,147.89,0,0,1-16.37,14.83c-19.73,15.23-26.6,27.46-16.57,29.52,2.5.48,3.85-.19,8.42-4.33a178.14,178.14,0,0,1,16.12-11.75c10.41-6.75,20.31-16.14,25.27-23.67,3-4.88,1-11.36-4.05-12.45C1314.34,58.58,1314,58.84,1306.05,67.59Z"/><path class="cls-3" d="M1282.58,131.14c-2.37,5.55,5.54,7.39,36.93,8.72,21,.89,28.12-.06,29.86-4.14,1.26-2.94-1.2-8-4.37-9.21-4.22-1.41-16.72-1.54-35.07-.39C1292.7,127.35,1283.37,129.06,1282.58,131.14Z"/></g></g></svg>