<svg xmlns="http://www.w3.org/2000/svg" viewBox="0 0 1865.89 280.47"><defs><style>.cls-1{fill:#4ac2ef;opacity:0.7;}.cls-2{font-size:195.31px;font-family:GuthenBlootsPersonalUse, Guthen Bloots Personal Use;}</style></defs><title>Inicia tu viaje</title><g id="Capa_2" data-name="Capa 2"><g id="Capa_1-2" data-name="Capa 1"><path class="cls-1" d="M195.45,220.12c-24.9-15.82-180.06,30-190,27.51C-4.46,242.51.8,118.54,8.26,98.88c2.64-7,6.15-8.94,14.6-7.27,9,1.78,100.77-19.07,181.89-33.26,2.43,3.54,8.51-10,10-5.49,1.12,2.63,19.06,1.53,45.74-1s62.12-6,98.18-9.46c32.44-3.13,21-2.22,53.54-4.66,55.19-4.13,6.27-2.78,105-6.77,14.23-.58,3,7,19.75,4.19,35.71-5.87,113.47,2.65,140.53-2.19,44.09-7.88,8.79,2.92,123.63,8.54,32.48,1.58,64,1.74,70.62-1.37,3.25-1.91,5.62-.74,5.51,2,1.57.43,79.11,14.13,79.4,16.68.46,2.8,2.78,4.5,5.13,3,4.28-2.76,89.12,3.12,90,11.31,2.42,23.3-15.68,116.59-26.64,138.24-5.78,11.43-21.52,7.6-41.48,1.88-59.59-17.07-35.13-4.64-97.71-13.05-45.77-6.15-29-5-106.57-12.31-39.67-3.72-28.89-2.47-55.35-4.56-11.6-.91-1.6-1.72-52.26,5.93-4.84-8.51-24.13,10.52-35.6-4.08-4.77-6.07-39.33-8.2-47-2.38-1.66,1.07-13.93,1.13-31.69.63-13.51-.37-153.21-5.48-169.37,10.8C351,181.25,231.13,211.65,195.45,220.12Z"/><text class="cls-2" transform="translate(37.61 178.71)">Inicia tu viaje</text></g></g></svg>