<svg xmlns="http://www.w3.org/2000/svg" viewBox="0 0 806.43 319.09"><defs><style>.cls-1{fill:#4ac2ef;opacity:0.7;}.cls-2{font-size:187.43px;font-family:GuthenBlootsPersonalUse, Guthen Bloots Personal Use;}.cls-3{fill-rule:evenodd;}</style></defs><title>Invierte</title><g id="Capa_2" data-name="Capa 2"><g id="Capa_1-2" data-name="Capa 1"><path class="cls-1" d="M135.57,253.9C118.3,238.72,10.68,282.69,3.76,280.3c-6.86-4.92-3.2-123.88,2-142.75,1.83-6.68,4.27-8.58,10.12-7,6.24,1.71,69.9-18.3,126.17-31.91,1.68,3.39,5.9-9.56,6.92-5.27.77,2.52,13.22,1.47,31.73-1l68.1-9.08c22.5-3,14.57-2.13,37.13-4.47,38.28-4,4.35-2.67,72.82-6.5,9.88-.55,2.09,6.67,13.7,4,24.77-5.64,78.71,2.54,97.48-2.11,30.58-7.56,6.1,2.8,85.75,8.19,22.53,1.53,44.4,1.68,49-1.31,2.25-1.83,3.89-.7,3.82,1.91,1.09.41,54.87,13.56,55.07,16,.32,2.69,1.93,4.32,3.56,2.87,3-2.65,61.81,3,62.4,10.85,1.68,22.36-10.87,111.88-18.47,132.66-4,11-14.93,7.3-28.78,1.81-41.33-16.38-24.36-4.45-67.77-12.53-31.74-5.9-20.11-4.85-73.92-11.81-27.52-3.57-20-2.37-38.39-4.37-8-.88-1.11-1.66-36.25,5.69-3.36-8.17-16.74,10.09-24.69-3.93-3.31-5.82-27.28-7.86-32.59-2.28-1.15,1-9.66,1.09-22,.61-9.37-.36-106.27-5.26-117.49,10.37C243.44,216.59,160.32,245.77,135.57,253.9Z"/><text class="cls-2" transform="translate(87.08 221.44)">InvierTE</text><path class="cls-3" d="M520.75,3.24c-.85,1.62-.84,6.23-.16,12,1.59,12.3,1.46,24.36-.24,45.14-1.18,14.33-1.15,17.55.56,20.09,1.74,2.89,2.11,3,4.86,1.17C530,79,531.49,75.15,533.48,62c3-19.33,2.57-48.84-.74-57.09-1-2.59-7-5.62-9.18-4.75A8,8,0,0,0,520.75,3.24Z"/><path class="cls-3" d="M574.71,57.68a125.53,125.53,0,0,1-14,12.65c-16.84,13-22.7,23.44-14.14,25.2,2.13.41,3.28-.17,7.18-3.69a149.29,149.29,0,0,1,13.76-10C576.43,76.05,584.87,68,589.1,61.6c2.61-4.16.85-9.69-3.45-10.62C581.79,50,581.53,50.21,574.71,57.68Z"/><path class="cls-3" d="M554.68,111.91c-2,4.74,4.73,6.31,31.51,7.45,18,.75,24,0,25.49-3.54,1.07-2.51-1-6.86-3.73-7.85-3.6-1.21-14.27-1.32-29.93-.34C563.31,108.68,555.36,110.14,554.68,111.91Z"/></g></g></svg>