<svg xmlns="http://www.w3.org/2000/svg" viewBox="0 0 1869.8 293.9"><defs><style>.cls-1{fill:#ffab2a;opacity:0.71;}.cls-2{font-size:150px;font-family:GuthenBlootsPersonalUse, Guthen Bloots Personal Use;}</style></defs><title>Algunos emprendimeintos</title><g id="Capa_2" data-name="Capa 2"><g id="Capa_1-2" data-name="Capa 1"><path class="cls-1" d="M347.42,212.29C303.15,194.61,27.36,245.81,9.64,243c-17.58-5.73-8.21-144.26,5-166.23,4.69-7.78,10.93-10,25.94-8.12,16,2,179.12-21.31,323.31-37.17,4.32,3.95,15.12-11.13,17.75-6.14,2,2.95,33.87,1.72,81.29-1.15L637.49,13.64c57.67-3.5,37.34-2.48,95.17-5.2C830.76,3.82,743.8,5.33,919.27.87c25.3-.65,5.34,7.77,35.11,4.69,63.47-6.57,201.69,3,249.79-2.45,78.37-8.81,15.62,3.25,219.75,9.53,57.74,1.78,113.77,2,125.54-1.52,5.77-2.14,10-.82,9.78,2.22,2.8.48,140.62,15.79,141.13,18.64.82,3.13,5,5,9.12,3.34,7.61-3.08,158.41,3.49,159.92,12.64,4.3,26-27.87,130.28-47.34,154.48-10.27,12.77-38.25,8.49-73.74,2.1-105.92-19.07-62.43-5.18-173.67-14.58-81.35-6.88-51.55-5.65-189.44-13.76-70.51-4.15-51.35-2.76-98.37-5.09-20.62-1-2.85-1.93-92.9,6.62-8.61-9.51-42.89,11.75-63.28-4.56-8.47-6.78-69.9-9.16-83.51-2.66-3,1.2-24.76,1.26-56.33.71-24-.42-272.33-6.12-301.07,12.07C623.86,168.84,410.83,202.81,347.42,212.29Z"/><text class="cls-2" transform="translate(113.4 153.66)">Nuestros emprendimientos</text></g></g></svg>