<svg xmlns="http://www.w3.org/2000/svg" viewBox="0 0 669.88 193.3"><defs><style>.cls-1{font-size:32.07px;font-family:VisbyCF-Bold, Visby CF;font-weight:700;}.cls-2{letter-spacing:-0.03em;}.cls-3{letter-spacing:-0.03em;}</style></defs><title>Recurso 61</title><g id="Capa_2" data-name="Capa 2"><g id="Capa_1-2" data-name="Capa 1"><path d="M12.82,0h-.36A8.84,8.84,0,0,0,7.52,1.85,6.91,6.91,0,0,0,4.37,7.63,8,8,0,0,0,7.2,14.48,8.2,8.2,0,0,0,13.13,17c1.13,0,5-.2,6.68-2.85a9.45,9.45,0,0,0,1.08-7.33C20.16,3.87,18.53,0,12.82,0Zm.31,15a6.25,6.25,0,0,1-4.65-2c-1.65-1.43-2.2-2.79-2.17-5.36A5,5,0,0,1,8.69,3.4,6.87,6.87,0,0,1,12.56,2h.26A6.06,6.06,0,0,1,16.64,3c-.49,0-1,.07-1.48.11-.73.06-1.48.13-2.18.13a.65.65,0,0,0-.65.65.64.64,0,0,0,.65.64c.76,0,1.54-.06,2.29-.13a20.48,20.48,0,0,1,2.55-.12,8.09,8.09,0,0,1,.56,1.06,14.74,14.74,0,0,0-3.29.49.65.65,0,0,0,.22,1.26.57.57,0,0,0,.22,0,14.57,14.57,0,0,1,3.31-.43c.06.2.12.4.17.61s.08.39.12.59l-.89,0c-.64,0-1.28,0-1.93,0a.65.65,0,0,0,0,1.3c.67,0,1.33,0,2-.06l.95,0a7.87,7.87,0,0,1-.1,1.38c-.53,0-1.05.08-1.56.14a17.44,17.44,0,0,1-2.58.16.65.65,0,1,0,0,1.3h.32a21.37,21.37,0,0,0,2.44-.18l1.07-.1a5.8,5.8,0,0,1-.61,1.22C17.24,14.51,15,15,13.13,15Z"/><path d="M20,60.14c0-1-.06-1.92-.09-2.88-.08-2.29-.17-4.66-.17-7,0-.86,0-1.74,0-2.61a57.73,57.73,0,0,0-.15-6.83c0-.35-.08-2.5-.12-4.79-.3-14.49-.43-14.55-1.14-14.94-.44-.23-1.25-.31-5.14-.29h-1c-1.3,0-2.61,0-3.88,0-1.06,0-2.12,0-3.18,0a1,1,0,0,0-.94.74c-.87,1.54-.9,5.57-.9,6.08,0,2.37,0,4.73,0,7.09s0,4.73,0,7.09c0,.35,0,1.22,0,2.43-.37,19.82.11,20.2.72,20.7.46.38,1,.49,9.79.48,2.18,0,4.24,0,5.11,0h.05a1,1,0,0,0,.93-.7,12.34,12.34,0,0,0,.25-4Zm-1.94,3.44-2.79,0H13.72c-2.88,0-7.07,0-8.44-.12-.43-2.55-.21-14.88-.13-19.09,0-1.22,0-2.1,0-2.46,0-2.36,0-4.71,0-7.07s0-4.73,0-7.11a26.72,26.72,0,0,1,.51-4.88c.87,0,1.74,0,2.61,0,1.25,0,2.55-.05,3.82,0h1.06c.94,0,2.92,0,3.87.05,0,.26.06.6.08,1H14.53a.65.65,0,0,0,0,1.3h2.76c0,.52.05,1.09.07,1.69l-.69,0a8,8,0,0,0-3.15.21.65.65,0,0,0-.37.84.66.66,0,0,0,.61.41.59.59,0,0,0,.23-.05,7.21,7.21,0,0,1,2.6-.11l.81,0c0,.56,0,1.13.05,1.72l-1.54.05c-.57,0-1.11.05-1.49.05a.65.65,0,0,0,0,1.29h0c.39,0,.94,0,1.53-.05l1.53,0c0,.65,0,1.29,0,1.91-.8,0-1.79.13-2.62.23-.47.06-1,.11-1.14.11h0a.68.68,0,0,0-.65.64.66.66,0,0,0,.64.66h0c.24,0,.63,0,1.29-.13s1.76-.2,2.5-.22c0,.64,0,1.23,0,1.77v0c-1.32-.06-2.73,0-4.09,0a.65.65,0,0,0,.05,1.29c1.36-.05,2.77-.09,4.06,0,0,.84,0,1.54.05,2.08l-1.48.1a22,22,0,0,1-2.42.1h0a.65.65,0,0,0,0,1.3h.36c.75,0,1.48-.06,2.2-.11.46,0,.94-.07,1.42-.09,0,.1,0,.18,0,.24.06.59.1,1.19.12,1.79a17.34,17.34,0,0,0-1.78.26,10.39,10.39,0,0,1-2.3.28h0a.65.65,0,0,0,0,1.29h.17a13.57,13.57,0,0,0,2.4-.29,13.17,13.17,0,0,1,1.58-.24c0,.74,0,1.5,0,2.24-.8,0-1.66.1-2.5.17s-1.81.16-2.51.16h0a.65.65,0,1,0,0,1.29h0c.75,0,1.66-.08,2.62-.16.8-.07,1.62-.14,2.37-.16,0,.72,0,1.44,0,2.15-.57,0-1.14.05-1.69.1C15.43,50,14.71,50,14,50a.65.65,0,1,0,0,1.29c.77,0,1.53-.06,2.27-.11.54,0,1.07-.08,1.6-.09,0,.85,0,1.71,0,2.56-2.7,0-3.87.08-4.4.48a.64.64,0,0,0-.13.91.63.63,0,0,0,.51.26.7.7,0,0,0,.39-.13c.22-.14,1-.28,3.67-.23,0,.8,0,1.6.08,2.38,0,.12,0,.24,0,.37l-1.28,0c-.84,0-1.68.05-2.53.05a.65.65,0,1,0,0,1.3c.86,0,1.72,0,2.57-.06l1.28,0c0,.4,0,.8,0,1.21,0,.19,0,.4,0,.6-.47,0-1,.13-1.48.22-1,.17-2.2.39-2.63.1a.64.64,0,0,0-.9.16.65.65,0,0,0,.17.9,2.52,2.52,0,0,0,1.47.37,12.39,12.39,0,0,0,2.11-.26c.45-.08.9-.15,1.3-.19A11.75,11.75,0,0,1,18.09,63.58Z"/><path d="M68.26,60.82c-.13-1.71-.27-3.47-.32-5.15-.07-2.13-.18-4.15-.3-6.29-.17-2.93-.34-6-.39-9.32v-.42a31.07,31.07,0,0,0-1-8.5s0-.06,0-.1a.65.65,0,0,0-.2-.5c-.2-.62-.42-1.25-.69-1.87h0a.66.66,0,0,0-.2-.47c-2.58-5.63-7.51-8.6-14.28-8.6h-.34c-4.85.07-9.11,3.37-11.26,5.68,0-.42-.09-.84-.13-1.25l0-.38c0-.09,0-.24,0-.4a2.81,2.81,0,0,0-.45-2.06,2.39,2.39,0,0,0-1.8-.53h-.63c-.54-.05-1.57-.07-3.16-.07-1.36,0-2.9,0-4.2,0l-2.25,0h-.3a.83.83,0,0,0-.69.28.94.94,0,0,0-.29.69c0,.44,0,1,0,1.59,0,1.07.09,2.27,0,3.3-.07,1.26-.11,4.47-.16,7.87s-.09,7.07-.17,8.5C25,45,24.58,64,25.21,65c.24.42.53.89,4.49.89,1,0,1.95,0,2.57-.09.95-.08,1.9-.18,2.85-.28,1.56-.16,3.18-.33,4.78-.42a1,1,0,0,0,.92-.92c.07-1.42-.18-8.75-.38-14.63-.11-3-.19-5.49-.21-6.42-.06-3.64.63-6.22,2-7.66A5.83,5.83,0,0,1,46.91,34c5.77.22,6.12,6.37,6,12.65l0,.58c0,1,0,2-.07,2.93,0,2-.1,4-.1,6.07,0,1.06-.06,2.16-.13,3.22-.08,1.41-.17,2.88-.11,4.33a1,1,0,0,0,.92.93c1.76.09,3.22.1,5,.1h2.2c1.43,0,3.83,0,7-.17a1,1,0,0,0,.92-1C68.4,62.66,68.33,61.74,68.26,60.82Zm-7.68,2h-2.2c-1.44,0-2.66,0-4-.06,0-1.07.06-2.17.13-3.24s.13-2.22.13-3.34c0-2,0-4,.11-6,0-1,0-2,.06-2.94l0-.58c.11-5,.31-14.31-7.85-14.63a7.68,7.68,0,0,0-6.09,2.09,8.42,8.42,0,0,0-2,3.81c-.43,0-.86,0-1.29,0-.71,0-1.42.06-2.14.06a.65.65,0,1,0,0,1.29c.74,0,1.47,0,2.19-.06l1,0a14.79,14.79,0,0,0-.19,1.56H34.3a.65.65,0,0,0,0,1.3h4c0,.35,0,.71,0,1.09,0,.13,0,.29,0,.48-.69,0-1.43.11-2.11.2a14.85,14.85,0,0,1-1.67.15.65.65,0,0,0,0,1.3,17.06,17.06,0,0,0,1.83-.17c.65-.08,1.36-.17,2-.19,0,.62,0,1.35.07,2.15l-.51,0c-1,.1-2.09.2-3.16.2a.65.65,0,0,0,0,1.3c1.13,0,2.23-.11,3.29-.21l.42,0c0,.4,0,.82,0,1.24v.16l-1.6.05c-.64,0-1.29.06-1.93.06a.65.65,0,1,0,0,1.29c.67,0,1.34,0,2-.06l1.59-.05c0,.71,0,1.43.07,2.16a27.54,27.54,0,0,0-3.18.22.65.65,0,0,0,.08,1.29h.08a30.46,30.46,0,0,1,3.06-.21c0,.61,0,1.22.06,1.81a14.34,14.34,0,0,0-2.45.16,15,15,0,0,1-2,.17h0a.65.65,0,0,0,0,1.3h.43c.56,0,1.13-.1,1.68-.17a12.06,12.06,0,0,1,2.27-.16h.06c0,.75.05,1.48.06,2.15a8,8,0,0,0-3.22.4.65.65,0,0,0,.25,1.24.8.8,0,0,0,.26,0,7.06,7.06,0,0,1,2.75-.29c0,.86,0,1.61,0,2.16-1.34.1-2.68.24-4,.37-.93.1-1.87.2-2.81.28-.56,0-1.5.08-2.4.08a19.06,19.06,0,0,1-2.78-.15c-.2-2.73-.13-16.2.12-20.83.08-1.48.13-5.09.17-8.58,0-3.23.09-6.57.15-7.8a33.45,33.45,0,0,0,0-3.47c0-.19,0-.38,0-.55l1.59,0c1.29,0,2.83,0,4.18,0,1.51,0,2.51,0,3,.06l.39,0h.73c0,.2,0,.46,0,.61v.22a6.83,6.83,0,0,0-.87.14,5.65,5.65,0,0,1-.71.11h-.66c-.27,0-.53,0-.8,0a5.06,5.06,0,0,0-.5.09h0a.64.64,0,0,0-.38.05.68.68,0,0,0-.46.85.59.59,0,0,0,.63.44,2,2,0,0,0,.5-.08l.3-.06c.23,0,.47,0,.71,0h.72a5.76,5.76,0,0,0,.91-.15,5.81,5.81,0,0,1,.71-.11c0,.43.09.88.15,1.32a7.83,7.83,0,0,0-3.53.27.64.64,0,0,0-.29.86.65.65,0,0,0,.87.29,8,8,0,0,1,3.22-.07c0,.15.07.3.11.45a1,1,0,0,0,.92.71h0a.94.94,0,0,0,.92-.66c.43-.89,5.29-6.28,10.93-6.36h.31A15.28,15.28,0,0,1,57.83,23h-.09a8.6,8.6,0,0,1-.91.11c-1.37.08-2.71.12-4.1.12a.65.65,0,0,0,0,1.29c1.41,0,2.78,0,4.17-.12.32,0,.66-.06,1-.11a7.18,7.18,0,0,1,1.76-.12A12.63,12.63,0,0,1,61,25.4l-1.1.07c-.44,0-.89.07-1.34.09-.27,0-.6,0-.95,0a6,6,0,0,0-2.37.2A.64.64,0,0,0,55.51,27a.67.67,0,0,0,.24,0,5.38,5.38,0,0,1,1.82-.11c.39,0,.75,0,1.08,0L60,26.76c.7-.05,1.37-.09,2.05-.1a13.59,13.59,0,0,1,.86,1.39c-.72,0-1.49,0-2.33.08-.21,0-.47,0-.75,0a6.93,6.93,0,0,0-2.6.29.63.63,0,0,0-.32.85.64.64,0,0,0,.59.38.66.66,0,0,0,.27-.06,7,7,0,0,1,2.06-.16h.8c1.07-.05,2-.07,2.91-.09.17.4.32.8.46,1.21l-.32.07c-.34.08-.66.15-1,.19s-.87.07-1.33.1a10.91,10.91,0,0,0-2.28.25.65.65,0,0,0,.16,1.28l.16,0a9.67,9.67,0,0,1,2-.22,13.74,13.74,0,0,0,1.44-.11A9.55,9.55,0,0,0,64,31.87l.42-.09c.15.55.28,1.09.38,1.63a11.76,11.76,0,0,0-1.68,0l-.64,0c-.19,0-.45,0-.74,0-1.41-.05-2.55,0-3.19.5A.65.65,0,0,0,59,35.09a.66.66,0,0,0,.42-.15,5.81,5.81,0,0,1,2.31-.2c.32,0,.6,0,.82,0l.68,0a8.49,8.49,0,0,1,1.82,0c.11.78.18,1.51.23,2.18H60.62a.65.65,0,1,0,0,1.29h4.67c0,.58,0,1.07,0,1.44v.45c0,.21,0,.41,0,.62a13.83,13.83,0,0,0-2.66.16,14.64,14.64,0,0,1-1.49.15.65.65,0,0,0-.65.65.66.66,0,0,0,.65.64h0a16,16,0,0,0,1.65-.15A11.25,11.25,0,0,1,65.35,42q0,1.26.09,2.46l-1.53,0c-.83,0-1.67.06-2.52.06a.65.65,0,0,0,0,1.29c.86,0,1.71,0,2.57,0l1.54,0q.06,1.14.12,2.25c-.73.06-1.47.18-2.19.31-.54.09-1,.18-1.53.24A.65.65,0,0,0,62,49.86h.31a.65.65,0,0,0,.31-.08c.36-.05.72-.11,1.07-.18a18.31,18.31,0,0,1,2-.28s0,.11,0,.17c0,.71.08,1.4.11,2.09l-1.42,0c-.69,0-1.38.05-2.08.05a.65.65,0,1,0,0,1.3h.36q.88,0,1.77-.06l1.44,0c0,.56.05,1.13.08,1.69a17.41,17.41,0,0,0-3.48.24.64.64,0,0,0-.5.76.65.65,0,0,0,.63.52l.14,0a16.37,16.37,0,0,1,3.26-.2c0,.63.06,1.27.09,1.92A25,25,0,0,1,63,58h0a.65.65,0,0,0-.65.65.66.66,0,0,0,.66.65,26.57,26.57,0,0,0,3.23-.23c0,.42.06.85.09,1.27H63a.65.65,0,1,0,0,1.29h3.42c0,.36.06.73.08,1.09C63.85,62.84,61.84,62.84,60.58,62.84Z"/><path d="M425.19,8.36c-2.38-2.88-7.72-3.44-9.91-3.54-5.18-.25-11.68-.36-21-.36h0c-4.22-.09-7.5,0-10.28.11-1.63,0-3.17.11-4.64.11h0c-.67,0-1.33,0-2,0l-1.29,0c-4.62,0-9.44,1.08-10.2,9.08-.63,6.49-1.88,36.86-1.79,38.85.3,6.72,4.17,13.5,12.17,13.52,3.48,0,7,.1,10.32.18,3.6.09,7.32.18,11.07.18s21.86-.44,23.6-.93c3.31-.92,5.14-4.48,5.15-10,0-3.28,0-11.39,0-16.1V36.24c0-.89.14-3.8.28-6.89.2-4.29.43-9.16.43-11.29,0-.35,0-.72,0-1.09C427.1,14.05,427.14,10.73,425.19,8.36ZM419.57,40.7c0-.49,0-1,0-1.49l.25-.08a7.47,7.47,0,0,1,.82,0h.48c.34,0,.74,0,1.17-.08a5.52,5.52,0,0,1,2.05,0,.32.32,0,0,0,.09,0v1.3a36.68,36.68,0,0,1-4.87.47Zm0,1.44a40.18,40.18,0,0,0,4.88-.46v1.26a18.76,18.76,0,0,0-4.87.57C419.57,43.07,419.57,42.61,419.57,42.14Zm4.87-4.35a7.51,7.51,0,0,0-2.27,0c-.39,0-.76.08-1,.08s-.3,0-.45,0c-.31,0-.63,0-1,0l-.14,0,0-1.58a.61.61,0,0,0,.3.08,18.32,18.32,0,0,0,2.14-.19,20.82,20.82,0,0,1,2.39-.22,2.54,2.54,0,0,0,0,.26Zm-4.84,7a17.24,17.24,0,0,1,4.85-.62v2.17c-.35,0-.72,0-1.12-.07a15.61,15.61,0,0,0-3.69,0C419.62,45.83,419.61,45.33,419.6,44.82Zm.27,4.73c-.07-.67-.12-1.31-.16-1.93a12.83,12.83,0,0,1,3.53-.06c.43,0,.83.06,1.21.07v1.79c-1.09.11-3.27.12-4.48.13Zm4.61-14.84a23.51,23.51,0,0,0-2.58.23,16.68,16.68,0,0,1-2,.19.64.64,0,0,0-.28.07c0-.82,0-1.63.06-2.42a8.65,8.65,0,0,0,1.74.16c.77,0,1.58-.06,2.34-.12l.78,0C424.53,33.5,424.5,34.16,424.48,34.71ZM420,50.81c1.27,0,3.28,0,4.47-.12v1.8c-.8,0-1.62,0-2.41.08s-1.34.08-2,.09C420.07,52,420,51.41,420,50.81Zm5.19-33.87h-5.55q0-.24-.06-.45a6.47,6.47,0,0,1-.07-.91,30.89,30.89,0,0,1,3.84,0c.61,0,1.23.06,1.84.08C425.18,16.12,425.17,16.53,425.17,16.94Zm-5.41,1.26h5.4c0,.41,0,.91,0,1.48h-.46c-1,0-2.08,0-3.12,0-.64,0-1.19.07-1.71.13h0C419.83,19.26,419.8,18.71,419.76,18.2Zm5.39-3.76-1.76-.08a32.45,32.45,0,0,0-3.94,0,3.8,3.8,0,0,0-.47-1.59l2.6,0c1.12,0,2.27.06,3.42.06C425.08,13.36,425.12,13.89,425.15,14.44Zm-7.56.88a10.49,10.49,0,0,0,.09,1.46c.43,2.77.31,5.16-.3,6.16a7.29,7.29,0,0,1-4.07.87h0c-.76,0-1.5,0-2.22-.08l-.44,0c-1.49-.07-2.21-.38-2.57-1.05S407.41,15.6,408,14c.18-.53.54-.82,1.87-.82l.88,0a11.38,11.38,0,0,0,2,0,11.09,11.09,0,0,1,1.29-.07,10,10,0,0,1,3,.37C417.49,13.63,417.57,14,417.59,15.32Zm2.19,5.77H420c.49-.06,1-.1,1.62-.13,1,0,2,0,3,0h.44q0,.7-.06,1.5h-5.46A9.75,9.75,0,0,0,419.78,21.09Zm.9,42.57c-1.35.37-18.6.86-23.09.86-3.72,0-7.43-.09-11-.18-3.38-.08-6.87-.17-10.36-.18-7.21,0-10-6.31-10.28-11.7-.09-1.89,1.19-32.43,1.77-38.59s3.5-7.36,8.32-7.36l1.22,0c.69,0,1.37,0,2.07,0h0c1.5,0,3.06-.05,4.7-.1,2-.07,4.28-.15,7-.15,1,0,2.07,0,3.23,0,9.36,0,15.83.11,21,.35a18.6,18.6,0,0,1,6.75,1.51l-1,0c-1.28,0-2.61.06-3.91.06a.64.64,0,0,0-.63.64.63.63,0,0,0,.63.63c1.32,0,2.65,0,3.94-.07l2.63-.05.11.12a5.25,5.25,0,0,1,1,2c-1.05,0-2.1,0-3.12-.06-1.28,0-2.61-.07-3.92-.07a.62.62,0,0,0-.32.11,15,15,0,0,0-4.94-.31,9.64,9.64,0,0,1-1.64,0l-1,0c-.81,0-2.95,0-3.66,2.1s-.33,9.17.2,10.16c.92,1.73,2.71,2,4.17,2.11l.44,0c.71,0,1.51.08,2.32.08h0c1.59,0,3.89-.15,5.38-1.39a1,1,0,0,0,.17-.18,4.64,4.64,0,0,0,.26-.44H425c0,.57-.05,1.16-.08,1.75l-4,.15c-1.84.08-3.74.16-4.64.16a.63.63,0,0,0-.63.63.64.64,0,0,0,.63.64c.93,0,2.84-.09,4.69-.16,1.46-.06,2.94-.13,4-.15L424.79,28,422.54,28c-3-.07-6.65-.17-8-.05a.64.64,0,0,0,.12,1.27c1.24-.12,5,0,7.81,0l2.23.05c0,.77-.08,1.52-.11,2.23l-.93.06a14.36,14.36,0,0,1-4-.06l0-.76a1,1,0,0,0-.3-.71,1,1,0,0,0-.72-.26,35.33,35.33,0,0,1-3.56,0c-.67,0-1.32,0-1.93,0a13.14,13.14,0,0,0-1.66.08.94.94,0,0,0-.83.89c-.6,10.38-2.46,21-11.73,21-7.11,0-12.34-1.79-15.55-5.3s-4.47-8.71-3.85-15.56a1,1,0,0,0-.78-1,20.29,20.29,0,0,0-3.38-.35,7.54,7.54,0,0,0-3.63.78.94.94,0,0,0-.49.78c-.18,3.43-.18,7.89,0,12.92.06,1.78.17,3.11.28,4.51.09,1.12.18,2.27.25,3.7.16,3.18.57,5.19,4.82,6.26a36.43,36.43,0,0,0,7.76.63c1.12,0,2.17,0,3.11.07,2.07.11,4.29.17,6.8.17,2.21,0,4.45-.05,6.62-.09s4.48-.08,6.76-.08l1.6,0,1.83,0a13.36,13.36,0,0,0,6.1-1.09,5.08,5.08,0,0,0,2.7-4.14c.7,0,1.43,0,2.14-.09s1.58-.09,2.34-.09c0,.66,0,1.26,0,1.74v0h-4a.63.63,0,0,0-.63.63.64.64,0,0,0,.63.64h4a18.29,18.29,0,0,1-.26,2h-7.62a.64.64,0,0,0-.64.64.64.64,0,0,0,.64.63h7.31a7.8,7.8,0,0,1-.57,1.36l-2,.1c-2.63.15-5.34.3-8.05.28h0a.64.64,0,0,0,0,1.27h.46c2.6,0,5.17-.14,7.67-.28l.9-.05A3.73,3.73,0,0,1,420.68,63.66Zm-38.62-16c3.59,3.92,9.3,5.92,17,5.92,11.84,0,13.14-14.77,13.58-22,.7,0,1.6,0,2.5,0s1.87.07,2.72.05v.35c-.07,2.77-.15,5.91-.15,8.64v.4a83.8,83.8,0,0,0,.32,8.78V50c.3,3,.37,5.4-1.61,6.43a11.71,11.71,0,0,1-5.22.88c-.6,0-1.2,0-1.78,0l-1.65,0c-2.3,0-4.58,0-6.79.09s-4.4.08-6.59.08c-2.48,0-4.67-.06-6.7-.17-1-.05-2.05-.06-3.19-.07a35,35,0,0,1-7.32-.57c-3.06-.77-3.24-1.64-3.38-4.52-.08-1.46-.17-2.62-.26-3.75-.11-1.38-.21-2.69-.28-4.43-.17-4.7-.17-8.89,0-12.17a6.48,6.48,0,0,1,2.26-.34,15.92,15.92,0,0,1,2.2.18C377.18,38.52,378.66,43.94,382.06,47.67Z"/><path d="M395,48.24a13.44,13.44,0,0,0,1.88.14h0c6.25,0,11-4.71,11.33-11.2.15-3.12-1.42-8.89-2.89-10.64a10.63,10.63,0,0,0-9-4.26c-2.67.12-6.67,2-8.58,3.65-3.13,2.66-3.56,5.93-3.55,9.06C384.17,41.44,389,47.38,395,48.24Zm-6-20.87a15.65,15.65,0,0,1,7.43-3.19h.42a8.13,8.13,0,0,1,4.56,1.33c-.8,0-1.61,0-2.41,0l-1.46,0a.64.64,0,0,0-.63.64.63.63,0,0,0,.63.63h0l1.49,0a26.92,26.92,0,0,1,4,.12l.53.57c-.49,0-1,0-1.51,0a5.77,5.77,0,0,1-2.16-.11.63.63,0,0,0-.51,1.16,6.47,6.47,0,0,0,2.74.22,6.32,6.32,0,0,1,2.33.12c.14.3.27.64.41,1-.85,0-1.7.06-2.54.13s-1.65.13-2.46.13a.63.63,0,1,0,0,1.26h0c.86,0,1.72-.07,2.56-.13s1.92-.14,2.86-.12c.13.42.25.85.36,1.3h0a10.59,10.59,0,0,1-3.32-.15.63.63,0,0,0-.35,1.22,7.87,7.87,0,0,0,2.13.25c.54,0,1.08,0,1.61-.06h.25c.1.5.18,1,.24,1.49-.65,0-1.31.07-2,.12s-1.41.13-2.09.13a.63.63,0,1,0,0,1.26c.73,0,1.48-.06,2.2-.13s1.32-.11,1.95-.12c0,.22,0,.42,0,.62s0,.65-.09,1c-.77,0-1.52.13-2.26.23a19.34,19.34,0,0,1-2.48.22.64.64,0,0,0,0,1.27h0a20.71,20.71,0,0,0,2.65-.24c.63-.08,1.23-.16,1.83-.2a9.82,9.82,0,0,1-.91,2.34h-.13c-1.86.17-4.07.34-6.26.34a.63.63,0,1,0,0,1.26c1.92,0,3.82-.12,5.51-.27a8.94,8.94,0,0,1-1.2,1.26c-1,0-2,0-3,0s-1.66.06-2.48.06a.64.64,0,0,0-.63.64.63.63,0,0,0,.63.63c.85,0,1.7,0,2.52-.06l1,0a9.43,9.43,0,0,1-4.14.94,11.11,11.11,0,0,1-1.61-.12c-5-.73-9.15-5.83-9.16-11.37C386.06,31.81,386.54,29.42,389,27.37Z"/><path d="M79.41,124.53a.93.93,0,0,0-.79-.16,10.21,10.21,0,0,1-2.9.39c-.63,0-1.25,0-1.91-.09l-.85,0c1.59-1.94,3.7-5,3.28-6.77a1.67,1.67,0,0,0-1.17-1.25.9.9,0,0,0-.7.06l-1.38.75a23.43,23.43,0,0,1-6.78,2.85,5.82,5.82,0,0,1-1,.1,6.24,6.24,0,0,1-3.36-1.28,14,14,0,0,0-4.35-1.91,16.75,16.75,0,0,0-3.73-.39,17,17,0,0,0-8.69,2.16c-6.37,4-6.6,10.46-6.6,16.76a14.5,14.5,0,0,1-3,.27,43,43,0,0,1-5.64-.47,18.33,18.33,0,0,1-7.46-3.21A55.16,55.16,0,0,1,15.81,127l-1.57-1.37A27.58,27.58,0,0,1,11,122.11L10.9,122c-.19-.24-.4-.57-.63-.92-.68-1.08-1.45-2.29-2.69-2.29a2.36,2.36,0,0,0-1.8,1c-.9,1.12-1,5.27-.45,12.34a11.65,11.65,0,0,0,2,5.56,13.26,13.26,0,0,0,.81,1.09c.26.32.57.7.82,1.07-.52-.14-1.07-.35-1.59-.54A7.63,7.63,0,0,0,5,138.7a1.45,1.45,0,0,0-1.53,1.4c-.28,7.19,5.46,13.16,9.82,16.62a14.63,14.63,0,0,1-1.9-.43,17.27,17.27,0,0,0-1.92-.44,6.61,6.61,0,0,0-.93-.08,1.85,1.85,0,0,0-1.8.87c-.55,1.07.39,2.38,1.38,3.77l.43.6a17.93,17.93,0,0,0,10.21,6.81c-1.77,1.62-4.53,2.44-8.22,2.44a39.37,39.37,0,0,1-9.45-1.34.92.92,0,0,0-.86.25A.9.9,0,0,0,0,170c.72,2.71,4.61,6.38,7.17,7.36a57.69,57.69,0,0,0,14.44,3.24c2.52.25,4.86.37,7.13.37a49.65,49.65,0,0,0,17.58-3,30.71,30.71,0,0,0,10.32-5.68A30.37,30.37,0,0,0,62,165.75c.57-.86,1.17-1.74,1.8-2.61,2.87-3.94,4.16-7.64,5.54-12.06a44,44,0,0,0,1.41-6.82c.19-1.23.38-2.5.64-3.77a26,26,0,0,0,.37-3.09c.06-.76.12-1.55.24-2.31A2.65,2.65,0,0,1,73.43,133c.29-.22.61-.46,1-.77l1.15-.94c2.06-1.67,4.2-3.4,4.22-6A.9.9,0,0,0,79.41,124.53Zm-5,5.31-.81.66-.12,0H69.6a.7.7,0,0,0,0,1.39h2.28a3.91,3.91,0,0,0-1.39,1.89h-.36a19.18,19.18,0,0,1-2.53,0,.73.73,0,0,0-.74-.06.7.7,0,0,0-.3.94c.22.43.67.56,2,.56.44,0,1,0,1.65,0h0c-.1.72-.16,1.42-.21,2.1a2.45,2.45,0,0,0,0,.27c-.65-.05-1.29-.16-1.95-.27-.37-.06-.75-.13-1.13-.18a12.25,12.25,0,0,0-1.24-.09,7.11,7.11,0,0,1-1.75-.21.7.7,0,0,0-.44,1.32,8,8,0,0,0,2.14.28c.39,0,.77,0,1.09.08l1.09.17c.67.12,1.34.23,2,.29,0,.4-.1.81-.18,1.21s-.17.87-.24,1.31h-.2a26.22,26.22,0,0,1-6.42-.47.68.68,0,0,0-.85.5.69.69,0,0,0,.5.85,23.9,23.9,0,0,0,5.77.52h1L69,144a2.34,2.34,0,0,1,0,.26,5.52,5.52,0,0,0-1.4,0c-.22,0-.43,0-.59,0a33.67,33.67,0,0,1-3.69-.16,33.85,33.85,0,0,0-3.62-.09H58.57a.7.7,0,1,0,0,1.4h1.08c1.15,0,2.34,0,3.48.08s2.47.17,3.81.17a5.19,5.19,0,0,0,.74-.05,4.75,4.75,0,0,1,1,0c-.11.72-.25,1.43-.39,2.14-2,0-4.06-.08-6-.15s-4.29-.17-6.45-.17a.7.7,0,1,0,0,1.39c2.13,0,4.3.09,6.4.17,1.88.07,3.83.14,5.77.15-.12.46-.24.92-.38,1.39-.06.17-.11.34-.17.51-.51,0-1,.07-1.54.13a13.07,13.07,0,0,1-1.6.13H59.88c-1,0-2-.07-3-.14a28.87,28.87,0,0,0-4.26-.1.69.69,0,0,0-.65.74.7.7,0,0,0,.75.65,27.7,27.7,0,0,1,4.06.1c1,.07,2,.15,3,.15h4.49a17.35,17.35,0,0,0,1.77-.14c.31,0,.62-.08.92-.1-.25.75-.5,1.48-.77,2.19a10.86,10.86,0,0,0-1.89,0c-.3,0-.6,0-.87,0-1.5,0-2.94-.06-4.4-.17a66.49,66.49,0,0,0-7.89-.16.7.7,0,1,0,.07,1.39,63.54,63.54,0,0,1,7.71.16c1.5.12,3,.17,4.51.17.3,0,.62,0,.95,0s.87,0,1.28,0c-.24.58-.49,1.15-.76,1.71-1.76,0-3.52,0-5.27,0-1.94,0-3.88,0-5.82,0a.7.7,0,0,0,0,1.4c1.94,0,3.87,0,5.8,0l4.57,0c-.35.64-.75,1.27-1.17,1.91h0a10.24,10.24,0,0,0-1.76.08c-.4,0-.78.08-1.16.08-1,0-1.9,0-2.85,0h-4.9c-.24,0-.53,0-.84-.05a5.7,5.7,0,0,0-2.68.2.7.7,0,0,0,.62,1.25,5.35,5.35,0,0,1,2-.06c.35,0,.67,0,.94,0h4.89q1.44,0,2.88,0c.44,0,.87,0,1.28-.09l.66-.06c-.34.47-.67,1-1,1.42a14.94,14.94,0,0,0-1.5.15c-.51.07-1,.13-1.48.16-1.71.07-3.47.07-5.18.07h-.19c-1.42,0-2.85.05-4.24.09s-2.64.07-4,.08a.7.7,0,0,0,0,1.39h0c1.33,0,2.68,0,4-.08s2.8-.08,4.2-.08H53c1.72,0,3.5,0,5.24-.08.55,0,1.09-.1,1.61-.17l.3,0c-.4.6-.81,1.2-1.23,1.78-.82,0-1.64,0-2.45,0-1.34,0-2.72.08-4.06,0l-1.76-.1a44.54,44.54,0,0,0-4.75-.13.7.7,0,0,0,.07,1.39,42.12,42.12,0,0,1,4.6.13c.6,0,1.19.08,1.77.1s1.07,0,1.61,0c.86,0,1.72,0,2.56,0l1.32,0a19.77,19.77,0,0,1-2.29,2.39l-.18.15c-1.05,0-2.09,0-3.14,0s-2.1,0-3.16,0c-1.32,0-2.68-.1-4-.21a46.67,46.67,0,0,0-4.75-.2.7.7,0,0,0-.68.71.69.69,0,0,0,.72.68,44.12,44.12,0,0,1,4.6.2c1.34.11,2.73.22,4.11.22,1.07,0,2.13,0,3.19,0h1.27a23.8,23.8,0,0,1-3.21,1.87c-2.32,0-4.72-.09-7.53-.32-1-.09-2.06-.1-3.06-.1a30.14,30.14,0,0,1-4.06-.23.7.7,0,1,0-.21,1.38,30.34,30.34,0,0,0,4.26.24c1,0,2,0,3,.1,1.65.13,3.16.22,4.59.27-.47.19-1,.38-1.48.57-.87.32-1.75.6-2.63.87a8.55,8.55,0,0,0-2.45-.22,11.57,11.57,0,0,1-1.5-.06c-.69-.09-1.4-.23-2.08-.36s-1.19-.23-1.78-.32c-.86-.13-1.74-.2-2.6-.27a22.28,22.28,0,0,1-3.52-.46.7.7,0,0,0-.33,1.36,24.87,24.87,0,0,0,3.74.49c.83.07,1.69.13,2.49.26.58.09,1.16.2,1.74.31s1.31.25,2,.35q-2,.39-4.05.63a7.64,7.64,0,0,0-1.72-.29,10,10,0,0,1-1.2-.16l-.78-.19c-.93-.22-1.88-.45-2.85-.6l-.51-.09a11.19,11.19,0,0,1-4.13-1.16.71.71,0,0,0-.43-.11.81.81,0,0,0-.74.54.71.71,0,0,0,.17.87.72.72,0,0,0,.66.12,14.36,14.36,0,0,0,4.25,1.12L28,179c.33.05.66.13,1,.19h-.18a68.3,68.3,0,0,1-6.95-.37,55.82,55.82,0,0,1-14-3.12,14.08,14.08,0,0,1-5.31-4.6,38.81,38.81,0,0,0,8,1c5.15,0,8.77-1.5,10.76-4.44a.91.91,0,0,0-.73-1.41c-3.49-.09-8.22-2.89-10.54-6.24-.13-.2-.28-.41-.44-.62a12.55,12.55,0,0,1-1.13-1.78,4.51,4.51,0,0,1,.74.06A13.62,13.62,0,0,1,11,158a12.13,12.13,0,0,0,3.09.54,5.15,5.15,0,0,0,2-.37.9.9,0,0,0,.56-.91c0-.43-.28-.6-.64-.87C9.12,151.5,5.27,145.71,5.3,140.54a11.52,11.52,0,0,1,1.44.48,8.4,8.4,0,0,0,3.72.77.9.9,0,0,0,.76-.9c0-1.16-.89-2.26-1.67-3.23-.27-.35-.53-.67-.7-.94A9.77,9.77,0,0,1,7.13,132c-.55-6.43-.39-10.43.06-11.05.25-.32.39-.36.39-.36.28,0,.88,1,1.17,1.45a13,13,0,0,0,.75,1.09l.11.13A29.44,29.44,0,0,0,13.06,127c.51.44,1,.89,1.55,1.36a57,57,0,0,0,6.8,5.41,20.05,20.05,0,0,0,8.18,3.48,44.16,44.16,0,0,0,5.89.49,14,14,0,0,0,4.19-.53.89.89,0,0,0,.63-.86c0-6.31,0-12.27,5.76-15.92a15.1,15.1,0,0,1,7.73-1.88,15.64,15.64,0,0,1,3.33.34,12.11,12.11,0,0,1,3.81,1.7,7.92,7.92,0,0,0,4.3,1.53,7,7,0,0,0,1.34-.13,25,25,0,0,0,7.3-3l.61-.34c-.26,1.26-2.33,4.43-4.12,6.18a.91.91,0,0,0,.63,1.55h.35c.85,0,1.61.05,2.35.1a18.81,18.81,0,0,0,4-.06,4.15,4.15,0,0,1-.58.92c-.52,0-1,0-1.56.08a19.88,19.88,0,0,1-3.08,0,.7.7,0,0,0-.14,1.39q.6.06,1.23.06c.69,0,1.4-.05,2.09-.09h0Z"/><path d="M424.94,92.13l-.07-1.53a1.51,1.51,0,0,0-1-1.36c-3.68-1.28-9.75-1.48-13.05-1.48-2.11,0-4.23.08-5.67.21-5,.46-11.71,2.73-14.36,4.85-8.26,6.6-8.63,16.52-8.18,23.4a92.77,92.77,0,0,1,.06,10.56,26.18,26.18,0,0,1-4.6.34c-1.05,0-2.1,0-3.16-.07-1.82-.06-3.66-.12-5.59,0a1.51,1.51,0,0,0-1.42,1.72,39.2,39.2,0,0,1,.21,6c0,.93,0,1.87,0,2.82,0,3.16.13,5.81.27,9.05a1.51,1.51,0,0,0,1.43,1.44c2.26.13,5,0,7.54-.07,1.84-.07,3.74-.15,5.57-.13s1.85,0,1.85,1.83c0,1.18.06,2.63.12,4.17.09,2.16.19,4.4.12,6-.14,2.84-.18,5.17-.22,7.43,0,2.61-.09,5.07-.26,8.26-.75,14-.3,15.63-.15,16.16a1.5,1.5,0,0,0,1.33,1.09l2,.18c2,.18,3.72.34,6,.34h2.89a35.54,35.54,0,0,0,8.9-.77,1.5,1.5,0,0,0,1.11-1.51c-.2-5.44-.09-36.2.22-38.53a12.15,12.15,0,0,0,.06-2.58c0-.17,0-.39,0-.56a5.8,5.8,0,0,1,.68-.06c1.38-.07,2.75-.15,4.12-.24a80.42,80.42,0,0,1,9.29-.25,1.49,1.49,0,0,0,1.59-1.42c.23-4.14.56-12.14.2-19.16a1.49,1.49,0,0,0-1.28-1.41,58.88,58.88,0,0,0-8.57-.43h-1.73c-2.25,0-4.45,0-6.51-.2,0-.47-.05-.94-.07-1.42-.26-5-.51-9.75,2.69-14.17,1.28-1.78,3.9-1.87,6.43-2l.73,0a58.39,58.39,0,0,1,6.87.3l2.25.18a1.53,1.53,0,0,0,1.1-.38,1.49,1.49,0,0,0,.51-1C425.39,102.18,425.16,97.07,424.94,92.13Zm-3.44,13.75a57.89,57.89,0,0,0-7.25-.3l-.71,0c-2.71.1-6,.23-8.21,2.54h-8a1,1,0,0,0,0,2h6.53a16.64,16.64,0,0,0-1.29,2.66,33.8,33.8,0,0,1-8.78,1.1h0a1,1,0,0,0,0,2h.76A36.16,36.16,0,0,0,402,115a20.13,20.13,0,0,0-.46,2.85,34.83,34.83,0,0,0-3.69.1c-.93.06-1.9.13-2.81.13a1,1,0,1,0,0,2c1,0,2-.07,2.94-.13a33.93,33.93,0,0,1,3.45-.11c0,1.21,0,2.42.06,3.62-1.07,0-2.13.16-3.16.29a32.56,32.56,0,0,1-3.69.29,1,1,0,1,0,0,2,33.46,33.46,0,0,0,3.93-.3c1-.13,2-.25,3-.28,0,.69.07,1.39.09,2.08A1.5,1.5,0,0,0,403,129a65.57,65.57,0,0,0,8.16.36h1.73c2.41,0,4.76,0,6.89.24l0,.79-1.15-.06c-4.25-.22-7.35-.29-8.54.72a1,1,0,0,0,.67,1.76,1.07,1.07,0,0,0,.63-.22c.74-.58,5.22-.35,7.13-.25l1.31.06c0,.73,0,1.45,0,2.16a18.65,18.65,0,0,0-5.83.16,27.83,27.83,0,0,1-3.08.28,1,1,0,0,0,0,2,26.48,26.48,0,0,0,3.33-.3c2-.25,4.21-.52,5.57-.07,0,1,0,2-.05,2.94-1.44,0-2.86.16-4.25.3a42.77,42.77,0,0,1-4.4.3,1,1,0,1,0,0,2,46.13,46.13,0,0,0,4.61-.31c1.37-.14,2.68-.27,4-.29-.05,1.51-.11,2.91-.17,4.1h-1c-2.37,0-4.8.15-7.15.31-1.35.08-2.7.17-4.05.23a4,4,0,0,0-2.9,1,2.69,2.69,0,0,0-.66,1.7c-1,0-1.95.06-2.87.1s-2,.09-2.76.09a1,1,0,0,0,0,2c.79,0,1.78,0,2.85-.09.91,0,1.89-.08,2.83-.1a7,7,0,0,1-.07,1.09c0,.28-.07.84-.1,1.62-5.07-.15-6.87,0-7.56.77a1.2,1.2,0,0,0-.34,1,1,1,0,0,0,1,.91h.09a1,1,0,0,0,.77-.48,28.3,28.3,0,0,1,6-.16c0,1.28-.06,2.83-.08,4.55-5.4-.2-7.55,0-8.4.68a1,1,0,0,0-.15,1.43,1,1,0,0,0,.78.37,1,1,0,0,0,.62-.22c.55-.32,3-.4,7.13-.24,0,1.47,0,3,0,4.63-1,0-2.07,0-3.1.08-1.41.05-2.87.1-4.31.1a1,1,0,1,0,0,2h.81c1.2,0,2.4-.05,3.57-.09,1,0,2-.06,3-.08,0,1.59,0,3.21,0,4.81a31.55,31.55,0,0,0-4.52.16c-1.06.09-2.06.17-2.94.17a1,1,0,0,0,0,2c1,0,2-.09,3.11-.18a29.5,29.5,0,0,1,4.35-.14v3.9l-3.5.09c-1.52.05-3,.1-4.16.1a1,1,0,0,0,0,2c1.18,0,2.68-.05,4.23-.1l3.43-.09c0,1.19,0,2.33,0,3.37-.82,0-1.65,0-2.47.09-1.12,0-2.27.09-3.41.09a1,1,0,0,0-1,1,1,1,0,0,0,1,1h0c1.17,0,2.35-.06,3.48-.1.8,0,1.6-.07,2.41-.09,0,1.11,0,2.07,0,2.82a42.64,42.64,0,0,1-7,.4h-2.89c-2.11,0-3.77-.15-5.69-.32l-.82-.08c-.1-1.89-.05-6.31.37-14.19.18-3.24.22-5.84.27-8.37,0-2.23.08-4.54.21-7.34.08-1.73,0-4-.11-6.26-.07-1.5-.13-2.93-.13-4,0-3.52-1.26-4.79-4.81-4.84-1.92,0-3.87,0-5.75.13s-4.06.16-5.88.12c-.11-2.61-.18-4.9-.21-7.57,0-.92,0-1.83,0-2.73,0-1.57.05-3.18-.07-4.79,1.27,0,2.52,0,3.74.07s2.18.07,3.27.07a27,27,0,0,0,6.39-.65,1.5,1.5,0,0,0,1.16-1.38,97.36,97.36,0,0,0,0-12.08c-.4-6.21-.11-15.13,7.05-20.85,2-1.58,8-3.76,12.76-4.2,1.35-.12,3.37-.2,5.39-.2a48.24,48.24,0,0,1,11.09,1l0,.47c0,.25,0,.5,0,.75a15.83,15.83,0,0,0-4.46-.1,13.51,13.51,0,0,1-3.95-.08,1,1,0,0,0-1.22.74,1,1,0,0,0,.74,1.21,14.84,14.84,0,0,0,4.57.14,11.31,11.31,0,0,1,4.41.21c0,.81.06,1.63.08,2.45H414.9a1,1,0,0,0,0,2h7.28c0,.85,0,1.7,0,2.55-1.12,0-2.24,0-3.33-.08-1.33,0-2.65-.09-4-.1h0a1,1,0,0,0-1,1,1,1,0,0,0,1,1c1.3,0,2.61.06,3.92.1,1.1,0,2.23.07,3.37.09,0,.59,0,1.17,0,1.77Z"/><text class="cls-1" transform="translate(94.26 51.07)">Inn<tspan class="cls-2" x="45.6" y="0">ov</tspan><tspan x="81.96" y="0">aTE-UN</tspan></text><text class="cls-1" transform="translate(453.34 52.66)">@Inn<tspan class="cls-3" x="71.12" y="0">ov</tspan><tspan x="107.49" y="0">aTE-UN</tspan></text><text class="cls-1" transform="translate(93.54 149.5)">@Inn<tspan class="cls-3" x="71.12" y="0">ov</tspan><tspan x="107.49" y="0">aTE-UN</tspan></text><text class="cls-1" transform="translate(457.88 149.33)">Inn<tspan class="cls-2" x="45.6" y="0">ov</tspan><tspan x="81.96" y="0">aTE-UN</tspan></text></g></g></svg>