<svg xmlns="http://www.w3.org/2000/svg" viewBox="0 0 1421.5 1559.22"><defs><style>.cls-1{fill:#f7941d;}.cls-2{fill:#fff;}</style></defs><title>Imagen 3</title><g id="Capa_2" data-name="Capa 2"><g id="Capa_1-2" data-name="Capa 1"><path class="cls-1" d="M352.62,167.78a16.19,16.19,0,0,1-7.18-2.89,10.61,10.61,0,0,1-2.78-3,5.88,5.88,0,0,1-1-3.22,4.34,4.34,0,0,1,.27-1.38,7.66,7.66,0,0,1,.74-1.27,6.67,6.67,0,0,1,2.3-1.62c1.19-.63,2.41-1.2,3.64-1.73a13.83,13.83,0,0,1,2.68-1.57,21.13,21.13,0,0,1,3.57-1.21,59,59,0,0,1,12.1-2,36.37,36.37,0,0,1,8.2.57,28.32,28.32,0,0,1,8,2.66,16.49,16.49,0,0,1,5.58,4.58,7,7,0,0,1,1.42,3.16,4.75,4.75,0,0,1-.05,1.64,3,3,0,0,1-1.1,1.66,12.61,12.61,0,0,1-3.19,1.28c-1,.29-2,.55-3,.8-1.8.45-3.64.77-5.47,1.11q-5.52,1-11.06,1.91c-2.13.34-4.27.63-6.43.8-.76.07-1.52.1-2.29.1A30.53,30.53,0,0,1,352.62,167.78Zm22.11-11.15c-1.35.27-.67.14,0,0l-.74,0c-.54,0-1.07,0-1.6,0,.11.15.22.31.32.47Z"/><path class="cls-1" d="M440,157.78a26,26,0,0,1-8.53-1.48,10.62,10.62,0,0,1-4.41-3.24,6.69,6.69,0,0,1-1.65-4.24c.12-2.62,2.61-3.63,4.67-4.53,1.29-.57,2.6-1.06,3.93-1.51a43.87,43.87,0,0,1,12.57-2.51,26.87,26.87,0,0,1,10,1.56c.3.11.58.22.86.35l.82.22a31.46,31.46,0,0,1,3.26,1.14,19.27,19.27,0,0,1,5.81,3.39c1.6,1.49,3.46,4.17,1.94,6.32-.76,1.09-2.32,1.29-3.54,1.57a116.6,116.6,0,0,1-12.13,2.26c-2.33.31-4.66.59-7,.69-1.15.06-2.29.09-3.43.09S441.1,157.83,440,157.78Z"/><path class="cls-1" d="M336.58,568.14a5.63,5.63,0,0,1-.62-.37,4.93,4.93,0,0,1-.55,0l-.57,0a7.43,7.43,0,0,1-5.84-5,27.2,27.2,0,0,1-.64-3.21c-.17-1-.33-1.93-.5-2.89-.34-2-.72-3.91-1.07-5.88q-1-5.71-1.91-11.45c-.59-3.7-1.24-7.38-1.84-11.08-.66-4-1.27-8-1.9-12-.65-4.16-1.37-8.29-2.21-12.41-.95-4.39-1.92-8.77-2.62-13.22-.67-4.21-1.29-8.42-2.14-12.6-1.73-7.95-3.52-15.89-5.74-23.72-1.11-3.95-2.21-7.89-3.22-11.86-1-3.77-1.92-7.54-3-11.28-2.11-7.54-4.5-15-6.69-22.5-2.26-7.77-4.3-15.6-6.81-23.3q-3.17-9.69-6.12-19.44c-2-6.71-3.21-13.59-4.58-20.45l-.42-2,0-.11-.12-.57c0,.2.08.38.12.57-.87-3.74-1.87-7.42-3.08-11.07s-2.38-7.06-3.63-10.57c-.7-1.9-1.43-3.8-2.2-5.67s-1.58-3.49-2.44-5.2a80.39,80.39,0,0,1-4.52-9.17c-.65-1.74-1.28-3.78-.14-5.44a3.56,3.56,0,0,1,2.61-1.28c1-.14,2.09-.25,3.12-.47,0-.14.05-.28.06-.41,0,.13,0,.27-.05.41.25-1.79.54-3.56.94-5.33.23-1,.48-2,.76-3a9.06,9.06,0,0,1,.34-1,4.13,4.13,0,0,1,.75-1.53l.11-.11-.17-.27a1.69,1.69,0,0,1,.13-2.24c.7-.58,1.91-.49,2.78-.52s1.72,0,2.58-.06c1.83-.06,3.66-.16,5.49-.22,3.77-.11,7.53-.11,11.29-.18,7.32-.14,14.61-.93,21.94-1,3.43-.05,6.85.16,10.28.28s7.12,0,10.67-.11c6.86-.27,13.7-.76,20.53-1.36,4.15-.49,8.27-1.27,12.43-1.7,2.35-.24,4.69-.45,7-.67s4.81-.58,7.21-.94,4.95-.81,7.44-1.1c1.24-.15,2.49-.26,3.74-.3s2.61,0,3.9.05a61.6,61.6,0,0,0,7.32-.23l1.74-.2a6.75,6.75,0,0,1,6.31,3.48,4.3,4.3,0,0,1,.67,3.15,1.13,1.13,0,0,1-.08.24c.22.87.33,1.77.47,2.64.23,1.33.42,2.68.63,4,.4,2.61.76,5.21,1.06,7.84s.43,5.33.5,8c0,1.36,0,2.72,0,4.07.26.46.51.92.73,1.39a10.5,10.5,0,0,1,.79,5.43,48,48,0,0,1-.89,5.58c-.69,3.46-1.4,6.92-2.25,10.34-.89,3.57-1.84,7.13-2.72,10.71-.84,3.42-1.63,6.86-2.56,10.26-1.91,7-4,13.85-6.2,20.73-1.11,3.48-2.15,7-3.19,10.49s-2.33,7.19-3.7,10.73c-1.89,4.88-3.78,9.76-5.84,14.57s-4.28,9.48-6.17,14.32c-2.33,6.79-3.86,13.81-5.72,20.74-1.91,7.13-4.34,14.1-6.43,21.17-1.1,3.71-2.21,7.41-3.4,11.09S366,481,364.69,484.57c-.26.73-.53,1.44-.78,2.17,0,0,0,0,0-.06-1.23,3.39-2.32,6.83-3.39,10.28s-2.18,6.84-3.25,10.27c-2.19,7-4.23,14.12-6.24,21.19-.9,3.17-1.91,6.31-2.71,9.5s-1.48,6.52-2.23,9.77-1.39,6.43-2.05,9.66-1.24,6.43-1.94,9.62a2.51,2.51,0,0,1-2,1.87,3.74,3.74,0,0,1-.75.07A5.89,5.89,0,0,1,336.58,568.14Z"/><path class="cls-2" d="M729.26,488.37a5.87,5.87,0,0,1-2.46-2.59,61.23,61.23,0,0,1-2.88-6.9,36.38,36.38,0,0,1-1.23-4.22c-.36-1.62-.72-3.23-1-4.87a30.69,30.69,0,0,1-.52-5c0-1.41.32-3,1.7-3.66a1.36,1.36,0,0,1,.86-.16,2.71,2.71,0,0,1,1.92,1.33c.31.52.48,1.32-.09,1.73l-.06,0v.41c0-.09,0-.18,0-.27a28.32,28.32,0,0,0,.56,4.09,67.5,67.5,0,0,0,2,6.79,72.54,72.54,0,0,0,3,6.89c.56,1.05,1.12,2.1,1.69,3.14a3.42,3.42,0,0,1,.5,2.37,1.86,1.86,0,0,1-1.48,1.36,3.29,3.29,0,0,1-.54.05A4.35,4.35,0,0,1,729.26,488.37Z"/><path class="cls-2" d="M1232.7,302.06a3.9,3.9,0,0,1-2.91-3.4c0-1.2,0-2.41,0-3.61,0-.57,0-1.13,0-1.7a2.83,2.83,0,0,1,.38-1.76,1.79,1.79,0,0,1,2-.23,3.72,3.72,0,0,1,2,1.88,1.92,1.92,0,0,1,.11,1.37,2.81,2.81,0,0,1,0,.29v-.12c.16,1.88.49,3.74.64,5.63a1.51,1.51,0,0,1-.55,1.46,1.67,1.67,0,0,1-1,.29A2.92,2.92,0,0,1,1232.7,302.06Z"/><path d="M413.67,151.42a17.32,17.32,0,0,1-4.79-1.7,24.92,24.92,0,0,1-4.27-2.76,4,4,0,0,1-.52-5.61,4.07,4.07,0,0,1,2.75-1.43,4.2,4.2,0,0,1,2.87.91l1.43,1.13c.48.33,1,.64,1.48.94s.88.42,1.33.62.89.31,1.35.44,1.05.21,1.58.29c1,.09,2,.11,2.94.11,1.33,0,2.64-.1,4-.25.47-.08,1-.16,1.41-.28.19-.05.37-.12.55-.18l.24-.13.31-.22.43-.4.34-.38a47.34,47.34,0,0,1-10.12-6.83c-3.42-3.22-6.79-6.65-8.73-11a38.75,38.75,0,0,1-2.18-6.09,24.35,24.35,0,0,1-.63-3.17c-.13-1.14-.18-2.86,1-3.44a1.46,1.46,0,0,1,1.39.07h0a2.55,2.55,0,0,1,.93,1.38c.16.46.31.93.48,1.39.3.85.65,1.68,1,2.51.67,1.48,1.38,2.92,2.17,4.34a34.12,34.12,0,0,0,2.08,3c.87,1,1.78,2,2.73,2.9,1.89,1.75,3.86,3.43,5.9,5,1.33.95,2.72,1.82,4.07,2.74.74.5,1.46,1,2.16,1.58.53.41,1,.84,1.57,1.24.34.22.67.43,1,.68a4.06,4.06,0,0,1,1.34,2.79,7.31,7.31,0,0,1-1.31,5,10.63,10.63,0,0,1-1.08,1.42,9.78,9.78,0,0,1-2.65,2,13.59,13.59,0,0,1-4.2,1.25l.08,0a41.18,41.18,0,0,1-6,.49A23.93,23.93,0,0,1,413.67,151.42Z"/><path d="M399.42,204.72a12.84,12.84,0,0,1-4.6-1.87,9.9,9.9,0,0,1-2.23-2,9.5,9.5,0,0,1-1.27-2.26,16.16,16.16,0,0,1-1.16-4.44,10.91,10.91,0,0,1,0-2.49,2.61,2.61,0,0,1,.79-1.89,1.31,1.31,0,0,1,.47-.24l.06,0h0a1.12,1.12,0,0,1,.32,0c.89,0,1.32.86,1.63,1.57s.48,1.17.73,1.76c.34.75.72,1.47,1.13,2.18s.7,1.1,1.09,1.62c.13.14.25.28.38.41l.4.34c.34.24.69.45,1,.66s.64.32,1,.46.88.29,1.32.41l1,.19c.47,0,.94.07,1.42.09H403c.38,0,.75,0,1.12-.08l.37-.08.29-.1.23-.12.31-.23a6.39,6.39,0,0,0,.54-.5c.32-.35.63-.72.92-1.09s.57-.86.83-1.31.59-1.19.85-1.81c.16-.44.3-.87.42-1.32.06-.28.12-.56.17-.85a5.47,5.47,0,0,1,.19-.8,3.74,3.74,0,0,1,.86-1.38A2.58,2.58,0,0,1,413,189a0,0,0,0,1,0,0,2.66,2.66,0,0,1,1.21,1.16,2.61,2.61,0,0,1,.29,1.32,4.78,4.78,0,0,1-.09.76,17.61,17.61,0,0,1-.21,1.92,14.94,14.94,0,0,1-1,3.13,2.26,2.26,0,0,1-1.08,1.1,19.85,19.85,0,0,1-1.79,2.68,9.7,9.7,0,0,1-4.7,3.43,11.71,11.71,0,0,1-3.39.47A14.32,14.32,0,0,1,399.42,204.72Z"/><path d="M348,167.85a1.18,1.18,0,0,1-.81-1l0-.21a1.17,1.17,0,0,1,.45-1.05c.2-.35.44-.68.66-1,.5-.72,1.07-1.39,1.63-2.05,1-1.2,2-2.37,3.08-3.52s2.16-2.35,3.24-3.53c.53-.56,1-1.13,1.55-1.71s1.12-1.3,1.74-1.9a1.84,1.84,0,0,1,2.42-.07,1.86,1.86,0,0,1,.24,2.6,32.32,32.32,0,0,1-2.75,2.74c-.93.86-1.85,1.75-2.78,2.62-1.79,1.7-3.52,3.43-5.23,5.2l.09-.1c-.45.48-.89,1-1.32,1.48s-.6.79-.93,1.17a1.18,1.18,0,0,1-.9.42A1,1,0,0,1,348,167.85Z"/><path d="M361.6,165.14a.64.64,0,0,1,0-.41h0a4.14,4.14,0,0,1,.56-1.06c.19-.28.38-.55.58-.81.48-.63,1-1.24,1.46-1.84.9-1.1,1.87-2.15,2.83-3.2l2.94-3.18c.94-1,1.83-2.08,2.72-3.14a5.35,5.35,0,0,1,1.15-1.08,1.92,1.92,0,0,1,2.28.1,1.89,1.89,0,0,1,.38,2.45,16.59,16.59,0,0,1-3.09,3.23q-1.65,1.42-3.29,2.86t-3.26,2.86l-1.61,1.44c-.55.5-1.09,1-1.68,1.48a2.39,2.39,0,0,1-1.31.71h0A.63.63,0,0,1,361.6,165.14Z"/><path d="M377.71,162.23a1.14,1.14,0,0,1-.89-.86,1.69,1.69,0,0,1,.08-.89,1.13,1.13,0,0,1,.93-.79c.29-.34.55-.7.81-1.06.4-.57.8-1.13,1.21-1.69l-.1.14c1.3-1.79,2.67-3.53,4-5.31h0a21.54,21.54,0,0,1,2.26-3.12,2.13,2.13,0,1,1,2.88,3.13c-.74.7-1.5,1.38-2.25,2.07s-1.47,1.43-2.19,2.16l.06-.06-.07.07-.08.08.07-.07c-1,1.07-2,2.15-3,3.25-.54.61-1.09,1.21-1.67,1.78a10.13,10.13,0,0,1-.77.7,1.83,1.83,0,0,1-1.08.5A.83.83,0,0,1,377.71,162.23Z"/><path d="M438.48,152.53a4.67,4.67,0,0,1,.86-2.42,25.32,25.32,0,0,1,2.1-2.94c1.5-1.88,3.06-3.73,4.48-5.67.45-.65.83-1.33,1.32-1.94a1.9,1.9,0,0,1,3.19,2,11.31,11.31,0,0,1-1.9,2.5c-.72.79-1.44,1.59-2.15,2.39-1.48,1.67-3,3.34-4.31,5.13-.16.25-.32.5-.47.76a1.51,1.51,0,0,1-.07.63h0a1.59,1.59,0,0,1-1.55,1.08A1.57,1.57,0,0,1,438.48,152.53Z"/><path d="M449.56,152.36a.5.5,0,0,1-.46-.28,1.78,1.78,0,0,1-.08-.45.35.35,0,0,1,.53-.32c.79-1.27,1.67-2.51,2.55-3.72s1.8-2.48,2.71-3.72c.49-.67,1-1.35,1.43-2.05l.69-1a3.37,3.37,0,0,1,1.59-1.37,1.59,1.59,0,0,1,1.71.43,1.61,1.61,0,0,1,.18,1.95,8.79,8.79,0,0,1-1.62,1.83c-.52.49-1.05,1-1.55,1.46-1.1,1.08-2.17,2.18-3.23,3.29-.87.93-1.75,1.86-2.63,2.78-.23.24-.48.47-.73.69a1.86,1.86,0,0,1-1,.53Z"/><path d="M347.14,145.42a17.82,17.82,0,0,1-7.33-4.45,17.6,17.6,0,0,1-2.49-3,15.29,15.29,0,0,1-1.56-3.2,16.89,16.89,0,0,1-.67-3.14,17.08,17.08,0,0,1-.13-3.12,14.08,14.08,0,0,1,1.75-6.91,10.56,10.56,0,0,1,2.36-2.5c-.16-.27-.31-.64-.11-.91a16.91,16.91,0,0,1,2.17-2.46,12.07,12.07,0,0,1,2.37-1.64,19.36,19.36,0,0,1,5.37-1.92,18.14,18.14,0,0,1,5.88.1,26.75,26.75,0,0,1,6.54,1.49,16.88,16.88,0,0,1,5.5,3.49,13.62,13.62,0,0,1,3.27,4.62,22.85,22.85,0,0,1,.89,3.34,15.82,15.82,0,0,1,.31,1.93,9.88,9.88,0,0,1,0,1.72,21.43,21.43,0,0,1-.66,3.73,18.09,18.09,0,0,1-1.48,3.56,1.86,1.86,0,0,0,.1-.2,16.92,16.92,0,0,1-3.58,5.18,21.44,21.44,0,0,1-5.44,3.35,19.3,19.3,0,0,1-6.32,1.69c-.52.05-1,.08-1.54.08A18.29,18.29,0,0,1,347.14,145.42Zm.89-3.7a22.92,22.92,0,0,0,4.12-.55,28.19,28.19,0,0,0,8.53-4.12,10.64,10.64,0,0,0,1.34-1.26,17.15,17.15,0,0,0,1.19-1.61,34.93,34.93,0,0,0,1.93-3.29l0,0a15,15,0,0,0,1-2.68,17.21,17.21,0,0,0,.48-2.75,10.5,10.5,0,0,0-.2-2.17,21.45,21.45,0,0,0-.82-3c-.09-.23-.2-.46-.31-.69l-.28-.45c-.11-.15-.21-.29-.32-.42l-.14-.15-.13-.11-.06,0a2,2,0,0,1-.27-.17l-.14-.08-.53-.27-.08,0c-.3-.12-.6-.23-.91-.33l.07,0c-.71-.2-1.41-.39-2.12-.57l-.8-.15h0a36.85,36.85,0,0,0-5.53-.62,21.43,21.43,0,0,0-4.43.71c-.6.17-1.19.35-1.78.55-.27.13-.54.26-.8.41a28.89,28.89,0,0,0-3.47,2.24,14.93,14.93,0,0,0-3.89,4.19,13.54,13.54,0,0,0-1.1,4.56,24.51,24.51,0,0,0,.21,5,20,20,0,0,0,.71,2.66c.14.33.28.65.43,1s.31.52.47.78.39.53.6.79l.52.59.49.46.2.16.18.14.24.15.61.31q.4.16.81.3c.49.14,1,.26,1.46.36A18.67,18.67,0,0,0,348,141.72Z"/><path d="M443.47,133.1a18,18,0,0,1-8-3.24,17.16,17.16,0,0,1-5.8-7.55,16.24,16.24,0,0,1-1-3.61,14,14,0,0,1,.08-3.66,30.49,30.49,0,0,1,.6-3.28,19.17,19.17,0,0,1,1.15-3.58,12.84,12.84,0,0,1,4.78-5.58,16.67,16.67,0,0,1,3.73-1.8,22.07,22.07,0,0,1,4.08-1c.54-.06,1.08-.13,1.63-.15-.25-.56-.31-1.11.37-1.18a9.44,9.44,0,0,1,3.7.36,12.33,12.33,0,0,1,4.5,2.63,23.79,23.79,0,0,1,3.37,3.58,15.88,15.88,0,0,1,1.9,3.16,16.52,16.52,0,0,1,1,3.37,17.91,17.91,0,0,1,.51,3.7,19.37,19.37,0,0,1-.35,3.32,22.66,22.66,0,0,1-.74,3.16,21.76,21.76,0,0,1-1.41,3.42,12.48,12.48,0,0,1-1.91,2.76,25.47,25.47,0,0,1-2.6,2.38,14,14,0,0,1-2.78,1.84,11.61,11.61,0,0,1-5,1.06A14.52,14.52,0,0,1,443.47,133.1Zm-1.62-4.79a10.23,10.23,0,0,0,6.81-2.61,29,29,0,0,0,2.29-2,9.64,9.64,0,0,0,1.76-2.4,20.47,20.47,0,0,0,1.47-3.86,25,25,0,0,0,.62-3.86c0-.58.06-1.15.05-1.73a12.06,12.06,0,0,0-.27-2,24.86,24.86,0,0,0-.92-3.41c-.12-.27-.25-.53-.38-.79s-.2-.34-.31-.51l-.62-.81c-.18-.2-.35-.41-.54-.61l-.14,0a2.43,2.43,0,0,1-.85-.58l-.76-.17q-.68-.1-1.35-.15a3.33,3.33,0,0,1-1.34-.48,19.67,19.67,0,0,0-2.63.5,21.17,21.17,0,0,0-2.82,1,20.91,20.91,0,0,0-2.74,1.61,16.45,16.45,0,0,0-2.12,2,12.92,12.92,0,0,0-1.53,2.41,18.69,18.69,0,0,0-1.17,3.55,26.8,26.8,0,0,0-.5,3.45v0c0,.07,0,.13,0,.19s0-.09,0-.14a21.93,21.93,0,0,0,.11,4.79c.14.59.3,1.15.48,1.73a21.58,21.58,0,0,0,.94,2c.21.35.42.71.65,1.06l.34.45h0l.1.08.07,0,.49.24.68.25c.56.16,1.12.3,1.69.43A19.44,19.44,0,0,0,441.85,128.31Z"/><path d="M362.59,137.07a6.75,6.75,0,0,1-1.17-.32c-.21.06-.42.1-.64.14a5.57,5.57,0,0,1-2.76-.39,12.26,12.26,0,0,1-3.71-2.4,16.06,16.06,0,0,1-4.41-6.3,8.88,8.88,0,0,1-.37-4.71,9.86,9.86,0,0,1,2.48-4.72,7,7,0,0,1,4.17-2.18c1.92-.25,3.95.84,5.43,2a16.3,16.3,0,0,1,4.82,5.8,18.76,18.76,0,0,1,1.26,3.21,10.65,10.65,0,0,1-.08,6.2,7,7,0,0,1-1.58,2.77,3.54,3.54,0,0,1-2.61,1A4.58,4.58,0,0,1,362.59,137.07Z"/><path d="M446.13,123.86a12.32,12.32,0,0,1-4.72-4.37,8.17,8.17,0,0,1-1.25-3.93,4.44,4.44,0,0,1,.54-2.16,8.27,8.27,0,0,1,.12-2.22,5.94,5.94,0,0,1,.84-1.93,5.9,5.9,0,0,1,3.68-2.73,4.69,4.69,0,0,1,2.26.14,8.58,8.58,0,0,1,3,1.6,11.34,11.34,0,0,1,2.95,3.11,9.52,9.52,0,0,1,1.3,4,10.17,10.17,0,0,1-.5,3.95,7.67,7.67,0,0,1-3.88,4.85,4.27,4.27,0,0,1-1.7.34A6.18,6.18,0,0,1,446.13,123.86Z"/><path d="M337.76,119a15,15,0,0,1-2.61-2c-1-1-2-2-3-3l.24.25-.69-.71.25.26a37.11,37.11,0,0,1-2.86-3,2,2,0,0,1-.49-1c0-.4.3-.54.65-.51a2.84,2.84,0,0,1,1.23.47,5.28,5.28,0,0,1,1.56,1.38c.29.41.61.79.93,1.18-.06-.07-.11-.14-.17-.2l2.57,3.07-.19-.23c.32.39.66.77,1,1.15s.62.62.94.92l.32.26.27.19.13.08a1.8,1.8,0,0,1,.73.28,3.07,3.07,0,0,1,1,.94c.1.16.25.5.1.65a.39.39,0,0,1-.39.19A4.14,4.14,0,0,1,337.76,119Z"/><path d="M345.69,116.58l-.13,0c-.19.1-.62-.21-.75-.28a11.68,11.68,0,0,1-1.35-1c-.85-.66-1.68-1.38-2.49-2.11s-1.55-1.4-2.31-2.11a28.27,28.27,0,0,1-2.76-2.82,2.23,2.23,0,0,1-.55-1.17c0-.45.33-.6.74-.57a3.39,3.39,0,0,1,1.36.53,6.1,6.1,0,0,1,1.72,1.52c.45.59.86,1.21,1.3,1.81s.82,1.08,1.24,1.61c.66.77,1.34,1.53,2,2.28l1.11,1.19c.19.22.43.44.61.69a.76.76,0,0,1,.25.22c.05.07.13.22,0,.22Z"/><path d="M349.81,115a.59.59,0,0,1-.39-.26c-.05-.06-.13-.22,0-.22h0l.1,0h0a.94.94,0,0,0,.15-.06l0,0c-.12-.45-.25-.89-.4-1.32s-.37-.85-.58-1.27c-.74-1.3-1.57-2.52-2.42-3.75a24,24,0,0,1-2.65-4c-.15-.32-.33-.8-.06-1.12s1.1-.18,1.51,0a6.79,6.79,0,0,1,2.23,1.48,4.54,4.54,0,0,1,1.32,1.89c.4,1.29.8,2.56,1.27,3.83.23.63.46,1.25.65,1.89a5.42,5.42,0,0,1,.24,1.43,1.38,1.38,0,0,1-.56,1.35.48.48,0,0,1-.39.19Z"/><path d="M444.28,102.46a3.54,3.54,0,0,1-1-1,3.19,3.19,0,0,1-.37-1.64,11.37,11.37,0,0,1,.35-2.23c.11-.59.24-1.16.37-1.74.23-1.09.46-2.18.64-3.28a26.74,26.74,0,0,1,.66-3.66c.1-.32.42-.38.72-.35a3.75,3.75,0,0,1,1.76.79,6.36,6.36,0,0,1,1.36,1.28c.23.31.72,1,.53,1.4-.63,1.52-1.29,3-1.92,4.56-.3.73-.58,1.47-.85,2.21a17.35,17.35,0,0,0-.89,3.17v.13l0,0c.11.18.32.55.13.76a.45.45,0,0,1-.35.14A2.56,2.56,0,0,1,444.28,102.46Z"/><path d="M451,101.14a3.65,3.65,0,0,1-1.2-1.3c-.17-.39-.12-.79.37-.77.47-1.52,1-3,1.46-4.55.27-.86.53-1.73.77-2.6a9.83,9.83,0,0,1,.86-2.42c.14-.23.58-.15.78-.1a3.48,3.48,0,0,1,1.23.62,5.32,5.32,0,0,1,1.15,1.07c.22.3.56.78.45,1.18a13.53,13.53,0,0,1-.83,2c-.34.73-.69,1.46-1,2.17-.75,1.49-1.55,3-2.32,4.43l0,0-.08.15c.06.18.14.49,0,.51v0a.32.32,0,0,1-.25.13h-.13A2.39,2.39,0,0,1,451,101.14Z"/><path d="M455.13,106.52c-.19-.06-.5-.29-.51-.53,0-.08.05-.09.12-.08a4.37,4.37,0,0,0,.4-.65s0,0,0,0a27.78,27.78,0,0,0,1.74-5.34c.24-.9.47-1.8.69-2.71a9.54,9.54,0,0,1,.89-2.67c.13-.22.54-.15.73-.1a3.75,3.75,0,0,1,1.43.8,4.46,4.46,0,0,1,.93,1c.17.29.36.66.17,1-.55.93-1.23,1.78-1.82,2.69s-1.11,1.86-1.63,2.81a23.36,23.36,0,0,1-1.75,2.69q-.28.36-.6.69c-.16.17-.39.41-.64.41Z"/><path d="M321.16,92.35h0a1.13,1.13,0,0,1-.1-1.16l0,0a7.62,7.62,0,0,1,.59-1.3c.27-.54.58-1,.89-1.56a21.56,21.56,0,0,1,2-2.74,26.93,26.93,0,0,1,5.06-4.41c1.76-1.25,3.59-2.41,5.46-3.5a25.5,25.5,0,0,1,2.9-1.48A19,19,0,0,1,341.29,75a32.24,32.24,0,0,1,6-.63,54,54,0,0,1,6.1.19,16.52,16.52,0,0,1,6,1.69,18.4,18.4,0,0,1,2.63,1.65c.74.56,1.45,1.16,2.18,1.74l.3.24c.85.65,1.83,1.89,1.39,3s-1.86.76-2.62.24-1.71-1.2-2.58-1.77c-.41-.24-.82-.47-1.25-.68s-.73-.29-1.1-.42c-.57-.17-1.14-.3-1.72-.43a35.12,35.12,0,0,0-4.81-.32h-.08a52,52,0,0,0-7.28.43,23.66,23.66,0,0,0-4.21,1.24c-2.08.91-4.11,1.92-6.12,3a63,63,0,0,0-6,3.43,25.8,25.8,0,0,0-4.1,3.71,10.32,10.32,0,0,0-.9,1.19.61.61,0,0,1-.31.62h0l-.13.06-.25,0A1.8,1.8,0,0,1,321.16,92.35Z"/><path d="M421.73,76.24a1,1,0,0,1,.17-1l.05,0a2,2,0,0,1,.25-.41,16.15,16.15,0,0,1,1.23-1.38,27.09,27.09,0,0,1,2.84-2.4,30,30,0,0,1,6.34-3.75,22.64,22.64,0,0,1,3.61-1.06c1.2-.27,2.41-.52,3.62-.76a18.34,18.34,0,0,1,3.62-.34c1.23,0,2.47,0,3.7.08a13.84,13.84,0,0,1,2.78.56c.86.25,1.73.51,2.58.79A27.74,27.74,0,0,1,457.89,69a4.12,4.12,0,0,1,2.18,3.26,1.55,1.55,0,0,1-.74,1.42,2.07,2.07,0,0,1-1.77,0c-1.19-.53-2.38-1.07-3.61-1.51-.73-.22-1.46-.41-2.2-.61s-1.52-.42-2.3-.58a37.93,37.93,0,0,0-4.12-.23,43.15,43.15,0,0,0-7,.72l.33-.06c-1.12.19-2.23.4-3.32.69a31.89,31.89,0,0,0-3,1q-2.44,1-4.78,2.28c-.69.38-1.37.79-2,1.2a14.22,14.22,0,0,1-1.44.88.66.66,0,0,1-.35.22.92.92,0,0,1-.29,0A2.07,2.07,0,0,1,421.73,76.24Z"/><path d="M273.24,284.86a3.3,3.3,0,0,1-2.25-2.53h0a8.69,8.69,0,0,1,.14-3.21l0-.18c0-.54.05-1.08.08-1.63,0-.81,0-1.61.08-2.43l-1.14.51c-3.17,1.36-6.4,2.53-9.68,3.63a89.9,89.9,0,0,1-10.07,2.79,52.75,52.75,0,0,1-10.34,1.08h-.94c-3.1,0-6.18-.17-9.27-.36l-5.34-.37a32.37,32.37,0,0,1-5.36-.78l-.72-.17a41.17,41.17,0,0,1-10.22-4.18q-2.42-1.37-4.76-2.83c-1.58-1-3.08-2.07-4.57-3.18a25.33,25.33,0,0,1-2.4-2.11,33.92,33.92,0,0,1-3.53-4.05,43.47,43.47,0,0,1-3-4.86,20.46,20.46,0,0,1-1.12-2.42c-.3-.78-.63-1.54-.88-2.33a40.17,40.17,0,0,1-1.33-5.32,45.69,45.69,0,0,1-.6-5.59c-.08-1.81,0-3.61.06-5.41,0-.75.16-1.5.25-2.24a21.17,21.17,0,0,1,.59-3.14,38.76,38.76,0,0,1,1.66-5.16,34.51,34.51,0,0,1,2.26-4.71c.93-1.54,1.91-3,2.94-4.5a78.78,78.78,0,0,1,6.6-7.87c1.28-1.37,2.61-2.68,3.91-4a51.65,51.65,0,0,0,3.91-4.6c.39-.58.77-1.16,1.12-1.77l.45-.9c.21-.57.4-1.14.57-1.72s.2-1.19.29-1.79c.06-.79.11-1.59.13-2.38s-.1-1.64-.19-2.46a52.79,52.79,0,0,0-1.21-5.52c-.94-3.29-1.95-6.57-2.77-9.9a98.13,98.13,0,0,1-2.06-10.46,67.08,67.08,0,0,1-.43-10.7,59.45,59.45,0,0,1,1.11-10.48c1.37-6.94,3.49-14,7.34-20a66.31,66.31,0,0,1,6.39-8.27,45.94,45.94,0,0,1,8-7c2.86-2,5.82-3.79,8.57-5.93,1.31-1.09,2.57-2.21,3.76-3.41.25-.27.49-.56.71-.84l.14-.22c.15-.29.29-.58.42-.88s.23-.71.33-1.07a45.39,45.39,0,0,0,.64-4.64c.18-1.58.38-3.15.61-4.72a51.16,51.16,0,0,1,2.52-9.88c1.12-3.11,2.33-6.18,3.38-9.32.58-1.71,1.21-3.4,1.92-5.07s1.45-3,2.26-4.53,1.74-3,2.65-4.49,1.71-2.83,2.61-4.21a86.29,86.29,0,0,1,6.38-8.61c1-1.21,2.11-2.37,3.17-3.55s2.24-2.52,3.38-3.75a45.86,45.86,0,0,1,3.56-3.55,45.05,45.05,0,0,1,4.11-3.18c2.69-1.9,5.43-3.74,8.24-5.47a102.44,102.44,0,0,1,9.18-4.93c3-1.49,6.06-3,9.12-4.4a82.06,82.06,0,0,1,9.87-3.62c3.22-1,6.46-2,9.71-2.91,3.42-1,6.88-1.69,10.37-2.33a190.74,190.74,0,0,1,20.19-2.83C358.32.8,361.92.65,365.52.5,368.9.37,372.28.08,375.67,0s7.06.16,10.58.25,6.76.07,10.14.23c1.43.07,2.85.15,4.27.28s3,.39,4.45.64c2.54.44,5.07.87,7.62,1.18a46.7,46.7,0,0,1,5,.67,29.05,29.05,0,0,1,5.13,1.53c1.44.59,2.85,1.26,4.28,1.87,1.63.69,3.29,1.32,4.92,2,3.14,1.33,6.11,3,9.12,4.54s6,3.11,8.86,5a101.65,101.65,0,0,1,8.41,6.34,100.43,100.43,0,0,1,8.08,7.07A98.44,98.44,0,0,1,473,39.33c2,2.58,4.19,5.12,6,7.88a105.27,105.27,0,0,1,5.47,9.5c1.67,3.22,3.27,6.47,4.68,9.81,1.32,3.16,2.42,6.38,3.42,9.65a87.53,87.53,0,0,1,2.41,10c.61,3.49,1.16,7,1.73,10.48a74.62,74.62,0,0,1,1.09,10.33c.17,7-.36,14-.81,20.94l-.51,8.34c-.16,2.52-.33,5-.39,7.55,0,1.47.12,2.92.29,4.39s.57,2.93.94,4.4c.54,1.85,1.16,3.66,1.87,5.45.94,2,2,4,3.12,5.94,1.76,2.78,3.62,5.51,5.45,8.25a95,95,0,0,1,5.24,8.72,76.26,76.26,0,0,1,4.27,9.65,37.41,37.41,0,0,1,1.35,5.09,43.74,43.74,0,0,1,.71,5.1c.13,1.54.2,3.08.22,4.62,0,.76,0,1.51,0,2.26a20.82,20.82,0,0,1-.6,4.3,23.49,23.49,0,0,1-1.51,3.8,19,19,0,0,1-1.06,2c-.91,1.43-1.9,2.79-2.94,4.14a70.76,70.76,0,0,1-6,6.52c-2.06,2.05-4.16,4.07-6.2,6.17a40.83,40.83,0,0,0-2.71,3.17c-.62.93-1.19,1.87-1.74,2.84a73.35,73.35,0,0,0-3.1,7l-.09.26.06-.18-.07.18-.21.57a.88.88,0,0,1,.05-.15l-.16.42a0,0,0,0,0,0,0c-1.16,3-2.34,6-3.73,9a43.65,43.65,0,0,1-2.41,4.4,23.59,23.59,0,0,1-3.45,4.21,19.85,19.85,0,0,1-4.53,3.28,23.09,23.09,0,0,1-4.92,2,54.49,54.49,0,0,1-10.21,1.81,130.7,130.7,0,0,1-20.37-.28c-1.66-.12-3.31-.27-5-.49a31.27,31.27,0,0,1-5.14-1.23,30.23,30.23,0,0,1-8.9-4.23,27.43,27.43,0,0,1-3.93-3.37,15.52,15.52,0,0,1-2.23-3c-.06.33-.11.65-.17,1-.44,2.38-1,4.73-1.43,7.1-.15.76-.27,1.53-.39,2.3a12.28,12.28,0,0,1-.48,2.57,4.3,4.3,0,0,1-4,3h-.22a4.25,4.25,0,0,1-4-3.89,22.19,22.19,0,0,1,.49-4.21c.2-1.22.43-2.42.66-3.63.45-2.41.86-4.83,1.29-7.25.88-5,1.7-10,2.39-15.07.19-1.42.41-2.85.7-4.26a6.54,6.54,0,0,1,1.21-2.87A5.79,5.79,0,0,1,416.5,234a18.25,18.25,0,0,1,2.79-1c1.18-.36,2.33-.75,3.47-1.22,3.29-1.46,6.61-2.91,9.81-4.57s6.34-3.52,9.46-5.38A81.6,81.6,0,0,0,449.3,217a51.29,51.29,0,0,0,3.91-3.6,121.39,121.39,0,0,0,8.41-10c.84-1.2,1.63-2.42,2.35-3.7s1.22-2.53,1.75-3.84a78.22,78.22,0,0,0,2.49-7.44,68.79,68.79,0,0,0,1.23-7.12c.28-2.58.42-5.17.57-7.76s.22-5.24.2-7.87c0-1.45-.07-2.91-.08-4.36v.59q0-3-.07-6c-.08-3.55-.31-7.09-.54-10.63-.47.49-1,1-1.46,1.44l.08-.09-.12.12v0h0c-1,1.05-1.92,2.12-2.86,3.19-.52.58-1,1.17-1.55,1.74a21.18,21.18,0,0,1-1.9,1.89l-.06.07h0a1.75,1.75,0,0,1-1.31.6,1.53,1.53,0,0,1-1.3-.69h0a1.67,1.67,0,0,1,1-2.55,52.46,52.46,0,0,0,3.62-4.48h0a33.18,33.18,0,0,0,1.9-2.92,7.09,7.09,0,0,1,1.53-2.46,2.38,2.38,0,0,1,2.14-.52s0-.06,0-.08c-.31-5.08-.81-10.14-1.28-15.21-.32-3.52-.48-7.06-.92-10.57s-1.4-6.85-2-10.29c-.64-3.68-1.3-7.36-1.84-11h0v0c0-.15,0-.3-.07-.45a.43.43,0,0,1,0,.11c-.37-2.64-.72-5.27-1.09-7.89-.48-3.28-1.08-6.54-1.4-9.84-.16-1.58-.24-3.17-.4-4.75a13.9,13.9,0,0,1-.18-2.41c-.23-.68-.47-1.37-.69-2.06s-.42-1.36-.64-2-.43-1.24-.68-1.86c-.38-.84-.8-1.65-1.21-2.48s-.86-1.89-1.29-2.83a52.83,52.83,0,0,0-2.76-5.34h0a1.25,1.25,0,0,0-.09-.12l-.89-1c-.8-.71-1.64-1.36-2.51-2l-3.11-2.33a58.76,58.76,0,0,0-5.42-3.42,45.32,45.32,0,0,0-4.45-2.12c-1-.35-2-.66-3-.92l-.4-.1.26.07-.21,0-.52-.13-.16,0-1-.25.22.06c-2.65-.66-5.26-1.48-7.91-2.16A113.57,113.57,0,0,0,411,34.84c-4-.4-8-.48-12-.58-2,0-4,0-6,0s-3.91-.06-5.86-.05c-1.06,0-2.11.07-3.16.12a.13.13,0,0,0,0,.06c.34,1.26.79,2.47,1.2,3.7a28.64,28.64,0,0,1,1.23,5,1.55,1.55,0,0,1-.38,1.4,1.32,1.32,0,0,1-.91.32,2.16,2.16,0,0,1-.51-.06A3.53,3.53,0,0,1,382,41.6c0-1.2-.08-2.41-.17-3.6-.11-.82-.22-1.62-.38-2.42-.08-.39-.15-.77-.22-1.15l-1.43.08c-2.61.16-5.23.2-7.85.23h.49c-1.5,0-3,.11-4.49.25l-2.16.23s0,0,0,.07c.14.59.27,1.18.41,1.78l0-.2,1,4.08c.33,1.39.6,2.79.9,4.19,0,.07,0,.13.05.19a1.59,1.59,0,0,1-.1,1.3,1.09,1.09,0,0,1-.95.45h-.14A3,3,0,0,1,364.56,45a13.15,13.15,0,0,1-.45-1.93c-.07-.52-.12-1-.17-1.56-.09-1-.13-2-.16-3s0-1.77,0-2.67c0-.13,0-.26,0-.4l-.36,0c-2.82.33-5.66.44-8.48.8-1.25.22-2.49.49-3.72.77,0,.25.05.49.08.74.06.52.11,1.05.16,1.58.1,1,.2,2.11.32,3.17.26,2.37.61,4.72,1,7.08a1.25,1.25,0,0,1-.3,1.11,1.08,1.08,0,0,1-.73.25,1.9,1.9,0,0,1-.41,0,2.89,2.89,0,0,1-2-2.19c-.19-1.28-.34-2.55-.44-3.83-.09-1.06-.08-2.12-.09-3.17s0-2,0-3c0-.39,0-.77,0-1.15h0c-1.91.43-3.84.73-5.74,1.19a14.2,14.2,0,0,0-1.74.58l-2.07.89c-1.65.73-3.29,1.47-4.95,2.17-.73.31-1.46.63-2.2.92s-1.51.53-2.25.82a44,44,0,0,0-4.38,2.36l-.17.11a2.84,2.84,0,0,1-1.59,1c-1.85,1.15-3.69,2.32-5.42,3.63a27.55,27.55,0,0,0-2.45,2.26,2.61,2.61,0,0,1-1.92.75l0,0c-.46.53-.9,1.07-1.33,1.62-.61.91-1.17,1.83-1.71,2.79-1,2-1.9,4-2.72,6.14a98.46,98.46,0,0,0-3.16,10c-.74,3.45-1.21,6.93-1.63,10.43l.06-.53c-.5,4.82-.95,9.68-1,14.54.12,3.18.4,6.34.8,9.51a74.72,74.72,0,0,0,1.66,8.11c1,3.15,2.09,6.21,3.29,9.28s2.4,6.24,3.32,9.46a51.48,51.48,0,0,1,1.82,10.3,72.16,72.16,0,0,1-.09,10.08,23.77,23.77,0,0,1-1.81,8.07,50.56,50.56,0,0,1-3.62,7.39c-1.21,2-2.56,4-3.83,6s-2.7,4.22-3.93,6.41c-.7,1.32-1.35,2.65-1.93,4-.17.49-.33,1-.47,1.5a38.81,38.81,0,0,0-.73,4.4c-.12,1.1-.2,2.2-.21,3.3,0,.65.07,1.3.13,1.94a31.46,31.46,0,0,0,.78,3.43c.4,1.37.8,2.73,1.25,4.07.52,1.51,1.14,3,1.73,4.47a57.2,57.2,0,0,1,2.7,9.09,91.31,91.31,0,0,1,1.48,10,41.78,41.78,0,0,1-.11,10.12,28.63,28.63,0,0,1-1.17,4.94,31.55,31.55,0,0,1-2.27,4.9,58.37,58.37,0,0,1-5.46,8.34,45.06,45.06,0,0,1-7.72,7.14,56.73,56.73,0,0,1-8.8,5.43l-.42.22a21.57,21.57,0,0,1-.21,3.11c-.1.88-.2,1.76-.29,2.64s-.18,1.87-.28,2.8a9.89,9.89,0,0,1-.63,3.33,3.48,3.48,0,0,1-3.07,1.95A3.21,3.21,0,0,1,273.24,284.86ZM490.65,114c.06-1.84.11-3.68.11-5.52v-.28C490.75,110.08,490.71,112,490.65,114Z"/><path d="M191.44,1559.18c-2.95-.12-5.88-.36-8.83-.44-.77,0-1.53,0-2.3,0-1.52,0-3,0-4.54,0a62.37,62.37,0,0,1-7.06-.85l-.72-.13.1,0-.3,0-.12,0h-.09c-2.31-.39-4.61-.73-6.91-1.21a64,64,0,0,1-6.77-1.86,43.88,43.88,0,0,1-4.92-1.91,58.24,58.24,0,0,1-5.24-2.77,111.9,111.9,0,0,1-9.59-6.41,92.77,92.77,0,0,1-8.88-7.44c-2.72-2.62-5.27-5.43-7.76-8.27-2.22-2.53-4.26-5.2-6.33-7.85-1.9,3.86-3.65,7.79-5.6,11.63l.2-.37c-1.23,2.41-2.47,4.82-3.7,7.24-.61,1.19-1.2,2.38-1.81,3.57a.75.75,0,0,1,.07-.12c0,.08-.08.16-.13.24l0,0h0v0l0,0h0l-.37.74c-.86,1.71-1.74,3.4-2.6,5.11l.15-.3L96,1550.51a14.17,14.17,0,0,1-2.6,4.19c-1.54,1.55-3.92-.15-4.77-1.6A5.54,5.54,0,0,1,88,1550c.12-2.23.43-4.44.71-6.66.31-2.46.59-4.92.77-7.39,0,.11,0,.23,0,.35.25-3.71.42-7.42.63-11.14.2-3.5.34-7,.57-10.5.49-7.61,1.35-15.17,2.32-22.74s1.49-15.3,2.65-22.91c.56-3.64,1.22-7.27,1.82-10.9s1.18-7.41,1.67-11.13.88-7.26,1.33-10.89c.48-3.79,1.06-7.58,1.68-11.35s1.32-7.43,2-11.13,1.35-7.36,2.11-11c1.54-7.42,3.3-14.79,4.56-22.27.62-3.72,1.12-7.46,1.7-11.19s1.23-7.53,1.93-11.28c1.34-7.26,2.89-14.49,4.08-21.79.56-3.47.93-7,1.25-10.48s.77-7.11,1.24-10.66c1-7.17,2.13-14.29,3.1-21.45.48-3.53.9-7.07,1.42-10.58.56-3.68,1.21-7.33,1.81-11,.56-3.39,1.14-6.79,1.67-10.18.55-3.59,1-7.19,1.44-10.8.46-3.77,1-7.53,1.58-11.29s1-7.43,1.39-11.15c.35-3,.87-6,1.35-9,.26-1.59.48-3.18.66-4.79s.32-3.25.55-4.88c.45-3.14,1.18-6.21,1.85-9.31.28-1.27.49-2.55.71-3.83l-2.92-.28c-4-.39-8-.92-12.06-1.46-1.93-.27-3.86-.6-5.78-.93-.89-.16-1.79-.29-2.68-.43a2.32,2.32,0,0,1-.44.31,2.73,2.73,0,0,1-1.34.32,4.54,4.54,0,0,1-1.67-.35c-2.24-.89-4.36-3.34-4.36-5.84,0-1.71.24-3.45.38-5.15s.26-3.32.38-5c.45-6.59.73-13.18,1-19.77s1.13-13.32,1.65-20a1.55,1.55,0,0,0,0-.22l-5.43,4c-2.49,1.82-5,3.67-7.38,5.58s-5.07,4.14-7.57,6.24c-4,3.33-8,6.58-12,9.88-1.84,1.51-3.67,3-5.43,4.64-1,.88-1.93,1.77-2.88,2.65a2.24,2.24,0,0,1-1.15,2.17,2.49,2.49,0,0,1-1.22.29l-.44,0-.26.08h0a1.86,1.86,0,0,1-.48.06h-.18a3.29,3.29,0,0,1-1.81-.86,4,4,0,0,1-1.24-1.84,11,11,0,0,1-1-1.72c-.19-.33-.4-.66-.61-1-1.19-1.73-2.46-3.39-3.79-5-2.63-3.13-5.27-6.25-7.82-9.45-2.32-2.93-4.48-6-6.55-9.07v0h0l-.31-.47-.09-.14c-1.79-2.71-3.59-5.41-5.48-8.06s-3.89-5.36-5.8-8.07-3.68-5.33-5.56-8-3.9-5.27-5.86-7.9c-1.74-2.34-3.43-4.74-5.07-7.16s-3.18-4.8-4.87-7.15-3.42-4.51-5-6.87l-2.23-3.3c-.47-.68-1-1.35-1.39-2a20.33,20.33,0,0,1-1.36-2.57c-.75-1.63-.75-4.12,1.32-4.72a3.24,3.24,0,0,1,.87-.11l.14-.09c.92-.5,2.08.09,2.77.7l.11.09,1.74-1.2-.06,0c2.29-1.65,4.48-3.39,6.64-5.19s4.34-3.65,6.54-5.44,4.53-3.65,6.86-5.39c2.5-1.86,5-3.7,7.5-5.57,4.59-3.45,9.08-7,13.74-10.37,5-3.64,10.13-7.21,15.2-10.81l-.06,0c4.64-3.36,9.19-6.84,13.8-10.23q7.16-5.28,14.15-10.75c2.21-1.72,4.4-3.45,6.62-5.17s4.77-3.61,7.2-5.38c1.59-1.15,3.16-2.3,4.72-3.48,0-1,0-1.9,0-2.86,0-3,.2-6,.25-9,.11-6.13,0-12.27.11-18.4s.45-12.41.68-18.62.7-12.29,1.21-18.43,1-12.11,1.51-18.16c.19-2.18.41-4.35.66-6.53-.09-2.24-.2-4.46-.32-6.7a2.19,2.19,0,0,1,.65-1.71,2,2,0,0,1,.83-.44c0-.18.06-.36.09-.55a10.12,10.12,0,0,1,.33-1.62q-2.88-2.5-5.85-4.93c-2.7-2.21-5.4-4.43-8.06-6.7s-5-4.52-7.52-6.84-5.22-4.81-7.92-7.11-5.62-4.57-8.36-6.95c-5.39-4.69-10.13-10.06-15-15.25-2.46-2.6-5-5.16-7.41-7.76s-4.77-5.36-7-8.16-4.1-5.45-6-8.27c-2.12-3.13-4.21-6.27-6.24-9.46A150.16,150.16,0,0,1,27,796.83a152.91,152.91,0,0,1-7.34-19.52c-2-6.86-3.83-13.78-5.52-20.73Q13,751.83,12.25,747c-.53-3.25-.75-6.55-1-9.82-.52-6.82-.9-13.66-1-20.49s.19-13.45.69-20.15c1-13.91,2.84-27.73,4.35-41.59C16,648.12,17,641.34,18,634.55c1-7.14,2-14.28,2.81-21.44.78-6.64,1.45-13.28,2.54-19.87,1.16-7,2.48-13.88,3.76-20.82,1.25-6.79,2.49-13.6,3.84-20.37s2.64-13.63,4-20.42S37.9,518,39.38,511.2s2.77-13.79,4.08-20.7c1.17-6.18,2.43-12.33,3.92-18.44s3.29-12.2,4.9-18.3c1.7-6.7,3.27-13.4,5.14-20.05.95-3.36,1.92-6.71,3-10s2.32-6.73,3.58-10.06c1.19-3.13,2.44-6.23,3.78-9.3s2.75-6.09,4.13-9.12c2.7-5.91,5.41-11.81,8.49-17.52a100.15,100.15,0,0,1,9.35-15c2-2.56,4.19-5.05,6.39-7.46s4.44-4.67,6.62-7,4.39-4.75,6.72-7a47,47,0,0,1,7.83-6.15c2.43-1.51,5-2.87,7.4-4.34,2.7-1.62,5.33-3.35,8-5A55,55,0,0,1,143,320.28c3.93-1.46,8-2.33,12-3.67,3.49-1.19,6.88-2.62,10.47-3.49,4.28-1,8.63-1.61,13-2.34l-.53.08c6.37-1.17,12.52-3.19,18.73-5,3.15-.92,6.31-1.81,9.49-2.58s6.38-1.35,9.61-1.82c3-.43,6-.69,9-1,3.22-.32,6.43-.63,9.66-.86s6.61-.5,9.92-.8,6.45-.58,9.68-.71c2.47-.1,5-.17,7.43-.05a12.44,12.44,0,0,1,1.84.2,3.21,3.21,0,0,1-.25-1,1.1,1.1,0,0,1,.53-1,1.7,1.7,0,0,1,1.55.14,6.17,6.17,0,0,1,2.49,3c.34.73.65,1.46,1,2.2.57,1.39,1.06,2.82,1.54,4.24,1,2.84,1.88,5.69,2.71,8.57s1.59,5.64,2.31,8.48c.76,3,1.46,6.06,2.31,9.05s1.63,5.75,2.59,8.57,2,5.9,3,8.85a167,167,0,0,1,4.67,18q.79,3.72,1.64,7.44c0-.2-.09-.39-.13-.58.74,3,1.55,6,2.46,9,.83,2.72,1.78,5.4,2.69,8.08s1.86,5.44,2.69,8.19c.91,3,1.75,6,2.58,9q2.28,8.38,4.5,16.79c1.57,5.93,3.22,11.85,4.88,17.75,1.44,5.11,2.88,10.22,4.17,15.37,1.38,5.54,2.62,11.11,3.92,16.67-.05-.17-.09-.35-.13-.53,1.4,6,2.81,11.9,4,17.9,1.17,5.77,2.1,11.58,3.17,17.37,2.15,11.77,4.48,23.52,7.13,35.19l.45,2c0-.19-.08-.37-.13-.56,1.1,4.49,2.27,9,3.36,13.46.54,2.24,1.06,4.48,1.65,6.71.91-2.26,1.85-4.52,2.72-6.8,1-2.65,1.83-5.34,2.68-8s1.71-5.27,2.61-7.89c1.87-5.46,3.77-10.9,5.56-16.38s3.67-11,5.38-16.57,3.21-11.16,4.74-16.76,3.16-11.45,4.86-17.13,3.45-11.26,5.17-16.89,3.44-11,5.14-16.51c1.78-5.75,3.55-11.49,5.39-17.22,1.78-5.57,3.48-11.16,5.16-16.76,2.21-7.39,4.49-14.76,6.48-22.21,1.09-4.3,2.13-8.6,3.24-12.88s2.38-8.66,3.54-13q1-3.84,2-7.68c0,.16-.08.33-.13.49,1.46-5.61,3.22-11.13,5-16.65s3.56-11.13,5.22-16.73c.43-1.45.81-2.92,1.2-4.38,0,.13-.07.26-.1.38.58-2.23,1.13-4.48,1.81-6.68.36-1.15.76-2.27,1.18-3.39.2-.53.44-1.05.68-1.57.12-.26.25-.5.38-.75a2.69,2.69,0,0,1,1-1.11c.65-.39,1.46.09,2,.49a2.63,2.63,0,0,1,.6.73,2.41,2.41,0,0,1,.33,1.14c3.17.33,6.39.27,9.57.39,3.82.13,7.64.34,11.46.48s7.79-.06,11.58.76A94.08,94.08,0,0,1,464,311c1.82.64,3.65,1.26,5.48,1.88a46.82,46.82,0,0,1,4.91,1.87,55.55,55.55,0,0,1,5.4,2.84c1.68,1,3.34,2.09,5,3.14s3.22,2,4.77,3.06c1.84,1.26,3.6,2.57,5.33,4a48.84,48.84,0,0,1,4.3,4c1.36,1.39,2.69,2.79,4,4.23,2.54,2.83,5,5.72,7.42,8.65a69.28,69.28,0,0,1,7,10.08,101.37,101.37,0,0,1,12.29,33.76c.75,3.93,1.47,7.87,2.2,11.8s1.38,7.62,2,11.44,1,7.39,1.53,11.08c1,7.89,2.05,15.8,2.33,23.75.28,7.74.4,15.51,1,23.23.28,3.79.6,7.58.81,11.36.23,3.94.38,7.89.51,11.83q.39,11.58,1.21,23.12c.28,4,.55,8,.75,12.06.19,3.69.3,7.37.46,11.06.33,7.45.76,14.9,1.42,22.33.06.7.13,1.39.18,2.09h0a.31.31,0,0,1,0,.09v0a.49.49,0,0,1,0,.12.76.76,0,0,1,0,.15v0a0,0,0,0,0,0,0V564a.77.77,0,0,0,0,.15s0,0,0-.09c0,.19,0,.37,0,.54a.25.25,0,0,1,0-.08c.68,7.68,1.07,15.38,1.46,23.08s.65,15.53,1.19,23.28q.39,5.91.88,11.83c.34,3.71.7,7.41.88,11.12s.34,7.55.55,11.32c.19,3.58.4,7.16.69,10.73,0,.54.09,1.09.13,1.62.55-.38,1.09-.77,1.65-1.15,2.65-1.82,5.33-3.59,8-5.45,1.68-1.21,3.34-2.43,4.91-3.78a22.48,22.48,0,0,0,2-2.11l1.67-1.89c.75-.88,1.45-1.84,2.76-1.84a6.47,6.47,0,0,1,4.71,2.27,14.47,14.47,0,0,1,1.3,1.73c1.6,2.39,3,4.89,4.58,7.33.88,1.29,1.79,2.54,2.71,3.8l.49-.36c2.75-2,5.39-4.15,8.05-6.25q3.56-2.79,7-5.66c4.79-4,9.39-8.21,14.3-12,4.36-3.39,8.78-6.68,13.2-10s8.87-6.59,13.39-9.79l.33-.24.66-.47-.21.14.79-.55-.23.15c3-2.18,6.06-4.44,9.09-6.65s6.09-4.33,9.15-6.46a51.38,51.38,0,0,0,4.66-3.79c.7-.64,1.38-1.3,2.07-1.94a24.88,24.88,0,0,1,2.68-2.14c.29-.21.58-.4.87-.6a3.13,3.13,0,0,1,2.4-.19,5.89,5.89,0,0,1,.92.32,4,4,0,0,1,0-1.33c-.28-.38-.55-.77-.81-1.15l-1.34-2q-.27-.39-.51-.78c-.1-.15-.21-.3-.31-.46-1.72-2.62-3.41-5.26-5-7.94q-2.59-4.29-5-8.66c-1.62-2.92-3-5.95-4.41-9s-2.47-5.93-3.66-8.91c-1.3-3.26-2.63-6.51-3.94-9.77-2.52-6.26-4.83-12.62-6.83-19.07-2.06-6.61-3.93-13.29-5.8-20-1.82-6.5-3.44-13.06-5-19.63q-2.28-9.57-3.91-19.29c-1.15-6.85-2.3-13.71-3.19-20.6-.86-6.63-1.44-13.32-1.73-20-.15-3.6-.26-7.2-.27-10.8s.07-6.93.19-10.4c.24-6.95.69-13.9,1.17-20.84.46-6.61.91-13.21,1.67-19.79s1.81-13.34,3-20,2.43-13.55,4-20.25,3.45-13.27,5.57-19.78c2.23-6.87,4.55-13.69,6.9-20.51,2.21-6.43,4.43-12.85,6.81-19.21s5.22-12.72,8.13-18.95c1.53-3.26,3.26-6.44,4.95-9.63,1.55-2.91,3.17-5.78,4.79-8.65q5-8.92,10.18-17.74c3.48-5.94,7.09-11.81,10.95-17.5,1.85-2.72,3.73-5.42,5.73-8,2.28-3,4.6-5.93,7-8.86,4.21-5.28,8.54-10.47,12.84-15.67a197.27,197.27,0,0,1,13.76-15.41c5.07-4.94,10.42-9.54,15.78-14.15q3.92-3.34,7.89-6.62c2.65-2.16,5.38-4.21,8.12-6.26,5.25-3.91,10.68-7.64,16.23-11.11,11.71-7.31,24.29-13.1,36.82-18.83,6.13-2.8,12.32-5.5,18.58-8a199.17,199.17,0,0,1,19.42-6.77C866,63.88,879.57,60.81,893.15,58c6.86-1.43,13.76-2.68,20.69-3.67,6.66-.94,13.38-1.7,20.1-2,3.51-.16,7-.32,10.54-.3s7.29.08,10.94.16q10.11.23,20.22.88,5.13.33,10.24.69c3.31.23,6.63.42,9.93.73s6.58.57,9.85,1.1c3.47.57,6.93,1.16,10.38,1.9,6.72,1.44,13.39,3.12,20.08,4.76,6.42,1.57,12.87,3.09,19.28,4.76,3.15.82,6.25,1.79,9.36,2.76,3.27,1,6.46,2.27,9.65,3.52,3,1.17,5.9,2.59,8.8,4,3.13,1.47,6.22,3,9.33,4.51,2.89,1.35,5.78,2.72,8.69,4,3.14,1.4,6.3,2.76,9.4,4.22,3.37,1.58,6.72,3.18,10,4.94s6.51,3.76,9.66,5.83a134,134,0,0,1,15.8,12.52c5.27,4.78,10.55,9.55,15.72,14.44,4.85,4.6,9.42,9.5,13.84,14.51,4.74,5.37,9.49,10.72,14.14,16.16a163.09,163.09,0,0,1,12.46,16.25q5.51,8.35,10.53,17l8.16,14.08a179.22,179.22,0,0,1,8.72,16.21c1.39,3.1,2.47,6.37,3.63,9.56.39,1.11.77,2.23,1.15,3.34.9,2.59,1.8,5.17,2.67,7.76,1.73,5.08,3.47,10.14,5.32,15.17,1.15,3,2.32,5.93,3.45,8.9,1.23,3.23,2.52,6.45,3.63,9.72s2.18,6.33,3,9.55c.9,3.39,1.81,6.79,2.51,10.23,1.33,6.61,2.42,13.27,3.62,19.91,1.26,7,2.61,14,3.78,21a175.79,175.79,0,0,1,2.34,20c.17,3.37.33,6.73.27,10.11s-.11,6.92-.32,10.38c-.12,1.86-.18,3.72-.36,5.57l-.51,5.3c-.17,1.73-.44,3.45-.66,5.16s-.5,3.45-.75,5.17c-1,6.69-2.18,13.36-3.46,20-1.11,5.74-2.49,11.43-4,17.09a2.37,2.37,0,0,1-.14.57c-.73,2.83-1.48,5.65-2.23,8.47l.15-.55c-1.71,6.6-3.46,13.18-5.08,19.8-.82,3.37-1.64,6.74-2.49,10.11s-1.78,6.48-2.74,9.69c-.92,3.06-2,6.1-3.15,9.09q-1.87,5-3.8,10c-2.52,6.5-5,13-7.68,19.46a170.66,170.66,0,0,1-9.16,18.42c-3.47,6.11-7.31,12-11,18-3.5,5.58-7.21,11-11.21,16.28-4.2,5.51-8.59,10.87-13.07,16.16s-8.89,10.39-13.53,15.41c-2.17,2.35-4.47,4.65-6.81,6.84s-4.92,4.56-7.47,6.75c-5.2,4.44-10.43,8.85-15.84,13s-10.83,8.06-16.54,11.68c-4,2.54-8,5.1-12.11,7.49-4.4,2.56-8.82,5-13.32,7.42-4,2.14-8.17,4.14-12.29,6.12-4.34,2.11-8.74,4.12-13.21,5.93h0l-2.85,1.15.1,0-.47.18,0,0h0c-6.14,2.45-12.43,4.54-18.67,6.71s-12.44,4.18-18.77,5.87q-10.06,2.67-20.24,4.79c-6.5,1.35-13.06,2.51-19.62,3.59-3.33.55-6.66,1.1-10,1.53s-7,.77-10.46,1.09c-6.83.64-13.68,1.08-20.52,1.59-12.35.93-24.75,1.62-37.14,1.62h-3q-10-.11-19.93-.78c-6.85-.46-13.7-.87-20.52-1.62s-13.53-1.74-20.24-2.94c-3.13-.56-6.26-1.16-9.34-1.9-3.29-.78-6.53-1.69-9.77-2.65s-6.39-2.1-9.54-3.25-6.08-2.23-9.11-3.39-6.18-2.35-9.3-3.45-6.53-2.19-9.79-3.3a199.74,199.74,0,0,1-18.62-7.69c-6.05-2.77-12.14-5.5-18.17-8.34-3.31-1.56-6.61-3.13-9.88-4.79s-6.16-3.38-9.13-5.27a96.54,96.54,0,0,1-8.29-6l-.3-.24a5.07,5.07,0,0,1-1,1.08l-1.53,1.38c-1.16,1.05-2.31,2.1-3.44,3.18-2.38,2.28-4.92,4.39-7.46,6.49-2.73,2.26-5.56,4.4-8.3,6.66s-5.5,4.64-8.24,7c-5.35,4.56-10.78,9-16.47,13.17s-11.47,8.6-17.37,12.69c-4.25,2.95-8.58,5.79-12.82,8.77q-5,3.6-9.74,7.44c-1.46,1.18-2.89,2.43-4.26,3.71-.81.77-1.62,1.53-2.42,2.31l-.91.91a6.38,6.38,0,0,1-1.69,1.51h0l-.1,0c.67,1.08,1.3,2.18,1.91,3.3,1.69,3.13,3.44,6.2,5.14,9.31.77,1.42,1.52,2.86,2.19,4.33a12.42,12.42,0,0,1,.95,3,4.22,4.22,0,0,1-.83,3.18,20,20,0,0,1-1.83,2.19c-1.27,1.35-2.6,2.64-3.94,3.93-2.59,2.5-5.32,4.85-8,7.2-3.26,2.81-6.57,5.56-9.9,8.29-1.44,1.18-2.82,2.42-4.19,3.68-.86.79-1.76,1.5-2.67,2.22,0,.85,0,1.71,0,2.55a88.07,88.07,0,0,1-.83,10.51,96.61,96.61,0,0,1-2,9.65c-.81,3.21-1.78,6.39-2.79,9.54s-2.09,6.2-3.31,9.25a60.81,60.81,0,0,1-4.26,9.06,71.28,71.28,0,0,1-5.49,7.89c-2.17,2.69-4.39,5.35-6.77,7.85-1.12,1.17-2.3,2.27-3.5,3.36a46.21,46.21,0,0,1-3.84,3,63.23,63.23,0,0,1-8.37,5.17,45.9,45.9,0,0,1-4.89,2.11,40,40,0,0,1-4.92,1.41,37.63,37.63,0,0,1-4.73.66c-.51,0-1,.07-1.57.07-.36,0-.71,0-1.06,0-.78,0-1.56,0-2.33-.11A77.9,77.9,0,0,1,541,851.64c-1.66-.39-3.29-.95-4.91-1.5-1.39-.48-2.76-1-4.12-1.55a47,47,0,0,1-4.62-2.13,14.91,14.91,0,0,1-2.58-1.63l-.27-.08a31,31,0,0,1-3.94-1.44,7.23,7.23,0,0,1-2.77-2.22,5.1,5.1,0,0,1-.45-.69c-2.39,1.45-4.74,3-7,4.54l-1.12.83,0,.11c.25.81.49,1.63.74,2.44q.72,2.45,1.37,4.92c.91,3.49,1.55,7,2.15,10.56,1.18,7.15,2.06,14.34,2.7,21.57,0-.21,0-.43-.05-.64.33,3.7.56,7.42.81,11.13.24,3.49.52,7,.75,10.48.26,3.77.44,7.53.52,11.31s.09,7.3.17,11c.17,7.19.85,14.35,1.4,21.52s.86,14.35,1.3,21.53c.38,6.52,1,13,1.55,19.52h0v0h0v0h0a.06.06,0,0,0,0,0c.45,5,1,9.93,1.53,14.89s1,10.09,1.35,15.15c.11,1.14.21,2.28.31,3.42l-.06-.63c1.29,14.22,4.34,28.2,5.91,42.38.7,6.27,1.1,12.58,1.62,18.87.62,6.84,1.17,13.68,1.77,20.52,0-.2,0-.41-.05-.62.65,7.06,1.56,14.09,2.4,21.13.4,3.39.79,6.79,1.11,10.19s.56,7,.85,10.54c.57,6,1.34,11.9,2,17.84.35,3,.72,6,1.27,9,.39,2.12.85,4.23,1.32,6.32a3.14,3.14,0,0,1-.38,2.3,2.53,2.53,0,0,1-2.15,1l-.33,0-.21,0c-8.52.54-17,1.33-25.55,1.44-2.22,0-4.42,0-6.63,0-2.38,0-4.76,0-7.14,0-1.76,0-3.5.08-5.26.14,0,.21,0,.41,0,.62a46,46,0,0,1-.15,5c-.3,3.36-.7,6.7-1.06,10-.67,6.37-1.4,12.7-2.54,19s-2.19,12.85-3.13,19.3-2.16,12.79-3.46,19.15q-1.89,9.32-3.51,18.68c-1.15,6.58-2.36,13.15-3.58,19.72s-2.27,13.19-3.44,19.78c-1.14,6.35-2.55,12.64-3.56,19-.5,3.18-.92,6.36-1.36,9.55-.47,3.36-1,6.71-1.56,10.06s-1.12,6.5-1.63,9.76c-.49,3.11-.95,6.22-1.45,9.33-1,6.4-2.15,12.78-3.17,19.18-1.05,6.66-2.1,13.32-3.05,20-.89,6.2-1.61,12.43-2.4,18.66-.41,3.21-.91,6.4-1.47,9.6s-1,6.41-1.45,9.63c-.62,4.78-1.36,9.55-1.83,14.35-.23,2.3-.37,4.6-.6,6.91s-.47,4.37-.66,6.56c0,.46,0,.94,0,1.41l0,.1c.17.41.35.81.55,1.2a16,16,0,0,1,.69,1.45l.27.62.11.13a1.09,1.09,0,0,1-.1-.11,10.52,10.52,0,0,1,.93,1.33,19.25,19.25,0,0,1,.88,1.76,6.62,6.62,0,0,1,.57,1.57c.43.69.85,1.38,1.29,2.07s1.13,1.57,1.74,2.33c1.08,1.28,2.2,2.53,3.34,3.76s2.5,2.51,3.75,3.76c2.46,2.46,4.86,5,7.34,7.44,1.56,1.49,3.2,2.88,4.88,4.23h0l.42.33-.25-.2,1.36,1.07-.43-.34c2.92,2.31,5.72,4.78,8.61,7.13,3.63,2.85,7.39,5.54,10.85,8.61,1.74,1.54,3.39,3.2,5.07,4.8s3.46,3.36,5.17,5l.15.15c.95.94,1.89,1.88,2.81,2.84s1.87,2.24,2.78,3.38c.31.36.64.71,1,1.05l.82.79a6.41,6.41,0,0,1,1.2,1.78,3.57,3.57,0,0,1,.24,2.61,2,2,0,0,1-1.79,1.29,3.11,3.11,0,0,1-.43,0c-.42,0-.87-.07-1.26-.09-.66,0-1.33-.07-2-.09-.83,0-1.66,0-2.49,0a43,43,0,0,1-5.2-.07c-2.44-.22-4.8-.73-7.2-1.19s-5-.47-7.47-.69a54.77,54.77,0,0,1-8.07-1.22c-2.6-.61-5.14-1.42-7.69-2.22s-5-1.63-7.46-2.46c-2.74-.84-5.5-1.59-8.21-2.51a75.25,75.25,0,0,1-7.92-3.32c-2.47-1.19-4.88-2.44-7.24-3.84-2.52-1.5-5-3.14-7.45-4.72a124.68,124.68,0,0,1-13.17-9.66c-2-1.72-4-3.53-6-5.29-2.19-1.93-4.45-3.77-6.53-5.83a28.3,28.3,0,0,1-3.46-4c-.13.91-.26,1.82-.36,2.73-.3,2.7-.57,5.41-.78,8.12-.26,3.73-.37,7.47-.55,11.21-.09,1.87-.24,3.73-.39,5.6s-.3,3.69-.58,5.52-.66,3.49-1.1,5.22c-.2.75-.37,1.5-.58,2.25a3.45,3.45,0,0,1-.85,1.64,1.9,1.9,0,0,1-1.34.5,4.67,4.67,0,0,1-2.77-1.23,9,9,0,0,1-1.65-2,34.29,34.29,0,0,1-2.06-4.22c-.71-1.59-1.5-3.14-2.17-4.74-.76-1.83-1.42-3.69-2-5.56q-1.82-5.32-3.1-10.8-2.64-11.29-4.64-22.73c-.64-3.68-1.24-7.37-1.74-11.08s-1-7.59-1.61-11.37-1.27-7.61-1.89-11.41-1.15-7.72-1.55-11.61-.63-7.54-.9-11.31q-.44-6-.92-12c-.61-7.69-1-15.39-1.41-23.09-.2-4.06-.45-8.1-.74-12.15-.26-3.76-.57-7.51-.76-11.27-.41-7.79-.43-15.57-.45-23.36q0-5.94-.16-11.88c-.1-3.84-.26-7.68-.35-11.53-.17-7.55,0-15.1,0-22.65s-.08-15.21-.25-22.8-.35-15.38-.54-23.07c-.11-4-.19-8-.2-12s.11-7.77.18-11.64.08-7.51.1-11.26c0-3.91.16-7.83.28-11.74.1-3.26.25-6.51.54-9.77s.75-6.56,1.15-9.84c.38-3.12.61-6.28,1.29-9.35.15-.67.33-1.35.53-2l-6.81.34c-4.71.24-9.4.57-14.09.9-4.31.3-8.61.67-12.92.89q-7.17.36-14.36.46a239.33,239.33,0,0,0-26.75,1.9c-4.67.59-9.33,1.14-14,1.58-4.41.43-8.83.73-13.25,1l-2.67.19c0,.37-.07.72-.11,1.08-.19,1.57-.45,3.14-.74,4.7-.58,3.23-1.23,6.43-2,9.62s-1.79,6.64-2.78,9.92-1.9,6.34-2.85,9.51c-1.85,6.2-4.21,12.21-6.5,18.25-2.4,6.34-4.94,12.62-7.36,18.94-2.34,6.12-4.65,12.25-7.07,18.34-2.5,6.29-5.2,12.5-7.72,18.78-2.42,6-4.64,12.11-6.94,18.18-1.15,3.05-2.26,6.12-3.39,9.18s-2.4,6.26-3.64,9.39c-1.18,3-2.35,6-3.58,8.93-1.3,3.13-2.63,6.25-4,9.37-1.26,3-2.49,5.94-3.75,8.9s-2.57,5.92-3.79,8.89-2.38,6.07-3.49,9.13-2.19,6.21-3.45,9.26c-2.51,6-5.28,11.93-7.83,17.94-2.48,5.85-4.9,11.72-7.41,17.54-2.61,6.05-5.53,12-8.3,17.92-1.3,2.81-2.52,5.67-3.85,8.46s-2.71,5.56-4.24,8.25q-4.7,8.28-9.17,16.69c-2.07,3.9-4.32,7.69-6.4,11.57-1,1.88-2,3.78-3,5.66-.51.95-1.06,1.87-1.58,2.8l.27.34c1.39,1.68,2.8,3.36,4.24,5s3,3.33,4.63,4.93c1.77,1.68,3.58,3.31,5.4,5,2,1.78,4,3.56,6.06,5.23h0l.51.41-.08-.07q2.46,1.88,4.88,3.78c1.44,1.15,2.79,2.4,4.14,3.64,2.76,2.53,5.53,5,8.35,7.5,1.39,1.21,2.77,2.43,4.18,3.63s2.81,2.3,4.19,3.48l4.23,3.59c1.28,1.08,2.46,2.26,3.64,3.43a8.27,8.27,0,0,1,2.39,3.28,2.5,2.5,0,0,1-.45,2.6,3.16,3.16,0,0,1-2.28.53h-2.6C193.06,1559.22,192.25,1559.21,191.44,1559.18Zm-35.06-10.7c1.44.42,2.89.8,4.35,1.11h.05c-1.48-.46-3-.93-4.4-1.49A2.28,2.28,0,0,1,156.38,1548.48Zm9.72-8c1,.48,2.21,1,3.39,1.47s2.29.82,3.44,1.2c1,.3,1.91.55,2.87.81s1.91.51,2.85.8h0s0,0,0,0c-2-1.74-4.06-3.46-6-5.25l-1.9-1.72c-1.85-1.71-3.77-3.47-5.74-5.12l-2.42-1.85c-1.88-1.42-3.82-2.9-5.64-4.46-1.33-1.14-2.6-2.29-4-3.58l-.92-.84c-1-.94-2.06-1.87-3.05-2.84-2.68-2.59-5.19-5.23-7.46-7.85-1.08-1.23-2.17-2.47-3.28-3.68-.77-.84-1.65-1.82-2.44-2.86a5.44,5.44,0,0,1-.73-1l-.25-.38a4.54,4.54,0,0,1-.64-3.21,2.08,2.08,0,0,1,1-1.34,2.8,2.8,0,0,1,.63-.23l.15-.26.14-.27c.66-1.23,1.31-2.46,2-3.7,1.37-2.6,2.82-5.22,4.23-7.74l.34-.62c1.32-2.35,2.6-4.73,3.89-7.09,1.8-3.32,3.66-6.75,5.57-10.09l.44-.77c1.07-1.86,2.17-3.77,3.19-5.71l.61-1.16,0,0-.1.19a1.14,1.14,0,0,0,.1-.19l-.08.2c1.55-3.08,3-6.27,4.4-9.36l.24-.54c1.42-3.11,3-6.38,5.14-10.6,1.59-3.19,2.94-6,4.13-8.68s2.33-5.44,3.65-8.86c2.36-6.09,4.88-12.08,7.5-17.81a192.67,192.67,0,0,0,7.34-18.06l.21-.6.13-.42.06-.19h0v0c-.89-.11-1.79-.18-2.69-.25l-1.13-.09-1.79-.13c-2.12-.17-4.31-.33-6.45-.61s-4.48-.49-6.72-.72l-1.83-.18c-2-.2-3.89-.44-5.84-.68l-2.71-.33c-3.17-.38-5.83-.76-8.36-1.23-1.4-.26-2.8-.54-4.2-.83s-2.54-.51-3.92-.77c-2-.32-4.11-.55-6.13-.77s-3.93-.42-5.9-.72l-1-.16h0l.13,0-.13,0h.13a47,47,0,0,1-7.67-2,22.62,22.62,0,0,1-3.44-1.66l-.18-.09-.06,0h0l-.18,1.24c-.52,3.31-1,6.73-1.65,10.09-.78,4.38-1.75,8.79-2.69,13-.65,3-1.32,6-1.92,9l-.21,1c-1.4,7-2.85,14.29-4.08,21.47-.89,5.17-1.68,10.44-2.45,15.53-.3,2.06-.61,4.11-.93,6.17q-.82,5.46-1.74,10.92-.43,2.64-.9,5.27c-.35,2-.7,4-1,6-.63,3.78-1.11,7.59-1.45,10.48q-.37,3.07-.77,6.17l.65.69.54.57c1,.9,2,1.75,3,2.57s2.29,1.91,3.35,3,1.94,2,2.89,3,1.86,2,2.83,3c.73.68,1.43,1.28,2.1,1.81a56.83,56.83,0,0,1,4.88,4.36c.78.78,1.53,1.6,2.28,2.43.61.66,1.22,1.32,1.84,2s1.54,1.37,2.33,2l1.86,1.41c1,.77,2.11,1.58,3.12,2.43.73.62,1.44,1.25,2.15,1.89s1.66,1.48,2.52,2.19c.71.53,1.44,1,2.17,1.52,1.43.83,2.92,1.6,4.35,2.35l.82.42c1.07.55,2.13,1.14,3.18,1.72.63.35,1.26.7,1.9,1,1.17.64,2.36,1.22,3.55,1.82l1.57.78c.81.41,1.6.85,2.39,1.29s1.48.81,2.23,1.2c1.13.51,2.28,1,3.42,1.46s2.36,1,3.51,1.5l.14.07.25.11.42.2.55.26h0Zm211.08-179.56.09,7.5c.06,3.86.18,7.9.35,12,.13,3.06.34,6.16.54,9.16l.16,2.3.18,2.8c.2,2.82.39,5.64.54,8.46l.28,5.22q.18,3.5.37,7c.33,5.87.77,11.83,1.18,17.6.13,1.74.25,3.49.37,5.24.27,3.85.54,7.7.86,11.55s.85,7.75,1.43,11.51c.38,2.44.79,4.86,1.21,7.29l.66,3.87c.35,2.1.66,4.19,1,6.31,1,.95,1.82,1.66,2.6,2.31.53.38,1.05.75,1.65,1.13a58.09,58.09,0,0,1,5.6,3.63c1.07.81,2.09,1.7,3.07,2.57l1.76,1.52c.68.5,1.36,1,2.06,1.45l2.47,1.51c2.32,1.41,4.73,2.87,7,4.47.86.62,1.71,1.28,2.55,1.93l1.39,1.08q1.92,1.47,4,2.82c.79.47,1.61.93,2.42,1.39,1.26.72,2.53,1.44,3.77,2.2,1.62,1,3.23,2.09,4.78,3.12.69.47,1.39.92,2.08,1.38,2.42,1.48,4.95,2.85,7.4,4.17l1.9,1c.68.37,1.35.76,2,1.14.85.48,1.7,1,2.57,1.42,1.46.78,3,1.56,4.9,2.46s3.72,1.74,5.58,2.63c3.31,1.53,6.74,3,10.18,4.31,2.81,1.09,5.74,2.05,8.57,3l1.11.37c2.32.71,4.66,1.38,7,2q3.1.88,6.2,1.81c1.46.44,3,.82,4.41,1.18l1.8.46c.89.23,1.77.54,2.62.83l.57.19.28.08h0v0h0s0,0,0,0c-.77-.75-1.54-1.5-2.32-2.24l-.36-.36,0,0a101.82,101.82,0,0,0-8.13-7.2l.14.11-.62-.49-.52-.41c-1.91-1.51-3.93-3.2-6.34-5.32s-4.48-3.86-6.37-5.39a76.51,76.51,0,0,1-6.37-5.6c-1.86-1.85-3.71-3.79-5.5-5.66-1-1.09-2.09-2.16-3.14-3.24-2.62-2.68-5.32-5.44-7.75-8.36-.79-1-1.54-1.94-2.29-2.93l-.21-.28c-.19-.24-.37-.48-.54-.74a6.84,6.84,0,0,1-1.08-1.13c-.34-.47-.65-1-1-1.47l-.2-.31c-.4-.48-.8-1-1.16-1.47a17,17,0,0,1-1-1.74c-.14-.31-.24-.64-.35-1l0-.14c-.3-.59-.59-1.19-.84-1.81a11.09,11.09,0,0,1-.81-2.68,17.68,17.68,0,0,1,0-3.72c.09-1,.21-2.06.32-3.09l.16-1.4c.19-1.68.32-3.36.46-5,.1-1.32.21-2.64.35-4,.27-2.73.7-5.49,1.12-8.16l.22-1.42q.4-2.65.79-5.31c.2-1.38.4-2.75.61-4.13.24-1.61.53-3.23.81-4.84s.55-3.13.79-4.7c.6-3.9,1.08-7.9,1.53-11.76.29-2.39.57-4.77.89-7.16,1.76-13.39,3.72-26.49,5.82-39,.47-2.83.92-5.66,1.37-8.49.57-3.62,1.15-7.24,1.78-10.87.38-2.19.76-4.37,1.11-6.58l.06-.36h0l-2.41.11-1.43.07c-1.21.06-2.5.09-4,.09l-3.22,0h-.32l.11,0c-2.47,0-5,.16-7.16.29s-4.51.21-6.83.28c-5.08.14-10.08.56-13.86.92-2.28.21-4.52.42-6.74.55-1.51.1-3,.14-4.54.19l-2,.07h-.4c-3.66.15-7.44.29-11.16.29h-1.88c-1.8,0-3.61-.09-5.42-.16l-3.51-.12h-1l-1,0h-1.64c-1.48,0-3,0-4.53-.1-.63,0-1.3-.09-2.16-.19l-.11,0h0C377.11,1354.06,377.15,1357.46,377.18,1360.88ZM127.52,1530.19c1.29,1.23,2.63,2.4,4,3.55-.45-.53-.89-1-1.32-1.58l-.37-.45-2.62-2.07-.08-.07h0l-.07-.06h0l-1-.76Zm272.79-33c0,.14,0,.27,0,.41l.09.5c.08.45.15.9.24,1.35.07-.71.14-1.42.2-2.13a.34.34,0,0,0,0-.1l-.51-.37C400.32,1497,400.32,1497.08,400.31,1497.2Zm-197.9-306.11c4.5-.11,9-.18,13.52-.25,2.27,0,4.55,0,6.81-.16s4.8-.28,7.21-.45c4.68-.34,9.36-1,14-1.7,4.29-.6,8.59-1.16,12.9-1.6,4.56-.46,9.13-.76,13.69-1.14,4.83-.39,9.66-.83,14.47-1.37,4.24-.47,8.46-1.09,12.7-1.54,4.58-.49,9.17-.89,13.77-1.11s9.45-.27,14.18-.39c9-.24,17.95-1.17,26.91-1.83,9.21-.68,18.44-1.13,27.67-1.55s18.52-.86,27.79-1.16c9-.29,18.12-.36,27.17-.33,4.58,0,9.16.09,13.74.07s9-.24,13.55-.42c4.34-.19,8.68-.3,13-.39,4.71-.1,9.42-.26,14.14-.42,4.53-.15,9.05-.26,13.58-.22s8.85.1,13.26-.09c6.08-.25,12.13-.89,18.19-1.3-.22-1.08-.44-2.16-.63-3.25-.59-3.38-1-6.8-1.34-10.2q-.62-5.43-1.21-10.86c-.4-3.66-.62-7.33-.87-11-.06-.94-.14-1.87-.21-2.81h0v0h0a.11.11,0,0,1,0,0v0c-.62-6.8-1.49-13.57-2.29-20.35-.83-7.06-1.5-14.12-2.13-21.2,0,.21,0,.42.05.63l-.84-9.21,0,.28,0,.35c0-.29,0-.57-.07-.86h0a.13.13,0,0,1,0-.06h0v0h0v0h0c-.07-.67-.12-1.34-.19-2a.25.25,0,0,1,0,.09c-.48-5.37-.84-10.76-1.29-16.14-.31-3.29-.66-6.57-1.13-9.84-.51-3.57-1.11-7.11-1.69-10.66-1.13-7.08-2.28-14.17-3-21.3-.57-5.65-1-11.32-1.48-17l.06.62c-.73-7.3-1.6-14.58-2.25-21.89s-1.2-14.52-1.64-21.79c-.41-7-.8-14-1.43-21l0,.08c-.34-3.55-.68-7.1-.95-10.65-.28-3.7-.47-7.4-.6-11.11-.12-3.51-.09-7-.23-10.56s-.37-7.25-.64-10.87c-.39-5.44-.69-10.89-1-16.34-.24-5.06-.6-10.1-1-15.14h0a2.28,2.28,0,0,0,0-.26c0-.08,0-.15,0-.22a.41.41,0,0,1,0,.11c-.42-4.63-.83-9.26-1.37-13.86-.23-2-.56-4-.87-6.08-2,1.49-3.95,3-6,4.35-4.06,2.77-8.23,5.4-12.3,8.19-5,3.62-9.81,7.57-14.76,11.31-5.19,3.91-10.46,7.74-15.68,11.61s-10.21,7.91-15.29,11.9-9.76,7.91-14.59,12-9.79,7.91-14.68,11.89c-5.07,4.14-10,8.5-15.13,12.55-5.48,4.31-11.32,8.12-17.07,12.07-2.08,1.5-4.16,3-6.22,4.56q-2.47,2.12-5,4.14c-2.78,2.2-5.64,4.27-8.3,6.62a89.28,89.28,0,0,1-7.79,6.62,2.39,2.39,0,0,1-1.77.23,5.11,5.11,0,0,1-1.36.73,2.35,2.35,0,0,1-.6.1h-.18a2.78,2.78,0,0,1-1-.21,4.21,4.21,0,0,1-.88-.49c.62,2,1.18,3.93,1.75,5.9,1,3.34,1.87,6.71,2.71,10.09q.69,2.75,1.25,5.52a41.55,41.55,0,0,1,.64,5.45,29,29,0,0,1-.3,5.74,13.57,13.57,0,0,1-.56,2.41,10.78,10.78,0,0,1-2,3.84,4,4,0,0,1-2.16,1.37,4.68,4.68,0,0,1-2.61-.32,9.15,9.15,0,0,1-1.83-1,12.16,12.16,0,0,1-1-.71,25,25,0,0,1-3.45-3.29c0,.24-.06.49-.1.73a42.37,42.37,0,0,1-.95,5,14.6,14.6,0,0,1-1.69,4.27,6.24,6.24,0,0,1-.91,1.14,5.49,5.49,0,0,1-1.29,1.05,4.36,4.36,0,0,1-3.32.41,6.7,6.7,0,0,1-2.83-1.62,15.88,15.88,0,0,1-1.24-1.22,12.24,12.24,0,0,1-1.22-1.57,42.3,42.3,0,0,1-1.4,6.19,22.06,22.06,0,0,1-.85,2.22,11.48,11.48,0,0,1-2.2,3.64,5.11,5.11,0,0,1-5.06,1.31,11.19,11.19,0,0,1-4.26-2.51,18.6,18.6,0,0,1-1.95-1.92c-.14,2-.35,4-.67,6-.65,4-1.52,8.22-4.47,11.14a4.74,4.74,0,0,1-2.82,1.33h-.41a6.56,6.56,0,0,1-3-.8,26.89,26.89,0,0,1-2.76-1.7,19.34,19.34,0,0,1-5.81-5.83,38.88,38.88,0,0,1-3.39-8.6c-.59-2-1.16-4-1.78-6l-.78.56c-2.13,1.51-4.32,3-6.47,4.45s-4.4,3.08-6.63,4.59c-2.5,1.7-4.95,3.46-7.46,5.14s-5.17,3.42-7.72,5.18l-3.15,2.19c-2.13,1.56-4.23,3.16-6.37,4.7s-4.63,3.2-7,4.77c-4.59,3.11-9.29,6-13.82,9.2-2,1.48-4,3-6.06,4.45-2.23,1.62-4.52,3.18-6.8,4.74-2.1,1.43-4.24,2.79-6.35,4.19-2.32,1.53-4.6,3.12-6.87,4.73l.42-.29c-3.45,2.5-6.84,5.08-10.28,7.59s-7.17,5.11-10.77,7.63c-5.09,3.72-9.86,7.83-14.92,11.57s-10.52,7.27-15.77,11c-4.3,3.17-8.5,6.48-12.8,9.66s-8.87,6.25-13.31,9.35q-2.2,1.57-4.4,3.16c.16,1.69.27,3.37.36,5.07.2,3.89.06,7.82,0,11.72-.12,4.15-.17,8.31-.19,12.47,0,3.84-.12,7.67-.2,11.51,0,2.93-.13,5.87-.26,8.8,0,1-.1,2.09-.17,3.13l6.82.59c4.3.37,8.6.81,12.9,1.14,9.09.72,18.19,1.34,27.28,2,7.68.56,15.37.88,23.06,1.15l2.6,0h0C193.35,1191.29,197.89,1191.21,202.41,1191.09Zm48.31-224.24c3,1.95,5.89,4.13,8.72,6.35s5.75,4.46,8.43,6.91c1.39,1.26,2.76,2.54,4.14,3.82s2.56,2.31,3.81,3.51c.82.79,1.63,1.6,2.43,2.42s1.42,1.63,2.1,2.46c1.09,1.33,2.06,2.77,3,4.2a69.84,69.84,0,0,1,5.32,9.42,84.06,84.06,0,0,1,4,10.51c.94,3.06,1.69,6.18,2.74,9.21.23.56.47,1.12.73,1.68l.08.15.21.22c.33.3.65.6,1,.88a11.44,11.44,0,0,0,1-1.52,21.76,21.76,0,0,0,1.07-3,72.9,72.9,0,0,0,1.49-10.41c.12-1.95.24-3.9.32-5.86a39.64,39.64,0,0,0,0-4.08,7.1,7.1,0,0,1-.05-1.66c.15-1.62,1.86-2.14,3.22-1.8a6.47,6.47,0,0,1,4.35,4.29,12.27,12.27,0,0,1,.34,2.42c.06.67.09,1.34.12,2h0c.14.52.29,1,.46,1.54l.31.74c.28.53.58,1.05.89,1.56.59.84,1.2,1.67,1.84,2.48.4.47.81.94,1.23,1.39l.27.25a.2.2,0,0,0,.08,0l.23-.21a10.84,10.84,0,0,0,.86-1.37,31.66,31.66,0,0,0,1.52-4.15,48.19,48.19,0,0,0,1-5.85,86.64,86.64,0,0,0-.1-12.27,2.58,2.58,0,0,1,0-.4,6.75,6.75,0,0,1,0-1.35,2.14,2.14,0,0,1,2.48-1.79,5.85,5.85,0,0,1,4.13,3,12.67,12.67,0,0,1,1.09,2.82c.28.88.56,1.75.85,2.63.54,1.66,1.09,3.3,1.68,4.93.4,1,.81,2.06,1.24,3.08l.06-.11a18.76,18.76,0,0,0,.82-2.43,62.32,62.32,0,0,0,1.15-7.71,48.12,48.12,0,0,0-.16-5.63c-.16-1.71-.32-3.42-.64-5.11a14.29,14.29,0,0,1-.45-1.91,2.46,2.46,0,0,1,1-2.63,3.4,3.4,0,0,1,3.15.3,6.48,6.48,0,0,1,3.12,4c.18.73.36,1.48.5,2.22a2.21,2.21,0,0,1,.05.25c.3,1,.63,2,1,2.94.51,1.47,1,2.94,1.52,4.4.34.84.69,1.66,1.08,2.48.22.4.44.79.68,1.17s.57.78.87,1.16l.6.67a1.8,1.8,0,0,1,.2.19l.18-.28a12.76,12.76,0,0,0,.65-1.79,23.46,23.46,0,0,0,.4-2.49c.06-1.31,0-2.61,0-3.91a55.72,55.72,0,0,0-1-5.61c-1.75-6.88-4-13.64-6.42-20.3-.62-1.6-1.29-3.16-2-4.69-1.38-2.66-2.71-5.35-4-8-.44-.83-.89-1.64-1.38-2.45s-1.15-1.6-1.76-2.38Q323,941.72,317,935.74c-1.61-1.54-3.24-3-4.92-4.52s-3.49-3.12-5.27-4.65-3.83-3.2-5.75-4.79c-1.6-1.32-3.17-2.69-4.78-4-2.2-1.68-4.48-3.24-6.64-4.94-2-1.54-4-3-6.09-4.38-1.18-.73-2.39-1.43-3.59-2.11-.75-.42-1.53-.82-2.3-1.24-.27.45-.55.9-.85,1.35-2.95,4.49-6.26,8.69-9.59,12.89-3.72,4.69-7.35,9.46-11.25,14-3.66,4.25-7.4,8.42-11.1,12.65-2.33,2.81-4.55,5.7-6.74,8.63-.51.67-1,1.36-1.52,2,1.62,1.09,3.15,2.32,4.68,3.54h0l.27.22-.09-.08,1.23,1-.5-.4C244.91,963.08,247.81,965,250.72,966.85Zm-131.21,9c0,.18,0,.36,0,.54s0,.66-.07,1c-.33,5-.65,10-.93,15l-.06.9.89-.73c2.24-1.83,4.47-3.68,6.74-5.49s4.53-3.49,6.81-5.22,4.56-3.43,6.81-5.18,4.54-3.64,6.83-5.43c2-1.56,4-3.13,5.9-4.79s3.78-3.32,5.7-4.93,3.68-3.11,5.63-4.53,4.06-2.84,6.08-4.26c1.06-.76,2.08-1.56,3.09-2.38a19.71,19.71,0,0,0,2.23-2l.24-.31a2.51,2.51,0,0,1,1.77-1l-1.23-.91c-2.12-1.53-4.15-3.15-6.18-4.8-4-3.27-7.72-6.88-11.78-10.1l.5.4c-2.87-2.2-5.76-4.37-8.56-6.66-2.44-2-4.81-4-7.19-6.11-5.33-4.64-11-8.87-16.38-13.43-2-1.71-4-3.47-6-5.24v.69a4.78,4.78,0,0,1,1.07,2.33c.27,2.93.28,5.88.42,8.82s.35,6.09.43,9.14,0,6.16,0,9.23,0,5.93-.06,8.89c-.12,5.75-.62,11.49-1.1,17.23s-1,11.65-1.42,17.48h0l0,.48a1.79,1.79,0,0,0,0,.23l0-.48C119.58,974.82,119.55,975.36,119.51,975.9ZM16.25,718.78c0,1.31,0,2.62,0,3.93.11,7.26.46,14.33,1,21,.26,2.43.54,4.65.88,6.79s.83,4.16,1.3,6.17l0,.17.09.35c1.09,4.44,2.28,9,3.76,14.42s2.93,10.15,4.52,14.52c2.07,5.28,4.38,10.51,6.86,15.52,1.19,2.26,2.5,4.69,4,7.14s2.87,4.67,4.14,6.65c2.39,3.61,4.24,6.32,6,8.81s3.62,5,6.12,8c1.57,1.81,3.18,3.68,4.87,5.43l3.08,3.2,2.3,2.38c1.66,1.7,3.3,3.43,4.94,5.15,2,2.13,4.06,4.26,6.12,6.38,2,2,4.46,4.28,7.12,6.46l2.75,2.22.38.31c1.85,1.5,3.69,3,5.5,4.52,2,1.69,3.94,3.49,5.82,5.23l1.75,1.63c2.44,2.24,5,4.5,7.84,6.9,1.39,1.18,2.81,2.32,4.23,3.47l.38.3c1.12.9,2.23,1.8,3.33,2.73,2.83,2.35,5.59,4.8,7.91,6.89s5.16,4.59,7.94,6.89c1.47,1.2,2.95,2.38,4.44,3.56,1.24,1,2.48,2,3.71,3,2.55,2.08,5.08,4.26,7.54,6.38l.35.3c2.66,2.31,5.41,4.69,8.2,6.94l.56.43c3.19,2.49,6.49,5,9.56,7.78.76.67,1.5,1.35,2.25,2s1.8,1.64,2.72,2.44c1.32,1.16,2.63,2.24,4.46,3.71q1.85,1.41,3.69,2.79c2.72,2,5.16,3.87,7.51,5.84,1,.87,2.08,1.74,3.11,2.61l.57.49.11.09c2.24,1.9,4.56,3.86,6.89,5.73,4.13,3.2,7.58,5.73,10.87,8,1.51,1,3,2.15,4.46,3.28l.51.39.33.25c.51.39,1,.78,1.53,1.13l0,0h0l.49-.31a36.33,36.33,0,0,0,5.27-4.91,89.63,89.63,0,0,0,5.88-7.88c1.08-1.63,2.15-3.28,3.2-4.93l.91-1.4,1.83-2.82c2-3,3.88-5.87,6-8.6,1.6-2,3.27-4,4.94-6l1.79-2.14c4.55-5.5,8.92-11.38,12.68-16.46,1.55-2.09,3.07-4.2,4.6-6.31l1.17-1.61c1.69-2.33,3.65-5.11,5.44-8.07.39-.64.75-1.3,1.11-2,.23-.48.45-1,.66-1.45a2.78,2.78,0,0,1,.43-1l.27-.62c.34-.83.69-1.67,1.06-2.49a2.92,2.92,0,0,1,2.09-1.72l.08,0a3.45,3.45,0,0,1,.57-.05h0l-1.52-1.08-.46-.32-.83-.59c-2.08-1.47-3.93-2.87-5.68-4.26-1.19-1-2.38-2-3.6-3.06l-1.11-1c-1.42-1.21-2.93-2.47-4.62-3.83-1.47-1.13-3-2.24-4.5-3.35s-3-2.18-4.43-3.31c-2.34-1.8-4.64-3.64-6.94-5.47L241,862l-2.21-1.78c-1.64-1.26-3.31-2.49-5-3.72l-.36-.26c-2-1.5-4.14-3.06-6.15-4.66s-4.06-3.37-6-5.05l-.14-.12c-1.5-1.29-3.35-2.9-5.14-4.36l-2.13-1.72-.95-.78-.21-.16c-2.57-2.08-5.23-4.24-7.76-6.45-1.68-1.45-3.33-2.93-5-4.41l-.31-.28c-1.75-1.57-3.49-3.14-5.27-4.68l-2.82-2.38c-1.46-1.22-3.11-2.6-4.67-4-1.77-1.6-3.48-3.33-5.14-5l-.29-.29-2-2-2.63-2.56-1.23-1.2c-1.94-1.88-3.88-3.76-5.77-5.62l-.24-.24-.18-.19c-2.72-2.67-5.11-5.14-7.31-7.57s-4.52-5.22-6.59-7.76a73.79,73.79,0,0,1-6.21-9c-1.5-2.55-2.89-5.32-4.12-7.76l-.39-.75-.33-.65,0,0c-1.31-2.57-2.62-5.15-3.91-7.73a84.76,84.76,0,0,1-3.49-8,58.31,58.31,0,0,1-2.37-8.74,59.2,59.2,0,0,1-1.11-9.26c0-.56,0-1.14,0-1.71,0-2.08.15-4.2.29-6.07l.09-1.12.3-4.38.11-1.89,0-.34c0-.61.08-1.23.12-1.84h0v.09a0,0,0,0,0,0,0v.06c.59-8.48,1.43-18.54,3.08-28.8.41-2.62.87-5.22,1.34-7.83l.15-.89.21-1.19c.29-1.64.58-3.28.86-4.93.81-4.83,1.6-9.79,2.33-14.75l.19-1.24c.7-4.78,1.35-9.08,2.09-13.38.78-4.59,1.69-9.22,2.64-13.93,1.86-9.27,3.55-18.56,5.51-29.66.74-4.16,1.43-8.34,2.12-12.52l.12-.75.28-1.71c.72-4.39,1.58-8.84,2.42-13.15l.07-.33.24-1.18c2.22-11.37,4.25-20.49,6.4-28.72q1.18-4.53,2.39-9l.66-2.47c.48-1.78.94-3.56,1.41-5.33,1.13-4.42,2.21-8.85,3.29-13.28l.31-1.29,1-3.94c1.41-5.74,3-11.95,4.9-19l.25-.91.3-1.18,0-.16c1.11-4.48,2.08-9.08,3-13.56l.11-.52.24-1.14.07-.34c.4-1.88.79-3.77,1.19-5.64.31-1.4.64-2.78,1-4.16l0-.18c.2-.84.4-1.67.59-2.51.45-1.92.85-3.85,1.25-5.78l0-.15c.54-2.6,1.09-5.29,1.76-7.9a108,108,0,0,1,4.4-13.72c.27-.67.55-1.33.83-2l.13-.33a3.4,3.4,0,0,1,.82-1.37,1,1,0,0,1,.64-.23,2.46,2.46,0,0,1,2,1.7,5,5,0,0,1,.14,1.28,20.19,20.19,0,0,1-.37,3.39c-.21,1.3-.47,2.59-.74,3.89l-.08.41c-.18.91-.37,1.81-.53,2.73-.74,4.14-1.43,8.68-2.19,14.28-.27,2-.65,4.77-1.15,7.6-.18,1.05-.37,2.1-.57,3.2-.24,1.27-.47,2.54-.7,3.82l-.44,2.57c-.74,4.25-1.4,8.08-2.18,11.88-1,5-2.35,10.09-3.65,15l-.17.64-.06.21c-1.8,6.95-3.62,14.29-5.57,22.43-1.89,7.84-4,15.81-5.83,22.83l-.11.43-.12.43c-1.12,4.32-2.29,8.78-3.29,13.22s-2,9.39-3.22,15.29c-.83,4.16-1.86,9.35-2.71,14.3-.35,2.05-.69,4.12-1,6.18l-.07.4c-.44,2.69-.88,5.37-1.35,8.06-.66,3.8-1.41,7.66-2.18,11.61l-.56,2.88q-.53,2.73-1,5.48l-.07.35c-.58,3.07-1.17,6.15-1.79,9.22l-.75,3.71c-.66,3.27-1.41,7-2.06,10.61-.82,4.63-1.57,9.36-2.3,13.94l-.1.62c-.8,5-1.61,9.9-2.42,14.49-.54,3-1.11,6.09-1.69,9.12l-1.05,5.65c-1.77,9.6-2.75,19.46-3.56,28.69-.39,4.46-.75,8.94-1.09,13.41a63.65,63.65,0,0,0,0,7.45,72.64,72.64,0,0,0,1.42,8.4c.39,1.46.82,2.89,1.34,4.39.93,2.38,2,4.81,3.46,7.67q2.37,4.61,4.81,9.19c1.37,2.59,3.23,6,5.42,9.39,1.08,1.51,2.24,3,3.54,4.66,3.73,4.4,7.67,8.68,11.72,12.7l5.23,5,5.29,5.08,2.49,2.4c2.59,2.53,5.27,5.13,8.13,7.54l2.21,1.82.38.31,2.89,2.42c1.43,1.22,2.83,2.48,4.25,3.76l.9.82c4.2,3.76,7.71,6.77,11.05,9.47l.51.4.28.19.08.07h0l-.13-.09.06.06-.07,0,.2.15.13.1.11.09c2.13,1.66,4.41,3.47,6.79,5.49,2.17,1.83,4.34,3.66,6.55,5.46s4.65,3.47,6.9,5.09l.54.39c.87.62,1.74,1.25,2.59,1.89,1.92,1.4,3.84,2.9,5.54,4.23s3.17,2.49,4.79,3.69,3.11,2.28,4.68,3.41l.32.22c1.73,1.25,3.46,2.49,5.16,3.78,2.56,1.94,5.14,4.09,7.4,6l.84.7,2.34,1.94.17.13.16.13.21.15c.26.2.51.38.78.56l.06,0,.19.14v0h0v0h0a3.07,3.07,0,0,1-.21-1.06,1.41,1.41,0,0,1,.47-1.13,12.12,12.12,0,0,1,1-.76l.15-.1a108.59,108.59,0,0,0,9.21-7.9l.11-.11c2.44-2.27,5-4.61,7.66-6.71.87-.69,1.77-1.34,2.75-2L295,856.3q2.53-1.89,5-3.81c2.83-2.18,5.57-4.57,8.22-6.87l.15-.13.15-.13,1-.87c1.26-1.12,2.85-2.51,4.42-3.75,2.27-1.8,4.63-3.41,6.43-4.62,1.2-.8,2.41-1.58,3.65-2.36v0c.83-.51,1.65-1,2.47-1.55,1.09-.7,2.18-1.42,3.25-2.14h0l2.77-1.89q4.62-3.43,9.21-6.91c2.31-1.75,4.65-3.46,7-5.17l2.62-1.9c2.64-1.93,5.93-4.32,9-6.69q2.49-1.93,5-3.9l.82-.64,3.76-2.94c3.07-2.39,5.86-4.55,8.62-6.82,1.52-1.25,3-2.52,4.55-3.78l.22-.19q2.06-1.72,4.12-3.42c2-1.68,4.08-3.33,6.14-5,3.87-3.1,7.87-6.3,11.69-9.71,2.91-2.6,6-5.38,9.23-8,2.17-1.81,4.52-3.65,6.45-5.16l2.68-2.11c2.63-2.08,5.25-4.29,7.78-6.41l.12-.1c3-2.52,6.36-5.36,9.76-8,2.94-2.26,5.95-4.46,9.3-6.9,1.8-1.31,3.58-2.64,5.36-4l1.37-1c.92-.69,1.84-1.38,2.77-2.06l3.71-2.73,1.11-.82c3.48-2.55,7.08-5.2,10.69-8a5,5,0,0,1-.8-2.38c-.48-6.92-.56-13.71-.58-18.84,0-3.68-.1-6.7-.23-9.51-.08-1.64-.19-3.27-.3-4.91l0-.67-.06-.93c-.06-.93-.13-1.85-.18-2.78-.17-2.92-.26-5.88-.34-8.5v-.28c-.11-3.17-.21-6.43-.42-9.64-.27-3.93-.49-7.85-.72-11.77l-.08-1.31-.33-5.72c-.21-3.57-.5-7.08-.82-11l-.08-1c-.19-2.33-.38-4.65-.54-7-.24-3.48-.4-6.4-.48-9.22l-.1-3.34q-.07-3.08-.19-6.13l-.06-1.52c-.11-2.68-.21-5.35-.27-8,0-.47,0-.95,0-1.43,0-1.44,0-2.88.08-4.29l0-.62q0-1.49.06-3c0-.46,0-.93,0-1.41,0-2.61-.05-5.31-.14-8.25-.05-1.66-.06-3.33-.06-5v-4.19c0-1.28-.07-2.68-.2-4.4-.17-1.54-.39-3.09-.62-4.63a32.88,32.88,0,0,1-.49-4.83c0-.23,0-.47,0-.7a6.2,6.2,0,0,1,.24-1.57,3.08,3.08,0,0,1,.43-1,5.13,5.13,0,0,1,.95-1c.68-.53,1.43-1,2.07-1.43l1.13-.67.22-.14c.8-.47,1.59-.94,2.37-1.46a64.88,64.88,0,0,0,10.54-10.09c1.3-1.58,3-3.68,4.53-6a78.31,78.31,0,0,0,4.12-6.8,44.38,44.38,0,0,0,1.95-4.48c.61-1.71,1.14-3.37,1.62-5.1.34-1.38.73-3,1-4.6s.49-3.51.64-5c.14-2.35.25-4.47.25-6.61,0-.49,0-1,0-1.47-.08-2.66-.23-5.38-.47-8.32-.22-2.25-.42-4.05-.66-5.84s-.58-3.68-1.07-6c-.51-2.05-1.09-4.1-1.67-6.14-.48-1.7-1-3.39-1.41-5.1-.79-3-1.46-6.13-2.14-9.24l-.13-.6-.57-2.6-.06-.27c-.26-1.05-.53-2.15-.86-3.22-.42-1.34-.89-2.73-1.39-4.12q-1.17-3.14-2.26-6.28c-.27-.7-.52-1.4-.76-2.1a2.34,2.34,0,0,1-.13-.79,1.91,1.91,0,0,1,.29-1,1.48,1.48,0,0,1,1.15-.65h.16a4.13,4.13,0,0,1,3.17,2.14c.49.81.95,1.64,1.42,2.46l.19.34c.23.42.48.85.72,1.26.75,1.31,1.51,2.74,2.4,4.51a52.52,52.52,0,0,1,3.45,9c.42,1.47.81,2.95,1.2,4.42s.86,3.23,1.32,4.85c.7,2.45,1.45,4.88,2.2,7.32l.2.63.36,1.14c.78,2.56,1.34,4.64,1.76,6.54s.84,4.25,1.22,6.94c.15,1,.26,2,.37,3.11.08.72.15,1.44.22,2.21l0,.44c0,.28.06.56.08.84l0,.24,0,.21c.27,3,.41,6,.41,8.94a88.78,88.78,0,0,1-.68,11.06c-.16,1.3-.43,2.62-.69,3.9l-.05.23-.1.46c-.3,1.48-.71,3.1-1.22,4.82s-1,3.14-1.6,4.72a42.63,42.63,0,0,1-2.18,4.63,66.85,66.85,0,0,1-4.28,7c-1.13,1.61-2.38,3.26-3.86,5.1l-.24.3-.13.16-1,1.15.07-.1-.05,0,0-.06a59,59,0,0,1-7.77,7.75,33,33,0,0,1-4.44,3.14c-.58.32-1.17.61-1.8.91a18.19,18.19,0,0,0-2.29,1.23v.2c0,.45,0,.9.05,1.37.1,1,.22,1.92.35,2.94.24,1.94.49,3.94.55,5.92,0,1.05.05,2.11.05,3.16,0,.54,0,1.09,0,1.63v.79c0,.92,0,1.84,0,2.76,0,.31,0,.61,0,.92,0,1.55.07,3.1.12,4.66s.1,3.09.12,4.64c0,.58,0,1.16,0,1.75,0,1.74,0,3.5-.06,5.21l0,2.78c0,.39,0,.78,0,1.16,0,2.54.09,5.12.19,7.6v.57c.13,3.08.22,6.17.29,9.27.13,5.37.42,11.09,1,18.55.5,6.92.87,13.26,1.11,19.36.12,2.72.27,5.43.42,8.15l0,.59c.17,3.2.36,6.52.46,9.77,0,1.14.08,2.28.1,3.43l0,.88c.05,1.67.09,3.35.15,5s.16,3.36.26,5l0,.72.05.88c.05.84.1,1.68.14,2.52.1,1.91.14,4,.14,6.33,0,2.19,0,4.37-.07,6.52l0,.6c0,1.67-.07,3.34-.08,5l0,2.79v1.16l0,2.32v.67l0,.41v.27h0v0h0v0l.67-.52.52-.4c1.86-1.42,3.72-2.85,5.56-4.3,2.09-1.64,4.14-3.33,6.19-5,.92-.77,1.86-1.54,2.79-2.3,3.15-2.58,6.45-5.06,9-6.94l2.64-2,.7-.51.2-.15c2-1.43,4-2.91,5.93-4.43,2.43-1.89,4.92-3.92,7.11-5.71l1.72-1.4c2.91-2.38,5.89-4.76,9.1-7.26,1.82-1.43,3.62-2.89,5.42-4.34l.48-.39,3.88-3.15c-.06-1.39-.14-2.68-.26-3.93a2.11,2.11,0,0,0,0-.25c0-.22,0-.45-.05-.68,0,0,0,0,0,0h0s0,0,0,0l0,.06v0c-.47-5.06-1-10.45-1.33-15.86q-.21-3.09-.4-6.2c-.21-3.52-.41-6.7-.68-9.91-.83-8.72-1.41-15.94-1.83-22.7-.38-6-.66-12.17-.91-17.62l-.25-5.49c-.21-4.39-.48-9.58-.89-14.77-.12-1.35-.25-2.69-.39-4-.24-2.48-.48-5-.69-7.44-.35-4-.58-8-.77-11.45-.13-2.3-.23-4.6-.32-6.9-.06-1.49-.12-3-.19-4.46-.2-4.11-.45-8.26-.73-12.34-.14-1.8-.28-3.59-.43-5.38l-.07-.81c-.15-1.73-.29-3.47-.41-5.21-.32-4.47-.52-8.88-.66-12.22l-.19-4.58,0-.21c-.23-5.78-.48-11.76-.94-17.63s-1-12.32-1.12-18.62l-.11-4.06-.15-6c-.11-3.28-.31-6.46-.5-9.13-.68-7.18-1.58-14.72-2.69-22.4-.94-6.46-2.13-13-3.29-19.31l0-.19-.7-3.82c-.54-3-1.15-6-1.87-9.2l-.1-.4c-.3-1.17-.6-2.35-.95-3.51-.43-1.45-.9-2.86-1.38-4.29s-1.39-3.66-2.33-5.83-1.87-4.16-2.79-6.05l-.64-1.27-.22-.4L512,358l0-.07h0l.05.09,0-.07,0,.07c-.1-.2-.21-.39-.32-.59l0,0v0c-.64-1.16-1.34-2.38-2.13-3.68s-1.64-2.37-2.49-3.56c-.73-1-1.54-2-2.32-2.9l-.12-.15-.23-.27c-2.73-3.24-6-7-9.61-10.76-.71-.69-1.42-1.37-2.15-2s-1.4-1.18-2.11-1.76c-3.17-2.34-6.61-4.51-9.66-6.43l-1.68-1.06-.54-.34c-1.09-.66-2.22-1.36-3.39-1.92a40.56,40.56,0,0,0-3.89-1.62l-2.63-.91-1.88-.63-3.34-1.17c-1.84-.64-3.67-1.28-5.51-1.9a43.18,43.18,0,0,0-4.75-1.22c-2.09-.28-4.23-.43-6.29-.57l-.22,0-1.77-.12c-3.1-.22-6.18-.53-9.32-.85-2.71-.27-5.63-.59-8.57-1.06-1.73-.27-3.05-.54-4.29-.85l-.27-.07a27.69,27.69,0,0,1-2.67-.78l-.29-.12h0c-.2,1.14-.38,2.26-.56,3.39-.12.81-.23,1.63-.35,2.45l0,.27,0,.26c-.27,1.81-.54,3.69-.88,5.52-1.19,6.49-2.84,13-4.14,17.9-.82,3.11-1.7,6.15-2.51,9-.74,2.55-1.51,5.34-2.49,9.05-.25,1-.49,1.94-.74,2.91l-.28,1.1-.05.18c-.59,2.34-1.19,4.7-1.82,7l-.81,2.9c-.75,2.69-1.5,5.37-2.22,8.07l-.27,1c-1.34,5.22-2.73,10.61-4.25,16-.93,3.26-2,6.54-3,9.72l-.17.54q-1,3.22-2,6.45l-.07.22c-1.55,5.12-3.3,10.91-5.15,16.53-1.8,5.43-3.71,11.25-5.55,17.05l-.5,1.56-.31,1c-1.46,4.64-3,9.44-4.4,14.17s-3.05,9.93-5.17,16.62c-2,6.23-3.66,11.79-5.08,17l-.71,2.56c-1.21,4.4-2.58,9.39-4.08,14.2-1.21,3.86-2.51,7.75-3.84,11.72q-.82,2.44-1.63,4.89c-1.91,5.72-3.92,11.51-5.63,16.42-1,2.74-1.86,5.38-2.66,7.85l-.26.82c-.77,2.37-1.55,4.82-2.41,7.2-.65,1.79-1.4,3.59-2.13,5.32l-1,2.34c-.93,2.28-1.79,4.71-2.61,7.44l-.09.24a1.77,1.77,0,0,1-1.62,1.15l-.21,0a4.1,4.1,0,0,1-2.25-.82,5.36,5.36,0,0,1-2.27-3.52,7.58,7.58,0,0,1-1-1.59,23.5,23.5,0,0,1-.92-2.43l-.11-.31c-.46-1.35-.83-2.68-1.22-4.15-.6-2.24-1.12-4.55-1.65-6.85-.19-.87-.39-1.72-.59-2.59-.39-1.64-.79-3.28-1.21-5-.66-2.73-1.32-5.46-2-8.18-1.32-5.69-2.49-11.38-3.66-17.2-1.23-6-2.33-12.09-3.26-17.27q-.58-3.26-1.12-6.53c-.49-2.88-1-5.86-1.54-8.78-1-5.57-2.11-10.62-3.23-15.43l-.48-2.09-.2-.83-.73-3.15-.05-.19-.06-.27c-.54-2.3-1.06-4.61-1.58-6.91l-.11-.45c-.46-2.07-.93-4.13-1.41-6.2-1.92-7.92-4.25-16.06-6.3-23.23q-1.6-5.58-3.15-11.16l-.91-3.3q-2-7.09-3.9-14.2c-1.49-5.48-3.22-11-5.16-16.5l-.28-.79c-1.74-4.92-3.54-10-4.84-15.16-.87-3.48-1.63-7.06-2.36-10.52l-.08-.34c-.41-1.95-.82-3.89-1.25-5.83-.55-2.26-1.3-5.25-2.2-8.25-.55-1.85-1.15-3.68-1.74-5.52l-.91-2.79-.14-.45c-.79-2.48-1.69-5.3-2.37-8.06-.72-3-1.39-6-2-9.27-1.18-5.79-2.17-10.39-3.1-14.5l-.37-1.54c-.49-2-1-4.3-1.69-6.51a0,0,0,0,0,0,0l-.09-.32h0a12.65,12.65,0,0,1-2.27.65c-1.31.27-2.63.51-4,.76l-2.25.4-1.77.34-.89.17-.35.08c-1.52.3-3.09.61-4.64.84l-5.49.84-1,.15q-4.18.63-8.35,1.3c-2.5.42-5,.77-7.51,1.11l-.2,0c-2.47.34-4.93.68-7.39,1.08-6,1.08-11.85,2.77-17.54,4.4l-.8.23c-1.47.42-2.94.86-4.4,1.3-4.47,1.32-9.09,2.7-13.77,3.62-1.13.23-2.26.44-3.48.66-1.71.32-3.49.64-5.22,1a87.3,87.3,0,0,0-8.69,2.45l-1.82.6-.17,0c-2,.69-4.15,1.4-6.27,2l-.43.12c-2.52.7-5.13,1.42-7.62,2.35a61.06,61.06,0,0,0-6.52,3.2c-1.87,1.05-3.72,2.2-5.51,3.3l-.18.11-1.28.79c-2.33,1.42-4.7,2.81-7.05,4.11s-4.62,2.6-6.87,4.11a84.34,84.34,0,0,0-10.36,9.53l-1.42,1.46c-1,1.06-2.08,2.11-3.16,3.17-.84.83-1.67,1.66-2.5,2.5-2,2-3.85,4.13-5.57,6.11s-3,3.66-4.17,5.36c-1.45,2-2.73,4.22-4,6.37l-.41.71c-2.61,4.47-5.15,9.11-7.54,13.79l-.11.21c-2.34,4.65-4.16,8.34-5.9,12-2,4.19-3.94,8.74-5.92,13.91a274.9,274.9,0,0,0-8.93,28.49l0,.14L60,449.74l-.22.87q-1.07,4.25-2.17,8.47-.85,3.1-1.72,6.19l-.11.38c-.47,1.68-.94,3.35-1.39,5-1.67,6.47-3.15,13.14-4.43,19.86l-1.1,5.91c-.84,4.59-1.8,9.8-2.85,14.85-.65,3.19-1.35,6.38-2.06,9.57l-.19.84c-.75,3.36-1.49,6.73-2.19,10.12-.93,4.48-1.8,9.07-2.64,13.5l-.13.66c-.37,2-.74,3.94-1.13,5.92-2.65,13.76-5.26,27.76-7.74,41.58-1.19,6.67-2,13.34-2.77,19.56-.82,7-1.74,13.94-2.79,21.36L24,637.6c-.64,4.46-1.27,8.92-1.86,13.39-.5,3.94-.92,7.91-1.34,12l-.17,1.61q-.16,1.71-.36,3.42c-.25,2.32-.52,4.65-.78,7l-.16,1.27c-.35,3-.7,6-1,9.08-.39,3.73-.76,7.88-1.1,12.57,0,.48-.07,1-.11,1.43-.06.88-.13,1.75-.2,2.64v0a1,1,0,0,0,0-.17h0v0a.06.06,0,0,1,0,0v0h0v-.08C16.45,707.35,16.25,713.08,16.25,718.78ZM276.69,879.25l0,.07,1-.42C277.37,879,277,879.15,276.69,879.25Zm250.07-44.57c-1.16.78-2.35,1.51-3.55,2.23.66.35,1.33.69,2,1l.11,0q1.73.72,3.39,1.56a12.13,12.13,0,0,1,1.42.77,6,6,0,0,1,2.37,3.26c1.3.28,2.61.54,3.92.78a91.31,91.31,0,0,0,12.13,1c1,0,1.88-.07,2.83-.17s1.69-.21,2.53-.35,1.78-.38,2.67-.64,2-.63,3-1c2.17-.93,4.27-2,6.35-3.09a63.58,63.58,0,0,0,6-3.85c.91-.66,1.84-1.32,2.72-2,1.08-.87,2.1-1.8,3.11-2.76,1.77-1.68,3.39-3.49,5-5.33a81,81,0,0,0,8.77-12.29,97.69,97.69,0,0,0,4.32-10.55c1.34-3.75,2.42-7.59,3.44-11.45a113.62,113.62,0,0,0,3.2-17.65,62.71,62.71,0,0,0,.07-8.56c-.09-.84-.21-1.67-.37-2.49s-.43-1.44-.68-2.15-.57-1.33-.88-2l-.21.23a12.78,12.78,0,0,0-1.26,1.9,36.69,36.69,0,0,0-1.74,4.91c-.55,2.15-1,4.31-1.43,6.5s-.6,4.42-.86,6.63c-.28,2.39-.68,4.76-1.05,7.14-.15,1-.3,2-.44,3l-.21,1.56a3.91,3.91,0,0,1-.55,1.94,2.24,2.24,0,0,1-1.19.85,3.5,3.5,0,0,1-2.21-.22,6.49,6.49,0,0,1-3.7-4,14.65,14.65,0,0,1-.34-3.91c0-1,0-1.94,0-2.91,0-1.88,0-3.74-.16-5.61-.18-1.39-.4-2.74-.69-4.1-.24-.86-.49-1.71-.76-2.55-.48-1.21-1-2.4-1.55-3.57-.22-.41-.44-.81-.68-1.2l-.29.15a7.34,7.34,0,0,0-.64.61,9.78,9.78,0,0,0-.72,1.16,24.76,24.76,0,0,0-1.32,3.83c-.49,2.31-.89,4.62-1.16,7s-.44,4.68-.61,7a118.47,118.47,0,0,0-.26,16.85l0,.22a2.3,2.3,0,0,1-3.06,2.81,6.15,6.15,0,0,1-4.28-4.68q-.67-3.74-1.5-7.45c-.51-2-1.09-4-1.79-6-.53-1.29-1.09-2.55-1.71-3.79-.41-.75-.84-1.49-1.28-2.23s-1.17-1.69-1.83-2.49l.42.51-.58-.71h0l0,0h0l-.87-1a8.09,8.09,0,0,0-.44.69,14.82,14.82,0,0,0-.8,2.17,30.85,30.85,0,0,0-.72,5c-.07,1.74-.09,3.48-.09,5.22.58,1.29,1.1,2.61,1.58,3.94a28.66,28.66,0,0,1,1.59,8.94,40.5,40.5,0,0,1-.21,4.4c-.06.71-.15,1.42-.25,2.13,0,.29-.09.59-.14.89a7.52,7.52,0,0,1-.37,1.37,3,3,0,0,1-.66.95,2.18,2.18,0,0,1-1.38.56A4.47,4.47,0,0,1,556,813c-2.65-1.26-3.56-4.25-4.13-6.88a29.84,29.84,0,0,1-.59-4.8c-.16-3.15,0-6.32.12-9.47l0-1c-.21-.46-.42-.9-.64-1.35s-.39-.68-.59-1l-.39-.56-.24-.26-.19-.17-.2.12c-.19.16-.37.34-.55.52a12.7,12.7,0,0,0-.71,1.09,17.63,17.63,0,0,0-.88,2.43,56.77,56.77,0,0,0-1,7.67,54.46,54.46,0,0,0,0,6.88,100.56,100.56,0,0,0,2.07,10.28c-.05-.22-.11-.44-.15-.66a38,38,0,0,0,1.16,4c.35.94.72,1.87,1.1,2.79a4.59,4.59,0,0,1,.3,3.33,2.55,2.55,0,0,1-2.26,1.62,5.3,5.3,0,0,1-3.37-1.11,7.72,7.72,0,0,1-2.58-3c-1.19.9-2.36,1.82-3.54,2.72-2.13,1.62-4.35,3.11-6.52,4.65h0l-.07,0h0l-.1.06-.18.13L532,831C530.27,832.21,528.54,833.48,526.76,834.68ZM677.45,597.87c-.75.67-1.49,1.36-2.23,2-.49.46-1,.93-1.48,1.38-1.23,1.14-2.51,2.17-3.6,3-1.86,1.48-3.86,2.83-5.8,4.14q-1.43.94-2.82,1.92c-2.75,2-5.46,4-8.16,6.05-2.23,1.68-4.46,3.35-6.71,5-4.94,3.62-9.93,7.36-14.75,11q-2.7,2-5.45,4c-3.11,2.28-6.33,4.65-9.41,7.08l-.9.71c-2.18,1.73-4.44,3.52-6.7,5.22s-5.05,3.65-8.17,5.68c-2.09,1.36-4.18,2.58-5.94,3.6l-.28.16c-.9.52-1.82,1-2.75,1.51l-1.77.9c-.63.32-1.27.63-2,1h0c2,2.88,4.11,5.6,5.86,7.89,1.19,1.54,2.35,3.11,3.51,4.67,1,1.36,2,2.73,3.07,4.09,1.93,2.52,4.08,5.24,6.59,8.31l2.58,3.09c1.61,1.92,3.22,3.84,4.79,5.79s3,4,4.4,6l2.26,3.15c1.19,1.61,2.44,3.21,3.66,4.77,1,1.31,2,2.63,3.06,4h0l.1-.18a2.64,2.64,0,0,1,.21-.29l.1-.15.12-.18a2.49,2.49,0,0,1,.48-2.55,7.28,7.28,0,0,1,1.17-.9l.32-.22,1.43-1,.52-.36.89-.62.15-.16.14-.15c2.44-2.46,5.12-4.91,8.19-7.48,4.48-3.74,9.35-7.14,14.05-10.43l3.34-2.33,5.38-4c1.79-1.32,3.59-2.65,5.39-4,4.64-3.77,9.46-7.61,14.34-11.42,2.74-2.15,5.67-4.47,8.55-6.81l1.41-1.15c1.94-1.71,4.25-3.72,6.64-5.58l.57-.45c1.57-1.32,3.17-2.61,4.77-3.91s3.18-2.59,4.76-3.91,3.23-2.72,4.83-4.11c1-.93,2-1.85,3-2.76l.31-.29.32-.29v0h0c-2.07-1.54-4.23-3.3-6.61-5.39s-4.74-4.16-7.07-6.28c-.87-.77-1.72-1.56-2.58-2.34-1.46-1.33-2.93-2.68-4.42-4-5.26-4.63-9.92-8.86-13.8-13.9-1.07-1.37-2.06-2.83-3-4.24-.6-.89-1.21-1.79-1.84-2.66s-1.25-1.72-1.92-2.57l-.35-.45h0v0A2.43,2.43,0,0,1,677.45,597.87Zm19.73-67.29c1.71,2.86,3.4,5.74,5.16,8.58,2,3.26,4.13,6.47,6.2,9.71,1.93,3,3.77,6.09,5.69,9.11q1.72,2.55,3.64,4.95c1.35,1.59,2.73,3.15,4.08,4.73,1.54,1.78,3,3.62,4.42,5.48,1.25,1.65,2.42,3.35,3.65,5s2.25,3,3.42,4.45c1.1,1.28,2.21,2.55,3.42,3.75l.07.06.18.18.21.2c2.08,2,4.19,3.87,6.26,5.83s4.12,4.06,6.15,6.11c1,.93,2,1.82,3,2.69,1.26,1,2.57,1.85,3.91,2.7,3.78,2.28,7.6,4.49,11.41,6.73,3.38,2,6.76,3.92,10.27,5.64,4.06,1.82,8.25,3.34,12.27,5.29s8,4.54,12.07,6.65c.8.35,1.6.7,2.41,1s1.57.56,2.36.82c3.63,1.1,7.29,2.11,10.9,3.3,1.78.58,3.51,1.31,5.24,2s3.24,1.28,4.88,1.84c2.3.68,4.61,1.22,7,1.68,2.14.42,4.3.8,6.43,1.28,2.44.56,4.84,1.23,7.25,1.91,2.23.63,4.48,1.13,6.75,1.58,3.84.67,7.69,1.26,11.56,1.8,3.7.51,7.44.78,11.16,1.17,4,.42,7.92.92,11.88,1.38,3.77.43,7.57.61,11.36.7,5.71,0,11.41-.26,17.12-.42,2.76-.08,5.52-.07,8.28-.09s5.5-.11,8.24-.12h3.69c1.79,0,3.57,0,5.36,0,2.78-.06,5.57-.31,8.33-.63,5.86-.69,11.65-1.78,17.49-2.64,3-.44,6-.86,8.92-1.36,4.69-.87,9.36-1.86,14-2.76,2.16-.42,4.32-.87,6.48-1.32,2.56-.53,5.09-1.15,7.64-1.68,2.36-.49,4.73-.92,7.09-1.39s4.65-1.05,7-1.6,4.35-1,6.51-1.65a62.34,62.34,0,0,0,6-2c2.12-.89,4.23-1.83,6.37-2.67s4.41-1.58,6.65-2.26,4.63-1.32,6.95-2,4.29-1.29,6.39-2.08,4.24-1.87,6.35-2.82c2.45-1.12,4.94-2.14,7.44-3.17a118.82,118.82,0,0,0,12.8-6.2c2.12-1.19,4.16-2.51,6.24-3.76s4.1-2.41,6.16-3.61c4.23-2.46,8.41-5,12.41-7.8,2.8-2,5.54-4.15,8.37-6.13s5.9-4.11,8.84-6.2l-.44.31c1.9-1.39,3.81-2.78,5.61-4.32,2-1.72,4-3.52,5.85-5.37,3.33-3.24,6.61-6.5,9.64-10a88.93,88.93,0,0,0,8.71-12.29c2.58-4.48,4.87-9.14,7.51-13.59,1.33-2.23,2.75-4.4,4.18-6.58s2.79-4.33,4.14-6.53c2.78-4.5,5.57-9,8-13.68l.57-1.13v0s0-.05,0-.08l0,.06,0-.07h0v0c1-2,2-4.08,3-6.13s1.89-3.95,2.74-6c1.78-4.24,3.26-8.6,4.73-13,3-8.85,5.59-17.83,8-26.85.87-3.4,1.75-6.79,2.77-10.14,1.15-3.76,2.34-7.49,3.39-11.28,1-4.12,1.88-8.27,2.79-12.42,1-4.37,1.91-8.76,2.55-13.21s1.1-9,1.61-13.46c.46-4.1.87-8.19,1.17-12.3,0,.21,0,.42-.05.64.19-2.72.39-5.43.48-8.14.11-3,.17-6,.27-9,.18-5.8.73-11.6.87-17.4.06-3,.07-5.95-.07-8.91-.13-2.8-.34-5.6-.55-8.39s-.41-5.39-.58-8.1-.31-5.3-.52-7.94c-.19-1.77-.43-3.52-.72-5.26-.36-2.12-.87-4.21-1.32-6.32-.85-4.05-1.37-8.13-1.85-12.24-.23-2-.55-3.94-.92-5.9s-.86-3.81-1.29-5.71c-.85-3.79-1.59-7.61-2.47-11.4l.09.43c-.49-2.07-1-4.14-1.55-6.19s-1.19-4-1.68-6c-.24-1-.48-2-.68-3.06-.13-.36-.25-.73-.38-1.09-1.92-5-4.24-9.93-6.35-14.9s-4.31-9.71-6.71-14.45l0,.07a.56.56,0,0,0,0-.08h0c-.84-1.58-1.72-3.14-2.69-4.64-1.74-2.57-3.55-5.11-5.26-7.71-1.53-2.34-3-4.71-4.54-7.05-2-3-4.14-5.87-6.35-8.71-2.1-2.68-4.12-5.42-6.27-8.07-2.38-2.85-4.89-5.56-7.51-8.2-2.84-2.84-5.64-5.72-8.48-8.57-2.26-2.16-4.59-4.21-7-6.17-4.19-3.25-8.42-6.49-12.69-9.65-2.24-1.66-4.53-3.27-6.86-4.79s-4.83-3.14-7.17-4.82-4.33-3.26-6.51-4.88c-2.43-1.8-4.92-3.52-7.43-5.22-4.62-3.12-9.16-6.39-13.88-9.37-2.2-1.34-4.44-2.61-6.69-3.87s-4.5-2.6-6.8-3.83-4.48-2.27-6.75-3.36c-2.11-1-4.2-2.08-6.32-3.09s-4.17-1.78-6.31-2.52c-5.72-1.73-11.61-2.79-17.36-4.4-2.85-.79-5.69-1.49-8.58-2.06-1.53-.3-3-.63-4.54-1s-2.7-.82-4-1.28a34,34,0,0,0-3.44-.89c-2.78-.41-5.59-.58-8.39-.82-3-.25-5.93-.53-8.88-.86-2.69-.3-5.37-.69-8.06-1.09s-5.57-.66-8.38-.88-5.55-.46-8.32-.82-5.76-.81-8.66-1-5.78-.37-8.67-.6c-2.59-.2-5.18-.53-7.78-.8-.53,0-1.06-.08-1.59-.1-2.79,0-5.56.38-8.34.6-3,.23-6,.36-8.92.8-2.37.42-4.74.91-7.13,1.27s-4.9.53-7.35.69-4.89.45-7.33.73c-1.85.21-3.71.33-5.55.62h0a1,1,0,0,1-.9,0,1.89,1.89,0,0,1-.53-.31c-2.21.31-4.43.61-6.64,1-3.12.57-6.24,1.19-9.33,1.95a.35.35,0,0,1-.49.14h0c-2.11.53-4.2,1.13-6.26,1.82a.17.17,0,0,1-.18.21,3.88,3.88,0,0,0-.48,0h0l-.19,0-1.2.43-.48.21a.46.46,0,0,1-.14,0,.73.73,0,0,1-.25,0h-.08l-.69.26c-4,1.53-8.06,3-12.07,4.62-2.35,1-4.7,1.9-7,3s-4.84,2.32-7.25,3.5c-4.88,2.39-9.8,4.72-14.66,7.19-9.37,4.77-18.37,10.24-27.54,15.4-1.73,1-3.47,2-5.18,3s-3.2,2.07-4.75,3.17c-3.76,2.83-7.44,5.77-10.91,9-1.81,1.68-3.62,3.37-5.44,5s-3.61,3.26-5.41,4.9a246.12,246.12,0,0,0-20.31,20.42c-1.42,1.69-2.82,3.41-4.25,5.08s-2.92,3.36-4.37,5.05c-3.37,4-6.61,8.14-10,12.14s-6.88,7.89-10.06,12c-.84,1.11-1.67,2.22-2.49,3.35s-1.57,2.34-2.32,3.52c-1.34,2.11-2.54,4.32-3.75,6.51s-2.58,4.65-3.92,6.94-2.67,4.6-4,6.93c-.62,1.1-1.19,2.23-1.76,3.35-2.3,4.7-4.34,9.51-6.37,14.33-1.93,4.54-3.74,9.12-5.36,13.79s-3.18,9.37-4.6,14.1c-.76,2.55-1.47,5.12-2.23,7.67s-1.5,5.08-2.2,7.65-1.21,4.88-1.72,7.34-1,4.87-1.44,7.31c-1,5.23-2,10.45-2.9,15.69-.45,2.6-.8,5.21-1.18,7.82-.42,2.76-.85,5.51-1.32,8.26-.87,5.15-2,10.25-2.86,15.4-.78,4.8-1.43,9.62-2,14.45,0,.68-.06,1.35-.1,2-.38,7.19-1.19,14.33-1.85,21.48q-.35,7.37-.49,14.73c.13,2.4.35,4.8.55,7.19a2.61,2.61,0,0,1-.67,1.94c0,4.16,0,8.33.24,12.48,0,.65.08,1.31.14,2,.06.44.08.9.13,1.36,0-.15,0-.29,0-.44.47,5.17,1.1,10.34,1.75,15.48.31,2.55.63,5.09,1,7.63s.9,5.26,1.46,7.87A238.31,238.31,0,0,0,682.8,501c1.11,3,2.28,5.88,3.5,8.79l1,2.13c1.76,3.66,3.59,7.28,5.43,10.9l-.38-.74Q694.67,526.38,697.18,530.58ZM1010,643.53c-3.43.74-6.84,1.56-10.27,2.32-3.18.71-6.37,1.37-9.55,2.1-1.39.32-2.78.64-4.17.94,2-.17,3.88-.48,5.81-.78,4.19-.74,8.35-1.57,12.48-2.55,3.94-.94,7.82-2.06,11.68-3.26C1014,642.71,1012,643.1,1010,643.53ZM686.89,527.93c-.41-.74-.8-1.49-1.2-2.24v0a0,0,0,0,1,0,0v0l0-.06C686,526.39,686.46,527.16,686.89,527.93Zm-48.81-49.39.07.27c-.35-1.51-.69-3-1-4.54C637.44,475.7,637.75,477.12,638.08,478.54Zm28.84-17.62c.1,1,.21,2.08.4,3.09.32,1.26.67,2.52,1,3.76-.2-1.3-.4-2.61-.58-3.92-.38-2.73-.72-5.46-1-8.2C666.81,457.41,666.8,459.17,666.92,460.92Zm-2.49-29.73c0,2.13.24,4.26.42,6.38,0,.33.07.65.11,1-.13-2.16-.17-4.34-.19-6.51,0-1.16,0-2.32,0-3.47a4,4,0,0,1-.34-.38C664.41,429.19,664.41,430.19,664.43,431.19Zm1.64-66.08h0a.09.09,0,0,0,0,.05c-.3,2.3-.59,4.61-.87,6.91-.22,4.08-.36,8.16-.47,12.24.14-1.51.27-3,.4-4.56q.48-5.83.91-11.67c.07-1,.15-2,.23-3A1.06,1.06,0,0,1,666.07,365.11Z"/><path d="M271.61,475.76a5.62,5.62,0,0,1-2.35-1.88c-2.16-2.94-4.28-6.08-6.15-8.84l-.57-.84c-.69-1-1.39-2.06-2.11-3.09l-1.24-1.8-.45-.66q-1.44-2.06-2.84-4.12c-1.71-2.56-3.25-5.18-4.55-7.41-.71-1.24-1.44-2.48-2.17-3.71-1.93-3.28-4.13-7-5.94-10.71-.68-1.39-1.31-2.8-1.93-4.21-.49-1.09-1-2.18-1.49-3.26-.65-1.4-1.35-2.78-2-4.17l-.25-.49-.27-.54-1.09-2.16a74.4,74.4,0,0,1-3.34-7.77,63.48,63.48,0,0,1-2.28-8,65.11,65.11,0,0,1-1.27-8.48c-.09-1-.14-2-.14-3a37.81,37.81,0,0,1,.37-5.25,27.23,27.23,0,0,1,2-7.2,32.6,32.6,0,0,1,1.8-3.56,22.51,22.51,0,0,1,2.43-3.12,21,21,0,0,1,2.49-2.29c.94-.76,2-1.57,3.28-2.48l1.2-.83.08-.1.38-.26H243l0,0h0c-1.29,0-2.63-.16-3.71-.28l-.2,0c-1-.11-2-.28-3-.45l-.7-.11a29.85,29.85,0,0,1-4.45-1.11,27,27,0,0,1-3.14-1.27,16.89,16.89,0,0,1-4.14-2.94,23.86,23.86,0,0,1-3.11-3.51,29.44,29.44,0,0,1-2.32-3.68,13.61,13.61,0,0,1-1.36-3.8,18.31,18.31,0,0,1-.3-2.89,27.58,27.58,0,0,1,.24-4.37c.12-1.11.3-2.29.57-3.6a56.27,56.27,0,0,1,2.17-7.93c.9-2.48,1.89-4.94,3-7.53.62-1.38,1.29-2.69,1.87-3.82.32-.59.66-1.19,1-1.76l.18-.28a4.15,4.15,0,0,1,1-1.32.88.88,0,0,1,.56-.19,2.07,2.07,0,0,1,1.54,1.05,1.91,1.91,0,0,1,.24.82,7.62,7.62,0,0,1-.43,2l-.12.4c-.27.9-.52,1.8-.77,2.7q-.74,2.67-1.44,5.34l-.09.37-.15.57-.08.29c-.69,2.72-1.22,5-1.68,7.2a67.6,67.6,0,0,0-1,7.38c-.11,1.74-.15,3.21-.11,4.6h0c0,.17,0,.33,0,.5.06.6.14,1.2.26,1.8.06.23.13.45.2.67l.26.59.6,1c.43.63.88,1.25,1.34,1.85.36.39.71.78,1.07,1.16l.55.49.62.43c.29.17.58.33.88.48.54.24,1.08.44,1.61.64l.16.06c1.46.43,3,.8,4.73,1.14,1.36.22,2.77.45,4.15.6s3.07.27,4.85.32l1.76,0,2.93.07,2.24.08h.49a4.77,4.77,0,0,1,1.26.13c1.79.54,3.53,2.43,3.26,4.38a3,3,0,0,1-1.48,1.82l-.36.27-.43.33-1.57,1.21c-.73.55-1.46,1.09-2.2,1.62l-1.88,1.39A53.79,53.79,0,0,0,241,377c-.38.47-.74.94-1.11,1.42a18.1,18.1,0,0,0-1,1.59l-.12.21a34.64,34.64,0,0,0-2,5.22,42.52,42.52,0,0,0-.94,5.94c0,1.39,0,2.75.09,4.18s.3,2.85.53,4.2.52,2.7.84,4.1c.62,2.41,1.33,4.7,2.16,7,1.31,3.3,2.91,6.49,4.46,9.57l.71,1.43c1,2.07,2,4.22,2.84,6.11.74,1.65,1.48,3.3,2.27,4.93,1.11,2.15,2.31,4.25,3.65,6.58l.33.58,1.51,2.67,1.34,2.4c.57,1,1.14,2.05,1.72,3.06,1,1.74,2,3.38,2.72,4.45,1.52,2.29,3.06,4.57,4.6,6.85l.51.74,1.29,1.91c1.86,2.75,4.07,6,6.44,9.26a4.35,4.35,0,0,1,.9,3.19,1.7,1.7,0,0,1-.89,1.18,2,2,0,0,1-1,.23A3.49,3.49,0,0,1,271.61,475.76Z"/><path d="M396.92,487a4.11,4.11,0,0,1-2.38-1.14,5,5,0,0,1-1.78-3.34,2.53,2.53,0,0,1,.33-1.27c1.08-1.82,2.28-3.58,3.45-5.29l.75-1.1c1.36-2,2.72-4.15,4.43-7,.3-.5.58-1,.87-1.49l.18-.31c.93-1.59,1.89-3.24,2.94-4.82,1.35-2,2.93-4.24,4.83-6.84,2.17-3,4.09-6.16,5.94-9.24l1.09-1.8.48-.79.09-.15c.83-1.38,1.7-2.79,2.48-4.22,1-1.78,2-3.7,3.29-6.23.95-1.84,1.94-3.67,2.93-5.51l.19-.36c.65-1.2,1.3-2.41,1.93-3.62.7-1.4,1.26-2.67,1.73-3.88.55-1.41,1.07-2.83,1.58-4.26,1.17-3.22,2.11-5.93,2.88-8.67a39.1,39.1,0,0,0,.82-4.53,65.75,65.75,0,0,0-.08-7.48c-.15-1.29-.3-2.3-.5-3.26-.1-.34-.2-.66-.31-1-.6-1.42-1.28-2.8-2-4.32-.35-.69-.73-1.36-1.13-2-.23-.33-.46-.68-.7-1s-.74-.79-1.11-1.17l-1.37-1.28a33.4,33.4,0,0,1-4.2-4.37,9.23,9.23,0,0,1-1.69-3.17,3.1,3.1,0,0,1,.07-2.15,3,3,0,0,1,1.33-1.33,24.63,24.63,0,0,1,2.42-1.14l.7-.3L430,366l.4-.17.56-.24c1.11-.47,2.21-.94,3.31-1.43a69.49,69.49,0,0,0,7.4-3.74c1.22-.71,2.42-1.54,3.45-2.26a36.16,36.16,0,0,0,4.77-4.28,15.22,15.22,0,0,0,1.5-2.13c.14-.3.26-.6.38-.93a16,16,0,0,0,.24-1.69c0-.51,0-1,0-1.52-.11-1-.26-2-.46-3-.14-.57-.3-1.13-.47-1.7-.33-.81-.68-1.6-1.05-2.38-.5-.95-1-1.89-1.72-2.95-1.27-1.83-2.72-3.75-4.43-5.87-1.55-1.83-2.95-3.4-4.3-4.79-.39-.39-.79-.77-1.2-1.16a6.21,6.21,0,0,1-1.47-1.77,1.4,1.4,0,0,1-.05-1.24.93.93,0,0,1,.73-.49l.19,0a3.29,3.29,0,0,1,1.51.55,20.44,20.44,0,0,1,1.8,1.18,40.41,40.41,0,0,1,3.26,2.69,64.45,64.45,0,0,1,5.81,5.87,43.46,43.46,0,0,1,5.05,7,23.78,23.78,0,0,1,2,4.28,27,27,0,0,1,1.06,4.53,20.12,20.12,0,0,1,.23,2.78,11.71,11.71,0,0,1-.83,4.82,15.19,15.19,0,0,1-2.92,4.09c-.57.61-1.12,1.15-1.64,1.61a46.18,46.18,0,0,1-6.82,4.95,65.76,65.76,0,0,1-7.46,3.68c-1.59.68-3.23,1.31-4.82,1.93l-.23.09-2.15.83-.25.1-.34.14-.37.15a5.66,5.66,0,0,0-.81.35h0l-.06,0h0l.12.13c.78.72,1.57,1.43,2.36,2.14l.26.22a24.61,24.61,0,0,1,4.05,4.54,45.65,45.65,0,0,1,3.88,7.47,16.6,16.6,0,0,1,.73,1.9c.22.78.4,1.58.56,2.38a26.24,26.24,0,0,1,.46,3.93l0,.61c.09,1.17.08,2.36.07,3.51v.5a33.94,33.94,0,0,1-.27,4.15,40.76,40.76,0,0,1-2,7.9c-.89,2.65-1.84,5.3-2.74,7.78q-.65,1.77-1.35,3.51c-.41,1-.89,1.93-1.36,2.86l-.31.62c-.59,1.16-1.19,2.32-1.79,3.47l-.25.48c-.56,1.07-1.12,2.14-1.67,3.24-1.26,2.52-2.4,4.78-3.66,7.07-1,1.84-2.08,3.65-3.19,5.57l-.71,1.22c-1.2,2.07-2.64,4.53-4.27,7-1,1.6-2.22,3.13-3.36,4.62l-.11.15c-.46.6-.93,1.2-1.37,1.8-1.35,1.8-2.64,3.7-4,5.82-.41.66-.82,1.32-1.21,2l-.24.39c-.77,1.25-1.53,2.5-2.32,3.73s-1.6,2.42-2.42,3.62l-.34.51c-.39.57-.78,1.14-1.16,1.72-1.18,1.77-2.2,3.58-3.4,5.75a1.75,1.75,0,0,1-1.6.76Z"/><path d="M287.58,502a5.41,5.41,0,0,1-2.19-2.38,26.14,26.14,0,0,1-1.31-3.58l-.77-2.59-.22-.74-.64-2.14a1.29,1.29,0,0,1-.07-.21l-.15-.5-.16-.52c-.16-.52-.33-1-.5-1.56s-.37-1.12-.55-1.69a1.48,1.48,0,0,1,0-.46.69.69,0,0,1,.21-.56h0a.77.77,0,0,1,.43-.19h.15a2,2,0,0,1,1.39.87l.13.16a2,2,0,0,1,.6.76,3.6,3.6,0,0,1,.13.34c.48.86.94,1.72,1.38,2.59l.13.24c.14.25.27.5.38.75l.13.26c.18.34.35.68.52,1,1.08,2.09,2.24,4.22,3.75,6.92a3.54,3.54,0,0,1,.52,2.25,1.64,1.64,0,0,1-1.16,1.35,2.2,2.2,0,0,1-.55.06A3.43,3.43,0,0,1,287.58,502Z"/><path d="M366.75,538.42a3.2,3.2,0,0,1-1.76-.63,4.56,4.56,0,0,1-1.53-1.85,3.27,3.27,0,0,1-.29-1.22,1.41,1.41,0,0,1,.12-.67c.44-.95,1-1.88,1.45-2.7l.2-.35c.52-.9,1-1.8,1.53-2.72,1-1.87,2-3.74,3-5.63.24-.44.46-.89.69-1.33l.28-.54.09-.18c.64-1.24,1.28-2.48,2-3.71,1.11-2,2.29-3.87,3.4-5.63,1-1.58,2-3.15,3.1-4.7a22.53,22.53,0,0,1,1.77-2.21,1.84,1.84,0,0,1,1.2-.67,1,1,0,0,1,.26,0,1.34,1.34,0,0,1,1,1.14.68.68,0,0,1-.09.36c-.07.14-.16.27-.3.49l-.27.45-.71,1.29c-1.69,3.43-3.18,7-4.62,10.53l-.51,1.24-.35.83c-.72,1.76-1.45,3.5-2.22,5.23s-1.72,3.7-2.82,5.92l-1.21,2.43c-.65,1.3-1.3,2.59-1.93,3.89a1.52,1.52,0,0,1-1.28.92Z"/><path d="M218.56,562.5a40.77,40.77,0,0,1-9.85-2.55c-2.88-1.19-5.92-2.62-9-4.26a27.43,27.43,0,0,1-4.37-2.94,50.07,50.07,0,0,1-3.78-3.55l-.42-.43-.33-.32c-.43-.44-.87-.88-1.31-1.3s-1.17-1.09-1.79-1.6l-.36-.26c-.31-.23-.63-.47-.92-.72a2.69,2.69,0,0,1-1.1-2,1.62,1.62,0,0,1,.2-.78,1,1,0,0,1,.9-.44h.17a6.55,6.55,0,0,1,2.47,1c.64.4,1.32.88,2.19,1.55s1.6,1.28,2.41,1.94l1.53,1.26c1,.74,1.69,1.24,2.36,1.67s1.11.63,1.68.93c3.34,1.53,6.83,2.8,9.5,3.73a46.33,46.33,0,0,0,4.75,1.23,58.49,58.49,0,0,0,6.85.66c.76,0,1.51,0,2.27-.1.59,0,1.17-.13,1.75-.21l.39-.05A82,82,0,0,0,238.22,551a79,79,0,0,0,8.61-4.13c2.49-1.37,5.4-3,8.14-4.86a27.61,27.61,0,0,0,2.26-1.89,1.63,1.63,0,0,1,1.14-.44,4.31,4.31,0,0,1,2.74,1.43c1,1.12,1.68,2.84.65,3.95a38.58,38.58,0,0,1-6.88,5.49l-.45.31a92.23,92.23,0,0,1-8.1,5.06,77.43,77.43,0,0,1-8.9,4c-1.39.52-2.83,1-4.27,1.43a36.63,36.63,0,0,1-4.93,1.17l-.39.06c-.64.1-1.28.19-1.93.25-.84.07-1.67.09-2.52.1H223A29.51,29.51,0,0,1,218.56,562.5Z"/><path d="M326.78,837.1a4.83,4.83,0,0,1-2-1.59,4.2,4.2,0,0,1-.79-1.73l0,0a2,2,0,0,1,0-.42c0-.61,0-1.22.07-1.84s.06-1.08.08-1.63l0-1.27,0-.65,0-1.45c0-1.24.1-2.48.16-3.71l0-.74c0-1,.08-2,.12-3l0-1.1c0-.8,0-1.61.08-2.41l.09-1.48c0-.65.08-1.29.11-1.94.12-2.37.19-4.66.21-6.79,0-1.11,0-2.22,0-3.33,0-.83,0-1.67,0-2.5,0-1.18,0-2.48.09-4.06,0-.12,0-.24,0-.37,0-.39.05-.79.07-1.19v.18c.23-3.3.52-7.2.88-11.17l.14-1.47c.21-2.28.43-4.63.6-6.94,0-.17,0-.33,0-.49l.12-1.55h0s0,.09,0,.12,0-.08,0-.11v.11l.06-.91c.26-4,.56-8.44.54-12.76,0-.87,0-1.74-.06-2.66V756c0-1.25-.06-2.5,0-3.75,0-2,.17-4.05.34-6.29v-.34a.86.86,0,0,0,0-.16v.21l0-.5,0-.27,0-.49c0-.66.09-1.32.14-2l.07-1v-.46h0c0-.12,0-.23,0-.34v.21c.39-5.45.81-10.91,1.24-16.35l.55-7c.38-5.51.63-10.36.78-14.81l0-1.64.1-3.66c.09-3.33.17-6.65.3-10,.09-2.43.2-4.86.31-7.29l.1-2.1c.12-2.78.33-5.66.52-8.2l.09-1.33.06-.86.07-.88c0-.11,0-.23,0-.43a4.22,4.22,0,0,1,0-.43v-.21c0-.13,0-.25,0-.41a4,4,0,0,1,0-.6c.29-4.17.49-7.34.64-10.29.06-1.21.11-2.41.16-3.62l0-.65c.06-1.47.13-3,.2-4.46l0-.63c0-.43.05-.85.08-1.27v.2l0-.56c.06-.89.12-1.78.16-2.67v-.11c0-.22,0-.44.05-.66V640c.16-2.52.28-5,.4-7.55s.23-4.9.4-7.34c.17-2.71.45-5.45.72-8.1l0-.22c.2-2,.41-4.08.55-6v0h0l0-.09c.15-2.48.22-4.93.27-7,0-1.14,0-2.28.1-3.43l0-.44a7.69,7.69,0,0,1,.11-1.27c.06-.37.14-.83.55-1l.15-.07a.6.6,0,0,1,.24.09c1,.48,1.2,1.77,1.35,2.71.21,1.26.38,2.52.55,3.79.42,3.19.69,5.8.82,8.19.22,3.58.15,7.21.09,10.73h0l0,.14c0,1.43-.05,2.85-.06,4.27v3c0,4,0,8.14-.23,12.21-.11,2.55-.21,5.1-.28,7.65l-.05,2.2c-.05,1.83-.1,3.67-.19,5.5s-.2,3.87-.33,5.81c-.06,1-.13,2-.2,3v.42a6.83,6.83,0,0,1-.06.78l0,.4c0,.24,0,.47-.06.71a2,2,0,0,1-.05.6q-.16,2.44-.36,4.89l-.3,4c-.3,4.64-.54,9.53-.74,14.95-.07,1.91-.12,3.84-.17,5.81v.29c-.08,2.92-.16,5.92-.31,8.87-.31,5.73-.74,11.33-1.08,15.56q-.44,5.65-.86,11.32l0,.17-.29,3.8-.34,4.44c-.17,2.14-.34,4.28-.47,6.42,0,.47-.07.94-.1,1.42v-.22c-.11,1.83-.22,3.79-.18,5.84,0,.68,0,1.36,0,2v.44c0,1.15,0,2.3,0,3.45,0,3.55-.29,7.14-.54,10.74l0,.62,0,.45v.1h0V775h0v0c-.22,3.25-.55,6.55-.87,9.79l-.2,1.94c-.36,3.74-.69,7.5-1,11.17-.13,2.12-.16,4.29-.2,6.45v.83c0,.82,0,1.64-.06,2.46-.05,1.87-.13,3.9-.25,6.16,0,.41-.05.82-.07,1.24s-.07,1.13-.12,1.69h0v-.05h0v-.05c-.08,1.24-.13,2.49-.17,3.73l0,.93c0,.89-.07,1.78-.11,2.74,0,.73-.08,1.46-.11,2.2,0,.92-.05,1.83-.08,2.74v.69l0,.29c0,2-.09,4-.24,6a1.54,1.54,0,0,1-.78,1.16,1.74,1.74,0,0,1-.86.21A3,3,0,0,1,326.78,837.1Z"/><path d="M224.94,744l-1.91,0h-3.28l-2.51,0h-1.11l-.4,0h-.34l.06,0c-2.46,0-4.91-.22-7.64-.45l-1.56-.12-2.06-.16c-2.44-.19-4.88-.37-7.32-.58l-.73-.06c-2.53-.21-5.38-.46-8.16-.81l-4.25-.53-1.2-.15-4.22-.53a74.93,74.93,0,0,1-7.67-1.31c-1.25-.28-2.48-.62-3.83-1l-.46-.13-.2,0-.75-.2a4.35,4.35,0,0,1-2.31-1.68.83.83,0,0,0-.08-.12c.61-.25,1.22-.49,1.83-.76l.1,0,.23-.09h0l-1-.87-.75-.63-.05,0-.17-.15a2.44,2.44,0,0,1,1.28-.26H165a10.92,10.92,0,0,1,1.75.23l.53.1c1.54.26,3,.46,4.44.6,1.77.18,3.55.3,5.34.42l.75.06c1,.07,2,.14,3,.23,5.7.48,11.5.9,17.12,1.3l.65.05.91.06,3.66.28c3.11.24,6.64.51,10,.6l2.77,0,4,0h2.38c.49,0,1,0,1.48,0h2c2.47,0,5-.1,7.45-.28l1.89-.16c1.69-.15,3.45-.29,5.16-.29h.86a4,4,0,0,1,2,.79,5.78,5.78,0,0,1,1.93,2.35,3.32,3.32,0,0,1,.22,2.39,1.81,1.81,0,0,1-1.62,1.16c-2,.07-3.94.21-6,.37h-.21c-2.35.17-4.79.35-7.2.37h-1.64C227.47,744,226.2,744,224.94,744Z"/><path d="M454.59,729l-.14,0h-.6l-.3,0h-.21l.09,0h0l0,0h-.59l-3.41,0c-1.48,0-3,0-4.43,0s-2.95-.09-4.42-.15l-.56,0-3.76-.15h-.77c-1.56,0-3.13,0-4.69.09l-1.6.07c-1.11.06-2.23.12-3.35.12h-.46c-1.79,0-3.73-.11-5.91-.29s-4.07-.28-6-.35h-.58c-1.31,0-2.61,0-3.93.09l-1.23,0c-.42,0-.83,0-1.24,0l-.44,0-1.06-.06a.93.93,0,0,1-.48.13,1.78,1.78,0,0,1-.56-.11,2.35,2.35,0,0,1-1.1-.94,2.12,2.12,0,0,1-.6-2c.28-.72,1.14-.78,1.85-.84l.36,0c1-.11,1.91-.26,2.86-.42l.94-.15a53.54,53.54,0,0,1,8.49-.5h.34c2.26,0,5.24,0,8.27-.33l1.06-.11.23,0c2.43-.24,4.94-.48,7.43-.49h.2c1.56,0,3.11,0,4.69.08l1.21,0,1.24,0h4.3l2.42,0,1.92,0h.34c.74,0,1.49,0,2.23.08a4.91,4.91,0,0,1,3.74,3,3.14,3.14,0,0,1,.21,2.28,1.75,1.75,0,0,1-1.55,1.11h-.44l0,0Z"/><path class="cls-2" d="M318.32,870.86c-.81-.13-1.8-.93-1.74-1.83a2.15,2.15,0,0,1,.82-1.25c.45-.45.91-.89,1.37-1.33.87-.82,1.78-1.61,2.69-2.4,1.82-1.61,3.7-3.15,5.58-4.69,3.82-3.13,7.74-6.12,11.67-9.1s7.59-5.81,11.36-8.74c4-3.07,8-6,12.06-8.95s7.91-5.64,11.84-8.5,7.95-5.84,11.93-8.74c1.85-1.35,3.71-2.69,5.55-4.06,2.08-1.55,4.14-3.14,6.18-4.75s3.85-3,5.77-4.59,3.63-2.94,5.49-4.35,3.77-2.9,5.7-4.29c2.09-1.5,4.18-3,6.31-4.43,4-2.71,7.91-5.42,11.76-8.29,4-3,8-6,12-9.12,1.79-1.39,3.55-2.82,5.33-4.22,1.93-1.52,3.87-3,5.79-4.56,3.8-3,7.54-6.15,11.37-9.15s7.65-5.95,11.54-8.83,7.84-6,11.6-9.2,7.38-6.19,11.18-9.16c1.67-1.31,3.35-2.6,5-4a2,2,0,0,1,1.73-.19,4.11,4.11,0,0,1,1.94,1.2c.81.85,1.52,2.42.41,3.33-1.88,1.53-3.83,3-5.76,4.46s-3.7,2.87-5.52,4.35c-3.87,3.16-7.65,6.41-11.59,9.45-1.85,1.43-3.75,2.79-5.64,4.17s-4,3-6,4.47c-3.94,3-7.8,6.09-11.64,9.21-3.65,3-7.39,5.81-11.1,8.69q-6,4.65-11.95,9.27c-3.7,2.86-7.39,5.74-11.2,8.44-4,2.85-8.1,5.58-12,8.5s-7.9,6-11.78,9.08-7.61,6.08-11.52,9l-11.7,8.7c-4,3-8,5.92-12,8.8s-7.94,5.6-11.85,8.48-7.81,5.86-11.78,8.71c-8,5.75-16.11,11.34-24.07,17.14-.8.59-1.6,1.18-2.39,1.78l-1.19.89a2.45,2.45,0,0,1-1.3.59Z"/><path class="cls-2" d="M532.94,707a5.2,5.2,0,0,1,1.23-1.46c.56-.54,1.17-1,1.77-1.52,1.2-1,2.4-2,3.65-2.87.81-.59,2,.1,2.59.71s1.11,1.92.08,2.45c-1.34.67-2.71,1.3-4,2l-.93.51c-.51.29-1,.61-1.48.94-.21.14-.4.3-.59.45a3.32,3.32,0,0,1-.46.38.78.78,0,0,1-.42.11C533.54,708.71,532.6,707.79,532.94,707Z"/><path class="cls-2" d="M245.46,210a3.38,3.38,0,0,1-1.77-.85c-.81-.69-1.66-2.05-.89-3.06,1.4-1.86,2.85-3.68,4.19-5.59.4-.62.77-1.25,1.13-1.9a11.67,11.67,0,0,0,.71-1.66,20.45,20.45,0,0,0,.5-2.16,27.6,27.6,0,0,0,.15-3.28,25.4,25.4,0,0,0-.29-2.61c-.24-.94-.52-1.84-.85-2.75-.65-1.63-1.39-3.23-2.17-4.81-1.29-2.49-2.65-4.94-3.93-7.42a31.46,31.46,0,0,1-3.07-8.48,36.54,36.54,0,0,1-.59-8.74,34.73,34.73,0,0,1,1.4-8.41,24.12,24.12,0,0,1,4.31-7.77,36.26,36.26,0,0,1,6.12-6,55.57,55.57,0,0,1,6.92-4.87c2.55-1.46,5.2-2.75,7.79-4.14l-.16.09.24-.13,0,0h0c1-.56,2-1.14,3-1.76a24.48,24.48,0,0,0,2.85-2.12,23.07,23.07,0,0,0,1.83-1.87,27.71,27.71,0,0,0,1.75-2.29,32.61,32.61,0,0,0,2.59-4.93,21.42,21.42,0,0,0,.63-2.51,35.75,35.75,0,0,0,.1-4.39,72.42,72.42,0,0,0-1.17-8.91c-.58-2.59-1.22-5.17-2-7.72a79.64,79.64,0,0,1-2.26-8.68,25.59,25.59,0,0,1,.32-8.55,39.08,39.08,0,0,1,2.21-8.09,27.75,27.75,0,0,1,7.24-10.26A7.17,7.17,0,0,1,284,52.29a4.37,4.37,0,0,1,1.41-.44,5.06,5.06,0,0,1,.87,0H286a2.23,2.23,0,0,1,2.12,1.56A.9.9,0,0,1,287,54.62H287l-.1,0A5.49,5.49,0,0,0,286,55a9.26,9.26,0,0,0-1.39,1,30.84,30.84,0,0,0-3.5,4.23c-.43.71-.85,1.4-1.22,2.14s-.72,1.58-1.06,2.38a40.22,40.22,0,0,0-1.74,7.1l0-.25c-.07.53-.15,1.07-.22,1.6a47.62,47.62,0,0,0-.26,5.34c.08.88.18,1.73.32,2.59a81.43,81.43,0,0,0,2.56,8.22c.92,2.66,1.75,5.35,2.47,8.08a44.66,44.66,0,0,1,.93,4.46c.23,1.34.44,2.7.56,4.06a36.39,36.39,0,0,1,.22,4.55,16.45,16.45,0,0,1-.58,4.3,27.48,27.48,0,0,1-2.93,6.2,22.6,22.6,0,0,1-4.45,5.34c-3.49,3-7.6,5.1-11.62,7.3l.34-.18a64.23,64.23,0,0,0-11.17,8,37.59,37.59,0,0,0-2.63,2.73,32.86,32.86,0,0,0-2.26,3,33.71,33.71,0,0,0-1.82,3.6c-.25.71-.47,1.4-.68,2.12a19.91,19.91,0,0,0-.48,2.42,47.47,47.47,0,0,0-.36,6.95,44.79,44.79,0,0,0,.64,5c.23,1,.49,1.88.8,2.81,1,2.56,2.25,5,3.48,7.46a76.2,76.2,0,0,1,3.48,7.91,21.36,21.36,0,0,1,1.46,8.32,16.65,16.65,0,0,1-2.3,8.09c-1.72,2.7-3.83,5.11-5.78,7.65a1.34,1.34,0,0,1-1.11.45Z"/><path class="cls-2" d="M252.63,251.84a4.49,4.49,0,0,1-1.76-1.67,2.51,2.51,0,0,1-.4-1.88,31.18,31.18,0,0,1,3.89-7.84v0l.16-.24-.07.12.32-.49-.18.27.54-.81-.18.28A64.06,64.06,0,0,1,263.2,230c2.92-3,6-5.82,8.43-9.24a14.4,14.4,0,0,0,1.18-2.23,24.7,24.7,0,0,0,.84-3.62,40.84,40.84,0,0,0,.27-4.69c-.06-.88-.14-1.75-.25-2.64s-.29-1.77-.47-2.65a94.38,94.38,0,0,0-3.09-10.29c-.85-2.31-1.78-4.59-2.66-6.89-.51-1.3-1-2.62-1.42-3.94-.18-.57-.33-1.14-.49-1.71a18,18,0,0,1-.46-2,28.57,28.57,0,0,1-.36-3.8c0-1.27.07-2.53.17-3.8a31,31,0,0,1,1.42-7.27c.41-1.23.86-2.44,1.37-3.63a15.31,15.31,0,0,1,.84-1.54,16.67,16.67,0,0,1,1.08-1.69c.35-.48.7-1,1.07-1.42a4.81,4.81,0,0,1,2.1-1.9,2.47,2.47,0,0,1,2.43.68,1.79,1.79,0,0,1,.55,1,1.71,1.71,0,0,1,0,.39c.06.57-.44.83-.94.71-.21.25-.4.51-.59.78a31.86,31.86,0,0,0-2.72,5.45,38,38,0,0,0-1.41,6,55.46,55.46,0,0,0-.28,7.17c.05.7.11,1.39.21,2.09s.21,1.25.34,1.86c.27,1,.56,1.94.88,2.9.89,2.3,1.88,4.56,2.87,6.82s2,4.83,2.87,7.28a62.07,62.07,0,0,1,2.19,7.67,35,35,0,0,1,.66,3.95A33.18,33.18,0,0,1,280,214a28.08,28.08,0,0,1-.34,3.54,21.77,21.77,0,0,1-.86,3.84,18.83,18.83,0,0,1-5.23,7.41c-1.89,1.81-3.83,3.58-5.74,5.37a67.69,67.69,0,0,0-5.24,5.34c-1,1.18-1.93,2.41-2.83,3.66-.64,1-1.28,2-1.83,3a37,37,0,0,0-1.73,3.73c-.14.41-.28.83-.41,1.26a1.53,1.53,0,0,1-1.59,1.1A3.46,3.46,0,0,1,252.63,251.84Z"/><path class="cls-2" d="M221,163.44a22.36,22.36,0,0,1-1.85-7.12,17,17,0,0,1,.52-5c.18-.75.35-1.5.57-2.24.38-1.28.77-2.54,1.26-3.77a25.72,25.72,0,0,1,2.27-4.47c.24-.36.46-.72.69-1.08s.51-.7.76-1a9.13,9.13,0,0,1,1.2-1.36,2.74,2.74,0,0,1,.91-.55,1.42,1.42,0,0,1,.91,0,1.5,1.5,0,0,1,1.13,1.31,2.17,2.17,0,0,1-.34.85c-.14.3-.24.61-.37.91a2.7,2.7,0,0,1-.64,1.08.51.51,0,0,1-.62-.12,30.7,30.7,0,0,0-2.29,4.81,27.09,27.09,0,0,0-1.15,4.05c-.12.66-.25,1.34-.38,2a33.21,33.21,0,0,0-.37,5.08,18.4,18.4,0,0,0,.33,2.33,32.43,32.43,0,0,0,1,3.36l.37.85a1.7,1.7,0,0,1,.05,1.43,1.22,1.22,0,0,1-1.12.63h-.06A3.33,3.33,0,0,1,221,163.44Z"/><path class="cls-2" d="M219.69,242.41a4.07,4.07,0,0,1-2.07-1,3.91,3.91,0,0,1-1.29-1.91c-.33-1.4-.61-2.81-.86-4.24a19.92,19.92,0,0,1,.11-7.14,35,35,0,0,1,1.91-6.68l.73-1.75c.27-.62.6-1.22.9-1.83.45-.92,1-1.82,1.47-2.72a55,55,0,0,0,3.39-6.62,9.74,9.74,0,0,0,.43-1.49,1.47,1.47,0,0,1,.26-.6c.39-.56,1.34-.2,1.76.09a2.14,2.14,0,0,1,1,1.56,6.47,6.47,0,0,1-.25,2.31c-.19.76-.49,1.48-.75,2.22-.42,1.16-.95,2.3-1.44,3.42s-.87,1.95-1.28,2.94-.89,2.2-1.31,3.32-.66,2.13-.92,3.21-.45,2.19-.64,3.3a38.23,38.23,0,0,0-.31,5,38.12,38.12,0,0,0,.6,4.25c.15.71.31,1.41.47,2.12a1.84,1.84,0,0,1-.25,1.7,1.69,1.69,0,0,1-1.32.52A1.77,1.77,0,0,1,219.69,242.41Z"/><path class="cls-2" d="M500.57,209a5.64,5.64,0,0,1-2.41-1.86,3.75,3.75,0,0,1-.88-2.41,28.82,28.82,0,0,0,.08-3.35,59.32,59.32,0,0,0-.87-6.5,64.26,64.26,0,0,0-1.81-6.52c-.48-1.24-1-2.44-1.57-3.63-1.1-2.08-2.31-4.11-3.5-6.14-1.29-2.21-2.62-4.4-3.95-6.58a49.27,49.27,0,0,1-3.79-7,36.35,36.35,0,0,1-2.29-7.62,31.54,31.54,0,0,1-.44-3.2c-.07-1.26-.13-2.51-.15-3.78,0-2.28.13-4.57.26-6.86s.35-4.34.57-6.51.61-4.41.91-6.62c.13-1.06.26-2.13.29-3.2s0-2.1,0-3.15a2.64,2.64,0,0,1,0-.29c-.05-.43.32-.61.7-.51a1.18,1.18,0,0,1,.9,1c0,.16,0,.32,0,.48v.07a49.06,49.06,0,0,1,.12,5.14c-.09,2-.21,3.92-.32,5.88-.21,3.69-.16,7.39,0,11.09.08,1.63.16,3.27.34,4.89s.48,3.42.84,5.12c.32,1.24.67,2.45,1,3.66.27.72.54,1.44.85,2.15s.67,1.47,1,2.2c.93,1.68,1.94,3.28,3,4.88,1.55,2.26,3.1,4.53,4.62,6.83,1.33,2,2.71,4.05,3.89,6.17a43.9,43.9,0,0,1,3.39,7.53,53.79,53.79,0,0,1,2,7.6,34.58,34.58,0,0,1,.74,9.46,1.88,1.88,0,0,1-1.12,1.67,2.52,2.52,0,0,1-.94.17A3.87,3.87,0,0,1,500.57,209Z"/><path class="cls-2" d="M471.77,236a5.2,5.2,0,0,1-4-3.4,2.1,2.1,0,0,1,.3-2,57,57,0,0,0,3.86-5c.84-1.28,1.68-2.56,2.41-3.91a46.48,46.48,0,0,0,2.14-4.51c.24-.7.46-1.39.67-2.11a18.38,18.38,0,0,0,.44-2.21,28.59,28.59,0,0,0,.13-3.46l0,.23c-.08-1.47-.21-2.92-.42-4.37l-.14-.91a2.86,2.86,0,0,1-.06-1c.19-.86,1.08-.68,1.54-.13a5.58,5.58,0,0,1,.7,1.35c.23.56.4,1.14.58,1.72.33,1.06.61,2.13.89,3.19a23.15,23.15,0,0,1,.6,7.28,27.23,27.23,0,0,1-1.56,7,49.84,49.84,0,0,1-2.81,6.29,31,31,0,0,1-3.4,5.42,1.93,1.93,0,0,1-1.54.62Z"/><path class="cls-2" d="M687.91,238.27c-1.69-.9-3.4-3-2.63-5a56.78,56.78,0,0,1,6-10.89,54.73,54.73,0,0,1,3.56-4.63,14.6,14.6,0,0,1,2-2,2.16,2.16,0,0,1,1.63-.64,3,3,0,0,1,2.07,1.43,2.08,2.08,0,0,1,.33,1.1,2.63,2.63,0,0,1-.48,1.16c-.31.52-.64,1-1,1.55-.7,1.17-1.36,2.36-2,3.55A61.07,61.07,0,0,0,694,231.2c-.73,2.05-1.39,4.12-2,6.2a2,2,0,0,1-2.06,1.42A4.42,4.42,0,0,1,687.91,238.27Z"/><path class="cls-2" d="M675.07,266.35a3.61,3.61,0,0,1-1.41-1.33,2,2,0,0,1-.31-1.5,30.57,30.57,0,0,1,1.23-3.09c.53-1.15,1.06-2.62,2.23-3.24a1.73,1.73,0,0,1,1.51.2,2.87,2.87,0,0,1,1.27,1.33,1.29,1.29,0,0,1-.07,1.35.91.91,0,0,1-.24.2l0,0a7,7,0,0,0-.53,1.06,29.43,29.43,0,0,0-1.13,4.46,1.08,1.08,0,0,1-1.21.87A3,3,0,0,1,675.07,266.35Z"/><path d="M1420.22,293.11a2.74,2.74,0,0,1-2.37-.05,235.72,235.72,0,0,1-26.59-6.6,133.3,133.3,0,0,1-21.76-7.27c-5.41,11.25-12.58,21.58-18,32.85-1.89,3.81-3.31,7.83-5.06,11.71-.63,1.88-3,4.07-4.75,2.14a6.32,6.32,0,0,1-1.06-3.62c-.23-4.59-.09-9.19-.13-13.78.37-13.18,1.09-26.4,3.49-39.39-12.88,1.66-25.41,4.57-38.36,5.63-2.67,0-12,2.91-10.58-2.25,2.18-2.74,5.52-4.43,8.18-6.69,10.16-8.36,21.65-14.84,32.26-22.57-.22-8.08-.74-16.14-1.42-24.19-1-.94-1-2.53-1.12-3.82-.3-3.38-.2-6.68-.26-10.08a47.27,47.27,0,0,1,0-6.41,2.6,2.6,0,0,1,4.32-1.28,103.16,103.16,0,0,1,6.93,9.73,51.86,51.86,0,0,0,9.84,12.25c5.45,5.63,9,12.35,15.55,16.69a270.79,270.79,0,0,1,31.18-15,46.64,46.64,0,0,1,6.37-2.32,3.65,3.65,0,0,1,2.93.21c1.65,1.08,1.16,3.15.15,4.5-1.46,2.55-3,5-4.5,7.56-4.82,9.14-10.6,17.68-16.13,26.38,5.44,3.49,9.78,8.39,14.46,12.8a112.48,112.48,0,0,1,14.05,15.5C1419.22,287.82,1423.66,290.92,1420.22,293.11Z"/></g></g></svg>