<svg xmlns="http://www.w3.org/2000/svg" viewBox="0 0 1433.82 1280.89"><defs><style>.cls-1{fill:#fff;}.cls-2{fill:#f7941d;}.cls-3{fill:#231f20;}</style></defs><title>Imagen 2</title><g id="Capa_2" data-name="Capa 2"><g id="Capa_1-2" data-name="Capa 1"><path class="cls-1" d="M1127.64,257.11c22.35-18.32,46.94-35.05,75.12-42.74,54.64-16.42,30.5,39.09,49.08,39.91,42.27-1.41,135.24-48.24,171.29-35,9.37,3.67,4.73,19.62-5.07,18-14.49-4.35-29.5,1-43.84,3.73-31.08,4.6-112.4,39.3-135,26.7-13.71-8.49-6-28.08-14.7-39.55-26.85-7.86-69,19.68-90,35.88C1131.83,276.84,1114.83,266.71,1127.64,257.11Z"/><path class="cls-1" d="M1261,59.15c50.53-21.94,101.41-44.52,154.84-58.39,19.12-5.51,23.45,21,5.91,19.12-3.16-1.37-6.81.35-10.06.81l-2.44.57h-.09c-28.83,7.62-56.61,18.72-84.54,29.06q-37.39,14.82-74.21,31c-14.08,5.22-31.39,16.75-45.93,7.38-12.53-9.78-2.86-32.82-17.44-40.54-41.73.6-85.6,39.05-117.51,63.85,0,3.74-4.71,5.79-7.78,4.21-10.7-7.39,31-33.53,36.63-39.4,19.53-14.53,84.29-62.4,104.58-35.39C1222.37,79.6,1194.66,87.91,1261,59.15Z"/><path class="cls-1" d="M1422.8,481.53c-51.59-5.47-103.73-6.58-154.94-15.73-70.76-7.79-6.66-59.45-60.08-54.05-23.7,1.78-47,7.74-69,16.63-1.08,2.69-4.34,2.35-6.71,2.88-3.95,1.49-6-3.94-3.47-6.52s6.08-3.85,9.23-5.5c20.15-9.34,84.76-33.36,101.7-14.91,8.53,10,5.26,23.77,6.38,35.63,11.39,11.89,57.22,11.27,75.23,14.77,21.94,1.76,43.9,3.39,65.88,4.61,13.68,1.17,28-1.44,41.25,2.66C1438.49,465.94,1433.37,483.14,1422.8,481.53Z"/><path class="cls-2" d="M698,717.29c-.92,1.18-1.84,2.36-2.74,3.54-2.34,3-4.67,6-7,9-16.62,21.73-32.72,43.84-48.79,66a58,58,0,0,1-4,6.31,82.49,82.49,0,0,1-9.73,11.05c-7.74,7.49-16.53,14-24.22,21.58,4.06,23.31,10.49,49.37-2.53,71-11.73,23.36-33.61,31.06-57.7,35.48,4.87,60.52,7.61,121.32,19.56,181a11,11,0,0,1,.37,3.78c-1,12.06-26.91,8.28-36,10.93-22.45,1.78-45,3.5-67.5,2.46-35.29,2.23-70.66,5.33-105.75,9.93-21.27,1.27-42.81.83-63.82,4.6-3-.74-5.76-2.94-8.19-6.13-11-14.43-16.4-49.18-20.38-62-9.83-33.59-20-67-27.45-101.28C227.74,969,224.76,953,220.7,937.34q-1.14-4.47-2.44-8.91a90.81,90.81,0,0,0-7.66-5.09c-25-15-55.54-18.77-81.84-31-8.95-4.71-20.31-8.21-28-15.06a27.49,27.49,0,0,1-4.07-4.49c0-.9,0-1.81.11-2.71.93-16.83,7.47-33.51,9.45-50.38,2.18-26.46,16-49.87,35.7-67.14,13-12.76,27.91-23.42,41.21-35.83,6.07-3.94,8.73-16.91,17.44-13.89a3.6,3.6,0,0,1,4.06,1.07,14.47,14.47,0,0,1,2.57,4.79q2.15,3.84,4.58,7.56A185.17,185.17,0,0,0,235.39,745c13,11.3,28.25,19.84,43.69,27.35C371.29,819,472.79,782.23,540.51,711c12.75-16.26,26.67-31.7,38.75-48.43l0,0c2.16-2.89,2.72-7.24,5-10a6.6,6.6,0,0,1,2.94-2.11,4.34,4.34,0,0,1,5.23,1.9c5.55,5.06,13,7.58,19.66,10.9l.16.07.35.16c22.64,10.24,45.4,20.38,66.76,33.12C686.05,701.5,706.7,706.22,698,717.29Z"/><path class="cls-2" d="M316.24,408.67c-3.6-12.14,27.26-19.48,35.82-25.36,5.92-3.28,13.84.68,10.45,7.91C354,402.55,328.06,427.07,316.24,408.67Zm13.4-4.8a20.09,20.09,0,0,0,4.68-1.36,5.34,5.34,0,0,1-.7-.94A34.25,34.25,0,0,0,329.64,403.87Z"/><path class="cls-2" d="M300.43,428.62c-26.23-7.22,5.62-33.53,17.88-38.82,9.77-6.11,50.43-16.71,46.09,4.81C356.25,406.75,315.33,430.2,300.43,428.62Zm34.81-26.74c1.48-.91,3-1.84,4.42-2.8-1.78.54-3.56,1.11-5.29,1.81A6.85,6.85,0,0,1,335.24,401.88Z"/><path class="cls-2" d="M439.07,371c-23.53-15.06,20.37-37.43,34.94-34.15,10.78.4,18.32,14,9.26,21.76C470.75,366.55,454.17,375.57,439.07,371Z"/><path class="cls-2" d="M970.87,143.12c-5.15,2.53-10.6,4.69-13.35,6.54-.16.11-.32.21-.46.32-33.67,17.43-65.45,38.13-98,57.57-27.19,15.89-55.07,30.57-81.93,47-25.49,15.36-50.6,31.32-77,45.05l-.26.14c-8.1,3.51-15.66,10.35-24.68,10.69a3.18,3.18,0,0,1-2.21-1.66,50.18,50.18,0,0,0,19.71-13.6c.92-1,1.8-2,2.64-3.09,39.18-22.77,76.38-48.77,115.9-71l.73-.41-.59.34c40.76-22.13,79.5-47.62,119.7-70.67,10.13-5.83,20.43-11.38,30.68-17,4.46-1.77,8.71-5.88,13.41-7a9.54,9.54,0,0,1,3.66-.19,12.78,12.78,0,0,1,3.14,3.19C985.44,134.85,978.49,139.38,970.87,143.12Z"/><path class="cls-2" d="M1084.46,426c-.56,4.55-4.44,8.78-9.27,8.05-.16,0-.31-.07-.47-.09a227,227,0,0,0-26.39-3.73c-27.21-2.38-54.76-1.18-82-4.2l1,.09c-27.14-2.76-54.39-4.23-81.66-4.78-36.61-.54-72.93-5.64-109.49-7.1-20-1.19-40.15-.35-60.17-1.15a237.64,237.64,0,0,1-26.9-2.41h0c-5.06-1-4.41-8.86.2-10.14,12.36-.4,24.86,0,37.33-.13,3.91,0,7.82-.1,11.71-.26,59.83-.93,119.26,7.37,179.08,7.32,32.67,1.1,65.18,5.17,97.89,5.26,3.18.3,7.9.38,13.42.43,5.85.06,12.61.1,19.35.33,9.73.33,19.44,1.08,26.41,2.93,4.31,1.14,7.57,2.7,9.15,4.84A8.31,8.31,0,0,1,1084.46,426Z"/><path class="cls-2" d="M1073,226.86c-4.59-2.74-9.13,1.34-13.74,2l-4,1c-4.79,1.22-9.58,2.42-14.36,3.66l-1.48.38c-10.79,3.18-21.87,5.45-32.89,7.92s-22,5.12-32.48,9.08a4.1,4.1,0,0,0-1.09,1,4.56,4.56,0,0,0,0,5.73,7.71,7.71,0,0,0,1.64.94c4.94,2.15,11.43-.82,16.63-1.13,18.48-2.79,36.78-6.67,55-10.88,6.08,13.37,6.75,34.32,15.82,46.78a23.94,23.94,0,0,0,8.8,7.61,24.28,24.28,0,0,0,3.86.32C1104.16,301.33,1086.15,239.21,1073,226.86Zm2.75,60.22c-10.17-7.95-10.79-31.21-16.07-43.49,1.88-.4,3.76-.8,5.66-1.09C1072,256.22,1077.44,271.72,1075.72,287.08Z"/><path class="cls-2" d="M1074.69,301.31a8.78,8.78,0,0,1-5.75,6.45l-4,1.32q-5.84,1.95-11.63,4c-18.82,6.59-37.38,13.85-55.86,21.38l-.36.15c-.16,2.39-2.5,2.72-4.36,2-2.4-.25-4.75,2.26-7.15.93-5-5.71,2.43-9.81,8.5-12.72,1.91-.92,3.68-1.72,4.88-2.42,17-8.19,33.83-16.79,51.48-23.5,4-.92,7.77-3.65,11.61-5.51,2.68-1.3,5.4-2.17,8.31-1.72C1074.43,293.21,1075.65,297.5,1074.69,301.31Z"/><path class="cls-2" d="M1084.46,426a17.62,17.62,0,0,1-9.74,8c-4.85,1.59-11.14,1.47-19.2-1a32.62,32.62,0,0,1-7.19-2.71c-7.67-3.89-13.75-10.42-19.54-17.08-2.94-3.38-5.8-6.8-8.76-9.93a69.44,69.44,0,0,1-18.21-23.68c-5.57-9-12.14-17.39-16.35-27.21C966.2,302,949.53,248.77,949.14,194.4c.26-14.87,2.26-30.86,8.38-44.74a62,62,0,0,1,11.87-18.12,27.19,27.19,0,0,1,5.78-5.15c6.23-4.28,14.6-7,17.27,0a12.73,12.73,0,0,1,.65,2.56s0,0,0-.06c1,3.92-4.39,7.87-7,4a42,42,0,0,0-11,11.06c-17.12,25-11.49,69.5-2.16,108q.81,3.38,1.67,6.67c4.73,18.45,10.09,35.11,13.85,47,1.68,6.45,3.53,12.86,5.61,19.17q1.58,4.85,3.37,9.62a178.6,178.6,0,0,0,17,34.43c3.93,8.83,8.41,17.13,15.55,23.79,5.42,7,11.19,15.07,18.16,20.82,6.75,5.57,14.64,9,24.46,7a23.42,23.42,0,0,0,2-4.12c3.9-10.71.15-23.38-3.28-33.82-4.45-13.14-5.69-27-9-40.44-1.24-7.4-4.87-14.09-6.8-21.2a8,8,0,0,1,0-3c.81-4.42,5-8.36,9.67-6.78a15.37,15.37,0,0,1,2.69,3c8.27,11.93,10.87,41.84,14.21,54.54C1088.09,384.67,1092.93,411.91,1084.46,426Z"/><path class="cls-2" d="M1044.55,243.29q-1.93-4.84-3.68-9.76c-8.37-23.45-14.18-47.93-25.09-70.44-6.11-17.75-19-38.35-38.76-21.67a4.94,4.94,0,0,1-1.93,2.49,3.37,3.37,0,0,1-4.22-.79,4.35,4.35,0,0,1,.26-6.26A46.1,46.1,0,0,1,982,129.39a29.75,29.75,0,0,1,10.47-3,20.69,20.69,0,0,1,11.14,2c20.69,11.27,34.19,55.33,42.88,77.12,2.6,8.21,5.88,16.22,8.77,24.33.73,2,1.44,4.09,2.1,6.15C1059.08,243,1049.29,250.22,1044.55,243.29Z"/><path class="cls-2" d="M1063.68,329.16c-4.85-1.3-5.7-7.51-8.22-11.22h0a12.34,12.34,0,0,1-2.16-4.88c-.78-3.87.4-7.87,5.25-8.25,2.82.34,4.79,2.05,6.38,4.28a37.68,37.68,0,0,1,2.9,5.1,43.65,43.65,0,0,0,2.63,4.8C1072.79,323.41,1068.85,330,1063.68,329.16Z"/><path class="cls-2" d="M1421.76,19.88c-3.16-1.37-6.81.35-10.06.81l-2.44.57h-.09c-28.83,7.62-56.61,18.72-84.54,29.06q-37.39,14.82-74.21,31c-14.08,5.22-31.39,16.75-45.93,7.38-12.53-9.78-2.86-32.82-17.44-40.54-41.73.6-85.6,39.05-117.51,63.85,0,3.74-4.71,5.79-7.78,4.21-10.7-7.39,31-33.53,36.63-39.4,19.53-14.53,84.29-62.4,104.58-35.39,19.4,38.14-8.31,46.45,58,17.69,50.53-21.94,101.41-44.52,154.84-58.39C1435-4.75,1439.3,21.75,1421.76,19.88Z"/><path class="cls-2" d="M1418.06,237.31c-14.49-4.35-29.5,1-43.84,3.73-31.08,4.6-112.4,39.3-135,26.7-13.71-8.49-6-28.08-14.7-39.55-26.85-7.86-69,19.68-90,35.88-2.68,12.77-19.68,2.64-6.87-7,22.35-18.32,46.94-35.05,75.12-42.74,54.64-16.42,30.5,39.09,49.08,39.91,42.27-1.41,135.24-48.24,171.29-35C1432.5,223,1427.86,238.91,1418.06,237.31Z"/><path class="cls-2" d="M1422.8,481.53c-51.59-5.47-103.73-6.58-154.94-15.73-70.76-7.79-6.66-59.45-60.08-54.05-23.7,1.78-47,7.74-69,16.63-1.08,2.69-4.34,2.35-6.71,2.88-3.95,1.49-6-3.94-3.47-6.52s6.08-3.85,9.23-5.5c20.15-9.34,84.76-33.36,101.7-14.91,8.53,10,5.26,23.77,6.38,35.63,11.39,11.89,57.22,11.27,75.23,14.77,21.94,1.76,43.9,3.39,65.88,4.61,13.68,1.17,28-1.44,41.25,2.66C1438.49,465.94,1433.37,483.14,1422.8,481.53Z"/><path d="M402.16,388.86c-7.35-.82-28.3-2.26-17.45-13.55,3.69-2.42,7.66,1.26,11.45,1.82,8.59,1.95,19.22,3.27,26.91-1.85-14.69-12.47-28.13-26.66-37.79-43.51-3.16-7.39-8.06-16-6.76-24.18.84-2.15,4.3-2.31,4.86.1v0c6.78,23.82,27.72,39.08,44.63,55.68C443.91,381.19,417.19,391,402.16,388.86Z"/><path d="M291.06,381.35c-5.35-2.36-15,.92-16.85-6.25-3-3.32-1-9-.25-13,3.73-19.1,21.75-30.58,39.23-35.8,14.73-2.84,32.49,3.9,42.29,15C362.58,362.8,308.45,386.24,291.06,381.35Zm13.71-9.66c16.46-2.85,34.38-10.36,43.79-24.75-2.8-2.71-6.7-3.91-10.16-5.57l.13.06-.61-.28.41.19c-22.05-13.1-53,2-59.62,26a5.54,5.54,0,0,1,4.1.48l-.22-.1C289.81,369.72,297.13,372.46,304.77,371.69Z"/><path d="M322.13,363.71c-12.43-3.62-16.23-21.37-4.61-28.35,2.35-3.53,6.11-6.46,10.56-6.22C351.16,332.58,345,369.69,322.13,363.71Z"/><path d="M263.32,370.37c-3.87-1-12.75.91-12.06-5.18.39-1.81,2.3-3.61,4.25-2.84,5.71,2.1,11.82,4.54,18,3.19C284.16,361.18,276.49,371.94,263.32,370.37Z"/><path d="M269.9,359.35c-4.92.1-18.94-1.15-12.15-8.53a3,3,0,0,1,2.71-.39c5.61,2.56,11.85,4.44,18.05,3.71h0a1.34,1.34,0,0,1,.41.15h0l0,0h0C282.37,359,272.85,359.53,269.9,359.35Z"/><path d="M281.55,347.79c-5.71-1.71-27.6-2.23-18.53-12.12,5.71-1.76,14.12,5.07,20.3,6.1C288.69,341.59,286.17,349.17,281.55,347.79Z"/><path d="M584.28,652.55a8.35,8.35,0,0,0-4-3.68c-29.38-20.27-62.77-33.32-93-51.89-32-16.39-45.71-51.46-57.1-83.48,13.4,3.77,26.73-.28,40-2.17C484,509.06,505.6,507,506.23,489c-.78-14-3.85-48.29-17.47-54.62-26.8,9.67-58.39,13.79-84.41-.84,14.43-.2,110-39.42,103.38-54.75,2.23-4-.13-8.58-.88-12.68,0,0,0,0,0,0v0h0c-7-25.11-14.72-50.14-23.67-74.63a66.58,66.58,0,0,0,7.33-6.62c10-7.42,5.88-17-.49-11a71.75,71.75,0,0,1-9.07,11.82c-.87-2.22-1.74-4.45-2.62-6.66,3-4,11.75-10.68,6-15.54-5-2.19-6.57,4.93-9.15,7.77q-1.19-2.83-2.41-5.65c8.45-6.49,2.84-15.41-2.81-6.25-5.35-9.19-20-48.26-30.84-46.3-21.3-11.5-42.83-24.73-68-23.51-44.8-.39-92.9,2.15-130.73,29l-.22.16-.1.07a151.14,151.14,0,0,0-61.28,96.12c-16.27-33-48.94-63-87.28-63.68-30.29,2.28-55.4,28.8-56.62,59.07-2.26,37.56,27.81,74.34,64.79,80.48,26.51,2.62,53.94-13.45,72.37-31.46-1,29.5,3.55,61,19.82,86.12-5.72,20.65,13.82,38.78,33,41.52,11.31,19.37,30,33.2,50.35,41.95,20.84,69.8,14.29,96.3-39.38,146.75-7.56,7.46-14.39,15.75-23.09,22-2.44,1.83-5.64,3.93-8,6.41-2.93,3.07-4.57,6.72-1.88,11.13,1.76,3.12,5.05,3.07,9,1.22,10.78-5,26.67-23.1,31.29-27.23,11.1-10,21.77-20.44,30.7-32.49C318.26,606,301.67,550.75,280.63,494c-4.29-9.27-5.53-21.38-13.49-28.27-8.06-2.72-15.92,5-24.06,5.83-19.78,7.79-51.84-9.61-36.87-32.4l0,0c5.24-10.19,16-13.71,26.59-15.37,3.29-.92,7.26-5.69,4.48-8.83-4.93-20.25-15.5-39.21-22.56-58.91h0l-.3-.76a76.37,76.37,0,0,1-3.72-11.72c37.19-34.56,74.67-70.34,103.2-112.58,34.48,9.88,70.08,3.17,105.17-1.37,6.86-.89,13.7-1.69,20.51-2.27,1.94,3.65,3.78,7.36,5.56,11.09,5.3,11.07,10.11,22.41,15.41,33.48a41.89,41.89,0,0,1-5.87,5.66c-27.42-9.09-53.51,19.74-48.82,46.42,2.91,7.42,16.12,4.89,22.78,6,19.57,1.12,35.37-12.85,44.3-29.12,4.77,11.59,9.5,23.26,13.77,35.1q1,2.67,1.91,5.35A311.23,311.23,0,0,1,499.16,378c-23.3,16.12-50.06,27.35-76,38.76-7.91,4.68-28.27,4.88-32.35,11.37-1.09,10.52,17,17,25.26,20.05,23.12,7.43,48.18,6,71-2,6.2,10.11,7.47,22.12,9.91,33.49,5.5,16.44-5.16,20.13-19.4,20.63-14.4.28-28.85,3.84-43.16.9-4.87-.87-10-3.42-15-2-4.47,1.91-4.6,8.82-.47,11.17C445.35,614,486.38,606.94,566.64,655.81c4.22,2.12,8,5.61,12.62,6.77.28.07.57.14.86.19C585.78,662.14,586.55,656.58,584.28,652.55ZM413.35,320.65c1.37-15.2,8.81-30.25,24.73-34.13l.13,0c-8.34,11.82-2.29,30.8,14.25,27.48C441.76,323.36,426.57,322.87,413.35,320.65Zm45.83-41.41c.73-.53,1.46-1.09,2.13-1.68l1.28-1.16c.77,1.75,1.54,3.51,2.29,5.27C463,280.72,461,280.23,459.18,279.24Zm108,376.92-.58-.35-.17-.09Z"/><path class="cls-3" d="M299.65,426.22c-1.09-1-.65-2.55.11-3.61,0,.06-.05.12-.08.17s.09-.18.13-.27l0,.05c4.23-7.32,6.94-16.66,13-22.44,2.39-.51,3.63,2.76,2.25,4.44-5.1,6.85-8.69,14.87-13.37,21.89h0A1.69,1.69,0,0,1,299.65,426.22Z"/><path class="cls-3" d="M318.41,415.36c-.4-1.58.36-3.56,2.11-3.87,4.13-5.52,6.43-13.12,11.78-17.43,8.42,1.25-4.32,12.49-5.56,16.34l.1-.15-.2.31,0,0c-1.5,2.18-2.57,4.84-4.71,6.47h0A2.42,2.42,0,0,1,318.41,415.36Z"/><path class="cls-3" d="M342.39,407.92a2,2,0,0,1,0-2.29c3.93-5.15,4.53-12.53,8.88-17.59,2.93-2.89,6.09,2.47,3.18,4.59a17.52,17.52,0,0,0-3.36,4.06C348.79,399,346.24,410.32,342.39,407.92Z"/><path class="cls-3" d="M439.47,370c-3.9-4.27,8.15-18.23,10.24-23.44,2.67-4.73,8.32-.91,5.56,3.42-3.9,5.83-7.6,11.82-11,18C444,370.17,441.25,371.69,439.47,370Z"/><path class="cls-3" d="M456.79,364.55c-1-1.83-.33-3.86.91-5.32l-.13.2.29-.46,0,0c4.84-6.73,7.36-15.47,13.37-21.18,3.51-1.93,6.12,3,4,5.74-5.48,6.87-9,15.29-14.45,22.05h0A2.85,2.85,0,0,1,456.79,364.55Z"/><path class="cls-3" d="M474.87,357.78a3.57,3.57,0,0,1,.19-5.07l-.14.17.27-.33,0,.05c3.94-2.84,9-19.92,13.9-16.45a3.37,3.37,0,0,1,.32,4.27C485.79,343.77,480.27,361.2,474.87,357.78Z"/><path d="M247.67,336.44c-4.37-22.3,20.85-49.5,41.06-56.37,10.61-2.34,20.39,4.77,28.08,11.25,2.53,3.31,8.69,5.3,6.68,10.37-5.55,9.31-15.64-7.79-22.18-9.62-19.15-11.95-48.79,23.32-50.18,41.19,0,0,0-.07,0-.1C252.73,335.41,249.75,339,247.67,336.44Z"/><path d="M397.8,270.44c-5.28-4.28,2.67-11.21,3.79-16.12,4.49-10.06,10.22-20.17,19.68-26.31,6.79-7.88,32-2.58,27.89,8.24-4.61,6.63-10.82-4.22-17-3.09-15.79,2.72-23.08,20.16-29.37,33.11C402.2,268.58,400.69,271.7,397.8,270.44Z"/><path class="cls-3" d="M587.13,1196.1h-.57l-.39,0Z"/><path d="M722.55,1152.82c7.3.44,20.37,3.56,20-7.58-1.32-9.66-12.5-13.07-20-17.28-21.88-6.86-45.52-7.87-68.38-7.91-24.72-1-49.21,3.83-73.86,5q-9.53.53-19.06,1c-47.5,2.44-95,4.27-142.52,6.5-46.43,3.22-92.06,14.16-138.7,15.29l-3.57.07c-21.76-1.15-43.07,3.42-64.73,3.49-16.06.25-35.7,2.44-33.24-20a1130.8,1130.8,0,0,1,23.91-128.64c4.78-22.2,12.6-43.92,18.33-65.49,1.13-4.28,2.19-8.55,3.12-12.82,1.15-9.93-12.1-11.12-13.15-1.44,0,.09,0,.17-.07.26C196.9,975,182.11,1026.9,175.19,1080.2c-3.3,38.83-25.35,89.4,35.95,84.14,22.77.53,45.31-3.42,68.15-2.2,40-1.46,79.6-8,119.2-13.61,53.86-4.49,107.92-6.14,161.85-9.56,41.64-1.76,83-10.23,124.78-6.23,14.87,2.57,30.64,2.08,43.68,10.71-11.5-.93-22.84-3.1-34.26-4.64-6.58-2.4-13.84,2.94-9.3,9.65,15.5,9.85,36.65,12.43,48.67,27.63-19.16-3.12-36.58-14.52-55.92-16.48-4.07,1.05-4.72,7.23-1,9.14,19.5,5.41,39.11,14.11,54.13,27.89-22.86,1.51-43-13-64.91-17.49-8.16-.15-6.58,10.84.36,12,13.57,4.49,25.86,12,38.62,18.29-17.26-1.24-33.53-7.65-50.61-10-22.5-3.24-45.36-2.36-68-3.35-22.93-.72-45.68,2.16-68.43,4.48-23.51.26-46.12,6.28-69.07,10.59-22.77,1.2-45.38,2.6-67.69,7.73-19.73,2.71-39.72,3.18-59.39,6.46l.91-.13c-67.76,12.11-136.07,20.48-204,30.89C103,1259,87,1260.94,71.12,1263.78c-19.12,2.84-42.2,10.71-59.15-2.15-3.09-18.25,3.95-37.81,7.45-55.87,6.85-21.69,10.26-44.21,16-66.18,13.68-61,32.86-120.54,46.63-181.52,6-22.4,11.64-44.87,15.76-67.72.33-4.23,2.2-8.72,3-13.08a14.46,14.46,0,0,0-.3-7.37c-1.21-1.3-2.44-1.12-3.66.17-7.49,7.86-15,57.06-18.47,63.39-14.69,53.25-28.06,106.85-43.09,160C25.42,1131,18.48,1169.25,8,1206.62A316.72,316.72,0,0,0,.42,1253c-3.43,19.34,15.05,26.45,31,27.7,11.62,1,23.1-1.59,34.5-3.42,25.33-4,50.77-7.24,76.08-11.43,31.86-3.52,63.66-7.17,95.31-12.27,30.76-4.25,61.26-10.17,92-14.76,13.65-1.86,27.36-2.92,41.08-4.11,13.4-1.23,26.51-4.32,39.77-6.49,13.51-2.21,27.28-1,40.81-2.93,23.26-4.52,46.24-10.12,70.1-10.27,23.07-2.46,46.2-4.84,69.43-4,22.69,1,45.61-.2,68,3.91,13.68,2,79.64,23.62,60.24-9.81,17.18,3,29.73-4.34,13.67-19.46C764.16,1191.39,736.5,1156.68,722.55,1152.82ZM11.9,1261.68l.09.1v0l0,.06.23.34C12.13,1262,12,1261.83,11.9,1261.68Z"/><path d="M1021.55,931.59c.28,53-35.53,92.66-90.49,83.26-32.61-5.07-60.82-23.56-87.38-42.09-22.26-14.91-43.57-31.14-65.37-46.7-29.5-23.29-61.77-42.54-91.72-65.16-20.87-14.29-37.2-34.33-59.29-46.95a13.07,13.07,0,0,1-1.56-.74c-6.3-3.6-10-12.9-1.21-16.14a75.26,75.26,0,0,1,10.94,5.09c16,9,30,23.23,43.76,35.21,21.61,17.91,45.26,32.91,69,47.75,17.17,12.59,34.17,25.39,51.65,37.55,47.43,32.19,140.31,116.25,193.78,58.56,50.72-67.71-30.54-199.57-64.15-264.07-22.76-40.36-44.74-81.3-70.83-119.66-13-18.93-30.85-35.36-39.5-56.9-4.22-2.65-3.8-9.11-.12-12,6.59-10.38,15.81-20.46,17.48-33-5.92,2-15,16.14-20.47,8.88-3.2-6.5,8.11-20.33,7.88-29.38-8.4,2.26-13.42,10.5-21.09,13.51-12.74-2.75,6.58-21.47,6.47-29.26v0a6.14,6.14,0,0,0,.08-2c-10.65.57-16.75,10.47-25.5,14.71-13.47-.46.62-23.87-2.69-32.16-9.48,4.33-18.31,11.17-23.58,20.28,1,1.07,2.1,2.12,3.2,3.14q.28.29.57.54c11,10.43,21.73,20.92,33.48,30.49,5.61,7.19,23.18,14.71,14.9,25.35-47.86,42.92-33.06,47.74-81,1-1.36-1.28-2.74-2.57-4-3.95-16.09,8.11,1.15-46.7-1.4-54.65-10.24-6.17-15.71,10.43-18.67,17.65-3,9.24-1.79,19,1.09,28.15,5.73,19.44,18.21,35.8,29.64,52.21,18.07,27.76,38.46,53.88,59,79.84,35.29,52,69.94,104.72,99.22,160.34l1.43,2.79c9.71,17.36,31.43,64.7-8.74,41.15l-.29-.17c-23.24-14-47.31-26.63-70.24-41.16-14.24-9.9-28.63-19.46-43.85-27.81-23.28-12-47-22.83-68.83-37.47-2.86-2.28-9.77-4.65-14.89-7.58-5.61-3.2-9.08-7.08-2.76-12.26a61.78,61.78,0,0,1,9.72,3.21c11.71,4.91,22.94,12.93,34.08,18.8,24.25,13,50.44,22.2,73.62,37.31,21.29,15.49,44.08,28.65,66.28,42.76,11.6,7.06,21.55,16.95,34,22.45-23.14-60-64.7-110.89-98.71-164.95-28.07-40.4-61-77.15-87.35-118.83a.61.61,0,0,1-.07-.1l-.25-.36c-.23-.32-.45-.65-.67-1v0c-.12-.18-.24-.37-.37-.55l-.06-.08c-13.45-19.56-24.25-42.62-23.31-66.83-17.38-18.07-35-36.18-51.66-55-28.49,9.46-28,12.72-36.73-17.27-7.52-24.17-20.41-48.31-20.59-74,1.71-9.43,12.92-10.1,19.9-14a419.89,419.89,0,0,1,75.16-30c5.84-3.22,10.44-4.55,14.16-4.09a10.9,10.9,0,0,1,7.44,4.43c2.24,2.81,4,6.9,5.63,12.19,4.42,14,8.31,28.2,11.31,42.59-.08-.34-.17-.69-.25-1,1.63,12.13,13.82,34.24,9.86,47-1.53,4.93-5.45,8.47-13.31,9.53.88,1.06,1.77,2.11,2.66,3.16q17.19,20.42,35.3,40c12.28-25.95,49.39-43.58,39.77,1.65,16.82-12.43,33.23-7.29,22.51,15,18.66-13.74,22.8,2.14,16.61,18.19,9.33-8.17,16.67-1.09,15.24,9.73-1.34,14.77-12.8,25.67-17.64,39.12,31.08,35.51,59.57,73.1,81.12,115.28,23.76,41.72,47.08,83.77,67.67,127.17C999.34,827.08,1021.45,877.69,1021.55,931.59Z"/><path class="cls-1" d="M611.1,373.38c-3.65-2.61-5.83-12.69-5.16-17.1.76-2.7,4.54-4.35,6.57-2,1.55,1.47.91,3.53,1.4,5.35C615.13,364,619.33,374.24,611.1,373.38Z"/><path class="cls-1" d="M628.14,367.34c-2.4-1.9-5.48-20.67-1-21,3.45-.17,2,4.17,2.8,6.27C630.75,356.7,636.21,368.6,628.14,367.34Z"/><path class="cls-1" d="M645.41,362.28c-2.1-6.11-2.26-12.7-4.2-18.79v0c0-.11,0-.22,0-.33v.15c-.06-1.65,1.63-3.15,3.22-2.37,3.55,5.27,4.32,12.53,6.94,18.45C652.79,363.16,647,366.67,645.41,362.28Z"/><path class="cls-1" d="M69,334.76c-6.9-10.87-4.7-39.26,7.81-45.06,4.55-.45,4.43,6.73.43,7.36-5.29,8.85-7.09,20.94-3.36,30.68C77.59,332.28,73.78,340.25,69,334.76Z"/><path class="cls-1" d="M86.61,331.34c-5.27-9.84-4.75-21.35-1.3-31.7A3,3,0,1,1,90.88,302l.07-.16a29.67,29.67,0,0,0,1.85,25.44C94.9,331.05,89,335.8,86.61,331.34Z"/><path class="cls-1" d="M209.46,280.18c-5-2.57,6.13-5.56,7.68-7.45,6.37-2.31,18.72-20.56,20.76-17.86C241,261.8,216.17,278.84,209.46,280.18Z"/><path class="cls-1" d="M222.07,287.36c-.3-1.51,1-2.36,2.29-2.71l-.23.09a45.56,45.56,0,0,0,20.37-20.52,2.12,2.12,0,0,1,2.83-1.09c2.82,2.49-1.38,6.43-2.72,8.8l.08-.1C242.17,275.52,225.52,292.57,222.07,287.36Z"/><path class="cls-1" d="M352.85,223.39c-6.12-.4-12.48-1.11-18.25-3.24-4-6.06,6.76-3,9.6-2.94l-.33,0c3.6,1.08,11.55-2.18,11.9,3.23A3.14,3.14,0,0,1,352.85,223.39Z"/><path class="cls-1" d="M358.5,209.45c-4.09-.68-14-.17-13.44-6,.42-1.18,1.85-2.38,3.18-1.8,3.35,1.65,7.13,1.55,10.78,1.57S362,209.58,358.5,209.45Z"/><path class="cls-1" d="M591.31,802.18c-3.57-4.39-6.71-32.17,3.08-28.54,2.8,2-2.15,11.23.31,17.33a37.39,37.39,0,0,0,3,7C599.85,801.86,593.75,806.77,591.31,802.18Z"/><path class="cls-1" d="M307.45,991.39c-11,.05-49.6-9.19-48.19-23.1a1.63,1.63,0,1,1,2.86,1.33c21.51,20.77,66.69,20.13,87.87-1.78,10.56-10,17.09-23.5,25.62-34.78,9.13-1.84,4,9,1.08,12.72l.34-.57C362.15,971.09,339.31,993.21,307.45,991.39Z"/><path class="cls-1" d="M498.56,944.6c-9-2.83-23.11-1.27-27.25-11.56-.36-2.49,3.29-4.61,4.69-2.12h0c4.38,8.4,26.64,1.5,26.45,10.67C502.09,943.27,500.39,945,498.56,944.6Z"/><path class="cls-1" d="M181.59,754.81c-4.24-7.37,10-10.85,14.37-14.46a3,3,0,0,1,4.22,1.87c.88,6.7-10.06,7.71-13.61,12.31l0,0A3.34,3.34,0,0,1,181.59,754.81Z"/><path class="cls-1" d="M198.15,770.76c-5.27-5.29,8.91-16.61,13.62-18.1,8.15,2.26,1,9.43-3.31,11.7C204.89,766.07,202.75,773.52,198.15,770.76Z"/><path class="cls-1" d="M496.4,789.39c-2.12-3.42-8.6-6.67-7-11.07,4.07-3.51,7.72,4.83,10.59,7C502,787.55,498.8,791.73,496.4,789.39Z"/><path class="cls-1" d="M522.75,766.8a58.52,58.52,0,0,1-5.5-5.3l0,0c-2.8-2.77.61-8.72,4.43-6.7,1.93,1.63,3.55,3.7,5.58,5.28C530.83,762.92,526.68,769.69,522.75,766.8Z"/></g></g></svg>