<svg xmlns="http://www.w3.org/2000/svg" viewBox="0 0 672.92 1762.38"><defs><style>.cls-1{fill:#fff;}.cls-2{fill:#f7941d;}</style></defs><title>Imagen 4</title><g id="Capa_2" data-name="Capa 2"><g id="Capa_1-2" data-name="Capa 1"><path class="cls-1" d="M508.74,1283.67a2.47,2.47,0,0,1-.09-2,1.77,1.77,0,0,1,1.61-.9,4.72,4.72,0,0,1,4,2.82,2.47,2.47,0,0,1,.1,2,1.77,1.77,0,0,1-1.61.9A4.75,4.75,0,0,1,508.74,1283.67Z"/><path class="cls-2" d="M385.65,322.06a16.38,16.38,0,0,1-4.74-1.11,12.91,12.91,0,0,1-6.79-5.65,9.89,9.89,0,0,1-.38-8.24,9.31,9.31,0,0,1,2.06-3.34,5.4,5.4,0,0,1,1.73-1.15,3.07,3.07,0,0,1,.5-.67,5.67,5.67,0,0,1,3.67-1.21,12,12,0,0,1,10.41,4.1,14.15,14.15,0,0,1,3.61,5.77,8.26,8.26,0,0,1,0,5.53,6,6,0,0,1-1.64,2.21,6.3,6.3,0,0,1-1.6,2.14,7.23,7.23,0,0,1-3.28,1.49,10.16,10.16,0,0,1-2.05.19C386.63,322.12,386.14,322.1,385.65,322.06Zm1.37-9.42c-1.55.44-1.1.36-.65.26l.65-.26a1.21,1.21,0,0,1-.09-.2l-.81.18c-.28.1-.54.21-.81.33l-.29.2Z"/><path class="cls-2" d="M502.8,351.55c-2-.11-3.91-.29-5.85-.52l-.37.19a4.65,4.65,0,0,1-1.56.3c-.59,0-1.16,0-1.74-.09-.9-.05-1.79-.15-2.69-.25a102.27,102.27,0,0,1-11.51-2.28c-2.32-.56-4.64-1.14-7-1.72a78.21,78.21,0,0,1-9.89-2.38l-.65-.17a51.51,51.51,0,0,1-9.69-3.52,21.06,21.06,0,0,1-6.79-5.54,12.8,12.8,0,0,1-1.21-1.88,9.44,9.44,0,0,1-.93-2.14,7.77,7.77,0,0,1-.27-2.94,9.16,9.16,0,0,1-.76-2.58,6.78,6.78,0,0,1,.45-3.93,10.41,10.41,0,0,1,1-1.54,6.79,6.79,0,0,1,1.38-1.18,10.78,10.78,0,0,1,3.54-1.46,28.18,28.18,0,0,1,8.44-.73,65.47,65.47,0,0,1,7.39.81,66.16,66.16,0,0,1,12.77,3.7c4,1.48,7.89,3.4,11.75,5.24a84.84,84.84,0,0,1,11.3,6.2,11.36,11.36,0,0,1,2.7,2.28,3,3,0,0,1,.75,1.78.69.69,0,0,1-.26.55,31,31,0,0,1,3.74,4c.38.49.7,1,1,1.55a9.79,9.79,0,0,1,.93,1.75,6.85,6.85,0,0,1,.69,4,3.11,3.11,0,0,1-1.84,2.22,6,6,0,0,1-2.18.34h-.36C504.37,351.65,503.58,351.6,502.8,351.55Zm-5-8.76-1.62-1.28-2.51-1.72,0,0a6.58,6.58,0,0,1,.57,1.16,19.39,19.39,0,0,1,1.62,1.65Z"/><path d="M396.32,287.91a9.53,9.53,0,0,1-3.5-4.42c-.09-.23-.17-.46-.24-.7a8.81,8.81,0,0,1-1.06-2.18,5.48,5.48,0,0,1-.19-2.17,12,12,0,0,1,.2-1.34,8.92,8.92,0,0,1,1.38-3.08,10.25,10.25,0,0,1,3.69-3.2,7,7,0,0,1,4.58-.69,7.29,7.29,0,0,1,4.29,2.77,8.91,8.91,0,0,1,1.71,4.29,14.61,14.61,0,0,1-.19,4.07,13.09,13.09,0,0,1-1.43,4.22,7.47,7.47,0,0,1-3.18,3.21,5.07,5.07,0,0,1-2.16.47A7.11,7.11,0,0,1,396.32,287.91Z"/><path d="M482.47,311.31a7.34,7.34,0,0,1-2.16-.57,9.05,9.05,0,0,1-2.53-1.56,9.49,9.49,0,0,1-2.86-4.35c-.9-3,.56-6.55,2.84-8.58a8.91,8.91,0,0,1,3.7-2,3.67,3.67,0,0,1,1.71-.05,3.88,3.88,0,0,1,.48,0,8.86,8.86,0,0,1,1,0l1,.19a6.16,6.16,0,0,1,1.43.59,8,8,0,0,1,3,2.85,7.08,7.08,0,0,1,1,3.9,14,14,0,0,1-1.23,4.52,10.12,10.12,0,0,1-2.87,3.91,5.86,5.86,0,0,1-3.85,1.21C482.9,311.33,482.69,311.33,482.47,311.31Z"/><path d="M419.86,364.28a27.44,27.44,0,0,1-1.79-2.24l-.18-.19c-.31-.28-.64-.54-1-.8-.54-.4-1.08-.77-1.64-1.12-.82-.5-1.66-1-2.53-1.41-.29-.12-.58-.24-.88-.34-.64-.19-1.28-.36-1.94-.49-.39-.07-.78-.13-1.17-.17s-1.08-.06-1.62,0v0a.84.84,0,0,1-.65.81h0a1.39,1.39,0,0,1-.3,0H406a2.46,2.46,0,0,1-1.59-1,2.43,2.43,0,0,1-.29-.5l0,0a1.32,1.32,0,0,1-.09-.8,1.94,1.94,0,0,1,0-.24,1.11,1.11,0,0,1,.71-1.2,8,8,0,0,1,2.05-.44,13.79,13.79,0,0,1,6.6.91,26.92,26.92,0,0,1,2.83,1.32,20.35,20.35,0,0,1,2.88,1.79,16,16,0,0,1,2.13,1.82c.45.48.83,1,1.23,1.54,0,.05.09.1.13.16l.31.35h0l.05.06,0,0a.47.47,0,0,1,.11.13l.07.08,0,0c.64.8,1.27,2.19.24,2.92a1.59,1.59,0,0,1-.95.29A3.84,3.84,0,0,1,419.86,364.28Z"/><path d="M422.21,366.52a5.84,5.84,0,0,1-2.77-1.71c-.59-.67-1.22-1.31-1.85-1.94l-1.16-1.16c-.45-.47-.91-.95-1.39-1.41l-.64-.55c-.39-.29-.78-.58-1.27-.89l-.16-.07-1-.25c-.44-.08-.88-.14-1.33-.19h-.16l-1,0c-.35,0-.71,0-1.06,0h-.85a6.52,6.52,0,0,1-.76,0,2.58,2.58,0,0,1-.38,0h0a4.24,4.24,0,0,1-2.29-1.42l0-.05a6,6,0,0,1-.49-.64,2.45,2.45,0,0,1,0-2.89,3.31,3.31,0,0,1,.84-.61,5.85,5.85,0,0,1,1.68-.52l.32-.06a11.6,11.6,0,0,1,1.79-.25l.53,0a14.7,14.7,0,0,1,3.59.51,13,13,0,0,1,3.76,1.8c.73.49,1.48,1,2.37,1.76a21,21,0,0,1,2.06,1.94l.53.54.84.83c.73.73,1.5,1.48,2.18,2.28a5.27,5.27,0,0,1,1.37,2.63,2.16,2.16,0,0,1-.78,2.1,2.41,2.41,0,0,1-1.41.4A4.47,4.47,0,0,1,422.21,366.52Z"/><path d="M511.92,678.85a4.38,4.38,0,0,1-2.45-3.45,2.76,2.76,0,0,1,0-.51,32.7,32.7,0,0,1,3.36-8.07l.36-.68c1.61-3.08,3.29-6,4.88-8.81a178.22,178.22,0,0,0,9.17-17.81c1-2.29,1.87-4.68,2.75-7L531,630c1.13-3,2.45-5.92,4.1-9.39,2.48-5.23,4.92-10.6,7.28-15.8l1.24-2.74c1.65-3.6,3-7.23,4.28-10.61a67.5,67.5,0,0,0,3.23-10.85c.06-.69.13-1.51.13-2.38v-.18c0-.42-.08-.84-.14-1.27s-.24-.85-.38-1.27-.37-.92-.57-1.39-.39-.7-.61-1.06-.36-.48-.55-.71l-.22-.24c-.52-.46-1.06-.9-1.61-1.33l-3.1-2.3-.37-.27c-1.18-.86-2.36-1.72-3.51-2.61a37.45,37.45,0,0,1-4.29-3.72,19.31,19.31,0,0,1-2.07-2.55,5.92,5.92,0,0,1-1.07-3,2.48,2.48,0,0,1,.62-1.69,4.35,4.35,0,0,1,1.53-1l.19-.08c.63-.3,1.27-.58,1.91-.85,1.36-.58,2.72-1.17,4.07-1.79,2.63-1.19,5.4-2.57,8.47-4.23,1.87-1.08,3.61-2.17,5.32-3.33a45.19,45.19,0,0,0,4.71-3.83c1-1,2-2,2.86-3a23.67,23.67,0,0,0,1.84-2.47l.2-.31a19.67,19.67,0,0,0,1.62-3.2,12.74,12.74,0,0,0,.45-1.74c0-.36,0-.71,0-1.06v-.15c0-.16,0-.33-.07-.54s-.1-.35-.16-.52a4,4,0,0,0-.21-.47c-.14-.26-.28-.52-.44-.77-.33-.5-.68-1-1-1.43-1.37-1.56-2.9-3-4.24-4.32-1.12-1.07-2.22-2.15-3.33-3.24l-1.52-1.5-1.33-1.3c-1.14-1.1-2.27-2.21-3.37-3.34-.81-.83-1.59-1.69-2.37-2.54l-.4-.44a4.76,4.76,0,0,1-1.65-3,.9.9,0,0,1,.24-.63,1.4,1.4,0,0,1,1-.34,2.36,2.36,0,0,1,.48.05,3.28,3.28,0,0,1,1.53.94l.28.24.29.23a2.39,2.39,0,0,1,1.44,1.23c4.28,3.63,8.5,7.37,12.53,11.11,1.42,1.3,2.58,2.45,3.64,3.59a22.46,22.46,0,0,1,3.71,5.37,9.18,9.18,0,0,1,.94,4c0,3.5-1.88,7.38-5.76,11.88a58.06,58.06,0,0,1-13.1,10.8c-3.06,1.94-6.14,3.81-9.18,5.58l-1.09.64-.84.47h0l0,0h0c1.35,1,2.7,2,4.06,2.94l.33.24.27.19a59.3,59.3,0,0,1,5,3.93,23.46,23.46,0,0,1,2.95,3.12,20.6,20.6,0,0,1,2.26,3.81,20.22,20.22,0,0,1,1.2,3.31,16.26,16.26,0,0,1,.53,3.49c0,.16,0,.32,0,.48a25.72,25.72,0,0,1-.23,3.12v.19l0,.15v.1h0v-.1a.13.13,0,0,0,0,.06v-.06a47.39,47.39,0,0,1-2.71,9.11l-.24.65c-1.28,3.41-2.48,6.45-3.68,9.31-1,2.32-2.13,4.69-3.13,6.78l-.57,1.18-.54,1.14-2,4.22c-.77,1.65-1.55,3.31-2.34,5l-1,2.09-.34.7c-.88,1.79-2,4-2.91,6.18-.74,1.72-1.42,3.46-2.09,5.21-.56,1.45-1.13,2.9-1.72,4.33a94.77,94.77,0,0,1-4.15,8.85c-1.54,2.82-3.19,5.69-5.06,8.78-.59,1-1.19,1.94-1.79,2.91l-.35.56c-1,1.64-2.3,3.68-3.44,5.64a60.38,60.38,0,0,0-4.76,9.42c-.2.55-.39,1.11-.57,1.67a1.72,1.72,0,0,1-1.78,1.22A4,4,0,0,1,511.92,678.85Z"/><path d="M118.48,1762.26h-.27c-.18,0-.36,0-.53,0l.33,0a48.59,48.59,0,0,1-12.08-2.11,58.59,58.59,0,0,1-11.77-5.41,95.52,95.52,0,0,1-11.55-8,53.31,53.31,0,0,1-8.83-9.78c-.79-1.06-1.58-2.11-2.42-3.14-.29-.34-.6-.66-.91-1a9.39,9.39,0,0,1-.85-.81c-1.18-1.33-2.58-3.44-2-5.34a3,3,0,0,1,1.7-2,7.33,7.33,0,0,1,2.07-.37l2.62-.21c3-.23,6.1-.48,9.15-.79s6.1-.69,9.15-1c3.3-.37,6.6-.75,9.88-1.36s6.68-1.37,10-2.12,6.53-1.52,9.76-2.44c3.9-1.17,7.76-2.42,11.68-3.52s8.17-2.15,12.22-3.34a48.37,48.37,0,0,0,8.87-3.49l.58-.34c0-.13,0-.27,0-.4,0-1.67.21-3.37.33-5s.25-3.57.33-5.36c.15-3.37.31-6.73.43-10.1.13-3.53.2-7.06.51-10.59.33-3.73.78-7.46,1.12-11.19s.55-7.74.75-11.61.52-7.47.82-11.2c.64-7.65,1.3-15.3,1.74-23,.22-3.79.23-7.6.34-11.39s.32-7.77.65-11.66c.32-3.7.63-7.4.87-11.1q.38-6.1,1-12.18c.42-3.79.9-7.57,1.25-11.37s.61-7.67.91-11.51q.93-11.77,1.67-23.56c.49-7.74,1.16-15.47,1.67-23.21.27-4,.45-7.91.62-11.87s.42-7.61.62-11.42c.4-7.72.94-15.43,1.29-23.15.35-8,.68-15.94,1.26-23.89s1.2-15.72,1.87-23.58c.33-4,.71-8,1-11.95.3-3.8.51-7.59.76-11.39.3-4.44.71-8.87,1.14-13.31s.86-8.66,1.46-13v0c0-.2,0-.4.08-.59s0-.26.05-.39a.5.5,0,0,1,0-.12l.12-.88c0,.13,0,.26,0,.38l.27-2c.3-2.21.69-4.42,1.07-6.62.18-1.07.39-2.14.63-3.2q.15-.67.33-1.32c-.9.06-1.79.14-2.69.22-3.54.3-7.09.56-10.64.59h-1.53c-3.44,0-6.88-.1-10.32-.25l-6-.26c-2-.08-4,0-5.93,0a82.75,82.75,0,0,1-11.46-.53c-3.9-.53-7.75-1.35-11.68-1.7h0c-1.8-.09-3.6-.12-5.39-.1a19.64,19.64,0,0,1-2,0A5.69,5.69,0,0,1,110,1337a3.81,3.81,0,0,1,0-1.68c.13-1,.18-2.11.24-3.17.11-2,.2-4,.3-6.06s.18-4.32.35-6.48c.18-2.32.43-4.65.65-7,.45-4.84.88-9.68,1.42-14.51s1.26-9.83,2-14.74l-.06.46c.63-4.62,1.21-9.23,1.72-13.87s.88-9.21,1.3-13.83.87-9.47,1.43-14.18,1.17-9.39,1.82-14.07c0,.16,0,.32-.07.49,1-7.18,2-14.36,3.19-21.51s2.4-14.35,3.46-21.55l-.06.5c1.08-8,2-15.93,2.84-23.93.77-7.65,1.5-15.29,2.36-22.92q1.39-12.21,2.7-24.41c.86-8,1.52-16,2.51-23.94s2.08-16.13,3.16-24.19,2.15-16.35,3.16-24.54c1-7.9,1.83-15.81,2.68-23.72s2-16,3.19-23.9c.62-4.15,1.2-8.3,1.79-12.46,1-7.81,1.92-15.63,2.5-23.5.59-8.11,1-16.21,1.51-24.32s1.17-16,1.93-23.93,1.49-15.68,2.32-23.5c.89-8.27,1.82-16.53,2.84-24.79,1-8,2-15.94,3-23.92,1-7.59,1.76-15.19,2.8-22.77q1.67-12.32,3.42-24.61c1.11-7.81,2.34-15.61,3.62-23.4s2.46-15.44,3.6-23.17q1.79-12.09,3.76-24.16c1.29-7.92,2.57-15.85,3.73-23.79a.51.51,0,0,0,0,.13l0-.24a.13.13,0,0,0,0-.06c1-7.54,1.67-15.11,2.89-22.63,1.29-8,2.86-15.87,4.28-23.81.63-3.54,1.28-7.08,1.87-10.63s1.13-7.25,1.69-10.87,1.18-7.27,1.85-10.9,1.25-7,1.75-10.51c.39-3,.78-6.07,1.31-9.09.48-2.7,1.18-5.35,1.65-8,.06-.48.1-1,.15-1.47l-1.51-.15c-2.58-.26-5.16-.48-7.74-.72q-7.72-.74-15.48-1.22c-4.19-.17-8.4-.31-12.58-.67s-8.42-.9-12.62-1.5-8.47-1.11-12.72-1.56-8.26-.9-12.37-1.51c-4.37-.64-8.75-1.29-13.07-2.28s-8.44-2-12.66-3q-6.09-1.51-12.2-3c-4.12-1-8.17-2.22-12.22-3.46-7.91-2.44-15.76-5.07-23.44-8.14a124.7,124.7,0,0,1-23.56-11.86c-1.78-1.19-3.48-2.49-5.17-3.79s-3.4-2.59-5.08-3.91-3.43-2.72-5.06-4.2a37.87,37.87,0,0,1-6.6-8,90.28,90.28,0,0,1-5.87-11.3,50,50,0,0,1-3.59-12.88,102.59,102.59,0,0,1-.93-12.75c-.11-4.14-.19-8.27,0-12.41.34-8.49,1.13-16.92,2.13-25.36S4.57,437.22,6,428.81c.67-4.09,1.34-8.17,1.93-12.27s1.2-8.12,1.93-12.16,1.62-8.08,2.47-12.11c.88-4.19,1.77-8.38,2.62-12.59,1.66-8.14,3.2-16.31,4.56-24.51,1.4-8.41,2.62-16.85,4.28-25.22s3.45-16.81,5.36-25.17,4-16.74,5.73-25.15c.82-3.91,1.49-7.85,2.27-11.76.85-4.25,1.84-8.45,2.94-12.64,1-4,2.11-8,3.09-12,1-4.2,2-8.43,3-12.63s2.2-8.06,3.24-12.1,1.89-7.82,2.77-11.75c.36-1.61.69-3.23,1.11-4.84.47-1.81,1-3.59,1.6-5.38.22-.71.46-1.41.7-2.1a5.51,5.51,0,0,1-.82-.48,5.43,5.43,0,0,1-2-2.27,2.65,2.65,0,0,1-.1-2.28c.8-1.34,2.49-1.46,4-1.43.17-1.76.38-3.53.62-5.28.93-6.66,2.72-13.16,4-19.75.64-3.38,1.18-6.78,1.77-10.17s1.34-6.57,2.14-9.84,1.68-6.6,2.51-9.9c.79-3.13,1.52-6.29,2.3-9.42.83-3.33,1.61-6.68,2.56-10s2.05-6.69,3.26-10c1.11-3,2.39-6,3.59-9s2.33-5.91,3.43-8.9h0c.06-.17.12-.34.19-.51l-.15.38c.12-.31.23-.63.35-1l-.14.38c.07-.19.14-.38.22-.58,0,0,0,0,0,0s0,0,0,.07l.06-.15a0,0,0,0,1,0,0c1.18-3.23,2.37-6.44,3.7-9.61s2.7-6,4.14-9a85,85,0,0,1,4.69-8.59c1.82-2.85,3.79-5.61,5.77-8.35s3.76-5.31,5.65-8a80.71,80.71,0,0,1,5.83-7.09c2.07-2.3,4.19-4.56,6.3-6.81a34.53,34.53,0,0,1,3.19-3.1c1-.78,2-1.49,2.94-2.25s2-1.59,3.07-2.33l.19-.13a2.67,2.67,0,0,1-.18-1.15c.16-1.85.39-3.7.59-5.56A50.23,50.23,0,0,1,130,6.67a2.68,2.68,0,0,1,.5-1.19l.34-.35a2.27,2.27,0,0,1,1.62-.84c.73-.07,1.46-.07,2.19-.15l-.32,0c.65-.07,1.31-.13,2-.23a25.5,25.5,0,0,0,3.33-.77,20.91,20.91,0,0,1,2.79-.86,33.73,33.73,0,0,1,4.49-.39c3.4-.16,6.79-.37,10.19-.58,7-.43,14-.95,21-1.22q5.19-.19,10.36-.09c3.41.07,6.81.28,10.21.48h.12l1.36.08-.43,0,1.2.07h-.13l2.54.14-.43,0c6.17.35,12.35.57,18.53.92l-.44,0,2.91.16-.44,0c7.13.4,14.24,1,21.35,1.71S259,4.92,266.11,5.68s14.12,1.5,21.18,2.18,14,1.28,21,2.2c3.51.47,7,.95,10.52,1.41s7,1,10.48,1.61c6.88,1.14,13.86,1.49,20.74,2.66,1.61.28,3.21.58,4.83.81.57.08,1.14.11,1.7.24a5.07,5.07,0,0,1,3.5,3.29,7.52,7.52,0,0,1,.07,2.55c-.08,1.57-.2,3.13-.29,4.7-.38,6.94-1.17,13.87-1.92,20.79s-1.33,13.77-2,20.67c-.33,3.56-.67,7.12-.91,10.7-.22,3.27-.39,6.55-.62,9.82-.51,7.23-1.34,14.43-1.93,21.66-.58,7-.89,14-1.2,21.06s-.44,14.18-.86,21.25c-.43,7.26-.86,14.52-1.34,21.78-.46,7.09-1,14.17-1.61,21.24s-.84,13.92-1.13,20.89c-.59,14.24-2.08,28.42-3,42.64-.23,3.52-.41,7.05-.5,10.59s-.21,7.33-.47,11c-.5,7-1.52,13.93-2.64,20.84-.77,4.69-1.57,9.39-2.24,14.1-.33,2.35-.63,4.69-.91,7.05a50.69,50.69,0,0,0-.52,7.49c0,.38.05.77.09,1.15a3.47,3.47,0,0,1,.57,1.43,1.66,1.66,0,0,1-1,1.86,3.28,3.28,0,0,1-1.73,0c-1.87-.07-3.75-.05-5.63-.08a67.94,67.94,0,0,0-7.27.26c-3.32.38-6.59,1-9.89,1.48-3.5.46-7.05.69-10.56,1s-7,.31-10.51.45c-3,.13-5.95.25-8.93.25h-1.53c-1.9,0-3.8-.16-5.7-.27-3.38-.17-6.74-.18-10.12-.24-3.71-.07-7.42-.19-11.12-.46-3.44-.24-6.87-.53-10.31-.75-3.63-.24-7.26-.49-10.89-.79-7.07-.58-14.12-1.44-21.2-2-6.87-.35-13.75-.26-20.63-.18-3.75.05-7.51.05-11.27-.08-3.41-.12-6.83-.39-10.25-.52-3.68-.13-7.34-.12-11,0s-7.27.06-10.9-.2A93.66,93.66,0,0,1,136,331.73c-2.46-.44-4.92-.83-7.38-1.24a23.78,23.78,0,0,1,.24,2.4v0a.11.11,0,0,1,0,.05h0V333c0,.09,0,.17,0,.26a.38.38,0,0,1,0-.1c0,.17,0,.34,0,.51v.17a.28.28,0,0,0,0,.09v0a96.8,96.8,0,0,1-.1,11c-.24,3.6-.59,7.19-.9,10.79-.32,3.86-.73,7.7-1.3,11.52s-1.13,7.6-1.68,11.41c-.43,2.95-.87,5.91-1.35,8.85s-1,5.94-1.5,8.93c-.42,3.19-.76,6.4-1.16,9.6-.43,3.43-.88,6.86-1.22,10.31a145.8,145.8,0,0,0-1,19.14c.06.61.14,1.21.25,1.81.25,1.06.55,2.1.88,3.15.08.21.18.42.28.63l.24.4c.2.27.4.53.61.78s.52.56.79.83l.47.4c.36.26.72.51,1.09.75,1.76,1,3.58,1.91,5.42,2.78l-.32-.14c1.51.69,3,1.4,4.54,2s3.17,1.22,4.79,1.78a188.35,188.35,0,0,0,18.57,4.86c3.65.7,7.33,1.31,11,1.94s7.34,1.33,11,2,7.44,1.2,11.18,1.66,7.57,1,11.32,1.75c3.57.69,7.14,1.38,10.73,2s7.21,1.06,10.83,1.49c3.8.44,7.58,1,11.34,1.65s7.51,1.38,11.27,2c3.92.67,7.85,1.25,11.78,1.86,4.22.64,8.4,1.44,12.58,2.27h0l.22,0h0l.22.05h0l2.12.43-.12,0c3.67.73,7.35,1.44,11.05,2,3.89.65,7.79,1.25,11.68,1.88,7.49,1.2,15,2.39,22.44,3.67,4.12.71,8.28,1.07,12.41,1.71a62,62,0,0,1,12.79,3.24A8,8,0,0,1,344.8,489c.21,0,.42,0,.64,0a3.41,3.41,0,0,1,1.92.6c-.13-2.3-.21-4.59-.32-6.88l0,.6c-.21-4.05-.43-8.1-.63-12.15,0-.19,0-.38,0-.57v.23c-.17-3.26-.33-6.53-.54-9.78-.22-3.53-.59-7-.74-10.59s.07-6.94.1-10.42-.15-6.8-.19-10.2c0-1.65,0-3.31,0-5,0-.86.05-1.71.08-2.56,0-.39,0-.77,0-1.16a4.16,4.16,0,0,1,.3-1.89c.64-1.12,1.88-1.35,3-1.6,1.38-.29,2.78-.42,4.17-.58.73-.08,1.46-.2,2.2-.28a8.89,8.89,0,0,1,1.86-.08,5.9,5.9,0,0,1,2.58,1,5.82,5.82,0,0,1,2.49,3.31,11.94,11.94,0,0,1,.21,1.46c.26,2.92.46,5.83.62,8.76.06,1.37.15,2.75.21,4.13v0h0s0,.08,0,.12v.29h0a.13.13,0,0,0,0,.06v.1h0l.06,1.32,0,.47v.34a.22.22,0,0,1,0,.08v.08h0c0,.46.05.93.07,1.39,0,0,0,0,0,0s0,.07,0,.11v0a1.55,1.55,0,0,1,0,.22l0,.33v0c.16,3.13.29,6.26.54,9.39.26,3.36.64,6.71,1,10.06.72,6.35,1,12.75,1.29,19.14h0v0c0,.12,0,.24,0,.37a0,0,0,0,1,0,0h0v0c0,.68.07,1.37.1,2.05v.1h0v0s0,.06,0,.1v0c0,.09,0,.18,0,.27,0-.07,0-.14,0-.22.09,1.82.18,3.63.26,5.45,0-.15,0-.29,0-.44,0,.81.08,1.61.12,2.43a.92.92,0,0,1,0-.16c0,.1,0,.19,0,.3v.07a0,0,0,0,1,0,0v0a0,0,0,0,0,0,0h0c.1,1.84.2,3.68.32,5.53.26-.95.55-1.89.84-2.82a5.45,5.45,0,0,1-1.07-2.31,3.22,3.22,0,0,1,.08-1.41,34.5,34.5,0,0,1,.68-3.81,31.82,31.82,0,0,1,1.1-3.56c.56-2.22,1.18-4.41,1.89-6.58,1.59-4.88,3.11-9.79,4.46-14.75.08-.33.15-.66.26-1a1.7,1.7,0,0,1,.57-.85l.2-.11c.14-.78.28-1.55.49-2.3.69-2.6,1.32-5.21,1.84-7.85,1.05-5.39,2.64-10.66,3.69-16.06.54-2.76,1.05-5.52,1.78-8.24.68-2.52,1.56-5,2.29-7.48.77-2.68,1.44-5.39,2.15-8.09.35-1.34.71-2.67,1-4,.21-.87.41-1.75.61-2.62-1.3-.46-2.62-.88-3.92-1.34-2.59-.93-5.23-1.79-7.75-2.89a64,64,0,0,1-8.12-4.36,34.94,34.94,0,0,1-6.69-5.69c-.82-.87-1.63-1.75-2.41-2.66a25.37,25.37,0,0,1-2.08-2.66,5.57,5.57,0,0,1-.63-3.12c0-1,0-2,0-3.06.07-2.7.29-5.4.57-8.09s.57-5.48.89-8.22c.28-2.49.63-5,1-7.45a.09.09,0,0,1,0,.05.17.17,0,0,0,0-.07s0,0,0-.06h0v0h0a.06.06,0,0,1,0,0s0,0,0,0v0c.39-2.87.76-5.74,1.23-8.6.45-2.71,1-5.4,1.39-8.11s.84-5.57,1.38-8.33,1.16-5.52,1.81-8.27c.28-1.2.56-2.39.83-3.59a34.61,34.61,0,0,1-7.53-5.6,30.22,30.22,0,0,1-5.59-8.06,13.43,13.43,0,0,1-1-2.66c-.19-.8-.34-1.61-.47-2.43a29.32,29.32,0,0,1-.17-4.49,50.26,50.26,0,0,1,.86-9,53.7,53.7,0,0,1,2-8.39,45.49,45.49,0,0,1,4-8.21,54.51,54.51,0,0,1,4.33-6.12,45.09,45.09,0,0,1,5.31-5.57,32.81,32.81,0,0,1,5.79-4.07,18.45,18.45,0,0,1,3.42-1.54,17.23,17.23,0,0,1,1.9-.54,19.35,19.35,0,0,1,2.14-.31l-.26,0,.32,0h.14a34.18,34.18,0,0,1,8.51.36l1.82.32c1.49-2.11,3.28-4,4.91-6,1.36-1.66,2.57-3.43,3.84-5.16a10.08,10.08,0,0,1-.47-2.62,25.92,25.92,0,0,1-.09-2.79c.05-.91.11-1.8.22-2.71s.31-2,.51-3a31.87,31.87,0,0,1,1.28-4.56c.58-1.61,1.15-3.21,1.8-4.8q1.94-4.77,4.08-9.43c1.37-3,2.75-6,4.3-8.92,1-1.94,2.09-3.87,3.29-5.7l-.13.19.47-.72c.27-.39.54-.79.79-1.19l-.11.18c1.83-2.73,3.93-5.27,6-7.85s4.19-5.44,6.41-8a42.78,42.78,0,0,1,7.54-6.55,83.44,83.44,0,0,1,8.29-5.52c.84-.46,1.68-.9,2.54-1.32s1.66-.66,2.5-1a40.21,40.21,0,0,1,4.82-1.27c1.71-.37,3.42-.76,5.12-1.14a44.27,44.27,0,0,1,4.81-.91c1-.12,2-.23,3-.28a11,11,0,0,1,5.52,1.32,14.71,14.71,0,0,1,3.48,2.46,10.31,10.31,0,0,1,2.94,6,10.59,10.59,0,0,1-.41,4.58,58.23,58.23,0,0,1,9.75-4.35,46.12,46.12,0,0,1,9.7-2.23c2.13-.22,4.39-.61,6.43.2a8.5,8.5,0,0,1,2.73,1.9,7.52,7.52,0,0,1,1.73,2.41,12.7,12.7,0,0,1,.75,2.41,11.33,11.33,0,0,1,.11,2.85,18.75,18.75,0,0,1-1.41,5.24c-.3.8-.64,1.59-1,2.37s-.63,1.35-1,2c1.2-.79,2.44-1.55,3.71-2.22a27.26,27.26,0,0,1,5.32-2,41.63,41.63,0,0,1,5.16-1.12,13,13,0,0,1,3.35-.26,10.3,10.3,0,0,1,5.48,2.09,10.46,10.46,0,0,1,3.54,5.55,10.79,10.79,0,0,1-.28,5.58,26,26,0,0,1-1.64,3.89c-.4.85-.81,1.69-1.23,2.53l2.08.49c3.49.84,6.88,2,10.28,3.16,1.67.54,3.35,1.06,5,1.54,1.94.55,3.87,1.08,5.77,1.74a79.42,79.42,0,0,1,10,4.72c3.36,1.73,6.74,3.45,9.93,5.47a104,104,0,0,1,9.18,6.74,92.37,92.37,0,0,1,8.53,7.65,52.73,52.73,0,0,1,7.64,10.12c.88,1.48,1.69,3,2.56,4.48,1,1.7,2.1,3.33,3.18,5a52.51,52.51,0,0,1,5.32,10.49c1.34,3.61,2.37,7.32,3.36,11a65.65,65.65,0,0,1,2.1,11.39,101,101,0,0,1,.54,12.05,84.58,84.58,0,0,1-1,11.45A129.83,129.83,0,0,1,611.18,324c-.82,2.54-1.7,5.08-2.77,7.53-.34.78-.73,1.55-1.13,2.3a4.68,4.68,0,0,1-1.71,2.14l-.36.19c.3.39.61.8.89,1.22a29,29,0,0,1,3,5.76,26.44,26.44,0,0,1,1,2.89,13.34,13.34,0,0,1,.34,5.86,14.23,14.23,0,0,1-2.7,6.1,22.61,22.61,0,0,1-4.25,4.27,22.38,22.38,0,0,1-4.53,2.54,21.11,21.11,0,0,1-2.55,1l-.67.22v.11a.69.69,0,0,1-.33.64c-.56,1.26-1.22,2.49-1.81,3.73-.87,1.79-1.69,3.6-2.42,5.45-1,2.9-1.8,5.87-2.7,8.81-1,3.21-2,6.4-3,9.63a94.6,94.6,0,0,0-2.19,9.42c-.59,3.36-1.16,6.73-1.67,10.1a37.73,37.73,0,0,0-.5,6c0,.38.05.76.1,1.14a4.59,4.59,0,0,1,0,2,2.67,2.67,0,0,1-.93,1.38,2.92,2.92,0,0,1-1.78.49,5.25,5.25,0,0,1-.56,0,6,6,0,0,1-2.87-1.13,9.35,9.35,0,0,1-2.6-2.86,17,17,0,0,1-1.45-3.56,39.32,39.32,0,0,1-1.2-4.81c-.29-1.51-.57-3-.82-4.53a77.72,77.72,0,0,0-1.91,8.39c-.06,1.57-.15,3.13-.2,4.7-.06,1.33-.06,2.67,0,4s.38,3,.68,4.46c.07.31.13.62.21.93l.18.66a3.65,3.65,0,0,1,.21,1.28,2.06,2.06,0,0,1-1.71,2,3.08,3.08,0,0,1-.61.05,5.1,5.1,0,0,1-2.75-1,6,6,0,0,1-2.35-3.06c-.25-.8-.5-1.61-.73-2.41-.34,1-.67,2.1-1,3.15-1.26,3.8-2.68,7.54-4.09,11.29-.1.26-.19.51-.28.76v0a0,0,0,0,0,0,0h0v0s0,0,0,0h0c0,.05,0,.1,0,.15v0a1,1,0,0,0,0,.1l0-.05-.07.18s0,0,0,0h0v0a.08.08,0,0,1,0,0c-.4,1.13-.8,2.26-1.21,3.38l.18-.5c-2.62,7.2-5.6,14.25-8.27,21.42-1.17,3.25-2.24,6.54-3.13,9.87-.42,1.54-.77,3.09-1.17,4.63-.16.61-.33,1.22-.51,1.82a3.88,3.88,0,0,1-.79,1.72,2.77,2.77,0,0,1-.79.52l0,0c.82.21,1.65.41,2.48.59,4.7.82,9.46,1.2,14.18,1.94,2.55.4,5.09.86,7.65,1.22,2.82.39,5.65.72,8.49,1.06,2.61.31,5.18.77,7.75,1.3,1.33.27,2.64.7,3.94,1.09s2.54.83,3.78,1.31c2.62,1,5.22,2,7.81,3.08,2.27.91,4.57,1.71,6.87,2.5,2.67.88,5.37,1.71,8,2.74a92.17,92.17,0,0,1,8.44,3.75c4.87,2.46,9.6,5.19,14.26,8a89,89,0,0,1,14.62,10.93,66.68,66.68,0,0,1,11.86,14.29,76.51,76.51,0,0,1,4.38,8.43c1.17,2.62,2.11,5.33,3,8a115.29,115.29,0,0,1,4.16,15.49,126.41,126.41,0,0,1,2.1,16.1c.17,2.81.33,5.62.32,8.43s-.11,5.6-.27,8.4c-.33,5.55-1,11.05-1.63,16.58-.63,5.78-1,11.59-1.66,17.38-.6,5.59-1.55,11.13-2.43,16.69-.93,5.8-1.79,11.62-2.75,17.42-.87,5.29-1.82,10.56-2.72,15.84-1,5.73-2,11.44-3.19,17.13s-2.35,11.51-3.43,17.28-2.11,11.59-3.18,17.38c-2,10.85-3.95,21.71-5.51,32.64-.8,5.65-1.6,11.3-2.49,16.94s-1.83,11.28-2.72,16.92c-1.57,10-3.23,20-4.64,30,0-.17.05-.35.08-.53-1.49,11.23-2.45,22.53-4.21,33.72-.87,5.57-1.83,11.12-2.72,16.69s-1.72,11.25-2.54,16.88c-1.22,8.2-2.42,16.41-3.55,24.62,0-.16,0-.32.07-.49-.55,4-1.09,8-1.65,12l-.06.41c-.58,4.38-1.16,8.76-1.66,13.15-.55,4.67-1,9.35-1.57,14-1,9-2.51,17.86-3.76,26.79-.59,4.57-1.1,9.14-1.76,13.7-.22,1.57-.45,3.13-.7,4.69,0,.36.08.73.11,1.09a58.77,58.77,0,0,1,.32,6.07c0,4-.05,8.11-.27,12.15s-.57,8.1-.86,12.14-.44,7.89-.69,11.83c-.56,8.75-1.66,17.42-2.85,26.1h0c-.12.87-.24,1.76-.36,2.65a.17.17,0,0,1,0-.07s0,.08,0,.11c0,.18,0,.36-.07.54l0-.19c-1,7.77-1.46,15.6-2.41,23.37-.48,4-1,7.91-1.42,11.88-.42,4.25-.74,8.5-1.11,12.75-.71,8-1.74,16-2.56,24s-1.52,16-2.42,23.94c-.23,2.08-.48,4.17-.76,6.25,0-.2,0-.41.08-.6-.19,1.4-.38,2.8-.58,4.2-.69,5-1.57,10-2.44,14.93q-1.37,7.71-2.44,15.44l.09-.58c-1.11,8.06-1.93,16.15-2.74,24.26s-1.94,16.08-2.89,24.12c-1.85,15.75-2.56,31.62-4.71,47.34-1,7.11-2.2,14.17-3.19,21.27-.1.76-.2,1.51-.29,2.26s-.14,1.7-.31,2.53c0,0,0,0,0,0a.09.09,0,0,1,0,0,2.26,2.26,0,0,1-.46.93,2.63,2.63,0,0,1-2,.81l-.51,0a5.38,5.38,0,0,1-1.78-.57,6.94,6.94,0,0,1-1.29.1c-.67,0-1.34-.06-2-.1-2.37-.12-4.75-.23-7.14-.37l.66,0c-3.52-.18-7,0-10.55,0-2,0-3.9,0-5.85-.06s-3.63-.06-5.44,0c-3.55,0-7.09.22-10.63.13-3.77-.09-7.54-.43-11.3-.69-3.44-.17-6.87-.16-10.32-.27-3.73-.13-7.45-.43-11.17-.67l.63,0-2.46-.14h0c-4.81-.27-9.64-.25-14.47-.31-4.43-.07-8.84-.29-13.26-.55v.15a2.76,2.76,0,0,1-1,2,34.7,34.7,0,0,0-.78,4l.09-.62c-.3,2.09-.5,4.19-.69,6.29.36,4,.77,8,.93,12.07s.27,8.21.23,12.32c0,3.86-.07,7.72-.16,11.58-.36,15.73-.86,31.45-1.4,47.17-.27,7.85-.4,15.7-.46,23.55-.07,8,0,16-.31,24.08-.13,3.76-.31,7.53-.64,11.28s-.78,7.7-1.17,11.55c-.76,7.73-1.4,15.47-2,23.22-.32,4.31-.6,8.63-1.12,12.93s-1.17,8.49-1.79,12.73c-.48,3.73-.91,7.45-1.16,11.21-.27,3.93-.44,7.86-.7,11.79s-.68,7.66-1.17,11.48-1,7.92-1.23,11.91-.35,8-.47,12.06c-.12,3.83-.3,7.66-.47,11.49-.34,7.83-.42,15.67-.89,23.49q-.68,11.4-2,22.73c-.42,3.68-.79,7.34-1,11s-.53,7.14-.92,10.7c-.22,2-.44,4-.54,5.94,0,1-.07,1.92-.09,2.87q0,.51,0,1l2.31,1.1c1.86.92,3.63,2,5.41,3.13s3.46,2,5.25,2.95c2.68,1.2,5.41,2.22,8.14,3.29s5.65,2.24,8.51,3.24c3.82,1.21,7.67,2.13,11.54,3.12s7.66,2.2,11.56,3c1.88.33,3.77.63,5.65.93,2.57.4,5.39,3,4.92,5.75a31.17,31.17,0,0,1-.89,3.85,17.12,17.12,0,0,1-7.23,9.87,22.34,22.34,0,0,1-4.69,2.81,30.48,30.48,0,0,1-5.64,1.51c-1.84.36-3.7.67-5.55,1-3.3.56-6.56,1.3-9.86,1.85a44.35,44.35,0,0,1-7.19.51c-1.05,0-2.11,0-3.17-.06-3.55-.11-7.1-.08-10.64-.33-3.1-.22-6.18-.57-9.29-.76-2.17-.09-4.34-.11-6.5-.22a41.57,41.57,0,0,1-7.53-1.1c-2.11-.5-4.16-1.24-6.23-1.87s-4.05-1.13-6.12-1.56a72.79,72.79,0,0,1-8.63-1.84,40.71,40.71,0,0,1-5.48-2.25,48.39,48.39,0,0,1-4.71-2.77c-1.28-.81-2.49-1.75-3.71-2.63s-2.45-1.82-3.66-2.75c-1.84-1.39-3.69-2.77-5.46-4.24,0,.45-.07.9-.1,1.34-.29,3.86-.67,7.7-1,11.55a99.76,99.76,0,0,0-.48,10.79c0,.68,0,1.35,0,2a5,5,0,0,1-.43,2.13,4,4,0,0,1-3.49,1.92l-1,0-1.11,0c-1.27,0-2.54-.07-3.8-.12-3.61-.14-7.2-.1-10.8-.4s-7.27-1.07-10.93-1.44a12.64,12.64,0,0,1-2.92-.54,6.79,6.79,0,0,1-1.64-.87,7.74,7.74,0,0,1-3-4,12,12,0,0,1-.28-2.31c-.06-.73-.14-1.45-.23-2.17-.2-1.79-.36-3.59-.52-5.39-.3-3.44-.63-6.87-.79-10.32-.17-3.61-.24-7.23-.17-10.85.08-4,.24-8,.32-12,.07-3.83,0-7.66.13-11.49.18-7.91.58-15.81,1.12-23.7.26-4,.56-7.92.73-11.88s.29-8,.36-12.07c.15-8.29.2-16.59.32-24.88s.5-16.63.83-24.94.53-16.63.72-24.94.47-16.81.85-25.21c.37-8.11.87-16.21,1-24.33.17-8.32-.28-16.63-.65-24.94s-.74-16.8-1.1-25.2q-1.05-24.75-1.45-49.52c-.11-7.89-.12-15.78-.29-23.67-.17-8.28-.57-16.55-.68-24.84-.13-8.51-.07-17,0-25.55.05-8-.08-16-.27-24-.11-4.29-.2-8.57-.24-12.86,0-1.83,0-3.67,0-5.5h-.14c-2,0-3.93-.19-5.89-.31-1.73-.09-3.47-.11-5.2-.19-2.05-.11-4.1-.29-6.15-.42-2.37-.12-4.75-.14-7.12-.3s-4.81-.5-7.2-.83-4.53-.63-6.81-.88c-1.22-.12-2.44-.26-3.67-.36a18.62,18.62,0,0,1-2.88-.29l-.24-.05a4.3,4.3,0,0,1-.9-.35l-.08,0v0l-.1,0-.06,0h0l-.24-.16c-.86,8.53-1.66,17-2.59,25.56-.87,8-1.68,16-2.68,24-.52,4.13-1.06,8.25-1.67,12.37s-1.34,8.48-2.06,12.71c-1.32,7.91-2.76,15.8-4,23.72-1.26,8.08-2.3,16.19-3.49,24.28q-1.85,12.56-3.77,25.1c-1.26,8.44-2.69,16.85-4,25.29-1.41,9.2-2.84,18.39-4.13,27.61l.09-.6c-.91,6.83-1.69,13.68-2.69,20.5-1.06,7.17-2.28,14.32-3.33,21.48-1.08,8-1.9,16-2.76,24q-1.32,12.38-2.85,24.74c-1,8.31-2,16.62-2.75,25s-1.18,16.45-2,24.66c-.65,6.54-1.64,13-2.6,19.54q-1.38,9.38-2.7,18.75c-.91,6.68-1.92,13.33-3.18,19.95-1.12,5.92-2.34,11.81-3.22,17.77-.46,3.63-.86,7.25-1.35,10.86s-1.13,7.18-1.69,10.77c-.34,2.24-.79,4.45-1.29,6.67a10,10,0,0,1-.67,2.29c-.79,1.64-2.87,1.78-4.44,2-1.87.25-3.73.46-5.59.8s-3.67.72-5.51,1c-3.42.61-6.89.89-10.33,1.4-.83.12-1.65.27-2.47.44a7.7,7.7,0,0,1-1.51.19l-.54,0a7.32,7.32,0,0,1-4.24-2.35,6.9,6.9,0,0,1-1.82-3.53,17.35,17.35,0,0,1-.11-3.38c.07-2,.39-4.07.59-6.09.7-7,.58-14,1-20.94.1-1.67.24-3.35.38-5a72.45,72.45,0,0,1-6.36,8.51c-2.65,3-5.32,5.88-8,8.75-2.94,3.1-6.09,6-9.3,8.75-1.43,1.25-2.91,2.45-4.4,3.63a42.23,42.23,0,0,1-4.86,3.44,78.62,78.62,0,0,1-11.16,5.11c-3.76,1.48-7.54,2.88-11.39,4.1-2.13.67-4.26,1.3-6.43,1.83-1.84.44-3.72.8-5.58,1.11a86.88,86.88,0,0,1-9.79,1c-1.42.08-2.82.12-4.23.12S120,1762.33,118.48,1762.26ZM561.6,1335.49l1.25.08,2.68.15,2.32.14h.1l.16-.07.24-.16a2.46,2.46,0,0,1,1.55-2.06c.21-1.35.45-2.71.68-4.06l.15-.83.3-1.71c.67-3.93,1.27-7.74,1.8-11.34.9-7,1.66-14.63,2.33-23.42l.27-3.79c.2-2.74.39-5.48.62-8.22.32-3.87.72-7.81,1.1-11.63l.07-.73c.37-3.69.77-7.38,1.16-11.07q.72-6.68,1.39-13.35l.21-2.24c.67-7,1.36-14.25,2.27-21.35.59-4.63,1.38-10.71,2.37-16.75l0-.34c.86-5.23,1.74-10.63,2.51-16,1-7.42,1.65-14.45,2.49-23.59.69-7.53,1.5-15.55,2.49-24.49.45-4.23.84-8.34,1.14-12.22.13-1.65.24-3.3.36-5l.05-.75c.16-2.15.31-4.3.5-6.45s.43-4.51.67-6.76c.18-1.73.36-3.45.53-5.18s.33-3.74.49-5.61l.05-.63c.15-1.84.3-3.68.49-5.52.67-6.78,1.65-13.62,2.6-20.25l.42-2.89c.46-3.51.91-7.13,1.35-11.07.27-2.46.5-4.92.73-7.38.14-1.56.28-3.12.44-4.68.69-7,1.91-13.94,3.1-20.68l.37-2.17a4.25,4.25,0,0,1-1.38-2.77,2.5,2.5,0,0,1,.07-.54c.28-1.13.47-2.32.65-3.45l0-.19.24-1.48q.48-2.73.88-5.49c.45-3.43.83-6.93,1.2-10.33l0-.17.22-2c.38-3.52.82-7.18,1.35-11.34,0-.19,0-.37.07-.56.12-.94.26-1.89.39-2.83l0,.2,0-.13v.13l0-.41.39-2.75c.93-6.89,1.67-13.92,2.39-20.72l.09-.92q.32-3.09.65-6.18c.61-5.7,1.33-11.14,2-16,0-.08,0-.17,0-.25.29-2.17.6-4.34.9-6.51h0l.07-.46.72-5.17.07-.48c0-.26.06-.51.1-.76l.06-.48.06-.41.1-.74.09-.62,0-.25,0-.22a8,8,0,0,1,.14-1.07l.08-.5.28-2,.13-.94.57-4.24c.54-4,1.08-8,1.65-12v-.24a.24.24,0,0,0,0-.09h0v.1l.35-2.53.18-1.32c.73-5.38,1.58-10.76,2.4-16l0-.15c.53-3.43,1.08-6.87,1.56-10.29h0v0h0a.07.07,0,0,0,0-.05l.05-.1.15-1.18.1-.74.13-.88,0-.16,0-.33,0-.23v.08c.48-3.55,1-7.49,1.46-12.37.16-1.55.31-3.1.46-4.64l.06-.59c.26-2.68.53-5.36.85-8,.94-7.89,2-16,3-23.18l.11-.83.36-2.6h0v.15l.3-2.2.31-2.26,0-.18c.79-5.79,1.64-11.56,2.5-17.34l.23-1.59c.7-4.81,1.41-9.62,2.08-14.45,1.57-11.39,3.51-22.76,5.38-33.35l.75-4.26.08-.48c1.72-9.78,3.5-19.9,5.53-29.8q.88-4.26,1.71-8.52c.41-2.12.76-4.28,1.11-6.43l.29-1.83,1-6.23.15-.87c.5-3.15,1-6.31,1.54-9.46.79-4.76,1.55-9.54,2.3-14.31l.05-.26.21-1.4c.28-1.76.56-3.53.85-5.29l.19-1.22c.47-2.93.94-5.86,1.38-8.81.49-4,.92-8.17,1.31-12.81.4-4.8,1-9.64,1.42-13.53.52-4.47.91-8.9,1.17-13.19.11-2.14.17-4.24.17-6.41,0-1.94,0-4-.15-6.18-.18-2.69-.4-5.81-.78-8.9-.32-2.56-.78-5.37-1.45-8.87-.68-3.1-1.3-5.64-2-8s-1.46-4.89-2.6-8.18c-.52-1.37-1.05-2.74-1.61-4.1-.46-1.13-1-2.21-1.59-3.4l-.21-.42c-1.05-1.87-2.14-3.69-3.37-5.57-.88-1.19-1.77-2.36-2.69-3.51-1.34-1.53-2.78-3.06-4.27-4.57s-3.26-2.91-5-4.36c-1.09-.83-2.2-1.65-3.32-2.45-.94-.67-1.94-1.28-2.9-1.88l-.19-.11-.72-.44c-4.59-2.75-10.67-6.3-17-9.36-2.7-1.19-4.82-2-6.85-2.74l-2.83-1-.52-.17c-1.32-.45-2.64-.9-4-1.37-2.49-.91-5-1.92-7.42-2.9l-.21-.08c-2.26-.93-4.83-2-7.38-2.9-1.94-.61-3.81-1.13-5.76-1.59s-3.83-.65-5.75-.95-4-.64-6-1c-4.27-.79-8.53-1.89-12.64-3l-.26-.06-.18,0c-3.87-1-7.88-2.06-11.74-3.49-.86-.33-1.74-.72-2.79-1.23a2.36,2.36,0,0,1-1.53.9,5.45,5.45,0,0,1-.9.06,13.14,13.14,0,0,1-1.53-.12H535l-.92-.18.06.1h0a4.19,4.19,0,0,1,.47,2.15c0,.22,0,.44,0,.64l0,.17c0,.89-.09,1.77-.19,2.65-.2,1.93-.42,3.86-.68,5.78-.53,4-1.14,8.09-1.67,11.57q-.82,5.48-1.57,11l-.32,2.4c-.4,2.94-.81,6-1.39,8.93-1.18,6.14-2.56,12.36-3.9,18.38l-.91,4.16c-.68,3.07-1.38,6.12-2.08,9.17-1,4.17-1.88,8.23-2.72,12.2l-.84,4c-1.19,5.62-2.53,12-3.95,18.13-1.51,6.42-3,13.22-4.65,21.41l-.33,1.59-.19.92c-.54,2.62-1.09,5.32-1.69,7.95l-1.29,5.45-.22.9c-.37,1.51-.73,3-1.07,4.53-.85,3.69-1.6,7.45-2.26,10.77l-.06.29c-.7,3.53-1.43,7.17-2.25,10.72s-1.88,7.11-2.88,10.54-2,6.83-2.81,10.3c-.9,3.85-1.63,7.72-2.43,12l-.07.37c-.57,3.08-1.17,6.26-1.84,9.38-.4,1.82-.85,3.63-1.29,5.43l-.15.64c-.42,1.67-.83,3.34-1.21,5-.53,2.33-1,4.67-1.56,7.05l-.73,3.3-.1.47c-.74,3.31-1.5,6.72-2.44,10.06q-.64,2.26-1.29,4.5l-.64,2.25-1,3.4c-1,3.47-2,6.87-2.83,10.32-.75,3-1.6,6.45-2.16,9.9L474.7,774c-.19,1.24-.39,2.48-.62,3.71-.36,1.93-.83,3.92-1.17,5.37l-.19.91,0,.14-.18.76v0l0,0v0l.66-1,.66-1,.59-.89c1.86-2.83,3.79-5.76,5.58-8.7,2.23-3.64,4.1-6.86,5.72-9.84l1.24-2.26.61-1.13c1.29-2.39,2.59-4.78,3.92-7.16,1.51-2.65,3.09-5.33,4.62-7.91l.16-.27.95-1.6c1.66-2.8,3.4-5.9,5.48-9.75,1.67-3.09,3.3-6.19,4.93-9.3l.2-.39.58-1.1c1.64-3.14,3.29-6.27,5-9.39,4.31-7.92,7.76-14.4,10.85-20.4,1.84-3.57,3.51-6.78,5.35-10l.84-1.47.88-1.54c1.27-2.2,2.71-4.69,4-7.19,2-3.79,3.81-7.18,5.35-10.35.82-1.69,1.64-3.39,2.45-5.08l.71-1.46c.58-1.21,1.16-2.42,1.75-3.63,1.61-3.28,3.38-6.56,4.94-9.46l.18-.34c1.74-3.26,3.56-6.63,5.18-10,1.44-3,2.73-6.26,3.86-9.11l1-2.41c.74-1.8,1.46-3.6,2.18-5.4.28-.69.54-1.38.81-2.07l.08-.22c.37-1,.75-2,1.15-2.94a2,2,0,0,1,1.89-1,4.77,4.77,0,0,1,2.56.89,4.84,4.84,0,0,1,2.27,3.65,2.7,2.7,0,0,1-.19,1l-1.26,3-.35.87c-.8,1.9-1.61,3.81-2.37,5.74l-.9,2.22-.11.27c-1.06,2.65-2.13,5.31-3.24,7.94-1.66,3.92-3.68,7.74-5.65,11.49l-.15.28c-1.38,2.62-2.81,5.34-4.09,8.06-1,2.09-1.92,4.2-2.86,6.31l-.12.25-.06.14c-2,4.53-4.12,9.22-6.58,13.62-1.74,3.08-3.65,6.27-5.18,8.83l-.13.2c-2.18,3.66-4.45,7.45-6.5,11.27s-4,7.59-5.92,11.3l-.16.32-.65,1.26c-1.33,2.55-2.65,5.11-4,7.66-3.83,7.23-7.27,13.76-10.66,20.34-2.93,5.71-6.2,11.32-9.35,16.74l-2,3.4c-1.59,2.74-3.15,5.64-4.53,8.2-2,3.72-4.08,7.57-6.34,11.25-2.42,3.93-5,7.85-7.49,11.64l-.29.45-.42.63c-1.44,2.2-2.87,4.38-4.28,6.59-4.78,7.42-8.82,13.91-12.35,19.82-1.48,2.47-3,5.09-4.17,7.21-1.83,3.23-3.86,6.81-6,10.27-.42.67-.85,1.33-1.28,2l0-.07s0,.06-.05.09l0-.09,0,0,0,0-1.37,2.07c-1.41,2.11-2.9,4.21-4.21,6.07l-.85,1.2-1.19,1.7-2.34,3.41-.2.29c-1.24,1.82-2.52,3.7-3.82,5.51s-2.33,3.08-3.42,4.31a22.05,22.05,0,0,1-2.28,2.26,5.86,5.86,0,0,1-2.3,1.24,6.77,6.77,0,0,1-1.37.26,5.63,5.63,0,0,1-.71,0c-.44,0-.88,0-1.32-.08a10.64,10.64,0,0,1-4.91-2,29.92,29.92,0,0,1-2.61-2,53.63,53.63,0,0,1-3.92-3.8c-.34-.36-.67-.72-1.07-1.18l-.15-.14,0,0,.1.09,0,0a0,0,0,0,1,0,0h0l.07.05a33.77,33.77,0,0,1-3.53-5c-.93-1.65-1.8-3.34-2.64-5.17-1.5-3.31-2.95-6.55-4.18-9.88-2.59-7.1-4.58-14.56-6.36-21.56-.94-3.77-1.8-7.45-2.53-11l-.16-.73-.14-.66-.46-2.13,0-.21-.08-.36-.2-1-.25-1.21c-.44-2-.9-4.11-1.36-6.17l-.31-1.38c-1-4.64-2.1-9.43-3-14.18-1-5.51-1.91-11.14-2.77-16.59l-.05-.34-.41-2.61-.47-3c-1.16-7.2-2.33-14.91-3.12-22.57l-.47-4.51-.78-7.53q-.33-2.92-.68-5.82l-.13-1.14c-.15-1.26-.31-2.52-.45-3.78-.6-5.22-1.06-10.2-1.42-15.1,0-.22,0-.44,0-.66-.08-1.15-.14-2.3-.2-3.45h0a.13.13,0,0,0,0,.06v0l0,0L378,685l0-.69c0-.71-.07-1.41-.1-2.11-.41-8.32-.72-16-.92-23.38v-.3q-.11-3-.19-6.05l0-.57c-.17-5.37-.35-10.93-.39-16.39v-1.59c0-2.3,0-4.62.07-6.87l0-2.82c0-.75,0-1.52,0-2.28,0-2.27,0-4.56-.08-6.79l0-2.27c0-2.27-.06-4.46-.06-6.59,0-5.36.12-10.36.35-15.25l0-.5,0-1.42v0h0V589c-.43.06-.87.12-1.32.2a2.86,2.86,0,0,1-1.31,1.12,3.9,3.9,0,0,1-1.48.27,6.38,6.38,0,0,1-2.19-.43c-1.36.33-2.64.64-4,.87-.8.16-1.59.27-2.38.39l-.34.05-.78.12-.67.1c-1.66.26-3.31.58-5,.9l-.19,0-3,.55c-2.88.52-5.71,1.1-8.43,1.71-1.78.4-3.63.73-5.52,1.07-1.12.2-2.24.39-3.35.61l-2.25.48-.53.12-1.49.33c-1.33.29-2.71.52-4.49.77-3.05.44-6.13,1-9.16,1.66-2.36.51-4.72,1-7.08,1.47l-1.86.38c-3.07.62-6.23,1.41-9.41,2.36-3,.88-6.45,1.88-10,2.69-1.38.31-2.88.59-4.72.89l-.69.11-.36.06,0,.44c0,.44.07.88.1,1.32l0,.63.07.94.15,1.92,0,.26c.09,1.19.18,2.38.26,3.57l.4,5.45.17,2.31c.1,1.5.21,3,.32,4.5q.48,6.18.94,12.38c.27,3.65.42,7.59.48,12.43,0,.74,0,1.49,0,2.24,0,2-.05,4.07-.08,6.07l0,.61-.06,3.13c-.06,3.58-.08,7.2-.08,11.42,0,7.72.17,15.73.49,23.84l.15,3.79c.28,7.11.55,14.07.67,20.89,0,2.1.07,4.21.1,6.31l0,1.09c.08,5.3.16,10.78.35,16.16.09,2.56.21,5.13.33,7.69l.06,1.22c.22,3.68.5,8,.84,12.24.33,3.8.7,7.63,1.1,11.39.46,4.2.87,8,1.36,11.82.3,2.31.61,4.64.92,6.95l.2,1.45c.18,1.32.36,2.64.52,3.95.79,6,1.3,12.11,1.78,18l.16,1.9c.11,1.27.22,2.53.32,3.78.41,4.57.81,8.32,1.26,11.81.58,4.37,1.29,8.72,1.9,12.41.69,4,1.49,8,2.27,11.58.14.71.29,1.41.44,2.11l0-.1,0,.07,0-.06c.79,3.65,1.52,6.95,2.45,10.31,1,3.57,2,7.14,3.14,10.62,1,3,2,6.08,3.28,9.68s2.44,7,3.7,10.44l.08.24.05.14.37,1c.59,1.55,1.25,3.29,2,4.94.81,1.89,1.69,3.79,2.7,5.8,1.66,3,3.6,6.21,5.93,9.72.95,1.39,1.92,2.76,2.91,4.13.84,1.14,1.78,2.25,2.68,3.32l.11.13c1.17,1.29,2.29,2.46,3.43,3.62l.16.15.15.15.37.35.39.37.22.21c1.61,1.53,3.38,2.93,5.09,4.29l.16.13c3.57,2.7,6.9,5,10.19,7.09,4.28,2.55,8.58,4.86,12.78,6.86,2.33,1,4.54,1.91,6.75,2.72,3.38,1.09,6.54,2,9.67,2.7,3.44.78,7,1.56,10.57,2.3,1.78.34,4.13.76,6.57,1.06,2,.24,4.11.39,6.4.53,3.4.13,6.18.2,8.74.2h.56c2.95,0,5.83-.11,9.29-.23,5.17-.18,12-.45,18.54-1,1.78-.2,3.52-.42,5.31-.69,1.51-.24,3-.63,4.58-1l.81-.22c4.11-1.24,8.45-2.69,13.27-4.45,2.34-.85,4.45-1.63,6.54-2.58s4.38-2,6.6-3.24a95.7,95.7,0,0,0,11.75-8c2.94-2.35,5.88-4.8,8.76-7.31l.21-.18,1.85-1.61v0l0,0,0,.06,0,0,0,.05.43-.4.44-.39.35-.32.39-.36.18-.16,0-.06h0a78.38,78.38,0,0,0,10.27-12.14c3.28-4.54,6.23-8.65,9.08-12.86,1.86-2.93,3.56-5.91,5.15-8.72,2.15-3.8,4-6.94,5.76-9.89,2.4-4,5.16-7.78,7.87-11.51,1.4-1.93,3-4.11,4.48-6.3,2.59-4,5.08-8.11,7.49-12.1l.14-.24c1.55-2.56,3.09-5.11,4.67-7.65l.31-.51c2-3.16,4-6.42,5.85-9.71s3.7-6.71,5.7-10.62l.77-1.49c1.46-2.85,3-5.8,4.57-8.65.64-1.14,1.29-2.28,1.93-3.43l.86-1.52c1.09-1.91,2.18-3.83,3.24-5.76,2-3.54,3.8-7.05,5.44-10.45.91-1.85,1.76-3.78,2.62-5.75.68-1.54,1.36-3.08,2.07-4.6,1.65-3.49,3.49-7,5.47-10.55,1.85-3.25,3.81-6.73,5.65-10.38,3.14-6.21,6.27-12.92,10.14-21.77,1.71-3.87,3.23-7.63,4.62-11.11,1.49-3.72,3.07-7.35,4.56-10.74,3.68-8.37,6.82-15.59,9.6-22.07,1-2.39,2.09-4.76,3.16-7.13l.2-.43c2.2-4.92,4.49-10,6.35-15.09.29-.8.57-1.6.84-2.41.08-.22.15-.45.25-.78a13.15,13.15,0,0,1,.43-1.25,1.66,1.66,0,0,1,1.61-.89,4.17,4.17,0,0,1,1.87.49c1.21.66,2.52,2,2.5,3.52a2.21,2.21,0,0,1,0,.51,21.72,21.72,0,0,1-1.06,3.07l-.33.83c-.63,1.63-1.3,3.25-2,4.87q-1.67,3.93-3.38,7.85l-.23.55L641,704.58c-1.84,4.22-3.57,8.57-5.24,12.77l-.14.37q-1.73,4.32-3.49,8.63c-.92,2.22-1.85,4.43-2.79,6.65l-.07.18c-2.09,5-4.24,10.09-6.21,15.18-3.13,8-6.23,15.68-9.21,22.67-1.35,3.18-2.95,6.61-5,10.79-1.31,2.62-2.73,5.2-4.2,7.84l-.44.81-1,1.84c-2.09,3.83-3.91,7.86-5.1,10.55l-1.19,2.73-.24.54c-1,2.36-2.05,4.8-3.2,7.15-1.69,3.46-3.55,7-5.52,10.62-.69,1.25-1.39,2.51-2.09,3.75l-.4.72c-1.15,2.06-2.3,4.11-3.39,6.19-1,1.84-1.9,3.7-2.83,5.57l-.21.41-.21.43c-.64,1.3-1.28,2.59-1.94,3.87-1.89,3.69-3.9,7.33-6,10.83-1.13,1.91-2.31,3.8-3.48,5.69l-.14.23c-.83,1.34-1.66,2.67-2.47,4-1.81,3-3.68,6.11-6.06,10.21-2,3.47-4.18,6.85-6.57,10.34-.8,1.16-1.66,2.29-2.49,3.39l-1,1.34c-1.21,1.61-2.38,3.24-3.55,4.87-.33.45-.65.92-1,1.39l-.19.28-.5.72c-1.95,3-4,6.23-6.31,10.18-.56.94-1.11,1.89-1.66,2.84l-.09.15c-1.32,2.28-2.69,4.63-4.16,6.87-2.27,3.43-4.81,6.86-7,9.89l-.84,1.16-.83,1.13c-1.6,2.21-3.41,4.71-5.33,7-1.58,1.87-2.92,3.35-4.21,4.65-1.55,1.56-3.22,3.07-4.65,4.33-2.3,2-4.73,4-7.18,6l-1.75,1.43c-2.94,2.42-6,4.72-9.46,7-1.45,1-3,1.88-4.32,2.62l-.73.41a59.74,59.74,0,0,1-5.39,2.75c-3.32,1.47-6.88,2.87-11.22,4.39l-4.63,1.58-1,.36c-1.74.58-3.72,1.25-5.71,1.77l-.63.17-.19,0a45.41,45.41,0,0,1-4.82,1.08c-.78.12-1.56.24-2.37.38l-.25,0h0c0,.6-.07,1.19-.09,1.78-.09,2-.17,4-.22,6-.11,3.72-.23,7.69-.47,11.61-.44,7.09-1.25,14.67-2.62,24.54-.11.89-.24,1.77-.36,2.64l-.39,3.08-.24,1.87c-.29,2.26-.59,4.52-.87,6.79s-.54,4.66-.8,7c-.16,1.43-.32,2.86-.49,4.29-.86,7.55-1.76,15.57-2.35,23.34l-.07,1.08c-.24,3.21-.51,6.85-.87,10.44-.42,4.23-1,8.42-1.39,11.6l-.35,2.68,0,.35c-.9,6.76-1.82,13.76-2.61,20.66q-.3,2.73-.63,5.46-.36,3.13-.71,6.28c-.29,2.61-.55,5.24-.81,7.87l-.42,4.25c-.69,6.79-1.65,13.87-2.5,20.12l-.44,3.27c-.52,3.87-1,7.69-1.36,11.35-.41,3.89-.64,7.79-.86,11.78l-.26,4.94c-.32,6.13-.66,12.47-1.14,18.72l-.35,4.82c-1,13.73-2.11,27.93-2.55,42-.08,2.67-.13,5.35-.18,8v.59c-.1,4.73-.2,9.63-.49,14.43-.22,3.89-.55,7.87-.9,11.95l-.06.73c-.28,3.5-.58,7.12-.81,10.68-.27,4.6-.5,9.21-.67,13.7q-.12,3.32-.16,6.65v.8c0,.81,0,1.62,0,2.44s0,1.65.06,2.49c.74.06,1.49.14,2.23.22,1.69.19,3.38.42,5.19.66l2.59.35c1.7.2,3.4.46,5.1.71l.56.09c3.17.47,6.77,1,10.31,1.28,2.79.12,5.65.16,8.53.21l3,0c3.69.06,7.35.17,10.86.36s7.4.28,11.95.32l3.56,0c2.65,0,5.39,0,8.08.13,1.74.06,3.47.15,5.2.25l.69,0c2.84.16,6.38.35,9.75.37h2c1.91,0,3.89,0,5.83.1s3.61.17,5.46.29c.75,0,1.5.09,2.23.11h0l1.54.08c1.58.07,3.2.1,5,.1s3.31,0,5-.07,3.28-.07,4.92-.07,3.53,0,5.29.06l3.48,0c2.11,0,4.22,0,6.35-.07h.94C557,1335.21,559.55,1335.36,561.6,1335.49Zm-416.74-.33c3.23,0,6.52.1,9.7.2l1.87.06q2.3.06,4.59.06c2,0,4,0,6-.11,3.9-.16,7.91-.52,11.43-.85,4.41-.41,8.3-.65,11.91-.74,1.53,0,3.06-.06,4.58-.08,2.26,0,4.5-.06,6.75-.13,4.18-.15,8.55-.4,13-.74l3.78-.32c2.39-.2,4.79-.39,7.19-.55l4.2-.26c3.54-.2,7.21-.42,10.8-.77,2-.25,4.06-.53,6.08-.82s4.08-.57,6.12-.82c1.7-.2,3.4-.38,5.09-.54l1.59-.15.36,0a6.2,6.2,0,0,1,2.24.44l.26.11h0c.37-2.7.72-4.93,1.11-7,.34-1.87.71-3.73,1.09-5.59.3-1.49.6-3,.89-4.47.47-2.48.85-5,1.21-7.5l.41-2.68c.23-1.51.47-3,.71-4.54.31-1.91.63-3.82.91-5.75.49-3.76.84-7.8,1.08-12.34.18-3.55.5-7.15.8-10.63l.16-1.75c.32-3.7.72-8.32,1.24-12.73l.17-1.46c.45-3.69.9-7.51,1.25-11.28l.28-3.09c.3-3.36.6-6.72.94-10.09.27-2.65.56-5.31.84-8l.49-4.47c1.06-10.08,1.82-18.36,2.42-26,.26-3.41.5-6.83.75-10.24.38-5.34.77-10.86,1.24-16.29.8-9.43,1.54-17.33,2.59-25.23l.15-1.21c.12-.89.23-1.78.34-2.68,0,0,0,0,0-.06h0v-.1l0-.23v.17l.07-.52.1-.68.09-.69,0-.36v.11l.15-1.17c0-.22.06-.43.08-.64v.16c.83-6.33,1.63-12.9,2.44-20.07.58-5.17,1.2-10.59,1.89-16,.15-1.26.32-2.52.5-3.78a.11.11,0,0,0,0,0c0-.1,0-.2,0-.29v0a.2.2,0,0,0,0-.07h0a.2.2,0,0,1,0,.07v.23c1.05-7.8,2.23-15.73,3.36-23.39l.45-3,.37-2.54c.51-3.46,1-6.92,1.59-10.38q1-5.84,2-11.69l.22-1.24c.74-4.3,1.43-8.61,2.12-12.92s1.41-8.85,2.18-13.26c.9-5.19,1.88-10.46,2.83-15.56q.94-5.1,1.88-10.21c.61-3.37,1.15-6.82,1.67-10.15l.35-2.21c.46-2.94.92-5.86,1.39-8.8l.7-4.42c.24-1.53.47-3.06.7-4.6.41-2.64.8-5.28,1.26-7.92.61-3.57,1.4-7.38,2.57-12.32l.15-.64c.35-1.49.7-3,1-4.5l.07-.37c.16-.77.3-1.52.46-2.28,0-.19.09-.37.15-.56a84.46,84.46,0,0,1-5.29-9.8c-1.54-3.35-2.8-6.89-4-10.31l-.39-1.1c-.73-2-1.45-4.09-2.17-6.13l-1.75-5a205.93,205.93,0,0,1-6.69-22.17c-2-8.69-3.59-16.57-4.78-24.09-.62-3.86-1.25-8-1.73-12.13-.4-3.4-.76-7.12-1.13-11.69l-.26-3.2c-.23-2.92-.46-5.95-.77-8.91-.51-4.78-1-8.76-1.48-12.53-.28-2.07-.58-4.14-.87-6.21-.28-1.91-.55-3.83-.81-5.74-.47-3.49-.92-7.22-1.39-11.43-.43-3.92-.84-7.75-1.09-11.58-.31-4.28-.55-8.76-.72-13.27-.3-7.57-.43-15.27-.55-22.71l0-1.27c-.1-5.61-.22-10.22-.41-14.44,0-1.16-.1-2.32-.15-3.48v.08l0,.2c0-.29,0-.58,0-.87l0-1-.07-.89,0-.59a.15.15,0,0,1,0,.07V707l0,.14-.05-1h0c-.33-6.59-.72-15.29-.85-24.13-.11-7.16,0-14.69.26-23.11.13-4,.27-8.08.34-12.13.05-2.75,0-5.56,0-8.27,0-1.1-.05-2.21-.06-3.31-.08-7.07-.1-15.43.45-23.76.08-1.29.19-2.57.3-3.91a2.53,2.53,0,0,1-1.24-1.45,1,1,0,0,1,.47-1.22,8.7,8.7,0,0,1,.87-.26l.18-.07a1.68,1.68,0,0,1,.4-.88,1.2,1.2,0,0,1,.91-.37,2.58,2.58,0,0,1,1.2.35c.39-.16.77-.31,1.15-.48l1-.4a.19.19,0,0,1,0-.07h0a5.84,5.84,0,0,1,.06-1.91l0-.32c.11-.92.26-1.85.42-2.79.29-1.73.65-3.77,1.07-5.79.39-1.81.81-3.61,1.23-5.42.48-2,1-4.1,1.38-6.16.71-3.41,1.27-6.9,1.8-10.28.27-1.63.53-3.28.8-4.93,0-.1,0-.2.05-.3h0a6.91,6.91,0,0,1-1.71-.58,7.3,7.3,0,0,1-2.75-2.26,11.07,11.07,0,0,1-1.47-2.78,15.82,15.82,0,0,1-.66-3.52,21,21,0,0,1,.79-6.88,41.86,41.86,0,0,1,2.05-5.65c.89-2.12,1.6-3.72,2.32-5.21a53.47,53.47,0,0,1,6-10,29.94,29.94,0,0,1,2.29-2.63,27.65,27.65,0,0,1,2.93-2.44c1-.74,2.09-1.43,3-2,.49-.31,1-.61,1.51-.89a5.74,5.74,0,0,1,2.38-.93l.4,0c2.67,0,4.59,2.37,5.5,3.78l.33.53.05.09h0v0a26.84,26.84,0,0,1,2-3,31.89,31.89,0,0,1,3.66-4A24.24,24.24,0,0,1,325,513a23,23,0,0,1,5.55-2.32,4.79,4.79,0,0,1,1.09-.13,7.22,7.22,0,0,1,4.43,1.79,9.44,9.44,0,0,1,2.27,2.95l.27.58h0c.41-.64.82-1.26,1.33-2a22.84,22.84,0,0,1,1.59-2,16,16,0,0,1,2.33-2.09,16.84,16.84,0,0,1,4.64-2.4l.61-.2c-.37-2.77-.71-5.64-1-8.54-.16-1.51-.31-3-.47-4.56a3.67,3.67,0,0,1-1.1-.2,3.44,3.44,0,0,1-.28.66l.08.3c.06.23.13.45.21.68l.07.18.07.12a.39.39,0,0,1,.18.36c0,.06-.07.09-.16.09s-.37-.14-.54-.42a2.36,2.36,0,0,1-.29-.68.65.65,0,0,1,0-.13h0v0a1.56,1.56,0,0,1-.2.16,3.21,3.21,0,0,1-1.86.53,4,4,0,0,1-1.25-.19,59.86,59.86,0,0,0-6.22-1.64c-3.28-.61-6.64-1-9.89-1.41l-.81-.1c-2.84-.34-5.7-.83-8.47-1.3l-2.53-.43c-5.22-.87-10.54-1.68-15.68-2.46l-6.77-1-.93-.14c-3.08-.49-6.27-1-9.39-1.57-3.62-.68-7.22-1.4-10.75-2.12v0l-.18-.05-1.33-.27-.73-.14c-3.89-.74-7.87-1.37-11.72-2-3.36-.53-6.84-1.09-10.26-1.71-2-.37-4.06-.76-6.09-1.15l-5-.95c-4.12-.77-8.25-1.34-11.39-1.76-4.15-.54-8-1.15-11.88-1.87-2.94-.55-5.91-1.18-8.78-1.79l-3-.62c-3.76-.7-7.62-1.26-11.35-1.8l-2.38-.35c-3.31-.49-6.65-1.22-9.87-1.92-1.07-.23-2.15-.46-3.23-.67l-.86-.18h.12c-1.95-.38-3.91-.75-5.86-1.11-5.47-1-11.12-2.09-16.61-3.48-1.29-.32-2.57-.68-3.85-1l-1.15-.32-1-.27c-1.47-.4-3-.83-4.48-1.3-2.34-.76-4.22-1.42-5.94-2.07-1.53-.59-3-1.28-4.5-2l-.48-.22-.49-.23A57.06,57.06,0,0,1,119,448.8a21.81,21.81,0,0,1-7.61-10,24.69,24.69,0,0,1-1.52-6.11c-.16-1.77-.23-3.73-.23-6.15,0-3.92.25-7.73.5-10.94.29-3.75.73-7.55,1.16-11.22.31-2.59.61-5.17.87-7.76.34-3.53.78-6.74,1.33-9.82.48-2.75,1-5.68,1.44-8.63.25-1.9.48-3.81.71-5.73s.44-3.55.67-5.33c.33-2.56.71-5.11,1.08-7.65.19-1.28.37-2.55.54-3.83,0-.24.07-.49.1-.73V355l.22-1.73.24-1.66v.12c.54-3.92,1.24-8.06,2.28-13.41.43-2.22.83-4.22,1.33-6.24l0-.16q.35-1.33.66-2.67h0a6,6,0,0,1-2.44-2.37,8.28,8.28,0,0,1-.89-3.59c-.22-3.52-.33-7.05-.5-10.57-.33-6.86-.5-13.72-.8-20.58s-.88-13.65-1.44-20.46-.78-13.45-1.22-20.17c-.45-7-.93-14.08-1.22-21.14,0-1-.07-1.91-.1-2.87v-.17c-.16-5.33-.18-11.07-.05-17.53,0-2.13.08-4.26.12-6.4v0h0a25.1,25.1,0,0,1-3.25-.21c-1.38-.19-2.79-.29-4.15-.38-1-.06-2-.12-2.94-.23l-1.25-.12c-2.57-.27-5.14-.53-7.71-.75a38.45,38.45,0,0,1-5.63-.83c-.81-.2-1.6-.42-2.4-.65s-1.51-.43-2.29-.62-1.34-.2-2-.29c-.85-.12-1.69-.24-2.53-.4-1.19-.22-2.36-.48-3.53-.75l-1.49-.34c-1.83-.3-3.71-.47-5.52-.63-1.23-.1-2.46-.21-3.68-.37-1-.12-2.07-.29-3.16-.51l-.27-.05h0c-.15,1.79-.36,3.59-.57,5.33-.17,1.36-.32,2.73-.47,4.09-.31,2.84-.64,5.77-1.1,8.65-.76,4.76-1.53,8.69-2.42,12.37-.57,2.36-1.2,4.72-1.84,7.07q-.69,2.56-1.35,5.12l-1,3.79q-1.1,4.38-2.22,8.75-1,3.79-2,7.58c-.4,1.51-.82,3-1.22,4.54-1.26,4.73-2.24,9.6-3.2,14.3-.65,3.24-1.33,6.6-2.09,9.87s-1.55,6.58-2.34,9.87c-1.17,4.93-2.39,10-3.52,15.07-.85,3.76-1.7,7.8-2.7,12.69l-.61,3c-.65,3.13-1.29,6.26-1.87,9.4-.87,4.68-1.64,9.44-2.38,14.06-.6,3.78-1.21,7.56-1.88,11.33-1.3,7.38-2.85,15.29-4.73,24.17-.43,2.05-.87,4.09-1.32,6.14-1.34,6.18-2.72,12.56-3.78,18.91-.32,1.93-.61,3.87-.91,5.81s-.63,4.1-1,6.15c-.57,3.45-1.2,6.91-1.83,10.36l-.39,2.13c-.65,3.57-1.26,7.3-1.81,11.11l-.42,2.92s0,.07,0,.1v-.12l-.1.76-.11.73c0,.11,0,.22,0,.33-1.14,9.07-1.89,16.57-2.36,23.61-.25,3.87-.4,7.88-.45,11.89-.05,3.77.12,7.6.27,11.3v.27c.11,1.71.23,3.55.44,5.36.18,1.57.44,3.23.83,5.35.43,1.75.93,3.45,1.52,5.18.92,2.23,2,4.52,3.32,7.2,1.07,2,2.06,3.66,3,5.2.55.78,1.11,1.55,1.71,2.29.47.54,1,1,1.47,1.55,1,.92,2.1,1.81,3.18,2.69,4.31,3.24,8.21,6.14,12.35,8.82,2.83,1.64,6,3.28,9.55,5,7.78,3.53,15.88,6.47,22.78,8.87,9.13,3,16.21,5.09,22.95,6.68q4.4,1,8.77,2.11c4.81,1.17,9.79,2.38,14.71,3.47l2.42.47.33.06-.2,0,.66.13h-.05l.13,0h0c3.27.62,6.63,1,9.88,1.47l1.88.25c2.93.39,5.93.67,8.82,1l3.85.38c3.43.35,6.91.82,10.26,1.29l2.26.31c4.35.59,8.65.91,11.91,1.13l3.67.16c2.29.1,4.58.19,6.87.33,2.95.17,6.19.4,10.18.73l.76.07c3.13.26,6.27.52,9.4.85l3,.32,1.51.15c.3,0,.6.06.91.09a15.42,15.42,0,0,1,2.53.36,8,8,0,0,1,5.48,5.2,3.41,3.41,0,0,1-.47,3.14,2.92,2.92,0,0,1-1.06.76h0a9.33,9.33,0,0,1,.36,1.53,11.13,11.13,0,0,1,.11,2v.58a22.63,22.63,0,0,1-.12,2.48l-.06.68c-.06.83-.15,1.66-.23,2.49-.1,1-.2,2-.27,3-.14,2-.25,4.05-.34,6.08-.19,3.68-.59,7.63-1.25,12.07-.21,1.46-.43,2.93-.65,4.4-.32,2-.64,4.1-.93,6.16-.18,1.4-.36,2.82-.54,4.23-.35,2.7-.69,5.4-1.08,8.09-.56,3.84-1.21,7.93-2,12.88-.6,3.65-1.27,7.3-1.93,11l-.51,2.78c-.75,4.11-1.48,8.5-2.23,13.41-.37,2.74-.71,5.48-1.05,8.22-.59,4.77-1.2,9.7-2,14.53-1,6.14-2,12.28-3,18.42l-.9,5.32c-1.64,9.73-3.19,19.64-4.68,29.24q-1.42,9.13-2.88,18.3c-1.26,7.75-2.36,15.6-3.29,22.34l0-.18c-.18,1.33-.37,2.66-.54,4,0,.25-.07.5-.1.76l0-.26-.86,6.22c0,.35-.09.69-.15,1.09l0,.19,0,.19,0,.15-.15,1.12c-.11.81-.22,1.63-.34,2.47h0c-1,7.74-2,15.6-2.9,23.21-.72,6.05-1.5,12.1-2.27,18.14l-.74,5.75c-1.23,9.68-2.41,19.51-3.49,29.28-.35,3.12-.69,6.25-1,9.37h0q-.45,4.23-.88,8.46C166.32,917,165.53,925,165,933c-.21,2.91-.38,5.83-.56,8.75-.29,4.81-.59,9.78-1,14.66-.64,7.54-1.4,15.62-2.48,23.64-1.11,8.22-2.31,16.35-3.45,23.9-.19,1.26-.36,2.53-.54,3.8l-.24,1.69c-.86,6.88-1.64,13.89-2.39,20.68-.53,4.74-1.06,9.49-1.62,14.23-1.11,9.43-2.29,18.83-3.51,28.06l-1,7.5v-.1l-1.08,7.9c-.1.68-.19,1.37-.28,2.09a1.59,1.59,0,0,0-.05.32l-.15,1.07,0,.24,0,.23c-.89,6.68-1.74,13.87-2.78,23.3q-.84,7.81-1.73,15.64l-.85,7.68c-.59,5.32-1.13,10.65-1.67,16-1.06,10.42-2.14,21.19-3.63,31.74-.94,6.66-2.09,13.41-3.2,19.94l-.64,3.73c-1.16,6.87-2.28,14.25-3.63,23.94-.69,5.12-1.34,10.3-1.92,15.4-.36,3.1-.66,6.22-1,9.33-.15,1.56-.3,3.12-.46,4.67-1,9.43-2.24,18.9-3.48,27.61l-.12.93c-.07.48-.14,1-.19,1.46v-.08c-1.09,8-1.78,16.11-2.45,24l-.35,4c-.23,2.76-.38,5.57-.53,8.28-.08,1.45-.15,2.9-.25,4.36v.32l1.79,0h1.21a61.08,61.08,0,0,1,6.51.67c2.18.29,4.35.51,6.62.67,1.71,0,3.4.06,5.11.06,1,0,2,0,3,0s1.86,0,2.78,0Zm179.6-35.89c2.07,0,4.16.15,6.18.3l1.69.12c.86,0,1.72.07,2.58.1l1.8.06c1.06.05,2.12.12,3.19.2l1.73.12c1.12,0,2.24.07,3.36.07.79,0,1.58,0,2.39,0V1298c0-6.88,0-14,0-21s0-14.63.14-24.35.25-17.12.21-24.17c0-8.13.07-16.38.32-24.52q.18-6.7.37-13.42l.3-10.75.23-8.51c.16-5.67.31-11.35.48-17,.22-8,.45-16.57.46-25,0-7.7-.16-15.26-.41-24.25-.12-4.6-.15-8.13-.09-11.45.08-4.56.32-9.14.53-12.62.14-2.29.31-4.58.49-6.86l.27-3.66c.16-2.22.3-4.42.45-6.64l.3-4.42c.17-2.53.41-5,.64-7.57.44-4.84.9-9.85.95-14.8s-.14-10.23-.3-15.22c-.07-2.28-.15-4.56-.2-6.84-.17-6.63-.34-12-.54-16.94,0-1.17-.09-2.35-.14-3.53a.17.17,0,0,1,0,.07v-.07l0,.11V994h0a76,76,0,0,0-1-9.39c-.28-1.17-.6-2.29-1-3.43-.36-.94-.69-1.71-1.05-2.45-.15-.28-.31-.55-.47-.83s-.45-.63-.69-.93-.41-.45-.62-.67l-.42-.36c-.49-.36-1-.7-1.51-1s-1.3-.74-2-1.07c-.49-.22-1-.42-1.49-.6s-.76-.22-1.14-.32a15.35,15.35,0,0,1-3.39-1.2,35.38,35.38,0,0,0-3.54,1.6,2.94,2.94,0,0,0-.35.25l-.07.06h0v0l0,0a13.09,13.09,0,0,0-.31,1.38c-.14,1.24-.2,2.51-.25,3.74l0,.65c-.07,1.76-.2,3.64-.4,5.89-.36,4.19-.8,8.39-1.22,12.31-.83,7.94-2,15.74-3.53,23.17-1.41,6.9-3,15.08-4.36,23.39-1.35,8.48-2.6,16.76-3.68,24.62l-1,7.25q-.65,4.5-1.27,9c-1.13,8.51-1.83,16.9-2.37,24-.33,4.42-.71,8.84-1.1,13.26-.27,3.18-.55,6.36-.81,9.54-.48,6-.68,12.15-.87,18.08-.07,2-.14,4.11-.22,6.16-.2,5.22-.39,10.45-.57,15.66l-.33,8.94c-.29,8.12-.87,16.13-1.54,25-.55,7.24-1,15.07-1.58,24.64-.37,6.62-.89,15.36-1.7,24.25-.26,3-.6,6-.92,8.86l-.38,3.29-.71,6.62-.73,6.62q-1,9.22-1.95,18.46c0,.23,0,.45-.07.67v0c.58-.08,1.16-.13,1.75-.18.93-.08,1.88-.1,2.81-.11h1.7c1.63,0,3.24.06,4.77.13l.75,0h-.06l.81,0h-.1l1.8.11.79,0c1.66.08,3.46.12,5.66.12l2.36,0ZM425,856.18l.23.06.39,0,.18,0a3.27,3.27,0,0,0,.45-.1l.28-.11a8.85,8.85,0,0,0,1.05-.77,40.14,40.14,0,0,0,4.52-5.52c1.39-2,2.75-4,4.1-6s2.71-4,4.08-6,2.82-4.1,4.21-6.17c2.25-3.46,4.12-6.55,5.72-9.46l2.11-3.89c1.14-2.11,2.28-4.22,3.46-6.31,1.06-1.87,2.14-3.72,3.23-5.58a3.23,3.23,0,0,1-.06-1.71c.73-3,1.3-6,1.85-9,.43-2.25.86-4.58,1.36-6.86q.57-2.55,1.17-5.1c1-4.46,2.12-9.08,2.77-13.69.55-3.94,1.12-7.16,1.78-10.15.83-3.77,1.67-7.17,2.54-10.37l.49-1.78c1.68-6.07,3.4-12.34,4.76-18.59.77-3.56,1.57-7.25,2.42-10.85.45-1.92.93-3.82,1.42-5.72.42-1.65.84-3.3,1.24-4.94,1-4.06,1.73-8.24,2.47-12.28.57-3.18,1.17-6.47,1.87-9.68.87-4,2-8,3.11-11.83.85-3,1.74-6.1,2.5-9.18,1-4.1,1.85-8.28,2.69-12.33.63-3.08,1.28-6.27,2-9.38.48-2.16,1-4.31,1.54-6.46.36-1.41.7-2.83,1-4.24.69-2.88,1.27-5.83,1.82-8.68l.45-2.28c1.48-7.53,3-14.51,4.6-21.34,1-4.07,1.87-8.15,2.78-12.23.64-2.89,1.29-5.79,1.95-8.68,1.39-6,2.95-12.14,4.47-18l1.06-4.13c.41-1.6.81-3.21,1.22-4.82q.71-2.82,1.43-5.64c.3-1.18.61-2.35.92-3.52.62-2.41,1.25-4.81,1.83-7.21.89-3.71,1.73-7.43,2.57-11.15s1.68-7.47,2.58-11.19c.48-2,1-4,1.52-6q.68-2.57,1.32-5.14l.32-1.28c.38-1.55.77-3.09,1.12-4.64.21-.94.42-1.89.62-2.84h0a2.07,2.07,0,0,0,0-.22h0v0c-1.42.86-2.83,1.8-4.18,2.7l-.35.24c-2.14,1.43-4.26,2.9-6.3,4.39s-3.84,2.93-5.67,4.41l-.6.48c-2.36,1.88-4.28,3.49-6.07,5.08-1.62,1.53-3.18,3.17-4.56,4.61-1.57,1.64-3.19,3.16-5.16,4.95-2.34,2.16-4.51,4.43-6.55,6.57-1.85,1.95-3.68,3.91-5.51,5.88l-1.11,1.17c-3.86,4.14-8.37,9.06-12.5,14.25-4.28,5.4-8.25,10.93-11.56,15.63-4,5.63-7.7,10.61-11.37,15.22l-1.8,2.27c-1.23,1.53-2.45,3.06-3.66,4.61-.84,1.08-1.66,2.17-2.47,3.26l-.23.3L439.59,591c-.14.2-.3.4-.45.59l-.31.39a4.8,4.8,0,0,1-1.22,1.24,2.87,2.87,0,0,1-1.44.38,4.71,4.71,0,0,1-2.57-.9,5,5,0,0,1-2.4-4.16c0-.25,0-.51.06-.76l0-.3c.14-1.41.27-2.82.4-4.23l.25-2.72q.3-3.24.59-6.46c.33-4,.52-8,.7-11.93.13-2.67.25-5.34.42-8,.43-6.76,1.09-13.68,1.68-19.78.61-6.38,1.11-12.86,1.48-19.28.21-3.82.33-7.69.46-11.44l0-1.55c.06-1.55.12-3.11.12-4.66s0-2.83-.07-4.24c0-.27,0-.54,0-.8,0,0,0,0,0,0v0l-1,1.73c-.81,1.46-1.59,2.94-2.37,4.42-.69,1.31-1.38,2.62-2.09,3.91-1,1.78-2.06,3.55-3.11,5.26-.62,1-1.24,2-1.84,3A90.29,90.29,0,0,0,422.7,519l-1.31,2.89c-.91,2-1.82,4-2.75,6-1.4,3-2.75,5.89-4,8.79-2.64,6-5.14,12.11-7.42,18.07l-.64,1.69-1,2.66-.19.55-.15.4,0,.09,0-.07-.12.32-.08.24,0,.07h0v0c-2.17,5.94-4.18,12.28-6,18.85-.37,1.32-.69,2.66-1,4l-.11.46q-.24,1-.48,2l-.08.32a14.24,14.24,0,0,1-.73,2.23,2.37,2.37,0,0,1-2.21,1.34,5.92,5.92,0,0,1-4.82-3.19,17.24,17.24,0,0,1-1.09-2.66c-.45-1.4-.8-2.9-1.11-4.22l-.67-2.9c-.51-2.26-1-4.51-1.58-6.75-.82-3.33-1.88-6.65-2.81-9.58-.37-1.18-.78-2.36-1.19-3.53-.57-1.67-1.17-3.4-1.67-5.13a89.21,89.21,0,0,1-2.26-10.31c-.15-.86-.28-1.71-.42-2.57,0-.23-.07-.45-.1-.68v.11s0-.07,0-.11c0,.42,0,.85,0,1.27l0,1.19c.05,1.49.1,3,.1,4.46,0,2-.05,3.92-.11,5.88-.09,3.41-.23,6.84-.37,10.25-.17,4-.34,8.07-.43,12.11,0,1.24,0,2.47-.06,3.7s0,2.48-.07,3.71a2.35,2.35,0,0,0,0,.26l.51,0a6.29,6.29,0,0,1,5.34,3.72,3.26,3.26,0,0,1,.12,2.67,2.15,2.15,0,0,1-.92.92,1.9,1.9,0,0,1,.26.84,11.49,11.49,0,0,1,.18,1.45l.05.58.33,2.95.33,2.84.33,2.83c.45,3.92.8,7.88,1.08,11.23.32,3.78.6,7.79.85,11.91.18,2.83.24,5.71.3,8.5l.07,2.92c.1,3.68.23,7.36.36,11,.15,4.12.29,8.24.39,12.36.2,7.7.46,15.39.76,22.86.1,2.48.22,5,.33,7.46.26,4.69.49,8.27.74,11.61s.61,6.48.95,9.63l.14,1.23c.44,3.94.85,7.95,1.22,11.92l.22,2.41c.25,2.78.52,5.65.85,8.47,1,8.41,2.22,16.64,3.19,22.86.28,1.81.55,3.61.82,5.42.85,5.6,1.71,11.4,2.86,17l.13.67.81,3.93.23,1.05c1,4.61,2,9.21,3,13.82l.24,1.11.23,1.11a1.06,1.06,0,0,0,0,.19l.38,1.8c1,4.53,2.14,9.36,3.78,15.67,1.53,5.85,2.89,10.74,4.59,15.59a121.94,121.94,0,0,0,5.37,12.51c.68,1.22,1.26,2.21,1.84,3.12.33.44.67.87,1,1.31,1.11,1.26,2.3,2.51,3.53,3.72.36.32.72.64,1.1.94s.5.36.76.53l-.11-.06-.13-.08.09.06-.09,0A5.84,5.84,0,0,0,425,856.18Zm-124.58-305a7.61,7.61,0,0,1,2.5,2.92,4.35,4.35,0,0,1,.3,2.53q-.09.57-.21,1.14c-.22,1-.47,2-.71,3l-.31,1.28c-.84,3.54-1.71,7.2-2.5,10.8s-1.77,7.29-3,11.31c-1,3.27-2.24,6.53-3.44,9.67l-.54,1.42c-.38,1-.75,2-1.12,3-.26.7-.5,1.4-.74,2.1,0,0,0,0,0,0h0l2.23-1c1.31-.58,2.62-1.17,4-1.74a63.33,63.33,0,0,1,9-3c2.2-.57,4.42-1.1,6.64-1.62l2.18-.52c2.83-.68,5.82-1.24,9.12-1.71,1.63-.24,3.08-.51,4.44-.82l1.64-.4c.87-.21,1.72-.42,2.59-.61,1.27-.28,2.55-.54,3.83-.8,1.64-.32,3.28-.65,4.92-1,2.89-.67,5.79-1.18,8.48-1.63l3.34-.58c2.7-.46,5.49-.95,8.26-1.35,1.22-.18,2.43-.45,3.68-.73,0-2.33.14-4.69.26-7,.05-.94.1-1.88.14-2.82.12-2.76.29-5.52.45-8.28L366,562c.21-3.74.49-7.46.85-11l.2-2.05c.3-3.06.62-6.22.85-9.34.08-1.14.15-2.28.22-3.42.06-.89.11-1.78.18-2.67.12-1.65.3-3.28.48-4.92l.13-1.27c.21-1.87.43-4.09.54-6.35.06-1.5.07-3.07,0-4.87,0-.38,0-.75-.05-1.13l0,.11c0-.15,0-.29,0-.43s0-.28-.05-.43,0-.09,0-.13h0a31.79,31.79,0,0,0-2.44,2.8c-.78,1-1.58,2.06-2.59,3.49a31.79,31.79,0,0,0-2.88,5.7c-.18.53-.36,1.06-.5,1.61a2.25,2.25,0,0,1-.48,1.44,2.34,2.34,0,0,1-1.74.72,2.45,2.45,0,0,1-.46,0A5.77,5.77,0,0,1,355,528a4.21,4.21,0,0,1-1.33-3.27c0-.31,0-.62.05-.93l0-.52c.09-1.54.12-2.93.08-4.23-.05-.75-.11-1.49-.21-2.24a7.35,7.35,0,0,1-3.2-2.94c-.17.08-.34.16-.61.31a18.63,18.63,0,0,0-2.2,1.55,26,26,0,0,0-3,3.79c-1.06,1.64-2,3.21-2.78,4.77a36.36,36.36,0,0,0-1.75,4.19l-.32.88c-.17.45-.32.9-.45,1.36s-.13.81-.2,1.22l0,.27a4.1,4.1,0,0,1-.14.73,2,2,0,0,1-1.09,1.27,2.36,2.36,0,0,1-.92.18,5,5,0,0,1-1.57-.32c-1.66-.57-3.46-2.51-3.39-4.4a5.69,5.69,0,0,1,.19-1.21c.18-1.05.39-2.09.61-3.13s.48-2.28.67-3.44a23.92,23.92,0,0,0,.15-2.87c-.06-.68-.14-1.35-.26-2l-.08-.26a.06.06,0,0,1,0,0h0a32.84,32.84,0,0,0-3.12,1.37,21.21,21.21,0,0,0-2.68,1.85l-.53.44,0-.05.06-.07c-1,.88-1.89,1.78-2.76,2.68a26.12,26.12,0,0,0-2.47,3.12,52.88,52.88,0,0,0-4.55,8.88c-.07.19-.13.38-.2.59s0,.29,0,.44V536a5.46,5.46,0,0,1-.51,2,1.9,1.9,0,0,1-1.74,1,5.31,5.31,0,0,1-3.39-1.66,4.35,4.35,0,0,1-1.23-2.35,5.06,5.06,0,0,1,.26-2.08c.12-.37.24-.73.38-1.1a30.48,30.48,0,0,0,.22-3.59,24.68,24.68,0,0,0-.33-2.61c-.07-.26-.14-.52-.23-.78,0,0,0,0,0,0h0a34.59,34.59,0,0,0-4.3,3.16c-.37.3-.72.62-1.08.93l.11-.11-.15.15-.11.1.08-.07a36.21,36.21,0,0,0-3.91,4.86,46.4,46.4,0,0,0-3.72,6.67c-1.16,2.61-2.14,5.22-3,7.43-.38,1.13-.81,2.4-1.17,3.78-.19.72-.37,1.45-.52,2.19a.45.45,0,0,0,0,.11v0l1.15-1.54a8.86,8.86,0,0,1,1.73-1.86,2.79,2.79,0,0,1,1.68-.5A5.68,5.68,0,0,1,300.4,551.17Zm143.75-44.93c0,3.05,0,6.1-.11,9.15q-.24,9.9-1,19.78c-.49,6.55-1.09,13.08-1.54,19.62s-.73,13.18-1.2,19.76c-.06.91-.14,1.83-.23,2.74.86-1.06,1.72-2.12,2.57-3.19,3.39-4.28,6.57-8.71,9.62-13.23l-.06.09.06-.09,0,0v0a0,0,0,0,0,0,0h0l0,0,.09-.14c1.76-2.66,3.48-5.34,5.22-8s3.64-5.32,5.53-7.93,3.78-5.1,5.82-7.53,4.2-4.82,6.35-7.2,4.31-4.65,6.49-7,4.3-4.6,6.53-6.83,4.47-4.19,6.6-6.4c1.07-1.11,2.11-2.24,3.21-3.31s2.5-2.35,3.8-3.48c1.93-1.67,4-3.21,6-4.79s4.11-3.18,6.25-4.67c2-1.38,4-2.7,6-4l.8-.53-3.63-.36c-3.67-.39-7.32-1-11-1.36-7.35-.71-14.74-1-22.07-1.8-3.67-.4-7.32-.89-11-1.3-3.86-.42-7.72-.8-11.59-1.1-3.59-.3-7.2-.47-10.8-.8-3.39-.32-6.77-.7-10.15-1.08,1.75,1.66,2.26,4.3,2.57,6.63.25,1.88.47,3.79.58,5.7h0a1.09,1.09,0,0,0,0,.18s0,0,0,0,0,.1,0,.16q0,1.23.12,2.46h0v.14a1.27,1.27,0,0,1,0,.2v0C444.24,499.79,444.18,503,444.15,506.24Zm-58.81,41.52.12.57c.49,1.9.91,3.47,1.33,4.91.36,1.23.78,2.46,1.2,3.64l.29.84c1.17,3.44,2.16,6.52,3,9.42.59,2.07,1.18,4.34,1.77,7,0,0,0,0,0,0v0s0,0,0-.06h0s0-.08,0-.08c.95-3,1.94-6,2.94-9l.22-.68c2.09-6.29,4.39-12.38,6.55-18,2.31-6,4.84-12.18,7.53-18.38.71-1.64,1.45-3.27,2.19-4.89.6-1.31,1.19-2.62,1.83-4.06,1.26-2.86,2.56-5.82,4-8.67s3-5.48,4.57-8.1l.15-.27c1.63-2.73,3.1-5.51,4.45-8.11s2.94-5.44,4.73-8.42l.29-.49c.66-1.1,1.34-2.24,2.09-3.3a8.48,8.48,0,0,1,.63-.76l.14-.14h0c-1.73-.16-3.47-.31-5.2-.45l-2.16-.19c-3.08-.25-6.21-.61-9.23-1l-1.9-.22c-2.74-.31-5.47-.57-8.21-.83-4.38-.42-8.9-.85-13.34-1.49-2.13-.31-4.26-.59-6.41-.88l-3.46-.47c-1-.14-2.06-.34-3.09-.54l-1.2-.23-.77-.14-1.2-.2c-.3-.06-.61-.11-.9-.18l0,.07h0a1.27,1.27,0,0,1,.06.93.74.74,0,0,1-.41.42,2,2,0,0,1-.39.09l-.05.41-.05.42a66.16,66.16,0,0,1-1.58,7.95l.24,1.68.2,1.46c.45,3.31.8,6.63,1.12,9.75.69,6.75,1.34,12.83,2.36,19,.41,2.48.86,4.95,1.31,7.42.47,2.65.95,5.29,1.38,7.94q.58,3.64,1.15,7.29l.05.34.07.42c.33,2.16.68,4.4,1.12,6.56h0l.05.23.17.81.09.36,0,.13,0-.14,0,.14-.05-.19Zm-32.7-104.15c.08,2.46.1,4.91.19,7.37.19,3.47.64,6.93,1,10.39s.59,6.66.86,10,.44,6.73.75,10.09c.3,3.18.55,6.34.75,9.52.27,4.27.71,8.51,1.12,12.75.28,2.81.6,5.6,1,8.39a16.82,16.82,0,0,1,.93,2.15c0,.13.1.25.14.39,1-1.24,2.06-2.42,3.14-3.56.56-.6,1.13-1.21,1.74-1.75-.37-1.24-.64-2.52-.91-3.78-.38-1.79-.74-3.6-1.07-5.4q-1-5.18-1.73-10.39c-1-6.94-1.55-14-2.17-20.95-.3-3.37-.68-6.73-1.21-10.07-.56-3.5-1.09-7-1.41-10.53-.33-3.69-.48-7.4-.65-11.1-.16-3.37-.32-6.75-.38-10.13,0-1.05,0-2.1,0-3.14l-.2,0c-.77.09-1.54.21-2.29.37,0,.63,0,1.25-.06,1.87,0,1.09-.07,2.18-.08,3.27,0,2.26.09,4.53.2,6.79,0-.17,0-.32,0-.49C352.4,438.33,352.55,441,352.64,443.61Zm18,64.14a5.76,5.76,0,0,1,2.42,1.85c-.18-2.22-.32-4.43-.42-6.65-.14-3-.18-5.92-.2-8.89a4,4,0,0,1-.48.07c-.28,2.39-.4,4.8-.58,7.2a1.49,1.49,0,0,1-.89,1.33,2.17,2.17,0,0,1-.75.14,3.37,3.37,0,0,1-1.18-.25,4.45,4.45,0,0,1-1.29-.81c.14,1.69.29,3.38.43,5.06,0,.23,0,.46.05.69.17,0,.33-.07.5-.09l.51,0A5.39,5.39,0,0,1,370.63,507.75Zm3.18-189-.61,2.47c-.67,2.74-1.25,5.2-1.74,7.53-.53,2.5-.93,5.06-1.32,7.53l-.05.29c-.25,1.56-.52,3.12-.79,4.68l-.48,2.74c-.42,2.56-.78,5.08-1.17,7.86l-.08.66-.08.56-.07.56-.09.63,0,.22,0,.17-.12.79,0,.15h0l0,.17c-.27,2-.59,4.43-.85,6.91-.12,1.14-.22,2.28-.33,3.42s-.24,2.58-.38,3.88c-.28,2.79-.44,5.07-.5,7.17l0,.61c0,1-.06,1.89-.05,2.85.24.28.49.55.74.82.75.81,1.55,1.58,2.34,2.35s1.66,1.5,2.42,2.11c.54.39,1.08.75,1.64,1.11,1.81,1.08,3.46,2,5.06,2.76,2.4,1.1,4.94,2,7.17,2.82l.34.12c1.1.4,2.21.8,3.32,1.18l.74.25c1,.32,1.93.65,2.88,1s1.91.85,2.69,1.24a6.55,6.55,0,0,1,3,2.6,4.41,4.41,0,0,1,.59,2.79c-.12.81-.23,1.62-.36,2.43-.21,1.37-.45,2.74-.71,4.1-.5,2.53-1.13,5.07-1.75,7.53l-.14.57c-.69,2.75-1.54,5.43-2.29,7.7a65.22,65.22,0,0,0-2.13,7.94l-.3,1.56c-.42,2.15-.85,4.37-1.43,6.54l-.13.5c-.6,2.22-1.21,4.52-1.73,6.79-.28,1.18-.53,2.35-.77,3.53s-.52,2.47-.8,3.7c-.21.88-.46,1.74-.71,2.6a38.52,38.52,0,0,0-1,3.91l-.21,1.26c-.13.75-.25,1.5-.39,2.26a5.47,5.47,0,0,1-.94,2.53,2.3,2.3,0,0,1-.41.35h0a0,0,0,0,1,0,0l2.74.12c2.5.1,5.09.2,7.62.41,4,.33,7.52.59,10.8.79,3.86.24,7.66.61,11.19,1l2.88.31c2.52.28,5.12.57,7.69.78l2,.16c3.24.26,6.59.53,9.88.88l4.9.54q3.06.36,6.14.68c2.17.21,4.34.37,6.51.52l4.35.33c4.45.37,8.08.72,11.41,1.11,1.61.17,3.22.38,4.83.57,2.06.26,4.11.52,6.17.73,3.85.41,7.77.69,11.56,1,3.49.25,7.1.51,10.64.86,2.32.23,4.67.56,6.94.87l1,.14c2.06.28,4.13.5,6.2.72l2.18.23a72.77,72.77,0,0,1,8.44,1.43c1.49.35,2.93.85,4.33,1.33l.25,0,.24,0h0s0,0,0,0a3.09,3.09,0,0,1-.18-2.14c.08-.33.19-.67.29-1s.16-.49.23-.74c.24-.83.45-1.68.67-2.52l.16-.65c.53-2.11,1.17-4.32,2-7,1.16-3.59,2.49-7.18,3.78-10.65.37-1,.74-2,1.1-3a4.09,4.09,0,0,0,.18-.49h0l-.06.21c.91-2.51,1.75-5.08,2.56-7.57.36-1.12.72-2.24,1.09-3.35.45-1.35.88-2.7,1.32-4.05l.47-1.49c.33-1,.69-2.06,1-3.09.26-.74.52-1.47.77-2.21,1.29-3.89,2.45-7.82,3.57-11.61.91-3.09,2-6.17,3.06-9.15l.82-2.33c.48-1.34.93-2.68,1.38-4,.65-1.92,1.29-3.84,2-5.74s1.41-3.72,2.13-5.58c.51-1.32,1-2.66,1.53-4,.93-2.59,1.81-5.18,2.69-7.78l.61-1.8c.85-2.47,1.77-5,2.66-7.37l.76-2.06c.45-1.25.86-2.5,1.28-3.76.29-.85.57-1.71.86-2.55a5.21,5.21,0,0,1,1.16-2.13,7.32,7.32,0,0,1,2.74-1.45c2.86-1,5.53-1.8,8.16-2.53,1.36-.37,2.77-.69,4.12-1s2.71-.61,4.05-1a31.85,31.85,0,0,0,4.14-1.72,23.11,23.11,0,0,0,3-2.11,20.51,20.51,0,0,0,2.25-2.62,16.57,16.57,0,0,0,1.1-2.07,14.39,14.39,0,0,0,.46-1.72c0-.32,0-.64.06-1s-.09-.74-.16-1.11c-.19-.79-.43-1.56-.68-2.33s-.72-1.75-1.16-2.64c-.25-.44-.52-.87-.79-1.3s-.63-.84-1-1.25-.71-.73-1.07-1.09c-1.51-1.36-2.92-2.55-4.31-3.65-.46-.33-.93-.65-1.42-1-.2-.12-.42-.23-.63-.34s-.67-.29-1-.42a17,17,0,0,0-1.69-.45l-.36-.08h.08l.22,0-.22,0,.23,0-1.07-.19-.91-.18a3,3,0,0,1-.49,0,5,5,0,0,1-1.19-.15,3.38,3.38,0,0,1-1.94-.85,3.17,3.17,0,0,1-.49-.28c-.12-.09-.24-.18-.35-.28l-.42-.21-.33-.17-.33-.13-1-.26-2.41-.4c-1.28-.21-2.59-.42-3.88-.7s-2.48-.62-3.67-.95-2.15-.61-3.23-.87l-1.71-.37a51.45,51.45,0,0,1-5.1-1.29c-1.43-.46-2.83-1-4.23-1.49-.85-.32-1.69-.63-2.54-.92s-2-.63-3-.93c-2.28-.7-4.63-1.42-6.88-2.33-1.39-.56-2.75-1.17-4.12-1.79-1.78-.8-3.61-1.62-5.48-2.32-1.27-.4-2.61-.78-4.06-1.12l-1.09-.26h.07l.12,0-.11,0H529c-.28-.05-.56-.11-.85-.15l-.76,3-.15.61c-1.16,4.43-2.66,8.84-4.1,13.1-.41,1.21-.82,2.43-1.22,3.65a16.72,16.72,0,0,1-1.74,4,24.8,24.8,0,0,1-2.9,3.57,20.57,20.57,0,0,1-3.44,2.86,17.89,17.89,0,0,1-4.1,1.89,20.64,20.64,0,0,1-4.64,1,35.48,35.48,0,0,1-3.57.12h-.42a54.13,54.13,0,0,1-9.08-.56c-2.16-.37-4.3-.87-6.29-1.34-.72-.18-1.42-.38-2.14-.61-.58.28-1.15.56-1.72.86l0,0h0l0,0,0,0,0,0h0l0,0a.66.66,0,0,1-.47.38,1.46,1.46,0,0,1-.29,0h-.19a1.8,1.8,0,0,1-1-.56,1.27,1.27,0,0,1-.41-1.12,1.55,1.55,0,0,1,.68-.76l.12-.08h0l-.21-.08-.22-.07-2.38-.76c-2.07-.65-4.21-1.32-6.25-2.18-.61-.26-1.2-.53-1.81-.81l-2.08,1.12-.46.24c-.57.32-1.15.63-1.73.94l-.51.27c-.54.29-1.07.58-1.63.83a.92.92,0,0,1-.5.14h-.14a1.85,1.85,0,0,1-1.23-.76,1.19,1.19,0,0,1-.24-1.14.63.63,0,0,1,.52-.34l.49-.25.23-.12c1.08-.61,2.18-1.3,3.45-2.17l.51-.34h0l-1-.5L462.2,335c-1.68-.81-3-1.51-4.37-2.27l-.42.22-.42.23c-2.44,1.39-4.95,2.92-7.45,4.53a1.17,1.17,0,0,1-1,.43l-.32,0a2.9,2.9,0,0,1-1.66-.92c-.42-.45-1.07-1.5-.46-2.22a3.69,3.69,0,0,1,.67-.56l.17-.12.5-.37.44-.31,2.2-1.61,3.11-2.3.17-.12h0a31.89,31.89,0,0,1-3.66-3.51,21.92,21.92,0,0,1-3.55-5,27.67,27.67,0,0,1-1.78-4.65,24.78,24.78,0,0,1-.58-2.63,22.72,22.72,0,0,1-.2-2.67c0-1.28,0-2.59.06-3.85l0-.55c0-.57.05-1.15.1-1.72l-.21-.06-.64-.12c-.69-.12-1.39-.25-2.08-.41a24,24,0,0,1-3.13-1c-.95-.39-1.92-.74-2.89-1.08l-2.38-.88-3-1.18c-.16.58-.32,1.16-.47,1.74l-.19.76c-.17.66-.33,1.31-.54,1.95l-.05.13a3.76,3.76,0,0,1-.32.74,3.66,3.66,0,0,1-1.42,1.31,5.88,5.88,0,0,1-1.81.51,10.35,10.35,0,0,1-1.78.14,14.66,14.66,0,0,1-1.69-.1c-1.38-.15-2.5-.32-3.54-.52l-1.07-.2c-.91-.17-1.83-.35-2.74-.5-1.07-.16-2.21-.28-3.48-.37h-.88c-.51,0-1,0-1.55,0a32.57,32.57,0,0,0-3.84.75c-.49.15-1,.31-1.46.48a11.83,11.83,0,0,0-1.47.67,16.53,16.53,0,0,0-1.94,1.37,15.1,15.1,0,0,0-1.79,2.06,14,14,0,0,0-1.13,2.26c-.15.51-.28,1-.38,1.53,0,.33-.05.65-.05,1s.08.64.14,1,.17.61.26.91.15.36.23.53.15.25.27.43l.14.19c.23.26.46.51.7.76.41.38.83.75,1.25,1.1s.85.61,1.29.89l.72.37.81.32,1.49.42,1.95.56.19.06c1,.32,2,.65,3.07.9a39.38,39.38,0,0,0,4.17.48c.61,0,1.2,0,1.81,0h.42a5.41,5.41,0,0,1,4.57,3.21,2.78,2.78,0,0,1,.09,2.32,2,2,0,0,1-1.82,1c-.56,0-1.12,0-1.68,0a32.47,32.47,0,0,1-5.16-.39,33.19,33.19,0,0,1-6-1.74l-1.71-.6a19.82,19.82,0,0,1-7.54-4.71,24.63,24.63,0,0,1-2.68-3,11.73,11.73,0,0,1-2.18-5.56,13.47,13.47,0,0,1,0-2.61l0-.32h0l-.75.39-.35.2-.27.16h0l.08-.06-.72.41-.07,0h0a5.13,5.13,0,0,1,.83,1.32,3,3,0,0,1,.11,2.47,2.12,2.12,0,0,1-1.94,1.08h-.27c-.64,0-1.28,0-1.91-.09l-.55,0-1.17-.06c-.93-.05-1.86-.09-2.78-.19a32.29,32.29,0,0,1-4.17-.79l-.31-.08-2.19-.5ZM501.42,332.5a3.65,3.65,0,0,1,1.5,1.16,2.4,2.4,0,0,1,.55,1.51,1.11,1.11,0,0,1-.7,1c-2.49.76-5,1.5-7.46,2.36a53.62,53.62,0,0,0,6.46.13,18.62,18.62,0,0,0,2.67-.56,21.5,21.5,0,0,0,3.05-1.21,19.28,19.28,0,0,0,2.57-1.86,26.11,26.11,0,0,0,3.11-3.53,12.26,12.26,0,0,0,.87-1.83c.74-2.08,1.37-4.19,2.09-6.28s1.53-4.37,2.22-6.57,1.28-4.62,1.88-6.94,1.28-4.49,1.74-6.78a27.88,27.88,0,0,0,.09-4.66l0,.5a63.13,63.13,0,0,0-.59-7c-.06-.25-.14-.49-.21-.73,0-.08-.07-.17-.11-.26s-.23-.38-.35-.57c-.73-1-1.5-2-2.29-3-.48-.53-1-1.06-1.48-1.57l-.33-.28c-1.14-.82-2.32-1.56-3.48-2.35s-2.25-1.57-3.4-2.31c-.51-.3-1-.58-1.56-.86-1.28-.57-2.6-1.05-3.93-1.52s-2.61-.93-3.93-1.37l.22.08A51.42,51.42,0,0,0,495,275.7l-5.53-1c-1.73-.33-3.44-.75-5.17-1.13a33.17,33.17,0,0,0-3.95-.45,61.48,61.48,0,0,0-8.9.14c-.23,0-.45.08-.67.14a15.08,15.08,0,0,0-2.27,1.06,20.15,20.15,0,0,0-2.15,1.44c-1.05.77-2.13,1.53-3.14,2.38l-.53.52a2.54,2.54,0,0,1-2.24.68c-.36.46-.7.94-1,1.43a24.18,24.18,0,0,0-1.2,2.18c-.36.77-.67,1.55-1,2.34-1.18,3.37-2.18,6.81-3.09,10.27a84.13,84.13,0,0,0-2,9.71,60.62,60.62,0,0,0-.28,8.84c0,.63.11,1.24.2,1.87.23.92.49,1.81.8,2.71.23.6.49,1.18.75,1.76l.44.72c.23.31.48.62.72.92.45.49.9,1,1.37,1.45s1.17,1,1.76,1.55c.47.33.93.66,1.39,1a34.68,34.68,0,0,1,6.2-1.9,3,3,0,0,1,2.71,1.3c.53.71.94,2.07-.14,2.51s-1.9.78-2.84,1.19c1.56.76,3.1,1.58,4.66,2.34.78.35,1.55.68,2.34,1,.64-.42,1.29-.84,1.95-1.24s1.48-.88,2.26-1.26a17.28,17.28,0,0,1,2.77-1.08,1.81,1.81,0,0,1,1.12.15,3.12,3.12,0,0,1,1.36,1.05c.5.66.83,1.86-.13,2.29-1.36.61-2.73,1.21-4.08,1.84l1.58.52-.07,0,.12,0h0l.1,0,.23.08c1.31.44,2.61.92,3.91,1.37s2.72.77,4.1,1.08l.13-.09a31.67,31.67,0,0,1,4.51-2.45,9,9,0,0,1,.91-.34c.42-.15.83-.31,1.26-.44l2.62-.8-.27.09,1.33-.4h0l2.3-.66a1.26,1.26,0,0,1,.33,0A2.58,2.58,0,0,1,501.42,332.5Zm6.71-59.21a28.22,28.22,0,0,1,4.65,2.44c1.22.79,2.39,1.64,3.6,2.44s2.7,1.74,4,2.74a25.51,25.51,0,0,1,3.75,3.88c.91,1.1,1.76,2.27,2.56,3.45a14.23,14.23,0,0,1,2.23,4.64,23.58,23.58,0,0,1,.57,5,64.65,64.65,0,0,1-.16,8.58c0,.07,0,.14,0,.22h.15a43.22,43.22,0,0,1,10.5,2.06c1.51.47,3,1,4.52,1.43s3.12.84,4.69,1.23c1.82.46,3.61.95,5.37,1.56,1.38.47,2.75,1,4.12,1.47,2.34.75,4.72,1.29,7.11,1.88,1.15.28,2.27.66,3.4,1s2.58.73,3.87,1,2.43.54,3.64.79a2.67,2.67,0,0,1,.06-1.26,23.34,23.34,0,0,0,.73-3.63c.45-3.43.8-6.87,1.3-10.3.25-1.74.6-3.46.93-5.18s.59-3.27.83-4.91c.33-2.78.51-5.57.71-8.36s.39-5.51.33-8.29a60,60,0,0,0-.8-6.53c-.51-2.24-1.18-4.44-1.71-6.69-.56-2.4-1.08-4.81-1.86-7.15a40.29,40.29,0,0,0-1.74-3.92c-.59-1.08-1.21-2.14-1.87-3.19q-.67-1-1.41-1.89c-.35-.4-.71-.79-1.08-1.18s-.69-.62-1.05-.93c-.78-.56-1.57-1.1-2.38-1.62-4.3-2.56-8.79-4.85-13.3-7-2.61-1.2-5.28-2.23-8-3.27s-5.19-2.05-7.84-3c-2.45-.75-4.9-1.45-7.36-2.16-2.65-.75-5.3-1.51-8-2.14l-1.43-.28c-2.5-.49-5-.83-7.57-1.28s-5.07-1-7.59-1.55c-3.24-.63-6.48-1.21-9.69-2s-6.14-1.49-9.24-2.14c-3.9-.74-7.81-1.45-11.69-2.28s-7.79-1.92-11.72-2.8l.6.11c-2.64-.52-5.3-.89-7.95-1.39s-5.12-1-7.68-1.57c-3.35-.66-6.73-1.27-10.13-1.71-2.38-.29-4.78-.49-7.18-.68l0,0h0c-.26.47-.57.92-.86,1.39s-.53.89-.8,1.32a30.8,30.8,0,0,1-2.47,3.1,17,17,0,0,1-1.61,2l.2-.18,0,0h0l-.08.08a7.74,7.74,0,0,0-.57.69c-.2.27-.46.5-.67.78s-.46.73-.7,1.09c-.37.55-.75,1.08-1.14,1.62s-.86,1.24-1.36,1.82a24.7,24.7,0,0,1-1.74,1.81c0,.06-.08.12-.11.18l0,0h0l0,.07c-1.22,1.84-2.4,3.71-3.62,5.54l.23-.34c-1.84,2.77-3.8,5.45-5.67,8.19v0l-.16.25h0s0,0,0,0l0,.06h0a0,0,0,0,1,0,0h0l-.08.12,0-.06,0,.06-.09.14a.42.42,0,0,0-.06.08s0,0,0,0h0l0,0h0v0l-.35.52.23-.34c-1.15,1.76-2.3,3.51-3.51,5.23-.72,1-1.46,2-2.19,3l-.74,1-.67,1-.69,1.07c1.46.61,2.88,1.32,4.29,2.07.41.07.81.17,1.21.27a45.67,45.67,0,0,1,5.12,1.54,18.4,18.4,0,0,1,5.46,3.24,27.19,27.19,0,0,1,4.74,4.79,27.52,27.52,0,0,1,3.74,9.79,29.4,29.4,0,0,1,.54,4.95,39.09,39.09,0,0,1-.23,4.71c-.11,1.35-.25,2.7-.42,4,.4-.9.82-1.79,1.23-2.68a6.21,6.21,0,0,1,1.54-2.58,1.73,1.73,0,0,1,1.47-.16,3.66,3.66,0,0,1,1.92,1.33,2.77,2.77,0,0,1,.57,1.38,11,11,0,0,1-.68,3.95c-.34,1.23-.69,2.46-1,3.7s-.71,2.72-1.05,4.09c1.33.31,2.67.59,4,.91,1.49.34,2.92.9,4.41,1.24a37.91,37.91,0,0,1,4.28.76,6.25,6.25,0,0,1,1.27.51A107.86,107.86,0,0,1,449.69,284a40.65,40.65,0,0,1,1.77-4,22.52,22.52,0,0,1,2.51-3.8,25,25,0,0,1,1.82-2,2,2,0,0,1,.19-.53,7.24,7.24,0,0,1,1.24-1.72c.3-.29.63-.58.95-.86.53-.48,1.07-.94,1.61-1.4a18.21,18.21,0,0,1,2.4-1.9,21.43,21.43,0,0,1,2.7-1.48,12,12,0,0,1,3.79-.74,61.19,61.19,0,0,1,8.67.06,36.86,36.86,0,0,1,3.77.43c1.48.25,2.92.65,4.36,1,1.92.49,3.85.87,5.78,1.25l-.57-.11,1.42.28-.57-.11c2.1.41,4.19.85,6.25,1.43s4.05,1.3,6.07,2l-.1,0C505.22,272.23,506.69,272.71,508.13,273.29ZM380.76,310.91l-.35.2c1.41.17,2.83.29,4.24.41q.62-.5,1.26-1c.64-.45,1.28-.86,1.94-1.27,1.23-.77,2.51-1.48,3.78-2.19a1.74,1.74,0,0,1,1.3-.14l0,0a14.06,14.06,0,0,1,5.81-5,22.27,22.27,0,0,1,7.49-2.09,30.74,30.74,0,0,1,7.54.42l1.16.2a3.18,3.18,0,0,1-.27-2.13,69.25,69.25,0,0,0,2-7.61c.33-1.73.69-3.45,1.05-5.18s.58-3.52.83-5.3l0,.26c.1-.8.21-1.61.32-2.41,0,.18-.05.36-.08.54a39.49,39.49,0,0,0,.5-6.51,42.49,42.49,0,0,0-.67-5.17c-.18-.76-.39-1.49-.64-2.22-.11-.28-.24-.56-.37-.84l-.18-.3-.67-.87c-.77-.86-1.57-1.72-2.39-2.54l-.77-.66-.7-.49-1-.35.27.1c-1.21-.38-2.4-.8-3.59-1.21.11.05.23.08.34.12a57.37,57.37,0,0,0-6.21-1.66c-1.14-.19-2.28-.36-3.43-.52a4.41,4.41,0,0,1-.58.93,1.87,1.87,0,0,1-.48.33l-1.7,2.82c-1.44,2.34-2.75,4.76-4.13,7.14s-2.83,4.94-4.09,7.49-2.31,4.91-3.36,7.42-2.25,5.1-3.24,7.7-1.77,5.14-2.56,7.75-1.56,5.22-2.2,7.86c-.42,1.75-.78,3.51-1.15,5.27l.15.05c.5-.48,1.05-.92,1.57-1.37s1.1-.88,1.66-1.28c1.19-.88,2.4-1.72,3.63-2.54a42,42,0,0,1,3.7-2.35l.24-.12a1.57,1.57,0,0,1,1.07,0,3.08,3.08,0,0,1,1.44.88,2.63,2.63,0,0,1,.71,1.37,1.15,1.15,0,0,1-.41,1.1c-1.32.85-2.63,1.68-4,2.43l.21-.11-.69.37.05,0C383.69,309.38,382.21,310.12,380.76,310.91Zm6-56.23a24.43,24.43,0,0,0-2.91.55c-.61.21-1.22.43-1.83.67s-1,.47-1.43.72c-.93.53-1.87,1.05-2.74,1.66s-1.78,1.36-2.64,2.09c-1.42,1.36-2.76,2.8-4,4.29a52.28,52.28,0,0,0-3.41,4.58,49.91,49.91,0,0,0-4.33,8.09,61.41,61.41,0,0,0-2.47,11.3,50.13,50.13,0,0,0-.29,7.94,18.61,18.61,0,0,0,.27,2.12c.06.27.13.55.2.82s.27.59.41.89c.51,1,1.07,1.9,1.66,2.81.24.33.48.64.72,1s.49.53.75.78c.58.52,1.18,1,1.79,1.51s1.17.84,1.78,1.23l.34.2c.4-2.12.75-4.24,1.14-6.36.51-2.74,1.22-5.45,1.91-8.15s1.44-5.33,2.27-8,1.89-5.26,2.91-7.87,1.93-5,3.07-7.47,2.59-5.1,4-7.59,2.73-4.84,4.17-7.22l.4-.67C387.89,254.6,387.32,254.64,386.74,254.68ZM71.43,188.05a30.47,30.47,0,0,1,3.71.58l.2,0c1.66.32,3.32.55,4.72.72a32.85,32.85,0,0,1,4.64.91c.5.13,1,.28,1.48.43.87.25,1.74.51,2.63.72,1.39.25,2.82.42,4.2.58l1.6.2c1.94.24,3.87.52,5.8.82,1.65.26,3.3.5,5,.72,1.43.18,2.79.45,3.93.69.53.09,1.06.15,1.59.2l.65,0a19.58,19.58,0,0,1,2.53.19l.41.08h0q.1-3.06.24-6.12c.3-7.15.81-14.37,1.32-21.14l.35-4.78c.4-5.43.8-11.05,1.35-16.57.2-2.12.46-4.24.72-6.36l.48-4.06.27-2.44c.28-2.46.55-4.93.88-7.39.29-2.27.61-4.54.94-6.82a3.62,3.62,0,0,1-.45-2,6.31,6.31,0,0,1,.33-1.53,42.57,42.57,0,0,1,3.24-6.52,60.27,60.27,0,0,1,4.81-7,65.75,65.75,0,0,1,5.45-6.08A66.68,66.68,0,0,1,141,90.37c1-.76,2.05-1.45,3.07-2.12s2.18-1.43,3.21-2.22c1.85-1.43,3.82-3.09,6-5.06l0-.07,0,0h0v0l-.49-.06h-.29a41.91,41.91,0,0,0-4.21.28l-.26,0a60,60,0,0,0-9.65,1.79l-.38.13a4,4,0,0,1-1.34.33,2.55,2.55,0,0,1-1.2-.34,5.68,5.68,0,0,1-2.59-1.3,5.59,5.59,0,0,1-1.75-2.57,2.38,2.38,0,0,1,.34-2.29c.59-.55,1.21-1,1.83-1.53l.54-.43c.78-.62,1.53-1.28,2.28-2l.13-.11c1.86-1.66,3.78-3.2,5.41-4.48l.47-.37c1.51-1.19,3.08-2.42,4.69-3.53A42.91,42.91,0,0,1,152,61.52l.75-.39a18.53,18.53,0,0,0,3.1-2.17A23.27,23.27,0,0,0,159,55.54a8.21,8.21,0,0,0,.44-.83l0-.07v.1l0,0,0,0v0a4.18,4.18,0,0,0,.26-.85l0-.14v.11l0,.09,0-.09V54a6.63,6.63,0,0,0,.08-1s0-.13,0-.14l-.69-.08h-1.44a21.2,21.2,0,0,0-3.1.7l-.43.13c-1.07.33-2.17.66-3.22,1.06A25.61,25.61,0,0,0,148,56l-.72.38.06,0a51.53,51.53,0,0,0-8.11,5.3c-.36.33-.7.67-1.05,1-.54.53-1.08,1.05-1.64,1.55s-1.09,1-1.65,1.42a7.73,7.73,0,0,1-.83.58,2.69,2.69,0,0,1-1.46.39h-.34a4.78,4.78,0,0,1-2.49-1.2,4.93,4.93,0,0,1-1.57-2.29,3.58,3.58,0,0,1,1.11-3.35,26.65,26.65,0,0,1,2.08-2.17l1-1a52.7,52.7,0,0,1,7.46-6.63c.92-.65,1.86-1.29,2.8-1.93,1.81-1.23,3.69-2.51,5.48-3.84l1.11-.84c.84-.64,1.7-1.27,2.56-1.9l.39-.28a40.19,40.19,0,0,0,3.44-2.63,9.65,9.65,0,0,0,1-1.12,8,8,0,0,0,.49-.92,4.23,4.23,0,0,0,.18-.7,4.85,4.85,0,0,0,0-.66,5.47,5.47,0,0,0-.1-.8l-.09-.35v0l0,.07V34l0,0a4.06,4.06,0,0,0-.33-.77l-.11-.2.09.16-.1-.15c0,.05,0,.1.08.14l-.12-.08-.15-.06-.23-.07-.4,0-1,0a27,27,0,0,0-3.77.79,22.3,22.3,0,0,0-3.68,1.55l-.85.45.1-.07a39.25,39.25,0,0,0-7.09,4.7c-1.22,1.12-2.4,2.28-3.58,3.44a25.6,25.6,0,0,0-3.18,3.91c-.12.22-.24.43-.34.65a1.84,1.84,0,0,1-1.76.94,3.2,3.2,0,0,1-.87-.12,5.27,5.27,0,0,1-3.32-2.83c-.72-1.7.22-3.27,1.25-4.73a28.37,28.37,0,0,1,2.12-2.55l.63-.71.77-.87c.78-.88,1.56-1.77,2.36-2.63a61.39,61.39,0,0,1,7-6.24q1.79-1.43,3.62-2.8l.35-.27c1.05-.78,2.14-1.58,3.15-2.47a16.11,16.11,0,0,0,2.05-2.26,1,1,0,0,0,.08-.14,3.35,3.35,0,0,0-.26-.34l-.39-.42a3.2,3.2,0,0,0-.36-.29,4.15,4.15,0,0,0-.53-.2c-.53-.17-1.08-.31-1.64-.44-.33-.06-.66-.1-1-.13h-.4a25.74,25.74,0,0,0-2.66.55l-.93.23c-.51.12-1,.25-1.54.39A13.76,13.76,0,0,0,138,21a47.47,47.47,0,0,0-5.47,3.38c-1,.74-2,1.52-2.95,2.31l-.22.17-.37.3c-.67.52-1.33,1-2,1.6-1,1-2,2-2.93,3.06l-.59.65c-.58.64-1.17,1.28-1.76,1.91s-1.39,1.49-2.07,2.24c-1.22,1.37-2.44,2.74-3.62,4.14a49.67,49.67,0,0,0-3.26,4.45l-1.37,2.07-.3.45v0c-1.49,2.24-3,4.44-4.56,6.65-1,1.49-2.08,3-3.1,4.48a69.89,69.89,0,0,0-4,6.85c-1,2-2,4.15-3,6.19l-.6,1.32c-2.15,4.7-4.39,9.76-6.29,14.9C89,90.1,88.31,92,87.67,94c-.75,2.25-1.49,4.5-2.29,6.73s-1.72,4.59-2.6,6.82c-.7,1.8-1.4,3.59-2.07,5.4-1.11,3.18-2.06,6.4-2.83,9.57-.39,1.61-.77,3.22-1.15,4.84q-.63,2.66-1.27,5.33c-.78,3.15-1.71,6.31-2.62,9.37-1,3.26-2,6.64-2.77,10-.54,2.29-.95,4.64-1.35,6.92-.17,1-.34,1.95-.52,2.92-.7,3.79-1.38,6.84-2.14,9.62-.45,1.65-.93,3.3-1.42,4.94s-.9,3.1-1.33,4.66-.92,3.34-1.36,5l-.52,2h0v0c1.57,0,3.14-.09,4.71-.16.59,0,1.18,0,1.77,0C69,187.92,70.17,188,71.43,188.05Z"/><path d="M36.77,290.91c-1.23-.66-2.57-2.16-2.23-3.68,1-4.25,1.61-8.57,2.61-12.83s1.87-8.3,2.51-12.5c.26-2.06.48-4.13.79-6.19s.71-4.36,1-6.54c.41-3.06.65-6.15,1-9.22.42-3.28.91-6.56,1.41-9.84s1.12-6.29,1.86-9.4,1.5-6.25,2.23-9.37c.33-1.39.68-2.76,1-4.14,0-.32.06-.64.1-.95.09-.84.21-1.68.34-2.51.25-1.59.61-3.15,1-4.71s.9-3.26,1.45-4.86c.08-.23.16-.46.25-.7s0-.21,0-.31a1.16,1.16,0,0,1,.27-.58c.1-.28.21-.56.32-.85s.28-.69.44-1a3.5,3.5,0,0,1,.56-.82,2,2,0,0,1,1.14-.61c1.14-.33,2.53.44,3.36,1.15A4.15,4.15,0,0,1,60,193.58a20.7,20.7,0,0,1-.54,2.33c-.18.77-.37,1.52-.56,2.28-.39,1.58-.78,3.17-1.12,4.76s-.61,2.9-.92,4.35c-.14.67-.29,1.35-.41,2-.09.45-.12.92-.24,1.36a.11.11,0,0,1,0,0,2,2,0,0,1-.12.34l0,.08h0a1.93,1.93,0,0,1-1,.9c-.15.78-.3,1.57-.44,2.35-.6,3.29-1.28,6.56-2,9.83-.66,3.12-1.18,6.26-1.65,9.41-.58,3.92-1.18,7.83-1.74,11.75a2.54,2.54,0,0,1,0-.29c-.44,3.17-.87,6.33-1.5,9.47s-1.19,6.32-1.72,9.5c-.49,3-1.18,6-1.91,9s-1.57,6-2.23,9c-.6,2.75-1.13,5.51-1.83,8.24a1.52,1.52,0,0,1-1.63,1.13A3.61,3.61,0,0,1,36.77,290.91Z"/><path d="M115.2,331.12a7.23,7.23,0,0,1-4.9-3,5.9,5.9,0,0,1-1.23-3.56v-.38c0-.5,0-1,0-1.51,0-2.15-.06-5,0-7.85s.1-5.62.11-8.43c0-1.82.1-3.67.2-5.46,0-1.1.11-2.2.14-3.32,0-1.5.1-3,.19-4.51l.06-1.09c.07-1.08.13-2.16.15-3.24,0-1.24,0-2.49.06-3.74,0-2,0-3.95.12-5.93.1-2.6.35-5.25.59-7.81l.11-1.14c.15-1.68.31-3.36.47-5,.14-1.43.28-2.85.41-4.27.18-1.93.29-3.89.4-5.79.06-1.2.13-2.39.22-3.58.15-2.12.34-4.24.54-6.37l.25-2.8c.1-1.17.22-2.34.33-3.51.18-1.8.37-3.6.49-5.4.1-1.43.17-2.86.23-4.28l.09-1.8v-.17c0-1,.11-2,.19-3a87.64,87.64,0,0,1,1.45-9.11c.57-3.06,1.06-6.12,1.52-9.19.49-3.23.88-6.47,1.62-9.66a22.06,22.06,0,0,1,1.49-4.39,11,11,0,0,1,1.73-2.89c.55-.59,1.28-.31,1.77.16l.53,0c.29,0,.65.56.25.57l-.46,0c0,.07,0,.15,0,.23v-.11a16.51,16.51,0,0,1-.58,2q-.22.85-.42,1.71c-.2.9-.31,1.81-.44,2.72-.15,1.58-.23,3.15-.27,4.73s0,3.28,0,4.92c0,3.09-.14,6.17-.3,9.25-.18,3.23-.45,6.45-.59,9.68s0,6.28,0,9.41c.07,6.17-.28,12.33-.57,18.48-.15,3.16-.17,6.31-.28,9.47s-.4,6.32-.6,9.47c-.18,3-.34,6-.45,9-.13,3.23-.13,6.46-.12,9.7,0,3-.19,6-.29,9-.07,1.85-.16,3.71-.27,5.56a4.77,4.77,0,0,1,1.84.56c1.37.75,2.84,2.22,2.93,3.87,0,.41,0,.81,0,1.22a46.1,46.1,0,0,0,1,6.29c.25,1,.51,2.06.85,3.07.16.4.33.79.52,1.18.09.17.19.33.29.49l.22.3.16.17.09.07.06,0,.19.1a.94.94,0,0,0,.15.06l.33.1h0a6.57,6.57,0,0,1,5.26,3.32c.88,1.51,1.13,3.64-.7,4.51a5,5,0,0,1-1.53.31c-.8.1-1.6.18-2.41.25-1.42.11-2.85.17-4.28.23l-1.88.08h0c-1.53.07-3.12.14-4.68.14C116.82,331.19,116,331.17,115.2,331.12Zm3.23-8.55h1.23l-1.16-2.5c.71,1.7.33.87,0,0C118.48,320.91,118.45,321.74,118.43,322.57Z"/><path class="cls-1" d="M230.94,53.72a1.24,1.24,0,0,1,0-1,.86.86,0,0,1,.78-.44,2.28,2.28,0,0,1,1.95,1.36,1.16,1.16,0,0,1,0,1,.83.83,0,0,1-.77.44A2.29,2.29,0,0,1,230.94,53.72Z"/><path class="cls-1" d="M445,198.88a2.3,2.3,0,0,1-.46-1.06v0c-.33-1.56.79-3.09,1.62-4.35a41.19,41.19,0,0,1,2.84-3.73c.94-1.14,1.89-2.28,2.86-3.38a30.44,30.44,0,0,1,3.57-3.61,1.68,1.68,0,0,1,1.29-.26,4,4,0,0,1,3.13,2.68,1.66,1.66,0,0,1-.23,1.58c-1,1-1.91,2-2.88,3s-1.87,1.89-2.82,2.81a49,49,0,0,0-5.46,5.88,4.67,4.67,0,0,0-.27.49,1,1,0,0,1-.81,1.16,1.63,1.63,0,0,1-.31,0A2.82,2.82,0,0,1,445,198.88Z"/><path class="cls-1" d="M462.47,201.49a1.59,1.59,0,0,1-.64-.48,1.83,1.83,0,0,1-.29-1.25,9.86,9.86,0,0,1,.76-2.85,37.07,37.07,0,0,1,1.6-3.79,18.58,18.58,0,0,1,4.94-6.44,1.55,1.55,0,0,1,1.31-.15,3.41,3.41,0,0,1,1.49.92c.6.64,1.15,1.85.3,2.53-.52.43-1,.86-1.54,1.31a42.39,42.39,0,0,0-5.65,6.53,16.47,16.47,0,0,0-1.29,2.37c-.06.18-.11.37-.16.56a.63.63,0,0,1,0,.65.5.5,0,0,1-.41.17A1,1,0,0,1,462.47,201.49Z"/><path class="cls-1" d="M476.65,198.85a1.53,1.53,0,0,1-.08-.52,2.5,2.5,0,0,1,.27-.92c.13-.32.31-.63.47-.95.28-.56.59-1.11.89-1.66.63-1.16,1.32-2.29,2.06-3.4l0,0c.58-.88,1.72-.59,2.47-.08s1.79,1.85,1,2.77c-1.47,1.76-2.9,3.57-4.23,5.45a.78.78,0,0,1,.1-.15.91.91,0,0,0-.11.16.76.76,0,0,1-.09.42.79.79,0,0,1-.73.41h-.14A2.18,2.18,0,0,1,476.65,198.85Z"/><path class="cls-1" d="M591.27,288a4,4,0,0,1-2.61-3.38c0-1.82.3-3.65.44-5.46a46.36,46.36,0,0,0,.06-5.27,29.88,29.88,0,0,0-.31-3c0-.16-.08-.32-.13-.48a2.33,2.33,0,0,1-.3-.8c-.13-.8.53-1.19,1.23-1.14,1.31.11,2.14,1.35,2.58,2.45a13.78,13.78,0,0,1,.73,2.77c.27,1.42.53,2.85.71,4.3a50.77,50.77,0,0,1,.39,8.8,1.45,1.45,0,0,1-.88,1.32,1.91,1.91,0,0,1-.74.14A3.11,3.11,0,0,1,591.27,288Z"/><path class="cls-1" d="M603.92,292.52a3.9,3.9,0,0,1-1.63-1.27,2.48,2.48,0,0,1-.6-1.64c.11-.93.24-1.85.37-2.78v-.22l0-.15s0,.07,0,.1c0-.17,0-.33.07-.49l0-.22v0a29.67,29.67,0,0,0,.33-3.63c0-1.33,0-2.65,0-4-.09-1.52-.23-3-.4-4.54-.08-.69-.18-1.39-.28-2.09a7.08,7.08,0,0,1-.1-1.78.63.63,0,0,1,.37-.64,1.31,1.31,0,0,1,1.16.23,1.73,1.73,0,0,1,.74,1.09.86.86,0,0,1,0,.28l.15.81,0-.17c.27,1.18.56,2.36.8,3.54l0-.2.21,1a1.77,1.77,0,0,0,0-.2c.56,2.61,1,5.24,1.34,7.88a27.21,27.21,0,0,1,.17,3.83c0,1.38-.06,2.75-.19,4.13a1.24,1.24,0,0,1-.76,1.13,1.68,1.68,0,0,1-.63.12A2.89,2.89,0,0,1,603.92,292.52Z"/><path class="cls-1" d="M199.54,1674.86a3.15,3.15,0,0,1-1.66-1.59,1.39,1.39,0,0,1,.07-1.46,1.29,1.29,0,0,1,1.23-.34h.12a16.73,16.73,0,0,0,2.11-.41c1.2-.42,2.37-.89,3.54-1.4s2.43.43,3.06,1.26c.51.68,1,2.19-.15,2.59-1.31.45-2.64.83-4,1.16a11.48,11.48,0,0,1-1.84.26c-.39,0-.79,0-1.18,0a1.38,1.38,0,0,1-.45.08A2.59,2.59,0,0,1,199.54,1674.86Z"/><path class="cls-1" d="M399.31,1431.48l-1.08-.61a.57.57,0,0,1,.13.08l-.14-.09-.11-.07,0,0-.92-.56.33.2a55.68,55.68,0,0,1-7.32-5.55c-1.15-1-2.25-2-3.37-3l-1.53-1.36-.78-.73a3,3,0,0,1-.86-1.16.76.76,0,0,0,0-.11.84.84,0,0,1,.12-.8.93.93,0,0,1,1-.21,2.09,2.09,0,0,1,1.11.78,1.47,1.47,0,0,1,.1.13c1.06.9,2.16,1.74,3.25,2.6l0,0,.06,0,.16.12-.06-.05c2.22,1.69,4.47,3.31,6.84,4.79,1.3.76,2.62,1.47,4,2.16.95.48,2,1.72,1.75,2.87a1.2,1.2,0,0,1-1.29.9A2.64,2.64,0,0,1,399.31,1431.48Z"/><path class="cls-1" d="M409.57,1402.41c-3.36-.4-6.71-.88-10.08-1.23s-6.59-.66-9.89-.87c-1.14,0-2.29-.07-3.44,0a1.69,1.69,0,0,1-1.46-1c-.21-.49,0-1,.55-1,.76,0,1.52-.12,2.28-.15l3.08,0,5.8-.08a106.69,106.69,0,0,1,12,.43,3.37,3.37,0,0,1,2.68,2.29,1.42,1.42,0,0,1-.2,1.35,1.33,1.33,0,0,1-1.05.42Z"/><path d="M230.48,601.86c-1-1.08-1.95-2.16-3-3.2-.58-.55-1.18-1.07-1.79-1.59-1-.74-1.84-1.33-2.67-1.85l-.78-.47a8.76,8.76,0,0,1-3.1-2.54,1.7,1.7,0,0,1,.13-2.26,1.42,1.42,0,0,1,.23-.14,1.7,1.7,0,0,1,.84-.22,2.9,2.9,0,0,1,1,.21,3.91,3.91,0,0,1,1.55,1.12c.4.22.82.42,1.23.63a33.62,33.62,0,0,1,3.84,2.13,38.93,38.93,0,0,1,6.38,5.44,4,4,0,0,1,1.17,2.77,1.58,1.58,0,0,1-.68,1.19,2,2,0,0,1-1.22.37A4.76,4.76,0,0,1,230.48,601.86Z"/><path d="M171.17,899.94c-1-.05-2-.14-3.07-.24l-.53-.05c-.55-.06-1.08-.12-1.62-.22a5.61,5.61,0,0,1-2.11-.81,3.88,3.88,0,0,1-1.42-1.66,1.92,1.92,0,0,1-.07-1.67,2.87,2.87,0,0,1,2.36-1.09c.93-.1,1.86-.22,2.79-.34l1.27-.16h0l2.09-.25,2.86-.35c1-.14,2-.25,3-.37h0c3.15-.35,6.3-.64,9.46-.93.72-.08,1.43-.17,2.15-.27h0l4.17-.62,2-.31c2.36-.35,4.85-.63,7.45-.83l1.1-.07c2.71-.17,5.41-.23,8.12-.41l.69,0h0l.63,0c2.16-.14,4.39-.3,6.69-.36a5.07,5.07,0,0,1,1.14.14,6.66,6.66,0,0,1,4.21,3.66,3.25,3.25,0,0,1,.12,2.74,2.4,2.4,0,0,1-2.17,1.22l-3.53.31h0l-5.44.49c-1.56.15-3.12.26-4.68.37s-3,.22-4.51.36l-3.55.42h0c-2,.24-3.95.5-5.93.72v0l-.79.09-.61.06c-1.18.13-2.4.26-3.59.31s-2.49.06-3.73.08l-2.41,0h0l-3.89.08h0l-1.1,0c-1.18,0-2.36.06-3.53.06C173.71,900,172.42,900,171.17,899.94Z"/><path d="M614.82,932.79h0v0a4.66,4.66,0,0,1-1-.15c-.47-.14-.95-.24-1.43-.34l-.16,0-.17,0c-1.47-.28-3-.43-4.45-.58h-.14l-.33,0c-.83-.08-1.66-.18-2.49-.29l-.46-.06-.17,0c-1.32-.17-2.69-.35-4-.45s-3-.12-4.53-.17H595c-1.61,0-3.23-.1-4.85-.2-1.93-.12-3.86-.26-5.79-.4l-.82-.07-3.52-.26-3.53-.23c-2-.11-4.34-.25-6.56-.48a95.46,95.46,0,0,1-9.59-1.62l-1-.21a60.9,60.9,0,0,0-6.43-1c-2.36-.2-4.73-.34-7.2-.49-1.44-.08-2.87-.15-4.32-.19l-2.26-.07a7.75,7.75,0,0,1-2.4-.35,3.55,3.55,0,0,1-2-2,1.63,1.63,0,0,1,.18-1.43,2.36,2.36,0,0,1,1.3-.7l.15,0a17.47,17.47,0,0,1,1.84-.43c1.33-.25,2.7-.43,4.34-.58,2.59-.25,5.59-.52,8.56-.6l.9,0a50.32,50.32,0,0,1,7.7.7c3.29.5,6.06.83,8.69,1l4.22.17.71,0c1.68.06,3.35.13,5,.23,2,.1,3.95.25,5.95.4q1.77.15,3.54.24H588l.74,0h-.37l.17,0h-.17l2.11.1,1,.05c1.67.07,3.35.15,5,.26a47.73,47.73,0,0,1,5,.66l.5.08,1.61.26,1.7.24a54.79,54.79,0,0,1,7.45,1.39,7.76,7.76,0,0,1,2.42,1.25l.15.11a5.69,5.69,0,0,1,2.08,3.5,2.44,2.44,0,0,1-.89,2.36,2.72,2.72,0,0,1-1.6.46Z"/><path d="M412.24,591a7.21,7.21,0,0,1-1.89-2.07,8.8,8.8,0,0,1-1-2.25,9.86,9.86,0,0,1-.37-2.15,20.53,20.53,0,0,1,.17-4.42,17.21,17.21,0,0,1,.51-2.32,6.23,6.23,0,0,1,.89-1.87,2.44,2.44,0,0,1,.81-.63,2.36,2.36,0,0,1,.89-.28,1.67,1.67,0,0,1,.16-.43,1.84,1.84,0,0,1,1.35-1,3.27,3.27,0,0,1,.53,0,5,5,0,0,1,2,.57,5.45,5.45,0,0,1,2,1.7,5.76,5.76,0,0,1,1,2.42,8.65,8.65,0,0,1,.07,1.94c-.09,1.36-.29,2.73-.5,4.05a23.34,23.34,0,0,1-1.18,4.89c-.51,1.27-1.29,2.73-3,2.78A4.8,4.8,0,0,1,412.24,591Z"/><path d="M405.67,668.7a4.66,4.66,0,0,1-2.43-.83,5.85,5.85,0,0,1-2.5-3.14,6.48,6.48,0,0,1,0-3.27,29.42,29.42,0,0,1,.92-3c.6-1.65,1.29-3.54,2.72-4.68l0-.16a2,2,0,0,1,2.15-2.41h0l.43,0a5.64,5.64,0,0,1,4.22,3.27c.89,2.25.59,4.85.19,7.1a12.27,12.27,0,0,1-1.7,4.65,6,6,0,0,1-2.42,2.18,2.84,2.84,0,0,1-1.19.22Z"/><path d="M399.18,744.39a4.7,4.7,0,0,1-2.7-1.47,4.36,4.36,0,0,1-1.1-1.91,4,4,0,0,1,0-1.76,11.63,11.63,0,0,1,.47-1.74c.17-.53.36-1,.56-1.55l.06-.15c.18-.48.36-1,.58-1.44a4,4,0,0,1-.63-1.7,2.05,2.05,0,0,1,.74-2,2.22,2.22,0,0,1,1.33-.38,4,4,0,0,1,1,.14,6.28,6.28,0,0,1,3.86,3,5.72,5.72,0,0,1,.77,3.58,14.78,14.78,0,0,1-1.15,3.92,14.56,14.56,0,0,1-.61,1.34,5.24,5.24,0,0,1-.54.87,3.13,3.13,0,0,1-.76.82,3,3,0,0,1-1.59.49Z"/><path d="M185.87,894.24c-3-1.25-2.47-4.93-2.05-7.5q.39-2.41,1-4.77a57.83,57.83,0,0,1,3.12-9c1.26-2.86,2.62-5.67,3.85-8.54s2.25-5.62,3.58-8.34c.91-1.87,1.9-3.67,3-5.44l0-.05c.26-.44.53-.87.81-1.31v0c.39-.61.79-1.22,1.2-1.81a21.13,21.13,0,0,1,7.47-6.42h0c.54-.28,1.2-.62,1.89-.91a8,8,0,0,1,3-.56,8.22,8.22,0,0,1,1.39.11,12.1,12.1,0,0,1,5.47,2.07,11.7,11.7,0,0,1,3.7,4.65,7.11,7.11,0,0,1,.65,1.95,2.58,2.58,0,0,1-1,2.59,4.87,4.87,0,0,1-.77.36,4.36,4.36,0,0,1-.44,1.35,6.12,6.12,0,0,1-2.7,2.35,4.94,4.94,0,0,1-2,.39h-.16a6.39,6.39,0,0,1-2.8-.84,6.88,6.88,0,0,1-2.32-2c-.19-.25-.37-.51-.54-.77h0l-.07,0L211,852c-.36.36-.71.73-1.05,1.12h0a49.68,49.68,0,0,0-3.5,4.72c-1.57,2.42-3,4.9-4.35,7.46-.25.47-.5,1-.74,1.43v0c-.4.79-.81,1.59-1.23,2.38-.73,1.34-1.51,2.61-2.32,3.91-.55.89-1.13,1.77-1.7,2.65-1,1.53-2,3.12-2.94,4.75-.73,1.31-1.42,2.64-2.13,4-.55,1.09-1,2.24-1.46,3.35l-.3.74c-.3.81-.68,1.89-1,3h0q-.18.66-.33,1.32a1.75,1.75,0,0,1-.38,1.18,1.16,1.16,0,0,1-.91.37A2.28,2.28,0,0,1,185.87,894.24Z"/><path d="M209.73,893.36l0,0a12.2,12.2,0,0,1-1.45-3.59c-.44-1.72-.76-3.45-1.07-5.19q-.86-5.07-1.91-10.09v.06c-.82-3.93-1.33-7.9-1.89-11.87-.59-4.17-1.36-8.3-2.24-12.43,0,.21.09.41.13.62-.14-.69-.29-1.38-.43-2.07,0,.21.09.42.13.63a80.62,80.62,0,0,0-1.93-8c-.21-.52-.43-1-.67-1.55-.11-.2-.22-.41-.34-.61q-.39-.54-.81-1.08l-.77-.85v0c-.19-.21-.39-.42-.6-.62l-.32.31h0a6.34,6.34,0,0,1-.73.55,6.77,6.77,0,0,1-1.63.77h0a8.56,8.56,0,0,1-2.66.41,8.9,8.9,0,0,1-1.46-.12,10,10,0,0,1-6.86-4.74,7.23,7.23,0,0,1-1-3.42,5.58,5.58,0,0,1,1-3.48,6.13,6.13,0,0,1,1.23-1.36,10.37,10.37,0,0,1,1.54-1,5.41,5.41,0,0,1,1.7-.45,7,7,0,0,1,1-.07,12.43,12.43,0,0,1,1.49.1,13.13,13.13,0,0,1,4,1.16,35.58,35.58,0,0,1,3.46,1.88,27.32,27.32,0,0,1,4.89,4.34,38.15,38.15,0,0,1,3.68,4.44,23.3,23.3,0,0,1,1.53,2.53,20.42,20.42,0,0,1,1.27,3.14,50.5,50.5,0,0,1,1.58,8.27c.14,1,.28,2,.41,3l0,0c.22,1.68.43,3.36.58,5,.33,3.38.38,6.83.42,10.17,0,2.1.06,4.27.16,6.39l0,.51c.14,2.46.27,5,.27,7.51v1.07c0,2.34,0,4.69.06,7v0s0,.09,0,.13v-.1a19.84,19.84,0,0,1,.1,2.31c.37.31.59.84.15,1.07a1.3,1.3,0,0,1-.58.14A1.92,1.92,0,0,1,209.73,893.36Z"/><path d="M207.75,894.65a7.55,7.55,0,0,1-5.17-4.91h0a3.55,3.55,0,0,1-.12-.65c-.09-.71-.1-1.44-.12-2.15v-.69c0-.77,0-1.54-.07-2.32l0-1.15c-.07-2.49-.15-5-.27-7.45l0-.38c-.14-2.6-.29-5.3-.53-7.94v-.16l0-.09c-.27-2.82-.59-5.62-.91-8.43-.35-3-.8-6-1.3-9v0c-.39-2.32-.85-4.79-1.39-7.55a38,38,0,0,0-1-3.79c-.08-.21-.16-.41-.25-.62l0,0c-.16-.37-.33-.73-.5-1.1s-.33-.56-.51-.84a4.59,4.59,0,0,0-.33-.44,2.7,2.7,0,0,0-.28-.31l-.16-.14-.21-.16.1.07.09.05,0,0,0,0,.22.13-.23-.15s0,0-.06-.05l0,.05-.37-.21-.21-.07-.24-.07a5.16,5.16,0,0,0-.79-.07l.35,0-.44,0a1.2,1.2,0,0,0-.2,0l.25.33.26.28.52.47a3.29,3.29,0,0,1,1.74,1.66,1.67,1.67,0,0,1,.08.2s0,0,0,0a1.39,1.39,0,0,1-.11,1.21,1.23,1.23,0,0,1-1,.47,2.6,2.6,0,0,1-1.24-.36h0a6.71,6.71,0,0,1-1.47-1.19A20.75,20.75,0,0,1,189.9,835a14.1,14.1,0,0,1-1.26-2.12,2,2,0,0,1-.08-1.58,3.72,3.72,0,0,1,1.76-1.46,4.7,4.7,0,0,1,2.49-.33,9.06,9.06,0,0,1,2.69.75,13.56,13.56,0,0,1,5.26,4.74,33.23,33.23,0,0,1,4.17,9.41c1.18,3.8,2.14,7.66,3,11.55s1.67,8.11,2.22,12.21.87,8.46,1.15,12.71c0,.84.1,1.68.16,2.53v.2c.07,1.22.16,2.44.24,3.66.05.64.09,1.28.14,1.92,0,.24,0,.48,0,.71a13.66,13.66,0,0,1,.09,2.39,2.71,2.71,0,0,1-1,2,3.07,3.07,0,0,1-1.81.53A5.42,5.42,0,0,1,207.75,894.65Z"/><path d="M180.8,900.34a5.73,5.73,0,0,1-1.06-.4h0a6.35,6.35,0,0,1-3.23-3.69,6.15,6.15,0,0,1,.17-3.4l0-.11h0c.18-.73.39-1.44.6-2.15.41-1.37.86-2.73,1.32-4.09,1-2.94,2.11-6,3.35-9.34a72.37,72.37,0,0,1,3.71-8.48A88.09,88.09,0,0,1,191,860c1.33-2,2.75-3.82,4.1-5.55a43.14,43.14,0,0,1,3.3-3.81l0-.06c.56-.59,1.15-1.15,1.75-1.7l-.21.2a28.62,28.62,0,0,1,6.17-4.48,12.45,12.45,0,0,1,5.47-1.69,5.15,5.15,0,0,1,2.45.93c.55.31,1.19,1,1,1.68s-1.22.54-1.7.2l-.28-.19-.11,0h-.26a5.49,5.49,0,0,0-.7.17l.18,0c-.37.14-.71.29-1.06.46a23.55,23.55,0,0,0-3.86,2.89,28.3,28.3,0,0,0-2.46,2.68c-.83,1.06-1.62,2.13-2.39,3.23-2.37,3.68-4.52,7.48-6.58,11.35a98.7,98.7,0,0,0-5.32,11.65c-1.22,3.39-2.28,6.82-3.38,10.24-.57,1.77-1.12,3.54-1.63,5.32a41.74,41.74,0,0,0-1.2,4.81v.14a2.09,2.09,0,0,1-.63,1.5h0l-.23.2a2.58,2.58,0,0,1-1.52.44A4.32,4.32,0,0,1,180.8,900.34Z"/><path d="M199.13,977.83a9.3,9.3,0,0,1-5.6-2.94c-2.47-2.64-3.5-6-4.19-9h0l-.06-.32-.07-.3c0-.11-.05-.21-.07-.31l0,0a74.16,74.16,0,0,1-1.52-11.49,112.75,112.75,0,0,1-.22-12.23c.22-4.15.78-8.31,1.3-11.83q.85-5.76,1.66-11.52c.32-2.21.69-4.56,1.18-7.39a42.31,42.31,0,0,1,1.73-7.15c.48-1.34.9-2.46,1.29-3.5.5-1.23,1-2.46,1.61-3.66.69-1.43,1.66-3.34,3.46-3.39A2.75,2.75,0,0,1,201.9,894a2.15,2.15,0,0,1,.91,1c.23.53.06,1.18-.61,1.18a1.35,1.35,0,0,1-.46-.07,11.38,11.38,0,0,0-.72,1.59c-.1.29-.19.59-.28.89h0a54.25,54.25,0,0,0-1.62,7.72c-.37,3.5-.6,7.11-.71,11.05-.09,3.79-.37,7.63-.64,11.33l0,.36a177.09,177.09,0,0,0-.53,21.18l.1,1.89.05.83,0,.63,0-.33,0,.27a2,2,0,0,1,0,.25v0c.15,2,.33,4.12.59,6.17.18,1.38.38,2.75.62,4.12h0a61.9,61.9,0,0,0,3.18-7.43c1.49-4.32,2.89-8.76,4.25-13q1.44-4.59,2.93-9.15l.59-1.79c1-3,2-6,3-9l.24-.68c1.1-3.33,2.24-6.76,3.08-10.21,1-4.29,1.81-8.64,2.44-12.33.19-1.12.39-2.24.57-3.38.48-2.68,1-5.35,1.37-8h0l.11-.78a24.37,24.37,0,0,0,.27-3.32q0-.43-.12-.87a43.84,43.84,0,0,0-1.32-4.4l-.16-.39a5.36,5.36,0,0,1-1.39-.2,7.88,7.88,0,0,1-3.06-1.66,8,8,0,0,1-2.11-2.77,4,4,0,0,1-.14-3.33,3.1,3.1,0,0,1,2.21-1.63,3.46,3.46,0,0,1,.83-.09l.42,0c.75,0,1.49.07,2.24.17a11.67,11.67,0,0,1,7.62,4.43,21.33,21.33,0,0,1,2.87,5.8c.57,1.63,1.07,3.25,1.46,4.81a18.21,18.21,0,0,1,.59,4.48,19.6,19.6,0,0,1-.21,2.66l-.07.56c-.21,1.88-.54,3.76-.85,5.54-.46,2.6-.9,5.21-1.35,7.81l-.68,4c-.63,3.73-1.47,7.59-2.5,11.47-.72,2.71-1.64,5.4-2.53,8l-.88,2.61c-.58,1.78-1.19,3.54-1.8,5.31s-1.21,3.55-1.79,5.32q-1.8,5.4-3.53,10.79l-.23.7-.19.6a121.73,121.73,0,0,1-5.48,14.71,35.38,35.38,0,0,1-1.7,3.16,16.8,16.8,0,0,1-3.46,4.19,5.37,5.37,0,0,1-3.48,1.14A6,6,0,0,1,199.13,977.83Z"/></g></g></svg>