<svg xmlns="http://www.w3.org/2000/svg" viewBox="0 0 3115.35 794.06"><defs><style>.cls-1{opacity:0.64;}.cls-2{fill:#f7941d;opacity:0.7;}</style></defs><title>Pintura</title><g id="Capa_2" data-name="Capa 2"><g id="Capa_1-2" data-name="Capa 1"><g class="cls-1"><path class="cls-2" d="M971.71,223.14c-40.62-22.87-336.45-2.07-358.08-9-17.62-9.25,9-167.69,25.15-190.91,5.68-8.3,12.3-9.51,27.56-5.46,24.15,7.58,336-2.39,336-2.39,4.17,5,16.36-11.46,18.71-5.42,7.31,14.06,512.71,2,555.81,1.75,26.14-.13,5.53,9.17,36.28,5.72,65.53-6.73,208.49,2.55,258-5.52,39.7-6.71,48.27-6.75,86.5-.46,39,5.7,246.35,1,270-9.71,5.76-3,10.2-1.83,10.25,1.71,0,.74,146.18,5.31,146.87,8.08,1.16,3.53,5.61,5.28,9.72,2.9C2402.1,10.84,2557.6-.41,2560.18,10c7.89,29.49-12.41,154.22-30.22,184.44-18.18,32.23-120.07-5.64-201.56,12.89L1948.35,204,1867,215.08c-9.39-10.71-45.12,15.42-66.94-3.77-9.23-7.63-73.93-9.65-88.19-1.89-12.37,6-343.64-14-377.42,6.74C1273.81,197.54,1028.58,219.6,971.71,223.14Z"/><path class="cls-2" d="M2025.84,66.53C2083,83.21,2461.91,19.29,2491.29,23c24.64,6.57,21.41,167.31,5.15,192.65-5.72,9.05-14,11.22-34.6,9.44-32.78-4-434.63,51.6-434.63,51.6-6.4-4.34-18.93,13.73-23.17,8.09-12.24-12.84-664.27,73.15-720,79.69-33.83,4-9-8.27-48.12-.34-83.51,16.25-270.46,28-333,43.26-50.08,12.45-61.16,13.75-111.91,13.12-51.69.09-319.2,35.06-347.64,49.16-6.87,3.8-12.85,3.31-13.61-.19-.16-.73-190.33,16.16-191.77,13.52-2.2-3.33-8.3-4.41-13.16-1.45-9.11,4.63-208.24,38.54-213.63,28.65-16-28-14.39-154.47,2.69-187,17.17-34.58,156.59-12,258.45-42.29L765,228.52,868.2,205.64c14.28,9.24,55.37-21.86,87.42-6.06,13.46,6.2,97.64-1.29,114.57-11.05,14.84-7.73,447.73-36.46,487.37-62C1639.73,136.12,1952.9,78.36,2025.84,66.53Z"/><path class="cls-2" d="M620.06,518.18c-65.78-24.46-507.94.22-535.21-5.22-26.63-8.86,9.89-167.79,33.9-191.46,8.51-8.39,18.59-10.14,41.7-6.07,20.92,3.68,247.34-.61,268.59-1,122.86-2.15,241.2-3.71,241.2-3.71,6.23,5,25.09-11.26,28.52-5.2,2.7,3.59,52.66,5.69,127.09,7.34,0,0,440.83,5.63,715.88,14.37,39.63,1.26,7.58,9.39,54.46,8.09,99.9-2.78,315.37,17.85,391.16,14.38,60.86-2.79,73.84-2.35,130.88,7.44,46.47,8,371.36,27.37,409.25,19.91,9.16-2.25,15.68-.55,15.2,3,0,0,132.56,14.69,185.5,21.54,20.66,2.68,34.47,4.74,34.61,5.45,1.12,3.67,7.48,5.94,14.12,4.19,12-3.14,248.13,8.73,250.14,19.38,5.73,30.36-48.83,150.56-80.55,178.11C2913.17,637.66,2772,586,2644.94,593.6c-107.45-9.58-192.36-17.07-282.33-24.32-323.68-26.08-280.34-21.41-405.45-17.57-12.78-11.55-68.56,11-99.36-9.39-12.77-8.45-109.32-15.39-131.36-8.78-8.66,2.21-260.45-13.28-269.61-13.7-37.35-1.73-261.11-13.46-294.53-.59C1065.67,497.32,719.14,514.13,620.06,518.18Z"/><path class="cls-2" d="M2463.45,381.71c47.42,24.48,458.27,46.47,498.28,61.36,22,12.09-53.82,163.31-80.5,183.51-9.57,7.24-18.88,7.64-38.18.82-29.44-10.4-282-34.31-452.2-42.14-4.95-5.36-23.67,9.87-26,3.64-2-3.55-46.15-9.25-112.47-13.75-155.1-10.53-203.25-10.77-312-12.48-45.78-.72-149.43-1.08-186.71-.55-72.64,1-126.44,1.91-141,2.13-35.44.53-7.58-8.83-49.3-4.88-88.54,8.38-283,5.08-349.39,17.55-53,10-64.49,9.55-116.9,7.15-32.94-1.51-148.26,8.33-190.05,13.29-32.93,3.91-148.3,17-171.73,27.65-7.16,3.81-13.31,3.31-14-.19C714.51,625,523,640.08,523,640.08c-2.34-3.3-8.68-4.26-13.64-1.2-9.78,3.71-213.19,45.22-219.54,35.63C271.61,647,265.23,521,281.58,487.57c8.6-17.59,50.21-22.6,103.38-27,201.45-16.73,42.27-10.65,340.08-41.34,277.66-28.61,261.32-12.29,476.88-45.47,14,9.89,61.81-18.55,94.44-.7,13.36,7.31,104.31,5.5,124.17-2.82,7.32-3.07,154.56-2.66,163.24-2.67,29-.06,60,.78,91.15,1,120.81.8,250.23,4.16,277.38-6.18C2018.36,379.7,2309.8,376.62,2463.45,381.71Z"/><path class="cls-2" d="M1003.49,757.14c-22.21-8.7-105.26.19-185.14,12.12-39.93,6-79.1,12.53-109.66,17.52s-52.63,8.06-58.38,7.1c-19.8-6.62-35-165.78-24.69-191,3.67-8.94,10-11.11,26.43-9.31,14.88,2.28,164.72-20.24,179.55-22.41,81.73-11.94,160.6-22.92,160.6-22.92,5.24,4.48,14.4-13.13,18-7.41,5.68,7.37,178.83-11.18,270.93-19.92,85.81-8.15,204.84-19.28,297.67-25.94,26.78-1.92,6.6,8.72,37.81,3.67,66.53-10.75,214.16-7.51,264.48-17,40.53-7.65,49.29-8.24,88.9-3.08,32.38,4.22,253-2.56,277.71-13,5.94-3,10.51-1.8,10.56,1.75,4.15.44,150.36,6.18,151.06,9.2,1.1,3.56,5.57,5.32,9.91,3,7.73-4.06,168.33-11.22,170.51-.77,6.19,29.68-21.4,153.69-40.24,183.53-10,15.84-39.62,13.66-77.32,9.69s-83.34-9.15-124.12-.5c-414-5.3-387.31,1.21-459.36,13.31-10-10.46-43.52,16.48-66.83-1.43-9.56-7.34-74.36-6.59-87.89,1.73-3,1.58-25.84,2.72-59,3.71-33.93,1-288.55,6.19-314.77,26.76C1293,701.54,1071.09,744.76,1003.49,757.14Z"/><path class="cls-2" d="M2755.3,155.15c36.37,22.74,330.43,15.25,356.43,24.75,16.41,10.17-27.22,166.64-44.93,188.93-6.34,8-12.84,8.83-27.15,4-18.79-7.35-200.58-11.82-324.72-10.76-3.82-5.08-16.33,11.08-18.33,5-9.06-20.33-507.92-3-537.2-2-25.26.84-5.72-8.84-35.35-4.74-62.85,8.71-201.79,4.14-248.94,15-37.68,8.68-45.77,8.44-83.4,4.76-44.45-4.35-238.09,14.33-258.54,27.5-5.19,3.34-9.52,2.62-10.1-.9,0,0-2.23-.07-6.1.06-2.43.08-135.43,6-136.16,4.25a6.44,6.44,0,0,0-9.82-2c-6.85,3.75-153.35,30.41-158,20.44-13.18-28.47-18.18-153.78-6.68-185.64,6.08-16.85,35.85-18.68,73.9-19.4s84.24.09,123.06-12.93c480.41-36.27,308.23-10.8,457.79-39.15,10.25,10.2,43.29-17.4,67,.71,9.66,7.37,74.08,6.45,88-1.64,6.44-3.74,172.1-2.65,180.3-2.63,31.36.05,93.76-.48,124.94-1.73,35.89-1.43,62.84-4.39,71.26-9.5C2440.9,172.6,2616.14,161.46,2755.3,155.15Z"/></g></g></g></svg>