<svg xmlns="http://www.w3.org/2000/svg" xmlns:xlink="http://www.w3.org/1999/xlink" viewBox="2050 80 20 150"><defs><style>.cls-1{isolation:isolate;}.cls-2{opacity:0.4;mix-blend-mode:multiply;}.cls-8{fill-rule:evenodd;}</style></defs><g class="cls-1"><g id="Capa_2" data-name="Capa 2"><g id="Capa_1-2" data-name="Capa 1">

<path class="cls-8" d="M2022.94,95c-.79,1.49-.78,5.76-.15,11.06,1.47,11.37,1.35,22.51-.22,41.72-1.09,13.25-1.07,16.23.52,18.58,1.6,2.67,2,2.74,4.49,1.08,3.93-2.43,5.29-6,7.13-18.13,2.76-17.86,2.37-45.15-.69-52.78-1-2.39-6.47-5.19-8.49-4.38A7.39,7.39,0,0,0,2022.94,95Z"/>
<path class="cls-8" d="M2072.82,145.36a117.63,117.63,0,0,1-12.91,11.7c-15.57,12-21,21.66-13.07,23.28,2,.39,3-.15,6.63-3.41a141.64,141.64,0,0,1,12.72-9.27c8.22-5.32,16-12.73,19.94-18.68,2.4-3.85.78-9-3.2-9.82C2079.36,138.25,2079.12,138.45,2072.82,145.36Z"/>
<path class="cls-8" d="M2054.31,195.49c-1.87,4.38,4.36,5.83,29.13,6.88,16.61.7,22.18,0,23.56-3.27,1-2.31-.95-6.34-3.45-7.26-3.33-1.12-13.19-1.21-27.67-.31C2062.29,192.5,2054.93,193.85,2054.31,195.49Z"/>

</g></g></g></svg>