<svg xmlns="http://www.w3.org/2000/svg" xmlns:xlink="http://www.w3.org/1999/xlink" viewBox="0 -1 125 135"><defs><style>.cls-1{isolation:isolate;}.cls-2{opacity:0.4;mix-blend-mode:multiply;}.cls-8{fill-rule:evenodd;}</style></defs><g class="cls-1"><g id="Capa_2" data-name="Capa 2"><g id="Capa_1-2" data-name="Capa 1">

<path d="M125.29,96.39a2.74,2.74,0,0,1-2.37,0,235.72,235.72,0,0,1-26.59-6.6,133.3,133.3,0,0,1-21.76-7.27c-5.41,11.25-12.58,21.58-18,32.85-1.89,3.81-3.31,7.83-5.06,11.71-.63,1.88-3,4.07-4.75,2.14a6.32,6.32,0,0,1-1.06-3.62c-.23-4.59-.09-9.19-.13-13.78.37-13.18,1.09-26.4,3.49-39.39C36.2,74,23.67,77,10.72,78c-2.67,0-12,2.91-10.58-2.25C2.32,73,5.66,71.33,8.32,69.07,18.48,60.71,30,54.23,40.58,46.5c-.22-8.08-.74-16.14-1.42-24.19-1-.94-1-2.53-1.12-3.82-.3-3.38-.2-6.68-.26-10.08a47.27,47.27,0,0,1,0-6.41A2.6,2.6,0,0,1,42.13.72a103.16,103.16,0,0,1,6.93,9.73A51.86,51.86,0,0,0,58.9,22.7c5.45,5.63,9,12.35,15.55,16.69a270.79,270.79,0,0,1,31.18-15A46.64,46.64,0,0,1,112,22.05a3.65,3.65,0,0,1,2.93.21c1.65,1.08,1.16,3.15.15,4.5-1.46,2.55-3,5-4.5,7.56C105.76,43.46,100,52,94.45,60.7c5.44,3.49,9.78,8.39,14.46,12.8A112.48,112.48,0,0,1,123,89C124.29,91.1,128.73,94.2,125.29,96.39Z"/>

</g></g></g></svg>