<svg xmlns="http://www.w3.org/2000/svg" viewBox="0 0 317.68 596.45"><title>Recurso 27</title><g id="Capa_2" data-name="Capa 2"><g id="Capa_1-2" data-name="Capa 1"><path d="M313.05,92.91a8.58,8.58,0,0,0-.94-.09,19.57,19.57,0,0,1-2.59-.62A76.1,76.1,0,0,0,301,91.07a75.31,75.31,0,0,0-15.63-1.52,166,166,0,0,0-23.47-1.5,1.74,1.74,0,0,0-2,1.19,4.67,4.67,0,0,0-1.74.88,5,5,0,0,0-1.07,4.27c-1.46,5.77-1.81,11.75-2.72,17.62-.55,4.3-1.33,8.59-1.92,13a10.56,10.56,0,0,0-.17,2.44c-3.07-.67-6.22-.86-8.71,0-4.23,1.57-5.64,27-6.46,32.38-2.39,15.4-3.51,31-5.31,46.43-.81,8.73-2.91,17.45-4.13,26.15a2.77,2.77,0,0,0-.51-1.13c-1.42-4-2.82-8-4-12.14-5.61-17.44-11.71-34.73-17.11-52.24-1.77-7.34-5-14.2-7.2-21.39-3.05-8.88-6.27-18.19-12.65-25.26C180.78,113.7,173,110,164.89,108a135.8,135.8,0,0,0-16.32-4.25c-1.88-.16-13.79-3.44-18-3.18-1-6.15-1.92-12.34-2.48-18.55,3.13-1.15,6.58-1.07,9.68-2.41,3.78-1.4,11.61-2.35,10.09-8-1.8-17.91-6.2-35.37-10.09-52.9a2.39,2.39,0,0,0,.13-.21,7.65,7.65,0,0,0,5.6-3.7c1.62-4,1.4-9.44-2.28-12.27-5-3.69-12.3-3-17.58-.18-6.91,5.44-5.69,3-12.94.56-4-.86-8.86-.57-12,2.41a8.47,8.47,0,0,1-4.41,2.95C89.25,8.3,83,4.94,78.83,9.5c-1.45,2.06-2.81,5.13-2.66,7.82-4.67-.17-9.07,3.93-9.8,8.43a27.88,27.88,0,0,0,.31,4.38c-.62,3.15-3.46,5.53-3.56,8.9-.7,3.24,2.1,5.54,3.68,8,.26,2.45-.53,5.63,1.87,7.26l.34.12a11,11,0,0,0-3.74,3.4c-1.57,2.4-.42,5.7,1.08,7.86,1.63,2.34,4.5,3.13,7.22,3.42-.56,1.83,0,5-.28,6.35-.16,4.6-.18,9.76-.21,14.49-.13,5.48-.36,11.15-.4,16.72a4.21,4.21,0,0,0-1.09.3c-2.12.65-4.2,1.39-6.26,2.21-13.63,5-26.89,11.05-38.83,19.36a91.37,91.37,0,0,0-15.64,10.1c-4.77,3.92-7.57,9.94-8.44,16C-1.14,168.88.11,183.71.71,198.3c.63,12.51.39,25.07,3,37.39,4.67,20.53,3.6,70.84,32.65,70.45a18.9,18.9,0,0,0,1.95-.19c2,1.64,10.21.79,12.2.81l2.6-.07c0,2.42.48,4.89.49,7.28.47,7.06.11,13.76,0,20.93-.25,24.41.34,48.82.62,73.22,1.48,21.47,1.81,43,2,64.48-.18,27.89,1.63,54.55,3,82.31.59,12.52.34,25.08,2,37.53.1,2.22,2.48,2.35,4.2,2.53,3.68.66,7.42.89,11.13,1.19,4.5,2,3.14-7.13,3.54-9.57,0-.47,0-1,0-1.61a39.88,39.88,0,0,0,22.06,8.29c8.67.52,18.51-1.5,23-9.7.88-2.21,4.93-6.17,3.89-8.18-1.89-2.84-7.08-2.48-10.16-3.32-2.39-.5-4.66-1.39-7-2.1-2.38-.88-4.93-1.14-7.32-2a9.55,9.55,0,0,0-3-.9c0-2.32.13-4.64.27-7,.88-12.46.94-24.94,1.38-37.42,1.31-19.56,3.29-39.11,3.71-58.72.23-12.88,2-25.62,2-38.51,1-13.21,1.49-26.45,1.75-39.7.31-11.11,1.35-22.19,1.52-33.29.88-15.37-1.24-31.4,3.27-46.3a1,1,0,0,1,.29-.42c2.8.93,6.13,0,8.75,1.8,1.6,6.63,1.2,13.46,1.27,20.21,0,5.22.34,10.43.41,15.65,2.16,40.62,1.26,81.23.86,121.9-.27,12,.81,24,1,36,.55,14.53,0,29.07.58,43.6.24,5.06.77,10.08.61,15.16-.92,4.24,7.22,4.37,10,4.56,2.91-.31,5.6,1.14,5.6-3,0-1.47.91-6.44.88-10,1.09.79,2.18,1.57,3.31,2.31a34.85,34.85,0,0,0,14.59,4.82c11,.55,38.87.3,36.67-16-1.58-2.84-5.62-1.42-8.28-2.27-2.72-.49-5.33-1.44-8-1.88-3.38-.61-6.93-.22-10.2-1.39a7,7,0,0,0-.51-2,6.92,6.92,0,0,0,0-1.5c.2-4.9.64-9.79.6-14.69.08-8.18,1-16.83.9-25.12.06-9.65-.37-19.3-.26-29-.34-19.82,1.26-39.68,1.19-59.51.16-33.31-.31-66.66,1.89-99.91,0-2.71,0-5.45-.07-8.14,4.58-.87,8.3-2,9.19-3.57,1.23-.85.44-3.86.65-5.29.1-4.09.23-8.22.12-12.32-.31-4.95-.2-9.91-.34-14.87-.27-8.29-1-16.54-1.57-24.81,1.24,3.14,2.59,6.24,3.85,9.38,3,9.29,7.49,18,12.46,26.31,4.13,6.51,8.7,14.57,17.13,15.56,27.63,2.12,31.67-30.22,35.8-50.67,3.68-14.77,4.55-29.94,5.63-45.06.3-3.29.27-6.6.25-9.9,7.64.66,15.3,1.09,23,1.37q6.12.63,12.25,1.2a19.59,19.59,0,0,0,2.54.18,1.58,1.58,0,0,0,1.19-.63l.15.12c1.26.77,2.2.6,2.89-.09,3-1,4.62-12.74,5.25-15.3a175.34,175.34,0,0,0,2.72-17.33c1.38-11.07,2.61-22.19,4.32-33.23.71-6.47,2.32-13,2.56-19.53C317.73,96.05,316.1,93.21,313.05,92.91Zm-184,21.37a18.05,18.05,0,0,1,.75-4.61c1,5.51,1.51,11.09,2.22,16.64,2.48,23.15,5,46.31,7,69.47a17.83,17.83,0,0,0-5.85,3.58c-2.49,1.81-5.24,3.54-7.63,5.59a1.53,1.53,0,0,0-.81.25,9.51,9.51,0,0,1-2.2,1.24q-.35.15-.69.33A91.62,91.62,0,0,0,110,213.84c-4.62,3.17-9.09,6.59-13.71,9.78.24-2.74-1-7.62-1.14-9-.83-4.68-1.67-9.36-2.79-14-3.68-19.31-7.81-38.54-10.88-58-1.11-6.32-2.16-12.64-3.23-19-.55-3.47-1.69-6.87-2.46-10.29,5.87,7.56,10.85,15.83,16.72,23.33,1.17.73,2-.61,2.1-1.67a64.56,64.56,0,0,1,1.64-7.39c1.54-4.77,3-9.53,4.53-14.31.2-.6.43-1.19.68-1.77,1.42-3.4,3.45-6.51,5-9.86,2.55,3.08,4.4,6.69,7,9.75l.07.07a56,56,0,0,1,7.14,9.29,19.25,19.25,0,0,1,3.46,5.3c.81,1.06,1.1,3.76,3,3.21,1.48-.67.67-5,1-6.52C128.18,120,128.82,117.19,129.06,114.28Zm-1.22-12.68a1.86,1.86,0,0,0,.08.49c-.45,1.47-.1,3.09-.44,4.6-1.31,5.1-1.67,10.36-2.22,15.6-2.39-3.51-4.74-7.07-7.44-10.33-1.36-1.59-2.88-3.06-4.1-4.76-.88-1.11-3.43-5.73-5.77-8,2.81-.34,5.6-.76,8.39-1.32A71.55,71.55,0,0,0,127.07,96C127.37,97.89,127.65,99.74,127.84,101.6Zm-30,11.65c-1.64,6.22-4.19,12.33-5.43,18.75-5.43-7.75-10.64-15.73-16.78-23a4.83,4.83,0,0,1,0-1.16c0-1.61.14-3.29.18-5a.93.93,0,0,0,.78-.25,102.28,102.28,0,0,0,13.55-1.09c4.68-.4,9.31-1,13.93-1.88C101.86,104.13,99.27,108.46,97.79,113.25Zm-15-86.35a15.89,15.89,0,0,0,4.18,1c6.87.54,10.13-7.46,16.49-8.58,3.15.11,6.13,1.79,9.37,1.46,4.21,0,6.55-4,10.15-5.45,4.37-1.43,7.75,2.84,12,3.31a4.68,4.68,0,0,0,.12.79c.32,1.95.76,3.89,1.2,5.82-3.59-.21-9.54,2.29-11.24,3.21-3.37,1.18-2.59,4.58.59,5.27,4.09.89,8.39-.28,12.24-1.67l.87,3.69c-1.93-2.33-7.58-.93-10,0-5.44,1.52-6.53,10.86.18,11.06,3.76.77,10.05-2.07,10.94-6,1,4.67,2,9.37,2.86,14.09-2.19-.79-4.54-1.16-6.78-1.83a37.21,37.21,0,0,0-6.85-1.42A5.36,5.36,0,0,0,127.47,47c-1.79-1.68-4.26-2.26-6.54-3-1.28-.34-1.5-1.85-2-2.89A11.82,11.82,0,0,0,118,39a1.14,1.14,0,0,0-2.08.91h0c1.82,6.8,3.07,6.49,9.12,8.67,1.64.56,2.12,2.92.33,3.62-3.78,2.14-8.43,0-12.33,1.71-1.26.91-.35,3.17,1.14,3.13a3.37,3.37,0,0,1,.34-.09,8.78,8.78,0,0,1-1.41,1c-2.15,1.74-4.27,3.5-6.55,5.08-3.58,2.93-9.06,7.73-13.65,4.13-1.62-1.47-2.26-3.63-3.35-5.47-1.79-3.13-3.57-6.26-5.48-9.31-2.42-4.28-1.63-8.85-.9-13.45A36.7,36.7,0,0,0,82.75,26.9Zm46.92,17c-.9-.11-2.09,0-2.75-.67A3.82,3.82,0,0,1,128,39.78a13.87,13.87,0,0,1,6.78-2.08A8,8,0,0,1,137,38c.07,1.27.41,2.65-.89,3.44a14,14,0,0,1-1.82,1.29A2.75,2.75,0,0,0,132,40C129.6,39.79,128.8,42.17,129.67,43.86ZM82.39,68.37c.08.14.15.29.22.42,2.54,4,4.43,8.28,6.82,12.32C91,85,92.83,87,97.2,87.21c5,.5,9.91-.49,14.66-1.87a50.09,50.09,0,0,0,7.3-1.76,34.18,34.18,0,0,1,5.89-2.1A90.62,90.62,0,0,0,126.5,92.7,1.87,1.87,0,0,0,126,93c-3.12,1.21-6.72,1.37-10,1.86a87.73,87.73,0,0,1-11.52,1.51,154.36,154.36,0,0,1-16.72,2.4,73.39,73.39,0,0,1-10.36.88,12,12,0,0,1-1.35,0c.49-9.59.26-19.19.42-28.87a1.46,1.46,0,0,0,.4-.65l0,.1a1.42,1.42,0,0,0,.07-.22l0,.11a1.36,1.36,0,0,0,0-.87,35.84,35.84,0,0,0,5-.44A1.06,1.06,0,0,0,82.39,68.37ZM67.37,62c-.85-3.48,3.85-5.12,6.54-5.72A7.43,7.43,0,0,0,75.75,56c1.47,3.28,3.34,6.38,5.1,9.52-1.08,0-2.39.46-3.39.37C73.91,66,68.47,66.3,67.37,62Zm33.17,230a1.29,1.29,0,0,0-.74.8c-2.61,7.68-12,11.35-19.68,10.78-10.69-.46-21.58-1.16-32.31-.61,12.25-5.5,26.13-16.83,34.12-23.55,6.2-5.47,12.44-10.91,18.46-16.59,0,3.85.41,7.69.44,11.54C101,280.24,101.28,286.15,100.54,292Zm1.76-36C88.94,268.81,75.37,281.62,60,292c-11.43,7.62-27.31,17.9-38.48,4.23-7.84-10.26-9-23.8-11.26-36.11-1.68-12.81-4.09-25.5-5.62-38.32C3.88,205.18,2.73,188.57,3,172a81.42,81.42,0,0,1,3.84-22.44c2.27-6.24,8-9.58,13.23-13,3.32-2.3,7.18-3.64,10.56-5.84,2.65-1.69,5.3-3.37,8.06-4.89,6.3-3.4,12.89-6.2,19.41-9.1,3.93-1.55,7.81-3.2,11.67-4.91a14.58,14.58,0,0,1,2.67-1c-.17,1.76,1,4.16,1.22,5.7,2.82,13.06,4.7,26.31,7.1,39.46,2.52,14.38,5.74,28.63,8.32,43,1.66,6.93,3,13.93,4.26,20.93.37,1.55-.44,4.11.81,5.22-5.11,3.34-9.61,7.55-15,10.49-3.39,2.25-6,5.5-9.41,7.71-2.68,2-5,4.31-7.66,6.33-.45.37-1.14.85-1.79,1.4-1.56-5.53-2.13-11.25-2.89-16.93-3.26-20-4-40.45-6.94-60.53-.14-1.15.24-2.67-1.13-3.23-1.14-.54-1.93.69-1.89,1.72,1.43,14.44,2.7,28.93,4.49,43.35.41,5.47,1.43,11.07,2.24,16.5a182.7,182.7,0,0,0,3.19,19.76,1.93,1.93,0,0,0,1.11,1.54c-.26.73-.06,1.47,1,2.13.89.42,1.61-.39,2.23-.92,1.86-1.51,3.73-2.94,5.53-4.56,3.9-3.58,8.36-6.46,12.17-10.14,12-8.21,23.88-16.61,36-24.72a72.23,72.23,0,0,1,9.08-5.1c.7,1.15,2,2.24,2.53,3.24,2.21,3,4.24,6.08,6.15,9.25a2,2,0,0,0,1,.86c-1.06,1.06-2.34,1.94-3.36,3-3,2.79-5.59,6-8.54,8.78C115.79,242.22,109.09,249.17,102.3,256Zm36.79-8.42c-9.06,2.55-18.55,3.83-27.78,5.74-.63.2-1.25.37-1.88.52,3-3,5.86-6.1,8.74-9.19s5.72-6.16,8.62-9.2c2.71-2.85,5.47-5.67,8.31-8.41.83-.94,2-1.64,2.78-2.56.42.59.9,1.2,1.43,1.82a3.61,3.61,0,0,0-.25,2.31c.57,6.21.64,12.43.7,18.65A1.71,1.71,0,0,0,139.09,247.61Zm.27-26.14a2.14,2.14,0,0,0-1.29-1.46,1.65,1.65,0,0,0-1.52.53,1.2,1.2,0,0,0-.65.35c-.43-1.17-1.57-2.33-2-3.38a77.56,77.56,0,0,0-6.17-8.76,59.32,59.32,0,0,1,6.6-4.82,22.09,22.09,0,0,1,7.83-4.63c5.77-2.24,9.7,3.18,12.55,7.35,2.09,3.53,4.75,6.68,6.49,10.41-4.31-.37-6.66-3.26-9-6.57-.46-.61-1-1.36-1.87-1.31-2.07.39-1,2.83-.06,3.87.82,1.38,1.45,2.86,2.14,4.31.84,2,2.31,3.74,2.57,5.92-.39,3.85-3.88-.29-5.24-1.42-1.89-1.31-3.35-8.11-5.81-7.34a1.6,1.6,0,0,0-.61,2.12,60.12,60.12,0,0,1,3,6c.76,1.92,2.24,3.59,2.67,5.62,0,0,0,.08,0,.19a1.76,1.76,0,0,1-.1.3c-1.62,2-5.74-3.11-7-4.24C141,223.54,140.14,222.53,139.36,221.47Zm118.39-38.79c0,2.83-.25,5.65-.49,8.47-1,11.39-1.31,22.84-3.39,34.1-1.09,6.57-2.67,13.05-3.8,19.62a95.76,95.76,0,0,1-4.63,18c-1.7,5.23-3.85,10.4-7.57,14.55-5.48,6.15-15.19,9.4-22.94,5.9-7.86-4.91-15.35-21.45-19.41-30.07-2.61-6.58-5.07-13.22-7.83-19.74-.57-1.47-1.17-2.92-1.71-4.41a8.42,8.42,0,0,0-.68-1.69q-.48-24.94-2-49.86a159,159,0,0,0-1.81-20.67c-.2-1.61.21-4.65-2.2-4.47-1.9.86-.89,3.52-.89,5.19.53,4.61,1.11,9.59,1.32,14.31,1,14.93,1.54,29.86,2.26,44.79-.07,15.75,2,31.39,2.34,47.11,0,7.38.57,14.74.3,22.12,0,1.31,0,2.62,0,3.93,0,.4-.12.84-.16,1.29a8.31,8.31,0,0,0-1.84.63,35.59,35.59,0,0,1-4.82,1.55q-8.16,1.48-16.42,2.22a29.93,29.93,0,0,1-11.32,0c-4.86-.44-5.84-4.48-5.75-8.68a105.56,105.56,0,0,0-.41-11c-.92-15.62-.15-31.34-1.93-46.9,2.15,2,4.31,3.54,5.19,3.38a3.79,3.79,0,0,0,4.47-4.92c5.65,3.21,7.74-3.83,5.2-7.94,10.92,3.81,8.31-3,4.26-9.46-2.9-4.16-5.28-8.73-9-12.28A11.28,11.28,0,0,0,141.7,195c.23-3.83-.47-7.84-.87-11.68-.65-4.66-.78-9.36-1.37-14-1.12-11.82-2.42-23.68-3.74-35.5A244.15,244.15,0,0,0,131.66,104a17.89,17.89,0,0,1,2.3.33c5.89,1,11.63,2.43,17.7,3.52,8.18,2.08,16.56,4,24.16,7.72,14.42,7.91,18,25.27,23.33,39.51,2.5,5.66,3.68,11.75,5.62,17.6,2,5.15,3.47,10.46,5.17,15.71,3,8.53,5.77,17.11,8.77,25.63,2.11,6.31,3.79,12.8,6.17,19a2.91,2.91,0,0,0,.29.41c.41.95.9,1.86,1.35,2.79a3.4,3.4,0,0,0,1.12,1.7c3.09,1.27,2.94-5.35,3.45-7.39a233.7,233.7,0,0,0,4.19-27.5c1.94-15,3.13-30.06,5.47-45,0-.38.07-.75.11-1.12.1-1.14.22-2.29.34-3.43q.56-5.47,1.27-10.92c.68-2.78.64-10.06,2.71-12,4-.42,11.08,1,14.4,3.14-2.93,2.32-7.12,1.58-10.56,1.12-.54-.06-1.56-.43-2.17-.13-1.28.58-.82,2.63.34,3.08.76.17,1.54.34,2.33.47a3.12,3.12,0,0,0,0,.54,146.86,146.86,0,0,1-1.74,15.65c-.16,1.1-.33,2.2-.49,3.3-.35,2.25-.68,4.51-1,6.78-.21,4.61-4.29,12.62.9,15.57a15,15,0,0,0,5.81.67,32.43,32.43,0,0,0,4.43,1.06l.37,0C257.78,182.15,257.77,182.42,257.75,182.68Zm52.53-68.17c-1.21,6.72-2,13.49-3,20.23-2.17,14.73-3.08,29.73-6.46,44.24a4.35,4.35,0,0,0-.54-.22c-8.87-.49-17.79-1.84-26.67-2.69-7.1-.21-14.13-.89-21.16-1.73.1-1.55-.07-3.4.28-4.31a220.79,220.79,0,0,0,2.86-26.65c-.07-1.47.56-3.24.47-4.78a12.54,12.54,0,0,0,3.36-.88c4.63-2.07,4.38-5.3.29-7.86-.8-.36-1.69-.72-2.63-1.06a1.86,1.86,0,0,0,.57-1.67c.2-1.9.65-3.77.86-5.66,1.11-7.13,2.24-14.25,3.21-21.41.53-2.32.38-5.26,1.67-7.25,1.64.13,3.45.6,4.48.58,3.91.23,7.7,1.26,11.58,1.71,7.74,1.1,15.5,2,23.26,3a28.67,28.67,0,0,1,9.66,1.81C312.58,104.84,310.87,109.65,310.28,114.51Z"/></g></g></svg>