<svg xmlns="http://www.w3.org/2000/svg" viewBox="0 0 424.98 118.21"><defs><style>.cls-1{fill:#4ac2ef;opacity:0.7;}.cls-2{font-size:79.22px;font-family:GuthenBlootsPersonalUse, Guthen Bloots Personal Use;}</style></defs><title>Emprende_ahora</title><g id="Capa_2" data-name="Capa 2"><g id="Capa_1-2" data-name="Capa 1"><path class="cls-1" d="M79.89,103.21C70,94.61,8.69,119.5,4.74,118.15.83,115.37,2.92,48,5.87,37.34c1-3.78,2.43-4.86,5.77-4,3.55,1,39.85-10.36,71.92-18.07,1,1.92,3.37-5.41,4-3,.44,1.43,7.54.83,18.09-.57l38.82-5.14c12.83-1.7,8.3-1.2,21.17-2.53,21.82-2.24,2.48-1.51,41.51-3.68,5.63-.31,1.19,3.78,7.81,2.28C229-.49,259.78,4.14,270.48,1.51c17.44-4.28,3.48,1.58,48.89,4.64,12.85.86,25.31.95,27.93-.74,1.28-1,2.22-.4,2.17,1.07.63.24,31.29,7.68,31.4,9.07s1.1,2.44,2,1.62c1.69-1.5,35.24,1.7,35.58,6.15.95,12.65-6.21,63.34-10.54,75.1-2.28,6.21-8.51,4.13-16.4,1-23.57-9.27-13.89-2.52-38.64-7.09-18.09-3.34-11.47-2.75-42.14-6.69-15.69-2-11.42-1.34-21.88-2.47-4.59-.5-.64-.94-20.67,3.22-1.92-4.63-9.54,5.71-14.08-2.22-1.88-3.3-15.55-4.46-18.58-1.29-.65.58-5.5.61-12.53.34-5.34-.2-60.58-3-67,5.87C141.38,82.09,94,98.6,79.89,103.21Z"/><text class="cls-2" transform="translate(10.06 76.14)">Emprende ahora: </text></g></g></svg>