<svg xmlns="http://www.w3.org/2000/svg" viewBox="0 0 1599.04 321.59"><defs><style>.cls-1{fill:#f7941d;opacity:0.53;}.cls-2{font-size:219.63px;font-family:GuthenBlootsPersonalUse, Guthen Bloots Personal Use;}.cls-3{fill-rule:evenodd;}</style></defs><title>Recurso 53</title><g id="Capa_2" data-name="Capa 2"><g id="Capa_1-2" data-name="Capa 1"><path class="cls-1" d="M210.15,245.19c-26.78-17.78-193.6,33.74-204.32,30.94C-4.8,270.37.86,131,8.88,108.86c2.84-7.83,6.62-10.06,15.69-8.18,9.67,2,108.36-21.45,195.57-37.4,2.62,4,9.15-11.2,10.74-6.18,1.19,3,20.49,1.73,49.17-1.16s66.79-6.73,105.56-10.64c34.89-3.52,22.59-2.5,57.57-5.24,59.34-4.65,6.74-3.12,112.88-7.62,15.31-.65,3.23,7.82,21.24,4.72,38.39-6.61,122,3,151.09-2.46,47.41-8.86,9.45,3.28,132.93,9.59,34.93,1.79,68.82,2,75.93-1.53,3.49-2.15,6-.83,5.92,2.23,1.69.49,85.06,15.9,85.37,18.77.49,3.15,3,5.05,5.51,3.36,4.61-3.1,95.83,3.51,96.74,12.71,2.6,26.2-16.86,131.11-28.63,155.46-6.22,12.84-23.14,8.54-44.61,2.11-64.07-19.19-37.76-5.21-105-14.67-49.21-6.92-31.18-5.69-114.59-13.85-42.65-4.18-31.06-2.78-59.51-5.12-12.47-1-1.72-1.94-56.19,6.66-5.21-9.57-25.94,11.83-38.28-4.59-5.12-6.82-42.28-9.22-50.51-2.67-1.79,1.2-15,1.27-34.08.71-14.52-.42-164.72-6.16-182.11,12.14C377.37,201.48,248.51,235.66,210.15,245.19Z"/><text class="cls-2" transform="translate(102.04 207.16)">Investigacion</text><path class="cls-3" d="M904.82,3.8c-1,1.89-1,7.3-.19,14,1.86,14.41,1.72,28.55-.28,52.89C903,87.49,903,91.27,905,94.25c2,3.38,2.47,3.48,5.69,1.37,5-3.08,6.71-7.56,9-23,3.49-22.65,3-57.23-.88-66.9-1.21-3-8.19-6.59-10.75-5.56A9.37,9.37,0,0,0,904.82,3.8Z"/><path class="cls-3" d="M968.05,67.59a147.89,147.89,0,0,1-16.37,14.83c-19.73,15.23-26.6,27.46-16.57,29.52,2.5.48,3.85-.19,8.42-4.33a178.14,178.14,0,0,1,16.12-11.75c10.41-6.75,20.31-16.14,25.27-23.67,3.05-4.88,1-11.36-4-12.45C976.34,58.58,976,58.84,968.05,67.59Z"/><path class="cls-3" d="M944.58,131.14c-2.37,5.55,5.54,7.39,36.93,8.72,21,.89,28.12-.06,29.86-4.14,1.26-2.94-1.2-8-4.37-9.21-4.22-1.41-16.72-1.54-35.07-.39C954.7,127.35,945.37,129.06,944.58,131.14Z"/><path class="cls-3" d="M837.22,105.73c-2.17-1.81-5.81-1-9.72,2.27-7.74,6.4-14.54,14.66-14.57,17.7,0,1.59,1.51,2.8,3.61,2.82,1.93,0,5.44-2.79,14.91-11.94C838.22,110.1,839.54,107.67,837.22,105.73Z"/></g></g></svg>