<svg xmlns="http://www.w3.org/2000/svg" viewBox="0 0 1411.04 957.38"><defs><style>.cls-1{fill-rule:evenodd;}.cls-2{fill:#feef38;}</style></defs><title>imagen1</title><g id="Capa_2" data-name="Capa 2"><g id="Capa_1-2" data-name="Capa 1"><path class="cls-1" d="M1066.24,778c-3.35,1.17-8,5.28-11.3,9.8-14,19.84-23.11,57-24.45,99.72-1.34,43.79,7.78,65.22,28.47,67.15,12,1.09,26.37-5.78,40.86-19.59l6.44-6.11,1,3.93c2.76,11.39,10.8,21.44,18.75,23.7,6,1.67,14.4.75,20.77-2.26,11.72-5.61,26.29-18.84,35.16-32.07l1.34-2.1,3,3.52a29.46,29.46,0,0,0,7.62,5.78c4.18,2,5.27,2.17,11.55,1.84a35.53,35.53,0,0,0,13.57-3.18c7.2-3,20.76-11.89,27.71-18l4.35-3.86.09,5.7c.17,14.57,7.79,21.77,18.25,17.41,4.1-1.67,13.65-9.71,18.92-15.65a32.31,32.31,0,0,1,4.69-4.86c.25,0,.51,4,.51,9,0,7.71.33,9.46,1.92,12.56,6.53,12.39,19.59,8.46,43.88-13.31a74.13,74.13,0,0,1,6.78-5.78c.17,0,.58,2.6.83,5.86.59,7,2.52,11.39,6,13.48,3.77,2.35,7.28,1.93,14.23-1.5l6.12-3,3.76,2.68a37.19,37.19,0,0,0,19.09,6.53c7.12.51,10.22-.5,13.4-4.52,3.43-4.44.5-8-3.85-4.52a8.92,8.92,0,0,1-5.36,1.76c-4.35,0-12.22-2.85-17.16-6.28-7.79-5.28-9.63-5.44-18.17-1.17-2.68,1.34-5.36,2.42-6.12,2.42-2,0-2.93-3.6-2.93-11.3,0-8.2-.83-11-3.76-12.31s-5.78.17-15.91,9-17.92,14.57-23.36,17.5c-8.71,4.61-10.55,2.35-10.55-12.81,0-13.31-1-16-6.2-16-1.84,0-3.85,1.42-8.79,6.11-10.89,10.38-16.08,14.82-19.59,16.58l-3.35,1.76-1.68-1.76c-3.51-3.43-2.76-21.94,1.18-31.48,1.75-4.27,1.75-4.61.41-6.62-2.76-4.27-7.36-2.17-9.62,4.27-5.11,14.4-35.51,36.26-50.41,36.26-5.36,0-9.63-2.85-12.22-8.21-2.27-4.6-2.27-4.6-.76-8.46,6.53-17.24,12.23-37.51,12.23-43.53,0-6.7-5.19-8.8-10.47-4.11-7.79,6.79-14.9,31.57-13.48,47.06l.5,5.94-3.85,5.78c-10.72,15.91-29.14,30.39-40.69,32-10.3,1.42-18.76-9-20.52-25.29-.41-4.1-.33-4.44,4.61-11.3,13.9-19.51,22.94-41.45,29.47-71.09,2.18-9.63,2.35-19.68.59-23.19-4.52-8.63-15.66-6.62-24.28,4.43-13.32,16.92-21.77,49.74-21.44,83.06l.17,12.9-5.78,5.86c-15.4,15.66-31.4,23.36-41.61,20-7.2-2.43-12.06-11.72-14.49-28.05-1.67-10.63-1.17-43.54.84-59.11,4.1-31.32,12.56-57.11,22.27-67.66,4.44-4.94,6.62-4.6,8.46,1.09,1.51,4.78,3.77,6,4.52,2.6.25-1.17.59-3.1.84-4.27,1.34-6.45-6.62-13-13-10.72Zm77,49.49c0,10.13-8,38-15.32,53.75-3.85,8.37-10.3,19.59-13.31,23.36l-1.76,2.18.58-10.8c.92-19,3.86-35.25,8.54-48.23,4.69-13.23,11.31-23.7,16.41-26.21,2.6-1.26,2.85-1.26,3.86,0C1142.77,822.25,1143.27,824.93,1143.27,827.45Z"/><path d="M572.62,397.58c3.67,7.48-1.76,12.06-7.53,16-6.93,4.84-15,7.46-22.53,11.22-5.71,3.14-10.57,7.54-16,11.1-3.91,2.6-8.31,4.44-12.49,6.54-14.41,7.75-28,17-41.54,26.1a32.13,32.13,0,0,0-8.95,10c-1.33,3-2.38,7.29-5.2,8.77-.29-.11-.58-.2-.87-.29a15.28,15.28,0,0,0-5.67-1c-.45,0-.92,0-1.37.06l-.58.05a25.62,25.62,0,0,0-2.6.43l-.43.1c-.45.1-.91.21-1.37.34l-1.42.41c-5.19,1.58-10.37,3.91-15.8,3.68.21-13.84,1.3-28.3-4.07-41.4-3.44-8.31-9.06-18.62-18.87-19.83-6.36,1.31-7.74,10.22-9.2,15.57-2.61-5.36-7.8-11.18-14.33-8.48-9.47,3.09-13.45,13.94-12.07,23.17-7-13.33-20.8-15.12-27.1-.16-3,6.49-2.48,13.78-1.53,20.67.86,10.36,5,19.47,7.78,29.39-8.19-7.95-14.82-18.61-25.72-23-10.9-4.09-19.57,6.55-20.86,16.43,0,.23,0,.46,0,.7a1.09,1.09,0,0,0,0,.18c0,.17,0,.35.06.53,0,.35.1.7.17,1.05,0,.2.08.41.13.61s.07.3.12.45.09.37.15.56,0,.13.06.2c.1.35.23.71.36,1.08s.2.52.31.79l.18.46c.26.62.56,1.26.89,1.89.1.21.21.42.33.64s.22.42.34.63.16.3.25.44c.58,1,1.21,2,1.9,3l.59.85c.5.7,1,1.4,1.56,2.1.31.42.65.84,1,1.27,1,1.26,2.1,2.51,3.22,3.73l.93,1c1.35,1.42,2.74,2.81,4.12,4.12l1.41,1.31c.58.53,1.17,1.06,1.75,1.56l.54.47q1.9,1.63,3.68,3c1.48,1.16,2.87,2.16,4.11,3,7.62,5,15.64,9.72,24.66,11.72,1,.22,2,.44,3,.63l.68.14c8.27,1.61,16.66,2.61,25,3.73.31,13.42-1,26.86-.44,40.29,1.19,14.62,1.45,29.3,1.88,44,.1,3.55.21,7.09.35,10.63,0,.17,0,.35,0,.52a11.87,11.87,0,0,1-7-.09c-23-6.79-28.28-26-24.83-47.68,3.65-17.82,4.16-38-10.08-51.53-5.6-4.32-12.65-6.14-19.39-7.86-2.2-.49-4.39-1.33-6.65-1.26-10.42,4.15-21,7.77-31.61,11.53-9.39,3.56-19.13,6.07-28.58,9.45-9.88,4.26-20,7.88-30.21,11.23-3,1.09-6,2.26-9.05,3.33-4.65,1.63-11.19,4.29-14.49-1-6.84-16.65-8.27-34.93-11.3-52.56C190.82,506.38,187,482.79,167.8,476a23.27,23.27,0,0,0-6.87-.09,38,38,0,0,0-4.81,2.91c-9.61,6.38-15.39,16.93-25.18,23.14C116.29,513,102.6,526.29,84.4,531.08c-12,5-23.76,9.53-36.81,5.1-9.63-2.41-17.91-8-24.79-15C9.9,509.6,2.16,493.14.25,476-1,456.65,2.62,436.47,12,419.36a102.17,102.17,0,0,1,23-25.62c19.94-12.36,44.53-15.05,67.27-18.52,17.68-4.26,38.61-3.62,37.27-27.57.18-1.51.22-3.22.38-4.91-1.29-6.79-2.46-13.61-3.73-20.39-5.08-19.29-10.46-39-12.14-58.91-.31-3.47-1.22-8.8,1.47-11.32a9.68,9.68,0,0,1,.14-5.23c3.25-5.73,9.22-9.58,14.08-13.88,6.6-5.92,16.12-9.42,23.61-13.09,6.05-3.46,11.54-7.76,17.72-11,6.18-3.43,12.87-5.75,19.2-8.84,6.77-3.53,12.1-9.09,17.36-14.5,12.94-15.29,4.48-37.24-2.76-53.3-5.57-9.25-14.09-16.8-16.69-27.69-6.6-23-10.85-50.28,3.52-71.21,6.78-10,16.61-17.59,26.18-24.75C243.94-.66,263.66-1.74,281.57,2c9.64,1.43,18.38,6,26.29,11.53,14.21,9,16.8,23.8,20.45,38.89a138.73,138.73,0,0,1,6,33.28c.67,9.47.13,19,1.58,28.43a4.59,4.59,0,0,1-.14,1.57,28.41,28.41,0,0,0,4.33,6.18c6.24,7.55,16.29,6.39,24.8,4.23,16-2.82,29.47-12.39,44.69-17.51,8.93-2.58,17.34-6.59,26.14-9.52,5.39-1.79,10.95-3,16.34-4.79,5.62-1.93,10.83-5.43,16.7-6.51,6.63.45,9.79,8,12.82,13,8.15,14.1,8.65,30.53,14.19,45.55,2.91,7.81,6.86,15.27,8.34,23.54,1,5.34,1.76,10.72,2.88,16,6.62,22.16-11.53,39-32.4,41.52-6.37.81-12.77,1.42-19.12,2.44-8.15,1.26-16.8.92-24.4,4.46-5.62,3.22-9.91,8.24-14.26,13a48.61,48.61,0,0,0-11.57,23.86c-1.57,8.09.18,16.29,3.84,23.56a38.36,38.36,0,0,0,19,21.82c9.93,4,21.72,6.13,31.66,1.09,4.95-2.77,9-6.89,13.54-10.25A155.16,155.16,0,0,0,486.4,295.8c3.81-4.91,7.4-10.15,12.44-13.93a5.08,5.08,0,0,1,1.69-.94,48.91,48.91,0,0,1,21.2-10.63c4.26-1.54,9-.92,13.18-.06,6,.5,6.32,7.45,7.61,12,3.13,12.94,6,26,10.77,38.45,6.44,17.62,7.65,36.59,12.2,54.72A126,126,0,0,0,572.62,397.58Z"/><path class="cls-2" d="M812.29,320.11a10.25,10.25,0,0,0,3.59-9.28c-8.06-8.46-24-4-34.48-3.86-4.66.27-9.32.44-13.94,1.14-9.54,1.42-19.24,1.26-28.77,2.68-9.11,2-18.45,1.36-27.65,2.53-13.21,3.59-26.79,4.88-40.35,6.44-9.3,2.88-19.15,1.72-28.53,3.85-5.48,1.58-8,7.37-10.63,12-1.94,3.68,3.2,4.51,5.61,5.79,1.19.45,2.39.84,3.61,1.18a6.51,6.51,0,0,1,1.79-1.66c12.67-6.49,26.68-10.61,40.59-13.61,6.11-1.25,12.23-2.4,18.39-3.37,9.42-1.56,19-1.25,28.46-2.44,10.95-1.8,22.76-2.38,33.53-2.64,14.35-.94,28.75-.37,43.06-1.89A5.63,5.63,0,0,1,812.29,320.11Zm294,152.56a196.24,196.24,0,0,1,2,26.06c-.17,17.14-.65,34.4-3.8,51.29-1.64,8.66-3.6,17.25-5.44,25.87-7,32.94-12.26,66.26-20.48,98.94-3,13.17-4.85,26.56-7.74,39.75-3.21,14.1-6.89,28.09-10.14,42.18-2.88,14.69-5.84,29.34-9.61,43.83-2.5,9.84-5.2,19.64-7.05,29.63-.66,3-.86,6.08-1.33,9.12a6.77,6.77,0,0,1-4.55,4.34c-14.57,3.66-29.14,7.27-44.14,8.77-7.78,1.23-15.66-.2-23.44,1-6.51.86-13,2.43-19.56,2.5-5.84-.8-5.75-7.45-6.19-12-1-10.1-.56-20.29-2.13-30.33a28,28,0,0,0-1.5-5.93c-1.67-.82-3.34-1.73-5-1.78-.12,8.64-.62,17.29-1.12,25.92.2,8.93,0,12.39-9.42,15.19-12.71,3.7-26,5-38.78,8.33-7.41,2.25-17.74,8.29-24,.94-7.76-11.22-9.77-25.6-11-38.92-.12-1.48-.23-3-.34-4.44-2-.08-4-.07-6,0-10.39.58-20.6,2.45-30.86,4.09-19.64,3.22-39.53,4.37-59.41,4.66a272.33,272.33,0,0,0-28.94,2.85c-8.13,1.68-16.33,3.21-24.65,2.35-.51,17.64-2.3,36.2-3,53.66.11,3.31.91,7.19-2,9.61-5.45,4.2-13.07,4-19.66,4.32s-13,2.67-19.53,4c-5.21,1.08-10.47,1.91-15.74,2.67-10.44,1.3-21.06,1.67-31.51,2.59-7.35-1.51-7.46-11.36-8.87-17.29-2.76-13-1.86-26.3-3.73-39.36a52.13,52.13,0,0,0-2.07-8.18c-3.17-.1-6.39-.41-8.44.07.43,14.6.84,28.11.83,42.56,1.11,6.25.67,12.66-6.92,13.55-17.89,3.49-35.87,7.33-53.8,10.15-11.85-2.59-13.52-31.21-17.25-41.6-2.83-14.65-6.76-29.18-8.65-44a11,11,0,0,1,.29-2c-12.41-4-25.1-7.2-37.43-11.46-14.73-4.54-29.05-10.27-43.4-15.88-14.12-5.54-28.33-10.89-41.86-17.76-14.07-7-28.75-13.57-40.59-24.14-18.27-17.81-35.69-37-48.35-59.29-6.68-13.73-9.81-28.89-14.51-43.36-1.87-6.28-4.17-12.44-5.72-18.83-1.68-7.15-1.62-13.72-2-20.56-.51-10-1.37-20.05-2.05-30.08-.15-5.77-1.61-16,.24-23.32a78.64,78.64,0,0,1,1.86-12c-2.61-7.72-5.05-15.55-5.06-23.79A145,145,0,0,1,270.29,457c5.08-14.44,11.13-28.78,19.63-41.57,9.27-13.68,27.74-20.54,43.62-15.73,4.78,1.62,8.9,4.48,12.94,7.44.93.68,2,1.46,3,2.32,5.16-4.06,10.37-8.08,15.43-12.26,19.18-14.08,40.29-25.42,61.23-36.65,21.52-11,43.6-21.12,65.61-31,10.23-4.08,21-6.66,31-11.37,11.86-5.68,24.64-8.86,36.88-13.59,11.81-5.18,24.29-8.4,36.72-11.7,16.08-4.83,32.27-9.41,48.68-12.95,8.17-1.56,16.5-2.12,24.69-3.51,8.43-1.61,16.83-3.35,25.31-4.7,12.9-2.12,25.89-3.65,38.91-4.83,8.49-1,17-2.22,25.54-2.07,13.73.72,27.26-1.09,40.93-1,17.44.33,34.93-.06,52.32,1.2,39.19,3.44,78.49,10.35,115.08,25.22,11.91,5.28,24.5,9,36.19,14.71,16.44,9.6,33.33,19.06,47.11,32.38,8.21,7.47,14.07,17,20.95,25.64,5.54,6.92,11.21,14.07,13.72,22.72,1.41,4.48,2.32,9.08,3.73,13.56,4.47,11.75,9.27,23.41,11.56,35.84C1104,447.46,1104.85,460.12,1106.3,472.67Z"/><path d="M336.93,595.6c-14.66-2.68-11.64-22.74-9-33.33,1.45-5.92,4.53-16.49,12.47-11.17,8,1.06,7.38,11.62,7.86,17.76.21,6.48,1,13.27-1.92,19.3C344.83,592,341.39,595.84,336.93,595.6Z"/><path d="M395,598c-14.75-2.19-13.47-23.63-10-34.36,1.62-5.65,4.14-12.44,10.29-14.33a8.59,8.59,0,0,1,9.69,3.89c3.34,2.06,4.55,6.2,4.93,9.88C411.06,573.69,409.27,597.92,395,598Z"/><path d="M366.77,638.06a152,152,0,0,1-32.91-5,54.16,54.16,0,0,1-25.32-10.37c-26.73-19.83-27.29-61-9.67-87.18a78.61,78.61,0,0,1,19.63-20.42c25.46-9.3,53.74-5.05,80.27-2.63,21,1.18,46.43,8.68,54.2,30.44,4.64,9.87,10,19.62,10,30.85,4.63,25.91-12,42-30.92,56.38C412.37,642.17,388.41,635.33,366.77,638.06Zm18-13.59c13.74.74,26.77,2.47,39.43-3.05,12.23-9.3,26.32-19.72,27.47-36.33.26-10.83-1.37-21.56-7.07-31-4.08-9.45-9.38-18.52-19.62-22.21-17.94-8.35-38.89-6.75-58.22-8.91-4.41-.19-8.8-.75-13.21-.8-5.95,0-12.51,2.5-18.16.08-10.59,0-17.95,7.82-24.15,15.49-12.24,16.19-16.1,38.35-9.14,57.47,5.9,16.29,22,24.65,38.36,26.56C355,626,369.93,625.12,384.8,624.47Z"/><path d="M528.91,497.87c-7.29-5.66,1.71-15.22,8.21-9.43C543.2,493.56,534.78,503.08,528.91,497.87Z"/><path d="M528.26,496.92c-6.36-6.89,4.75-12.29,9.38-16,4.22-2.54,8.17-6.87,13.33-7,4.28.14,7,5.44,4.44,8.93a7.63,7.63,0,0,1-3.13,2.63c-3.06,1.84-6,3.86-8.93,5.93C538.85,493.94,533.74,501.29,528.26,496.92Z"/><path d="M319.8,504.85c-3.55-1.15-6.48-3.67-9.87-5.2-6.33-2.76-5.64-12.14,1.52-12.83,3.54-.23,6.48,2,9.27,3.9,2.58,1.84,5.79,3.9,6.54,7.17C328.28,502.13,323.89,506,319.8,504.85Z"/><path d="M273.82,522.66c-8-2.31-1.68-13-.22-18.18,2.39-5.91,4.34-12,7.43-17.6a113.66,113.66,0,0,1,10.1-17.39c6.27-10.53,11.93-21.46,19.65-31A53.07,53.07,0,0,1,322.7,427c5.66-4.49,9.34-9.12,14.62-13.64,1.72-1.44,3.71-2.75,6.07-2.22a5.23,5.23,0,0,1,3.3,8c-5.77,5.79-11.2,12-17.43,17.33-6.91,5.42-12.18,12.48-16.91,19.8-4.17,6.5-7.89,13.26-11.92,19.83a165.81,165.81,0,0,0-14,24.72c-1.94,4.75-3.73,9.58-5.39,14.43C280,518.65,278.38,523.59,273.82,522.66Z"/><path d="M650.83,484.12c-25.82-1.43-48.44-15.63-72.13-24.51-12.16-4.55-23-12-33.2-19.83-5.45-5.38-17.78-17.28-7.85-23.81-2.44-6.6,9.16-11.85,13.61-14.91a74.92,74.92,0,0,1,14.29-6c9.73-3.17,19.28-6.83,28.37-9.37,6.71-1.92,13.5-3.83,20.51-4.16,6.7-.14,13.42,1.28,20,2.47,6.88,3.68,10.77,11.25,15.45,17.24,6.26,8.72,9.08,19.25,12,29.44,2.15,8.24,5,16.24,7,24.53a75,75,0,0,1,1.64,19.53C670.77,485.1,658.2,484.59,650.83,484.12Zm7.25-12.37c-.49-14.33-6.49-27.48-10-41.19a81.32,81.32,0,0,0-19.18-35.51,46.69,46.69,0,0,0-16.52-1.16c-11.17,2-22,5.56-32.73,9.27-5.82,2-11.79,3.61-17.54,5.84-5.87,2.39-10.91,6.19-16.22,9.56,3.66,7.32,10.22,12.41,17,16.66,10.11,8.24,22.72,11.63,34.27,17.18C616.85,460.41,636.39,471.13,658.08,471.75Z"/><path d="M648.22,351.12c-10.07.62-24.88-4.19-24.48-16.32.56-4.92,2.57-10.87,7.32-13.16,4.71-2.13,11.16,4.44,5.21,7.49a16.19,16.19,0,0,0-2,6.54,12.25,12.25,0,0,0,3.83,2.36c.56-3.72,4.27-5.69,7.76-5.86,3.6-.53,7.17-1.17,10.76-1.77C669,328.23,681.42,326,694,324.61c6.27-1.11,12.6-1.45,18.93-2,8.1-1.39,16-3.73,24.21-4.45,6.71-.83,12.58-2.85,19.2-3.77,5.78-.76,11.62-1,17.4-1.82,14.67-1.5,30.22-5.64,44.33,0,6.66,2.32,8.78,10.54,2.08,14.3a96.16,96.16,0,0,1-16.63,5.58c-10,1.72-20.1,2.15-29.92,4.71-9.38,1.53-18.84,2.55-28.17,4.42-15.4,1.54-30.82,3-46.22,4.6C681.5,347.51,665.71,352,648.22,351.12Z"/><path d="M635.63,346.39c-8.33-4.87.66-16.22,7.34-9.24,3.86,2.74,2,9-2.44,9.55A6.32,6.32,0,0,1,635.63,346.39Z"/><path d="M823.32,325.71c-9.86-2.71.13-13.86-10.89-19.36-11.79-6.25-33.84-2.81-47.2-1.93a129.32,129.32,0,0,1-23,3.05c-7.05.66-13.5,1.94-20.46,2.42-9.19.28-18.14,2-27,4.15-9.47,1.61-18.81,3.88-28.26,5.61-3.7.69-7.41,1.29-11.06,2.22a5.46,5.46,0,0,1-4.52-.41c-2.85-1.77-2.21-6.55,1.17-7.24,6.89-2.26,14.14-3.2,21.19-4.82,10-1.86,20-4.06,29.78-6.88,9.1-2,18.46-2.15,27.66-3.48,10.18-1.65,20.5-2.36,30.54-4.81,8.28-1.6,16.75-1.67,25.13-2.49,12-.68,25.25-1.32,35.57,5.82A19.71,19.71,0,0,1,830.08,309C832.27,314.94,832.28,326.77,823.32,325.71Z"/><path d="M587.59,828.39c-21-1.64-42.31-.23-63.11-4.3q-3.94-.75-7.88-1.62c-3-.66-7.06-1.17-8.26-4.45a5.58,5.58,0,0,1,5.1-7.64c2.54.14,5,.92,7.58,1.16,20.32,3.29,40.86,3.26,61.36,4,3.28.31,7.14-.51,9.69,2.06C596,821.29,593.07,828.59,587.59,828.39Z"/><path d="M865.54,814.23c-6.41-.4-7.91-9.53-1.54-11.38,15.83-2,31.7-3.31,47.53-5.32,5.23-.61,10.49-1.17,15.74-1.59a6,6,0,0,1,1.61,11.8c-5.2.82-10.49,1-15.72,1.7-10.11,1.64-20.31,2.41-30.51,3.29C876.94,813.14,871.27,814.34,865.54,814.23Z"/><path d="M1038,464.73c-3.06-3.72-1-8.58,2.79-10.83a28.44,28.44,0,0,0,7.74-21.37,30.87,30.87,0,0,1-25.38.64c-9.89-5.23-13-18.44-7.8-28.06,9.18-16.16,31-8.37,39.15,4.77,8.59-8.67,11.16-17.34,5.6-28.69a19.85,19.85,0,0,0-4.76-6c-2.25-1.07-4.25-3.19-4.16-5.85a5.92,5.92,0,0,1,4.2-5.66c10.79-2,19.39,15.73,20,24.71,2.14,16.78-6.26,23.51-15.92,35.23,1.4,6.65,1.94,13.61.47,20.3C1058,451.62,1048.21,474.62,1038,464.73Zm-1.47-40.94a15.46,15.46,0,0,0,9.25-3.58c-1.6-6.67-10.13-14.15-17.22-12.2-3.78,1.09-4.46,5.86-4.29,9.25C1025.88,423.43,1031,424.38,1036.56,423.79Z"/><path d="M481.76,649.59c4.48,11.73-4.34,28.1-17.66,27.62-7.58-.2-12.91-6.14-18.74-10-3.35-3.6.69-10,5.37-8.15,5.25,2.57,9.28,9.32,15.85,8.14,3.69-1.88,7.27-5.56,7-10-1.7-4.69-6.52-11.5.35-14.32C478.67,641.37,481.27,645.73,481.76,649.59Z"/></g></g></svg>