<svg xmlns="http://www.w3.org/2000/svg" viewBox="0 0 870.35 1422.05"><defs><style>.cls-1{fill:#fff;}.cls-2{fill:#94b43b;}</style></defs><title>imagen 4</title><g id="Capa_2" data-name="Capa 2"><g id="Capa_1-2" data-name="Capa 1"><path class="cls-1" d="M731.88,32.74a71.25,71.25,0,0,0-8.59-7.69,3.18,3.18,0,0,1,.81-5.39c1.23-.51,2.41-1.21,3.59-1.84,8.39-4.77,17.45-8.11,26.21-12.11C759,3.43,763.84,1.08,769.3.22c2.18-.69,3.74.3,4.17,2.55,1.24,6.55,0,13.27-.67,19.82-.44,4.33-1,8.65-1.27,13a79.56,79.56,0,0,1-.69,9.86c-.37,3.07-.76,6.16-.9,9.26a3,3,0,0,1-1.09,3.22c-1.83,1.23-3.9-.38-5.41-1.33a64.9,64.9,0,0,1-9.68-7c-12.69,16.11-26.15,31.56-39.55,47-4.68,6.07-9.5,12-14.58,17.76-2.19,2.71-4.31,5.48-6.45,8.24-2.65,3.46-5.79,6.52-8.3,10.09-.86,7.49-10.86,2.48-15.28,1.55-9-2.25-17.06-7-25.36-10.88-6,8.39-12.36,16.46-18.84,24.46-5.42,7.05-10.89,13.94-16.48,20.69-3.82,4.57-7.53,9.06-11.32,13.61-.73.61-.65,1.56-1.07,2.36-1.37,2.61-4.68,1.91-6.84.78-5.45-2.81-10.57-6.29-15.79-9.51-3.71-2-6.7-5.08-10.29-7.25a4.6,4.6,0,0,1,2.89-8.58c10.36-11.36,18.82-24.07,29.19-35.36,11.53-11.94,23.13-23.94,35.39-35.09,2.31-1.19,5,.05,7.38.6s4.77,1.4,7.16,2.12c7.86,2.58,16.4,3.54,23.6,7.83,4.56-4.76,8.28-10.27,12.54-15.3,8.41-10.19,17.74-19.58,27.1-28.88C716.76,48.34,723.08,39.22,731.88,32.74Z"/><path class="cls-1" d="M713.67,122.18c-.3-2.47.84-5.16,3.5-5.65,4.53-1.14,9.14-2.06,13.74-2.9,8.12-1.18,16.16-2.86,24.35-3.49,2-.29,4.34.23,5.24,2.24.41,1.19.54,2.45.94,3.64.71,3,1.56,6.06,2.19,9.13,2.33,15.85,7.82,31,10.68,46.72,3,17.24,5.8,34.54,9.31,51.7a100,100,0,0,1,2.83,13.91c1.19,10.43,4.08,20.49,6,30.74a144.15,144.15,0,0,0,4,19.39c.57,2.51,1.83,5.63-.17,7.79a14.83,14.83,0,0,1-5.29,2.77A89.32,89.32,0,0,1,779.76,301c-6.22,1.07-12.4,2.33-18.63,3.33-2.79.31-5.73,1.06-8.5.42-3.37-1.17-2.14-5.28-2.62-8-.27-2.55-.76-5.08-1.23-7.6-3.27-13.92-5.68-28-8.66-42-2.31-8.85-3.36-18-5.37-26.88-2.24-11.7-5-23.3-7.49-35-1.88-11.17-3.65-22.92-6.31-33.76-1.66-7.29-3.53-14.38-4.66-21.73C713.58,128.62,714,124.7,713.67,122.18Z"/><path class="cls-1" d="M869.6,281.79a4.2,4.2,0,0,1-3.85,1.73,3.15,3.15,0,0,1-.81-.16c-1,1.64-3.21,2.61-5.13,2.94a225.66,225.66,0,0,1-25.87,4.1c-3.3.26-6.63,1.25-10,.82a4.37,4.37,0,0,1-3.15-2.41c-.66-1.23-.17-2.51-.39-3.79-.28-2.17-.72-4.33-1.09-6.49-1.17-6.95-2.64-13.85-3.79-20.81-.71-4.8-1.2-9.64-2.11-14.42-2.27-14.83-5.35-29.51-7.91-44.29-.85-5-1.6-10-2.19-15-2.36-14.73-5.51-29.32-7.76-44.08C793.94,130,792.57,120,791,110c-2.18-13.6-4.51-27.19-5.35-41-.06-2.58-.4-5.2-.33-7.79a2.33,2.33,0,0,1-.5-.34,2.05,2.05,0,0,1-.41-2.46c1-1.59,3.1-1.52,4.71-2q4.56-1,9.09-2.12c4.06-.71,7.92-2.11,11.9-3.15a127.09,127.09,0,0,1,16-2.22c3-.13,3.05,3,3.54,5.19,1.15,5.34,2.19,10.71,3.4,16,2.37,10.74,4.12,21.59,6.14,32.4,2,11,4.61,21.91,6.76,32.91q3.48,17.57,7.53,35c2.8,13.46,5.21,27,7.72,40.49,1.68,9.91,3.3,19.86,4.8,29.8,1.13,7.5,1.31,15.1,2.59,22.59.64,4,.76,8,1.31,11.95C870,277.5,871,279.86,869.6,281.79Z"/><path d="M360.78,444.86c1.93,3.74,3.68,10.44-1.34,12.46a15.85,15.85,0,0,1-7.7,1,18.85,18.85,0,0,1-9.87-4.45,39.26,39.26,0,0,1-4.9-4.66c-1.31-1.11-2.5-3-1-4.51a2.41,2.41,0,0,1,3.17-.21c5,5.1,11.32,10.83,19,8.62.53-4.22-3.56-7.43-6.11-10.32-2.36-2.59-4.31-5.53-6.4-8.34-2.28-3.29-4.64-6.53-6.67-10a66.74,66.74,0,0,0-5.67-8.62c-.69-1.07-2.94-2.54-1.46-3.77h0c2.5-1.25,11.1,10.14,12.93,12.13,2.38,2.68,4.71,5.4,7,8.2C354.66,436.62,358.22,440.41,360.78,444.86Z"/><path d="M309.81,435.42c-1.4-.53-2.84-1-4.3-1.46a29.69,29.69,0,0,0-12.14-1.31l-.84.13a32.17,32.17,0,0,0-19.63,13.79c2.9,2.76,7.22,3.91,11.16,3.79a29.41,29.41,0,0,0,11.18-2.49,23.51,23.51,0,0,0,6.95-3.94,26.48,26.48,0,0,0,2-1.81c.43-.42.84-.85,1.24-1.29C307,439.12,309.21,437.74,309.81,435.42Zm4.72-.32c.66,1.42-.42,2.59-1.14,3.7a55.47,55.47,0,0,1-9.47,9.47,36.07,36.07,0,0,1-11.87,5.27,47.35,47.35,0,0,1-10.41.48c-3.74-.5-13.38-3.58-12.2-8.49a23.84,23.84,0,0,1,3.38-6.39,28.43,28.43,0,0,1,2.36-2.82,32.75,32.75,0,0,1,7-5.6,30.1,30.1,0,0,1,2.81-1.48,27.09,27.09,0,0,1,7.24-2.25,21.62,21.62,0,0,1,4.24-.26,18.6,18.6,0,0,1,2.11.2c5,.71,9.47,3.49,13.59,6.31C313,433.85,314.17,434,314.53,435.1Z"/><path d="M305.51,434a6.58,6.58,0,0,1-.86,7.6c-.14.19-.29.38-.45.56a9.21,9.21,0,0,1-2,1.81,5.51,5.51,0,0,1-5.63.31c-2.82-1.21-5.23-4-4.91-7.18a8.17,8.17,0,0,1,1.72-4.41,8.35,8.35,0,0,1,.8-.89,7.07,7.07,0,0,1,3.75-1.93,6.13,6.13,0,0,1,2.37.07A7.21,7.21,0,0,1,305.51,434Z"/><path d="M297.15,395.12c2.1.46,5.8.52,5.5,3.51-.62,2.69-2.78,2-4.83,1.79a37.27,37.27,0,0,0-9.2.28,46.88,46.88,0,0,0-23,9.43c-4.09,3.21-7.88,6.65-10.33,11.26-.63,1.3-1.16,2.65-1.67,4a2.17,2.17,0,0,1-.9,1.18A1.22,1.22,0,0,1,251,426c-.4-.84,0-2.19.07-3a25.44,25.44,0,0,1,1.59-5c3.14-6.89,8.59-11.85,14.79-15.88C275.05,397.63,288.36,393.53,297.15,395.12Z"/><path d="M276.59,438.16a1.84,1.84,0,0,1-2.88,2.23c-.3-.41-.59-.83-.89-1.25-2.83-4-5.25-8.36-7.78-12.59a4.75,4.75,0,0,1-.92-2.26.7.7,0,0,1,1.05-.51c1.66,1.25,2.67,3.25,4,4.87a96.92,96.92,0,0,0,6,7.67C275.66,436.93,276.13,437.53,276.59,438.16Z"/><path d="M286.16,431.39a1.67,1.67,0,0,1-2.85,1.67,18.63,18.63,0,0,1-1.1-2.34,34.25,34.25,0,0,0-1.59-3.68c-1.23-2.47-2.65-4.82-4.08-7.18-.2-.6-1.42-1.81-.51-2.21h0a.56.56,0,0,1,.53.16,20.17,20.17,0,0,1,1.54,1.66,79.91,79.91,0,0,1,6.92,9.77C285.42,429.94,285.8,430.66,286.16,431.39Z"/><path d="M297.92,429.83a2.35,2.35,0,0,1-3.21,2.25,2.14,2.14,0,0,1-.54-.32,2,2,0,0,1-.69-.91c-.44-1.27-.81-2.57-1.22-3.86l-.21-.63a71.83,71.83,0,0,0-4.52-9.8,2.29,2.29,0,0,1-.32-1.79.81.81,0,0,1,1.47,0c.79,1.1,1.57,2.2,2.35,3.31a86.3,86.3,0,0,1,5.47,8.65c.42.77.83,1.54,1.22,2.33A2.14,2.14,0,0,1,297.92,429.83Z"/><path d="M365.88,470c4.62-.31,1.95,8.31,1.95,11.07-.46,3.36-1.16,7-5.48,6.14-4.14-.89-7.28-4.15-10.69-6.45a1.13,1.13,0,0,1,.22-1.76,2.6,2.6,0,0,1,2.13.25c3.16,1.21,6,3.23,9.36,3.85a38.5,38.5,0,0,0,.83-7.94C363.89,473.33,363.36,470.4,365.88,470Z"/><path d="M303.39,467.24a1.42,1.42,0,0,1,2.78.57c-.1.87-.24,1.73-.35,2.6-.33,2.95-.81,6-1,8.83.08.74-.27,1.84-1.22,1.48-.66-.29-.71-1.14-.78-1.77a32.19,32.19,0,0,1,0-4.91C303.08,471.78,302.82,469.45,303.39,467.24Z"/><path d="M312.5,461.28a1.32,1.32,0,0,1,2.53.51c-.09,2.81-.88,5.55-1.26,8.32a25,25,0,0,1-.77,4.07h0a.5.5,0,0,1-.53.18c-.57-.19-.68-.88-.73-1.4-.11-1.42,0-2.84,0-4.27A24.27,24.27,0,0,1,312.5,461.28Z"/><path d="M325.29,451c2.16.42,1.45,2.6,1,4.11-.52,2.73-.72,5.51-1,8.26a.68.68,0,0,1-1.17.56c-.66-1.24-.42-2.82-.51-4.19.08-2.41-.42-4.82-.34-7.22A1.79,1.79,0,0,1,325.29,451Z"/><path d="M369.17,427.29a1.66,1.66,0,0,1,2.94,1.22c-.44,4.1-.88,8.22-1.25,12.32a1.23,1.23,0,0,1-1.21,1.78c-2.43-.16-1.06-6.07-1.33-7.85C368.53,432.3,367.79,429.48,369.17,427.29Z"/><path d="M379.08,436.06c-.47-.76-.17-1.86-.15-2.6.12-1.91.23-3.84.32-5.76.23-2.09-.22-4.3.36-6.33,1.12-2.16,3.89-.79,3.41,1.47-.56,3.1-1.27,6.19-1.95,9.27C380.7,432.91,380.43,437.06,379.08,436.06Z"/><path d="M273.25,579.37c.29.67.69,1.32,1,1.92a3.53,3.53,0,0,1-1.25-1.24c-.07-.13-.14-.27-.2-.41A1.29,1.29,0,0,0,273.25,579.37Z"/><path d="M401.82,432.11c-4.32-14.67-9.84-29.06-17.67-42.24-3-5.71-7.26-10.59-11-15.78a217.21,217.21,0,0,0-18.05-18.36,47.47,47.47,0,0,0-8-6.48,31.32,31.32,0,0,0-11.78-8.17c-3.89-1.64-8.16-2-12.28-2.71a81.35,81.35,0,0,0-21.26,0c-11.37,1.09-22.87,3.06-33.15,8.22A70.5,70.5,0,0,0,251,357.26c-3.45,2.85-7.4,5.1-10.57,8.28A170.93,170.93,0,0,0,226.52,382a39.49,39.49,0,0,0-2.07-6,31.14,31.14,0,0,0-18.59-17.2c-8.26-2.41-17.41-3.87-25.78-.88-14.24,6.09-23.5,22.3-21.49,37.66,1.07,9.47,9.34,16.47,17.95,19.38,5.58,1.68,11.21,3.55,17.05,4a64.85,64.85,0,0,0,12.22-.58c1.77-.22,3.43-.59,5.12-.93-1.8,11-2,22.33.64,33.16,1.11,8.73,5,16.71,8.94,24.46,2.73,4.71,4.76,9.8,8,14.36a11.41,11.41,0,0,0,1.7,2.49,21.42,21.42,0,0,0-1.49,5.69c-.45,6.66,2.43,12.13,8.76,14.64a28,28,0,0,0,19.77.9c3.18,8,7,15.72,10.37,23.66,4.91,11.81,9.32,23.87,15.2,35.25a58.73,58.73,0,0,1-6.85,2.45,3.07,3.07,0,0,1,.36,1.35,2.42,2.42,0,0,1,0,.66,10,10,0,0,1,1.18,1.61c.51.77,1,1.54,1.55,2.31.26-.17.53-.34.8-.48,3-1.8,10.07-3,9-7.68-1.66-4.79-2.63-9.82-4.51-14.53-1.52-4.25-3.23-8.42-4.78-12.65A176,176,0,0,0,263,511c2.51-1.64,2-5.62-1.13-6.07-1.38-.18-2.34.59-3.63,1.11a48.32,48.32,0,0,1-7.61,2.48c-5,.89-10.59.13-14.63-3-1.88-1.56-2.26-4.06-2.36-6.37-.32-3.13,1.12-6,2.43-8.77a39.55,39.55,0,0,1,4.61-7.06c.77-.92,2.56-2.15,2.65-3.38,3.68,2.07,6.88,4.9,10.28,7.38,2.76,2.25,6.15.81,4.53-2.77-2.66-6-5.55-11.85-7.85-18s-5-12-7.52-18c-1.54-5.25-2.83-10.58-4-15.92-2.8-12.68.68-25.94,5.89-37.66,9.86-18.8,28.65-31,47.61-39.41a106.69,106.69,0,0,1,20.18-6.79c4.82-1.07,9.76-.67,14.65-.69a41.81,41.81,0,0,1,5.07,1.16c3.36.85,6.77,1.19,10.18,2.28,1.66.52,2.72,2.36,4.49,2.59,3.27,3.21,6.4,6.55,9.44,10a28.17,28.17,0,0,0-6.06,1.52,34.54,34.54,0,0,0-17.33,14.47c-1.59,2.88-5,11.49-2.28,14.08,1.51.64,1.58-1.27,1.67-2.28a23.65,23.65,0,0,1,1.07-4.45A29.13,29.13,0,0,1,356.94,369a2.81,2.81,0,0,0,2.68-1c.93,1.07,1.84,2.13,2.75,3.2a94,94,0,0,1,10.23,13.11c.68.8,1.33,1.62,1.95,2.48a26.46,26.46,0,0,0-7.4,1.86,122.79,122.79,0,0,0-8.49-9.21c-.5-.4-1-1-1.71-1a.61.61,0,0,0-.44.9,64.88,64.88,0,0,1,6.64,9.18c.32.46.62.94.91,1.42l-1.31.61a21.68,21.68,0,0,0-5,3.43c0-.06-.09-.1-.13-.15a49.73,49.73,0,0,0-7.52-6.91,15,15,0,0,0-2.67-2.07.64.64,0,0,0-.76.85c1.38,2.22,3.51,3.9,5.21,5.88,1.36,1.35,2.2,3.21,3.41,4.73-.35.33-.68.69-1,1a21,21,0,0,0-4.06,5.28c-3.08-3-5.86-6.39-9.42-8.86-.64-.47-2.15-1.29-2.19.1.07.41.45.64.74.87a42.34,42.34,0,0,1,5.92,7,55.73,55.73,0,0,0,3.29,4.63c-.06.15-.11.3-.16.45-.79,2-2.35,7.81-1.1,10-.67,1.08.53,2.18,1.39,2.81a10.79,10.79,0,0,0,6.49,2.16c4.76.32,9.26-1.43,13.22-4a30.33,30.33,0,0,0,13.32-15.5c.33-.78.6-1.57.87-2.37a154.61,154.61,0,0,1,7.64,15.36,2.34,2.34,0,0,0-2.87,2.6,49.87,49.87,0,0,1,2.05,8.91c.09.43.24,1,.74,1.11,1.29.1.82-1.77.89-2.58a22.77,22.77,0,0,1,.74-6.33q1.92,4.69,3.58,9.49c2.59,7.45,5.45,15.65,6.47,23.64,1.46,12.34.63,25.22-5.34,36.35-3.53,7.44-11,12-17.87,16a24.38,24.38,0,0,1-4.09,1.63,2.79,2.79,0,0,0-2.56,1.8,3.37,3.37,0,0,0-2.1,4,18.57,18.57,0,0,0,1.47,2.79c1.82,4,2.71,8.25,4.55,12.2,2.68,8.5,4.8,17.17,7.62,25.63.33.92.67,1.86,1,2.79a9.42,9.42,0,0,1,.41-2.29,3.79,3.79,0,0,1,2.92-2.62,6.09,6.09,0,0,1-.2-.75c-1.26-3.92-2.48-7.84-3.72-11.75-2.38-9.41-5-18.78-7.72-28.09,3-.61,5.61-2.51,8.25-4,4.65-3,9.36-6.12,12.74-10.54C409.65,476.91,408.62,452.53,401.82,432.11Zm-35.7-19.37c-4.9,2.59-10.41,4.89-16,3.57l-.65-.11a1.78,1.78,0,0,0,.07-.39,44.38,44.38,0,0,1,1.17-4.43c2.23-6.44,7.77-12.59,14.3-16.34a9.8,9.8,0,0,0-.57,8.75c.48,2.62,2.44,5.26,5.31,5.32a4.93,4.93,0,0,0,2.36-.51A28.06,28.06,0,0,1,366.12,412.74ZM379,396.45a9.78,9.78,0,0,1-.59,2.83,18.23,18.23,0,0,1-1,2.35,7.62,7.62,0,0,0,.14-1.43A8.33,8.33,0,0,0,372.4,392a22.56,22.56,0,0,1,4.77-.67l.4,0c.73,1.23,1.42,2.49,2.1,3.76A2,2,0,0,0,379,396.45Z"/><path d="M382.85,615.11c0,1.82,0,3.64-.07,5.47l-.44.14c-6.16,2-12.46,3.5-18.53,5.83-5.85,1.78-11.83,3.15-17.62,5.14-3.86,1.37-7.79,2.48-11.74,3.53-5.88,1.67-11.7,3.54-17.68,4.85-.94.15-1.91.38-2.89.54-.95-1.85-2-3.66-3-5.46,3.55-1.12,7.31-1.71,10.84-2.94,5.9-1.94,11.87-3.67,17.89-5.23,5.82-1.87,11.63-3.78,17.58-5.17,3.82-.86,7.5-2.14,11.21-3.35C373.21,617.35,378,616.18,382.85,615.11Z"/><path d="M795.33,539.18a36.47,36.47,0,0,1-7.54,16.53c-3.72,5.06-8.74,8.91-14,12.29a83.7,83.7,0,0,1-15.43,8.3c-5.19,2.18-10.24,4.7-15.52,6.72-4.94,1.85-10,3.33-15,5.11-.35,3.47-.48,7-.61,10.44a4.3,4.3,0,0,0-3.1-.6c-1.7.25-3.41.46-5.13.64.12-2.34.3-4.68.48-7,.3-3.29.37-7.71,3.75-9.42,4.43-1.4,8.64-3.45,13.1-4.8,7.84-2.83,15.25-6.68,22.84-10.09,9.35-5.31,19.12-12,24.14-21.75a58.92,58.92,0,0,0,4.75-26.9c-.06-.61-.11-1.22-.17-1.85a23.43,23.43,0,0,0-1.59-7.81,11.13,11.13,0,0,0-.57-1.08c-3-3.73-4.15,0-5.55,2.6a27.55,27.55,0,0,0-1.42,3.36,20.58,20.58,0,0,0-.85,3c-.65,3.12-1.37,6.31-2.1,9.51-1.25,5.51-2.51,11-3.5,16.41a8.65,8.65,0,0,1-.8,2.6,2.59,2.59,0,0,1-4.33.48c-1.14-1.41-.71-3.27-.37-4.87.87-3.67,1.57-7.35,2.11-11.07.16-1.06.3-2.14.43-3.2.3-2.48.75-5.06,1-7.64.46-4.54.35-9.09-2.2-13.06-6.42,3.24-9,10.46-10.31,17.1-.07.26-.13.52-.19.78-1.15,4.68-2.33,9.34-3.39,14-.12.55-.25,1.11-.37,1.66-.33,1.94-.34,4-1.28,5.82a2.53,2.53,0,0,1-4.67-.93h0a20.35,20.35,0,0,1,.53-6c.18-.93.37-1.86.52-2.79.52-2.74,1.12-5.49,1.71-8.23.92-4.34,1.82-8.68,2.41-13.08.08-1.88.14-6.26-1.8-7a5.14,5.14,0,0,0-2.36,1.84,75.16,75.16,0,0,0-5.06,6.34,16.09,16.09,0,0,0-1.7,2.83c-2.06,4.34-2.31,9.38-3.29,14.07l-.15.7c-.22,1.08-.46,2.16-.71,3.23-.37,1.62-.77,3.22-1.18,4.83,0,.19-.1.38-.16.58-.61,2.34-1.21,4.87-3.11,6.49-3.09,2-6.8,2.94-10.24,4.23-5.3,1.82-10.55,3.72-15.9,5.35-9.38,3.15-19.25,5.37-27.64,10.84A20.4,20.4,0,0,0,675,573a29.91,29.91,0,0,0-2.5,5.38,97.9,97.9,0,0,0-5.13,24.52c.53.64-.06,1.18-.24,1.79l-2.32.46c-2-2.84-.91-14.11-.55-16.71.94-5.93,1.19-12.07,3.58-17.66,4.23-10.28,20.07-15.53,30-18.37,10.88-3.3,21.74-6.79,32.85-9.24l.06-.18a95,95,0,0,0,3.29-12.11c.05-.2.09-.39.14-.59.55-2.71.91-5.51,1.56-8.22a24.31,24.31,0,0,1,1.56-4.66,41.72,41.72,0,0,1,3.12-5.08,38.4,38.4,0,0,1,7.6-8c5.15-3.11,8.5,1.64,9.18,6.42a19.41,19.41,0,0,1,8.84-8.95c5.21-2.5,7.69,4.3,8.69,8.23,1.79-3.84,3.57-9.25,8.59-9.36a9.07,9.07,0,0,1,8.36,4.32,20.26,20.26,0,0,1,2.84,6.82c0,.09.05.16.07.24A54.33,54.33,0,0,1,795.33,539.18Z"/><path d="M425.06,977.06a1.85,1.85,0,0,1,3,2.08,20.55,20.55,0,0,1-1.33,2c-5.07,7.73-11.86,14-18.33,20.57-1,1-1.9,2-2.8,3.09a1.09,1.09,0,0,1-1.77.3c-1.42-1.85,3.55-6.24,4.73-7.73,3.43-3.64,6.94-7.21,10.11-11.09C421.09,983.41,422.86,980.08,425.06,977.06Z"/><path d="M455.48,960.9a2,2,0,0,1-.32,1.53c-1.52,1.9-3.14,3.72-4.65,5.63-3.06,4.1-5.84,8.4-8.76,12.59-5.55,8.88-11.14,17.87-18.94,25-1.64,1.39-6.55,6.57-8.48,6.05a.55.55,0,0,1-.1-.89c.08-.33.27-.79.69-.59A107.15,107.15,0,0,0,433,988.14c5.55-9.87,11.59-19.58,19-28.19A2,2,0,0,1,455.48,960.9Z"/><path d="M486.21,948.5a2.35,2.35,0,1,1,2.83,3.75c-4.23,2.75-7.67,6.47-11.06,10.17-4.28,4.27-8.86,8.27-12.6,13,.37,1-1.57,1.47-1.77.46s.75-1.68,1.19-2.44c3.25-4.68,7.25-8.87,10.87-13.23A68.44,68.44,0,0,1,486.21,948.5Z"/><path class="cls-2" d="M732.33,663.3c.32-8.84.48-17.66.33-26.51.29-10,.68-20.16-1.87-29.89a6.36,6.36,0,0,0-2-3.44,4.35,4.35,0,0,0-1.59-4.89,4.3,4.3,0,0,0-3.1-.6c-1.7.25-3.41.46-5.13.64-8,.84-16.12,1.07-24.06,2.57-4.09.48-8.23.41-12.31.92-5.23.54-10.37,1.56-15.52,2.57l-2.32.46-.21,0c-1.89-.28-3.67.66-5.51.87-1.49.16-3.48,0-4.07,1.72a2.34,2.34,0,0,0,.94,2.83,3.58,3.58,0,0,0-2.91,3.74c.34,3.1.56,6.21.86,9.32.75,8.81-.06,17.7-1,26.47-1.86,19.25-4.88,38.39-5.51,57.75,0,.88-.06,1.76-.09,2.64-4.26-6-8.46-12.13-12.92-18-3.69-4.81-7.16-10.27-10.65-15.36-8-11-16.7-21-24.59-32.16-6.72-9.07-13.7-18-21-26.56-7.6-8-14.78-16.36-22.62-24.12-9.14-9.31-17.34-19.5-27-28.24-7.92-7.87-17.63-13.54-28-17.64-10.43-3.92-21.65-5.44-32.74-5.68-4.84.39-9.68.36-14.52.35-5.33.33-10.65-.13-16,.1-3,.22-6,.64-9.06.61a121.52,121.52,0,0,0-31,3.53c-1.95.45-3.87,1-5.78,1.48a2.88,2.88,0,0,0-1.71,1,1.91,1.91,0,0,0-.27.65,4.57,4.57,0,0,0-1.69,0,3.79,3.79,0,0,0-2.92,2.62,9.42,9.42,0,0,0-.41,2.29c0,.05,0,.11,0,.17-.17,6.2-.67,12.38-1.27,18.55-.07,6.45-.14,12.17-.37,18.9,0,6,.35,12,0,17.94,0,1.37,0,2.76,0,4.15,0,1.82,0,3.64-.07,5.47-.41,22.4-2.55,45.11-3.54,67.48a204.41,204.41,0,0,0-1.77,23.17c-.27,5-.81,10.07-1.36,15.09a9.43,9.43,0,0,1-.16,1.73c-3-4-6.27-7.79-9.28-11.74-3-3.46-5.68-7.16-8.55-10.72-1.59-1.87-3.28-3.66-4.71-5.65-7.18-10.51-13.83-21.15-21.48-31.36-5-8.87-11.45-16.76-16.77-25.41-.41-.86-.84-1.72-1.27-2.56q-1.44-2.77-3-5.46c-2.25-3.86-4.64-7.63-6.91-11.49-2-3.65-3.72-7.46-5.39-11.28-4.62-9.28-9.64-18.46-15.88-26.76-1.21-1.64-2.44-3.38-3.63-5.12-.53-.77-1-1.54-1.55-2.31a10,10,0,0,0-1.18-1.61,2.42,2.42,0,0,0,0-.66,3.07,3.07,0,0,0-.36-1.35c-.83-1.57-2.92-2.19-4.7-1.92a134.88,134.88,0,0,0-19.08,4.05c-7.9,2.82-15.92,5.31-23.77,8.24-11,4-21.86,8.33-32.95,12-5.67,2-11.38,3.84-16.66,6.72a201.49,201.49,0,0,0-22.38,14.75c-4.58,3.73-8.83,7.83-13.35,11.63-9.22,7.74-17.6,16.43-26.14,24.89-5.74,6.7-11.68,13.21-17.9,19.47C91.32,683.27,83.58,692.11,76,701c-3.88,4.72-7.35,9.73-11,14.62-3.39,4.55-7.12,8.83-10.49,13.39-6.72,9.77-13.92,19.22-20.66,29-3.08,4.88-5.63,10-8.58,15a103.37,103.37,0,0,0-8,16.24C14.36,796,11.32,802.59,9,809.49c-1.36,4.1-2.32,8.3-3.54,12.44-1.65,5.32-2.8,10.77-3.94,16.22a39.91,39.91,0,0,0-.94,8.64c0,.75,0,1.49.09,2.23-1.09,1.44-.46,3.4-.24,5,.69,6.43,4.55,11.3,9.91,14.64a84.43,84.43,0,0,0,14.1,7.14c4.93,1.66,10.07,2.63,15.09,4.06,10,2.35,20,4.34,30.06,6.34,17.43,3.23,34.77,6.83,52.31,9.34,6.77,1,13.51,2.24,20.3,3.12,4.45.7,9,.52,13.44,1.5,2.79.6,4.26-.94,4.49-2.7a3.8,3.8,0,0,0-.34-2.12c0-.19.07-.37.09-.55a77.19,77.19,0,0,1,1.64-8.17c0-.1.06-.2.09-.3a141.9,141.9,0,0,0,4.4-15.94c.83-4.38,2.5-8.53,3.81-12.78,1.38-4.51,2.33-9.14,3.51-13.71,1.41-3.84,2.67-7.73,3.75-11.67a0,0,0,0,1,0,0c.4-1.38,1.25-2.83,1.31-4.25a3,3,0,0,0-.63-2c.53-2.32-1.73-4-3.05-2.17-.42-.14-.85-.28-1.24-.45-4-1.49-8-2.81-12.1-4.11-6.54-2.29-13.37-3.62-19.82-6.15-7.69-2.62-14.71-6.64-21.72-10.65-1.25-6.57,17.9-22.77,22.82-27.9a291.47,291.47,0,0,1,27.54-24.26c4.22-3,8.58-5.77,12.77-8.81a83.66,83.66,0,0,1,10.43-7c2.21,6.06,3.17,12,4.39,18.54,1.08,6,2.87,11.91,4.07,17.93,1.46,6.5,2.79,13,4.15,19.53,1.46,5.76,2.85,11.54,3.82,17.4,2.7,11.75,5.55,23.47,8.07,35.27.37,1.53.8,3.05,1.23,4.56.78,2.65,1.61,5.27,2.3,7.94,1.2,5.09,2.06,10.26,3.16,15.37,1.16,3.86,3.45,16.61,7,18a3.29,3.29,0,0,0,3.7-1c1.57-.62,3.19-1.07,4.19-1.48A193.23,193.23,0,0,1,268.1,879c6.54-1.2,13.13-2.05,19.67-3.24,12.81-2.84,25.71-5.19,38.68-7.27,12.32-2.61,24.69-5.08,36.94-8.06,7.31-1.89,15.19-3.22,21.58-7.38a13.7,13.7,0,0,0,5.59-6A69.52,69.52,0,0,0,394.61,835c.6-3.2.33-9.88,5.4-8.35a3.37,3.37,0,0,1,1.9,2.26A77.54,77.54,0,0,0,411,843.64a22.65,22.65,0,0,0,4,3.81c4.33,1.72,9.09.35,13.52-.31,5.06-1,10.08-2.26,15.17-3.21,8.05-1.53,16.24-2.41,24.14-4.71,6.24-1.58,12.54-2.91,18.74-4.67,5.59-1.19,10.52-1.59,15.86-2.88,8.27-1.23,16.26-3.71,24.42-5.46A80.48,80.48,0,0,0,537.19,824c.21,1.32.4,2.65.57,4a2.27,2.27,0,0,0,2.15,1.26,2.55,2.55,0,0,0,1.85-.87,5.14,5.14,0,0,0,1.14-2.57c.43-4.33-.5-8.67-1-13a104.1,104.1,0,0,0-2.39-12.75c-2.17-7.43-2.79-15.13-4.32-22.68-1.23-5.25-2.46-10.51-3.34-15.84-1.38-7.79-3.4-15.45-4.91-23.22s-2.53-15.44-3.93-23.14c-.34-2-.71-4-1.12-6a64.12,64.12,0,0,0,3.82,6c4.61,6.35,8.44,13.19,12.7,19.78,2.94,4.48,6.25,8.73,9.31,13.13s6,9,9.42,13.09c5.34,6,10.5,12.14,15.59,18.34a230.24,230.24,0,0,0,16.88,17.06c13.63,12.71,28.51,24.68,46.28,31,10.71,3.86,21.61,7.79,33.18,7.26a53,53,0,0,0,15.94-2.1c5.24-1.34,10.53-2.78,15.19-5.61a29.3,29.3,0,0,0,6-5,71.24,71.24,0,0,0,10.11-12.66c8.78-15.45,11.49-33.74,13.16-51.23,1.12-13.21,2.86-26.38,3.09-39.66-.25-6.81.07-13.62.26-20.44C732.78,686.61,732.58,674.94,732.33,663.3ZM273.25,579.37c.29.67.69,1.32,1,1.91a3.42,3.42,0,0,1-1.25-1.23c-.07-.13-.14-.27-.2-.41A1.38,1.38,0,0,0,273.25,579.37Z"/><path class="cls-1" d="M331.12,685.05c-4.57-3.07-9.83-5-14.38-8.13-3.68-2.26-7.08-4.94-10.83-7.08-3-1.68-6.69-3.44-9.41-5.29-3-1.71-6.06-3.17-9-5-5.76-3.4-11.06-7.5-16.51-11.38-4.1-2.94-8.34-5.68-12.45-8.61-3.78-3.14-5.76-5.38-1.43-9.3,4.23-4.7,9.21-8.6,14.05-12.63-6.48.9-13.46.79-19.91.83-2,0-4.05-.12-6.07-.34-1.58-.24-3.39-.19-4.68-1.24a3.36,3.36,0,0,1-.64-3.84c.46-1.88.92-3.8,1.22-5.71a90.43,90.43,0,0,1,2.2-11.22,125.4,125.4,0,0,1,4.53-12.75,22,22,0,0,1,1.45-3.11,1.77,1.77,0,0,1,3.18.68h0c.31,1.41-.35,2.81-.69,4.15-1.08,3.37-2.24,6.71-3.21,10.12-1.72,5.89-2.25,12-4,17.93,5,.61,9.54.13,14.5.09,3.28,0,6.56-.13,9.83-.38s6.8-.67,10.18-.76a2.15,2.15,0,0,1,.32,4.08C272.46,622,265,627.33,258.87,634a26.62,26.62,0,0,0,5.55,3.89c4.29,2.64,8.57,5.3,12.77,8.09a261.29,261.29,0,0,0,22.6,14.29c3.48,2.32,7.31,4,10.73,6.44,5.73,3.82,11.26,7.93,17.17,11.48a52.3,52.3,0,0,1,5.55,3.74,1.9,1.9,0,0,1,.48,2.61A1.88,1.88,0,0,1,331.12,685.05Z"/><path class="cls-1" d="M387.75,706.61a1.81,1.81,0,0,1-1.08-2.29c1-2.23,1.8-4.53,2.67-6.81,4.07-9.64,8.07-19.35,13.31-28.43,3-5.28,4-11.39,6.22-17,6-15.16,12.57-29.94,19-44.84-3.48-.93-7.17-.66-10.67-1.55-3-.69-5.92-1.77-8.86-2.69-3.89-1.3-8.2-2.64-11-5.75-1.09-1.73.08-3.41,1.85-3.94,2-1.14,4-2.2,6-3.32,6.39-4,13.39-6.89,19.94-10.61-5.43-7.81-11.09-15.58-14.39-24.59-.51-2.08-3.13-6-1.25-7.7,2.21-1.59,3.41,1.62,4.27,3.15,1.38,2.42,2.8,4.83,4.28,7.19,3.12,4.94,7.14,9.24,10.07,14.3,6.07,9.71,3.91,10.35-5.53,14.76-6.63,2.8-13.06,6-19.5,9.21a53.49,53.49,0,0,0,7.94,2.9,86.31,86.31,0,0,0,8.89,2.64c4,.86,12.83.94,12.47,6.71-.21,2.17-1.25,4.16-2,6.19-4,10.58-8.71,20.87-13,31.35-.91,2.28-1.9,4.52-2.88,6.77-2.44,5.56-3.77,11.55-6.37,17-2.89,5.13-5.78,10.29-8.41,15.58-1.75,3.6-3.37,7.27-5.2,10.83-1.62,3.3-3.08,6.67-4.58,10A1.8,1.8,0,0,1,387.75,706.61Z"/><path class="cls-1" d="M393.19,816.5a133.73,133.73,0,0,0-4.8-25.29c-1-4.59-1.92-9.18-3.14-13.72-.9-4.12-2.42-8.06-3.6-12.1-.81-3.13-1.32-6.32-1.94-9.49-.88-4.68-1.83-9.35-3-14-.36-1.7-2-5.26.77-5.49a.9.9,0,0,1,.84,1.59c3.14,8.11,4.65,16.63,6.64,25.06a147.87,147.87,0,0,1,5.56,18.68c2.26,11.4,5.36,22.65,6.92,34.18A2.13,2.13,0,0,1,393.19,816.5Z"/><path class="cls-1" d="M193.16,721.3c-.37-1.2,0-2.57-.24-3.82-1-5.44-3.68-10.44-5.08-15.77-1.89-6.85-.45-14-.85-21a1.91,1.91,0,0,1,3.77-.48c1,6.09-1.24,12.29-.15,18.42.85,6.36,4,12.26,4.51,18.67C195.17,718.61,195.14,722.85,193.16,721.3Z"/><path class="cls-1" d="M201.15,701.05c-1.44-.95.86-6.58,1.15-8.21,2.27-7.92,4.18-16.49,2.76-24.72a2.15,2.15,0,0,1,4.14-1.1c.89,2.84.2,5.85-.09,8.74-.67,8.2-3.64,15.87-6.65,23.44C202.11,699.82,202.17,701.35,201.15,701.05Z"/><path class="cls-1" d="M519,697.21c-1.23-.74-1.41-2.42-1.82-3.67-1.09-3.83-1.9-7.73-2.76-11.62-1.78-8-3.34-16.25-1.72-24.44a86.31,86.31,0,0,1,1.93-11.28c1.36-5.34,3.52-10.93,2.33-16.48a1.65,1.65,0,0,1,2.3-2c1.5,1.14,1.42,3.47,1.59,5.19A54.46,54.46,0,0,1,519,645a129.82,129.82,0,0,0-2.72,21.23c.49,9.09,2.11,17.69,3.47,26.62C519.81,694.11,521.11,697.43,519,697.21Z"/><path class="cls-1" d="M524,666.65c-3-.32-.5-5.25.45-6.65a101.53,101.53,0,0,0,5.87-10.09c2.4-5.45,3-11.41,3.48-17.28a2,2,0,0,1,3.87-.24,44.16,44.16,0,0,1-3.62,17.66,35.22,35.22,0,0,1-4.18,6.67c-1.88,2.76-4.66,5.15-5.54,8.46A.75.75,0,0,1,524,666.65Z"/><path class="cls-1" d="M645.42,761.11c-5-.63.64-9.71,1.51-12.34a18,18,0,0,0,1.3-10.86c-.79-4.92-2-9.76-2.3-14.74-.18-1.25-.25-3.8,1.7-2.94a.41.41,0,1,1-.16.81c1.43,6.65,4.1,13.06,5.36,19.7.71,4.26-1.26,8.66-2.93,12.37a2,2,0,0,1,.11-.26h0a39.9,39.9,0,0,0-1.75,4.87C647.92,759.24,647.4,761.3,645.42,761.11Z"/><path class="cls-1" d="M662.66,775.09c-5.69-6.66-5.64-16-5.56-24.26a.42.42,0,0,1,.76-.34c1,2.65,1.35,5.63,2.06,8.37a31.53,31.53,0,0,0,2.8,7.2,21.89,21.89,0,0,0,4.17,4.89,3.09,3.09,0,0,1,1,2A3,3,0,0,1,662.66,775.09Z"/><path class="cls-1" d="M83.08,803.82c-3.25-.26-3.22-5.11,0-5.3a66.74,66.74,0,0,0,7.62-.19c3.21-.33,6.08-2,9.22-2.57a16.84,16.84,0,0,1,7.82.91,15.11,15.11,0,0,1,4.75,2.14c.48.41.77,1,1.28,1.38a.52.52,0,0,1-.16,1,13.85,13.85,0,0,1-3.14-.33c-7.44-1.86-8.67-1.36-15.49,1.55A29.52,29.52,0,0,1,83.08,803.82Z"/><path class="cls-1" d="M102.6,788.35c-2.16,0-4.14-.93-6.17-1.57a64.21,64.21,0,0,1-11-4.71,2.56,2.56,0,1,1,2.62-4.38c2.15,1.58,4.38,3.29,6.64,4.63,2.67,1.56,5.47,2.89,8.2,4.31A.88.88,0,1,1,102.6,788.35Z"/><path class="cls-1" d="M219.32,439.71l-.45,0a1.8,1.8,0,0,1-.5-.11h0a.62.62,0,0,1-.2-1.06c.67-.4,1.56-.26,2.28-.63a14,14,0,0,0,4.61-3.36.92.92,0,1,1,1.37,1.23C224.49,437.61,222.13,439.59,219.32,439.71Z"/><path class="cls-1" d="M223.1,445.69c-.69-.2-1.89.12-2-.86-.07-.58.45-.92.91-1.11.91-.37,1.85-.7,2.73-1.16a23.68,23.68,0,0,0,3-1.78,1.11,1.11,0,0,1,1.22,1.85,19,19,0,0,1-5.28,2.56A.51.51,0,0,1,223.1,445.69Z"/><path class="cls-1" d="M226.4,453.06c-1-.14-2.36-1.26-1.27-2.2,1.76-1.11,3.84-1.76,5.42-3.2a1.61,1.61,0,1,1,1.56,2.75c-1.67.6-3.32,1.24-5,1.71A.64.64,0,0,1,226.4,453.06Z"/><path class="cls-1" d="M403.86,1005.11c-1.43-1.85,3.54-6.24,4.72-7.74,3.43-3.63,6.95-7.2,10.11-11.07,2.4-2.89,4.17-6.22,6.37-9.24a1.85,1.85,0,0,1,3,2.07,20.6,20.6,0,0,1-1.32,2c-5.07,7.73-11.86,14-18.33,20.57-1,1-1.9,2-2.8,3.09A1.08,1.08,0,0,1,403.86,1005.11Z"/><path class="cls-1" d="M414.33,1011.69a.55.55,0,0,1-.1-.89c.08-.33.27-.79.69-.59A107.15,107.15,0,0,0,433,988.14c5.55-9.87,11.59-19.58,19-28.19a2,2,0,0,1,3.47,1,2,2,0,0,1-.32,1.52c-1.52,1.9-3.14,3.72-4.65,5.63-3.06,4.1-5.84,8.4-8.76,12.59-5.55,8.88-11.14,17.87-18.94,25C421.17,1007,416.26,1012.21,414.33,1011.69Z"/><path class="cls-1" d="M463.61,975.92c-.1-.94.75-1.68,1.19-2.44,3.25-4.69,7.25-8.87,10.87-13.23a68.44,68.44,0,0,1,10.54-11.75,2.35,2.35,0,1,1,2.83,3.75c-4.23,2.75-7.67,6.47-11.06,10.17-4.28,4.27-8.86,8.27-12.6,13C465.75,976.45,463.81,976.93,463.61,975.92Z"/><path d="M657.56,1398.74c-3.18-2.41-7.37-2.89-10.85-4.76-8.22-4.16-17.85-7.12-24.64-13.85a2.8,2.8,0,0,0-2-.8,98.42,98.42,0,0,0-1-12.71c-.73-8.68-1.16-17.38-2.58-26-1.25-9.65-3.57-19.1-4.46-28.8-.66-6.52-2.42-12.88-3.18-19.38-.37-3.4-.67-7-1.13-10.71-2.3-16.64-5.06-33.24-6.43-50-1-10.48-1.53-21-2.51-31.47-1-7.64-2-15.25-2.21-23-.77-14.17-3.37-28.28-4.22-42.62-1.27-14.1-2-28.26-3.88-42.29-1.48-11.44-4-22.71-5.15-34.18l.6-.27a3.69,3.69,0,0,0,2.84-2.73,3.64,3.64,0,0,0,1.82-3.62c-.47-2.79-1.18-5.56-1.42-8.4-1.09-10.41-2.73-20.77-4.34-31.11-2.48-22-7.39-43.06-11.73-64.78-2.2-15.19-6-30.05-9.21-45-2.19-11.92-5.62-24.37-8.4-36.29-3.46-12.66-7.52-25.21-11.66-37.65a2.55,2.55,0,0,1-1.85.87,2.27,2.27,0,0,1-2.15-1.26c-.17-1.33-.36-2.66-.57-4a80.48,80.48,0,0,1-10.33,2.23c-8.16,1.75-16.15,4.23-24.42,5.46-5.34,1.29-10.27,1.69-15.86,2.88-6.2,1.76-12.5,3.09-18.74,4.67-7.9,2.3-16.09,3.18-24.14,4.71-5.09,1-10.11,2.17-15.17,3.21-4.43.66-9.19,2-13.52.31a22.65,22.65,0,0,1-4-3.81,77.54,77.54,0,0,1-9.08-14.72,3.37,3.37,0,0,0-1.9-2.26c-5.07-1.53-4.8,5.15-5.4,8.35a69.52,69.52,0,0,1-4.05,12.06,13.7,13.7,0,0,1-5.59,6c-6.39,4.16-14.27,5.49-21.58,7.38-12.25,3-24.62,5.45-36.94,8.06-13,2.08-25.87,4.43-38.68,7.27-6.54,1.19-13.13,2-19.67,3.24a193.23,193.23,0,0,0-28.66,7.58c-1,.41-2.62.86-4.19,1.48a3.29,3.29,0,0,1-3.7,1c-3.56-1.4-5.85-14.15-7-18-1.1-5.11-2-10.28-3.16-15.37-.69-2.67-1.52-5.29-2.3-7.94-6.25-9.57-16.66-14.4-27.59-16.7-4.36-1.07-8.73-2.18-13.14-3-.06,1.42-.91,2.87-1.31,4.25a0,0,0,0,0,0,0l2,.64c5.48,1.68,10.85,3.7,16.29,5.47A33.51,33.51,0,0,1,210.66,848c4.71,5.61,7.32,12.61,8.88,19.7a242.78,242.78,0,0,1,4.68,24.24c1.6,10.77,3.79,21.79,1.94,32.66a34.62,34.62,0,0,1-2.51,6.45,5.21,5.21,0,0,1-1.46,2.07c-4.05-.52-5-6.57-5.8-9.87a105,105,0,0,0-1.51-12.58c-.76-4.22-1.07-8.51-1.63-12.75-.51-2.63-.27-5.72-2.11-7.85a3,3,0,0,0-5.07,1.64,11.57,11.57,0,0,0,.32,4.41c1.56,8.66,2.59,17.41,4.22,26.06a39.66,39.66,0,0,1-2.05,8.16c-.81,2-1.35,4.2-2.72,5.87a4.11,4.11,0,0,1-.51.27c-6.33,1.41-6.33-23.69-7.06-28.25a98.8,98.8,0,0,0-2-14.33c-1.21-5.47-7.76-4.95-6.95.91,1,7.72,2.31,15.4,3.32,23.11.55,2.73-.07,5.51-.5,8.22-.93,3.86-1.44,8.24-4.61,11-.78.53-1.84,1.8-2.83,1.31-4.77-4.72-4.25-17.61-5-24.2-.28-5.87-.35-12-.41-17.88a4.53,4.53,0,0,0,.52-3.57c-1-3.68-5.38-4.07-8.55-4.68-2.67-.46-5.37-.69-8-1.2a7.38,7.38,0,0,0-1.75-.24,77.19,77.19,0,0,0-1.64,8.17c0,.18-.05.36-.09.55a3.8,3.8,0,0,1,.34,2.12,5.66,5.66,0,0,0,1.3.18c3.47,0,6.93.14,10.39.36-.31,8.6,1,17.45,2.88,25.92,1.42,6.07,2.35,17.58,9.77,19.28,5.67.06,10-5.47,11.33-10.57,1.65,6.32,7.19,11.71,13.61,7.39,2.29-2.06,3.33-5.17,4.49-8,1.67,3.28,5,6.5,9,6s5.45-4.85,7-8A34.57,34.57,0,0,0,233,916.9a83.51,83.51,0,0,0,0-10.73c.76,4.47,1.43,9,1.89,13.46,1.63,17.44,3.31,34.88,5.77,52.22,2,12.4,3.15,24.95,5.5,37.3,2.66,14.66,4.43,29.44,6.67,44.15a118.85,118.85,0,0,0,2.48,14.53c1.08,5.8,1.78,11.67,2.94,17.45,1.47,9.42,2.93,18.82,4.89,28.16.64,2.46.67,5.13,1.31,7.6a1.46,1.46,0,0,0-.54.34,1.7,1.7,0,0,0,.11,2.54,5.41,5.41,0,0,0,3.21.83,4,4,0,0,0,1.92.08,101,101,0,0,0,17.92-1.86l9.53-1.62c.23,2.29.47,4.57.61,6.87,0,4,.19,8.06.38,12.08a74.86,74.86,0,0,1-13.85,11c-9.75,6.09-19.61,12-29.32,18.11a203,203,0,0,0-21.22,15c-6.87,4.93-13.27,10.42-19.63,16Q193,1215.55,173.43,1232c-9.11,8.24-18.24,15.62-27.71,23.61-13.6,11.1-27.89,22.19-40.58,34.59-1.46,1.66-3.41,3.37-3.77,5.63,0,1.68,1.77,2.44,3.23,2.37,4.91-.31,9.43-2.7,14-4.23-.67,5.92-1.22,12-.07,17.9,1.68,7.82,4.22,15.45,6.61,23.08,2.48,6.42,3.76,13.28,7,19.39,1,2.08,2.09,4.34,3.25,6.59,1,2,2.15,4.2,4.15,5.34,7.27,3.45,5.72-9.93,6.18-13.91.52-10.57-.27-21.16-.18-31.72.09-1,.28-2,.39-3,.37-.1.73-.23,1.08-.32,3.94-1.31,7.73-3,11.68-4.27a135.7,135.7,0,0,0,19.57-7.25c5.21-2.31,10.6-4.18,15.9-6.28s10.29-5.07,15.44-7.57c10.68-4.44,20.93-9.74,31.3-14.83,5.15-2.49,10.24-5.07,15.39-7.53,7.57-3.44,15.13-6.55,22.52-10.47,12.63-6.35,24.93-13.33,37.31-20.16,5.09-2.63,10.11-5.38,15-8.34,4.83-2.73,9.79-5.24,14.52-8.16,4.79-2.76,9.27-6,13.9-9,4.13-2.53,8.49-4.69,12.43-7.54,3.66-2.64,7.24-5.41,10.7-8.31s7.91-6,11.37-9.34a80.85,80.85,0,0,0,20.25-31.33c2-5.08,2.61-11.35,3.08-16.86a160.46,160.46,0,0,0,.42-27.38,103.12,103.12,0,0,0-1.95-17.43c11.37-2.09,22.6-4.83,33.94-7.05,6.6-1,13.16-2.25,19.69-3.63.24.85.47,1.71.71,2.56,2.81,11.15,6.05,22.21,8.38,33.61,2.68,11.26,5.77,21.72,8.67,33.1,1.43,5.72,2.23,11.57,3.62,17.3s3.39,11.06,5.24,16.54c4.25,13.56,8.24,27.2,12.29,40.82,8.8,31,19.36,61.5,28,92.56,1.84,6.71,4.45,13.19,6.13,20,.87,3.42,1.71,6.86,2.74,10.25,4.37,13.18,9.21,26.22,14,39.27,2,5.7,10.7,31.85,16.83,31.6,3-.11,2.55-5.19,2.91-7.37.21-3.12.21-6.25.22-9.38,0-1.65-.05-3.29-.11-4.93a123.61,123.61,0,0,0,19.81,8.58c7,1.82,14.31,2,21.49,2.37a87.53,87.53,0,0,0,15.43-.79c4.73-.57,9.58-.35,14.15-1.89a14.18,14.18,0,0,0,7.33-4.52C658.52,1402.53,659.32,1400.26,657.56,1398.74ZM410.69,1143.06c-.27,6.24-2.29,12.47-4.9,18.16-3.4,8.39-9.36,15.49-16,21.54-8.3,7.26-16.68,14.71-25.78,21.08-5.43,3.16-10.8,6.37-15.92,10-5.94,3.66-12,7-18.21,10.32-4.85,2.73-9.62,5.6-14.62,8-10,5.37-19.86,11.06-30,16.29-11.26,6.17-23.21,10.86-34.83,16.25-5.16,2.52-10.3,5.08-15.5,7.54-9.11,4.41-18.22,8.83-27.55,12.73-4.29,2-8.4,4.34-12.64,6.43-3.6,1.67-7.34,3-11,4.47-6.13,2.31-11.9,5.43-18,7.79-4.76,1.81-9.65,3.29-14.21,5.58-2.29,1.14-4.51,2.32-6.81,3.41a4.65,4.65,0,0,0-2.28-1.38,96.87,96.87,0,0,1-2-12.86c-.31-5.45-1-10.88-1.37-16.34-.41-3.12-.32-6.33-.92-9.42a2.67,2.67,0,0,0-2.28-2c6.79-5.34,13.56-10.68,20.22-16.17,7.28-5.62,14.67-11.78,21.63-17.94q19.89-15.37,40-30.44c6.42-5.44,12.9-10.79,19.82-15.62,4.48-3.35,8.89-6.8,13.62-9.82,5-3.11,10.2-6.25,15.28-9.26,11.76-7.15,24.6-12.84,34.69-22.38,5.88-5,5.15-7.44,4.13-14.55a99.79,99.79,0,0,0-2-14.28l4.51-.74c13.48-2.16,26.47-6.47,39.74-9.56,19.9-4.26,39.67-9.16,59.6-13.27.13.59.26,1.17.38,1.75,1.26,7.65.95,15.44,2.17,23.09C410.22,1128.68,411.37,1135.86,410.69,1143.06Zm-2.27-141.34c-1,1-1.9,2-2.8,3.1a1.12,1.12,0,0,1-1.43.54.13.13,0,0,1-.09,0l-.09-.06-.15-.15c-1.44-1.85,3.54-6.23,4.72-7.73,3.43-3.64,6.94-7.22,10.11-11.09,2.4-2.88,4.17-6.21,6.37-9.23a1.85,1.85,0,0,1,3,2.08,18.79,18.79,0,0,1-1.32,2C421.67,988.89,414.89,995.19,408.42,1001.72Zm46.74-39.29c-1.53,1.9-3.14,3.72-4.65,5.64-3.06,4.09-5.83,8.39-8.76,12.58-1.74,2.78-3.48,5.56-5.29,8.3-.72,1.09-1.45,2.18-2.2,3.26s-1.51,2.13-2.3,3.18-1.59,2.08-2.42,3.08c-.41.51-.83,1-1.26,1.51s-.75.87-1.13,1.29l-.23.25c-.83.91-1.69,1.79-2.57,2.66-.5.5-1,1-1.54,1.46-1.64,1.39-6.54,6.57-8.48,6.05a.55.55,0,0,1-.1-.89c.08-.32.27-.79.69-.6,1.72-1.64,3.41-3.34,5.05-5.07.82-.87,1.62-1.76,2.42-2.64l1.17-1.36h0l.13-.15,0,0c.26-.3.51-.61.77-.92.1-.12.21-.24.31-.37l.66-.8c.28-.34.55-.67.81-1l.78-1,.33-.42.51-.68c.28-.36.55-.73.81-1.1s.52-.71.77-1.07c.14-.19.28-.37.41-.57s.15-.21.22-.33c.31-.44.61-.88.91-1.34a1.08,1.08,0,0,0,.11-.18h0c.33-.5.65-1,1-1.51s.63-1,.94-1.52c5.54-9.87,11.59-19.57,19-28.19a2,2,0,0,1,3.46.95A2,2,0,0,1,455.16,962.43Zm14.72,7.93h0c-.52.53-1,1.08-1.55,1.63h0c-.51.56-1,1.12-1.51,1.69s-1,1.17-1.44,1.76a.35.35,0,0,1,0,.13.66.66,0,0,1-.31.68,1.33,1.33,0,0,1-.7.21h-.18l-.18-.05h0l-.11-.06a.39.39,0,0,1-.1-.08l-.08-.08v0h0a.33.33,0,0,1-.06-.1.74.74,0,0,1,0-.14.76.76,0,0,1,0-.15.44.44,0,0,1,0-.16,0,0,0,0,1,0,0v-.06c0-.08,0-.15.06-.24a1.21,1.21,0,0,1,.05-.14h0l0-.07a.35.35,0,0,1,.05-.08l.06-.14h0s0,0,0-.05a1.76,1.76,0,0,1,.14-.23c.25-.38.55-.73.76-1.09.5-.72,1-1.44,1.56-2.13.32-.44.66-.87,1-1.3s.84-1.06,1.27-1.58c.05-.07.11-.13.17-.2.43-.51.85-1,1.29-1.52,1.39-1.64,2.81-3.25,4.2-4.87.46-.54.92-1.08,1.37-1.63.29-.4.6-.79.9-1.18l.3-.4c.13-.17.27-.33.39-.51.28-.35.56-.69.83-1h0l.22-.28c.33-.42.67-.84,1-1.25s.85-1,1.27-1.51.65-.74,1-1.11.66-.73,1-1.08.46-.48.7-.7a37,37,0,0,1,2.91-2.68,2.35,2.35,0,1,1,2.83,3.75c-4.24,2.75-7.66,6.47-11.06,10.16-1.61,1.6-3.25,3.16-4.87,4.75h0c-.55.53-1.09,1.05-1.62,1.59-.28.27-.55.54-.8.81Zm142.82,409.4c-4.85.79-9.7,1.68-14.56,2.41-10.15,1.83-20.48,2.42-30.49,5-.88.21-1.77.39-2.66.59-1.49-4.69-3.18-9.31-4.64-14-2.1-6.74-4.43-13.39-6.66-20.08-2.53-7.42-3.86-15.16-6.2-22.63-5.76-16.87-10-34.22-15.61-51.13-8.51-27.18-16.14-54.61-24.17-81.91-2.73-10.42-7-20.34-9.8-30.75-3.22-15.51-8-30.65-13-45.66-1.38-5-2.76-10.06-4.48-15-2.36-7.65-4.69-15.3-7.62-22.75,12.34-2.65,24.62-5.6,37.06-7.82,5.13-1,10.13-2.47,15.2-3.71,9-2,18.27-3.71,27.58-5.36,5.64-1.06,11-3.31,16.63-4.3a75.86,75.86,0,0,0,10.31-2.93c.48,7.63,1.26,15.24,2.26,22.82,2.88,26.26,2.64,52.83,6.09,79,1.18,9.42,1.35,19.8,2.4,29.38,1,7.31,1.91,14.64,2.29,22,1.41,24.07,4.18,48,7.63,71.86a195.59,195.59,0,0,0,3.59,24.54c1.38,13.16,4.23,26.09,5.78,39.23,1,8.35,1.31,16.76,2.78,25,.14,1.51.24,3,.28,4.53C612.72,1378.66,612.71,1379.21,612.7,1379.76Z"/><path class="cls-2" d="M793.35,338.57a12.55,12.55,0,0,1-1,1.05c-6.62,7.58-12.8,15.68-19.15,23.44-14.53,17.63-27.07,36.81-42,54.12-4.61,5.75-8.53,12-13.54,17.47-.32.39-.65.79-.94,1.21a2.71,2.71,0,0,1-.35.4,2.63,2.63,0,0,1-4.43-1.74,2.85,2.85,0,0,0,5-2,96.08,96.08,0,0,1-.76-9.74c1.11-2.62,2.36-5.2,3.41-7.81a152.84,152.84,0,0,1,8.62-17.1c1.94-3.56,3.75-7.19,5.75-10.71,2.71-4.9,6-9.5,8.61-14.42,4.49-8.75,9.85-17,14.61-25.62,3.13-5.37,6.7-10.47,9.55-16,1.13-2.21,2.47-4.33,3.44-6.62.16-.37.3-.74.43-1.12.46-2.51,3-3.09,5.13-2.57a5.67,5.67,0,0,1,1.41.52,58.77,58.77,0,0,1,13.46,7.9l.82.64C794.76,332.67,796.41,335.07,793.35,338.57Z"/><path d="M691.47,328.83a4,4,0,1,1-4.09-3.87A4,4,0,0,1,691.47,328.83Z"/><path d="M694.49,324.89a4,4,0,1,1,4.12,3.91A4,4,0,0,1,694.49,324.89Z"/><path d="M688.42,339.78a3.18,3.18,0,1,1,3.26,3.09A3.2,3.2,0,0,1,688.42,339.78Z"/><path d="M691.54,354.52a3.63,3.63,0,1,1,3.73,3.53A3.65,3.65,0,0,1,691.54,354.52Z"/><path d="M695.88,337.43a3.1,3.1,0,1,1,3.18,3A3.12,3.12,0,0,1,695.88,337.43Z"/><path d="M700.5,348.77a2.08,2.08,0,1,1,2.14,2A2.1,2.1,0,0,1,700.5,348.77Z"/><path d="M698.08,365.85a2.84,2.84,0,1,1,2.92,2.77A2.86,2.86,0,0,1,698.08,365.85Z"/><path d="M700,379a2.5,2.5,0,1,1,2.57,2.42A2.53,2.53,0,0,1,700,379Z"/><path d="M703.23,385.34a1.85,1.85,0,1,1,1.9,1.79A1.86,1.86,0,0,1,703.23,385.34Z"/><path d="M840.48,410.83c-.85-5.19-1.75-10.38-2.9-15.52C834.53,381,829.44,369.62,820.4,358a102.19,102.19,0,0,0-27.15-26.79c-.63-.45-1.27-.89-1.91-1.33,3.42,2.77,5.07,5.17,2,8.67,1.08.81,2.14,1.62,3.2,2.43,9,7,16.08,16.59,22.42,26,7.47,10.78,10.47,23.09,12.72,36,2.78,14,2.67,27.73.51,41.95a64.69,64.69,0,0,1-4.43,15.34c-2.07,4.26-4.54,8.3-7,12.33a63.23,63.23,0,0,1-5.08,7.24c-3.8,4.62-7.33,9.51-11.78,13.54-4,3.52-7.94,8-12.2,11.61-.81.68-1.63,1.33-2.45,1.93-1,.7-2,1.39-2.93,2.06q-3.7,2.55-7.54,4.88c-1.57,1-3.14,1.91-4.73,2.83-1.24.75-2.43,1.6-3.66,2.35a18.53,18.53,0,0,1-2.57,1.35c-2.39.79-4.88,1.19-7.21,2.19-1,.38-2,.82-2.92,1.28-2.33,1.15-4.58,2.49-7,3.55-.6.27-1.21.51-1.83.74a9.93,9.93,0,0,0-3.57,1.64c-.61-1.92-1.14-3.87-1.65-5.82s-.95-3.77-1.46-5.64c-.57-2-1.17-4-1.78-6-1.9-6.15-3.95-12.25-5.59-18.48-2-8.33-4.66-16.47-7.1-24.66a201.47,201.47,0,0,0-8.16-24.8c-1.1-2.69-2.16-5.41-3.24-8.11a2.63,2.63,0,0,1-4.43-1.74,2.85,2.85,0,0,0,5-2,96.08,96.08,0,0,1-.76-9.74c-.12-3.37-.11-6.74-.07-10.12.2-15.38-.2-30.76-1.43-46.11-.82-12.16-.9-24.23-2.4-36.36-.4-4.06-.66-8.25-1.37-12.31-.13-.56-.24-1.28-.38-2a170.57,170.57,0,0,1,28-.1c8.82.72,17.07,4.17,25.49,6.62a56.27,56.27,0,0,1,6.1,2.1c.16-.37.3-.74.43-1.12.46-2.51,3-3.09,5.13-2.57a67.33,67.33,0,0,0-7.09-2.72c-8.87-2.47-17.6-5.8-26.75-7.05a129.42,129.42,0,0,0-16-.74l-2.26,0c3-1.28,2.86-3.57,1.86-6.69-3-10.79-6.39-21.51-7.89-32.66-2-10.56-4.44-21-7-31.62-1.86-8.73-2.89-17.6-4.73-26.34-2.71-12.33-4.77-24.07-8.05-36.43-.83-3.7-1.68-7.39-2.48-11.06-1.2-2.69-4.48-2.53-6.92-2-2.13.33-4.26.68-6.37,1.1-4,.79-8.11,1.59-12.11,2.6-2.18.5-4.39.82-6.58,1.28s-4.76.66-6.63,2.2a4.86,4.86,0,0,0,1.84,8.37c1.72,9.79,3.68,19.55,6.24,29.16,1.87,8.57,3.44,17.21,5.71,25.69,1.63,7,2.46,14.2,4.37,21.16,5,16.45,8.4,33.36,12.6,50.07.62,2.62,1.25,5.6,1.67,8.6a8.1,8.1,0,0,0,.22,1.66c-6,1.88-11.83,4.18-17.59,6.64q-4.43,1.8-8.72,3.92c-.55-2.13-1.21-4.23-1.7-6.37-.91-4.65-2.27-9.19-3.58-13.74-1.28-5.1-2.53-10.19-3.93-15.26-4.06-16.25-8.68-32.35-12.94-48.55-2.89-11.26-6.25-22.42-8.38-33.86-.72-2.54-.26-5.85-2.48-7.68a4,4,0,0,0-3.69-.4c-4.15.25-8,1.85-11.92,3.17-1.18.31-2.34.64-3.51,1a64.63,64.63,0,0,0-8.84,1.55c-2.54.83-5.31,1.1-7.68,2.38a5.55,5.55,0,0,0,.13,9.38c4.18,17.78,7.24,36.11,12.26,53.77,5.6,19.25,10.61,38.69,17.14,57.64a65,65,0,0,1,1.63,6.89,3.49,3.49,0,0,0,1,2.79,5.33,5.33,0,0,0,2.35,1,4.63,4.63,0,0,0,1.27.93c2.62,1.4,5.43-.27,8.08-.78l3.21-.75c.27,0,.55-.06.82-.1-1.74,1.37-3.44,2.82-5.09,4.32a182.51,182.51,0,0,0-16.52,16.27c-4.61,5-9.16,10.23-12.69,16.15-4.22,7.36-7.19,15.37-9.93,23.38a110.92,110.92,0,0,0-5,20.29c-1.15,9.29-.09,18.72,1.78,27.86,3.08,15.86,9.58,30.8,17.48,44.84a82,82,0,0,0,14.14,18.84c2.4,2.36,4.85,4.71,7.35,7a3.14,3.14,0,0,0,1,2.69,3,3,0,0,0,2.89.72,88.1,88.1,0,0,0,16.72,11.51,101.7,101.7,0,0,0,11.07,4.42c11.27,4.17,22.84,8,34.88,9.09,6.67.64,13.29-.52,19.85-1.63,3.53-.56,7.08-1.11,10.59-1.76,2-.37,4-.77,6-1.23a81.37,81.37,0,0,0,11-3.27l.79,0a48.45,48.45,0,0,0,5.8-.54,19.17,19.17,0,0,0,9.93-4.31,46.43,46.43,0,0,1,4.71-3.7c.2-.13.41-.25.62-.36,2.08-1.08,4.26-2,6.27-3.19l.27-.16a4.39,4.39,0,0,0,2-2.13,59.05,59.05,0,0,0,9.73-7.21l0,0a2,2,0,0,0,.45-.69c2.12-1.3,4.23-2.66,6.25-4.05l.11-.07c3.64-2.52,7.33-6.4,10.69-9.61A112.6,112.6,0,0,0,820.12,487a79.54,79.54,0,0,0,9-12.27,69.62,69.62,0,0,0,11.67-32.4A133.92,133.92,0,0,0,840.48,410.83Zm-128,28.23c.57,2.28,1.31,4.54,1.9,6.8,2.1,6.65,4,13.21,5.57,20v0a0,0,0,0,0,0,0s0,0,0,0a.19.19,0,0,0,0,.08q.94,4.2,2.09,8.37c-1.92-6-5-11.45-7.26-17.27-1.8-4.7-3.26-9.57-5.59-14C710.36,441.76,711.45,440.42,712.52,439.06ZM681.28,323.6a120.69,120.69,0,0,1,24.46-7c0,1.93.27,4.1.12,5.29.06,9.16.84,18.3.76,27.47s.56,18.19,1.18,27.28c.26,6.79.87,13.54,1.28,20.31q.21,9.91.86,19.79-1.11-2.93-2.15-5.87c-3.49-9.79-6.06-19.88-9.61-29.64-1.52-3.86-3.29-7.62-5-11.41-3.31-7.46-6-15.18-9.48-22.56-2.62-5.65-5.14-11.35-7.67-17.05-.56-1.25-1.12-2.52-1.69-3.77C676.67,325.44,679,324.51,681.28,323.6Zm-29.9,202.15a109.49,109.49,0,0,1-10.18-7.65,72.67,72.67,0,0,1,5.34-5.75q1.9-1.86,3.79-3.75l1.53,4.74c1.2,3.45,2.55,6.81,3.9,10.22a40.18,40.18,0,0,1,2.73,5.93A51.86,51.86,0,0,1,651.38,525.75Zm18.21,7.82c-2.83-.94-5.64-1.88-8.4-3,1.62-1.64-1.62-6-2.28-7.75-2.27-5.35-4.63-10.64-6.85-16,2.14-2.18,4.26-4.38,6.33-6.64.69,3.43,2.93,8.56,3.19,9.73,2.77,8.22,6.32,16.09,9.55,24.14Zm4.91,1.67a1.52,1.52,0,0,0-.15-1c-1.59-4.32-3-8.72-4.79-13-3.18-7.56-7-14.89-9.66-22.65l.17-.19a.55.55,0,0,0,.35-.38c.77-.87,1.54-1.75,2.3-2.63,1.61-1.6,3.09-3.3,4.55-5,.81,2.36,1.69,4.63,2.63,7,4.3,10.57,6.88,21.85,11.65,32.25,1.39,2.88,2.48,6,3.94,8.92C681.79,537.6,678.13,536.46,674.5,535.24Zm16,4.53c-.49-1.32-1.17-2.58-1.64-3.91-1-2.67-1.93-5.29-3-8.05-3.16-7.18-6.1-15-9.09-22.32-2.36-5.82-5.49-11.37-7.72-17.24,1.47-1.78,2.94-3.55,4.5-5.25,1.32-1.35,2.7-2.65,4.06-4,3.28,9.09,7.43,17.83,10.56,27,1.71,4.48,3.59,9.34,5.08,14a78.41,78.41,0,0,0,4.43,11.4,54.7,54.7,0,0,0,5.18,9.92l0,.11A76.49,76.49,0,0,1,690.48,539.77Zm18.07,1.53c-.47-1-1.15-1.86-1.68-2.79-1-2-1.83-4.06-2.65-6.13-2.2-5.92-4.53-11.78-6.69-17.71-5.41-12.83-12-25.16-17.69-37.86.82-.84,1.62-1.7,2.39-2.59,1.87-2.18,3.68-4.41,5.51-6.64,4.69,13.43,11.43,26,16.31,39.39,4.94,10.83,8.35,22.28,13.69,33C714.69,540.49,711.63,541,708.55,541.3ZM723.41,539l-.85.13a75,75,0,0,1-5-11.9c-2-5.56-3.74-11.22-6.25-16.59-2.35-4.57-4.36-9.31-6.45-14s-4.89-9.35-7.27-14.05c-2.82-5.46-5.28-11.1-7.94-16.64-.06-.13-.13-.26-.18-.39,1.95-2.36,3.93-4.69,6-6.93q1.77-1.92,3.55-3.83c.83,2.13,1.75,4.25,2.56,6.48,4.9,12.82,8.86,26.27,14.61,38.78,5.38,12.19,9.6,24.73,15,37a2.18,2.18,0,0,0,.56.61C729,538.06,726.2,538.47,723.41,539Zm16.4-3.12a.15.15,0,0,1-.06,0c-.56.15-1.13.29-1.69.42-.86.21-1.73.4-2.59.58a4.06,4.06,0,0,0-.38-3.6c-.34-.82-.68-1.64-1-2.45-.79-1.84-1.6-3.67-2.33-5.54-4.13-11.75-8.44-23.43-14-34.58-5.79-12.56-10.87-25.42-16.93-37.85,2.09-2.26,4.15-4.54,6.13-6.91.31.82.6,1.65.9,2.5,1.69,4.87,3,9.87,4.9,14.67,2.82,6.11,5,12.47,7.18,18.81a63.27,63.27,0,0,0,4.25,8.27A141.52,141.52,0,0,1,730,503.46a0,0,0,0,0,0,0c1.66,5.65,3.46,11.26,5.24,16.88l.51,1.69c.94,3.1,1.88,6.2,2.66,9.35.16.54.25,1.13.36,1.7a6,6,0,0,0,1.08,2.75Z"/><path d="M796.31,295.4a14.83,14.83,0,0,1-5.29,2.77A89.32,89.32,0,0,1,779.76,301c-6.22,1.07-12.4,2.33-18.63,3.33-2.79.31-5.73,1.06-8.5.42-3.37-1.17-2.14-5.28-2.62-8-.27-2.55-.76-5.08-1.23-7.6-3.27-13.92-5.68-28-8.66-42-2.31-8.85-3.36-18-5.37-26.88-2.24-11.7-5-23.3-7.49-35-1.88-11.17-3.65-22.92-6.31-33.76-1.66-7.29-3.53-14.38-4.66-21.73-2.71-1.24-2.28-5.16-2.62-7.68s.84-5.16,3.5-5.65c4.53-1.14,9.14-2.06,13.74-2.9,8.12-1.18,16.16-2.86,24.35-3.49,2-.29,4.34.23,5.24,2.24.41,1.19.54,2.45.94,3.64.71,3,1.56,6.06,2.19,9.13,2.33,15.85,7.82,31,10.68,46.72,3,17.24,5.8,34.54,9.31,51.7a100,100,0,0,1,2.83,13.91c1.19,10.43,4.08,20.49,6,30.74a144.15,144.15,0,0,0,4,19.39C797.05,290.12,798.31,293.24,796.31,295.4Z"/><path class="cls-2" d="M869.6,281.79a4.2,4.2,0,0,1-3.85,1.73,3.15,3.15,0,0,1-.81-.16c-1,1.64-3.21,2.61-5.13,2.94a225.66,225.66,0,0,1-25.87,4.1c-3.3.26-6.63,1.25-10,.82a4.37,4.37,0,0,1-3.15-2.41c-.66-1.23-.17-2.51-.39-3.79-.28-2.17-.72-4.33-1.09-6.49-1.17-6.95-2.64-13.85-3.79-20.81-.71-4.8-1.2-9.64-2.11-14.42-2.27-14.83-5.35-29.51-7.91-44.29-.85-5-1.6-10-2.19-15-2.36-14.73-5.51-29.32-7.76-44.08C793.94,130,792.57,120,791,110c-2.18-13.6-4.51-27.19-5.35-41-.06-2.58-.4-5.2-.33-7.79a2.33,2.33,0,0,1-.5-.34,2.05,2.05,0,0,1-.41-2.46c1-1.59,3.1-1.52,4.71-2q4.56-1,9.09-2.12c4.06-.71,7.92-2.11,11.9-3.15a127.09,127.09,0,0,1,16-2.22c3-.13,3.05,3,3.54,5.19,1.15,5.34,2.19,10.71,3.4,16,2.37,10.74,4.12,21.59,6.14,32.4,2,11,4.61,21.91,6.76,32.91q3.48,17.57,7.53,35c2.8,13.46,5.21,27,7.72,40.49,1.68,9.91,3.3,19.86,4.8,29.8,1.13,7.5,1.31,15.1,2.59,22.59.64,4,.76,8,1.31,11.95C870,277.5,871,279.86,869.6,281.79Z"/><path class="cls-2" d="M772.8,22.59c-.44,4.33-1,8.65-1.27,13a79.56,79.56,0,0,1-.69,9.86c-.37,3.07-.76,6.16-.9,9.26a3,3,0,0,1-1.09,3.22c-1.83,1.23-3.9-.38-5.41-1.33a64.9,64.9,0,0,1-9.68-7c-12.69,16.11-26.15,31.56-39.55,47-4.68,6.07-9.5,12-14.58,17.76-2.19,2.71-4.31,5.48-6.45,8.24-2.65,3.46-5.79,6.52-8.3,10.09-.86,7.49-10.86,2.48-15.28,1.55-9-2.25-17.06-7-25.36-10.88-6,8.39-12.36,16.46-18.84,24.46-5.42,7.05-10.89,13.94-16.48,20.69-3.82,4.57-7.53,9.06-11.32,13.61-.73.61-.65,1.56-1.07,2.36-1.37,2.61-4.68,1.91-6.84.78-5.45-2.81-10.57-6.29-15.79-9.51-3.71-2-6.7-5.08-10.29-7.25a4.6,4.6,0,0,1,2.89-8.58c10.36-11.36,18.82-24.07,29.19-35.36,11.53-11.94,23.13-23.94,35.39-35.09,2.31-1.19,5,.05,7.38.6s4.77,1.4,7.16,2.12c7.86,2.58,16.4,3.54,23.6,7.83,4.56-4.76,8.28-10.27,12.54-15.3,8.41-10.19,17.74-19.58,27.1-28.88,7.9-7.49,14.22-16.61,23-23.09a71.25,71.25,0,0,0-8.59-7.69,3.18,3.18,0,0,1,.81-5.39c1.23-.51,2.41-1.21,3.59-1.84,8.39-4.77,17.45-8.11,26.21-12.11C759,3.43,763.84,1.08,769.3.22c2.18-.69,3.74.3,4.17,2.55C774.71,9.32,773.45,16,772.8,22.59Z"/></g></g></svg>