<svg xmlns="http://www.w3.org/2000/svg" viewBox="0 0 783.84 1046.26"><defs><style>.cls-1{fill:#fff;}.cls-2{fill:#231f20;}.cls-3{fill:#f7941d;}.cls-4{fill:#78539d;opacity:0.54;}</style></defs><title>imagen 2_1</title><g id="Capa_2" data-name="Capa 2"><g id="Capa_1-2" data-name="Capa 1"><path class="cls-1" d="M88,113.56c-6.84-14.94-4.27-32.09-3.34-48,1.11-15,4.57-25.6,19.26-32C156.2,16.49,240.77,17,294.51,29c17.19,3.66,22.28,22.83,23.75,38.09,2.15,20.51,5.59,56.44-21.58,60.38a339.61,339.61,0,0,1-86.31,7.84c-4.58,35.2-8.35,13.63-18.87-3.12-15.5.66-31-.21-46.49-.27C124.8,131.69,98.1,136,88,113.56Z"/><path class="cls-2" d="M647.75,86c-11.45-10.69-17.59-25.58-24.53-38.37-9.35-17.2-20.17-30.57-47.38-24.67-2.11.46-4.32,1-6.63,1.73-12.66,4.93-18.5,19.06-18.23,31.93.22,25.81,19,44.54,15.43,71.5,2.59,3,6.71-1.36,9.62-2.17,5.23-2.76,10.65-5.16,16.06-7.55l6-2.48,1.47-.6,2.29-.94c5.63-2.31,11.28-4.58,16.93-6.87l3.58-1.45,1.82-.73c8.83-3.6,17.65-7.27,26.36-11.15a2.31,2.31,0,0,0,2.21-.76h0C655.23,89.18,650.39,87.93,647.75,86Zm-77,36.26c1.16-12.26-2.6-24.35-7.71-35.37-11.64-21.67-11.87-52.27,11.82-58.39a40,40,0,0,1,13.34-.92c15.92,1,24.21,11.27,30.86,23.63C626.56,65.13,632,81.73,643.9,90.94,619.53,101.37,594.13,109.68,570.76,122.26Z"/><path class="cls-2" d="M609.3,123.48c-3.92.17-10.52-3.32-11.25-7.56a4.41,4.41,0,0,1,.39-2.75c1-.83,1.73-.36,2.7.55l.67.66c1.9,1.86,4.78,4.47,11.08,3.11,7.91-3.19,6.46-6.89,5.85-10a8,8,0,0,1-.17-1.32,3.07,3.07,0,0,1,1.64-3,3.84,3.84,0,0,1,3.93,2.18C626.91,110.8,621.17,124.62,609.3,123.48Z"/><path class="cls-2" d="M604,119.51a3,3,0,0,1-.26-.78c-1.23.38-2.67.59-3.65-.36-4.83-4.93,10.16-8,13.22-10.07,2.49-.88,4.87-2.29,7.47-2.71,2.18-.06,3.66,2.85,2.19,4.51a31.38,31.38,0,0,1-3.69,2.87C622.69,117.82,606.05,123.77,604,119.51Z"/><path d="M34.52,1037.52a2.21,2.21,0,0,1-.69,1.43,2.59,2.59,0,0,1-3.6-.41,2.66,2.66,0,0,1-.59-1.4c0-.28,0-.55,0-.83C26.41,863,15.36,690,10.15,516.85q-.08-92.31-2.58-184.66c-.11-10.69-1.1-21.35-.79-32.05,1.46-27.06-3.69-53.88-4.52-80.89-.07-3.15-.6-7.12-.57-10.1,0-3.63.89-5.79,4.44-3.19a18,18,0,0,1,.61,2.29c.78,3.85.55,8,1,11.91C18.35,347.74,12.28,476,18.25,603.8c4.21,117.13,13,234.14,13.89,351.37.68,26.43,1.52,52.91,2.29,79.32Z"/><path class="cls-2" d="M645.56,1046.25h0Z"/><path d="M649.41,858.83h0c0,2.84,0,5.68,0,8.53q-.57,82.23-2.79,164.43c0,1.1-.07,2.2-.1,3.29v.27a45.55,45.55,0,0,0-5.42.85c0-.25.05-.5.06-.74.15-1.71.25-3.24.24-4.47a9,9,0,0,0-.14-1.69q1.71-78.48,2.1-157c0-2.38,0-4.77.05-7.14,0-.12,0-.24,0-.36q.42-72.95.11-145.92v-.46l-.06-16.71c-.29-76.94-.92-153.87-1.37-230.81l0-5.44v-.23q-.28-49.51-.42-99.05v-.14q0-4.59,0-9.16-.17-77.58.43-155.15c0-1.45,0-2.89,0-4.34v-.32c3.65-5.7,4.8.24,5.1,8.43.74,51.12.76,96.26.46,141.38,0,3.25,0,6.52-.07,9.78V357c-.21,27.58-.53,55.32-.87,84.59q.12,11.91.25,23.84v.29l.06,5.29c.88,82,1.94,164.06,2.4,246.1q0,8.34.08,16.68v0Q649.74,796.36,649.41,858.83Z"/><path class="cls-2" d="M642.17,201.76H642c-165.65,3-331.1.35-496.82,1.42l-12.33.08c-17.66-.49-35.37-1-53-.85-24.49.17-48.9,1.54-73.06,5.84l-1.32.23c-1.22,0-2.58.72-3.73.67a1.82,1.82,0,0,1-1.6-.93c-1.16-6.27,9.58-3.69,13.2-5.42,26.32-4.12,52.82-5.12,79.41-5.05,17.15,0,34.32.52,51.49.9,23.93.55,47.84.89,71.66-.44,75.52-1.66,151-.39,226.52,2.79,66.58-.74,133-6.49,199.66-3.58l1,.05C646.09,197.5,644.86,201.91,642.17,201.76Z"/><path d="M646.47,1035.08l-.22.29-5.14.09c-87.81,1.5-175.85,3.55-263.73,1.86-28.14-1.1-56.18-5-84.33-4.08-86.46-.42-172.81,3.87-259.22,5.71l-2.16,0a3,3,0,0,1-1.44-.45,1.68,1.68,0,0,1-.69-.89,2.28,2.28,0,0,1,.08-1.34c.5-1.31,2.26-1.8,3.75-1.79.35,0,.71,0,1.06,0,28.1-.73,56.15-2.85,84.25-2.93,81.28-.36,162.84-7.42,244,.12,20,1.38,39.94.53,60,1.29,69.1.83,138.23-1.37,207.32-1.87,2.45.41,7.4-.12,11.39-.11,2.24,0,4.18.19,5.22.8S647.75,1033.41,646.47,1035.08Z"/><path d="M63.41,951.4c-.72-.11-1.43-.21-2.15-.3-.9-108.22-9.92-216.22-14.62-324.33,0-119.4-6.53-239.26,1.42-358.46.94-7.18-2.3-26,2-30.27a129.89,129.89,0,0,1,24.47.72c2.81,2.17.6,5.1-2.48,4.54-6.42,0-12.84.06-19.26-.2-6.29,123.67-2.79,247.59-2,371.46C54.7,727,64.86,839.2,65.38,951.73Z"/><path d="M597.53,249c-33.27-3.84-67.12-1.29-100.47-3.09-78.83-3.87-157.71-3.8-236.62-3.83-36-.46-72,1.77-107.88,2.1-1.63,1.77-4.72-.53-2.73-2.53.36-2.89,7.17-2.06,9.36-2.36,22.84,1.22,45.27-1.39,68.05-1.68,86.45,0,173-1.16,259.33,3.53C494.27,243.42,616.39,238.19,597.53,249Z"/><path class="cls-3" d="M593.67,250.68c-.42-2.43,2.88-2.36,3.1-.17C597.19,252.94,593.89,252.87,593.67,250.68Z"/><path d="M602.33,575.22c-3.78-.08.35-15.12-.49-18.49,1-82.73,2.52-165.46,2.84-248.19-.39-17.81-4.35-35.38-3.93-53.16.41-2.46-.76-5.95,1.38-7.64,1.88-2,3.53,1.71,2.62,3.31-1.22,18.5,3,36.79,3.79,55.22.3,23.82.42,47.69-.17,71.49-2.25,57.16-.93,114.92-2.18,172.1C605.55,554.51,606.89,575.83,602.33,575.22Z"/><path class="cls-4" d="M607.05,942.32c-4-.82-1.27-10.31-2-13.5,1.75-122.64-5.41-247.37-4.25-369,4-.35,2.8,7.35,3.34,10C604.16,693.07,613.45,821,607.05,942.32Z"/><path d="M59.89,950.47c-4.39-1.66-.27-5.7,3.66-4.34,59.66-1.72,119.41.54,179.06-2.26,118.83-7.11,238-2.83,356.79-5.08,4.87.25,12.27-2.93,11.54,2.4-.38,1.51-2.5,2.64-3.55,1.14C425,943.12,242.42,948.53,59.89,950.47Z"/><path class="cls-4" d="M318.26,67.12C316.79,51.86,311.7,32.69,294.51,29,240.77,17,156.2,16.49,103.88,33.56c-14.69,6.41-18.15,17-19.26,32-.93,15.9-3.5,33.05,3.34,48C98.1,136,124.8,131.69,145,132c15.51.06,31,.93,46.49.27,10.52,16.75,14.29,38.32,18.87,3.12a339.61,339.61,0,0,0,86.31-7.84C323.85,123.56,320.41,87.63,318.26,67.12ZM146,76.5c-.06.44-.13.88-.22,1.32-1.59,8.5-7.51,15.13-12.89,21.62l0,0h0a6,6,0,0,0-.48.43l-.25.25c-2.62,2.72-6.11,8.69-9.46,7.72-7.28-7-16.28-12.85-21.45-21.74-8.31-17,6.51-29.29,21.75-17.64a11,11,0,0,1,8.67-6.08A14.11,14.11,0,0,1,142.88,66,10.5,10.5,0,0,1,146,76.5Z"/><path d="M143.15,288.38c-.57,2.95,1.64,12.58-3.6,10.79-10.39-9.46-19.19-20.64-28-31.57-7,8.66-14.78,16.62-22.13,25-4.48,5.81-6.5,1.33-6.47-3.91-2.26-27.44-1.77-55-2.84-82.52.07-1.05-.24-2.47-.3-3.74-.06-1.58.27-2.93,2.22-3.14a104.76,104.76,0,0,1,10.68-1.52,59.79,59.79,0,0,1,9.56-.09c11.92-.12,23.94.18,35.77-1.41A3,3,0,0,1,141,197.7a2.79,2.79,0,0,1,3.24,1,3.92,3.92,0,0,1,1,2.4c0,.71,0,1.42,0,2.13C144.65,231.56,143.4,260,143.15,288.38Z"/><path class="cls-4" d="M623.22,47.63a30.13,30.13,0,0,1-4.15,3.58C608.82,58.56,594,59.72,583.46,50a25.28,25.28,0,0,1-8.59-21.5,29.9,29.9,0,0,1,1-5.54c4.3-16,21.21-29.22,38.54-19.81,9.61.15,14.75,13.28,16,21.45A26,26,0,0,1,623.22,47.63Z"/><path class="cls-1" d="M198.36,109.3c-3.29,0-7.06-1.28-8.28-4.63-.68-1.66-1.13-5,1.35-5.23,1.77,0,2.38,1.93,2.72,3.35,1.23,2.29,6.82,1.51,9,1.08,7.94-2.74,6.89-13.58,7.86-20.42-8.45,11-23.5,2.55-23.65-9.94C187.73,63,196.62,56.62,206.62,60c9.58.71,8.56,13.1,8.84,20.15C214.92,92.28,215.22,110.66,198.36,109.3Zm4.22-25.65c6.12-1,7.61-8.06,8.1-13.29-.54-6-7.22-6.66-12.07-5.94C188.16,68.17,190.15,85,202.58,83.65Z"/><path class="cls-1" d="M234.78,113.51c-6.19,1.23-13.27-12.13-6-11,2.9,1.8,2.63,6.59,7.29,5.47,10.26-1.5,11-14.66,11.72-22.92-3,8-11.82,7.59-17,2.07-9.48-11.17-.15-28.78,14.49-27.23,5.84.62,7.81,7.57,6.84,12.56C253.53,86.18,254.1,113.75,234.78,113.51Zm5.39-27c4.79-2.18,6.12-8.76,7.41-13.44-.68-4.08-1.61-10-7.14-7.68C230,67.34,227.63,86.32,240.17,86.5Z"/><path class="cls-1" d="M269,113.2c-2.93-.55-7.31-5.93-2.86-7.26,3.36.61,2.87,4,7.11,1.11,6.68-4.57,7.27-10.63,8.11-18.1-3.93,4.46-11.14,3-15.12-.61-5.69-5.93-3.9-15.77.19-22.13C268.57,61.64,283,56,282.89,64c5.17,5.18,4.06,20.1,3.79,27.24-.87,6.15-1.86,13.16-7.05,17.24C276.76,111.1,273.25,114.47,269,113.2Zm6.37-26.6c7.32-1.14,8.94-19.82.7-20.85C267.22,68,262.66,87.53,275.41,86.6Z"/><path d="M401,496.07c-9.4,2.78-31.16-41.73-19-36.64,6.26.53,24.46-9.53,27.47-3.73C414.28,468.17,420.79,494.5,401,496.07Zm-.28-4.83c15.62-2.08,7.84-22.59,5.5-32.55-7.54,1.15-14.46,4.95-22.13,5.47a61.36,61.36,0,0,0,3.8,11l-.07-.13C391.22,480.77,393.75,489.31,400.68,491.24Z"/><path d="M384.07,446.75c-9.57-7.68,16.45-6.66,13.9-19.85-.65-3-8.13-3.79-10.78-4.15-3.86-.68-8.26.2-11.77-1.74-4.24-6.9-6.28-15.19-9.35-22.72-.45-1.16-1-2.6-.17-3.72,3.16-3,4.89,4.57,5.89,6.53,1.93,5.08,4,10.11,6,15.15,8.18.67,19.51-.16,24.06,8.16C406.75,435.83,393.58,444.84,384.07,446.75Z"/><path d="M324.76,442.52c-4.28-.49-13.61-4.36-15.09-8.62-.7-15.47,15.66-25.28,29.74-21.38C366.58,419.45,341.53,443.52,324.76,442.52Zm3.77-5.75c7-.83,12.77-5.69,17.28-10.79,7.48-10.06-29.16-14.73-31.78,5.91A17.39,17.39,0,0,0,328.53,436.77Z"/><path class="cls-2" d="M335.53,432.24c-4.9-1.27-7.47-13.16-1.09-13.33,2.4-2.11,5.12,0,6.88,1.87C345.55,424.56,342,435.27,335.53,432.24Z"/><path d="M340,431.83c-4.67,0-8.82-6.42-7.67-10.78,2.36-9.78,14.45-6.18,15.22,2.46C347.94,427.46,344.27,432.49,340,431.83Zm-1.48-6.32a2.21,2.21,0,0,1,1.15,1.27c2.74,0,3.18-4.11.83-5.16-.74,1.11-2.15.81-3.07.17a3.69,3.69,0,0,0-.11,3.1A10.46,10.46,0,0,0,338.54,425.51Z"/><path d="M396.48,412.3c-3.87-.32-8.83-1.08-10.25-5.3-4.83.82-2.85-9.65-2-12.22,4.26-10.91,20.07-17.78,29.8-9.73,2.68,2.41,9,6.36,7.62,10.4C417.94,406,407.75,413.28,396.48,412.3Zm4.73-5.15c8.73-1.55,12.41-5.2,16.12-13-3.24-3.09-6.74-7-11.49-7.3-9.41-.49-18.95,7.08-18.36,16.93,2.06-.78,2.94,1.68,4.4,2.55A22.48,22.48,0,0,0,401.21,407.15Z"/><path d="M409.65,404.92c-15.95-4.28-1.19-26.66,3.08-18.67C422.4,388.92,419.78,406,409.65,404.92Z"/><path d="M298.44,411.68c-6.36-2.22-.17-9.9,3.17-12.28,3.79-8.45,17.86-12,26-15.48,6.43-1.61,21.67-10.51,21.24,2-1.79,5.2-16.4,10.54-21.41,13.6C318.21,404.36,309.06,410.61,298.44,411.68Z"/><path class="cls-2" d="M299.19,410c-16.19-1.11,3.19-13.88,7.83-17.83,10.67-6.24,21.83-13.21,34.58-13.3,2.65.72,7.54,2.73,5.57,6.2-2.24,2.36-4.4-2.46-8-.57-15.16,2.79-28.88,11.36-40.59,21.13.5.1,1,.2,1.52.25C303.14,404.12,304.17,410.76,299.19,410Z"/><path class="cls-2" d="M505.65,739.21c-3.43-1.82,1.44-13.18,1.53-16.91h0c.44-1.43,2.36-1.15,2.94,0,.74,1.43.19,3.06,0,4.57C509.33,729.29,509.09,740.4,505.65,739.21Z"/><path class="cls-2" d="M505.44,759.43c-.95-2.06,1.38-2.95,2.8-3.78,1.63-.82,3.62-2.79,5-.52s-1,3.21-2.7,4.19S506.44,761.79,505.44,759.43Z"/><path class="cls-2" d="M605.68,800.47c1.47,2,5.54,4.16,4,7a1.73,1.73,0,0,1-2.66,0C597,798.56,604.53,796.48,605.68,800.47Z"/><path class="cls-2" d="M188.57,845.2c-2.19-1.12-8.66-9.37-3.14-9.37,2.22,1.1,2.91,4,4.56,5.78C191.64,842.79,190.82,846.07,188.57,845.2Z"/><path class="cls-2" d="M217.76,722.06c-2.67-1-1.52-4.09.35-5.28,2.43-1.36,5.44-8.79,8.3-6.34,2.91,2.88-5.37,9.4-7.44,11.44v0A1.4,1.4,0,0,1,217.76,722.06Z"/><path class="cls-2" d="M222.21,737.31c-2.17-1-1.63-4.38,1-4.13C227,733.23,226,738.71,222.21,737.31Z"/><path class="cls-2" d="M240.47,812.69c-2.74-2.15-4.95-4.9-7.47-7.28-3-.51-2-5.86,1.24-3.75,3,2.24,5.68,5,8.51,7.47C244.64,810.86,243,814.54,240.47,812.69Z"/><path class="cls-2" d="M379.36,724.64c-11.65-9.15,38.08-6.15,42.42-7.26,9-.12,17.8-1.8,26.73-2.17,2.68,0,6.85-1.55,7.48,2.25.38,4.75-6.21,2.32-9.1,3.11C424.49,723.64,401.77,722.38,379.36,724.64Z"/><path class="cls-2" d="M408.92,785.22c-5.44,0-10.25-.31-15.56-.24-3.78-.37-10.73,1.7-11.15-3.85-2.06-9.76-2.64-19.78-3-29.73,0-9.9-1.89-20.62.83-30.11,1.86-2,4.39.94,3.54,3a302,302,0,0,0,3,55.39,382.19,382.19,0,0,0,66.24-4c2.69-.12,4.22,4.28,1.64,5.53-4.27,1.18-8.82,1-13.2,1.51C430.52,784,419.71,784.82,408.92,785.22Z"/><path class="cls-2" d="M455.53,778.19c-4.28-1.3-1.57-7.24-2-10.51,0-4.46-.32-8.92-.37-13.38.78-2.57-3.14-50.12,4.05-36.11-.51,17.78,1.06,35.68.49,53.47C457.37,773.77,458.81,778.16,455.53,778.19Z"/><path class="cls-2" d="M311.28,789.57c-4.25-.71-1.72-12.83-2.48-16.47,0-15.14-1.81-30.21-2.22-45.36-21.87,1.88-43.44,6.24-65.38,5-2.35-1-1.87-4.91,1-4.51,6.54-.36,13.1-.34,19.58-1.38,14.43-.52,28.56-3.51,42.92-4.18,3-.22,6.32-.53,6.22,3.56.67,11.07,1.43,22.14,2.19,33.2.51,7,.22,14.12.3,21.19C313,783.21,314.89,789.25,311.28,789.57Z"/><path class="cls-2" d="M258,794.91c-22.3-1.5-21.57,4.58-22.09-20,0-13.89-.89-27.79-.26-41.67,0-4.43,1.53-6.13,5.93-4.25,2.53,1.5,1.9,5.08-1.32,4.7-.21,18.58.15,37.22.94,55.78,9.07.09,18.06.86,27.09.07s18.3-1.89,27.44-3c4-.61,8.05-.42,12-.69,2.43-.46,4.18,2.89,2.77,4.77C293.63,792,275.46,794.88,258,794.91Z"/><path d="M326.2,466.62c-2.34-1.22-.94-4.33-1.11-6.41.19-1.88-.23-4.16,1.12-5.67,2-1.77,5.12,2.75,2.72,3.95C328.35,460.7,329.9,467.3,326.2,466.62Z"/><path d="M338.26,461.78c-3.06.14-2.2-10.48-.24-11.27,1.66-.56,2.87,1.48,2.33,2.92C339.6,455.67,341.36,461.4,338.26,461.78Z"/><path d="M354.35,453.77c-2.63-.47-2.49-4.6-1.16-6.25C356.61,445.33,357.63,453.87,354.35,453.77Z"/><path d="M409.23,437c-4.44-.66-.86-14.58,2.45-7.77.16.74-.39,1.42-.43,2.16C410.68,433.15,411.87,436.91,409.23,437Z"/><path d="M420.52,434.36c-2.19-.35-2-3-2-4.71.36-1.76-.79-4.48,1-5.59,2.7-.66,2.94,3.05,2.94,4.9C422.24,430.61,423,434.41,420.52,434.36Z"/><path d="M425.23,423.3c3.27-2.39,3.68,3.57,3.4,5.67-.15,2.32-3.22,1.9-3.61-.09C424.6,427.1,424.37,425,425.23,423.3Z"/><path d="M721.54,496.66c-15.54-2.42-27.42-13-41.71-18.64a95.62,95.62,0,0,0-32.87-7q-2.46-.12-4.92-.12a188.69,188.69,0,0,0-35.17,3.59l-3.94.76c-7.63,1.5-15.14,3.24-22.44,4.94a4,4,0,0,0-.55-1,3,3,0,0,0,.29-.63l.09-.3a.17.17,0,0,1,0-.07,3.12,3.12,0,0,0,0-.86.72.72,0,0,0,0-.25,1,1,0,0,0,0-.24l0-.13a1.22,1.22,0,0,0-.09-.27,2.72,2.72,0,0,0-.56-.93A189.91,189.91,0,0,1,603,469c1.29-.27,2.58-.53,3.87-.77,5.39-1,10.82-1.76,16.27-2.24a152.27,152.27,0,0,1,18.85-.52q2.44.09,4.89.27A121,121,0,0,1,681.12,473q2.63,1,5.21,2.1a2.73,2.73,0,0,1,.31.14,103.83,103.83,0,0,1,13.69,7.25c2,1.23,3.9,2.54,5.81,3.93,64.9,30.46,83-47.15,69.38-95.58C769.17,360,764.77,323.51,739.3,302c-15.28-14.71-40.22-11.81-55.58,1.25a77.73,77.73,0,0,0-13.85,14.66,175.75,175.75,0,0,0-13.49,22.26v0s0,0,0,0c-.09.19-.2.38-.3.57-2,3.72-3.89,7.45-5.86,11.13-.86,1.6-1.75,3.19-2.67,4.75-1.86,3.21-3.84,6.35-5.93,9.38q-2.08,3-4.31,6a116.41,116.41,0,0,1-29.61,27.57c-.87.56-1.75,1.11-2.64,1.64-.37.22-.74.45-1.12.66-.62.37-1.24.72-1.87,1.06l-1.19.65c-1.42-2.19-4.24-2.24-6.65-2.05h0l-.68.05q2.72-1.33,5.28-2.77t5.18-3.09c.79-.5,1.57-1,2.35-1.53l1.53-1c14-9.77,24.66-22.14,33.72-36.28q3.13-4.86,6-10c2.63-4.63,5.14-9.42,7.6-14.34,15.2-35.77,59.44-63.76,91.47-30.17,21,23.42,27.19,55.76,32.7,85.81C791.36,430.45,781.57,509.21,721.54,496.66Z"/><path class="cls-2" d="M568.18,412.61l-.23.11Z"/><path d="M696.92,485.66c-46.29-41.07-62.24-125.46-26-175.72,3.88,2.27-1.56,7.59-2.27,10.6-24,52.45-12.62,120,29.73,159.7C701.69,481.8,701.21,488.15,696.92,485.66Z"/><path d="M657.77,398c-1.36-.08-2.2-1.52-2.32-2.73.68-4.43,8.13-3.65,11.46-5.25,17.14-5.32,34.21-10.86,51.5-15.66,3.79-1.93,6.73,4.51,2.59,5.88C699.69,385.21,679.19,393.57,657.77,398Z"/><path d="M667.23,438.72a3.37,3.37,0,0,1-2.13-4.24c1.15-2.33,4.38-2.59,6.44-3.9,9.43-4.66,18.51-10,28-14.64,7.21-3.69,14.75-6.62,22.13-9.91,3.3-1.58,10.37-6.07,10.07.89-1.18,4.24-18.62,8.94-23.24,11.91C694.5,424.7,681.82,434.79,667.23,438.72Z"/><path d="M729.69,408.61c-8-1.77-12-10.69-13.14-18.07-.26-3.56-3-17.34,3.09-16.38,10,2.63,12.46,16.4,12.87,25.45C732.29,402.53,734.2,408.56,729.69,408.61Zm-2-8.19C727,394,726,387.3,722.13,381.93,722.39,388.34,722.63,395.76,727.65,400.42Z"/><path d="M608.78,395.21c3.67,7.58-40.53,23-47,26-.59-1.36-1.58-3.31-3.21-3.07a2.37,2.37,0,0,0-.27-.28c11.7-5.67,24.51-9.52,35.89-16.24C598,400.7,606.34,391,608.78,395.21Z"/><path d="M654,729.46q-2.26-6.16-4.59-12.31-2.94-7.73-6-15.41c-12.36-31.45-25.79-62.49-39-93.58q-1.86-4.41-3.73-8.81c-5.29-12.54-10.53-25.1-15.62-37.71,7.84-7.52,30.07-29.83,4.82-28.16,2.92-2.59,6.35-6.7,4.17-10.75-3.41-4.17-13.67-1.28-18.4-.28,21.81-13.41,6.18-17.83-9.88-11.47-1.58.66-3.16,1.36-4.73,2.07-7.88,3.57-15.51,7.75-23.09,11.89-2.85-5.42-4.66-11.45-7.44-17-.69-2.09-3.55-3.5-4.64-.93.41,7.18,5.26,14,8.35,20.41l-.21.15a63.63,63.63,0,0,0-11.92,10.8c-5.63-.69-1.26,7.28-.33,10.22,1.2,3.39,2.34,6.79,3.36,10.23,23.06,71.62,45.56,143.69,59.67,217.72-18.69-42-37.51-84-55.79-126.11-10.78-19.77-18.1-42.56-34-59-21.33-8.3-44.16-12.3-66.69-15.93-11.95-2.18-24.85-1.54-36.23-5.76-1.8-12.36-1.4-25-.84-37.42,13.7-5.23,50.14-25.69,54.43-39.47,2.61-50.67-19.38-98.67-33.52-146.37-1.12-2.23-3.08-9.3-5.27-13.18,25.32-8,28.62-50.19-1.44-53.63a39.29,39.29,0,0,0-37.77,14.16c-26.59-8.05-58.46,1.51-76.44,22.66-17-.77-43.38,14.23-53.36,27.86-4,6.69-7.31,14.08-6.89,22-7.61,16-9.93,33.9-8.11,51.49a71.32,71.32,0,0,0,8.86,26.27c.27,8.22,2.54,16.16,5.71,23.71.65,4.83,22.74,39.61,26.95,35.38,0,1.23,0,2.46-.05,3.69-1.93,8.54.57,18.26.41,27.13q.87,19,1.68,38c-47.16,12-93.88,29.53-138.18,50.06-7,3.5-13.67,7.55-20.49,11.33-3.29,2.22-8.69,3.08-9.48,7.59-8,56.07-2.52,113.47,2.6,169.61,4.93,31.5,7.82,63.36,16.31,94.19,2.16,8,3.79,16.3,6.88,23.93,3,2.74,7.57,3.11,11.37,4.21,22.88,3.92,46.41-.41,69.46-.74,27.29-1.37,54.53-2.32,81.66-6,42.22-4,84.6-4.39,126.91-5.75.5,6.31-.86,12.93.86,19a18.57,18.57,0,0,0,.87,2.43,23,23,0,0,0,1.3,2.55c2.58,4.28,5.11,3.59,7-.12a22.32,22.32,0,0,0,1.72-4.88c.24-1,.46-2,.64-3.09a9.55,9.55,0,0,0,1.37,3.09c3,4.49,9.3,6.37,11.22,0a9.48,9.48,0,0,0,.26-1,8.42,8.42,0,0,0,.24,1,9.45,9.45,0,0,0,3.36,4.58,10.09,10.09,0,0,0,.95.66c3.46,1.88,6,1.37,7.83-.79a13.34,13.34,0,0,0,2.3-4.45c1.36-4.09,2-9.76,2.28-15.9.08-1.92.14-3.9.16-5.87,0-1,0-2,0-3.05,0-12.37-.69-24.54.51-28.23h0c.07-.28.13-.54.17-.8a3.74,3.74,0,0,0-.32-2.37l-.11-.19a2.36,2.36,0,0,0-.26-.36,4.08,4.08,0,0,0-1.66-1.16l-.45-.16a10.48,10.48,0,0,0-4.41-.3c-33.58-1.36-67.07-5.32-100.65-7.25,1.69-73.69-4.2-148.08-6.17-221.63,11.07-13.62,20.64-29.25,30.89-43.78,10.17,6,18.83,14.49,30.23,18.51,4.41,2.42,6.21-5.7,7.57-8.54C416,606,421.88,594,426.1,581.33c22.54,3.4,45.24,7.47,66.72,15.24,13.56,15.8,20.74,35.68,30.43,54,13.93,32.76,29,65,43.54,97.55,1.2,2.74,2.4,5.5,3.59,8.26,2.78,6.44,5.6,12.9,8.64,19.22,2.61,5.42,5.38,10.75,8.44,15.91.65,4.85,1.54,9.64,2.26,14.48.57,2.22,3.68,2.74,4,.1-.22-4.91-1.66-9.7-2.36-14.57a4.39,4.39,0,0,0,1.37-3.14,8.8,8.8,0,0,0,0-.89,24.47,24.47,0,0,0-1.05-5.51c-.22-.81-.45-1.62-.68-2.42a39.68,39.68,0,0,1-1-4,10.53,10.53,0,0,1-.19-2C579,715.28,561.42,658.4,545.14,601.53c5.91-1.37,11.3-4.49,17.05-6.37a136.36,136.36,0,0,0,26.53-9q6.21,13.64,12,27.43c1.31,3,2.59,6.09,3.87,9.14q2.46,5.87,4.89,11.76s0,0,0,0c8.34,20.22,16.44,40.55,24.8,60.75,1.43,3.47,2.88,7,4.33,10.41.48,1.42,1,2.83,1.47,4.25a.41.41,0,0,0,0,.08c1,3,2.15,5.93,3.29,8.88,1.87,4.86,3.85,9.71,5.83,14.57a3.65,3.65,0,0,0,.14.35c4.72,11.53,9.51,23.11,13.24,34.88,3.56,11.26,6.16,22.7,6.79,34.44a95.6,95.6,0,0,1-.23,14.14c-.49,2.6-1.11,5.2-1.84,7.81A92.07,92.07,0,0,1,659,845.34a78.08,78.08,0,0,1-9.59,13.47s0,0,0,0h0a63.43,63.43,0,0,1-6,6,57.39,57.39,0,0,1-6,4.58l-.07.05c-.66.32-1.33.64-2,.94q-3.06,1.4-6.27,2.6l-1.07.39-2.16.75-2.19.7c-.74.22-1.47.44-2.21.63a76.06,76.06,0,0,1-12.28,2.37c-1.27.14-2.53.24-3.8.3a55.26,55.26,0,0,1-16.59-1.55c-1.57-.61-3.11-1.29-4.62-2-1-.49-2-1-3-1.5-.5-.26-1-.53-1.48-.8q-1.47-.81-2.91-1.68c-.47-.28-1-.57-1.42-.87-1.91-1.2-3.76-2.45-5.59-3.76-2.74-2-5.4-4.06-8-6.22q-1.94-1.63-3.85-3.32c-1.26-1.12-2.51-2.26-3.75-3.4-.83-.76-1.65-1.54-2.47-2.31q-2.43-2.31-4.82-4.65l-1.18-1.16q-3.24-3.43-6.44-6.89c-2.13-2.32-4.25-4.65-6.33-7-5.21-5.88-10.27-11.88-15.08-18.06-1.45-1.86-2.87-3.73-4.26-5.63-.93-1.26-1.85-2.52-2.76-3.8q-2-2.88-4-5.81-3.93-5.88-7.46-12c.12-15.17,1.11-29.73-.78-44.68-2-3.29-4.22-.55-3.68,2.28-.25,15.5-.12,31,0,46.44,0,6.78.06,13.57.05,20.35-.39,20.47-.56,40.91-.37,61.36q.15,16.63.67,33.31a4.12,4.12,0,0,0,.61,2l0,0a3.14,3.14,0,0,0,1.37,1.2,2.54,2.54,0,0,0,2.88-.35,2,2,0,0,0,.52-.74,3.91,3.91,0,0,0,.14-2.46c-.12-9.86-.3-19.22-.65-29.09-.23-25.48,1-50.95.64-76.42,18.33,28.62,56.58,74.51,89.59,84.2a90.7,90.7,0,0,0,15,.71c1.23,0,2.46-.12,3.7-.21,12.23-1,24.48-4.5,34.29-11.34a49.32,49.32,0,0,0,6-4.9l.07-.07c13.59-14.7,25.3-35.7,25.83-56.06C675.84,782.63,664.17,755.73,654,729.46Zm-386.82-151a2.72,2.72,0,0,0,1.35.9c5.68,7.5,11.73,14.66,18,21.6a10.1,10.1,0,0,0-1.94,1.72c-8.84,6.76-17.17,14.2-25.61,21.45-5.5-12.94-10.79-26-17.72-38.22C249.94,583.68,258.22,579.58,267.13,578.44ZM378,883c24.29,1.61,48.48,4.73,72.8,5.47,0,1.39,0,2.79,0,4.19,0,3.15-.06,6.31,0,9.46.07.56.13,2.06.16,4.18v.2c.05,4.19,0,10.63-.41,16.82a.28.28,0,0,1,0,.09c-.38,6.22-1.07,12.16-2.26,15.29a.11.11,0,0,0,0,.06c-.12.29-.23.55-.35.79-.89,1.75-2,2-3.45,0a16.86,16.86,0,0,1-1.46-2.65c-.17-1.89-.26-3.79-.29-5.68V931c0-2.47,0-4.93,0-7.4,0-.42,0-.85,0-1.27a15.3,15.3,0,0,0-.06-2.71c-.38-2.39-3.63-3.29-4-.43h0c-.85,6.73-2,13.86-5,20a4.41,4.41,0,0,1-2.93-1.82,3,3,0,0,1,.2.29c-2-4.39-1.78-9.4-1.66-14.11,2.31-2-1.68-7.06-3.57-3.78-1.18-.11-1.86,2.78-2.44,6.58-.27,1.76-.52,3.73-.79,5.67v0c-.21,1.48-.42,3-.68,4.31-.2,1.14-.44,2.21-.69,3.15,0,.12-.07.23-.1.35-.09.29-.17.56-.27.81s-.08.22-.12.33a8.75,8.75,0,0,1-.38.87l-.27.45-.15.21a30.83,30.83,0,0,1-1.27-3,10.1,10.1,0,0,1-.56-3.06c.45-11.11.8-16.7-.69-19.35a4.1,4.1,0,0,0-.36-.53,2.29,2.29,0,0,0-.21-.23c-3.41-3.63-13.24,1.14-39.23-.19C376.83,905.12,378.57,893.89,378,883Zm-33-9.33c-43.85-3-88.58-5.08-131.27-15.8-5.09-51.06.17-102.8-.23-154.06-.23-1.62-2.08-3.11-3.62-2.14-1.49,1.16-1.19,3.33-1.41,5-.36,13.53-.51,26.92-1.55,40.59-.29,36.45-2,73,1.19,109.42-3-.7-5.61-1.63-8.85-1.68-3.16.37-2.43,5.26.26,5.85,3.48.56,7.07.77,10.52,1.48a3.08,3.08,0,0,0,.7.4,4.47,4.47,0,0,0,2.22,1.8,8.46,8.46,0,0,0,1.11.36l.57.12c16.28,4.06,33,5.61,49.56,8,36.12,5.39,72.66,6.4,109,9.52a13.21,13.21,0,0,0-.63,3.81c-.05.74-.1,1.47-.14,2.2a.28.28,0,0,0,0,.09c-.33,5.11-.46,10.17-.49,15.26,0,4.08,0,8.15,0,12.27C312.74,916.9,254,925,195,927.59c-22.48-.62-45.87,5.84-67.57-2.31-12.52-39.49-17.22-80.73-22.71-121.62-4.17-53.38-9.51-107.77-1.64-161,41.4-25.39,88.14-40.74,134.16-55.52,6.75,12.84,12.06,26.44,18.09,39.65,1.63,4.75,5.08,2.78,8.16.17.61-.52,1.2-1.06,1.76-1.58l.55-.51.52-.48.5-.46.68-.58c7.26-6.51,15.08-12.48,22.45-18.69,15.75,16.74,32.45,32.76,48.83,48.83C340.1,727.37,346.87,799.88,344.93,873.62ZM341.51,645.9c-1.06-.58-1.74-.18-2.17.82-4.37-4.32-8.78-8.61-13.16-12.89-2.93-2.86-5.85-5.7-8.76-8.57-8.73-8.58-17.35-17.23-25.64-26.2-1.38-1.5-2.75-3-4.12-4.52-.68-.75-1.36-1.51-2-2.27q-3-3.43-6-6.94-4-4.68-7.76-9.51c-.91-19.67-.59-39.37-1.81-59a123.23,123.23,0,0,1,.64-32.48c.72-2.15-.51-5.12-3.08-4.94a29.45,29.45,0,0,1-6.37-.54c-.36-.08-.7-.15-1-.24-.67-.16-1.31-.36-1.93-.57a19.38,19.38,0,0,1-2.61-1.14c-.27-.14-.54-.28-.8-.44-.51-.31-1-.63-1.45-1a14.58,14.58,0,0,1-1.91-1.66l-.56-.6h0a13.15,13.15,0,0,1-1-1.27,14.7,14.7,0,0,1-1.54-2.76A16.29,16.29,0,0,1,248,457.9a19.31,19.31,0,0,1,5.06-8.09l.63-.6h0c.43-.38.87-.76,1.34-1.12h0c.47-.36,1-.71,1.48-1h0q1.17-.74,2.46-1.38h0c.58-.27,1.18-.54,1.79-.79h0c.62-.25,1.26-.48,1.92-.68.33-.11.67-.21,1-.3,6.75,13.89,12,28.78,20.11,41.89,2.36,3.28,6.43-.14,9.12-1.28,2.83-.66,2.63-3.11,1.83-5.41-.09-.25-.19-.5-.28-.74-.35-.85-.74-1.65-1.05-2.29-4.49-12.64-9.52-25.13-14.49-37.64-7.27-18.28-14.4-36.61-19.5-55.56a24.47,24.47,0,0,0,5.35.11c.72-.07,1.45-.16,2.17-.27a33.21,33.21,0,0,0,3.94-.88c.44-.12.87-.25,1.3-.39A56.71,56.71,0,0,0,286,374.54c.48-.32,1-.64,1.43-1,.72-.5,1.43-1,2.13-1.54l1.38-1h0l1.13-.89.9-.74c.44-.36.88-.73,1.3-1.1h0l1.27-1.12h0c.43-.37.84-.75,1.24-1.13,1.94-1.81,3.75-3.65,5.38-5.47l.77-.87c.67-.77,1.3-1.53,1.9-2.27l.87-1.12c19.19,8.15,41.43-4.82,53.61-19.6,13.78,6.6,29.94,3.38,43.7-1.64.37.87.71,1.7,1,2.5.25.59.49,1.18.72,1.74.16.38.3.75.45,1.12l.65,1.63.42,1.06c1.23,3.16,2.31,6.16,3.57,9.83a40.83,40.83,0,0,0-5.06.79l-1.12.25c-2,.46-4.14,1-6.35,1.73l-1,.33c-1.26.41-2.54.85-3.82,1.32l-2.15.81c-2.4.94-4.77,2-7,3-1.33.64-2.61,1.31-3.81,2a45.08,45.08,0,0,0-3.92,2.44c-.5.34-1,.68-1.42,1a18.59,18.59,0,0,0-2,1.76l-.35.35c-.22.23-.41.47-.6.7s-.27.59-.38.87c-.24.57-.44,1.09-.6,1.6a11.07,11.07,0,0,0-.6,3,3.79,3.79,0,0,0,1.14,3.11c4.69,4.18,22.48-4,28-5.93.23-.12.51-.25.82-.38l.41-.17c1.13-.46,2.67-1,4.28-1.6l.45-.17.15-.05.39-.15a30,30,0,0,0,5.81-2.78c.2-.14.39-.28.56-.42h0c.18-.15.34-.29.48-.43a2.18,2.18,0,0,0,.74-1.61l.57-.28c2.84,10.12,6.12,20.22,9.43,30.36l0,.12c5.84,17.88,11.73,35.84,15.33,54.12A163.25,163.25,0,0,1,441.57,491l-.52.79c-4,5.89-9.55,11.25-15.9,16.06-.79.59-1.58,1.18-2.39,1.76a169,169,0,0,1-27.33,15.47c-2.45,1.13-4.83,2.17-7.13,3.15l-.79.32c-.1.63-.18,1.26-.27,1.89a119,119,0,0,0-.92,17.12v.13a236.1,236.1,0,0,0,1.93,24.78.43.43,0,0,0,0,0c.21,1.75.44,3.5.67,5.24C372.06,599.72,357.13,623,341.51,645.9Zm75.78-55.46c-1,2.14-2,4.31-2.88,6.6-1.42,3.46-2.82,6.93-4.24,10.39-2,4.83-4,9.64-6.05,14.4-10.21-4.28-17.86-12.66-27.87-17.27,6.86-8.88,13.14-18.22,19.72-27.29,8.18,1.81,16.58,2.36,24.87,3.41A47.64,47.64,0,0,1,417.29,590.44Zm125.82,4.84c-6.1-17.34-11.22-35-17.81-52.19,7.18-7.93,16.5-13.37,26-18,8.68-4.56,17.54-9.19,27.23-11.17-1.21,1.16-6,4.08-10.83,7.43l-1,.67a65.2,65.2,0,0,0-6.11,4.84l-.71.68a18.33,18.33,0,0,0-1.62,1.79c-.17.23-.34.45-.49.68a5.59,5.59,0,0,0-.69,1.32,2.34,2.34,0,0,0,.63,2.82,4.88,4.88,0,0,0,1.41.79c10.06-4.36,19.94-10.2,31.36-9.5a22.54,22.54,0,0,1-4.25,4.79l-.34.3a61.38,61.38,0,0,1-8.77,5.85c-.79.46-1.58.92-2.34,1.38s-1.83,1-3.13,1.57l-.07,0a27.09,27.09,0,0,0-4.85,2.77,4.62,4.62,0,0,0-1.44,1.67,1.67,1.67,0,0,0,.19,1.67,5.06,5.06,0,0,0,1.82,1.45h0c1-.33,2.08-.73,3.11-1.15h0c4.39-1.81,8.78-4.24,13.29-5.89l1.38-.46a22.31,22.31,0,0,1,11-1.06h0a3.33,3.33,0,0,1,.55.1l.54.12c-3.3,9.13-13.06,14.14-18,21.71,1,6.89,4.32,13.38,6.85,19.85C571.82,585.45,557,588.93,543.11,595.28Z"/><path class="cls-4" d="M580.49,480.22c1.78,7.92-49,20.67-57.38,25.37-3.24.51-15.2,7.36-14.56,1-6.46,1.64-21.31-53.48-21.34-61.1.26-8.08,45.08-18.93,53.92-23.13,4.21-.26,15.14-7.21,17.44-4.22,8.66,5.22,8.06,28.35,12.72,37.93.17,1.61,4.35,11.66,6.29,19,2.36-.78,3.5,2.39,2.36,4.15A3.71,3.71,0,0,1,580.49,480.22Z"/><path class="cls-4" d="M535.33,528.31c-3.49-.69-7.36-13.69-9.73-17.29-.87-2.86-3.81-5.75-2.9-8.82.88-1.6,3.07-1,3.81.39a195.07,195.07,0,0,1,20.37-9.89c5.09-2.51,6.42,5.9,8.75,8.82,1.66,3.33,3.92,6.37,5.29,9.82.73,2.77-.95,3.39-3,4.27-2.65,1.43-4.65,2.69-7.13,4.08C545.4,522,540.6,526.14,535.33,528.31Z"/><path class="cls-2" d="M497.32,918.62a2.77,2.77,0,0,1-1.56-4.9c-.09-3.24.17-6.57,0-9.82.07-2.67,2.73-3.33,4-1C500.89,905.85,502.24,918.82,497.32,918.62Z"/><path class="cls-2" d="M457.58,923.57c-2.88.5-6.51-1.22-4.81-4.58.7-1.27,2.12-1.27,3.4-1.26,13.4-.37,26.77-1.26,40.15-1.7,0-2.22-.5-4.51.13-6.68.91-3,4.4-2.49,5,.42,0,3.27,1.69,12-3.1,12.15C484.82,923,471.15,923.08,457.58,923.57Z"/><path class="cls-1" d="M406.43,386.86c-5.46,5.34-5.92,15,2.26,17.83-4.79,2.47-14.45,4.74-18.63-.23a2.54,2.54,0,0,0-2.58-.72C386.87,393.7,396.85,386,406.43,386.86Z"/><path class="cls-1" d="M335.53,432.24a5,5,0,0,0,3,.41c-7.05,5.55-18.21,5.93-24.54-.76,1.38-9.58,10.9-15.07,20.05-14.46a7.56,7.56,0,0,0-1,1.51C328.61,421.88,330.79,430.49,335.53,432.24Z"/><path class="cls-1" d="M408.79,468.5c1.68,8,3.56,22.17-8.11,22.74-6.94-1.93-9.46-10.47-12.9-16.24l0,.06a61.59,61.59,0,0,1-3.76-10.9c7.67-.52,14.59-4.32,22.13-5.47C407.1,461.94,407.91,465.23,408.79,468.5Z"/></g></g></svg>