<svg xmlns="http://www.w3.org/2000/svg" viewBox="0 0 798.73 1384.28"><defs><style>.cls-1{fill:#f7941d;}.cls-2{fill:#231f20;}.cls-3{fill:#fff;}</style></defs><title>imagen 3</title><g id="Capa_2" data-name="Capa 2"><g id="Capa_1-2" data-name="Capa 1"><path class="cls-1" d="M558.41,1383.87c-43.09.3-86.09-2.4-129-5.82-26.78-.92-53.59-.84-80.34-2.66-48-1.11-96.38-10.16-144.34-5.69-103.35,17.6-104.57-43.31-96.09-126.11,2.75-41.3.92-82.75,3.62-124.06h0c0-.24,0-.48,0-.72v0c1.33-6.41-1.17-14.66,3.23-19.9,2.16-49.93,4.57-99.86,8.91-149.64,3.54-20.67,3.93-41.78,8.23-62.32,8.35-25.19,15.55-52,30.46-74.2-3.36-5.36,2.08-9.74,6.12-4.2,2.44-.75,4.27,1,4.7,3.29,9.86,6.62,21.43,9.8,32.23,14.47,7.79,3.41,12,4.61,9.93,14.57-1.67,4.19-6.77,3.47-9.94,5.77-3,10,3.51,20.4,8.65,28.62,11,14.52,13.73,33.58,25.74,47.37,19.3-5.67,35.82-18.09,55.08-23.85-4.29-11.71-9.5-23-14.66-34.37-2-13.11,9.47-8.2,16.65-5.13l-.06,0c15.13,4.54,30.45,8.52,46,11.54,39.08,11.12,78.22,24.35,119.15,26.31,21.4-.51,42.37-11.82,57.46-26.57,9.3-10.84,10.79-26.45,12.21-40.16,0,.08,0,.16,0,.24,0-.14,0-.27,0-.41v.06s0-.09,0-.13h0v0c1.39-6.32-2.61-18.64,6.56-19.68,7.93-20.48,21.27-37.85,31.83-56.9,10-19.35,20.86-38.36,29-58.56,8.84-22.87,17.48-45.8,25-69.15,12.72-33,27.44-65.15,39.65-98.3l-.27.78c8-30.7,28.28-62.81,10.72-93.73-11-27.69-30.28-50.69-50.7-72-29.92-35.16-67.37-63.7-105.74-89.08-21.84-13.71-49-20.73-66.51-40.31-1.87-8.65,8.72-18.44,12.78-25.82,13.42-21.27,25.54-43.37,38.34-65,3.12-29.75,64.2,36.86,73.14,43.76,28,26.19,57.66,50.58,85.34,77.12l-.39-.41c29.73,32.74,59.44,65.28,91.84,95.44l-.52-.54c24.37,26.39,44.14,60.7,46.17,97.18,1.35,23-6.81,45-12.09,67.1-8.84,37.78-23,74-34.76,110.93-11,28-25.37,54.49-36.32,82.5,4.06,5.16-2.71,10.61-4.34,15.51-3.46,8-7,15.85-11.19,23.43C683.4,799.94,652.25,838,633.56,882.39l0,0-.44,1.28s0-.08,0-.11c-6.72,21.27-17.3,41.18-22.87,62.85-1.43,13.47-1,27.1-2.55,40.59,0-.3,0-.59.07-.89-1.55,23.61.19,48.07-7.72,70.75-5.75,15-14.62,28.46-22.61,42.35-4.86,9.09-4.15,19.45-5.37,29.37-4.79,40.91-2.13,82.28-1.17,123.35,4.06,39.26,8.6,78.69,4.65,118.18v0C575.88,1383.71,570.89,1385.25,558.41,1383.87Z"/><path class="cls-1" d="M232.61,230c-13.18-7.51-8.52-26.54-15.27-38.35C207.36,176,186,168.2,183.2,147.8c-8.67-52.15,62.55-74.88,85.41-27.23,9.53,24.31-8.39,34.58-12.79,54.33-1,14.74,9.75,33-.92,45.68C248.94,226,241,230.8,232.61,230Zm3.6-10.85c32.62-.46.67-38.55,15.86-59.8,6.7-11,13.18-25.45,4.65-37.27-6.89-8.65-17.26-16.91-28.86-16.24-23.56-2.59-42.5,23.76-33.06,45.36,6.68,16.28,26.28,23.38,29.86,41.25C235,192.33,229.75,212.91,236.21,219.18Z"/><path class="cls-1" d="M231.29,224.15c-2.2-5.83-3.73-16.67.08-22-3.89-12.6-4.8-26.16-9.43-38.5-15.14-7.37-22.37-42.09-2-30,.51-5,5.93-8.83,10.15-5a5.89,5.89,0,0,1,10.3-.35c4,8.15-.19,17.89,1,26.64,1.3,14,3.73,27.95,5.89,41.87,1.24,6.9,5.79,30.59-7.87,22.94a1.54,1.54,0,0,1-1-.16C239.52,223.53,234.21,227.48,231.29,224.15Zm8.39-18.85c-1.69-19.64-6.12-39.25-4.83-59a1.94,1.94,0,0,0,0,.24l.15-2.22,0,.52.19-2.65,0,.51c.09-1.28.19-2.57.28-3.87,0,.12,0,.24,0,.36,0-2,.57-4.36-.35-6.25-.67,2.89.45,7.3-3.43,8.2-3.72.63-3.67-4.12-5.51-6.16-.58,3.85,1.06,13.26-5.59,11.13-2.5-1.74-2.62-5.54-5.61-6.86.69,12.18,12.74,13.68,15.47,23.8C234.56,176.68,232.76,193,239.68,205.3Z"/><path class="cls-1" d="M143.57,167.59h0c-7.05-4.53,13-9.34,16.15-9.46,5.2,0,4,8.38-.8,8h.12C153.79,165.7,148.72,167.15,143.57,167.59Z"/><path class="cls-1" d="M164.92,125.63c-3-1-23.7.68-19.35-4.74,6.24-2.17,13.76-1.47,20.44-2.17C170.16,119.24,168.82,126,164.92,125.63Z"/><path class="cls-1" d="M184.4,93.13c-2.42-3.42-3.19-7.69-5.12-11.37l.12.23c-.44-.87-.87-1.74-1.34-2.59-3-2.28,1.13-4.7,3.1-1.45,2.4,4.47,11.29,10.1,7.2,15.36A2.76,2.76,0,0,1,184.4,93.13Z"/><path class="cls-1" d="M221.47,77.52c-4.3-3.36-.43-10.07-.87-14.69v.05c1.66-4.92,3.53,5.86,4.19,7.12l0-.06c0,.13.09.25.13.38v0C226.57,73.2,225.87,78.7,221.47,77.52Z"/><path class="cls-1" d="M254.92,84.84c-2.65-.32-1.9-4.46.39-4.57,5.25-4.3,8.77-11.34,14.84-14.27,6.29.41,2,6.76-1.41,8.38l.06,0C264,77.42,259.94,82.45,254.92,84.84Z"/><path class="cls-1" d="M280,112.66c-3-1.83,1.58-4,3.09-5,3.85-1.86,6.9-5.61,11.09-6.55,5.1-.53,4.94,7.67,0,7C289.45,109.66,284.76,112,280,112.66Z"/><path class="cls-1" d="M294.63,155.53c-2-.47-15.18-1.13-10.33-4.76l-.16.09c3.88-1.49,8.38-4,12.59-2.85C300.46,149.59,298.5,155.93,294.63,155.53Z"/><path class="cls-1" d="M267.57,323.51c-3.12-14.44-14.7-27-25.87-36.54-14.79-11.7-33.42-16.36-50.34-24.07-29.92-11.25-60.45-22.14-86.05-41.88-24.62-19.54-47.16-48.48-46.08-81.36,1.21-59.82,48.86-115.25,105-132.57C219-7.87,281.68.83,328.55,33.27c23.13,19.66,28.2,51.84,26,80.65v-.18c0,.24,0,.48-.05.72v-.1c-3.76,39.93-27.26,75-47.32,108.68-16.2,22.29-30.88,48.13-32.87,76.1,0-.05,0-.1,0-.15-.88,7.1.18,14.19,1.11,21.24C276.37,324.66,269.62,328.35,267.57,323.51Zm-112-87.1c37.42,17.91,90.52,26.37,109.67,67.13.38-25,11.19-48.74,23.7-70a1.3,1.3,0,0,0-.1.15,464.29,464.29,0,0,0,35-57.86c14.17-25,24.48-52.68,21.7-81.86v.06c0-.1,0-.21,0-.31l0,.58v-.17c0,.18,0,.36,0,.54l0-.37v.11a105.19,105.19,0,0,0-2-16.5l.12.67C338.78,52,319.55,35.19,295.12,26.09,264,12.22,229.4,8.24,195.68,11.25c-59,4.53-111.17,51.31-124.11,108.66C58.89,175.08,110.06,216.89,155.56,236.41Z"/><path class="cls-1" d="M379.17,639.26c-21.63-9.28,24.28-42.6,36.19-37.89C438.16,611.41,391.87,646.76,379.17,639.26Z"/><path class="cls-1" d="M476.69,594.69c-14.29-15,22.38-34.6,35.11-31.45C532.28,574.15,488.57,604.81,476.69,594.69Z"/><path class="cls-2" d="M92.19,1130.48c-15.75.81-27.83-10.93-36.07-23.09-11.41-16.08-12.91-36.44-12.29-55.55v.13c0-.44,0-.87,0-1.31v.12c0-.34,0-.7,0-1v.23c3.62-26.06-12-28.94-29-42.3C-.87,992.45-3.57,968.15,4.19,948.29c12.94-33.27,52-37.2,58.24-74.93,3.42-20.89,1.13-42.47,6.34-63.17,6.68-34.77,33.3-61.18,64.68-75.49L133,735c22.78-11.92,42.66-28.52,56.3-50.51,10-12.61,17-27.4,16.46-43.81,2.1-42.54-12.11-87.2,5.75-127.69,3-7.58,11.73-33.77,21.52-30.89,33.73-34.1,84.65-38.87,129.88-44.84,24.2-3.2,48-8.88,72.2-11.8,31.72-3.77,66.77,2.09,92,22.67,28.13,24.24,31.3,64.87,34.62,99.54.37,35.29,6.06,62.66,39.26,81,5.25,3.82,14,5.51,15.44,12.64,9.07.7-6,38.95-8.25,44.9l.22-.52-1.1,2.59.22-.51a804.2,804.2,0,0,1-42.31,86.74h0l-.69,1.17v0c-4.45,8-10.07,15.29-14.2,23.47-3.87,6.05-6.77,15.11-13.7,17.94-8,10.66-39.27,24.91-52.32,18.33-13.61-10.22-8.76-30.88-12.24-45.74,0,.23.06.47.08.7-.06-.58-.13-1.16-.19-1.73,0,.23,0,.46.08.69-.74-15-2.4-46,7.83-57.13,9.46-.89,19.33,1.75,29,.42h0c8.57-2.11,36.72-4.39,32.88-17.09-2.61-15.31-4.22-31.37-11.94-45.15a13.26,13.26,0,0,1-1.68.4C523.88,675.87,514,676.39,508,680c-19.75,7.33-43.48,11.37-63.38,2.75C434.78,678.05,420,668.77,423.5,656c1.88-3.26,6.29-3.18,9.49-4.31,10.2-2,20.25-4.53,30.34-7,25.49-7.12,50.95-15.1,75.55-24.82-9-16.7-15.51-34.91-23-52.39l.15.39c-1.81-4.48-3.81-8.89-5.6-13.39l.06.17c-5.24-16-13-30.73-21.62-45.1-4.75-9.76-9.8-19.37-16.88-27.69l.28.37-.89-1.15h0c-25.4-38.66-87.19-14.47-122.3-2.3l.08,0c-19.28,6.57-37.38,20.14-58.51,18.83,14.58,24.23,9.31,53.15,5.5,79.6-2.19,19.3-3.6,38.87-1,58.19,0-.16,0-.33-.05-.49-.22,16.24,16,29.37-1,32.36l.44-.25c-11.85,8.07-15.7,31-3.24,40.05l-.38-.25c9.74,7.53,22.3,5.21,33.71,6.25l-.48,0c12.25,3.64,14.25,59.89,14.9,72.52.59,10.21,1.35,20.41,2.45,30.57,0,4.9,5.18,16.54-3.34,16-22.87-15.34-47-28.79-73.55-36.86-36.42-17.15-79.49-18.4-101.79,20.55-34.81,52.48-28.27,119.12-37.07,178.88,0-.16,0-.33.08-.5-4.27,31.54-8.63,63.17-10,95-1.18,12.35-1.49,24.95-2.73,37.2C108.45,1132,98.86,1129.44,92.19,1130.48Z"/><path class="cls-2" d="M567.33,1108.27c-5.83-.5-3.22-7.51.82-8.88,5.29-2.92,9-7.75,13.55-11.65h0c24.88-23.19,11.95-96.21,19.24-130.13l-.09.6c6.35-37,27.16-69.45,45-101.81,9.87-19.92,19.32-40.07,28.88-60.13-.09.2-.18.4-.26.61,3.69-9.25,8.08-18.18,12.06-27.3h0c.07-.18.16-.37.24-.56l0,.07c.07-.18.15-.35.22-.53l0,0c9.51-23.49,18.81-47.17,29.63-70.06-1.91-2.16.15-6.18,3.07-4.65,6.16,6,12.1,12.51,17.84,19C745.14,723.09,752,734.25,754,747c13.36,62-55.27,84.42-43.06,157.29v-.12c3.57,25.51,8.29,51.51,4.9,77.29-6.62,43-29.17,82-69.27,101.24l.12-.07-.2.12-.19.1h0l-.07,0,0,0-.07,0h0c-12.2,8-26.19,12-40.12,15.76-5.11.73-11.33,6.16-16.12,3.22C582.12,1102.81,574.89,1106.44,567.33,1108.27ZM708.57,941c-.1-1-.2-2-.31-3v.13l0-.24C708.35,938.9,708.47,940,708.57,941Z"/><path class="cls-2" d="M236.81,932.38c-4.54-22.79-27.25-37.36-34-59.52-2.44-7.81-6-16.31-4.25-24.57,2.21-8.31,12.92-13,18.55-5-1.85-10.91,11.73-27.58,19.51-12.89.88-9.77,12.17-20,19.36-9,7.63-11.76,20.68-2.18,21.78,8.94a106.46,106.46,0,0,0,11.41,34.83,168,168,0,0,0,12.39,23.28c3.36,4.77,9.41,14.79-.05,16.38-4.15-.16-4.87-5.21-6.87-8-8.27-12.9-14.13-27-19.8-41.22-5.12-9.26-.23-27.11-10.48-32.15l.16,0c-4.29.21-4.44,5.34-4.84,8.59-.46,2.92-4.43,4.67-6.29,1.93-1.21-4.89-4.59-16.18-10-7.43-3.16,4.34-.64,13.94-5.34,15.8-5.27-.63-4-9.09-7.77-12.08l.24.22a5.69,5.69,0,0,0-.7-.6l.27.18a2.87,2.87,0,0,0-1.36-.59l.31.08c-10.7,2.1-6.65,16.3-6,23.89-.6,3.09-4.42,3.34-5.82.68-19.84-25.08-8.6,18.59-2.42,26.66,9,15.7,23.88,30.61,25.37,49.24C241.06,931.89,238.09,934.74,236.81,932.38Z"/><path class="cls-2" d="M450.55,229.56c-45.74-9.21-33.6-43.89-.4-61,8.41-6,30.67-9.26,25.5,7.29-3.77,5.89-10.48,9.17-15.63,13.72,4.24,0,17.46-5.07,17.35,1.79-.86,5.83-8.28,2.54-12.28,3.61-4.69.66-17.74,3.39-12.94-5.37,5.54-6.37,14.11-9.47,19.66-15.78l-.18.31c1.8-16.67-53.07,17.27-42.2,34.73,4.31,10.58,17.38,11.78,25.21,18.75h0C456.15,230.26,452.16,230.56,450.55,229.56Z"/><path class="cls-2" d="M426.28,195.29h0l.1.06a1.17,1.17,0,0,0-.39-.15h0l-.16,0h0c-11.21-3.37-25.58-9.84-27.73-22.65-1.08-11.49,10.91-15.86,20.49-14.94-11.92-15,10.33-27,23.71-23-6.26-12.51,12.41-16.21,19.93-9.54-.93-12.08,15.67-5.26,21.91-2.82l-.36-.16c4.59,3,34.93,14.13,21.74,20.27a3,3,0,0,1-2.68-.95c-6.23-6.19-14.69-9.87-22.32-14.08l.36.16a37.3,37.3,0,0,0-12.68-3.24c.72,3.46,4.15,11.18-2.28,10.55-5.19-4.2-11.37-9-18.34-5.83,1.05,4,6.39,6.81,5.57,11.45-.41,2.37-3.51,4.06-5.29,2.05v0c-7.36-2.66-15.91-3.9-22.77.72-2.18,1.34-5.51,3.28-3.81,6.22,1.14,4.51,8.56,9.16,4.62,13.81-5.35,1.87-11.95.34-17.52,2.29-13.06,10.25,12.19,22.08,18.87,28C428.78,193.89,427.48,196.25,426.28,195.29Z"/><path class="cls-2" d="M471.08,621.42c-6.62-.32-13.09-2.09-19.48-3.72l.43.11c-9.62-.15-7.57-9-2-8.13a92.86,92.86,0,0,0,10.86,3.75l-.4-.1,4.67,1.21-.05,0c27.14,6.78-13.48-20.94-17-27.19-10.74-11-21-23.89-26-38.53.17-8.36,24,26.48,27.88,28.11,9.54,10.25,21.53,18.6,29.63,30C483.59,613.28,478.67,622,471.08,621.42Z"/><path class="cls-2" d="M450.36,565.06c-3.66-1.3-7.66-5.19-5.05-9.18-5-24.34,27.87-41.14,47.78-31.07,7.77,13.59-7.09,29.27-18.61,35.55l0,0C467.59,565,458.54,567.86,450.36,565.06ZM461.58,558c13.21-2.25,30.67-13.21,28.67-28.51-16.85-5.45-41.93,4.6-41.68,24.58C453.73,556.83,454.56,558.78,461.58,558Z"/><path class="cls-2" d="M347.61,596c-5.37-1.26-21.71,2.44-22.5-4.41-2.7-2.08-.84-6.68-.21-9.49,4.05-14.7,19-22.89,33.47-24.07,14.43-2.89,28,4.6,38.88,13.28,3.6,4-2.26,8.62-4.93,11.43C380.59,594.44,363.45,596.31,347.61,596Zm9.55-7.22c13.1.11,26.63-3.06,35.33-13.58-7.09-2.77-13.2-7.75-20.57-9.79-17.23-3.6-39.76,3.06-44.24,22C337.42,587,347.34,588.9,357.16,588.73Z"/><path class="cls-2" d="M356.81,583.41c-14.19-4.21-5-26.7,8-20.16C378.08,569.55,369.41,585.93,356.81,583.41Zm3.38-8.59c-.12-.07-.24-.19-.4-.13Z"/><path class="cls-2" d="M465.55,547.93c-12.55-3.32-8.71-21.29,3.91-19.93C485.29,529.51,479.21,550.27,465.55,547.93Z"/><path class="cls-2" d="M356.78,603.21c-1.43-.63-8.27-.17-7.23-2.23,3.32-1.1,7.09.14,10.58-.4h0c3.87-.2,7.49-1.64,11.09-2.94C378.83,601,359.25,604.36,356.78,603.21Z"/><path class="cls-2" d="M473.85,566.57h0c-2.2,0-1.07-3.71.74-2.5,4.94-2.45,9.06-6.15,12.82-10.14a1.67,1.67,0,0,1,2.26-.31C492.62,558,477.82,567.47,473.85,566.57Z"/><path class="cls-2" d="M378.08,635.22c-2.13-1.45,4.18-19.42,4.66-12.12v0a1.45,1.45,0,0,1-.59,1.5C380.61,626.71,382.06,638.28,378.08,635.22Z"/><path class="cls-2" d="M390.3,633.26c-4.06-.9,1.23-16.93,3.86-16.48,0,4.54-2.65,9.11-1.86,13.85A2,2,0,0,1,390.3,633.26Z"/><path class="cls-2" d="M405.58,627.93c-4-3.53-.51-15.35,2.91-18.57,1.59-.45,2.11,1.91.89,2.66a26.67,26.67,0,0,0-1.45,10.88C408.64,624.92,408.67,628.57,405.58,627.93Z"/><path class="cls-2" d="M483.17,593.17c-4.83-.38.35-18.56,3.75-18.24,2.52,2.32-2.91,7.62-2,11.2v-.27C484.33,588.24,486.73,592.63,483.17,593.17Z"/><path class="cls-2" d="M494,585.79c-3.29-1.68,2.9-17.61,5.89-15.56a.8.8,0,0,1-.51,1C496.42,574.34,498.41,587.74,494,585.79Z"/><path class="cls-2" d="M505.64,581.94c-.84-4.84.26-11.81,3.69-15.51.7-.16.8.92.2,1.09v0h0a3.34,3.34,0,0,0-.33.62l0-.09a20.55,20.55,0,0,0-1.18,7.3.28.28,0,0,0,0-.09C507.82,577.24,509.41,583.78,505.64,581.94Z"/><path class="cls-2" d="M456.3,532.35c-.46-2.15,1.13-4.67,1.42-6.91,0,0,0,.11-.05.17,1.62-6.59,3.76-13.15,4.14-20a1.58,1.58,0,0,1,1.23-1.26c4.6,1.84-4.15,22.43-5,27.17h0l-.06.15,0-.05C457.75,532.32,456.91,533,456.3,532.35Z"/><path class="cls-2" d="M467.28,524.34a13.56,13.56,0,0,1,.74-2.81c0,.05,0,.1,0,.15,1.42-5.83,2.86-11.7,2.72-17.71a1.82,1.82,0,0,1,1.66-1.49c2.77.64.75,4.61.84,6.57v0C472.64,511.27,470,526.47,467.28,524.34Z"/><path class="cls-2" d="M477,521.63a.82.82,0,0,1,0-.35h0a15.18,15.18,0,0,1,.44-1.6.14.14,0,0,1,0,.06,41.21,41.21,0,0,0,.94-4.52h0c.06-.42.12-.83.19-1.24v0l0-.22v.07c1.17-2.61-.95-13.73,4.25-10.21C483.57,505.42,479.85,524.75,477,521.63Z"/><path class="cls-2" d="M321.21,579.44c-3.52-.94-15-1.21-14.35-6,1.8-4,11.47,3.08,15.41,2.8C332.94,575.73,328.25,579.76,321.21,579.44Z"/><path class="cls-2" d="M328.14,572.07a46.63,46.63,0,0,1-9-1.48h0a39.43,39.43,0,0,1-6-2.26h0c-2-.4-3.17-3-1.09-4.18,2.23-.4,4.19,2,6.32,2.54l-.2-.09a36.68,36.68,0,0,0,5.23,1.8l-.11,0,.19,0h0l.67.17-.19-.05c3.36,1.41,8.23.77,11,2.69C333.49,572.93,330.17,571.84,328.14,572.07Z"/><path class="cls-2" d="M343,565.51c-7.9-1.48-15.82-3-23.7-4.56-2.87-1.14-1.45-5.94,1.55-5.5,7.74,2.23,15.34,5.3,23.22,7.1C346.09,563,344.84,566.51,343,565.51Z"/><path class="cls-2" d="M303.57,546.88c-3.32-6.48.81-15.38,3.06-21.89,6.38-17.11,27.55-23,44.25-21.42,3.46-.14,14.61,5.64,7.16,7.94a24.92,24.92,0,0,0-13.22-1.89l.41,0a55.72,55.72,0,0,0-8.14,1.12l.43-.1c-9.19,2.58-20.16,5.55-24.81,14.7a.75.75,0,0,0,.07-.12l-.31.53.24-.4a53,53,0,0,0-6.43,17.78,2.06,2.06,0,0,1-.23,2.8l0-.07A1.89,1.89,0,0,1,303.57,546.88Z"/><path class="cls-2" d="M415.62,505.21c-5-15.43,6.55-35.34,22.56-38.81,5.07-.63,10.84-2.84,15.69-.54a2.59,2.59,0,0,1,1,3.14c-1.37,3.16-5.78,1.24-8.45,2.6l.41-.09-4.62,1.1.32-.07c-14.77,2.56-24.61,17.27-24.42,31.71h0C417.7,505.28,416.55,506,415.62,505.21Z"/><path class="cls-3" d="M159.13,1285.68c-3.74-.59-2.84-5.52.13-6.67,4.61-4,7.05-10,9.93-15.25,12.55-23.42,18.85-49,22.86-75.17,11.59-55.29,21.93-110.82,32.22-166.37,4.1-23.59,9-47,12.35-70.74.61-2.17.71-7.42,3.75-6.09,1,7.49-.82,15.48-.92,23.11l0-.41c0,.5-.08,1-.11,1.51v0c-8.72,78-26.54,154.56-41.82,231.39l0-.13q-.53,2.58-1.06,5.16l0-.11-.21,1,.09-.41c-3.63,13.12-5.9,26.87-12.11,39.09.07-.16.15-.32.23-.47-.2.39-.39.78-.58,1.17l.23-.46C176.12,1258.61,173,1278.08,159.13,1285.68Z"/><path class="cls-3" d="M235.74,1356c-5.12-3.79,7.95-15.38,9.41-20.43,8.28-14.23,13-30.12,18.53-45.52l-.06.2.18-.53a1.55,1.55,0,0,0-.08.23c22.72-68.53,42.6-138.57,48.21-210.82,6.3-55.16,7.8-110.8-.45-165.86-1.45-.56-.54-3.15.93-3,7.44,1,7.92,26.67,10,33.45,7.79,56.59.8,113.84-5.95,170.18-7.59,53.71-21.77,106.25-39.29,157.55C271.23,1288.39,251.47,1352.64,235.74,1356Z"/><path class="cls-3" d="M485.72,1119.05c-5.36-.31-25.25-1.54-25-8.45l-.09.27c.26-1.2,1.85-2.12,2.88-1.27,10.06,3.52,21.15,3.19,31.6,1.77l-.43.06a127.23,127.23,0,0,0,19.33-4l-.06,0A156.72,156.72,0,0,0,543.74,1095l-.16.09.42-.23-.25.14c7.74-5.32,11.48,4.17-2.66,9.56C524.12,1113.51,505,1119,485.72,1119.05Z"/><path class="cls-3" d="M353.82,1107.1a69.15,69.15,0,0,1-22.74-5.56l0,0-1.28-.61h0c-1.6-.81-7.36-3.17-3.34-4.59v0c13.06,4.85,27.15,7.26,40.85,3.49a2.48,2.48,0,0,1,2.95,2.19c-.66,6.36-10.79,4.21-15.45,5.07h-1.06Z"/><path class="cls-3" d="M453.79,941.27c.22-4.78,6.33-4.22,9.53-6.09,6.16-2.75,12-6.2,17.84-9.53l0,0a159.31,159.31,0,0,0,14.36-9.16l-.16.12,1.44-1.06h0l1-.74-.25.18h0l-.1.08a116.83,116.83,0,0,0,18.4-17.65l-.21.26c.72-.87,1.45-1.73,2.18-2.6l-.15.19c4.18-5,8.17-10.31,11-16.27a.54.54,0,0,0-.05.11c1.58-2.58,2-6.55,4.89-8,1.86-.56,2.22,2.26.63,2.8a3.17,3.17,0,0,0-.21.41l.1-.21c-10.36,28.33-33.75,49.91-60,63.79C469.45,940.05,455.7,949.35,453.79,941.27Z"/><path class="cls-3" d="M426.68,924.17c-1.84-1.57-.44-4.93,1.89-5a77.74,77.74,0,0,0,18.09-3.06l-.11,0c.8-.22,1.61-.45,2.42-.66l-.27.07c3.05.1,17.1-7.73,16.29-2.71-4.11,4.83-18.16,7.18-24.68,9.9l.22-.06C436.14,923.57,431.06,925.66,426.68,924.17Z"/><path class="cls-3" d="M606.38,900c-5.11-1.46-.42-8.19.16-11.53,3.23-9.71,6.19-19.51,9.14-29.31.22-2.38,3-8.48,4.7-3.58-.83,5.29-2.47,10.45-3.64,15.68C614.34,876.41,611.65,900.32,606.38,900Z"/><path class="cls-3" d="M626,856.4c1.61-14.9,5.36-29.46,5.18-44.55h0c0-.09,0-.18,0-.27v0c0-.2,0-.4.05-.61v0c1.58-5.61-.6-25.65,3.06-27.51a1.13,1.13,0,0,1,.92,1.49c-1.07,5.25-.2,10.65-.29,16,.18,17-.22,33.8-3.12,50.59l0-.4c-.06.93-.13,1.86-.2,2.79l0-.41C632.55,857.62,627,861.94,626,856.4Z"/><path class="cls-3" d="M195,983c-1.77-4.16,10.36-9.67,12.85-13.56l0,0,.2-.2-.14.13a75.68,75.68,0,0,0,11.65-13.61.83.83,0,0,0-.08.12c.88-1.38,1.74-2.78,2.51-4.23a1.12,1.12,0,0,1,1.11-1.4c4.42,1.63-5.82,13.56-7.55,16.18l.08-.09C211.89,969.93,199.91,986.71,195,983Z"/><path class="cls-3" d="M156.76,1042.66c-1.25-.15-.79-2.12.35-2a7.56,7.56,0,0,0,3.42-.85l-.05,0,.13,0-.06,0c10.69-5,19.44-13.39,27.52-21.81,2.93-2.1,5.56-8.57,9.55-7.25,3.5,4-15.79,17.94-19.16,21.08l.12-.09C172,1036.39,165,1041.81,156.76,1042.66Z"/><path class="cls-3" d="M281.16,1057.72c-3.16-3.66,4.48-8.67,6.25-11.89a1.83,1.83,0,0,1-.13.16c.16-.2.33-.39.49-.58l-.06.07a62.91,62.91,0,0,0,8.41-12.35h0c3.35-3.37,5.56-22.59,9.73-20.19-1.19,12.38-7.5,26.17-15.67,36.27C287.23,1051.61,285.34,1058.27,281.16,1057.72Z"/><path class="cls-3" d="M281.4,1088.82c-2.13-3,2-4.94,3.71-6.75a105.87,105.87,0,0,0,11.95-14c3.18-3.13,4.23-12.1,7.38-13.36,1.3.14,1.44,1.65.84,2.57l0,0C304.84,1062.66,286.93,1093.14,281.4,1088.82Z"/><path class="cls-3" d="M682.51,420.68c-.27-6.31.21-12.67-1.29-18.89,0,.09,0,.18,0,.28-2.61-6.36,4.83-7.43,3.49-2.6C686.17,402.51,690.88,430.38,682.51,420.68Z"/><path class="cls-3" d="M695.6,413c-1.87-3.27-.47-8.15-.66-11.94h0V401h0c0-.4,0-.81.08-1.21h0c0-.33.05-.66.08-1h0c1.19-5.54.46,4.69.64,6h0a.22.22,0,0,0,0,.08v0C695.06,407,699,413.09,695.6,413Z"/><path class="cls-3" d="M199.49,709.59c-4.47-7.27,27.55-25.84,32.7-32.26,17.08-19.16,28.83-43.62,34.6-68.57l-.08.38c4.12-20.12,4-40.71,2.5-61.12v.2c-.07-1.22-.15-2.43-.22-3.65v0c-4.74-44.31-1.91-38.05,2.63.8,2.55,22.39,3.76,45.13-.47,67.4l0-.19c-7.48,31.45-21.78,64.52-49.79,82.67C216.68,697.27,202.13,714.18,199.49,709.59Z"/><path class="cls-3" d="M97.15,829.47c-9.18-3.39,5.49-25.88,9.67-30.65,23.44-27.24,55-46.22,88.56-58.36h0c23.95-10.54,43.84-18,51.67-45.49.47-1.14,1.67-3.38,3.1-2.12.89,1.87-1.73,3.71-1.86,5.75l0-.11c-7.43,33.18-42.68,43.16-69.68,56.23-20,9.63-38.77,21.88-54.86,37.23.14-.12.27-.25.4-.38-7.64,7.45-15.68,15.17-19.74,25.25C102,820.8,103.08,829.08,97.15,829.47Z"/><path class="cls-3" d="M107.91,872.07c-.2-7.5,2.45-14.81,4.7-21.87,0,.14-.1.3-.16.44a83.13,83.13,0,0,1,8.07-16.52c1.13-2.1,18.77-26.1,16.78-15.58l.08-.09h0l.1-.17c-9,10.89-16.79,23.22-20.3,37.08a76.12,76.12,0,0,0-2.58,15.41C114.85,874.69,108.56,876.6,107.91,872.07Z"/><path class="cls-3" d="M55,980.85c-9.88-4.35,6.66-11.31,9.41-15.35h0C94.33,940.72,65,899,82.79,868.73a1.87,1.87,0,0,1,2.45-.85c2.28,2-1.45,4.58-1.7,6.84a67.77,67.77,0,0,0-3,27.39v0c1,17.34,7.77,35.58.19,52.34C75,965,66.29,976.28,55,980.85Z"/><path class="cls-3" d="M75.32,1022.57c-2.1-2.55.16-5.45,2.38-7a84.77,84.77,0,0,0,10.1-12.41l-.09.14c.7-1.08,1.4-2.16,2.11-3.23l-.19.29c3.68-5.75,6.52-12.11,6.8-19,0,.08,0,.17,0,.25,0-.41.06-.83.1-1.24a2,2,0,0,0,0,.25,66.27,66.27,0,0,0,0-7.72l0,.22c0-1.45-.72-3.67,1.19-4.15,3.26.13,1.78,14.49,1.81,17.44C100,992,81.47,1029.41,75.32,1022.57Z"/><path class="cls-3" d="M261.74,761.35c-3.19-4.1,6.26-8.62,7.26-13,2.61-2.26,4.19-16.75,7.29-14C277.07,739.22,268.05,764.08,261.74,761.35Z"/><path class="cls-3" d="M516.12,529.23c.1-3.21.63-6.37.89-9.57v.09c3.52-28.37-2.74-43.61-26.23-60.07l.07.05h0l.08.06-.44-.31.1.07-.59-.41.17.12c-26.71-16-65.88-10.93-94.94-3.76l.28-.08c-11.65,3.35-23.37,6.44-35.06,9.6l.14,0-2.38.65.21-.06-.34.1.14,0c-6.63,1.77-13.13,4-19.73,5.91l.18,0-3.23.89,0,0c-11.13,2.6-23.14,4.31-34.45,2.09l.1,0-.93-.28h0c-1.09-.46-3.63-.95-3.07-2.57a.69.69,0,0,1,1.18-.1h0a2.29,2.29,0,0,0,.84.54l-.09-.05c17.07,4.32,35.05-2,51.21-7.45,33.06-9.92,66-23.06,101-22.07h.64c26-2,50.82,10.64,65.66,31.87,8.08,12.24,7.45,27.84,6.31,41.87,0-.17,0-.33,0-.51-.06.73-.11,1.46-.16,2.19a2.64,2.64,0,0,1,0-.29c-1.16,4.55,1.06,13.12-4.64,14.68A2.92,2.92,0,0,1,516.12,529.23Z"/><path class="cls-3" d="M576.59,634.69c-29.32-19.34-40.85-31.1-43.09-67.79v.15c0-1.31-1.11-6.17,1.47-4.72.33,2.26.63,4.61,1.09,6.88l0-.17c2.73,11.43,4.81,23.69,12.52,33h0l.08.1,0,0c7.71,12.46,22.13,17.13,32.64,26.5C584.54,631.38,580.14,637.45,576.59,634.69Z"/><path class="cls-3" d="M563.7,658.37c-4.37-6-8.33-12.42-14.5-16.75-1.92-.45-1.35-3.37.4-3.66,2.12.12,3.77,2.2,5.5,3.32,3,3.35,15.82,12.43,12.28,16.93A2.48,2.48,0,0,1,563.7,658.37Z"/><path class="cls-3" d="M663.15,890.9c-8.57-2.58.25-15.52,2.09-20.83l-.33.66.74-1.5-.32.66c20.76-45.55,67.85-62.69,46.7-120.83v0c-1-2.4,3.08-4.54,3.66-1.51,1.32,7.9,5.31,15.17,5.78,23.28,1.44,15.48-1.26,31.59-9.62,44.88C702,831.51,688,844.39,679.47,861c-3.35,6.35-6.79,12.69-9.29,19.43C668.71,884.33,668.68,891,663.15,890.9Z"/><path class="cls-3" d="M681.28,1008.75c-4.93-5.58,8.15-12.77,8.91-19.4-.07.19-.13.39-.2.58,11.2-29.48-15.31-72.56-1.92-98.09,2,1.24-2,8.24-1.47,10.93a1,1,0,0,0,0-.17,42.06,42.06,0,0,0-.16,4.35,1.09,1.09,0,0,0,0-.18,56.47,56.47,0,0,0,1.21,9.33l0-.08a1.55,1.55,0,0,1,0,.21s0-.06,0-.09c5.22,26.71,20.72,56.74,6.05,82.87C690.71,1002.57,686.91,1011.66,681.28,1008.75Z"/></g></g></svg>