<svg xmlns="http://www.w3.org/2000/svg" viewBox="0 0 2196.54 765.77"><defs><style>.cls-1{opacity:0.53;}.cls-2{fill:#feef38;opacity:0.7;}</style></defs><title>pINTURA 1</title><g id="Capa_2" data-name="Capa 2"><g id="Capa_1-2" data-name="Capa 1"><g class="cls-1"><path class="cls-2" d="M684.61,219.61C655.86,198,447.28,219.45,432,212.93c-12.46-8.72,5.71-160,17-182.19,4-7.94,8.64-9.14,19.41-5.36,17.07,7.1,237-4.09,237-4.09,3,4.74,11.49-11,13.18-5.27,5.21,13.37,361.65-.88,392.05-1.33,18.44-.27,3.94,8.71,25.62,5.25,46.19-6.77,147.07,1.31,182-6.65,28-6.61,34-6.7,61-.91C1406.82,17.6,1553,12,1569.64,1.66c4-2.88,7.18-1.8,7.23,1.58,0,.71,103.14,4.27,103.63,6.91.83,3.36,4,5,6.87,2.71,5.33-3.43,115-15,116.83-5.12,5.69,28.08-8.14,147.14-20.57,176-12.7,30.84-84.72-4.73-142.13,13.38l-268.09-1.07-57.35,11c-6.67-10.17-31.76,14.94-47.23-3.24-6.54-7.23-52.18-8.8-62.21-1.33-8.71,5.77-242.45-11.52-266.2,8.47C897.59,193.56,724.71,215.92,684.61,219.61Z"/><path class="cls-2" d="M1427.53,64.57c40.35,15.59,307.39-47.41,328.13-44,17.41,6.14,15.77,159.43,4.4,183.69-4,8.66-9.86,10.77-24.37,9.19-23.13-3.6-306.36,51.55-306.36,51.55-4.54-4.1-13.3,13.19-16.31,7.85-8.69-12.19-468.26,73.33-507.57,79.87-23.84,4-6.36-7.83-33.94-.06-58.84,15.95-190.66,28.17-234.74,43.05-35.28,12.15-43.09,13.45-78.88,13.12-36.47.36-225,35.16-245,48.76-4.83,3.66-9.05,3.22-9.61-.11-.11-.7-134.18,16.44-135.21,13.93-1.56-3.17-5.87-4.16-9.28-1.31C152.36,474.55,12,508,8.19,498.55-3.23,471.91-2.58,351.33,9.34,320.23c12-33.07,110.41-12.3,182.13-41.72l347.37-52.66,72.69-22.37c10.1,8.73,39-21.15,61.63-6.25,9.52,5.83,68.86-1.76,80.77-11.16,10.44-7.45,315.67-37.18,343.53-61.72C1155.45,133,1376.12,76.25,1427.53,64.57Z"/><path class="cls-2" d="M437.75,502.86c-46.5-23-358.29,3-377.55-2.09-18.82-8.3,6.31-160,23.15-182.75,6-8,13.07-9.78,29.39-6,14.77,3.4,174.46-1.92,189.45-2.39,86.65-2.72,170.12-4.84,170.12-4.84,4.41,4.77,17.65-10.88,20.1-5.11,1.91,3.4,37.16,5.13,89.67,6.3,0,0,311,3,505,9.84,28,1,5.39,8.92,38.45,7.42,70.45-3.19,222.52,15.32,276,11.6,42.93-3,52.08-2.64,92.35,6.39,32.81,7.35,262.06,24.09,288.75,16.77,6.46-2.19,11.06-.6,10.73,2.76,0,0,93.57,13.3,130.94,19.55,14.58,2.44,24.33,4.33,24.43,5,.81,3.48,5.3,5.61,10,3.92,8.45-3.07,175,7,176.51,17.13,4.17,28.92-33.84,143.83-56.1,170.28-23.39,27.78-123.2-20.68-212.77-12.78-75.83-8.56-135.75-15.24-199.24-21.67-228.42-23.12-197.83-18.9-286.06-14.57-9.06-10.94-48.32,10.86-70.12-8.41-9-8-77.17-14.09-92.7-7.66-6.1,2.15-183.76-11.26-190.22-11.62-26.36-1.44-184.23-11.41-207.76,1C752,480.56,507.61,498.47,437.75,502.86Z"/><path class="cls-2" d="M1737.46,362.77c33.54,23.09,323.43,41.83,351.71,55.82,15.57,11.41-37.31,156-56.05,175.43-6.72,7-13.29,7.39-26.92,1-20.81-9.76-199.08-31.19-319.14-37.75-3.51-5.07-16.66,9.55-18.33,3.62-1.42-3.37-32.59-8.57-79.39-12.51-109.44-9.2-143.41-9.17-220.16-10.21-32.29-.44-105.4-.22-131.7.48-51.23,1.37-89.17,2.5-99.48,2.79-25,.7-5.38-8.37-34.79-4.38-62.42,8.46-199.57,6.37-246.38,18.62-37.35,9.78-45.45,9.46-82.43,7.45-23.24-1.26-104.55,8.74-134,13.7-23.21,3.91-104.54,17-121,27.3-5,3.67-9.38,3.23-9.91-.11-4.68.23-139.7,15.62-139.7,15.62-1.67-3.13-6.15-4-9.63-1.07-6.88,3.6-150.2,44.28-154.71,35.17-13-26.13-18-146.22-6.56-178.23,6-16.82,35.32-21.82,72.81-26.32,142-17,29.78-10.38,239.72-41.25C707.13,379.14,695.67,394.79,847.59,362c9.93,9.36,43.52-18,66.61-1.18,9.45,6.9,73.6,4.69,87.57-3.36,5.15-3,109-3.37,115.14-3.43,20.46-.21,42.31.42,64.29.45,85.22.11,176.53,2.62,195.64-7.39C1423.5,363.26,1629.06,358.74,1737.46,362.77Z"/><path class="cls-2" d="M709.15,728.67c-15.7-8.18-74.24.75-130.54,12.56-28.14,5.9-55.74,12.37-77.28,17.3s-37.09,8-41.15,7.09c-14-6.21-25.37-157.91-18.18-182,2.55-8.55,7-10.65,18.61-9,10.5,2.08,116.11-20.2,126.56-22.35,57.6-11.82,113.19-22.72,113.19-22.72,3.71,4.25,10.1-12.6,12.66-7.17,4,7,126.09-11.62,191-20.46,60.49-8.23,144.41-19.49,209.86-26.34,18.88-2,4.69,8.28,26.69,3.3,46.88-10.62,151-8.32,186.49-17.66,28.55-7.52,34.73-8.13,62.69-3.42,22.85,3.85,178.44-3.81,195.83-13.89,4.18-2.87,7.41-1.78,7.46,1.6,2.93.4,106.08,5.09,106.59,8,.79,3.38,3.95,5,7,2.84,5.43-3.92,118.69-11.61,120.27-1.66,4.48,28.27-14.48,146.68-27.65,175.24-7,15.16-27.9,13.23-54.5,9.66s-58.83-8.28-87.56.19c-292.06-2.81-273.18,3.24-324,15.17-7.12-9.92-30.63,16-47.14-1-6.78-6.94-52.48-5.89-62,2.13-2.08,1.52-18.22,2.73-41.63,3.85C1158.56,661,979,667.34,960.57,687.1,913.15,674.08,756.79,716.5,709.15,728.67Z"/><path class="cls-2" d="M1942.41,145.14c25.75,21.49,233.14,12.76,251.52,21.68,11.61,9.61-18.54,159.05-30.94,180.4-4.44,7.64-9,8.5-19.14,3.95-13.28-6.9-141.52-10.19-229.09-8.5-2.71-4.83-11.47,10.65-12.91,4.86-6.47-19.34-358.27-.11-378.93,1-17.81.94-4.06-8.4-25-4.32-44.3,8.64-142.32,5-175.53,15.63-26.55,8.48-32.26,8.3-58.81,5-31.37-3.9-167.89,14.95-182.26,27.62-3.65,3.22-6.7,2.56-7.12-.8,0,0-1.57-.06-4.3.09-1.72.09-95.51,6.43-96,4.79-1.22-3.24-4.45-4.49-6.94-1.86-4.81,3.61-108,29.82-111.34,20.34-9.4-27.08-13.43-146.55-5.45-177,4.22-16.11,25.22-18,52-18.91s59.42-.37,86.75-13c338.72-37.18,217.37-12,322.75-39.8,7.27,9.66,30.47-16.84,47.29.31,6.85,7,52.29,5.75,62.1-2,4.53-3.59,121.38-3.44,127.16-3.48,22.12-.12,66.14-1,88.12-2.31,25.32-1.57,44.32-4.54,50.23-9.46C1720.72,163.48,1844.28,151.9,1942.41,145.14Z"/></g></g></g></svg>