<svg width="731" height="132" viewBox="0 0 731 132" fill="none" xmlns="http://www.w3.org/2000/svg">
<path opacity="0.52" d="M137.359 111.206C120.099 101.946 12.5589 128.768 5.64588 127.312C-1.20572 124.309 2.44582 51.7403 7.61753 40.2329C9.46018 36.1587 11.8802 35.0135 17.7306 35.9775C23.9649 37.0214 87.5794 24.814 143.802 16.5089C145.488 18.5783 149.701 10.6754 150.724 13.2912C151.492 14.8264 163.93 14.1878 182.424 12.6772C200.918 11.1666 225.477 9.174 250.47 7.15069C272.956 5.30852 265.03 5.84889 287.581 4.42428C325.831 2.00183 291.923 2.79703 360.347 0.45748C370.215 0.119749 362.426 4.5256 374.035 2.9137C398.788 -0.52808 452.683 4.44884 471.441 1.63033C501.998 -2.97509 477.531 3.3374 557.124 6.62567C579.638 7.54675 601.486 7.64807 606.071 5.8274C608.322 4.70675 609.965 5.39756 609.888 6.99103C610.979 7.2428 664.72 15.2808 664.919 16.7576C665.226 18.3971 666.851 19.3888 668.472 18.5077C671.442 16.8927 730.244 20.3345 730.834 25.1272C732.511 38.7654 719.965 93.3764 712.374 106.051C708.381 112.741 697.457 110.502 683.619 107.153C642.316 97.1621 659.275 104.439 615.899 99.5139C584.177 95.9094 595.798 96.5542 542.03 92.3049C514.534 90.1311 522.006 90.8588 503.672 89.6399C495.632 89.1057 502.563 88.6298 467.433 93.1093C464.079 88.1262 450.711 99.2652 442.76 90.7175C439.455 87.1652 415.504 85.9187 410.206 89.3236C409.058 89.953 400.554 89.9868 388.245 89.6982C378.881 89.4771 282.053 86.4898 270.847 96.0199C245.154 88.4486 162.093 106.232 137.359 111.206Z" fill="#78539D"/>
</svg>
