<svg width="717" height="180" viewBox="0 0 717 180" fill="none" xmlns="http://www.w3.org/2000/svg">
<g clip-path="url(#clip0_398_221)">
<path d="M133.297 148.791C116.314 136.429 10.4994 172.226 3.69931 170.294C-3.04789 166.288 0.545922 69.4412 5.63715 54.0794C7.39882 48.6441 9.82993 47.0912 15.5906 48.3971C21.7564 49.7912 84.2957 33.5029 139.639 22.4206C141.295 25.1824 145.443 14.6294 146.447 18.1235C147.205 20.1794 159.44 19.3235 177.638 17.3206L244.581 9.92647C266.708 7.47353 258.913 8.16176 281.101 6.28235C318.739 3.05294 285.373 4.11176 352.704 0.988232C362.393 0.538232 354.747 6.42353 366.172 4.27059C390.527 -0.317649 443.553 6.33529 462.016 2.55882C492.079 -3.61765 468.005 4.83529 546.329 9.22059C568.482 10.4647 589.975 10.5882 594.493 8.16176C596.704 6.66176 598.325 7.57941 598.246 9.70588C599.32 10.0412 652.197 20.7529 652.391 22.7471C652.708 24.9353 654.293 26.2765 655.914 25.0765C658.829 22.9235 716.692 27.5206 717.273 33.9C718.92 52.0941 706.58 124.985 699.11 141.9C695.164 150.821 684.427 147.838 670.818 143.374C630.176 130.032 646.859 139.747 604.182 133.174C572.966 128.365 584.399 129.221 531.496 123.547C504.437 120.653 511.792 121.624 493.752 120.018C485.825 119.312 492.66 118.676 458.105 124.65C454.802 117.997 441.651 132.865 433.829 121.456C430.579 116.718 407.007 115.059 401.784 119.603C400.657 120.441 392.289 120.485 380.177 120.097C370.964 119.806 275.684 115.818 264.656 128.532C239.367 118.421 157.669 142.174 133.297 148.791Z" fill="#F85FB4"/>
</g>
<defs>
<clipPath id="clip0_398_221">
<rect width="717" height="180" fill="white"/>
</clipPath>
</defs>
</svg>
