<svg width="648" height="166" viewBox="0 0 648 166" fill="none" xmlns="http://www.w3.org/2000/svg">
<g clip-path="url(#clip0_588_2)">
<path opacity="0.7" d="M120.397 145.061C105.057 133.003 9.48098 167.924 3.33976 166.032C-2.75015 162.124 0.512856 67.6552 5.08927 52.6439C6.71564 47.341 8.88071 45.8332 14.0779 47.105C19.6189 48.4641 76.157 32.5655 126.123 21.7545C127.621 24.447 131.366 14.1591 132.28 17.5645C132.967 19.5749 144.018 18.7338 160.451 16.7798L220.925 9.56389C240.934 7.1791 233.864 7.87146 253.909 6.01492C287.903 2.86084 257.767 3.89682 318.579 0.850443C327.347 0.409386 320.431 6.14826 330.743 4.04554C352.743 -0.4317 400.641 6.0662 417.315 2.37876C444.471 -3.63193 422.754 4.59943 493.467 8.88179C513.476 10.0921 532.895 10.2152 536.974 7.85607C538.975 6.39956 540.432 7.29706 540.365 9.39465C541.335 9.71775 589.105 20.1646 589.274 22.1084C589.556 24.247 590.988 25.5394 592.43 24.3906C595.072 22.2879 647.326 26.7702 647.839 33.0066C649.332 50.7668 638.183 121.875 631.421 138.383C627.861 147.102 618.164 144.174 605.866 139.814C569.158 126.803 584.231 136.281 545.68 129.865C517.463 125.177 527.816 126.013 480.01 120.48C455.573 117.649 462.212 118.597 445.918 117.013C438.776 116.315 444.933 115.695 413.724 121.531C410.743 115.038 398.845 129.542 391.796 118.413C388.856 113.797 367.57 112.166 362.85 116.602C361.824 117.418 354.272 117.464 343.354 117.084C335.032 116.802 248.952 112.91 239.015 125.316C216.199 115.428 142.376 138.599 120.397 145.061Z" fill="#FEEF38"/>
</g>
<defs>
<clipPath id="clip0_588_2">
<rect width="648" height="166" fill="white"/>
</clipPath>
</defs>
</svg>
