<svg width="707" height="172" viewBox="0 0 707 172" fill="none" xmlns="http://www.w3.org/2000/svg">
<g clip-path="url(#clip0_630_7)">
<path opacity="0.87" d="M131.266 150.369C114.526 137.867 10.2298 174.078 3.52692 172.109C-3.11812 168.059 0.423421 70.0892 5.43613 54.554C7.2131 49.0536 9.56862 47.5075 15.2467 48.8091C21.2925 50.2183 82.9905 33.7339 137.515 22.526C139.168 25.3197 143.238 14.6506 144.23 18.1821C144.974 20.2545 157.041 19.3924 174.971 17.3531C192.902 15.3138 216.73 12.6237 240.967 9.89217C262.774 7.4052 255.088 8.13471 276.961 6.21145C314.054 2.92037 281.172 4.00634 347.532 0.847894C357.098 0.39195 349.548 6.33995 360.805 4.16385C384.811 -0.482634 437.083 6.23632 455.274 2.43126C484.912 -3.78615 461.183 4.73585 538.378 9.17509C560.214 10.4186 581.406 10.5554 585.852 8.0974C588.034 6.5845 589.629 7.51297 589.572 9.66834C590.625 10.0041 642.748 20.8348 642.943 22.8534C643.248 25.0668 644.815 26.4056 646.389 25.216C649.282 23.0358 706.31 27.703 706.868 34.1525C708.496 52.5602 696.33 126.291 688.966 143.401C685.082 152.433 674.502 149.411 661.08 144.889C621.02 131.397 637.467 141.221 595.398 134.572C564.636 129.71 575.905 130.581 523.758 124.84C497.091 121.909 504.335 122.892 486.565 121.246C478.767 120.525 485.487 119.882 451.439 125.93C448.187 119.203 435.219 134.241 427.512 122.701C424.305 117.905 401.064 116.222 395.927 120.819C394.811 121.669 386.563 121.715 374.624 121.325C365.533 121.026 271.639 116.993 260.77 129.859C235.81 119.646 155.247 143.67 131.266 150.369Z" fill="#94B43B"/>
</g>
<defs>
<clipPath id="clip0_630_7">
<rect width="707" height="172" fill="white"/>
</clipPath>
</defs>
</svg>
