<svg width="721" height="165" viewBox="0 0 721 165" fill="none" xmlns="http://www.w3.org/2000/svg">
<g clip-path="url(#clip0_447_7)">
<path d="M134.174 129.749C117.124 118.905 10.7999 150.269 3.96892 148.566C-2.80537 145.057 0.804817 60.1824 5.91577 46.7323C7.72653 41.9694 10.1421 40.6096 15.9146 41.7427C22.0765 42.9627 84.9617 28.6854 140.54 18.9745C142.207 21.3956 146.373 12.1531 147.382 15.1975C148.138 17.0029 160.439 16.2475 178.717 14.4912C196.995 12.7348 221.279 10.393 246.006 8.00969C268.234 5.86809 260.398 6.49886 282.675 4.82184C320.478 1.99281 286.969 2.93331 354.606 0.183596C364.359 -0.194111 356.663 4.94271 368.14 3.05795C392.606 -0.964634 445.885 4.87094 464.428 1.54712C494.636 -3.84654 470.45 3.54141 549.133 7.38648C571.391 8.47427 592.984 8.58381 597.52 6.45354C599.743 5.14289 601.365 5.95119 601.301 7.81328C602.378 8.1079 655.506 17.4902 655.703 19.2352C656.017 21.1539 657.593 22.3135 659.215 21.2823C662.148 19.3938 720.278 23.4202 720.86 29.0216C722.52 44.9721 710.12 108.839 702.613 123.66C698.655 131.482 687.869 128.865 674.189 124.948C633.361 113.262 650.123 121.771 607.243 116.011C575.867 111.8 587.374 112.552 534.223 107.585C507.043 105.043 514.43 105.893 496.303 104.469C488.364 103.842 495.207 103.286 460.492 108.525C457.177 102.697 443.961 115.724 436.102 105.726C432.836 101.572 409.16 100.117 403.909 104.098C402.775 104.835 394.367 104.873 382.199 104.537C372.941 104.28 277.224 100.782 266.144 111.928C240.74 103.12 158.613 123.932 134.174 129.749Z" fill="#F7941D"/>
</g>
<defs>
<clipPath id="clip0_447_7">
<rect width="721" height="165" fill="white"/>
</clipPath>
</defs>
</svg>
