<svg xmlns="http://www.w3.org/2000/svg" viewBox="0 0 1243.44 1333.88"><defs><style>.cls-1{fill:#ff2400;}.cls-2{fill:#fff;}.cls-3{fill:#f660b2;}</style></defs><title>imagen 1</title><g id="Capa_2" data-name="Capa 2"><g id="Capa_1-2" data-name="Capa 1"><path d="M578.4,261c2.89-.7,7.4,1.16,5.84,4.73-1.65,4.16-6.15,5.89-9.86,7.81-5.63,4.07-12.58,9.94-20,8.67-2.53-.49-4.3-3.29-2.68-5.59a25.25,25.25,0,0,1,8.8-7.4C566.28,266.12,571.81,262.05,578.4,261Z"/><path d="M582.84,291.65c2.65-2.06,4.41-5.7.6-7.62.55,3.86-3.71,7-7.34,6.14-2.18-.5-5-1.7-5.36-4.21a6.2,6.2,0,0,0-3,4.45c-.95,4.26,4.56,5.27,7.72,5C578.4,295.21,580.72,293.47,582.84,291.65Zm4-10c5.12,4.16,1.59,10.65-2.71,13.86-2.93,2.59-6.61,4.38-10.6,4.05-6.76,0-12-4.7-9.46-11.67a10.85,10.85,0,0,1,3.62-5.13c1.52-1.15,3.4-1.72,5.07-2.61a16,16,0,0,1,7.08-2C582,278.1,586.05,279.37,586.83,281.63Z"/><path d="M628.06,310.16c1.06,5.86-5.21,11.06-10.78,10.24-2.41-.34-10.75-7.5-5.38-8.64,3.29.38,4.61,5.7,8.34,4.37,2.56-.43,5.24-2.75,4.26-5.55-.7-1.49-1.82-3.53.2-4.49C627.12,305.23,628,308.34,628.06,310.16Z"/><path d="M578,315a1.71,1.71,0,0,1-3,1.5,10.12,10.12,0,0,1-1.67-6.52,1.58,1.58,0,0,1,2.94-.53C576.78,311.27,577.4,313.15,578,315Z"/><path d="M585.79,309.59a1.77,1.77,0,0,1-3.14,1.32c-1.25-1.43-1.61-6.9,1.23-6.51a1.36,1.36,0,0,1,1,1.17C585.14,306.91,585.56,308.24,585.79,309.59Z"/><path d="M595.41,304.83a1.88,1.88,0,0,1-3.47,1.2,6,6,0,0,1-.71-3.8c.23-1.18.54-2.4,1.89-2.43a1.6,1.6,0,0,1,1.6,1.45C594.93,302.45,595.17,303.64,595.41,304.83Z"/><path d="M633.68,284.36a1.82,1.82,0,0,1-3.37,1.17,9.74,9.74,0,0,1-1-4.36,1.68,1.68,0,0,1,2.67-1.09C633.12,281.15,633.42,282.88,633.68,284.36Z"/><path d="M641.87,281.13a2,2,0,0,1-3.76,1,10,10,0,0,1-.57-3.92,2.77,2.77,0,0,1,.65-2,1.63,1.63,0,0,1,2.63.52C641.18,278.24,641.59,279.64,641.87,281.13Z"/><path d="M537.8,526a1.35,1.35,0,1,1,1.35,1.34A1.36,1.36,0,0,1,537.8,526Z"/><path d="M536.32,526.9c-.75-1.8.83-3.06,2.42-3.46,1.4-.71,3.45-1.43,4.44.28,1.17,2.12-1.06,3.43-2.79,4C539,528.55,537,528.58,536.32,526.9Z"/><path d="M549,524.71c-3.29-.54-1.79-4.84,1.15-4.41C553.28,521,551.69,524.86,549,524.71Z"/><path d="M601.48,505.7a2.21,2.21,0,0,1,.86,4.23c-3.14,1-6.27,2-9.36,3.14-4.22,1.3-8.56,2.13-12.78,3.41A97.22,97.22,0,0,1,564.59,521c-1.32.18-2.69.84-4,.37a2.13,2.13,0,0,1-1-3.11c.65-1.08,1.94-1.39,3.1-1.65,1.45-.36,2.92-.67,4.39-1a129.24,129.24,0,0,0,12.59-3.87c4.37-1.29,8.91-2,13.23-3.44C595.72,507.35,598.5,506.07,601.48,505.7Z"/><path d="M608.17,519.8a2.34,2.34,0,0,1,1.1,4.13,6.47,6.47,0,0,1-2.81,1.08c-7.58,2.49-15.33,4.43-23,6.79a92.29,92.29,0,0,1-14.19,4.2c-1.05.24-2.23.51-3.15-.24a2.31,2.31,0,0,1-.22-3.45,3.55,3.55,0,0,1,1.89-.87c1.57-.41,3.16-.77,4.74-1.17,5.72-1.45,11.16-3.8,16.94-5,3.71-1,7.38-2.15,11.05-3.3C603.07,521.16,605.53,519.8,608.17,519.8Z"/><path d="M577.47,537.65a1.83,1.83,0,0,1,1.53,3.08c-2.09,2-5.21,2.45-8,2.6-2.37.18-3.71-2.34-1.68-3.79,1.28-.63,2.78-.58,4.16-.88S576.12,537.87,577.47,537.65Z"/><path d="M595.88,533.31c.63,2.57-2.51,2.82-4.24,3.41-2.51.7-5.17,2.44-7.82,1.71a1.89,1.89,0,0,1,0-3.47h0a55.91,55.91,0,0,0,7-2.22C592.46,532,595.11,530.87,595.88,533.31Z"/><path d="M611.31,529.15a2.29,2.29,0,0,1-1.58,2.79,25.88,25.88,0,0,1-6.7,1.17c-2.81.13-3.55-3.43-.68-4,2.07-.44,4.14-.88,6.17-1.5A2.29,2.29,0,0,1,611.31,529.15Z"/><path d="M581.08,544.14c3.76,3.42-4.32,5.32-6.62,6a10.28,10.28,0,0,1-2.13.28,3.47,3.47,0,0,1-1.68.43,1.48,1.48,0,0,1-1.25-1.65,1.53,1.53,0,0,1,.42-.84h0a7.21,7.21,0,0,0,1.82-1.71c1.22-1.13,3-1.4,4.49-1.95C577.7,544.31,579.51,543.26,581.08,544.14Z"/><path d="M594.07,541.5c1.14,3-5.7,5.11-7.44,3.25-1.42-1.63.11-3.19,1.84-3.52a11.55,11.55,0,0,1,4.17-.82A1.83,1.83,0,0,1,594.07,541.5Z"/><path d="M610.83,536.4a2.11,2.11,0,0,1,1.28,3.75c-2,1.28-4.55,1.42-6.84,1.86-1.75.15-3.64.81-5.36.27a1.91,1.91,0,0,1-1.07-2.47c.66-1.36,2.32-1.44,3.6-1.8,1.9-.41,3.82-.71,5.7-1.23A11.12,11.12,0,0,1,610.83,536.4Z"/><path d="M757.93,1333.85c-3.35-.36-7-.29-9.93-2.25-1.4-.79-3.34-1.34-4.4-2.59-.49-.21-1-.42-1.47-.61-4.83-1.39-9.76-2.71-14.07-5.4-5.76-2.7-12-5-16.57-9.59a121.59,121.59,0,0,1-9.09-8.75c-2.43-2.57-4.15-5.73-6.73-8.16a31.9,31.9,0,0,0-3.35-2.56c-.07.24-.14.47-.19.7a65.94,65.94,0,0,0-2.53,9.78c-.28,2.06-1.47,4.7-4,4.06-5.24-1.3-10.27-2.19-14.94-4.93-1.66-.84-3.81-1.94-3.31-4.1.4-4,.16-8,.35-12,.39-5,.87-10.58,1-15.49.38-3.9.51-7.78.85-11.64a120.78,120.78,0,0,0,.84-14c-.08-4.32.15-8.63.25-12.94,0-1.33,0-2.67,0-4-2.19-.35-4.35-1-5.17-3.18-1.28-5-.72-10.37-1-15.52-.33-9.52,0-19-.21-28.56-.18-6.19-.68-12.37-1-18.55-.24-9.68-2.4-19.11-3.68-28.67-.58-5-1-10-1.59-15-1.24-9.76-1.37-19.6-2.42-29.38-.56-4.83-1.27-9.66-1.52-14.52-.44-8.29.13-16.63-1-24.88-.81-7.28-2.22-14.48-2.93-21.77-.46-5-.8-10.11-1.38-15.14-2.06-15-3.2-30-4.79-45.08-.72-7.47-1-15-2-22.44-.87-6.22-1.88-12.41-3-18.59S636.13,916,635.25,910s-1.53-11.91-2.44-17.84a9.66,9.66,0,0,1-4-.21,2.38,2.38,0,0,1-1.1-.64,30.79,30.79,0,0,1-10.28,1.31,2.83,2.83,0,0,1-1.31-.39c.28,5.39.42,10.78.67,16.17.38,6.44.93,12.88.9,19.34-.21,9.93.09,19.85-.21,29.78-1.15,16.73-3.36,33.44-7.92,49.6-3.29,12.78-6.6,25.86-13.79,37.08a49.72,49.72,0,0,1-9.77,10.6c-3.93,2.87-7.92,5.66-11.93,8.39-11,7.52-24.94,9.94-38,8-10-1.29-19.93-2.61-29.74-4.71a129,129,0,0,1-28.21-10.23c-9-4.56-16.84-11-25.3-16.35-10.76-6.84-22.4-12.19-33.21-18.91-5.32-3.4-9.78-7.91-14.92-11.55-7.14-4.68-14.35-9.23-21.06-14.53a35.2,35.2,0,0,0-6.35-3.53c-1.53-.61-3-1.54-3.49-3.22-.86-2.8-.64-5.83-.52-8.72.34-4.84.8-9.68,1.18-14.12.18-2.58.4-5.14.66-7.71a1.53,1.53,0,0,1,.05-1.25,76,76,0,0,0-10.59-1.87,24.55,24.55,0,0,0-11.1,2.24,37.74,37.74,0,0,0-9.74,7.87,51.25,51.25,0,0,0-8.08,10.28c-4.24,6.31-6.62,13.64-9.77,20.52-2.64,5.06-5.45,15.24-12.86,13.19-7.11-2.59-5-12.3-3.62-18,.94-4.07,1.45-8.34,3.06-12.21a65.06,65.06,0,0,1,9-28.56,76.31,76.31,0,0,1,7-11.19,61.41,61.41,0,0,1,9.82-9.24c-3.28-1.55-6.5-3.22-9.83-4.63-2.93-1.68-8.11-2.27-6.19-6.84,1.15-4.49,2.27-9.45,3.27-13.88a14,14,0,0,1,1.08-3.84c1.21-2,3.23-1.85,5-.75,4.05,1.24,8,2.73,12,4.19,11.86,3.85,23.3,8.93,34.84,13.63l2.31,1c.18-1.13.36-2.26.55-3.4a23,23,0,0,1,.76-3.58,3.11,3.11,0,0,1,.76-1.25,2.6,2.6,0,0,1,1.93-1.79,3.94,3.94,0,0,1,3.52,1.21c2.12,1.27,4.28,2.44,6.46,3.59a109.16,109.16,0,0,0,17.48,7.55c7.91,3.3,15.64,7.1,23.78,9.74,10.78,3.57,21.3,7.85,32.08,11.38,15.88,5.89,32,11.89,48.8,14,4.13-2.67,1.85-20.41,1.35-25.26-1.13-10.16-3.41-20.15-4.93-30.24a1.06,1.06,0,0,1-.19.06,34.6,34.6,0,0,1-6,.45c-2.6-.35-5.14-1.17-7.73-1.62-3.79-.68-7.61-1.12-11.36-2s-7.44-2-11.22-2.71a107.59,107.59,0,0,0-12.64-1.62,184.88,184.88,0,0,1-19.12-.78c-3.18-.13-6.35,0-9.52.18-3.41.16-6.82.32-10.24.14-1.6,0-3.2,0-4.81.14a41.56,41.56,0,0,1-8.42-.16c-6.55-1.37-13.24-2.89-19.24-6-4.05-2.21-8.17-4.88-10.32-9.12a21.91,21.91,0,0,1-2.69-9.1c-1.39-1.21-.86-3.2.08-4.78,1.94-4.67,5.4-8.79,8.29-12.81,4.45-7.61,10.69-13.76,16-20.75,2.4-3.42,5.13-6.58,7.5-10,5.15-8.35,8.7-17.58,13.39-26.08,2.93-5.85,4.65-12.2,7.41-18.12,2.25-4.88,4.78-9.89,6.4-15,.88-2.6,1.61-4.85,2.61-7.35,3.43-8,6.48-16.18,9.7-24.28,3.11-7.31,5.4-15.12,7.74-22.6,1.56-6,3.15-11.94,4.46-18a11,11,0,0,0,.14-3c-1.2.38-2.38.76-3.52,1.15-2.9,1-5.59,2.53-8.42,3.71-8.66,3.25-18,5.18-27.26,4.27-6.06-.39-12-1.75-18-2.69a89.26,89.26,0,0,1-13.86-3c-9.9-2.85-19.13-7.72-27.75-13.27-3.26-2.34-5.85-5.47-8.63-8.33A51.38,51.38,0,0,1,349,658.8c-2.69-4.64-4.9-9.5-7.35-14.25a48.17,48.17,0,0,1-3.37-8.94,54.09,54.09,0,0,1-1.31-9.05c-1-8-1.46-16.68-1.72-24.58a78.17,78.17,0,0,1,0-19c1.24-12.77,5-25.06,8.78-37.25,2.4-7.41,4.66-14.92,8-22,2.83-5.63,5.3-11.45,8.37-17,2.36-4.06,4.9-8,7.3-12,4.81-8,9.56-16.06,15.8-23,5.61-6.74,12.71-11.94,18.42-18.6,4.87-5.41,11.48-8.62,17.17-13,3.71-2.86,7.07-6.18,11.11-8.59,2.62-1.56,5.37-2.86,8.05-4.31,5.46-2.88,10.46-6.62,16.16-9.05,2.85-1.2,5.76-2.29,8.6-3.56s5.64-2.71,8.53-3.92c5.93-2.37,12.29-3.54,18-6.47,5.4-2.63,11.5-2.94,17.3-4.1,2.61-.6,5.2-1.25,7.85-1.64,8.71-1.3,17.37-2.95,26.17-3.43,0-.33,0-.66,0-1a38.69,38.69,0,0,0-1.59-14.59c-3.94-11-7.39-22.08-10.59-33.26-.53-1.79-1.1-3.58-1.63-5.37-1.77.07-3.49-.06-4.47-.09-8.22-.54-16.47-8.24-15.32-16.85a8.54,8.54,0,0,1,.27-1.91,2.61,2.61,0,0,1-1.32-.84c-7.7-6.81-5.18-11.36-4.2-20-1.69-6.09-1.1-10.27,2.25-15.7a38.42,38.42,0,0,1,7.91-11.87c-2.68-6.19.82-13.36,5.64-17.45,3.3-3,8-4.72,10.09-8.95s3.76-8.89,8.14-11.07c6-4.17,13.42-5,19.78-8.57,5.56-3,9.86-7.73,14.38-12,3.34-2.5,7.79-3,11.82-3.67,3.76-.26,7.56-.11,11.28-.87,5.67-1.83,9.91-7,16.5-6.36,10.07-.22,23.54,4.48,22.53,16.65-.29,3.58-.54,9-3.14,11.92,1.53,1.58,2.55,4.5,3.5,5.95a60.81,60.81,0,0,0,6.33,10.34c2.6,3.58,4.24,7.79,6.17,11.72,2.82,5.55,5.82,11,8.29,16.74a98.26,98.26,0,0,1,3.83,12.59c2.19,7.27,4.31,14.68,4.32,22.34,0,9.8-4.88,19.18-11.28,26.38-3.31,3.15-6.58,6.36-9.84,9.56.94,3.68,2.39,6.75,3.37,10.36a130.61,130.61,0,0,0,5.55,16.43c1.31,3.14,2.45,6.35,3.6,9.55a2.81,2.81,0,0,1,2.13,2.53l.22,0a46.07,46.07,0,0,0,8.77-1.77,2.54,2.54,0,0,1,2.12-.71h.09c3-1,6-2.19,8.93-3.36,9.94-3.56,15.84-9.46,21.62-18,7.54-8.54,12.92-18.55,17.41-29,10.06-21.65,17.41-44.44,19.76-68.28,4.55-30.87,7.54-61.95,12.31-92.8,3.7-19.72,5.07-39.71,7.22-59.63.55-4.83.78-9.25,1-14,.38-2.58-.54-7.36,2.11-8.32l.13-.25c.82-1.53,2.7-1.44,4.18-1.62l2.74-.39c-.82-3.57-.73-7.53-1.17-11.14-.88-7-1.81-13.92-2.91-20.85-1.94-8.8-3.78-18-1.24-26.9,1-3.65,3.4-6.64,6-9.33.24-.35.49-.69.74-1,0-6,1.12-10.07,5.19-14.58,5-6.7,14.76-8.53,17.63.94C790.58,3.42,795.26-1,799.65.39c3.47,1.15,5.87,4.57,6.71,8,4.58-5.94,11.4-2,12.12,4.51,6.55-4.58,10.74-1.66,11.17,5.91.52,6.56.42,13.27-1.39,19.65-1.46,4.41-6.88,13.53-11.57,14.63.75,9.76,1.57,19.48,2,29.24,2.73-.27,5.41-.18,7.46,1.19,1.86,2.09,1.44,5.35,2,8,1.68,10.34,1.53,20.81,1.69,31.25.15,12.25.42,24.53.07,36.78-.62,22.07-.45,44.19.13,66.25a316.15,316.15,0,0,1,.9,36.29c-.75,16.3-1.81,32.46-4.54,48.53-1.08,6.15-2.68,12.17-4.22,18.21-2.57,10.33-4.94,20.72-7.85,31-3.53,10.59-8.88,20.48-13.26,30.74-3.7,8.71-7.11,17.6-12.24,25.6-2.17,3.47-4.5,6.57-6.54,10.06-3.7,6.53-6.56,13.55-11,19.66-3.28,4.83-7,9.34-10.3,14.16-2.41,3.75-4.24,7.84-6.41,11.73-3.59,6.55-8.45,12.33-11.86,19-3.63,7.07-5.26,14.87-5.88,22.75-.82,5.82-1.17,11.69-1.47,17.56l.13,0a33.41,33.41,0,0,0-.46,3.85,18.76,18.76,0,0,0,.05,2.12,11.72,11.72,0,0,0,.18,1.45c0,.17,0,.34,0,.52a24.21,24.21,0,0,0,0,3.51v.16c0,.11,0,.22,0,.34h0a12.31,12.31,0,0,1,0,1.36c0,.25-.06.5-.11.75-.13.6-.31,1.19-.45,1.79a11.38,11.38,0,0,0-.3,2.25c0,.28,0,.57,0,.85s-.07.42-.1.63c-.08.53-.12,1.08-.16,1.62s-.11,1.2-.12,1.81a31.52,31.52,0,0,0,.13,3.22c.07,1.53.07,3.06,0,4.59,0,.57-.09,1.14-.17,1.71s-.19,1.26-.24,1.89c0,.21,0,.42,0,.63l-.22,0c-.26,6.42-.38,12.85-.19,19.29.35,14.57,2.58,29,3.92,43.48.67,8.6,2.09,17.12,3.27,25.66,1.28,6.4,1.62,13,3.67,19.24,2.5,6.21,4,12.75,5.95,19.13.4,1.53,1.19,3,1.06,4.61.18.57.34,1.16.57,1.73a2.09,2.09,0,0,1-.12,1.42c2.14,3.26,4.31,6.51,6.27,9.88,4.35,8.22,10.38,15.29,16.46,22.27,3.12,3.52,5.83,7.36,8.7,11.08,3.29,4.29,7.27,7.77,11,11.59,3.07,3.06,5.7,6.67,8.53,9.88,3.7,4.1,8,7.57,11.94,11.46,3.78,3.67,6.93,7.9,10.38,11.86,3.8,4.16,8.13,7.82,11.72,12.16s6.25,9.22,9.93,13.47c5,6.07,8.9,12.86,13.15,19.4.92,1.57,2.91,2.59,2.61,4.64-.68,3.61-4.77,2.35-7.4,2.15-5-.33-9.37-.8-14.25-.74-5.12.44-10,2.41-14.8,4a27,27,0,0,0-14.53,11.22c-3.9,5.7-6.78,12.2-11.47,17.31-4.45,4-10.12,6.46-15.72,8.43-3.55,1.33-7,3-10.73,3.82A59.69,59.69,0,0,1,761.38,886c-8.25,1.08-16.58,1.17-24.85,2-1.49.16-3,.38-4.45.6.1,7.39.17,14.78,1,22.13,1.37,15.2-1.22,30.39-.92,45.61.3,11.93-.68,23.85-.55,35.77q.78,33.18,1.23,66.34c-.14,10.24,1.08,20.42,1.14,30.65-.3,12.22.51,24.41.13,36.63-.16,7.68-.93,15.34-1.71,23-.59,11.84-1.08,23.67-1.8,35.5-.17,9.07-.64,18.13-.87,27.19-.09,4.83-.06,9.66-.33,14.49-.13,1.85-.22,3.7-.47,5.53a3,3,0,0,1-.25.78,2.73,2.73,0,0,1-1.62,1.59,8.36,8.36,0,0,1-2.64.28c-3.41.41-6.81,1.12-10.27,1-2.53-.15-5.06-.37-7.59-.63a75.93,75.93,0,0,0,1,13.3c.93,6.2.44,11.87,2.28,17.76,2.64,6.77,6.56,13,10.5,19,1.59,2.35,3.24,4.67,5,6.89a82.77,82.77,0,0,0,6.27,5.87c5.44,6,12.88,9.82,19.34,14.46,3.26,2.54,7.34,4,10.32,6.84,4.32,4.11,5,15.35-2.62,15.35Zm-82-89.52c.06,3.49-.12,7-.38,10.42,2.79.45,5.58,1.09,8.4,1.4a75.22,75.22,0,0,1,10.7,2.2c2.79.56,5.6,1,8.41,1.43-.37-3.27-.51-6.58-.85-9.84a83.27,83.27,0,0,1-1.11-13.47c.07-.75,0-1.69,0-2.67-2.39-.27-4.79-.55-7.18-.79-6-.94-11.88-2-17.84-2.86C676.25,1234.88,676,1239.61,676,1244.33ZM373,921c-.84,6.73-1.45,13.5-3.21,20.09-.53,1.78-.44,5.57-1.25,8.23l.62.12c2.24.53,4.49,1.1,6.7,1.79,1.11-9.28,2.59-18.52,4.09-27.74-2.3-.91-4.59-1.86-6.88-2.82C373,920.81,373,920.92,373,921Zm80.81-34c6.61.09,13.25-.06,19.79,1.15,5.74.73,11.27,2.49,16.9,3.73,2.81.53,5.65.88,8.47,1.37s5.62,1.25,8.43,1.83a23,23,0,0,0,2.49-.1,17.18,17.18,0,0,1,2.87-.08h0c-1.06-10.07-2-20.15-2.87-30.24-1.15-10.55-3.37-21-5.15-31.35-.92-7.85-2.7-15.55-3.82-23.36-.41-3-.84-6.07-1.26-9.11-2.12,5.49-4.1,11-6,16.59-4.26,12-8.46,24-11.44,36.33-.3,1.16-.85,2.21-1.18,3.36a4.15,4.15,0,0,1-3.73,2.36c-9.62,1.2-18.9-2.6-28.13-4.72A48.76,48.76,0,0,0,427,853c-6.33,1.73-12.3,2.27-18.17,5a43.63,43.63,0,0,1-10.37,3.16,20.64,20.64,0,0,0-5.89,1.14,18.83,18.83,0,0,0-3.29,2.6c-.9,1.3-2.34,2.92-3.94,2.35a15.57,15.57,0,0,0,4.68,10.43c4.71,3.88,10.33,6,16.15,7.41a48.74,48.74,0,0,0,8.42,1.79c2.07,0,4.14,0,6.21-.11,2.25-.08,4.5-.16,6.75-.09,4.37.18,8.71-.28,13.07-.43h1.18C446,886.26,449.87,886.78,453.79,887ZM613.14,784.61c-1,13.1-.3,26.21-.13,39.32.36,10.3-.26,20.6.15,30.9.63,9.84,1.92,19.63,2.45,29.48.11,1.24.21,2.48.29,3.71a6,6,0,0,1,2.73-.72c2.88-.22,5.71-1.07,8.6-1a2.41,2.41,0,0,1,1.45.65,8.47,8.47,0,0,1,3.19-.66c-.11-.67-.23-1.35-.35-2-1.5-10.61-1.44-21.35-2.36-32-.36-6.58-2.17-12.92-3.15-19.4-.69-5.82-.82-11.69-2-17.44-1.61-7.14-3-14.16-4-21.3-1.3-10.22-2-20.53-3.68-30.7a1.13,1.13,0,0,0,0-.18C613.11,769.82,613.64,777.49,613.14,784.61ZM722.37,666.74c.42,9.8-.26,19.6.1,29.41.58,9,.71,18.06,1.11,27.08.28,6.63,1.29,13.17,2.11,19.74s.78,13.06,1.08,19.61c.37,6.09,1.23,12.15,1.62,18.24.55,9.32-.5,18.64.06,28,.6,12.69.66,25.4,1.06,38.11.65,9.07,2,18.07,2.13,27.18.18,2.83.28,5.67.34,8.51,2.58-.37,5.17-.63,7.77-.85,6.39-.46,12-.53,18.17-1.35,4.24-.47,8.55-.34,12.75-1.28,5.34-1,10.21-3.51,15.34-5.22,4.75-2.06,9.79-4.4,12.55-9,6.29-9.66,11.14-21,22.58-25.53,5.72-2.12,11.51-4.35,17.56-5.31,5.14-.54,10.31.16,15.44.44a200.71,200.71,0,0,0-15-21.07c-2.56-3.51-4.82-7.25-7.7-10.53-2.8-3.07-5.87-5.88-8.75-8.89s-5.47-6.37-8.19-9.56c-3.49-3.86-7.37-7.33-11.19-10.85-4.06-3.6-7.39-7.86-10.86-12-3.36-3.77-7.22-7.06-10.59-10.82s-6.08-7.77-9.16-11.63c-4.87-5.89-10.12-11.49-14.55-17.73-3.34-4.92-5.93-10.32-9.32-15.21-1.93-2.92-4-5.78-5.76-8.78-3.63-6-6.33-12.39-9.31-18.68-3.81-7.36-8.18-14.48-11.87-21.91C722.06,660.14,722.3,663.43,722.37,666.74Zm-217.59-.39c-3.52,1.66-6.75,3.83-10.09,5.81-3.6,2.07-7.68,3.11-11.36,5s-7.28,4-11.2,5.43c-1.07.39-2.15.76-3.23,1.12a7,7,0,0,1,.25,4.43c-.54,3.49-1.43,6.9-2.27,10.32-4.59,20-12.71,38.8-20.35,57.75-1.56,4-2.71,8.09-4.38,12-2.66,6.11-5.71,12-8.07,18.3-2.38,6.89-6.05,13.17-9.37,19.63-1.9,3.9-3.68,7.88-5.78,11.69-3.14,5.94-7.58,11-11.54,16.38-4,5.19-8.64,9.8-12.24,15.28-2.06,3.29-4.53,6.31-6.7,9.52a15.89,15.89,0,0,1,2.36-1.48c2.92-1.32,6.25-1.15,9.32-2.21,4.3-.8,7.9-3.41,12-4.72a46.81,46.81,0,0,1,6.21-1.5c4.42-1,8.79-2.53,13.38-2.47a80.09,80.09,0,0,1,10.51.35c4.93.81,9.7,2.39,14.53,3.61,6.5,1.6,13.12,4,19.89,3.22,1.49-4.56,2.38-9.3,3.76-13.89,2-7.06,4.6-13.91,7.1-20.8,3.14-9.18,6.08-18.29,9.95-27.11,4.25-11.07,10.34-21.29,14.62-32.34,5.17-12.07,7.94-24.91,11.19-37.57A167.89,167.89,0,0,0,527.83,702c2.19-11.1,4.09-22.25,5.38-33.5.53-4,.89-8.06,1.22-12.11.17-1.27.31-3.25.6-5.27C524.85,656,514.92,661.38,504.78,666.35Zm36.09,30.59c10.9-.49,21.65-2.68,32.55-3.43,6.59-.78,13.22-1.19,19.84-1.65s13.07-2,19.64-2.74c8.66-1,17.38-1.53,26-2.77,9.15-1.09,18.67-1,27.7-2.49,8.88-1.29,18-.17,26.87-1.8a90.21,90.21,0,0,1,18.64-1.26,36.88,36.88,0,0,0,4.46-.34h.08q.11-7.73-.07-15.47c-.1-6.41-.57-13,.54-19.31-.13-.36-.25-.72-.37-1.08-3.25-10.18-8-19.72-12.46-29.41a212,212,0,0,1-8.2-23.91c-2.44-8.1-4.89-16.2-7.23-24.33-.13-.84-.3-1.66-.47-2.49s-.34-1.65-.57-2.46c-1-3.34-2.26-6.57-3.27-9.9l-.63-2.22h0a.43.43,0,0,1,0,0l0-.11h0s0,0,0-.05a.43.43,0,0,1,0,0v0h0l0-.12v0h0l-.08-.26c-.57-2.13-1-4.27-1.62-6.4-.08-.29-.15-.58-.23-.87s0-.35-.08-.53a38,38,0,0,0-1.06-5.28c-.24-.85-.5-1.71-.71-2.57s-.37-1.62-.54-2.43c-.1-.54-.19-1.09-.28-1.64-1-4.8-2.23-9.53-3.07-14.36-.76-4.64-1.5-9.63-2.42-14.12-1.9-9.81-4.62-19.4-7.21-29-2.23-9.49-4-19.1-6.31-28.57-2.69-10.87-4.27-22-6-33l-.59.64c-1.88,2.15-3.28,4.67-5.34,6.67-2.18,2.34-4.66,4.36-6.94,6.61-2.23,1.79-5.69,6.71-8.71,6-1.42-.44-2.28-1.79-3.33-2.75-1.4-1.44-2.78-2.88-4.28-4.22-1.32-1.05-2.62-2.12-3.89-3.24l.09.07,0,0h0l-.08-.07-.87-.78c-.44-.7-.85-1.42-1.32-2.11a16.17,16.17,0,0,0-2.35-2.61c-1.49-1.41-3.07-2.72-4.53-4.16-.83-.88-1.65-1.76-2.53-2.59A6.4,6.4,0,0,0,608,406.6a2.39,2.39,0,0,0-1.49-.17,2.26,2.26,0,0,0-.66.28h0l-.23.14h0l-.24.15.24-.15a12,12,0,0,0-1.61,1.09c-.54.46-1,1-1.52,1.48s-.89.82-1.34,1.23-1,.92-1.46,1.35-1.15.92-1.67,1.43-1.06,1.12-1.58,1.7-1,1.16-1.54,1.75l0,.05-.37.39a2.49,2.49,0,0,1-.33-.47c-2.3,2.36-4.63,4.68-7.15,6.81s-4.42,4.72-7.18,6.3c-2.17.91-3.94-1.14-5.54-2.25-3.23-3.16-7.22-5.37-10.59-8.37-4.92-4.18-9.06-9.88-13.84-14L547.21,403a20.44,20.44,0,0,1-1.75-1.31,1.45,1.45,0,0,1-.22.21c0,1.54.07,3.1.12,4.63.33,4.25.91,8.49,1.14,12.75.32,11.45.46,23.44.83,34.79.55,6.33.52,12.69.51,19-.16,4.54.1,9.06.18,13.59,1.9-.8,4.41-1.19,6-1.85a74,74,0,0,1,12-4,122.81,122.81,0,0,1,18.84-4.64c5-1.07,6.85-1.12,8.78,4.14.45,1.18.88,2.37,1.28,3.57a14,14,0,0,1,1.59-.6c3.65-1.24,7.27-2.56,11-3.58,2.17-.55,4.43-.65,6.53-1.45,4.81-2.12,10.27-1.91,15.26-3.08,2-.87,3.69.41,4.3,2.35A82.93,82.93,0,0,1,636.3,487c1.86,7.7,3.94,15.34,6,23,.19.82.4,1.62.58,2.44.27,1.22.49,2.46.84,3.67,0,.1.05.19.08.29.27,1.11.59,2.22.87,3.34.13.49.25,1,.38,1.46l.12.79a16.43,16.43,0,0,0,.68,2.3c.23.9.42,1.79.74,2.67.14.37.29.73.46,1.08.8,2.93,1.33,5.93,2,8.9.3,1.35,1,2.87.21,4.18a1.42,1.42,0,0,1-.11.18l.69,0a16.11,16.11,0,0,1,9.92,2.71c4.38,2.5,10.26,8.1,4.48,12.48a8.73,8.73,0,0,1,6.94,4c2.9,3.91.94,8-3,10,2.37.54,4.88,1,6.85,2.48,1.61,1.39,3.17,3.42,2.92,5.67-.53,3.92-5.07,4.93-8.25,6,4.07,2.07,8.63,5.93,6.86,11-1.73,4.15-6.7,4.65-10.69,5,.27.82.43,1.68.64,2.51,2.17,9.42,4.66,18.75,7.34,28q1.21,4.19,2.48,8.35a2.15,2.15,0,0,1-1.15,2.57,9,9,0,0,1-2,3.86c-4.67,6.29-12.9,7.3-19.79,9.88A89.74,89.74,0,0,1,641,659.16c-6.31,1.77-12.54,3.76-18.88,5.44-6.15,2-12.53,3.14-18.72,5-6.24,1.46-11.94,4.5-18.19,5.88-5.6,1.15-11,3.07-16.54,4.38-3.36.78-6.58,1.84-10,1.42a14.83,14.83,0,0,1-5.44-1.89,2.61,2.61,0,0,1-2.87-1.23c-2.28-6-3.41-12.41-4.95-18.63-1-4.07-2.45-8.08-3.19-12.21l-.72.38a.75.75,0,0,1-.07.12,31,31,0,0,0-1.1,5.57,356.73,356.73,0,0,1-5.19,41.31l-.27,1.34a27.51,27.51,0,0,1,4.13-.8C540,695.28,540.78,695.66,540.87,696.94ZM505.3,406c-3.83.61-7.72,1-11.41,2.28-3.09,1.21-5.86,2.67-8.7,3.6-3.1,1.09-6.28,1.92-9.39,2.93-3.89,1.38-7.55,3.3-11.31,5s-7.55,3-11.16,4.84c-3.81,2.05-7.41,4.43-11.21,6.5s-7.58,3.78-11.07,6.19c-4.41,3.23-8.38,7.05-13,10a104.37,104.37,0,0,0-9.29,6.57c-5.18,4.94-9.8,10.43-15.33,15-9.25,8.71-15.92,19.6-22.39,30.41-2.87,4.72-5.94,9.33-8.38,14.29-1.64,3.38-3.25,6.77-4.78,9.83-3.13,6-5.22,12.53-7.4,19-3,9.35-6,18.73-8.15,28.32-1.3,7.25-2.56,14.58-2.63,22,.35,6.82,1,14.19,1.13,20.9.26,3.21.65,6.41,1,9.61.47,4.73.71,9.54,2.35,14.05s4.1,8.89,6.28,13.28c2.36,5.43,6.1,10,10.31,14.07,2.32,2.36,4.47,4.93,7.21,6.83,4.56,3,9.54,5.35,14.38,7.89,11.74,5.66,24.82,7.07,37.53,9.19a57.18,57.18,0,0,0,30.68-3.85c5.87-3.12,12.29-4.78,18.59-6.78,4.78-1.63,9-4.39,13.58-6.53,2.62-1.3,5.48-2,8.09-3.34,4.2-2.46,8.24-5.21,12.7-7.22,5.58-2.63,10.93-5.7,16.45-8.47,17.34-8.5,34.22-17.9,51.94-25.58,6.1-3.31,12-7,18.56-9.35-1.35-4.89-4.21-9.19-5.85-14-1.38-4.16-2.12-8.71-3.68-12.76-1.46-4.28-3.18-8.46-4.4-12.82-1.12-4.77-2-9.59-3.85-14.15a2.71,2.71,0,0,1,.33-2.31c0-.13-.06-.25-.08-.37-2.09.66-4.33.67-6.48,1.1-4,1-7.82,2.64-11.77,3.87-5.79,1.48-11.2,4-16.7,6.22a234.16,234.16,0,0,0-22.62,6.71c-5.92,1.92-11.51,4.66-17.29,6.93-4,1.49-8.09,2.63-11.94,4.44-2.17,1-4.32,2.08-6.53,3-4.46,1.82-9.15,3-13.71,4.55-3.86,1.32-7.55,3.07-11.36,4.52-4.95,1.89-10.19,3-15,5.22a132.43,132.43,0,0,1-15.89,6.56c-2.48.63-4.92,2.19-7.53,1.85-1.92-.53-2.34-2.67-1.67-4.31,1.63-8.75,5.27-16.92,9-25,4.19-8.3,8.56-16.5,12.88-24.72,2.36-4.06,5.14-7.86,7.57-11.87a224.58,224.58,0,0,1,14.86-22.44A133,133,0,0,1,467,516.73c1.68-1.77,3.28-3.8,5.45-5a2.49,2.49,0,0,1,2.81.48,2.23,2.23,0,0,1,2.48,1.6c.59,5.82,1.46,11.61,1.26,17.48-.25,4.27.53,8.48.51,12.75A123.87,123.87,0,0,0,480,558c0,7.79-.29,15.57-.67,23.36-.16,2.08-.29,4.17-.41,6.26,1.79-.83,3.55-1.74,5.34-2.54,3.2-1.43,6.51-2.59,9.82-3.7,4.42-1.55,8.64-3.6,13-5.37a188.67,188.67,0,0,1,20.11-6.8,2.73,2.73,0,0,1-.82-1.07,95.73,95.73,0,0,1-3.2-12.41c-1.82-6.67-3-13.51-5-20.13-1.18-4-1.61-8.2-2.78-12.22-1.18-4.43-3.08-8.62-4.28-13a2.83,2.83,0,0,1,.8-3.07,2.45,2.45,0,0,1,.8-1,15.54,15.54,0,0,1,4.37-1.63c3.94-1,7.74-2.42,11.73-3.19,5.5-1.08,10.38-3.89,15.67-5.57a2.22,2.22,0,0,1-.92-.88c-1-1.91-.29-4.24-.49-6.3-.1-5.93-.35-11.86-.33-17.79.13-6.39-.22-12.76-.7-19.13,0-6.32-.13-12.63-.36-18.95a239.39,239.39,0,0,0-1-24.4,46.2,46.2,0,0,1-.1-7c0-.31,0-.63.08-.94-1.59.11-3.22.08-4.73.29-3.36.3-6.68.91-10,1.45-.49,1.11-1.14,2.19-1.59,3.25-3.29,6.43-7.6,12.25-11.25,18.44a97.11,97.11,0,0,0,15.27,4.94c6.28,1.92,10.57,3.39,5,9.91-4.11,5.24-8.26,10.44-12.28,15.74a43.25,43.25,0,0,1,6.57,11.21c2.17,5,4.15,10,6.08,15.13a65.79,65.79,0,0,0,2.87,6.56,2.36,2.36,0,0,1-4,2.36c-2.29-3.42-3.33-7.53-5-11.28-1.77-4.9-4-9.6-6-14.38a40.94,40.94,0,0,0-3.6-5.59c-1-1.5-2.43-3.31-1.53-5.2,4.1-6.62,9-12.68,13.75-18.86a28,28,0,0,0-4.29-1.12c-3.1-.61-6-1.78-9-2.69-2.76-1-5.89-1.87-7.92-4.1-1.69-2,1.29-6.61,2.39-8.55,2.83-5.05,6.22-9.78,8.87-14.93C515.21,403.88,510.26,404.93,505.3,406ZM688.88,548l0,.1c.13.57.28,1.13.43,1.7.28,1.24.49,2.5.76,3.74.13.6.28,1.19.39,1.79s.27,1.34.44,2c.33,1.22.81,2.4,1.21,3.6.19.61.38,1.23.59,1.85s.5,1.32.77,2c.36.92.67,1.86,1,2.77a2.29,2.29,0,0,1,.1.23c3.3,11.27,6.6,22.55,10.19,33.74,2.9,9.22,7.33,17.81,11.38,26.55,3,6.62,5,13.63,7.81,20.34,3.36,7.89,7.72,15.28,11.89,22.76,3.11,5.42,5.53,11.18,8.23,16.82,0,.08.08.17.13.25-1.32-5.46-3.82-10.49-5.64-15.77-1.58-5.55-1.92-11.37-3.13-17s-1.59-11.14-2.56-16.68c-1-8.86-1.72-17.73-2.94-26.57-.87-8.85-1.85-17.7-2.1-26.59-.1-4.12-.1-8.23,0-12.35,0-.32.08-.64.1-1,.08-1.06.08-2.12.17-3.18l0-.24.06-.39c.21-.92.45-1.84.61-2.77a15.38,15.38,0,0,0,.25-3.1c0-2-.29-4-.48-6,0-1,0-1.93,0-2.9.11-1.79.23-3.58.2-5.38,0-1.55-.13-3.09-.26-4.64.06-1.33.09-2.66.14-4,.07-1,.13-2,.23-2.93.13-1.22.27-2.42.42-3.63.06-.44.11-.88.16-1.32l.31,0c.3-5.86.68-11.71,1.45-17.53.74-8.61,2.38-17.17,6.3-24.94,3-6,7-11.28,10.47-17,3.25-5.17,5.51-10.91,8.91-16,4.59-6.33,9.61-12.37,13.54-19.16,2.33-4,4.11-8.26,6.39-12.28,3.6-6.08,8.25-12.07,11.31-18.36,3.79-7.3,6.54-15.07,10-22.52,3.5-7.78,7.32-15.43,10.26-23.45,2.44-7.55,4.21-15.29,6.13-23,2.57-11.12,5.93-22.14,7.6-33.38,1.93-13.29,3.08-26.92,3.71-40.33.23-13,.3-26.09-1.07-39.06-.45-6.14-.22-12.28-.31-18.42-.25-9.11-.42-18.21-.29-27.32-.09-8.63.06-17.26.4-25.88-.09-9.32-.23-18.65-.33-28-.32-6.93-.11-13.87-.44-20.79-.43-5.55-1.2-11.07-1.81-16.6-3.68-.27-7.28,1.09-11,1.19a105.41,105.41,0,0,0-19.83,2.81c-5.38,1-10.87,1-16.29,1.75-4,.44-7.89,1.29-11.85,1.79-.93.11-1.88.25-2.82.29.63,7.22-1.52,21.7-1.62,24.33-1.67,18.26-3.47,36.49-6.78,54.54-4.42,27.9-7.63,55.95-11.35,83.95-2.91,24.77-7.57,49.53-18.62,72.09a144.39,144.39,0,0,1-31.43,49.52,91.4,91.4,0,0,1-18.38,9.37c2.76,2.18,5.58,4.29,8.32,6.5,4.75,4.39,9.58,8.71,14.18,13.27,3,3.89-3.67,6.95-6.11,9a87.75,87.75,0,0,0-9.74,7.45A89.84,89.84,0,0,0,689.53,432c3.87,1.8,6.28,3,5.62,7.75-.9,13.05-1.6,26.11-2.42,39.17-1,11-1.34,22.08-2.83,33.05-.14,1.65-.3,3.32-.4,5a2.07,2.07,0,0,1-4.13-.4c.15-1.68.3-3.36.5-5,.26-4.91.62-9.8.76-14.71.79-19.54,2.14-39.06,3.16-58.59a92.28,92.28,0,0,1-11.29-6.13c-2.15-1.58-6.65-3.63-5.94-6.83.44-1.55,2-2.29,3.08-3.38,4-4.12,9.14-6.88,13.59-10.5-6.39-5.67-11.91-11.07-18.75-16.1-1.59-1.25-3.2-2.49-4.73-3.81a65.11,65.11,0,0,1-9.52,1.87c.22.82.44,1.63.65,2.45a117.05,117.05,0,0,1,3.63,16.77c2.48,18.53,7.23,36.62,10.9,54.92,2.28,9.88,5.32,19.56,7.18,29.54,2,10.41,3.43,20.93,5.9,31.27.42,2.15.81,4.31,1.21,6.47l.42.13c.07.48.16,1,.27,1.43s.23,1.08.37,1.61c.35,1.34.8,2.64,1.14,4,.41,1.9.46,3.86.9,5.76l0,.13c0,.06,0,.12,0,.18Zm-55.39,55.87A60.39,60.39,0,0,0,617.94,608c-4.47,1.31-9.13,1.91-13.56,3.43a72.91,72.91,0,0,1-9,2c1.23,3.35,1.73,6.68-.67,8.2-2.9,1.24-5.87,2.36-8.7,3.77-4,2-7.77,4.57-11.84,6.52-6.34,2.81-12.63,5.68-18.8,8.86a1.84,1.84,0,0,1,.21.95c.58,1.5,1.17,3,1.76,4.5,2.07,4.88,2.77,10.15,3.4,15.37,5.24-1.19,10.36-2.89,15.61-4.07a117.12,117.12,0,0,1,13.72-5.12c2.64-1,5.08-2.4,7.76-3.26,8.16-2.62,16.76-3.56,24.9-6.28,3.76-1.09,7.65-1.68,11.36-2.93a51.18,51.18,0,0,1,6.8-2,7.62,7.62,0,0,1-.28-2.19c-.13-1.77-.25-3.55-.43-5.32-.18-2.73-1.14-5.54-.48-8.26.65-2.08,3.14-2.25,5-2.44a34.54,34.54,0,0,1,7.32-.62c-.06-.34-.11-.68-.14-1-.87-3.86-2-7.67-2.63-11.58-.35-1.43-1.46-3.29-1.72-4.9C642.82,602.16,638.18,603.19,633.49,603.87ZM644,624.54a99.51,99.51,0,0,1,.93,10.75,16.31,16.31,0,0,1,.17,1.83c2.47-4.31,4.51-8.84,6.87-13.2h0C649.33,624.26,645.82,623.84,644,624.54Zm-180.31-95c-4.27,6.1-8.76,12.08-12.63,18.45-3.37,6.21-7.53,11.91-11.07,18-7.42,14.43-15.84,28.54-20.38,44.09a149,149,0,0,0,14.42-5.71,51.64,51.64,0,0,1,7.87-3.49,179.86,179.86,0,0,0,19.84-7.29c3.88-1.5,7.9-2.58,11.84-3.89,0-.46.12-.92.2-1.37.23-4.29.46-8.2.52-12.45.11-6.26.29-12.54.16-18.81-.68-5.59-.56-11.18-.69-16.79-.74-5.34,0-10.71-.42-16.07-.2-2.23-.42-4.46-.46-6.7A88.84,88.84,0,0,0,463.72,529.5Zm175.9,17.61c-5.37.89-10.82,1.54-16,3.09a95.11,95.11,0,0,1-15.27,4.2,165.77,165.77,0,0,0-22.83,7.2c-1.94.77-3.9,1.54-5.78,2.46a3.29,3.29,0,0,1-.49.26c.67,2,1.18,4,1.65,6.07,1.24,6.92,4,13.38,6.27,20,1.74,5,2.35,10.38,4.78,15.16.31.77.8,1.77,1.34,2.91l.27-.17c1.89-.88,4.09-.91,6.1-1.41,2.19-.48,4.34-1.14,6.5-1.73,3.7-1.07,7.53-1.54,11.2-2.73a54.89,54.89,0,0,1,12.74-3.64c8-1.1,15.83-3.07,23.91-3.27,4.31-.18,8.63-.15,12.92-.63,1.57-.21,3.36-.14,4.61-1.28.1-2.4-4-3.82-5.79-5-1.6-.82-3.46-1.17-5-2.22a2.74,2.74,0,0,1,0-4.33c3.86-1.83,8.47-1.92,12.26-4-2.14-2.72-11.43-3-15-3.82-2.76-.13-5.2-2.68-2.76-5,2.44-1.38,5.55-.94,8.17-1.88,1.3-.58,5.43-2.15,3.71-3.92-.41-.54-.81-1.24-1.54-1.31-2.08-.36-4.16-.75-6.26-.94-1.07-.08-2.14-.06-3.22,0a25.78,25.78,0,0,1-4-.13,2.56,2.56,0,0,1-1.21-4.25,6,6,0,0,1,2.42-1.22c2.71-1.18,5.81-1.69,8.23-3.41a20,20,0,0,0-7.87-5.13c-2.29-.16-4.58-.28-6.88-.28A51.78,51.78,0,0,0,639.62,547.11Zm-97.72-39a127.91,127.91,0,0,1-14.53,5.26c1.41,5.71,3.23,11.33,4.56,17.06s2.36,11.49,3.8,17.17A116.06,116.06,0,0,1,539,564.17a7.53,7.53,0,0,1,.31,1.39,79.93,79.93,0,0,1,7.55-3.12c5.61-1.75,11.15-3.68,16.74-5.47,2.6-.7,5.31-.72,7.92-1.33,1.82-.23,3.87-1.35,5.38.24a6.26,6.26,0,0,1,1.32,3.23c.75-.39,1.54-.71,2.18-1a172.92,172.92,0,0,1,23.37-8c4.21-1.1,9-1.62,13-3.15a83,83,0,0,1,17.83-4.45,2.62,2.62,0,0,1-1-1.41c-.79-3.73-2.17-7.31-3.06-11-1.27-6.32-1.92-12.74-3.21-19.05-1.57-7.62-4.56-14.91-5.58-22.64-3.88,1.17-7.5,3-11.42,4.06-3.53,1.16-7.53,1.57-11,2.64a2.26,2.26,0,0,1-2.56,1,1.12,1.12,0,0,1-.18.2c-2,1.75-4.88,1.78-7.35,2.48a121.33,121.33,0,0,0-12.5,3.62c-6.27,1.76-12.68,3-19.06,4.29-4.16,1-5.86.48-7-1.34C548,506.8,544.69,507.06,541.9,508.15Zm30.84-23.77c-4,1.33-8,2.45-12,3.58a67.24,67.24,0,0,1-9.43,3.23c0,.19.07.38.1.57a2.2,2.2,0,0,1,0,.63c.54,1.5,1.4,3.12,1.23,4.74a47.4,47.4,0,0,0,1.91,4.93,218.11,218.11,0,0,0,22.76-5.24c4.81-1.89,9.92-2.67,14.94-3.78-1.09-4.09-2.07-8.27-3.92-12.1C583.05,481.9,577.89,483,572.74,484.38Zm-9.2-72.33c4.6,4.95,10.54,8,15.12,12.95,4.28-4.05,8.78-7.83,13-11.92a53.56,53.56,0,0,1,6.5-6.28c1.16-.87,2.4-1.73,3.52-2.7a98.7,98.7,0,0,1-16.49-.16,113.15,113.15,0,0,1-11.33-1.44c-5.4-.24-10.82-.3-16.19-.91-1.91-.32-3.81-.68-5.71-1C556.2,404,559.82,408.13,563.54,412.05ZM647,395.1c-5.8,1.29-11.64,2.39-17.4,3.8-3,.59-5.92,1.15-8.87,1.74s-6.09,1.58-9.17,2.2c1.4,1.45,2.65,3,3.56,3.75,1.45,1.47,3,2.8,4.49,4.26,4.17,5.09,9.94,8.56,14,13.78q6.18-5.62,12.15-11.48c2.09-2.58,4.11-5.22,6.14-7.84a2.39,2.39,0,0,1,1.26-.7c-.7-3-1.5-6-2.28-8.95-.09-.49-.21-1-.33-1.47A35.71,35.71,0,0,0,647,395.1Zm-114.08-58a2.29,2.29,0,0,1-.77,2.39q.86,2.44,1.65,4.9c2.07,6.49,3.79,13.08,6,19.52,1.2,3.47,2.22,7,3.38,10.48a53.52,53.52,0,0,1,3.26,19.89l.4.07c4.89.67,9.73,1.8,14.65,2.29,3.54.23,7.09.46,10.64.54,4.82.29,9.59,1.76,14.42,1.9a117,117,0,0,0,13.89.07c6.92-.32,12.91-2,19.41-3.58,4.94-.92,9.86-1.89,14.72-3.18a126.21,126.21,0,0,0,14.53-3.3c-3.32-9.77-8.18-19-10.57-29.07-.73-2.59-1.68-5.11-2.52-7.66-.45-1.58-1.17-3.3-.76-4.95.67-1.9,2.43-3.14,3.87-4.44,2.81-2.68,5.65-5.34,8.4-8.07a39.51,39.51,0,0,0,8.89-17.64c1.26-7.95-1.08-15.94-3.3-23.51-1-3.35-1.83-6.73-2.93-10-2-5.84-5.08-11.22-7.95-16.66-1.15-2-2.13-4.09-3.13-6.17a10.68,10.68,0,0,1-1.39,5.74c-2.72,5.39-9.4,8-15.19,6.94-3.69-.28-6.91-3.59-6.12-7.41.51-2.8,1.84-5.86,4.48-7.22,3.42-1.79,7-3.48,10.9-3.88,2-.18,5.66-.34,5.09,2.64a4.22,4.22,0,0,1,1,.67,46.32,46.32,0,0,0-2.81-5c-1.3-1.69-2.51-3.45-3.63-5.25a5.18,5.18,0,0,1-1.11.81,64.91,64.91,0,0,1-8,4.13c-4.76,2.34-9.61,6.85-15.18,6.14v.11c0,.69.5,1.26.74,1.88a35.23,35.23,0,0,0,5.56,8.74,32.76,32.76,0,0,1,7.57,9.17c1.65,3.58,1.92,8-.13,11.51a9.12,9.12,0,0,1-9.79,3.94,5.26,5.26,0,0,1-3.56-2.31,2.41,2.41,0,0,1,2.07-3.6c1.28,0,2.43.66,3.69.78,2.89.16,4.5-2.7,4.23-5.31-.34-3.55-3.24-6.28-5.63-8.7-4.43-3.68-7.29-9-9.22-14.37-.43-1.55.29-3.07.78-4.53a4.45,4.45,0,0,1,1-2c-.44-2.29,2.47-2.72,3.48-4.3,3.08-3.53,7.66-5,11.93-6.61,2.57-.71,5.88-2.13,8.46-1q-.66-1.29-1.29-2.61c-.73-1.36-1.45-2.72-2.2-4.06a2.54,2.54,0,0,1-.34-1.18c-2.06-.25-4.12-1.07-6.18-1.19-3.07,1-6.1,2.52-9.42,2.72-6.89-.6-10.88-1.81-17.44,1.8-3.07,1.56-6,3.39-9.14,4.82-2.83,1.25-5.82.76-8.81.27a23.7,23.7,0,0,0-6-.46c-3.38.46-5.67,3.58-8,5.72-2.29,2.46-3.22,6-5.92,8.09-4.57,3.3-11,1.79-15.53,5.13a12.3,12.3,0,0,0-1.91,5.88,2,2,0,0,1,.09.69,26,26,0,0,1,.17,8.12c-.53,4.33-2.69,8.18-4.89,11.87-1.06,1.44-2,4.32-3.67,5.34,1.5,3.89,3.83,7.63,5.37,11.5.78,1.72,1.45,3.48,2.11,5.25,1,2.84,2.5,5.58,2.71,8.62a4.19,4.19,0,0,1-2.9,4.22c-1.24.6-2.68,1.06-3.91.17-1.76-1.47-2.6-3.77-3.93-5.59s-2.48-3.5-3.8-5.19a17.89,17.89,0,0,0-1.73,2.34,2,2,0,0,1-.44.34,2.26,2.26,0,0,1-.93,1.79c-4.91,2.16-9.57,4.63-7.82,10.9,2.84,6.81,9.13,8.83,16,7.59a7.79,7.79,0,0,1,1.47-.15C531.3,335.31,532.55,335.7,532.91,337.08Zm89.32-73.47c-3.86,4.74-.32,6.21,4.37,6.07,4.09-.37,8.74-3.77,8.49-8.18-.36,0-.74,0-1.13-.08a4.89,4.89,0,0,1-6.12,3.71,6,6,0,0,1-4-2.47C623.27,263,622.74,263.27,622.23,263.61ZM769,24a29.59,29.59,0,0,0-4.42,5.79c-2,4.28-1.81,9.19-1.69,13.82.64,5.68,2.2,11,3,16.67.79,6.75,2,13.5,2.34,20.28.16,2.58.45,5.47.56,8,2.34-.39,4.68-.75,7-1,4.52-.53,9.08-.64,13.57-1.35,7.2-1.4,14.4-2.91,21.77-2.94.6,0,1.23-.1,1.89-.19,0-7.84-1.29-15.64-1.54-23.49-.16-3-.69-6.1-.57-9.14a3,3,0,0,1,.39-1.49,7.41,7.41,0,0,1-2.08-2.79,9.72,9.72,0,0,1-5.75,0,6.75,6.75,0,0,1-4.34-3.16c-.26.46-.52.87-.76,1.21a6.5,6.5,0,0,1-6.93,2.2,10.13,10.13,0,0,1-4.73-2.78c-2.37,1.67-5.53,2-9.08.71A11.26,11.26,0,0,1,770,34.63c-.09-2.07-1.08-4.67.6-6.33a2.47,2.47,0,0,1,3.84.5c.66,1.05.51,2.35.56,3.54.18,2,.42,4.2,1.83,5.78,1.85,1.52,4.73,2.58,7,1.44,2-1.64,2.42-4.56,1.83-7a15.09,15.09,0,0,0-2.27-5c-1.59-2.2-3.15-4.53-5.37-6.14a5.93,5.93,0,0,0-3.47-1.36C772.38,20.08,770.6,21.73,769,24Zm49.22-4.46A4.5,4.5,0,0,1,817,20.87c-.69,7.12-2.86,14-3.51,21.13a7.77,7.77,0,0,0,.81,3,2.76,2.76,0,0,1,1.32,2.49,18.09,18.09,0,0,0,3.48-4.07,32,32,0,0,0,3.5-6,37.28,37.28,0,0,0,1.66-9.56c.08-3.94.35-8-.69-11.88C821.46,16.41,819.78,18,818.26,19.52Zm-21-14.31a13.74,13.74,0,0,0-6.58,5.4c-1.09,1.38-1.61,3.55-3,4.57a1.34,1.34,0,0,1-.24.12,36.08,36.08,0,0,1,.13,6.65,2.31,2.31,0,0,1-.58,1.27c2.81,4.06,4.69,8.79,3.81,13.71a14.58,14.58,0,0,1-.67,2.26,4.07,4.07,0,0,0,2.44,2c3.09,1.23,1.89-4.83,4.92-5.45,0-.5,0-1,.07-1.47a55.54,55.54,0,0,1,1.29-10.83c.71-3.25,1.34-6.65,3-9.57-.06-.74-.06-1.49-.1-2.13-.13-2.08-.61-4.28-2.26-5.69a3.56,3.56,0,0,0-1.78-.92A1,1,0,0,0,797.29,5.21Zm13.86,5a21.63,21.63,0,0,0-3.88,4.28A18.58,18.58,0,0,1,806,16.4h0a45,45,0,0,0-1.46,5.5A61.63,61.63,0,0,0,803.1,37c.14,3.69,1.77,5.08,5.34,3.68h0a20.66,20.66,0,0,1,.72-4.16c.88-5.62,2.06-10.93,3.43-16.39a9.5,9.5,0,0,1,.87-2.2h0c0-.2,0-.4.06-.59a15.46,15.46,0,0,0-.32-5.17c-.35-.75-1-2-1.89-2ZM782.66,18c0-1.61.1-3.23.09-4.83a5.15,5.15,0,0,1,.49-2.49,2.24,2.24,0,0,1,.51-.66,9.86,9.86,0,0,0-1.55-4.37c-3.72-2.82-7.76,3-9.8,5.64a10.89,10.89,0,0,0-1.67,4.11,9.21,9.21,0,0,1,3.87-.87C777.17,14.55,779.89,15.66,782.66,18Z"/><path d="M748.91,531.62h0v0Z"/><path d="M688.83,547.8l0-.13,0-.08.06.23Z"/><path d="M677.49,553.76l.13-.09c0,.21.11.42.17.62Z"/><path d="M664.46,546.17l.12.12,0,0Z"/><path d="M643.63,499.94v0Z"/><path d="M643.63,499.92h0Z"/><path d="M684.54,552v0Z"/><path d="M683.68,549c0,.08.05.16.08.25Z"/><path d="M605.6,406.85h0Z"/><path d="M604.42,468.34v-.07h.05l.17-.05-.19.24Z"/><path d="M619.48,463.19l.11-.16,0,0,.68-1,.14.36-.74.88Z"/><path d="M609.87,430.56v0h0Z"/><path d="M603.43,414.34l-.09.07Z"/><path d="M610.86,413.68l-.06-.15.09.2Z"/><path d="M473.45,513.64c-2.3-4-6-6.92-9.66-9.71a2.75,2.75,0,0,1,3-4.56,35.1,35.1,0,0,1,9.56,9c.72,1.2,1.86,2.36,1.89,3.83C478.32,514.79,474.89,515.68,473.45,513.64Z"/><path d="M472.36,492.6c-1.45-2.36-2.58-4.91-3.89-7.34-.71-1.55-2.33-3.55-.84-5.12,1.19-1.32,3.83-.43,3.75,1.4,1.27,2.13,2.41,4.34,3.56,6.55.86,1.63,2.45,4.28.08,5.38A2.16,2.16,0,0,1,472.36,492.6Z"/><path d="M409,617.36c-1.55-2.92,2.25-4.51,4.47-5.22,1.3-.43,2.86-1,4.19-.42a2.22,2.22,0,0,1,.9,3.35c-.79,1-2.16,1.39-3.27,2C413.33,618,410.47,619.82,409,617.36Z"/><path d="M397.17,608.19c-2.2-.09-6.05-.15-5.8-3.24a2.5,2.5,0,0,1,2.43-2.17,65.4,65.4,0,0,0,8.74.17c2.75,0,7.55-1.38,9.19,1.47.75,1.68-1,3.19-2.64,3-.72,0-1.44,0-2.16,0A56,56,0,0,1,397.17,608.19Z"/><path d="M727.27,475.56c-2.37-.36-1.79-3.17-1.63-4.89.3-2.76.7-5.51,1.1-8.26s.69-5.25,1.1-7.86c.21-1.12.23-2.43,1-3.32a2.09,2.09,0,0,1,3.47.9c.28,3.61-.59,7.27-1,10.86-.41,2.74-.79,5.5-1.2,8.24C729.87,473,729.61,475.8,727.27,475.56Z"/><path d="M737.55,477.41A2.13,2.13,0,0,1,735.7,475c.38-2.09,1-4.12,1.47-6.2.56-1.83.36-4.15,1.82-5.56a1.45,1.45,0,0,1,1.45-.44c2.14.61.76,5.07.74,6.78a45.33,45.33,0,0,1-1.3,6.23A2.18,2.18,0,0,1,737.55,477.41Z"/><path d="M764.77,757.53c-.75-3-.84-6.09-1.53-9.09-.35-2.63-3.58-9.55,1.18-9.51.45.07.9.12,1.35.2a1.46,1.46,0,0,1,.46,2.74c1.31,4.93,2.76,9.94,2.56,15.08a2,2,0,0,1-4,.58Z"/><path d="M782.66,798c-1.69-3.31-1.95-7.4-2.82-10.91a171.17,171.17,0,0,0-4.83-17c-.84-3-2-6-2-9.12s4.8-3,4.39.28c1.29,6,3.52,11.81,5.08,17.77,1.1,4,1.86,8.06,2.7,12.11.22,2,2.25,6.86-.44,7.74A1.87,1.87,0,0,1,782.66,798Z"/><path d="M801.55,823c-1.65-2.7-4.95-9.6-2.61-12.37a1.75,1.75,0,0,1,2.45-.06,3.76,3.76,0,0,1,.8,2.36c.67,2.86,2,5.52,2.8,8.34A2,2,0,0,1,801.55,823Z"/><path d="M419.21,841.59c-1.61-2.22,2.07-6,3.07-8.08,1.6-2.63,3-5.47,5.26-7.62a1.85,1.85,0,0,1,2.91,2.22c-.7,1.13-1.43,2.23-2.14,3.35-1.85,3.11-4,6.07-5.74,9.21A1.9,1.9,0,0,1,419.21,841.59Z"/><path d="M428.46,818.19c-2.35-.74-1.46-3.36-.39-4.84,1.89-3.06,4-6.47,6-9.31.78-1.19,1.5-2.45,2.37-3.58a2.06,2.06,0,0,1,3.41,2.28c-2.81,4.26-5.6,8.48-8.45,12.72-.63.66-.52,1.54-1.11,2.23A1.84,1.84,0,0,1,428.46,818.19Z"/><path d="M932.85,499.49c-4.88-.11-9.86-.78-14.12-3.32-3.66-2.07-7.18-4.77-8.92-8.71-3.68-8.85.7-20.4,5.81-27.9,5.7-7.07,14.65-10.1,23-12.83,5.3-1.68,10.82-3.7,16.46-2.93,2.26.16,4.39,2.46,2.94,4.67a2.78,2.78,0,0,1-2.36,1.16,14,14,0,0,0-3.15-.5,28.9,28.9,0,0,0-6.65,1.11c-6.93,2.21-14.14,4.12-20.4,7.93a20.23,20.23,0,0,0-6.73,6.57,41.28,41.28,0,0,0-4.58,12.57c-1.15,7.91,2.46,11.93,9.41,15,4.45,1.78,9.39,1.44,14.09,1.6a81.25,81.25,0,0,0,9-.49,3.36,3.36,0,0,1,2.61.39,2.91,2.91,0,0,1-1.06,5.22A108.62,108.62,0,0,1,932.85,499.49Z"/><path d="M976.43,554.33c-17.28-1.61-36.77-15.1-40.58-32.65-2.33-8.16.35-15.93,4.26-23.12,1.17-1.86,2.57-4.25,4.95-4.55a3,3,0,0,1,3.3,2.66c.26,1.05,1,2.12.74,3.22-.55,1.5-2.35,1.11-3.35.34-3,5.17-5.75,11.21-4.88,17.32A30.07,30.07,0,0,0,949.58,535,46.53,46.53,0,0,0,971.4,548c17.38,3.83,25-.26,40.45-6.64,5.64-2.2,11.48-4.09,16.51-7.53,2.57-1.07,5.08-4.9,8.05-3A83.65,83.65,0,0,0,1051.09,542a55.36,55.36,0,0,0,16.9,5.85c4.62.61,9.3.19,14,.31,3.89,0,7.77.36,11.66.07a99.84,99.84,0,0,0,13.7-2.56,35.43,35.43,0,0,0,14.78-7.44,22.72,22.72,0,0,0,4.26-5.06c1.22-2.25,2.89-6.6,6.12-4.71,3.08,2.27-.93,6.08-2,8.47-5.93,9.15-16.65,13.42-27,15.32a65.57,65.57,0,0,1-19.25,1.63c-5.47-.21-11,.36-16.42-.28-12.9-1.73-24.63-8.54-33.93-17.45-3.82,1.88-7.2,4.6-11.17,6.22-3.79,1.64-7.65,3.12-11.48,4.67C999.19,552.44,989.83,556.05,976.43,554.33Z"/><path d="M1138.86,536.65c-4.88-.57-10-1.65-13.8-4.95-1.47-1.19-2.9-2.43-4.37-3.61-1.73-1.2-3.73-3.09-2.24-5.28,2.31-3.11,5.56.34,7.58,2,1.85,1.48,3.56,3.21,5.74,4.2,5,1.91,10.24,2,15.45,1.43,6.66-.54,13.34-.92,20-1.33,4.35-.55,8.4-2.32,12.61-3.46,8.62-2.37,16.93-6,23.52-12.2,4.92-4.75,12.75-10.42,10.42-18.18-.8-2.67-1.73-5.31-2.45-7.91-.49-1.64-.88-3.61.4-5,.84-1,2.31-1.27,3.52-1.58,5.66-1.64,11.43-3.45,16.26-6.91,2.35-1.73,3.44-4.53,4.64-7.08,2.3-5.37,1.82-11.51.79-17.13-.69-3-3-5.6-4.74-8s-3.33-4.44-5.28-6.61c-2.45-2.39-5.15-4.49-7.82-6.62-3.85-3.24-8.76-4.59-13.41-6.26a56.91,56.91,0,0,0-19.54-3.64c-4.7-.23-9.3-1.37-14-1.47a125.09,125.09,0,0,0-22.07,2.88,36.22,36.22,0,0,0-8.64,3.37c-2,1.06-4,2.83-6.39,2.65-2.86-.61-5.44-2.24-8.07-3.47-10.38-5.5-22.29-7.15-33.89-7.58-7.16-.21-14.46-.83-21.45,1.12-11.48,2.86-22.4,7.32-30.24,16.57-1.84,1.93-3.13,4.33-4.76,6.41a2.93,2.93,0,0,1-3.3.38,14.14,14.14,0,0,1-2-1.79,43.35,43.35,0,0,0-9.79-5.2c-6.86-2.44-13.85-5-21.16-5.57-3.4-.2-6.84,0-10.22,0a28.57,28.57,0,0,0-8.4,1c-7.16,1.95-12.88,6.77-18,11.92a22,22,0,0,0-5.32,7.28,1.53,1.53,0,0,1-1.51,2.22,2.63,2.63,0,0,1-3.69-2.64,11.79,11.79,0,0,1,1.93-4.54c2-3.29,4.9-5.93,7.71-8.55,6-6,13.84-10.55,22.39-11.55a165.71,165.71,0,0,1,17.12,0,48.16,48.16,0,0,1,9.2,2c7.86,2.25,15.84,4.91,22.51,9.75,9.66-14.08,23.9-20,40-23.32,6.25-1.09,12.61-.64,18.91-.49,9,.31,18.08,1.29,26.69,4,5.47,1.7,10.4,4.67,15.64,6.91,8.47-5.46,16.74-6.87,26.52-8.16a53.45,53.45,0,0,1,19.25,0c5.9.82,12,.37,17.78,1.76,4.57,1.1,9,2.67,13.43,4.19a32.3,32.3,0,0,1,8.22,3.9,98.7,98.7,0,0,1,10.7,8.76c2,2.23,3.81,4.71,5.63,7.13,4.18,5,6.41,9.54,6.48,16.16.16,4.49.23,9.1-1.52,13.33-1.42,3.36-2.9,6.87-5.58,9.44-5.4,4.73-12.55,6.82-19.31,8.8,1.85,5.76,4.63,11.65,2.1,17.68a18.54,18.54,0,0,1-2.94,5,77.39,77.39,0,0,1-12.92,12.4c-7.15,5.73-16,8.47-24.66,11a83.45,83.45,0,0,1-8.6,2.47c-6,.94-12,.69-18,1.38C1147.56,536.29,1143.22,536.92,1138.86,536.65Z"/><path d="M964,490.23c-4.11-.84-13.74-4.54-13.72-9.49a2.4,2.4,0,0,1,3.14-2.1,2.33,2.33,0,0,1,1.43,1.43c3,2.8,7.13,3.77,10.73,5.51A2.48,2.48,0,0,1,964,490.23Z"/><path d="M1191.7,479.8c-2.65-2,.48-5,1.24-7.24a11.19,11.19,0,0,0,.76-3.05,2.75,2.75,0,0,1,.43-1.76,2.6,2.6,0,0,1,4.67,1.35C1199.48,472.14,1195.88,482.33,1191.7,479.8Z"/><path d="M1123.4,504.43c-2.1-1.47-4.83-4.54-4.53-7.26a2.14,2.14,0,0,1,3.29-1.34h0c1.69,1.45,3,3.32,4.6,4.84A2.55,2.55,0,0,1,1123.4,504.43Z"/><path d="M144,298.64c-15.44-2.44-29-7.66-38.65-20.54-5.56-5.85-5.77-14.1-8.07-21.38a65.33,65.33,0,0,1-35.08,9.77c-19.73,1.24-42.76-3.88-54.79-20.81C-2.88,234.32-.61,218,3.23,204.43c3-15.25,16.52-24.91,30.28-30.05,14.63-5,30.91-2.12,45,3.36a27.79,27.79,0,0,1,22.65-7.23c1.21-12.09,12-17.16,21.6-22.3,17.72-7.32,41.34-6.39,59.29-.18,10.29,3.37,21.13,6.34,29.6,13.43,6.2-11.81,20.53-14.68,32.35-17.92,16.83-4.41,34.21-.7,50.07,5.5,5.49,1.9,11.28,3.35,16,6.83,8.59-3.85,17.08-8.54,26.42-10.23,17.55-2.26,37.07-2.64,52.63,6.92,10.17,7.63,19.85,16.95,25.32,28.59,4.45,13.17,8.4,28.2,3.49,41.75-3.48,11.77-15.07,16.88-25.26,21.75-15.59,7.52-33.47,10.12-50.43,6.34-3.06,7.68-9.65,13.12-16.29,17.68-5.72,3.46-12.8,3.75-19.31,3.87-2.78,5.59-8.42,8.84-13.73,11.68-11.18,6.51-24.11,8.9-36.9,9.56-11.05-.1-22.35,1.54-33-2.37-4.74-1.41-9.71-3.15-12.93-7.13-5.46,5.49-13.41,6.77-20.39,9.39C175.2,298.49,159.28,300.67,144,298.64Zm6.72-4.56c15.33.6,30.47-2.8,44.78-8,3.9-1.26,7.93-2.68,10.92-5.6,1.13-1,1.85-2.65,3.45-3,2.94-.61,3.2,2.9,4.92,4.36,4.28,3.76,10.29,4.77,15.64,6.24,5.35,1.23,10.84.87,16.27.54,12,0,24.4-.66,35.68-5.13,5.93-2.89,12.45-5.48,17.29-10.06,2-1.68,2.43-4.89,5-5.85,5.79,0,12,.25,17.35-2.57,7.29-4.55,13.39-10.7,16.81-18.62,2.59-2.42,7.95,1.13,11.38,1a71.07,71.07,0,0,0,26.53-2.1,86.21,86.21,0,0,0,17.62-7.11c8.52-3.91,17.31-9.24,19.25-19.17,3.16-12-.48-24.8-4.4-36.22-5.66-10.93-14.86-19.92-24.92-26.89-15.43-7.32-33.34-7.06-49.82-4-6.84,1.87-13,5.47-19.68,7.89,1.51,1.63,3.42,3,4.48,5a2.77,2.77,0,0,1-3.69,3.66c-3.75-2.68-6.44-6.77-10.63-8.95-14.71-6.22-30.33-12.33-46.49-12.44-12.52,1.15-37.61,5.07-42.51,18.36-.13,2.17-2.05,4.21-4.27,3.12-7.31-7.61-17.42-11.19-27.32-14.24a89.26,89.26,0,0,0-49.06-4.35A51.88,51.88,0,0,0,109,163.77c-2.38,3.17-2,7.53-4,10.87-1.14,1.79-3.39,1.4-5.16,1-4.62-.54-9.33.85-13.51,2.76-3.4,1.82-6.4,6.9-10.62,3.91-13-5.16-28.28-7.52-41.73-2.69-17.71,7.2-25.87,17.7-27.94,36.77-.81,6.92-1.62,14.51,2,20.79A42.49,42.49,0,0,0,31.41,256.7c11.79,5.16,24.76,4.86,37.33,3.89,16.13.34,29.44-13.54,32.36-9.26,2.37,5.57,2.43,12,4.59,17.65C114.19,286.44,132.51,292.71,150.76,294.08Z"/><path d="M334.31,172.12c-1.75-.12-2.63-1.88-3.61-3.1-1-1.38-2-2.74-3.18-4-2.61-1.78-.74-5,2.11-3.94,3,1.42,5.09,4.3,7.12,6.82A2.75,2.75,0,0,1,334.31,172.12Z"/><path d="M465.64,1208.9c4.12.86,6.18,4.64,4.06,8.43-1.51,2.61-4.38,3.93-6.95,5.26,4,.75,6,6.16,3.88,9.47-2.72,3.87-8,4-12.25,4.36a21.1,21.1,0,0,1-4.56.14c1.7,5.25-4.76,6.21-8.52,6.36a16,16,0,0,1-7.42-2.31c-.05,3.17-3.69,4-6.27,4-8.6-.09-15.84-5-23.31-8.85,1.05,4,1.72,8.42,2.92,12.4,1.19,4.28,1.43,8.77,2.85,13,1.1,3,3.06,5.58,4.73,8.28a39.21,39.21,0,0,1,2.79,6.85c1.37,4.2,4.33,9.73,2.47,14.08-1,1.85-3.29,1.49-4.92.75-3.86-1-6.79-3.71-9.34-6.66.43,4.64,1.77,11.61-.87,15.68-3.15,3.15-6.47-1.7-8.31-4a34,34,0,0,1-5.23-8.87c.22,2.88.62,5.82.15,8.7-.69,4.61-4.21,9.06-8.3,4.27-1.6-1.83-2.24-4.27-2.8-6.59-.93-4.56-1.76-9.14-2.58-13.72-.59-4.68-1.41-9.32-1.76-14-.23-3.58.08-7.17-.07-10.74-.63-5.13-1.49-10.23-2.11-15.37-3.28,4.42-6.86,9.35-12.56,10.6-2.09.31-5.1,1.05-6.43-1.1-4.93,3.67-19.11,10.62-23,3-3.71,2.14-15.51,2.44-15.43-3.6-5.72.66-14.28.08-18.29-4.5-1.82-2.09-2.93-6.42.69-7.25,3.7-1.16,7.64-1,11.4-1.93,12.65-3.31,25.36-7.57,36.29-14.91,2.82-1.82,5.84-3.38,8.36-5.63,1.61-1.57,3.05-3.31,4.52-5,2.93-3.63,5.88-7.56,7.16-12.1,1.11-6-.21-12,.86-18,1.23-8,3.39-12.4,5.57-14.57a7.84,7.84,0,0,1,4.49-2.5c4.8-1.61,10.07-1.68,14.25,1.48,5,3.12,8,8.7,10.49,13.89,1.48,3.55,2.37,7.3,3.61,10.94a42.84,42.84,0,0,0,7.2,12.3c4.6,5.17,11.48,7,17.67,9.52,2.75.89,5.67,1,8.52,1.36,3.44.38,6.94,1.13,10.38.3,3.12-.69,6.22-1.52,9.28-2.44C461.11,1209.12,463.42,1208.2,465.64,1208.9Z"/><path class="cls-1" d="M380.58,1164.39c-1.21-1.13-1.75-3-2.51-4.4-1.18-2.77-2.87-5.29-4.09-8a2.26,2.26,0,0,1,1.76-3c1.46-.24,2.25,1.15,2.95,2.19a27.18,27.18,0,0,1,3.44,6.39c1.09-2.74,2-5.58,3-8.32a2.33,2.33,0,0,1,4.31,1.48c-1,3.35-2.73,6.47-3.91,9.77C384.78,1162.55,383.26,1166.23,380.58,1164.39Z"/><path class="cls-2" d="M373.59,1170.3a2.12,2.12,0,1,1,2.12,2.1A2.13,2.13,0,0,1,373.59,1170.3Z"/><path class="cls-2" d="M391.58,1170.66a1.69,1.69,0,1,1,3.38,0,1.69,1.69,0,0,1-3.38,0Z"/><path class="cls-2" d="M635.09,261.5c.25,4.41-4.4,7.81-8.49,8.18-4.69.13-8.23-1.33-4.37-6.07.51-.34,1-.66,1.57-.95a6,6,0,0,0,4,2.47,4.89,4.89,0,0,0,6.12-3.71C634.35,261.46,634.73,261.48,635.09,261.5Z"/><path class="cls-2" d="M583.44,284c3.81,1.92,2,5.56-.6,7.62-2.12,1.82-4.44,3.56-7.33,3.73-3.16.3-8.67-.71-7.72-5a6.2,6.2,0,0,1,3-4.45c.37,2.51,3.18,3.71,5.36,4.21C579.73,291.07,584,287.89,583.44,284Z"/><path class="cls-2" d="M379.93,923.52c-1.5,9.22-3,18.46-4.09,27.73-2.21-.68-4.46-1.26-6.7-1.78l-.62-.12c.81-2.66.72-6.45,1.25-8.23,1.76-6.59,2.37-13.36,3.21-20.09l.06-.33C375.33,921.66,377.62,922.61,379.93,923.52Z"/><path class="cls-2" d="M702.24,1249.94c.34,3.26.48,6.57.85,9.84-2.81-.43-5.62-.88-8.41-1.43a75.22,75.22,0,0,0-10.7-2.2c-2.82-.31-5.61-1-8.4-1.4.26-3.46.44-6.93.38-10.42,0-4.73.29-9.45.19-14.18,6,.85,11.89,1.92,17.84,2.86,2.39.24,4.79.52,7.18.79,0,1,0,1.92,0,2.67A83.27,83.27,0,0,0,702.24,1249.94Z"/><path class="cls-2" d="M652,623.92h0c-2.36,4.36-4.4,8.89-6.87,13.19a16.35,16.35,0,0,0-.17-1.82,102.12,102.12,0,0,0-.93-10.75C645.82,623.84,649.33,624.26,652,623.92Z"/><path class="cls-3" d="M518.33,311.66c-.78-1.26-.36-2.81-.12-4.17a79.84,79.84,0,0,0,1.13-8.15,46,46,0,0,1,1.57-10.17c.23-1.14.5-2.27.83-3.39.68-2,2.34-3.4,3.74-4.88a78.42,78.42,0,0,1,11.11-9c3-2.12,6.42-3.56,9.49-5.56a93.86,93.86,0,0,1,9-5.13,112.3,112.3,0,0,1,13.11-6.47c6.3-2.72,12.4-5.88,18.86-8.22,2-.78,4-1.66,5.94-2.54,3.76-1.74,7.83-2.71,11.56-4.52a51,51,0,0,1,6.6-3c3.33-1,6.74-1.75,10-2.91A132.62,132.62,0,0,1,636,229.71c2.23-.62,4.85-1.15,5.49,1.87.3,2.23-1.83,3.28-3.74,3.38-2.08.45-4.14,1-6.2,1.47-6.36,1.44-12.45,3.85-18.8,5.35-4,1.58-7.68,3.86-11.86,5-12.29,4.58-24.29,9.86-36.27,15.18-6.21,3.24-12.43,6.43-18.37,10.13a75,75,0,0,0-7.27,4.21l.2-.13.05,0c-2.31,1.62-4.56,3.31-6.71,5.13-2,2-4.61,3.82-5.9,6.35-.36,2-1.34,4.32-1.61,6.08-.51,2.67-.58,5.38-.93,8.07-.42,3.13-1,6.26-1.67,9.35A2.24,2.24,0,0,1,518.33,311.66Z"/><path class="cls-3" d="M523.85,310.51c-.57-1.63.67-3.11,1.18-4.58a66.15,66.15,0,0,1,3.87-7.54,29.1,29.1,0,0,0,2.73-4.74c2.2-2.92,4.48-.19,6.18,1.65s3.13,4.07,4.84,6a25,25,0,0,0,8.23,4.15,41.4,41.4,0,0,0,6.4.32c5.83.44,11.8-1.8,17.22-3.41,5.25-2.36,11.91-3.79,14.83-9.25,9.34-19.49-6.16-21.5,15-31.21a2.79,2.79,0,0,1,2.14,5.16c-2.76,1.34-5.9,2.44-8.17,4.53a2.59,2.59,0,0,0-.5,2.12,41.49,41.49,0,0,1-4.95,23.43c-1.51,2.5-4.1,4-6.53,5.51a89.21,89.21,0,0,1-18.16,6.71,29,29,0,0,1-6.7,1.43c-4.46-.06-9,.54-13.38-.76-3.7-1.24-7.46-3.08-10.07-6.06a60.08,60.08,0,0,0-4.12-5.16,92.88,92.88,0,0,0-5.12,9.32c-.76,1.33-1.23,3.53-3.07,3.61A2,2,0,0,1,523.85,310.51Z"/><path class="cls-3" d="M629.73,283.27a30.67,30.67,0,0,1-7.32-1.58,2.57,2.57,0,0,1,1.13-5c3.57.84,7.22,2,10.91,1.15,4.92-1.22,10-2.13,14.39-4.72A18.13,18.13,0,0,0,654,269c1.92-2.81,1.54-5.91.52-9-.9-5.49-5-9.41-7.81-13.93a28,28,0,0,1-3.19-7.61c-.56-1.19-.84-2.8-1.93-3.61-1-.14-2,0-3-.17a2.65,2.65,0,0,1-2.27-2.25c-.25-3.8,5-3.57,7.56-2.74,2.73,1.1,3.77,4.08,4.84,6.59.88,2.66,1.68,5.33,3.39,7.61,3.14,4.33,6.78,8.57,7.68,14,1.16,4.31,1.62,7.8-.52,11.92-1.2,3.29-4.3,5.2-7.09,7a34.8,34.8,0,0,1-12,4.78C636.85,282.69,633.34,283.66,629.73,283.27Z"/><path class="cls-3" d="M622.37,281.34c-2-.21-2.56-2.28-3.45-3.71a30.08,30.08,0,0,0-5-6.54c-1.18-1.23-2.27-2.72-4-3.22a23.9,23.9,0,0,0-5-1,2.35,2.35,0,0,1-2.47-1.42c-.7-1.64.79-3.25,2.42-3.3,4.32-.27,9,1,11.94,4.31a40.82,40.82,0,0,1,7.36,9.89C626.1,278.23,625.3,281.56,622.37,281.34Z"/><path class="cls-3" d="M622.61,472.53c-2-2.09-3.32-4.85-4.74-7.37-3.11-5-4.84-10.69-6.56-16.31-.64-3.28-1.14-6.6-1.8-9.89a44.54,44.54,0,0,0-1.43-9.6c-.48-2.05-.78-4.55.86-6.16a22.52,22.52,0,0,0,4.57-5,48,48,0,0,0-6.37-7.21c-1.63.74-2.65,2.34-4,3.49-2.19,1.67-4.17,3.57-6.28,5.32a2.29,2.29,0,0,1-3.62-1.26,2.38,2.38,0,0,1,1.25-2.58,20.49,20.49,0,0,1,2.91-2.51c2.45-1.61,4.14-4.08,6.6-5.65,1.11-1,2.56-2.46,4.15-1.68a9.82,9.82,0,0,1,2.19,1.88,20.29,20.29,0,0,1,3.35,3c1.37,1.55,2.25,3.43,3.66,4.95a2.64,2.64,0,0,1,.64,4.37c-1.92,2-3.4,4.51-5.57,6.33.23,2.06.93,4,1.27,6.07s.29,4,.58,6c1,5,1.82,10.05,3.76,14.79,1.64,5.37,4.6,10.21,7.46,15,.91,1.24,1.41,3.14-.06,4.17A2.34,2.34,0,0,1,622.61,472.53Z"/><path class="cls-3" d="M605.6,478.59c-.82-.94-.91-2.24-1.24-3.39-1.59-6.11-2.31-12.37-3.34-18.6-1.21-5.13-1.36-10.35-1.69-15.46.42-4.74.5-9.48.46-14.24a3.34,3.34,0,0,1-.46-1.8c-2.28-1.68-6.26-3.24-6.41-6.47a2.09,2.09,0,0,1,3.58-1.35,6.29,6.29,0,0,1,1-1.74c1.23-1.56,3-2.4,4.61-3.54a2.67,2.67,0,0,1,4.29-1.36h.17a2.46,2.46,0,0,1,3.6-.55c1.08,1,1.46,2.58,2.17,3.87,2.31.46,3.71,3.9,1.92,5.65a2.44,2.44,0,0,1-2.65,1.81c0,.3,0,.61,0,.91a13.34,13.34,0,0,1-.1,2.19h0a2.25,2.25,0,0,1-.66,1.24c-.47,3.1.07,6.75-1.75,9.44a66.08,66.08,0,0,0,3.64,11.35c2.2,5.57,3.81,11.41,6.63,16.71,1.65.61,3,2.16,2.45,4,3.42,4.8,1,5.95-3.65,7-2.34.92-4,2.9-6.34,3.87C610,478.9,607.36,480.42,605.6,478.59ZM615,467l.24-.23-.32-.26C614.91,466.71,614.93,466.88,615,467Z"/><path class="cls-3" d="M763.57,546.44c.39,2.34-2.41,3.44-3.49,5.19a29.92,29.92,0,0,1-4.44,5.09,95.09,95.09,0,0,1-7.56,8,21.18,21.18,0,0,1-5.75,3.06c-2.63.84-5.47.43-8.19.39-2.08,0-4.14.18-6.22.13a95.73,95.73,0,0,1-15.53-2.13c-5.41-1.07-11-1.79-15.94-4.34q-8.52-3-17-6.26c-3.57-1.69-7.1-3.51-10.6-5.35-3.87-2.56-7.86-4.66-11.09-8a26.19,26.19,0,0,1-7.48-5.83c-1.15-1.44-2.94-2.32-3.94-3.85a2.49,2.49,0,0,1,0-2.15c-.36-1.06-.49-2.27-.9-3.25-.94-3.46-2-6.89-2.67-10.4-.81-2.62-1.09-5.51-1.86-8.11-.6-2.91-2.08-5.76-2.31-8.71-.64-1.16-.85-2.32.29-3.14,2.51-1.35,4.53,2.44,6.18,3.82,4.36,4.52,9.64,8,13.89,12.64,1.38,1.5,3.21,2.39,4.81,3.6,1.35,1,2.55,2.29,4,3.23,3.52,1.53,5.94,4.13,9.32,5.68,14.52,7.18,30.38,11.93,46.7,11.25,4,0,7.89-.3,11.84-.61,1.93-.14,3.86-.32,5.8-.28a25.67,25.67,0,0,1,5.2,1.41c3.37,1.34,6.38,3.39,9.87,4.46,1.32.58,2.59,1.27,3.91,1.86S763.35,544.83,763.57,546.44Z"/><path d="M1166.72,233.2c13.62,4.49-.91,19.14-7.26,23.86,5.11.36,7.54,6,3.89,9.73a34.9,34.9,0,0,1-13.64,6.76c1.89,1.57,3.92,4,2.85,6.61-2.67,5.14-13.76,3.79-18.85,3.72.94,6-6.12,7.64-10.76,7.25-10.35-.6-20.13-5.26-28.27-11.49-.17,1.91-.78,5.06-2.21,6.22-.08.33-.15.67-.22,1-.73,4-1.73,8-2.66,12-.68,4.34-1,8.72-1.44,13.09-.23,4.57-.44,9.15-1.08,13.69a19.13,19.13,0,0,1-2,7.23c-2.65,4.23-7-.66-9.26-2.85-.63,3.35-2.74,9.66-7.2,7.43a13.63,13.63,0,0,1-5.14-7c-3.38,4.52-7.57.35-9.13-3.37a27.09,27.09,0,0,1-1.52-7c-.25-17,2-34.42,8.5-50.23-8.25.39-16.71-.14-24.5-3.08a66.27,66.27,0,0,1-8.35-4.16c-1.9-.91-3.88-1.65-5.71-2.71-3.66-2.18-10.76-7.41-6.56-12-4.43-3.32-9.82-11.6-8.65-17.29,1.08-3.45,4-3.22,6.68-1.76-2.11-3.28-4.17-6.83-4.05-10.85-.27-5.12,2.3-12,8.1-7.07-1.4-3.41-.71-16.42,4.11-16.51,4.44.55,9.24,4.92,11.32,8.78,1.73,3.43,2.82,7.2,5,10.43a63.81,63.81,0,0,0,5.57,6.18c2.83,2.95,4.7,7,8.61,8.68,6.2,3,13.33,5.47,20.28,4.14,4.07-1.18,8.32-2.53,11.76-5,3.24-3,6.63-6.31,10.67-8.24a2.82,2.82,0,0,1,2.42-1h0l.56-.17a2,2,0,0,1,.34-.06h0c11.38-4.37,21,1.43,18.7,14.41-.19,4-3.41,8.5-1.28,12.23,5.49,5,14.11,7.12,21.22,4.88a49.67,49.67,0,0,0,19.68-10.85C1160,236.51,1162.65,232.68,1166.72,233.2Z"/><path class="cls-1" d="M1109.62,222.12c-3.31-1.63-1.11-5.66-.11-8.13a43,43,0,0,1,3.31-7,2.62,2.62,0,0,1,4.27-.32,2.31,2.31,0,0,1-.2,3c-.92,1.93-1.76,3.9-2.63,5.85a31.5,31.5,0,0,1,4.08-2.91,2.36,2.36,0,0,1,2.54,3.85C1117.91,218.56,1113.56,223.44,1109.62,222.12Z"/><path class="cls-2" d="M1099.77,222.32a2.33,2.33,0,1,1,2.34,2.31A2.35,2.35,0,0,1,1099.77,222.32Z"/></g></g></svg>