<svg xmlns="http://www.w3.org/2000/svg" viewBox="0 0 816.56 694.46"><defs><style>.cls-1{fill:#f7941d;}.cls-2{fill:#fff;}</style></defs><title>imagen 9</title><g id="Capa_2" data-name="Capa 2"><g id="Capa_1-2" data-name="Capa 1"><path class="cls-1" d="M121.23,270a2.9,2.9,0,0,1-5.31.61c-.16-1-.31-2.05-.46-3.08-2.33-16.12-3.77-32.37-4.77-48.66v-.07a1.94,1.94,0,0,0,0-.24c-1.44-23.67-2-47.44-2.88-71.07a8,8,0,0,0,.21-1.28c.07-.74.06-1.49.08-2.24a13,13,0,0,1,.16-2.25,1.57,1.57,0,0,1,2-1.25,2.57,2.57,0,0,1,.65.2c.88.4,1.51,1.22,1,2a2.15,2.15,0,0,1-.68.59c0,.23.06.47.1.7a3.45,3.45,0,0,1,1.71.39,3.89,3.89,0,0,1,2,3.62v.14c0,.34,0,.69,0,1,1,28.21.54,56.49,3.47,84.58.5,8.6.93,17.21,1.92,25.77.16,2.7.72,5.42.84,8.13A19,19,0,0,1,121.23,270Z"/><path class="cls-1" d="M109.55,147c-1-1.29.76-2.82,1.6-1.29C112.21,147.1,110.35,148.75,109.55,147Z"/><path class="cls-1" d="M126.17,268.29c-.15,4.85-1.66,8.7-7.91,7.11-2.49-1-3.56-4.1-4.06-7.8-.69-5-.36-11-1.14-14.28-.74-11.49-2.1-22.94-2.37-34.46v-.07a1.94,1.94,0,0,0,0-.24c-1.3-17.86-2.64-35.76-2.59-53.67,1-5.48-2.08-13.46-.08-18.68a7.37,7.37,0,0,1,.71-1.4,1.88,1.88,0,0,1,.16-.23,4.91,4.91,0,0,1,.39-.51,7.32,7.32,0,0,1,.38-2.42,4.84,4.84,0,0,1,.6-1.18,3.39,3.39,0,0,1,3.3-1.59,3.46,3.46,0,0,1,2.55,2.08,5.93,5.93,0,0,1,.44,1.42,8.3,8.3,0,0,1,.14,1.18,5.83,5.83,0,0,1,2.22,3.71,1.6,1.6,0,0,1,0,.21c1.18,5.29-.49,13.78.63,18.25.64,15.83,1.44,31.62,3.47,47.36,1,14.61,2.14,29.2,2.61,43.84C125.52,259.8,126.29,264.37,126.17,268.29Z"/><path class="cls-1" d="M639.08,465.16c0,5.9-4.76,9.34-10.58,11.58-.92.36-1.87.68-2.84,1-3.4,1.06-6.95,1.8-10,2.43-1.37.29-2.63.56-3.74.82l-.09,0c-.55-2.69-.91-5.42-1.33-8.13-.26-1.62-.53-3.24-.8-4.86l.12,0c1.23-.27,2.52-.5,3.84-.71,5.06-.81,10.41-1.38,13.34-3.46-9.51-70-15.4-140.42-26.16-210.35-7.83-79.8-10.38-160.08-18.6-239.81-112.65,22.13-222.4,56.56-331.68,91.3-26.33,8.64-53.1,15.92-78.9,26.09-6.78,2.26-37.19,13.84-52.72,16.44l-.13,0c-1.4.23-2.68.39-3.81.46a10,10,0,0,1-4-.37,1.88,1.88,0,0,1-1.14-1,3.58,3.58,0,0,1-.12-1.31,3.67,3.67,0,0,1,.11-.5,3.9,3.9,0,0,1,2-2.08c1.29-.7,2.92-1.16,4.21-1.7a8.24,8.24,0,0,0,.94-.45c7.51-2.85,15-5.7,22.31-9.09l6.81-2.72Q166,120.82,186,113.31C315.78,64.66,450.92,27.73,586.42,0c6.94.35,7.72,8.4,8.15,13.85C604.18,110,606.68,207,621.76,302.53q1.85,11.31,3.37,22.66l.51,3.95c4,30.87,6.41,61.89,8.77,92.94C636.67,436.61,639.74,450.46,639.08,465.16Z"/><path class="cls-1" d="M377.27,568.67,373.08,570c-48.81,15-95.48,30.88-145.55,41.52q-7.74,1.65-15.59,3.11c-1.95,0-3.31-.35-3.81-1.21-2.76-5.17,4.5-5.5,7.8-6.38,2.69-1,5.37-1.9,8-2.84,47.54-16.68,95.68-31.56,143.51-47.42l4.35-1.44.08,0c.89,1.9,1.61,3.88,2.32,5.87v0A68.44,68.44,0,0,0,377.27,568.67Z"/><path class="cls-1" d="M397.51,547.79h0a1.7,1.7,0,0,1,0,.22A1.48,1.48,0,0,0,397.51,547.79Z"/><path class="cls-1" d="M404.1,545.6l.08,0c0,.2-.08.4-.13.6C404.07,546,404.09,545.79,404.1,545.6Z"/><path class="cls-1" d="M383.86,551.81h0v.1Z"/><path class="cls-1" d="M464.18,540.62l-4.5,1.63q-15,5.34-30.05,10.28l-2.48.82c1-1.65,2-3.33,2.89-5,2.54-5.22,6.06-9.87,9.2-14.75l5.84-1.93c5.08-1.66,10.15-3.31,15.17-5.15,1.19-.43,2.39-.88,3.57-1.34C463.53,530.29,463.19,535.5,464.18,540.62Z"/><path class="cls-1" d="M419.07,540.48l.18-.06-.15.38Z"/><path class="cls-1" d="M427.26,537.66l.34-.12c-.28.55-.56,1.1-.85,1.65Z"/><path class="cls-1" d="M116.5,149c-4.13.76-10.44-3.23-6.74-7.55,8.1-6.24,18.21-9.43,27.36-13.87,3.22-1.74,8.73-2.44,9.37,2.38.31,5.54-7.06,5.2-10.61,7.39-6.13,2.32-12.31,4.52-18.47,6.76A2.53,2.53,0,0,1,116.5,149Z"/><path class="cls-1" d="M185.32,121.82c-13.45,5.09-27.45,8.77-41.39,12.53-9.22,2.49-18.41,5-27.4,8l-1.94.65a3.1,3.1,0,0,1-1.58,1.31,6.69,6.69,0,0,1-3.17.4,8.92,8.92,0,0,1-1-.16l-.06,0-.16-.11a4.79,4.79,0,0,1-.57-.48c-7.3-7.38,43.37-20.82,48.49-22.92,8.57-2.28,17-5.12,25.32-8.06a4.94,4.94,0,0,1,3.57.06,3.61,3.61,0,0,1,.56.27C189.26,115.13,189,120.54,185.32,121.82Z"/><path class="cls-1" d="M156.63,211.41a1.45,1.45,0,0,1-.83-2.6,5.36,5.36,0,0,1,2.6-.62c25.14-5.48,48.95-15,73.5-22.38,70-18.56,139.28-39.86,209.58-57.54,41-10.6,80.74-25.91,122.13-35.12,2-.49,3,2.74.79,3.25-36.1,7.41-70.56,21-106.08,30.59C357,152.71,257.14,183.44,156.63,211.41Z"/><path class="cls-1" d="M157.85,259.71a1.37,1.37,0,0,1-.13-2.72,52.85,52.85,0,0,0,5.89-1.48c6.29-1.87,12.57-3.8,18.93-5.49C311.09,216,440,183.5,568.1,147.61c2.15-.57,3.29,3,.88,3.56C432.36,188.85,294.81,223.74,157.85,259.71Z"/><path class="cls-1" d="M211.53,380.11c-2-18.25-4.91-36.38-8-54.45-1-32.07-7.19-63.63-7.53-95.75-1.26-11.55-3-23-3.27-34.67.67-3-4.76-36.22,1.27-29,.39.79.61,2.53-.66,2.59,1.76,21.38,4.1,42.71,6.68,64,.91,12.5.52,25.1,2.29,37.52,3.19,19.3,4.14,38.79,5.33,58.26,3.43,16.91,4.94,34.06,7.31,51.12A1.72,1.72,0,0,1,211.53,380.11Z"/><path class="cls-1" d="M361.24,358.45c-9-73.76-18.13-147.64-22.48-221.88.15-2.86-4-19.13,2.07-14.55a1.24,1.24,0,0,1-.71,2.2c6.49,71.12,13.59,142.22,22.51,213.11A138.32,138.32,0,0,0,365.19,358,2,2,0,0,1,361.24,358.45Z"/><path class="cls-1" d="M473.19,195.18c-5.47-34-6.32-68.45-11.56-102.44-1.2-4.63,4.51-2.9,2.45-.54,6.54,31.53,6.55,63.9,11.66,95.65.27,2.32.5,4.64.84,7A1.71,1.71,0,0,1,473.19,195.18Z"/><path class="cls-1" d="M569.58,293.81c-4.33-49.7-12.07-99-18.34-148.43-1.82-21.69-4.58-43.29-6.72-64.94-.7-5.41,4.91-2,2.48-.22,7.45,55.9,14.15,111.91,21.42,167.82,2.29,15,3,30.26,4.84,45.35A1.85,1.85,0,0,1,569.58,293.81Z"/><path class="cls-1" d="M238.71,297.28c-1.65-.75-1.23-2.94-1.65-4.41-2.69-10.94-4-22.24-5.8-33.32-2.46-5,7.93-4.21,10.71-5.69,3.85-.52,15.61-5,18.12-2.88,2.12,5.54,2.07,11.79,3.88,17.49a58.66,58.66,0,0,1,2.25,14.22c.08,4-2.66,3.39-5.38,4.84-4.83,2.3-9.59,4.67-14.39,6.87C243.92,295.26,241.45,297.7,238.71,297.28Zm.15-14c.73,3.13,1.64,6.22,2.13,9.39,7-3.32,13.89-7.21,21.18-10-.66-9.63-3.87-18.89-4.81-28.51-7.85,1.82-15.48,4.46-23.31,6.31C236.19,268,237.32,275.78,238.86,283.26Z"/><path class="cls-1" d="M274.07,300.22a1,1,0,0,1,2,0A1,1,0,0,1,274.07,300.22Z"/><path class="cls-1" d="M275.6,339c-4.08-.52-5.09-10-6.56-13.41-4.92-17.95-11.1-20.79,10.13-28.67,5-1.18,13.29-7.89,17.53-6.32a1.12,1.12,0,0,1,.08,2.24c2,3,2.43,7.08,3.71,10.51,1.84,6.68,8.87,18.48,6.11,24.94-5.88,2.87-12.32,4.77-18.52,6.94C284,336.56,279.94,338.59,275.6,339Zm.59-3.78c9.24-3,18.29-6.52,27.53-9.49.22-6.39-12.57-30.85-9-33.09-3.58,1.57-6.38,4-9.79,5.81-5.43,3.1-11.46,5.35-16.26,9.45A226.81,226.81,0,0,0,276.19,335.24Z"/><path class="cls-1" d="M296.9,278.39c-2-1.29-1.22-6.66-1.46-8.94-.31-9.06.19-18.28-.29-27.3a1.93,1.93,0,0,1,.53-3.65c1.3-.31,2.77-.12,4.13-.5,8.7-2.19,18-2.31,26.49-5.13,1.72-.75,2.87.48,2.7,2.22-.37,6,7.22,37.83.65,38.34C318.8,274.77,307.85,280.08,296.9,278.39Zm2.56-3.31c10-.31,19.39-3.71,29.2-5,1-11.34-2.27-22.51-2.77-33.8-9.22,2.76-18.83,3.83-28.22,5.86C298.87,253,298.84,264.22,299.46,275.08Z"/><path d="M238.79,398.71c-4.93-1.78-7.41-18.36-8.51-23.42-.34-3.58-3.93-10.7-1.82-13.58-.08-1.19,1.16-1.53,2-1.9,3.47-1.68,6.81-3.62,10.26-5.35,5.73-2.66,11-6.51,17.21-8a2.46,2.46,0,0,1,3.27,2c1.56,5.19,3.41,10.28,5.1,15.43,2,6.81,4,13.63,6.31,20.31.82,3.27-13.56,7-16.48,8.57-3.74,1.46-7.6,2.59-11.31,4.15C242.89,397.51,240.93,399,238.79,398.71Zm1.18-4.09c9.42-4,19.34-6.78,28.72-10.95-4.12-11.08-6.9-22.64-10.47-33.91-9.06,3.35-17.28,8.77-26.17,12.62C234.81,373,235.55,384.49,240,394.62Z"/><path d="M237.39,371c-5.5-2.43,14.68-10.81,16.68-11.44a1.47,1.47,0,0,1,1.06,2.74c-5.67,2.11-11.61,4.33-16.63,7.69A1,1,0,0,1,237.39,371Z"/><path d="M239.68,375.55h0a1,1,0,0,1-.06-1.9c4.15-2,8.26-4,12.42-6,1-.52,2.26-1.13,2.9.25.7,2.42-5.85,3.47-7.53,4.71C244.85,373.56,242.34,375.06,239.68,375.55Z"/><path d="M272.87,314.09c-2.54-2.67,4.34-3.64,5.89-4.38,2.4-.16,10.6-5.76,11.43-3.24,1.1,2.68-13.21,5.9-15.58,7A1.1,1.1,0,0,1,272.87,314.09Z"/><path d="M274.94,319.62c-1.47-.75-.07-2.52,1.16-2.23,4.68-2.11,9.09-4.94,14.2-5.93,1.16-.16,2.34-1,3.51-.7a1.3,1.3,0,0,1-.2,2.45c-3,.9-6.11,1.34-9,2.68C281.45,317,278.35,319.48,274.94,319.62Z"/><path d="M241.62,267.66a1.27,1.27,0,0,1-.59-2.37c3.29-.71,6.69-.89,9.93-1.72a1.36,1.36,0,0,1,.65,2.65A74.66,74.66,0,0,1,241.62,267.66Z"/><path d="M245.74,272c-.88,0-2.31.16-2.32-1.1.39-1.91,4.35-.85,5.92-1.59.87-.21,2.11-.44,2.4.71C251.85,272.52,247.42,271.66,245.74,272Z"/><path d="M245.57,282.74a1.42,1.42,0,0,1,2.84,0A1.42,1.42,0,0,1,245.57,282.74Z"/><path d="M306,252.09a1.3,1.3,0,0,1,1.63-1.76c2.3-.05,8.37-3.85,9.36-.8a1.38,1.38,0,0,1-1.2,1.5C313.68,251,306.88,254,306,252.09Z"/><path d="M305.91,258.85c.39-1.69,3-1.12,4.35-1.91,2.18-.2,9.82-4.7,10.61-2.09.34,2.3-5.82,2.55-7.52,3.52C311.67,258.54,306.34,261.4,305.91,258.85Z"/><path d="M304.88,267.52c-.4-2.43,13.27-4.84,15.7-5.53a1.38,1.38,0,1,1,.66,2.66,106,106,0,0,0-13.41,3.11C306.87,268.05,305.33,269,304.88,267.52Z"/><path d="M215.46,210.57c-.18-2.23,3-1.9,4.5-2.38,17.06-2.47,32.78-9.66,49.24-14.39,7.48-2.3,15.1-4.1,22.74-5.79,2,.07,6.58-2.5,7.46-.15a1.41,1.41,0,0,1-1,1.68,283.74,283.74,0,0,0-37.53,9.85c-14.18,4.81-28.23,10.24-43.21,11.72A1.16,1.16,0,0,1,215.46,210.57Z"/><path d="M220.41,218.6c-1.24.14-2.3-1.32-1.16-2.24,2.62-.94,5.53-1.13,8.22-1.93,24.2-6.36,47.5-16.17,71.82-22a1.38,1.38,0,0,1,.66,2.68,57,57,0,0,0-6.75,1.56c-24.08,6.77-47.37,16.42-71.9,21.51A1.24,1.24,0,0,1,220.41,218.6Z"/><path d="M368.69,169.24a1.34,1.34,0,0,1-1.06-2.36,13,13,0,0,1,2.58-.85c21.28-6.47,42.15-14.1,63.93-18.68a1.43,1.43,0,0,1,.68,2.78c-22.18,4.54-43.45,12.42-65.18,18.7A1.21,1.21,0,0,1,368.69,169.24Z"/><path d="M369,174.89a1.11,1.11,0,0,1,.84-1.2c5.43-1.23,10.67-3.17,16-4.71,17.53-5,34.27-12.17,52.16-15.68a1.43,1.43,0,0,1,.69,2.78c-4.32,1.14-8.8,1.56-13,3-17.32,5.65-34.56,11.56-52.2,16.14C372.1,175.33,369.46,176.89,369,174.89Z"/><path d="M489.06,135.08c-2.8-1.25.35-3.3,2.12-3.43,13-4,26.37-7.13,39.2-11.55,13,2.63-37.73,12.93-40.07,14.35A1.19,1.19,0,0,1,489.06,135.08Z"/><path d="M489.54,142.28c-3.17-2.59,6.35-4,7.86-4.92,8.05-2.76,16.17-5.29,24.39-7.48,3.57-.74,7.31-2.55,10.8-2.7a1.55,1.55,0,0,1,0,2.86C518.16,133.77,503.54,137.78,489.54,142.28Z"/><path d="M495.07,151.7c-5.17-2.53,11.85-5.76,13.42-6.71,5.23-1.53,10.42-3.27,15.72-4.55,2,0,9.15-3.27,9.53-1.13a1.4,1.4,0,0,1-.8,1.81C520.26,144.25,507.43,147.51,495.07,151.7Z"/><path d="M511,213.32c-2.71-.89-4.59-7.59-5.93-10.1-1.85-3.84-3.47-7.78-5-11.74-.29-1.79-2-3.71-1.2-5.49a1.23,1.23,0,0,1,1.47-1.3c9.38-2.74,18.14-7.4,27.49-10.33,3.27-1.7,3,2.71,3.83,4.69.95,2.88,2.1,5.68,3.24,8.48,5.55,17.35,9.35,15.19-5.48,18.94a122.71,122.71,0,0,0-11.86,4.61C515.41,211.93,513.31,213.53,511,213.32Zm.8-2.9c8.05-3.58,16.11-7,24.76-8.92-2.6-8.17-6.28-16-8.4-24.32-8.73,2.92-17.12,6.87-26,9.45C505,194.68,508.17,202.69,511.77,210.42Z"/><path d="M527.9,224.94c-3.12-2.66,9.41-4.73,11.09-4.95a1.35,1.35,0,0,1,.3,2.69,43.2,43.2,0,0,0-9.71,2.12A1.59,1.59,0,0,1,527.9,224.94Z"/><path d="M533.18,228.67c-1.23-2.42,5.12-2.87,6.59-3.67,1.37-.24,3.71-1.74,4.38.22a1.36,1.36,0,0,1-1,1.63c-2.77.57-5.54,1.12-8.26,1.87C534.37,229.06,533.63,229.31,533.18,228.67Z"/><path d="M386.17,266.74c-2-.83-2.94-3.06-4.25-4.66-2,.76-3.11,3.5-5.29,3.59-3.13-.91-.81-12.25-.85-15.19-.1-6,1-12,2.05-17.84a1.81,1.81,0,0,1,1.93-2c.4-.87,1.46-.65,2.24-.72,5.45-.36,11.09-1.42,16.52-1.46,5.88,0,11.79-1.81,17.59-1.6,1.53,1,.83,3.51.9,5.06-.74,9.09-1.08,18.37-2,27.42,0,9.19-3.14,7.2-8.5,2.4-7.4,3.22-5.76,7.45-12.9.35C391,263.34,389.16,266.84,386.17,266.74Zm.63-2.94c6.12-4.77,6.14-6.95,12.21-.7,6.09-4,6.81-6.63,12.83-.79.66-10.88,1.67-21.84,2.4-32.68-10.88,1.66-21.86,2.16-32.82,2.73a172.57,172.57,0,0,0-3.35,29C383.39,256.78,383.4,259.73,386.8,263.8Z"/><path d="M390.45,237.89c.79-4.09,1.44-8.2,2.3-12.28a1.34,1.34,0,0,1,.75-2,1.09,1.09,0,0,1,1.39-.2c2.4.24,11.19-2.38,9.48,2.3-.34,3.34.35,6.73-.07,10.09-.19,4.08-7.92,1.39-10.8,2.62C392.34,238.67,390.62,239.77,390.45,237.89Zm3.23-5.58-.63,3.85a41.13,41.13,0,0,1,8.87-.47c.43-3.41-.38-6.82,0-10.21-2.42.13-4.84.3-7.23.66C394.32,228.19,394,230.26,393.68,232.31Z"/><path d="M380.62,288.09c-4-3.44,28.27-9.84,31.4-11.82,4.54-1.54,9.25-2.42,13.89-3.61a1.57,1.57,0,0,1,.75,3C411.28,279.57,395.9,284.24,380.62,288.09Z"/><path d="M385.7,292.76c0-1.4,1.73-1.1,2.62-1.57q21.76-7.65,43.8-14.43a1.52,1.52,0,0,1,1.66,2.24c-4,2.33-9,2.89-13.41,4.38-10.67,2.83-21.07,6.42-31.58,9.72C387.8,293.32,386,294.29,385.7,292.76Z"/><path d="M283.63,367.83c-.23-2.19,6.92-2.76,8.68-3.71,10.07-3.7,20.57-6,31.06-8.2a1.51,1.51,0,0,1,.72,2.94c-2.76.66-5.57,1.13-8.32,1.81-9.86,2.05-19.42,5.11-29.16,7.55C285.66,368.53,284.07,369.2,283.63,367.83Z"/><path d="M288.25,375.06c-1.76.35-2.29-2-.48-2.22,3.42-.27,6.71-1.39,10-2.25,9.5-2.25,18.84-5.61,28.35-7.73a1.54,1.54,0,0,1,.54,3C313.85,368.79,301.29,373.19,288.25,375.06Z"/><path d="M258.12,440.13a1,1,0,0,1-.68-1.41c.4-.88,1.46-.71,2.23-.92C267.6,435,275,431,283.09,428.46c3.42-1.34,7-2.27,10.43-3.55a1.55,1.55,0,0,1,1.12,2.89c-7.19,2.54-14.53,4.7-21.66,7.43C268.13,437,263.34,439.87,258.12,440.13Z"/><path d="M261.7,445.47c.2-1.89,3.47-1.77,4.83-2.78,9.29-3.7,18.36-8.46,28.24-10.36a1.65,1.65,0,0,1,.58,3.24,60.91,60.91,0,0,0-7,1.77q-8.65,2.79-17.11,6.12C269.33,443.76,262.2,448.21,261.7,445.47Z"/><path class="cls-1" d="M241.36,262c-1.55-2.26-.92-6.83-1.64-9.66a1.61,1.61,0,0,1-.15-2.57,1.36,1.36,0,0,1,2.31-.83c11.13-3.19,8.44-4.65,10.7,6.56.61,2.9,1.48,4.51-2.26,5.1C247.38,261,244.31,262.25,241.36,262Zm.64-9.22c.36,2.27.68,4.55.93,6.83,2.52-.53,5-1,7.56-1.63a76.83,76.83,0,0,1-1.75-8.14c-2.39.74-4.53,1.47-6.83,2.38Z"/><path class="cls-1" d="M510.5,188c-1.51-2.45-2-5.41-3.17-8-2.13.85-1.68-3.7-.25-3.84.31-2.51,6.4-3.8,8.61-4.41,1.8-.35,3.85-.21,4.29,1.92.8,2.5,2.06,4.87,2.55,7.45.4,1.82-1.29,2.83-2.71,3.47C517.44,185.35,512.65,189.49,510.5,188Zm-1.16-9.16c1,2.19,1.83,4.46,2.75,6.68,2.6-1.3,5.16-2.67,7.71-4.05-.58-2.39-1.83-4.57-2.57-6.93-3.09.16-5.69,2.07-8.49,3.06C509,178,509.15,178.44,509.34,178.85Z"/><path d="M146.72,355.82c7.5-2-4.94-6.92-6.12-9.87-2.46-2.19-7.65-13.74-3.87-15.56.87.07,1.83,1.38.8,1.92a24.19,24.19,0,0,0,10.28,15.54c8,5.43,3.82,12.18-4.82,11.32-1.91-.29-7.58-2.71-5.64-5.23C139.63,351.4,142.28,357.23,146.72,355.82Z"/><path d="M149.24,371.79a1.35,1.35,0,0,1,0,2.7,18.89,18.89,0,0,1-7.28-1.39c-2,.82-1.92-3,.09-2.22A23.61,23.61,0,0,0,149.24,371.79Z"/><path d="M124.78,345.37c-4.15-2.05-9-3.8-13.4-1.51-2.67,1.59-6.08,2.88-7.85,5.49C110.76,349.85,118.73,350,124.78,345.37Zm2.11-1.59c1.54-.11,1.36,2.38-.11,2.24,1.83,4.05-12.07,7.39-15,6.86-3.49-.51-9.45,1.33-11.34-2.45-1.15-4.73,4.9-7,8-9.27C114.58,336.92,121.7,339.22,126.89,343.78Z"/><path d="M122.35,344.27c2,7.28-8.38,6.67-8.66.69C113.93,339.94,121.43,339.11,122.35,344.27Z"/><path d="M115.7,360.15c1.3-1.12,2.39,1,1.38,2-.37,1,0,3.25-1.65,3.14C113.57,365,115.14,361.13,115.7,360.15Z"/><path d="M121.26,359.08c1,.87.51,2.47.41,3.62a1.06,1.06,0,0,1-1.18.89c-1.4-.27-.74-1.81-.55-2.74C119,360.15,120.32,358.48,121.26,359.08Z"/><path d="M127.63,358.23c0,1.09.39,3.11-1.19,3.18-1.54-.1-1.06-1.84-1-2.87C124.57,356.24,127.79,355.25,127.63,358.23Z"/><path d="M156.14,346c.91,0,.83,1,.81,1.7-.08.95.2,2.71-1.23,2.59-1.51-.36-.55-2.26-.42-3.29A.89.89,0,0,1,156.14,346Z"/><path d="M159.24,348.33c-1.59-.11-1.18-2.57-.58-3.48a1,1,0,1,1,1.66,1.14C160.31,347,160.61,348.26,159.24,348.33Z"/><path d="M161.39,345.73c.13-.94-.47-2.6.84-2.84a1,1,0,0,1,1.05,1.17c0,.76.39,1.63-.07,2.31A1,1,0,0,1,161.39,345.73Z"/><path d="M103.78,345.42c-1.44-1.07-2.84-2.19-4.3-3.22a1.21,1.21,0,0,1-.21-1.7c1.89-1.56,3.6,2,5,3C106,343.31,105.3,346.61,103.78,345.42Z"/><path d="M108.15,343.63c-1.84-.88-3-2.88-4.42-4.33a1.39,1.39,0,0,1,.29-1.93c2.29-1.1,3.31,2.74,4.6,4C109.94,341.68,109.45,343.88,108.15,343.63Z"/><path d="M111.78,341.08a.75.75,0,0,1,0-.26c-.76-1.7-4.14-3.81-2.46-5.68a1.34,1.34,0,0,1,1.95.43c.48,1.67,3.18,4.62,1.94,6.13C112.72,342.09,111.76,341.84,111.78,341.08Z"/><path d="M203.55,437.52a1.49,1.49,0,0,1-.58,2c-4.2,2.23-8.77,4.19-12.73,6.73-7.39,4.46-14.51,9.46-22.22,13.33-2.34,1.43-3.82-1.76-1.05-2.31,10.42-6,20-13.43,30.95-18.45C199.66,438.35,202,435.49,203.55,437.52Z"/><path d="M170.22,463c-.64-.88.66-2.43,1.63-2,10.42-5.65,19.65-13.22,30.23-18.64a1.45,1.45,0,0,1,1.39,2.54c-3.37,2.15-7,3.87-10.33,6.07l.17-.11C188.66,453.16,174.44,464.56,170.22,463Z"/><path d="M174.35,478c-.85-1.21-4-7.13-1.72-7.78.25-.78,1.12-1,1.79-1.31,1.56-.59,2.82-2,4.47-2.25,1.47,0,1.81,1.65,2.21,2.75.36,1.38,1.42,2.73,1.17,4.18-1,2.05-3.56,2.66-5.14,4.18C176.4,478.82,175.23,479.11,174.35,478Zm1.48-2.86c1.07-.86,2.26-1.55,3.39-2.34-.35-.85-.67-1.71-1-2.57a28.81,28.81,0,0,1-3.52,2,1.22,1.22,0,0,1-.13.46C175,473.5,175.39,474.33,175.83,475.14Z"/><path d="M180.18,491.46c-1.39-.54-4.06-4.39-2.4-5.59-2.24-1.42,1.37-3.56,2.43-4.53,1.15-.72,2.44-2.28,3.92-1.56,1.59,2,5.12,6.26,1.08,7.59C183,488.13,182.27,491.81,180.18,491.46Zm.43-4a12.89,12.89,0,0,1,3.38-2.72l-1.07-2.07a27.17,27.17,0,0,0-3.75,2.9C180,485.84,180.24,486.79,180.61,487.5Z"/><path d="M185.84,467.58c-7.64-.89,19-14.19,20.6-16A1.54,1.54,0,0,1,208.3,454c-7,4.5-14.34,8.46-21.35,12.87A1.17,1.17,0,0,1,185.84,467.58Z"/><path d="M187,470.23c-.67-1.59,1.68-2.06,2.59-2.85,3.19-2.11,6.63-4.47,9.84-6.39,2.41-1,11-9.23,12.66-6.32a1.47,1.47,0,0,1-.58,2c-3.32,1.7-6.26,4-9.4,6-4.25,2.5-8.44,5.12-12.72,7.57C188.82,470.88,187.45,471.1,187,470.23Z"/><path d="M190.5,481c-5-2.19,20.11-13.91,22.15-16.65,9.95-.32-19.19,14-20.41,16A1.29,1.29,0,0,1,190.5,481Z"/><path d="M194.5,483.42c-2.05-1.37.84-2.77,2-3.41,3.42-2,6.6-4.29,10-6.29,3.58-2,7.1-4.05,10.58-6.18a1.58,1.58,0,0,1,1.52,2.76c-7.33,4.06-14.52,8.37-21.88,12.36A1.89,1.89,0,0,1,194.5,483.42Z"/><path d="M187.4,503.85c-2.14-.48-2.55-3.61-3.13-5.41-1.34-2,2.09-3.21,3.31-4.18.85-.52,2-1.1,2.91-.4,1.3,1.48,1.6,3.74,2,5.62C192.92,501.64,189.08,503.35,187.4,503.85Zm-.87-5.17c.39.77.76,1.56,1.17,2.33a22.85,22.85,0,0,1,2.19-1.29,23.83,23.83,0,0,0-.93-3,30.23,30.23,0,0,0-2.5,1.83Z"/><path d="M197.5,493.07c-.8-3.15,17.53-11.34,20.62-13.72a1.46,1.46,0,0,1,2,.58c.82,1.62-1.2,2.3-2.31,2.9-5.94,3.19-12,6.14-17.54,10C199.72,493.71,198,494.09,197.5,493.07Z"/><path d="M199.31,496.5c.77-3,10.25-7.05,13.15-9.08,2.32-.93,8.54-7.5,10.38-4.67a1.63,1.63,0,0,1-.64,2.2c-6.77,4.09-13.59,7.65-20.45,11.53C201.06,497.11,199.74,497.78,199.31,496.5Z"/><path d="M192.65,513.9a1.1,1.1,0,0,1-.72-2,24.86,24.86,0,0,0,3.32-1.83c4.92-3.25,9.94-6.31,14.95-9.4,2.27-1.12,13.11-9.56,14.34-6.4a1.73,1.73,0,0,1-.67,2.31C213.32,502,203.58,509.31,192.65,513.9Z"/><path d="M196.09,519.2c-5.61-1.3,12.63-10.43,13.92-11.91,2.21-.93,19.87-15.74,18.9-9.06C218.48,505.56,207.22,512.81,196.09,519.2Z"/><path d="M201.87,528.24c-4.61-1.93,7.22-6,8.52-7.48,7.73-5.16,15.18-10.77,23.38-15.18a1.65,1.65,0,0,1,1.59,2.9c-11,5.6-20.42,14-31.73,19.07A1.53,1.53,0,0,1,201.87,528.24Z"/><path d="M204.51,531.15c.26-1.94,4.76-3.3,6.3-4.65,4.77-3,9.07-6.71,13.8-9.81,4.42-2.72,8.6-5.81,12.95-8.63a1.7,1.7,0,0,1,1.63,3c-9.79,5.68-18.67,12.54-28.48,18.08C209.2,529.46,205.34,533.18,204.51,531.15Z"/><path d="M260.41,518.29c-7-17.81-15.08-35.24-21.86-53.17,1.68-3.43,9-18.31-.07-16.06,1.46-3.09,1.07-14.91-4.46-10.07.85-8-3.57-12.42-8.42-3.74-3.11-6.74-6.51-13.6-11.77-18.95-1.14-3.87-5.33.18-7.57.86-2.33-12.52-6.51-33.73-23.71-29.31-5,1.54-8.83,5.28-13.11,8.08-6.35,1.85-12.6,4.67-19,6.68-1.37-4.37-2.79-8.71-4.58-12.93,8.06-.43,17.49-1.5,23-8.11,1.52-3.92.78-8.42,1-12.55-1.62-22.22-1.35-39.89-8.31-62.5a5.41,5.41,0,0,0,7.23-4.81c-.23-6.35-4.62-12.27-8.79-16.83-4.56-3.79-10.32-6.72-16.23-7.15a33.55,33.55,0,0,0-17.58-9.44,40.12,40.12,0,0,0-4.9-.69,45,45,0,0,0-5.81-.08l-1.26.08a57,57,0,0,0-30.27,11.91c2.42-11.45-4.54-29.66-18.91-24.39-18.44,8.06-27.17,44.74-1.89,49.35C54.67,323,47.07,355,59.9,372.72a20,20,0,0,0,9.94,8.22,18.9,18.9,0,0,0,9.67,1,16.83,16.83,0,0,0,3.79-1.09l.35-.15a284.18,284.18,0,0,0,10.62,37.63C81.7,424.23,67.87,428.39,57,437.24,36,425,18.59,452.78,19,471.6c-.85,23.53,7.92,46.22,12.91,69,7.07,26.66,14.87,53.36,26.22,78.57-7.41,20.57-18.67,39.54-25.47,60.34-.73,3.35-3.8,6.73-2.85,10.18.89,1.52,2.82,1.75,4.37,2.17,10.56,2.93,21.56,1.81,32.37,2.27,7,.42,13.94-1,20.87-1.92,11.63-.69,23.17-2.23,34.78-3.19,12.4-.47,24.82.14,37.22-.33,13.83-1.62,27.62-3.88,41.39-6,11.53-1.67,22.33-5.39,33.88-7.21,4.21-1,8.48-1.69,12.74-2.42,1.95,0,3.95-1.33,3.3-3.51-5.32-13.8-9.57-28-15.06-41.73-2.91-5.36-5.54-10.86-8.17-16.34q-1.75-3.68-3.55-7.32c-2.32-4.68-4.74-9.32-7.45-13.81,3.84-1.57,5.48-2.48,3.6-6.82a135.46,135.46,0,0,0-10.85-23.68c15-9.07,29.17-19.47,43.49-29.6,2-1.92,10.11-4.5,7.79-7.86C261.76,521.22,260.8,519.6,260.41,518.29Zm-24.66-76.56c1.24,4-2.36,7.92-1.39,11.87,1.62,2.42,3.52-.59,5.15-1.33.05,2.31-1.15,4.39-2.13,6.41-.26.5-.55,1-.85,1.56-1.71-4.17-3.66-8.22-5.62-12.27C233.37,448,233.81,443.21,235.75,441.73ZM230.42,434c.88,3.68-.39,7.39-.85,11.06-1-2.14-1.8-4.36-2.63-6.57A15.89,15.89,0,0,1,230.42,434ZM85.79,374c-.2-1.27-.41-3.13-1.79-3.32a3.31,3.31,0,0,0-1.5-.39,20.85,20.85,0,0,1-3.25-.1,3.27,3.27,0,0,1-1.66-.89c-3.87-2.72-6.28-4.23-6.94-9.3.2-4.54,3.8-9.21,8.6-9.18a.93.93,0,0,0,.85.28c2.79,5.63,5,10.46,9,15.19A1.66,1.66,0,0,0,92,365.26a21.55,21.55,0,0,0-.5-3C89.24,351,88.88,339.4,89,327.93c5.7,5.05,11.92-4.68,13.2-9.63.36,1.59.77,3.81,2,5.06-4.12,3.08-6.67,8.55-9.59,12.81-1.35.43-.72,3,.74,2.45,3.5-4,5.84-9.12,9.86-12.72,6-5.1,17.14,4.45,18.66,1.2.67-1.85-1.72-2.3-3-2.75-3.64-1.13-7.32-2.87-11.24-2.6a37.93,37.93,0,0,0,4.37-7.48c2.39,11,11.13-2.68,12.44-7.35,1.63-3.81,2.16-7.87,2.71-11.92,3.59,6.31,8.84,13.51,16.4,14.89,3.57-.08,5.57-3.07,4-6.38a11.31,11.31,0,0,0,9.35,3.16c.36,1.28.67,2.58,1,3.88-8.88-7.5-13.3,2.29-18.73,8.33-.58.75-2,2.55-.32,2.87.4,0,.64-.27.9-.53,3.36-3.72,6.78-8.29,11.14-10.81,3.22-.21,5.36,4,7.79,3.8,1,5.23,1.8,10.55,2.5,15.86-1.94-2.73-4.54-5.91-8.14-6.11-.5-1.51-.9-3-1.41-4.54a1.43,1.43,0,0,0-1.84-.81c-2.16,1.08.28,3.9,1,5.43a10.91,10.91,0,0,0-1.29.26.94.94,0,0,0-.82-.78c-.86-1.22-1.45-4.35-3.48-3.47-2.06,1.56,1.09,3.73,2,5.15a10.91,10.91,0,0,0-1.9,1.28c-1.21-1.18-1.59-3.39-3.33-3.79-3.35.84.85,4,1.83,5.32-1.79,2.4-4.68,8.54-3,11.24,2.65,4.29,12.53-4,16-5.09,1.28-.78,4.15-1.29,4.55-2.86,1.82,15.94,4.28,32.06,3.36,48.11-3.57,6.16-16.43,6.21-23,6.7a1.84,1.84,0,0,0-1.93,2.23c3.44,6.18,4.46,13.67,7.53,19.74-3.64,13.24-9.3,26-13.6,39.11-12.24-9.51-24.79-18.52-37.37-27.6C94.34,404.37,88.79,389.55,85.79,374ZM155.58,327a9.37,9.37,0,0,1,4.36,3.54c-1.37.58-2.74,1.17-4.08,1.81A5.11,5.11,0,0,0,155.58,327Zm-4.2,7.77a16.3,16.3,0,0,1-7.11,2.6c.88-4,2.89-8.87,7.18-10.15a3.26,3.26,0,0,0-.24.4C148.51,328.75,148.23,333.86,151.38,334.72ZM29.12,452.37c5-9.36,15.46-14.8,25.87-12.13,1.65,0,3.42.73,5,.12h0c5.56-3,11-6.25,16.78-8.9.87,6.22,1.43,12.68,3.77,18.56,4.1,6,7.91,5.86,12,0,3.53-4.82,7-9.68,10.93-14.18a1.83,1.83,0,0,0-2.88-2.26c-5.19,5.38-8.48,12.5-14,17.45-5.58-4-5.13-13.6-7.4-19.73a1,1,0,0,0,.27-1c5.54-2,10.34-5.42,15.48-8.17.26.19.57.34.84.52a1.64,1.64,0,0,0,2,1.35c12.85,8.77,24.89,18.65,37.71,27.41,1.68,8.85,4.07,17.66,6.35,26.37a1.42,1.42,0,0,0,2.76-.68c-2.24-8.77-4-17.65-6.6-26.33,5.2-14.49,13.2-28.69,14.35-44.31a1.14,1.14,0,0,0,.6-1.39,110.42,110.42,0,0,0,18.63-5.88c4-2.87,7.72-6.68,12.65-7.82,14-1.18,14.7,18,17.81,27.82-3.91,1.89-7.83,3.78-11.69,5.77-1.57-3.34-2.08-9.92-7.1-6.2-3,1.65-6.21,3-9.18,4.75-1.85-4.25-3.51-8.4-6.76-11.78-1.07-1.49-8.6-10.64-8.45-4.94a62,62,0,0,1,12,18.79c-1.35.88-2.7,1.63-4,2.45-1.07-1.53-3.24-.41-4.78-.91-3.43-1.15-7.08-1.42-10.54-2.58-.8-1.38-3.88-.09-2.76,1.49,4.35,2.66,9.72,4,14.71,4.77-.58,2.46,2,5.15,3,7.39A249.73,249.73,0,0,0,143.12,452c-3.09,2-1.47,4.12-.24,6.66a47.09,47.09,0,0,0,3.77,7.3c2.31,2.53,2.16,6.91,4.77,9.37-13,5.12-14,21.1-13,33.33-16,19.88-32.21,39.56-46.06,61.08-3.8-23.53-7.75-47.38-13.73-70.48-.81-6.53-4.32-4-3.14-2.27,1.55,14.89,4.42,29.65,7.39,44.33-1-2.27-3.88-.4-5.66-.19a108.15,108.15,0,0,0-14.7,3.66l-2.33.74c-2.49.81-5,1.65-7.45,2.49l-2.26.77c-3.57,1.2-7.16,2.35-10.8,3.35C34.4,525.35,14.13,475.62,29.12,452.37ZM245.75,514c-10.07,8.16-20.38,16.29-30.72,24.14-4.42,4-8.62,8.24-13.73,11.32-10.15-18.23-19.43-36.9-30.07-54.85,3.41-2.43,3.79-8.92-1.55-8.62,2.47-3.15,3.1-7.55-2.59-7.3,3.77-4.64-1.13-6.68-5.39-5.91a177.18,177.18,0,0,1-7-16.78,126.13,126.13,0,0,1,15.52-10.8c1.6,4.11,7.18-.3,9.59-1.66,3.67-2.38,7.09-5.12,10.87-7.32a3.45,3.45,0,0,0,2.23-2.78,1.16,1.16,0,0,0,.32-.57c6-2.1,11.37-5.75,17.48-7.64,5.37,11.07,9.24,22.75,13.92,34.11,7.53,17.49,16.43,34.68,21.86,52.94A1.85,1.85,0,0,0,245.75,514ZM170.1,436.19c-.66-1.06-1.5-2.72-2.19-4A185.71,185.71,0,0,1,185,422.38c.57,1.5,1.19,3,1.82,4.44C181.22,429.9,175.78,433.26,170.1,436.19Zm18.17-5.89c.34.86.67,1.72,1,2.58-5.47,3-10.18,7.21-15.87,9.81-.54-1-1.21-2-1.83-2.95C177.22,436.76,182.69,433.44,188.27,430.3Zm-20.08,11.26c.25.49.51,1,.77,1.46a95.08,95.08,0,0,0-15,9.39c-2.94,2.26-3,3-1.58,6.39a155.67,155.67,0,0,0,6,14.53c-.66.14-1.32.3-2,.47-.84-2.74-4.17-7.08-4.94-8.5-2.15-3.16-3.44-6.77-5.15-10.16C153.14,449.88,160.63,445.67,168.19,441.56ZM40.38,554.5C53,552,65,547.1,77.72,544.65c1.72-.76,5.14-.29,5.32-2.74.82,3.94,1.68,7.87,2.5,11.81-5.26,2.36-10.9,3.73-16.24,5.89-8.77,1.8-16.46,6.64-25,9.11C42.9,564,41.8,559.22,40.38,554.5Zm33.88,84.84a40.19,40.19,0,0,1-9.6-14.11c-8.8-17-13.56-35.37-19.41-53.51a1.31,1.31,0,0,0,.79-.55c6.41-.76,12.37-3.56,18.44-5.59a176.52,176.52,0,0,0,21.86-7.69c1.32,5.52,1.78,11.1,2.9,16.59.12.93.15,2,1.09,2.5,2.73,1.29,3.22-2.49,4-4.23,2.7-.47,5.69-7.94,7.9-10.29,3.7-5.18,7.73-10.11,11.09-15.53,8.93-12,18.68-23.3,27.8-35.12,2.68-4.41.07-10.69,1.13-15.74-.18-12.77,11.06-20.35,23-20.08-1.36,3.13-8.93,4.78-9.8,7.13-.19,4.81,8.65-2.43,12.94-1.28-1.24,3.34-4.79,5.13-7.49,7.18-1,.87-2.88,1-3.15,2.51-.53,1.22.58,2.79,1.81,1.76,3.62-.63,6.67-3.27,10.4-3.36-1.81,3.62-6.3,4.65-9.5,6.86-7.47,4.09,6.86,6.77-3.87,24.59-8.38,19.38-17.4,38.52-26.34,57.72C122.44,595.2,97.87,656.29,74.26,639.34Zm141.19-53.73a87,87,0,0,1-32,10.89c-5.19.81-10.25,2.1-15.37,3.22l-3,.62c-2.06.41-4.14.77-6.24,1-11.58,1-23.31.55-34.94,1.17,11-22,20.66-44.56,31.23-66.73,2.13,10.8,2.64,21.94,5.1,32.71,1.18,5.28,1.86,10.62,2.73,16a1.71,1.71,0,0,0,3.32-.82c-3.31-17.12-4.9-34.61-9.4-51.48,4-9,10.9-18.31,7.57-28.68,8.63,18.43,15.56,37.83,25.07,55.93,4.82,11.19,9,5.91,17.24,1.87a1.13,1.13,0,0,0,.35.93C209,570.28,212.43,577.92,215.45,585.61Zm-19.77-23.35c-11.53-20.36-16.53-44.4-30.41-63.5a42.66,42.66,0,0,0,4-2.53c2.43,5.43,5.23,10.65,8,15.9h0a106.57,106.57,0,0,0,9,16.69c3,5.35,5.4,11,8.94,16.09,1.87,2.42,2.62,6.06,5.09,7.85,3.44.41,13.7-9.46,16.69-12,10.15-8.43,22.17-15.81,31.1-25.2,5-1.52.6-8.52-.45-11.79-7-17.81-15.22-35.13-22.56-52.81-3.09-9.57-7.55-18.58-11.92-27.59-.58-5.31-17.54,6.34-20.78,7.15-.23-.68-.49-1.37-.73-2.06,6.73-3.52,13.63-6.7,20.49-10,5.35,9.06,8.81,19,12.73,28.73,11.68,24.53,21.3,50,32.36,74.79C237,535.79,217.91,551.73,195.68,562.26Z"/><path class="cls-1" d="M83.3,380.84c-.74,4.28-3,7.72-7.67,8-3,.15-4.93-3.57-5.79-7.86-1.17-5.89-.26-12.87,3.07-12.52,2.07,1.07,0,3.1-.17,4.71a21.64,21.64,0,0,0,.25,8.7c.51,2,1.42,3.55,2.9,3.92a5.83,5.83,0,0,0,3.62-3.82c1.22-3.39.69-8.18-.26-11.72a20.83,20.83,0,0,0-.86-2.6c-.45-1-1.34-2.26-.21-3.09s2.67-.22,2.24,1.26a16.26,16.26,0,0,1,2.08,4.53A23.75,23.75,0,0,1,83.3,380.84Z"/><path class="cls-1" d="M170.54,353.49c-.33-1.64-1.72-3-1.74-4.66,1.72-2.67,3.65,2.27,4.4,3.63A1.43,1.43,0,0,1,170.54,353.49Z"/><path d="M464.29,303c-7.37-.7-12.74-16.07-4-18.4C470,279.17,486.06,303.51,464.29,303Zm2.18-3.52c10.56-.38,2.5-9.51-2.16-12.26.53,2.65,0,8.63-3.64,8.5,1.05,2.37,3.32,4.24,6,3.75Zm-5.73-9.35a1.73,1.73,0,0,0,.25-1.2h0A7.06,7.06,0,0,0,460.74,290.1Z"/><path d="M455.87,313.29c-1.81-.58-.5-4,.82-4.42,1.7-.7,2.93,1.76,1,2.32C457.47,312.23,457.3,313.6,455.87,313.29Z"/><path d="M460.59,313.84c-1.8-.41-.8-2.68-.3-3.8a.61.61,0,0,0-.05.18,1.14,1.14,0,1,1,2.22.48C461.8,311.78,462.43,314,460.59,313.84Z"/><path d="M465,314.73c-1.78-.35-.87-2.35-.74-3.55a1.17,1.17,0,0,1,1.17-1.19c1.76.17,1.1,2.43,1.05,3.63A1.31,1.31,0,0,1,465,314.73Z"/><path d="M616.2,572.25c2.48,0,3.47-1.93,3.31-4.1a326.73,326.73,0,0,0,.74-44.8c-1.15-14.26-2.55-28.76-4.59-43.2q-.92-6.45-2-12.89c-5.27-30.92-14-61.22-29.88-88.08-7.39-12-17.08-17.15-31.19-16.22-1.52-5-4.33-9-9.05-13.1-.49-2.12-1.44-4.13-2-6.22,7-1.05,6.72-7.46,4.66-12.79-.55-2.87,4.49-6.32,6.14-8.53,6.37-7.66,4-17.56-1.1-25.14,3.62-4.92,8.08-10.37,8.22-16.84a28.23,28.23,0,0,0-15.16-25.72c-1.89-1.16-4.71-1.68-5.18-4.2-1.5-8.65-5.94-16.67-13.51-21.44-4.73-3.74-10.16-5.39-16.11-6.22-4.14-1.28-12.64,2.37-14.85.74-2.93-2.65-6.07-5.52-9.94-6.64-10.9-.82-25.21,5.93-25.42,18.24-2.22,1.8-5.57,1.9-8,3.47-8,6.86-3.21,19.22,6.9,20.93a45.2,45.2,0,0,0-2.66,6.2c-3.46-.17-4.28,3.55-1.69,5.5-2,7.59-3.82,15.53-9.21,21.53-3.64,5-9.3,9.93-9.06,16.64,2.57,5.22,9.76,1.5,13.57-.34-4,18.06-4.2,7.23,7,19.59-12.5-1-9.22-4.28-10.31,10.09-.08,3.14-.47,6.49.84,9.43,4.44,6.73,13.52,9.1,21.18,9.29,1.71,6.22,3.38,12.5,5.24,18.66-4.79,4-3.07,10.05-2.66,15.44-1.17.7-2.3,1.43-3.42,2.19-.9.61-1.79,1.24-2.66,1.9-9.17,6.87-16.69,15.82-23,25.43-.95,1.46-1.88,2.93-2.77,4.42-.23.37-.45.74-.67,1.11-8.15,9.79-13.8,21.1-18.72,32.77-5.56,12.67-11.09,25.42-14.48,38.88-21.38-29.28-40-60.34-57.27-92.17l-1.93-3.56-.27-.51a1.18,1.18,0,0,0-1-2,12.89,12.89,0,0,1-1.23-2.64,23.16,23.16,0,0,0-1.23-2.94,3.57,3.57,0,0,0-3.55-2.21c-5.58,1.23-4.38,10.59-3.09,14.65-5.53-2.64-6.64,4.08-5.49,8.06-8.95-3-8.47,5.18-4.93,10.61a13,13,0,0,0,1.7,2.15,9.21,9.21,0,0,0,1.93,1.51,5.49,5.49,0,0,1,1.55,2.84c.29,1.07.46,2.2.81,3.2.17.63.34,1.25.5,1.88,1.26,4.65,2.46,9.31,3.48,14,8.91,30.31,15.65,61.28,27.16,90.75,1.92,4.81,3.75,9.83,5.68,14.85,1.73,4.46,3.55,8.93,5.59,13.22a75.89,75.89,0,0,0,11.23,17.78c10.48,13.83,26.76-11.3,33.15-19.12,4.22-5.24,8.31-10.56,12.17-16.08.24-.32.46-.66.69-1q7.31-10,14.76-19.9,7.74-10.26,15.69-20.35-.27,7.6-.52,15.2c-.18,5.25-.36,10.5-.57,15.75q-.18,4.49-.37,9c-.13,10.45-1.64,20.68-1.47,31.24.23,2.88,3.65,2.39,5.77,2.87-1.47,18.18-.55,36.45.23,54.65,3.25,6.68,47.76,2.26,57.12,2.66,30.19-1.74,60.43-2.66,90.56-5.23,7.15-1.6,9.32,1.29,8.71-7.79C619.91,610.44,616.84,591.44,616.2,572.25ZM547,363.4c-25.56,5-50.49,14.66-73.71,26.44.13-2.71.27-5.36.54-8.1C489,365.36,519.56,358.08,541,353.43,543.8,356.13,545.5,359.82,547,363.4Zm-75.43-7.47a3.15,3.15,0,0,0-1.35-1.91c-5.82-1.07-12-1.26-17.08-4.76-5.85-3.41-2.64-12.5-3.51-18.27,16.25,3.41,8.62-6.77.34-11.75,7.86-27.15-1.38-8.9-11.47-10.58,4.15-12.91,14.91-12.42,19-34.64,26.69,19.22,23.37-5,1.88-8.16.5-2,1.05-3.94,1.72-5.87,8.85-.73,23.16.07,24.16,11.4.09,5.68-2.49,11.43-.32,17,.9,3.35,3.74,5.57,5.17,8.59,1.65,3-3.57,13.11,1,12.9,2,.46,3.91,2.53,5.9,2.21,2.51-1.28.49-9.17,8.14-9.63,3.54,1,6.31,5.68,4.87,9.26-.51,3.29-5.18,5.52-4.11,8.59,4.56,9.53,14.42,17.12,23.48,22.2,1,.81,2.72,1.79,3.69.53,1.74.32,3.49.53,5.25.71.18,2.16.5,3.76.82,5.74-22,4.38-43.84,10.52-62.61,23.45A152.66,152.66,0,0,0,471.54,355.93Zm144.55,193c-.21,6.42-.09,12.61-1,19-33.85,4-67,12.93-101.28,14-17.31,2.16-35.07,2.45-52.31-.62,1.65-24.22,4.65-48.53,1.87-72.79a1.11,1.11,0,0,0,0-1.82,1.89,1.89,0,0,0-.73-.38,2.34,2.34,0,0,0-2.39-.8c-2.87.77-5.77,6.72-7.46,8.5-10.6,13.81-20.83,28-30.58,42.52-5.84,6.5-26.17,40.31-35.52,28.66a169.12,169.12,0,0,1-12.45-24v0q-1.25-2.91-2.4-5.84c-6.71-16.94-11.64-34.69-17.22-52a.44.44,0,0,1,0-.1c-1.81-6.92-3.65-14-5.59-20.94-.24-.85-.47-1.69-.71-2.53-1.19-4.25-2.43-8.49-3.72-12.67-1.25-3.69-2.26-7.52-3.22-11.38-.24-1-.47-1.91-.7-2.86-2.25-9.18-4.53-18.4-9.47-26.22-2.54-1.93-6.23-5.42-5.29-8.94a10.09,10.09,0,0,1,6.41,2.82,1.74,1.74,0,0,0,2.38-2.35c-1.43-2.37-2.41-5.38-1.67-8.13,2,.75,3.21,2.48,4.55,4,8.11,3.14-3.18-14.39,1.32-18.5a13.35,13.35,0,0,1,1.2,1.92c4.84,14.08,11.82,27.14,19.33,39.94l1.66,2.8c3.81,6.41,7.73,12.76,11.55,19.15.58,1,1.14,1.92,1.71,2.88,1.91,3.22,3.79,6.46,5.61,9.72,7.18,10.61,14.69,21.08,22.19,31.47a3,3,0,0,0,.8.72,2.7,2.7,0,0,0,.53.22,2.34,2.34,0,0,0,1.9-.26,2.62,2.62,0,0,0,1.16-1.34,2.29,2.29,0,0,0,.06-1.51,384.84,384.84,0,0,1,27.47-62.06c3.42-4.77,7.28-9.22,10.23-14.31a86.62,86.62,0,0,1,14-17.58l.94-.9.82-.78c20.2-18.8,65.48-34,92.26-38,5.24-.56,10.69-.64,15.55,1.48,11.73,7,17.78,20.28,22.84,32.44A322.33,322.33,0,0,1,609.82,468q1.17,6.48,2.1,13A435.07,435.07,0,0,1,616.09,548.88Z"/><path d="M419.62,363.67c-2.94-.27-5.94.23-8.84-.41s-7.22-3.05-4.85-6.42c3.3-2.95,8.59-2.8,12.55-4.54.22-6.58-1.38-13.49.39-19.89,5.4-5.78,7.72,10.93,9,14a1.86,1.86,0,0,1-3.46,1.34c-1.43-4.16-1.55-8.7-3.3-12.78-1,19.63,7.39,19.37-11.19,23.41,3.46,1.59,7.39,1.73,10.88,3.2C422.1,362.57,421.08,363.94,419.62,363.67Z"/><path d="M464,395.28c-7.3-10.3-15.86-19.43-24-29-4.82-6.44-15.43-12.07-15.59-20.65.82-1.25,2.28-.33,2.54.85,3.22,4.89,7.88,8.94,11.85,13.3,5.07,5.49,9.76,11.42,14.64,17,4.64,5.31,9.15,10.74,13.31,16.44A1.71,1.71,0,0,1,464,395.28Z"/><path d="M438.79,426.08c-7.74-20.91-18.57-42.41-20-64.62,2.44-1.46,3.15,4.38,4.09,5.83,3.82,10.64,6.27,21.95,10.29,32.45,3.38,8.2,6.23,16.61,9.59,24.81A2.11,2.11,0,0,1,438.79,426.08Z"/><path d="M427.48,389.53a1.22,1.22,0,0,1,.3-1.33h0c5.59-5.93,11-12.09,17.44-17.08a1.63,1.63,0,0,1,1.94,2.63c-2.61,1.94-4.77,4.44-7.29,6.51C437.89,381.57,429.11,393.05,427.48,389.53Z"/><path d="M435,408.13c-2.77-.46-.63-3,.62-4,3.57-3.46,6.82-7.25,10.58-10.51,3.51-2.76,6.83-6.36,10.79-8.29a1.67,1.67,0,0,1,1.13,2.85c-8.2,6.07-14.7,14.43-23.16,19.91Z"/><path d="M339.41,455.82a1.22,1.22,0,0,1,.59-2.31c6.3-6.3,12.95-12.32,20.63-16.89a1.58,1.58,0,0,1,1.88,2.55c-2.73,1.88-5.49,3.71-8,5.83-3.46,3.12-7.17,5.95-10.8,8.87C342.45,454.64,341,456.8,339.41,455.82Z"/><path d="M346.77,482.74c-1.82-1.12.32-2.58,1.55-3,5.51-4.68,11.41-8.82,16.69-13.75,2-1.42,8.18-9.53,10.24-6.28a1.7,1.7,0,0,1-.67,2.27c-6.48,5.08-11.92,11.36-19,15.72C353.62,479,348.92,483.37,346.77,482.74Z"/><path d="M393.77,374.7c-3.12-1.44-4.66-17.31-5.53-21.19-1.36-9.55-3.22-19-5.28-28.45-1.15-4.66,4.06-3.3,6.77-3.66,8.52-.43,16.76-3,25.34-2.6,2.19.06,4.65-2.08,4.93,1.55.52,4.82.6,9.69,1.11,14.52a1.15,1.15,0,0,1-.68,2c-3.16.37-2.91-12.36-3.56-15-10.28,0-20.12,3.3-30.39,3.24,3.36,15.42,4.72,31.29,8.52,46.55,8.22-2.14,16.36-4.77,24.68-6.63A1.89,1.89,0,0,1,421,368.6c-5.54,1.53-11.2,2.62-16.76,4.09C400.86,373.58,397.37,375.25,393.77,374.7Z"/><path d="M398,332.88c-2-.43-1.67-12.18-2.06-14.6-3-1.56-.61-3.92,2-3.79,2.86,0,8.63-2.6,9.35,1.57C408.79,334.07,415.1,330.78,398,332.88Zm.94-8.3c.24,1.75.48,3.5.65,5.26a44.08,44.08,0,0,1,6.86-.87c-.85-4-1.42-8.12-2-12.22a48.36,48.36,0,0,0-6.33,1.19C398.38,320.16,398.66,322.37,399,324.58Z"/><path d="M345.85,406.16c-4.51-1.11,8.67-17.23,9.61-20.43,1.26-1.69,1.11-5.7-1.83-4.44-3.24,2.68-4.93,6.74-7.11,10.24-1.12,1.13-4.48,9.83-5.91,5.72a66,66,0,0,1,3.64-7.87c1.72-3.72,3.57-7.48,6.61-10.33,4.11-3.59,9.5-.29,8.83,5-1.53,6.48-6.46,11.56-9.34,17.47C348.94,403,348.58,407,345.85,406.16Z"/><path d="M317.52,451.87c-1.72-.57-1.18-2.79-1.43-4.19-.58-2.95.69-5.8,2.1-8.23,1.05-1.5,7.05-19.24,9-14.6,0,.49.1,1.12-.26,1.51-1.87,4.73-3.52,9.47-5.53,14.06-1.27,2.29-2.63,4.48-2,7.21,4.71-2.31,7.52-10.33,10-14.91a1.85,1.85,0,0,1,2.4-1c2.44,1.27.1,4-.71,5.6C327.66,443,324.62,450.62,317.52,451.87Z"/><path d="M322.82,444.61c-1.48-1.31-4.11-2.29-4.43-4.39a1.43,1.43,0,0,1,2.67-.33c1.2.66,2.43,1.29,3.63,2A1.66,1.66,0,1,1,322.82,444.61Z"/><path d="M349.31,398.1c-1.31-.85-6.78-3.82-6.3-5.49.85-2.32,6.33,2.14,8,2.6A1.68,1.68,0,0,1,349.31,398.1Z"/><path d="M585.78,609.27c-2.37-2.07.88-4.37,1.7-6.38.67-1.67,1.57-4.13,3.84-3.2,2.12.92,1.25,3.28.41,4.82C590.48,606.53,588.81,611.22,585.78,609.27Z"/><path d="M403.28,519.49c-3,.17.54-17,1-19.47,4.17-2.82,1.36,9.22,1.31,11.05C404.69,513.13,406.2,519.59,403.28,519.49Z"/><path d="M403.63,518.72c-2.77-.33-.79-6.7-1.1-8.78.52-1.84-.3-8.53,1.94-8.58a1.09,1.09,0,0,1,1.07,1.1c-.39,2.49-.12,5.09-.28,7.62C404.78,512.11,406.27,518.58,403.63,518.72Z"/><path d="M390.84,521.39c-1.67-1.39,1-3.89,1.46-5.49,1.77-3.8,4.69-6.67,7.64-9.55,1.24-2.11,3.57.29,1.31,2.06-2.14,2.25-4.45,4.36-5.94,7.13C393.93,517,393.29,522.31,390.84,521.39Z"/><path d="M395,531.21c-1.85-.68-.24-2.91-.16-4.25.33-1.62,2-14.36,4.76-9.26C397.28,520.28,398,531.92,395,531.21Z"/><path d="M458.72,508.58a1.11,1.11,0,0,1,0-1.9c3.7-2.86,7.45-5.69,11-8.73a1.55,1.55,0,0,1,2.16,2.23C469.48,502.17,461.48,509,458.72,508.58Z"/><path d="M466.13,507.77c-2.2-2.52,3.91-2.36,5.24-3.16,3-1,5.56-2.88,8.18-4.57,1.27-.65,3.24-2.86,4.46-1.14a1.3,1.3,0,0,1-.51,1.76C478.17,504,472.68,508.16,466.13,507.77Z"/><path d="M479.22,497c-1.72-1.74,5.5-5.6,6.89-6.4a1.16,1.16,0,0,1,1.49.66c.41,1.94-2.64,2-3.71,3C482.51,494.75,480.5,497.76,479.22,497Z"/><path d="M469.83,570.77c-1.42-1.49-5.46-7.68-4.17-9.51,1-1,2.88-.07,2.2,1.36a20.94,20.94,0,0,0,3.71,5.93A1.41,1.41,0,0,1,469.83,570.77Z"/><path d="M487.53,569.89c-7.14-1.69-14.16-5.38-18.15-11.72-1.78-3.14,2.59-5,1.8-1.27,0,0,0-.09,0-.13,3.5,5.77,10.32,8.83,16.63,10.36C489.66,567.24,489.37,570.18,487.53,569.89Z"/><path d="M502.69,567.14c-6.81-5.4-11.79-1.79-18.32-6.43-1.58-.66-.3-2.67,1.09-1.7a13.82,13.82,0,0,0,6.19,2c2.44.17,5-.27,7.32.8,1.55,1.07,6.25,2.21,5.6,4.52A1.44,1.44,0,0,1,502.69,567.14Z"/><path d="M463.84,425.89c-2.12-5.91-1.39-13.16-5.38-18.46-3.79-3.53-.08-5.15.74-2.79,3.47,3.56,4.64,8.47,5.5,13.2C464.64,419.59,467.69,427.52,463.84,425.89Z"/><path d="M468.15,485.53c-2.19-.69-.27-4.65-.79-6.47-.55-15-.2-30.09-3.17-44.84-.83-2.76,2.9-2.6,2-.53,3.49,14.73,2.9,30,3.6,45C469.49,480.52,470.76,485.4,468.15,485.53Z"/><path d="M71.3,485.84c-3.45-13.08-5-26.68-9.67-39.41a1.2,1.2,0,1,1,2.26-.8c4.31,9.37,5.71,19.54,7.57,29.59.53,3.39,1.66,6.65,2.28,10A1.26,1.26,0,0,1,71.3,485.84Z"/><path d="M47,451.72c-1.78-1.65,1.29-3.47,2.44-4.48a16.17,16.17,0,0,1,8.29-1.91c1.79.45,1.26,3.18-.59,2.46C49.67,448.4,49.1,453.18,47,451.72Z"/><path d="M53.5,462.42c-3.12-2,2.41-7,4.6-7.78,1.48-1,3.07,1.25,1.36,2.07a7.42,7.42,0,0,0-2.21,1.39C55.17,459.19,55.58,462.87,53.5,462.42Z"/><path d="M59.43,472.37c-2.74-.9,0-4.41.69-6.07.49-1.29,2.57-1.64,2.82,0,.14.71-.53,1-.81,1.56C61.06,469.2,61.69,472.44,59.43,472.37Z"/><path d="M51.71,549.64c-1.9-.13-4.79-8-5.51-9.86a1.33,1.33,0,0,1,2.48-1c.32.82.65,1.63,1,2.44C49.78,543.29,55.13,549.32,51.71,549.64Z"/><path d="M60.88,546.49c-3.6-4.68-2.67-11.54-3.74-17.14,0-1.32-1.61-3.5.24-4.13,3.54-.43,2.24,15.61,4.62,19.12C63.54,545.06,62.32,547.18,60.88,546.49Z"/><path d="M69.86,542.61a1.09,1.09,0,0,1-.8-1.58c-.17-2-1.88-11.51.21-11.95,2.92-.34,1.2,5.83,1.73,7.67C70.71,538.43,72.63,542.68,69.86,542.61Z"/><path d="M165.17,600.58c-.8-3.41-.73-6.93-1-10.4-1.1-1.78,2.24-3,2.38,1.54.46,2.72.83,5.47,1.55,8.13A1.52,1.52,0,0,1,165.17,600.58Z"/><path d="M679.67,269.69c-.47,2.66-5.47.67-7.48,1.47-.73.07-1.44.52-2.18.38a1,1,0,0,1-.2-1.81C671,268.59,679.84,267,679.67,269.69Z"/><path d="M706.86,239.79a14.69,14.69,0,0,0,8.83-3c-2.89-6.87-13.23-9.81-18.11-3.49h0a10.08,10.08,0,0,0-2,4.45c1-.29,1.67.38,2.46.85C700.81,239.88,703.92,239.88,706.86,239.79ZM719.21,236c1.09,7.71-21,9.81-24.8,4.5-1.63,0-.91-3.82-.8-4.88C696.53,222.46,715.6,224,719.21,236Z"/><path d="M703.6,230.51c6.28,2.42-.92,14-5.51,8.11A5.25,5.25,0,0,1,703.6,230.51Z"/><path d="M721.26,214.78c1.17,2.87-2.22,2.78-4.09,2.38a93.35,93.35,0,0,0-16.55.21c-3.12-.15-13.32,4.34-10.93-2.15h0C699,210.85,713,205.52,721.26,214.78Z"/><path d="M716.49,211.17a1.43,1.43,0,0,1,.35,1.41c-.76,2.11-2.74.62-4.28.6a71.51,71.51,0,0,0-11.24.34c-4.25.44-7.73,2.95-11.7,4.27-1.51,0-1.5-2.25.07-2.57h0c.43-.3.86-.6,1.3-.88h0c5.66-3.74,10.85-4.72,17.84-4.57C711.16,209.74,715.29,209.85,716.49,211.17Z"/><path d="M657.69,251.33c1.08-.84,2.72,1.17,1.3,1.82-.14.89-.12,2.27-1.38,2.13a1.07,1.07,0,0,1-.9-1.2C656.94,253.16,657,252,657.69,251.33Z"/><path d="M662.38,250.58c2.17-.94,1.85,3.62,0,3.36C660.86,253.64,661.56,251.3,662.38,250.58Z"/><path d="M698.41,248c1.49-.37,2.57,2.49.85,2.86-.24,1.06-.38,2.76-1.89,2.41C695.52,252.91,697.13,248.27,698.41,248Z"/><path d="M703.29,252.39a1.13,1.13,0,0,1-1.09-1.29c-1.45-.59-.2-2.23.91-2.26C704.66,249,705.06,252.37,703.29,252.39Z"/><path d="M708.87,248.18c1.89,0,2,5-.22,4.59-1.46-.26-1.13-1.7-1-2.77C707.51,249.17,708,248.06,708.87,248.18Z"/><path d="M755.81,378.59a2,2,0,0,1-3.11-1A22.69,22.69,0,0,1,755.81,378.59Z"/><path d="M740,446.38a1.93,1.93,0,0,1-.15,3.51Q739.94,448.14,740,446.38Z"/><path d="M799.77,468.31a1.48,1.48,0,0,1-2.38,1.75,22.32,22.32,0,0,0-6.38-5.77,1.21,1.21,0,0,1-1.36-1C790.57,458.86,798.62,466.52,799.77,468.31Z"/><path d="M770.94,397c-2.65-1.44,5.72-12.32,7.59-9.93,1.42,2.31-2.68,3.67-3.76,5.32C773.22,393.52,773.27,397.85,770.94,397Z"/><path d="M778.19,395.2c-.4-.67.48-2.1,1.29-1.9a15.7,15.7,0,0,0,8.67-8.49,1.41,1.41,0,0,1,2.59,0c0,2.73-2.66,5.15-4.4,7.13C785.36,393,779.06,396.67,778.19,395.2Z"/><path class="cls-1" d="M687,468.83a4.33,4.33,0,0,1-.28-.81c-1.53.15-2.07-1.56-2.65-2.67-3.39-6-8.94-10.42-14.06-14.77-2.12,1.6-14.3,8.29-15.88,5.56-1-2.14.32-4.68.6-6.89,1.83-5.79,3.17-11.69,4.75-17.54,2.16-4,10.62-45.56,16.14-38.3a1,1,0,0,1,.6,1.81,317.84,317.84,0,0,1,11,53.22c.84,6.21,2.28,12.32,3.23,18.51A2,2,0,0,1,687,468.83Zm-1.93-8.66c-4.37-19.44-6.19-39.18-11.8-58.27-5.55,16.55-9.73,33.59-15.08,50.21a45.94,45.94,0,0,0,7.57-3.14c1.66-.78,3.32-2.59,5.28-1.84A58.54,58.54,0,0,1,685.07,460.17Z"/><path class="cls-1" d="M670.08,449.15a1.13,1.13,0,0,1,.24-2.21c2.78-.56,12.09-4.83,13.06-.74a2,2,0,0,1-1.72,2.16C677.79,448.28,673.92,449.26,670.08,449.15Z"/><path class="cls-1" d="M687.38,468.65c-.65-.82.34-2.11,1.29-1.86,16.05-8.13,32.81-14.62,49.82-20.48a1.93,1.93,0,0,1,1.62,3.48c-5.6,2.48-11.35,4.61-17.09,6.73-9.24,4.05-18.74,7.4-28.17,10.94C693.23,467.91,688.49,470.13,687.38,468.65Z"/><path class="cls-1" d="M675.06,395.58c-7-2.14,6.85-5.54,8.55-6.67a230.42,230.42,0,0,1,38.44-13.76A237.26,237.26,0,0,1,749.16,367c9.11-3.35,8.3,1.54,7.42,9,0,1.41-.34,3-2,3-3.54-.63-1.17-5.48-1.85-7.93-16.8,4.57-33.8,8.69-50.22,14.56-8.23,3.17-16.36,6.7-24.93,8.89C677.28,395.58,675.93,395.61,675.06,395.58Z"/><path class="cls-1" d="M686.86,406.77c-2-2.33,6.69-3.6,8.12-4.6,7.54-2.79,15.3-4.85,22.9-7.37,3.62-1.05,7.35-1.77,10.75-3.45a1.54,1.54,0,0,1,2,2c-.87,1.33-2.81,1.54-4.16,2.24-8.69,2.5-17.2,5.63-26,7.95C696.88,404.38,690.13,407.64,686.86,406.77Z"/><path class="cls-1" d="M735.6,401.09a1.51,1.51,0,0,1,.72,2.93c-7.37,2-14.48,4.72-21.69,7.19-2.19.15-29,12.78-24.09,5.75h0C705.45,411.37,720.16,405.14,735.6,401.09Z"/><path class="cls-1" d="M739.85,415.21a1.67,1.67,0,0,1,.8,3.24c-7.8,2.29-15.45,5-23.11,7.69-6.66,2.13-13,5.27-19.64,7.37-1.86.34-4,1.76-5.83.94-1.16-.86,0-3,1.36-2.44C708.72,425.91,724,419.71,739.85,415.21Z"/><path class="cls-1" d="M696.63,449.2c-4.21-2.39,6.42-4.38,7.87-5.43,5.56-2.37,11.2-4.52,16.84-6.69,4.78-2.09,9.95-3.31,14.77-5.22a1.69,1.69,0,0,1,1.63,3C723.89,439.1,710.68,445.62,696.63,449.2Z"/><path class="cls-1" d="M703.17,448.36a1.78,1.78,0,0,1-3.53.4c-1.16-10.3-2.18-20.61-3.35-30.89-.51-6.05-3.23-12.14-2.4-18.19,1-1.83,3.89.48,2.53,1.92.65,5.14,2.69,10,3.41,15.09C701.34,427.19,702,437.82,703.17,448.36Z"/><path class="cls-1" d="M716.09,440.39c-2.62-14.83-5.91-29.57-7.41-44.54.45-2.51,3.21-.72,2.66,1.15,2.3,9.78,4.67,19.54,6.25,29.47l0-.1c.85,4.35,1.37,8.76,2.24,13.11A1.92,1.92,0,0,1,716.09,440.39Z"/><path class="cls-1" d="M733,438.22c-1.94-3-1.3-7.2-2.39-10.59-2-10.42-4.08-20.83-5.47-31.37,0-1.73-1.41-4-.12-5.43,1-.8,2.65.49,2.32,1.67,3,11.81,6.24,23.64,8.15,35.68.5,2.65.75,5.32,1.2,8A2.31,2.31,0,0,1,733,438.22Z"/><path d="M686.83,395.67c-.77-1.42.4-2.23,1.36-2.95.14-2.31-.32-5.25-2.56-6.44-2.53-1.13-.46,3.22-2.81,2.54-3.19-2.77,1.25-7.32,4.53-5.2,3.67,1.45,5.61,7.9,3.73,11.22C690.22,396.24,687.92,397.54,686.83,395.67Z"/><path d="M696.69,391.3c-1.45-1.94,1.12-2.87,1.57-4.5-.16-1.52-.84-5.2-2.71-5.31-1.31.11.76,3.6-2.37,2.65-1.63-1.35-1.08-4.77.92-5.64,5.53-2.65,9.73,7,7.3,11.06C700.64,391.3,698.28,393.31,696.69,391.3Z"/><path d="M728.44,382c-1.2-1.61.66-2.55,1.43-3.7.89-1.46,1.58-6.81-.7-7.15.56,1.82-2.28,3-3.16,1.32-1.27-3.1,3.35-5.6,5.69-3.6C736.44,371.43,733.51,385.83,728.44,382Z"/><path d="M742.42,375.49c-1.81-.51-1.32-2.38-1-3.75,0-1.45-.29-3.71-2-4l.08,0,.12,0a2.7,2.7,0,0,0-1.37.22c-1.06,3.2-4.89.06-1.71-2.39C744.07,360.28,748.23,375.86,742.42,375.49Z"/><path d="M691.86,375.09c-2.38-.55-.79-3.56-.81-5.2-.4-1.43,1.2-2.81,2.32-1.51C693.92,369.87,694.49,375.46,691.86,375.09Z"/><path d="M816.25,378.66c-.9-24.88-8.8-54.27-35.14-62.79-13.91-6.79-29.08-10.4-44.21-13.23.26-18.77,1.21-37.54,1.46-56.31,9.3-1.83,15.34-10.25,5.22-16.24,3.43-13.81,8.08-33.86-6.78-42.57-.2-14.33-12.12-21.2-25.29-17.51-4.78,1.23-9.1,3.79-14,4.66-5.62.49-11.44-.35-16.8,2-7.88,3.44-14.16,9.22-20.75,14.54a100.66,100.66,0,0,1-12.67,5.93c-14.24,6.56-12.18,27.59,3.62,30.3a269.56,269.56,0,0,0,3.22,55c2.48,8.05,17.71,3.82,23.6,2.09,0,6.74-.21,13.5,0,20.23-12.26,1.35-23.55,7.25-34.83,11.91-3.64,1.67-7.31,3.27-10.94,5-1.61.86-4.21,1.07-4.89,2.71a5.3,5.3,0,0,0-2,.9,2.2,2.2,0,0,0,.51,3.95,3.56,3.56,0,0,0,3.42-.77c10.71-4,21.11-9.08,31.9-13.08.44,4.32,1.84,8.59,2.63,12.84.25,1.13.1,2.62,1.23,3.3,2.33.95,4-2.23,5.95-3.11,3.71-2.42,7.19-5.18,10.92-7.58a1.73,1.73,0,0,0-.78-3.09c-5,1.88-9.19,6.34-13.95,9-1.05-4.16-2.52-8.2-3.59-12.35,5.25-2,10.37-4.3,15.52-6.54,4,8.76,8,17.68,13.37,25.69-.31,10.31-1.69,20.57-2.12,30.89-.08,2.18,3.35,2.22,3.36.05.5-10.17,2.14-20.32,1.47-30.54,10.47-5.56,20.1-12.57,29.95-19.15A106,106,0,0,1,736,307.25a1.9,1.9,0,0,0,1-1.67c4.68,1.79,9.52,3.13,14.34,4.49-8.3,8.1-17.18,15.41-25.86,23.14a84.47,84.47,0,0,0-10.34-9.43c-1.45-.22-2.39,2.33-.72,2.72a55.36,55.36,0,0,0,7.58,9.36c.72.88,1.4,1.95,2.61,2.14,3.58.29,9.81-8,12.91-10.34,6.24-5.18,11.88-11.12,18.1-16.32,12.57,4.32,26,8.21,36.57,16.43,23.65,20.51,19.55,59.21,19.44,87.75-3.93,34-4,79.39-36.47,99.64-22.14,13.5-28.41-19.32-29.49-35,5.67-.92,11.08-1.38,16.57-3a106.1,106.1,0,0,1,18.67-5.33c.06.61.11,1.22.14,1.84a2,2,0,0,0,4-.2h0a34.1,34.1,0,0,0-.4-5.79c1.77,1.11,6.16,7.76,7.08,2.85-1.46-2.73-4.86-4.21-7.23-6.16a1.18,1.18,0,0,0-.77-1.28c-.31-1.12-.67-2.21-1.05-3.3.55,1,2.24.58,1.83-.64,3.53-1.38,6.78,1.07,10.26.78a1.29,1.29,0,0,0,1.12-1.41c-.15-1.74-3.5-.83-5-1.74s-7.39-.28-8.48,1.43c-4.61-20.92-7.2-42.69-14.91-62.88a151.27,151.27,0,0,0,3-19.06,2,2,0,0,0-3.32-1.69c-1.63,4.95-.93,10.81-1.48,16.08-2.21-5.62-4.37-9.75-9.88-12.07h0a1.58,1.58,0,0,1-1.17.43h-.14a2,2,0,0,1-1.79-1.45c-4.41-1.58-21.94-3.54-12.81,5-7.93-1.16-6,3.48-1.63,7.14-2.81-.07-6.54,1.81-6.22,5,1.91,4.45,10.06,5,14.17,7-3.43,14.57-5.17,29.63-6.18,44.58l.14.08.12.08.15.12a1.74,1.74,0,0,1,.25.29,1.83,1.83,0,0,1,.18.3l.11.26a2,2,0,0,1-.11,1.56l-.07.12a1.77,1.77,0,0,1-.69.6.94.94,0,0,1-.23.1c-.23,13.37-.3,26.92,2.28,40.07-17.85.08-35.63-2.08-53.48-2.52,1.4-1.9.39-4.81.66-7.07-.41-1.92,1-6.86-1.8-7-2.24.53-.9,5.16-1.47,7,.16,2.23-1.08,5,.14,6.95-11.23-.84-22.49-.42-33.72.11-7.67.28-15.64,2.31-23.17.55-.3-3.48.4-8-.82-11.25a6.57,6.57,0,0,0-.26-.61c-1.64-.91-2.3.2-2.58,1.59a17.77,17.77,0,0,0-.23,2.62c-.56,9.8-2.64,11.44,7,13.12-.31,43.89-1,87.74.74,131.62.83,3.25-1.58,9.77,3.7,9.47,3.52.33,7.44,0,11,.18,4,.41,7.82,1.59,11.85,1.44,5.7.24,11.35-.68,17-.91,4.66.15,4.8-1,6.25-5,6.47-17.09,9.11-35.41,11.06-53.52.86-13.9,2-27.77,5.18-41.36.5.12,1,.24,1.49.39.86,20.72,1.8,41.44,1.73,62.19.2,7.69.44,15.38.94,23.06.61,3-1.37,8,1.34,10,2.16,3,7.08,1.77,10.36,2.62,11.83,1.65,23.74.86,35.56.2,3.86,0,16.15,2,15.19-4.32-3.48-18.24.94-36.56,1.27-54.91.82-17.41,1.08-34.81,1.5-52.21C816.27,508.56,817.66,419.55,816.25,378.66ZM733.81,247.31c-.64,19.13-1.56,38.36-1.3,57.47-12.26,8.68-24.4,17.62-37.8,24.54a254.83,254.83,0,0,0-12.52-22.23,1.45,1.45,0,0,1-.17-.18,2.42,2.42,0,0,0,.88-1.89c-.33-5.75-.55-11.57-.67-17.61-.12-3.2.11-9.64-4.83-7.2-6.12,1.63-12.72,3.91-19,2-3.32-12.88-2.59-27-3.34-40.39,5,3.77,10.13,4.38,15.31,1.55-.29,4.58-6.34,19,.78,19.68A16.58,16.58,0,0,0,682,260.23a1.77,1.77,0,0,0-1.7-3.1,13.08,13.08,0,0,1-8.77,2.22c.31-6.11,2.15-12.09,3.06-18.13,1.51-5.58,4.28-11.29.56-16.68,1-1.6-2.86-3.24-2.87-1,.66,3.52,2.65,7,.7,10.45-4.67-6.88-13.85-8.38-18.32-.64-.1-4.66.06-9.33,0-14,4.31-.76,8.69.12,13,.59,1.49.37,3.42.27,3.52-1.66,0-1.48-1.57-2.13-2.64-2.84-4.2-3.43-9.22-1.57-14.09-1.6a1.21,1.21,0,0,0-.83-.16c.41-1.89.8-3.83,1.09-5.69,18.39,6.47,25-12.72,35.43-8.34,8.69,7,21.48,4,29.89-2,1,8.79,10.26,14,10.32,22.93a88.19,88.19,0,0,1-.18,9.46,2.16,2.16,0,0,0,3.9,1.27c3.83.64,9.55,1.74,10.48,6.16C742.6,242.62,733.07,240.39,733.81,247.31Zm-75.94-9.14a9.64,9.64,0,0,0-2-2.2,11.25,11.25,0,0,1,3.13-3.51.36.36,0,0,1-.07.1C657.36,233.91,657.46,236.34,657.87,238.17Zm7.9-2.54c.19-1.52.26-2.88-.73-4.09,5.43,2.8,8.89,8.42.22,9.56a9.45,9.45,0,0,1-1.68-.07A4,4,0,0,0,665.77,235.63Zm84.45,166.52c1.17-3.07-11.93-6.63-14.33-8.18,4.14-2.74,9.23,1.94,13.74,1.13a1.86,1.86,0,0,0-.64-3.57c-3.62-1.95-8-2.92-10.76-6.18,3.5,0,6.4,2,9.31,3.61a1.7,1.7,0,0,0,2.59-.84c.72-1.92-7.49-6.92-9.11-8.78,6.77-.15,16.08,1.38,19.07,8.32,8.27,19.47,11,40.55,16.11,60.9-10.55,3.58-21.37,6.32-31.44,11.19A357.29,357.29,0,0,1,750.22,402.15Zm-5.44,61.16a1.26,1.26,0,0,0,.94-1c10.31-3.78,21-6.46,31.28-10.23.77,2.42.46,5.37,1.93,7.47.5,2.81,1.08,5.62,1.51,8.44-11.93,1.87-23.22,7-35,9.86C745.07,473,744.85,468.15,744.78,463.31Z"/><path class="cls-2" d="M498.47,274.4c-4.71-4.39-1.52-11.66-7-15.62-1-.49-.09-2,.7-1.12,4.15,2.8,4.35,7.36,5.18,11.8a9.43,9.43,0,0,0,2.29,3.78A.83.83,0,0,1,498.47,274.4Z"/><path class="cls-2" d="M503.28,281.75c-4.48,0-9.54-3.69-9.85-8.29.53-1.3,2.43-.49,1.17.5,1.24,2.88,3.83,5.5,7,6,.81.31,2.4-.17,2.48,1A.8.8,0,0,1,503.28,281.75Z"/><path class="cls-2" d="M500.44,289c-1.52-.15-7-3.91-6.48-5.54.39-.85,1.81-.6,1.38.42,5.59,6.38,10,1.79,11.6,4.16C506.77,289.84,501.85,289.08,500.44,289Z"/><path class="cls-2" d="M471.56,239.13c-2.17-.59.95-5.38,1.7-6.47,3.66-4.87,8.25-2.48,5.09-1.54-3.33.58-5.46,4-6.23,7A.65.65,0,0,1,471.56,239.13Z"/><path class="cls-2" d="M478.21,239.38c-2.14-1.43,1.82-6.65,3.55-7.4a6.85,6.85,0,0,1,1.45-.61.71.71,0,0,1,.34,1.38,7.7,7.7,0,0,0-4.8,5.72A.58.58,0,0,1,478.21,239.38Z"/><path class="cls-2" d="M535.27,265.29a8.82,8.82,0,0,0-5.07-4.74c-3.39-2.89,4.52-1.08,6.48,4A.8.8,0,0,1,535.27,265.29Z"/><path class="cls-2" d="M541.23,267.86c-1.56-.06-.32-5-4.19-7.91-.33-3.62,5,3.57,4.69,4.81C541.88,265.72,542.75,267.69,541.23,267.86Z"/><path class="cls-2" d="M532,315.37c-.59-.66.13-1.12.45-1.65a8.36,8.36,0,0,0,.05-4.83c0-1.35-2-2.72-1.42-3.85a.68.68,0,0,1,1.15.4C534.13,306.83,535.7,316.39,532,315.37Z"/><path class="cls-2" d="M537.14,317.48c-.89-.58.06-1.55.23-2.28a11.91,11.91,0,0,0,.78-4.79A6.07,6.07,0,0,0,537,307c-.34-.42-.9-.79-.87-1.39a.58.58,0,0,1,1.16-.07c2.56,2.2,2.61,6,1.83,9.08C538.78,315.52,538.59,318.11,537.14,317.48Z"/><path class="cls-2" d="M671.48,197a.64.64,0,1,1,.06-1.26c5.77-.95,8.76-7.9,15.3-7.65a.8.8,0,0,1,.18,1.59,13.75,13.75,0,0,0-7.73,3.19C677.13,194.91,674.61,197.08,671.48,197Z"/><path class="cls-2" d="M676.18,188.74c3-3.83,8.66-5.6,13.45-4.71.93.35,3.58.65,3.13,2.05a.85.85,0,0,1-1.09.44c-4.47-2.19-10.09-.94-13.78,2.19C677.44,189.24,676.3,189.83,676.18,188.74Z"/><path class="cls-2" d="M704.92,195.26c-1.28-.55-.2-1.49.8-1.38,3.42-.71,6.79-1.6,9.5-3.84a.94.94,0,0,1,1.38-.06C718,192.92,707.1,195.49,704.92,195.26Z"/><path class="cls-2" d="M707,190.44c-1.11-1.5,3.45-2,4.33-2.64a14.43,14.43,0,0,0,3.34-2.09.74.74,0,0,1,1,1.06c-2.14,2.08-5.21,2.65-7.81,3.68A.64.64,0,0,1,707,190.44Z"/><path class="cls-2" d="M709.94,184.6c-.28-.85.73-.87,1.25-1.16,1.29-.66,2.51-1.44,3.72-2.22a.74.74,0,0,1,1,.29c.62,1.06-2.24,2-2.94,2.52C712.17,184.33,710.57,185.68,709.94,184.6Z"/><path class="cls-2" d="M733.65,201.17c-5.71-.14-3.06-3.43-2.34-1.66,4.28,1.66,7.64-2.22,8.52-1C740.25,200.33,735,201.4,733.65,201.17Z"/><path class="cls-2" d="M733.69,206.13c-4.19,0-3.24-2.71-1.87-1.72,4.31,1.63,6.67-2.84,8.2-2C741.09,204.31,735.18,206.5,733.69,206.13Z"/><path class="cls-2" d="M734.44,210.8c-.81-.57.34-2,.82-.88a8.48,8.48,0,0,0,5.92-3.1.76.76,0,0,1,1.31.77C741.35,209.6,736.62,211.7,734.44,210.8Z"/><path class="cls-2" d="M113.83,305.59c-.82-.73.49-1.73.69-2.42a22.37,22.37,0,0,0,1.86-5.19c.39-.85-.32-2.61.88-2.81a.67.67,0,0,1,.65.67C118,297.69,116.2,306.34,113.83,305.59Z"/><path class="cls-2" d="M108.13,307.88c-1.07-1.19,3.27-4.82,3.39-6.89.81-1.4.29-3.53,1.47-4.53a.62.62,0,0,1,.62,1,16.93,16.93,0,0,1-3,8.24C110,306.35,109.28,308.65,108.13,307.88Z"/><path class="cls-2" d="M102,310.49c-.92-1,1.53-3,1.76-4.15.83-.87,1.86-6.63,3.38-4.68a.63.63,0,0,1-.2.62C105.91,303.8,104.14,311.27,102,310.49Z"/><path class="cls-2" d="M146.6,295.17c-1.95-1.15-5.13-3.33-5.14-5.81.27-1.08,2.11-.54,1.36.48a11.86,11.86,0,0,0,4.59,4A.8.8,0,0,1,146.6,295.17Z"/><path class="cls-2" d="M151.84,292.42c-2.18-.63-5.1-1.87-5.77-4.23,0-.64.29-1.74,1.12-1.45s0,1.08.34,1.57a9.13,9.13,0,0,0,4.56,2.42A.85.85,0,0,1,151.84,292.42Z"/><path class="cls-2" d="M114.33,281a6.92,6.92,0,0,0-7-2.42c-1.34.92-1.79-1.31.26-1.44C112.12,275.67,118.46,281.79,114.33,281Z"/><path class="cls-2" d="M111.66,283.88a9,9,0,0,0-7-1.41c-1.25.79-1.31-1.13,0-1.24,2.62-.68,6.16-.17,8,1.85A.73.73,0,0,1,111.66,283.88Z"/><path class="cls-2" d="M105.67,287.13a7.49,7.49,0,0,0-3.66-.75c-1.16,1-2-1.18-.43-1.3,1-.29,5.67.07,5.08,1.65A.76.76,0,0,1,105.67,287.13Z"/><path class="cls-2" d="M66.69,337.33c-2.6.13-1.7-2.93-.41-1.38,3.32.34,6.57-1.53,9.2-3.32a.69.69,0,0,1,1,0C77.62,334.61,68.32,337.9,66.69,337.33Z"/><path class="cls-2" d="M68.1,342.61c-3.39.14-1.95-3.12-.8-1.47,3.46.47,6.6-2.15,8.62-4.68a.77.77,0,0,1,1-.19c1.93,2-6.77,7.08-8.83,6.34Z"/><path class="cls-2" d="M68.05,347.66a.61.61,0,0,1,0-1.1,11.77,11.77,0,0,0,4.57-1.85c1.12-.39,2.2-2.43,3.41-1.59a.85.85,0,0,1,0,1.19C73.82,346.1,71,347.88,68.05,347.66Z"/><path class="cls-2" d="M55.75,281.05c-1.08-4.24-.39-9.13,2.86-12.25.59-.49,2-2.06,2.67-1.09.39.82-.74,1.07-1.18,1.52-3.27,2.8-3.86,7.46-2.73,11.42A.83.83,0,0,1,55.75,281.05Z"/><path class="cls-2" d="M63.26,284.53c-3.44-2.11-4.22-7-2.79-10.59.68-1.44,2.76-.21,1.17.58-1,2.93-.26,6.81,2.47,8.55A.84.84,0,0,1,63.26,284.53Z"/><path class="cls-2" d="M139,639.13c-.28-3.22-1.79-6.06-3.3-8.84-.25-1.06,1.59-1.19,1.46-.1.94,1.14,5.2,9.24,2.78,9.7A.86.86,0,0,1,139,639.13Z"/><path class="cls-2" d="M146.62,639.55c-1.2-3.57-4.43-8.63-3.72-12.27a.65.65,0,1,1,1.1.71c.53,3.68,2.75,7.31,4.14,10.72A.87.87,0,0,1,146.62,639.55Z"/><path class="cls-2" d="M684.58,530.33a76.84,76.84,0,0,0-13-5.18c-1.39.18-1.4-1.72.1-1.43C673,523.58,690.68,529.27,684.58,530.33Z"/><path class="cls-2" d="M688.55,527.25c-5.46-1.12-9.88-5-14.2-8.21-.36-2.6,3.57,1,4.49,1.38l-.12-.08c3,2.2,6.2,4.29,9.92,5A.93.93,0,1,1,688.55,527.25Z"/><path class="cls-2" d="M715.49,533c-1.34-.45-5.48-.67-5.85-1.93,0-1.37,7.73,1.58,10.42.34a72.16,72.16,0,0,0,8.39-2.45c1.07-.21,3.5-2,4.1-.56C733.45,530.66,717.39,534,715.49,533Z"/><path class="cls-2" d="M717.75,525.64c.33-1.35,2.68-1,3.77-1.59,5.05-1.36,9.74-3.68,15.06-3.57,1.36.22,3.58-1.41,4.38.06a.87.87,0,0,1-.63,1,36.35,36.35,0,0,1-7.06.78C730.32,522,718.56,527.67,717.75,525.64Z"/><path class="cls-2" d="M725.64,553.27a.64.64,0,0,1-.68-.65c.51-1.33,3-.42,4.2-.78,1.52.26,5.92-1.18,6.33.59-.22,1.68-8.12.59-9.88.84Z"/><path class="cls-2" d="M660,602.92a.66.66,0,0,1,.69-.65c3.61-.72,6.61-3.4,9-6,.51-.45.84-1.24,1.52-1.42,1.08,0,.92,1.22.22,1.67C670.21,598.27,661.5,605.79,660,602.92Z"/><path class="cls-2" d="M662.11,593.29c-.82-.34-.22-1.63.57-1.28,3.87-1.3,6.91-4.25,9.83-7a.81.81,0,0,1,1.13,1.16C671.1,588.45,665.54,593.49,662.11,593.29Z"/><path class="cls-2" d="M567.44,629.57c-.36-.68.32-1.11.84-1.38,3.39-2.19,5.86-5.55,8.47-8.53.49-.47,1.26-1.64,2-.86a.64.64,0,0,1-.14.9C576.45,621.42,570.11,631.36,567.44,629.57Z"/><path class="cls-2" d="M575,631.17c-.83-1.42,1.62-2.5,2.31-3.57a40.3,40.3,0,0,0,6.17-7.79C588.16,617.16,576,633.43,575,631.17Z"/><path d="M.14,693.65a2.09,2.09,0,0,1-.1-1.18,2.38,2.38,0,0,1,.58-1.13,3.94,3.94,0,0,1,2-1.4c4.13-1.14,8.33-4.2,12.47-5,19.46-6.23,38.77-4.57,58.17-10.36,8-2.58,15.88-3.23,23.77-4,16.23-2.81,32.32-3.49,48.48-5.18a221.14,221.14,0,0,1,30.91-2.88c5.51-.4,11-1.08,16.52-1,20,.44,40-.06,60.05.1,24-1.44,47.57.67,71.4.39,29-2.38,57.88-2.55,86.95-5.67,69.41-6.76,138.93-15.07,208.41-22.88,23.35-1.59,46.58-1.68,70-3.77,12.65-.72,25.46-3.93,38.1-4.55,14.28-.88,28.56-1.63,42.77-1.63a118.62,118.62,0,0,0,17.31-.93c1.2-.18,2,2.2,1.86,5.12s-1.35,5.48-2.55,5.66a85.88,85.88,0,0,1-11.4.73c-12.27-.1-24.59.46-36.93,1.15-20.86.46-42,4.36-62.87,5.34-25.26,1.33-50.39.77-75.78,3.75-12.27,1-24.59,2.77-36.87,4-8.38.59-16.76,1.34-25.16,2.35-42.29,4.91-84.67,11.52-126.88,15.33-20.11,2.5-40.1,3.2-60.14,4.71-11.73.23-23.58,2-35.27,1.82-17.39-.46-34.76-1.28-52.18-1.48-14.41.93-28.67.12-43,.23-16.3.44-32.51-.14-48.9,1.42a148.68,148.68,0,0,0-23.67,2c-12,1.7-23.82,1.65-35.78,3.13-8.24,1.13-16.49,2.57-24.7,3.42-7.94.8-15.86,3.76-23.78,5.47a285.92,285.92,0,0,1-29.17,4c-9.49,1.23-19,2.56-28.45,3.33a36.37,36.37,0,0,1-4.63.36C1.12,694.4.52,694.41.14,693.65Z"/></g></g></svg>