<svg width="445" height="375" viewBox="0 0 445 375" fill="none" xmlns="http://www.w3.org/2000/svg">
<g clip-path="url(#clip0_496_710)">
<path d="M412.525 144.83C412.547 144.91 412.562 144.992 412.57 145.075C412.61 144.955 412.655 144.84 412.695 144.72L412.515 144.51C412.52 144.62 412.525 144.73 412.525 144.83Z" fill="black"/>
<path d="M432.803 224.74H432.074C432.074 224.74 432.039 224.775 431.984 224.785L432.803 224.74Z" fill="black"/>
<path d="M431.983 224.775L431.174 224.805C431.444 224.813 431.714 224.803 431.983 224.775Z" fill="black"/>
<path d="M429.47 224.87L431.174 224.805C430.605 224.785 430.035 224.807 429.47 224.87Z" fill="black"/>
<path d="M412.065 271.075C412.084 271.156 412.097 271.238 412.105 271.32C412.15 271.195 412.19 271.08 412.235 270.965C412.17 270.895 412.11 270.82 412.056 270.755C412.056 270.865 412.06 271 412.065 271.075Z" fill="black"/>
<path d="M432.443 351H431.714C431.714 351 431.679 351.03 431.624 351.04L432.443 351Z" fill="black"/>
<path d="M431.623 351L430.809 351.035C431.081 351.045 431.353 351.033 431.623 351Z" fill="black"/>
<path d="M429.095 351.115L430.809 351.05C430.237 351.027 429.664 351.049 429.095 351.115Z" fill="black"/>
<path d="M98.9665 225.73C84.6913 224.785 71.3208 214.445 68.1469 200.28C64.838 181.84 74.7047 162.9 88.0552 150.66C62.5988 137.11 28.6403 138.94 6.65273 158.36C6.95263 167.06 -2.79407 160.225 0.80971 154.425C2.53413 151.16 6.12791 149.47 9.04692 147.425C13.9753 143.895 19.5434 141.515 25.2514 139.55C47.8188 131.725 74.0149 133.745 94.8779 145.435C117.4 129.24 148.36 120.72 175.576 128.225C192.705 109.42 222.405 97.5 246.971 107.765C255.254 111.085 264.465 116.42 266.565 125.765C266.839 127.34 266.996 128.932 267.035 130.53C267.364 133.36 264.176 136.53 261.501 134.575C258.827 131.935 261.082 127.575 257.503 124.28C248.066 114.215 233.156 110.385 219.716 111.905C205.925 114.28 192.38 120.645 182.408 130.55C198.823 136.14 211.813 151.285 213.243 168.78C214.307 182.52 204.321 196.82 190.251 198.465C171.687 199.33 159.181 181.26 159.261 164.01C159.156 153.205 163.88 142.825 170.407 134.41C146.83 129.41 120.974 135.81 101.306 149.41C116.705 160.41 129.796 177.79 130.956 197.165C131.131 214.865 116.111 227.125 98.9665 225.73ZM105.309 217.375C126.707 213.43 126.882 195.745 118.47 179.305C112.902 169.11 104.475 160.535 94.6829 154.34C81.9023 164.54 70.3212 184.555 76.2292 201.07C81.0375 212.195 93.4184 218.605 105.299 217.375H105.309ZM189.901 191.235C207.205 188.5 210.929 168.565 201.987 155.5C197.073 145.825 187.167 140.08 177.28 136.5C170.942 144.22 165.944 153.755 166.059 163.915C166.064 177.13 175.481 191.79 189.891 191.235H189.901Z" fill="black"/>
<path d="M290.372 122.59C291.261 123.59 290.547 124.56 289.557 125.09C287.358 126.745 285.059 128.26 282.914 130C282.205 130.68 281.58 131.445 280.915 132.15C279.965 133.15 278.836 133.925 277.916 134.93C276.476 136.69 275.247 138.615 273.657 140.25C273.757 140.57 273.857 140.89 273.952 141.21C273.412 140.815 272.878 140.42 272.358 140.005C272.077 139.811 271.732 139.731 271.394 139.784C271.056 139.836 270.752 140.016 270.543 140.287C270.334 140.558 270.237 140.898 270.271 141.238C270.306 141.578 270.469 141.892 270.728 142.115C271.483 142.655 272.313 143.185 273.113 143.75C272.873 144.03 272.663 144.375 272.438 144.67C271.473 145.965 270.438 147.21 269.494 148.515C267.405 151.557 265.011 154.378 262.351 156.935C260.897 158.365 259.762 160.08 258.328 161.53C258.088 161.755 257.828 161.975 257.598 162.195C256.91 161.853 256.243 161.473 255.599 161.055C253.879 160.395 252.63 162.515 251.44 163.445C250.705 164.3 249.621 164.945 249.176 166.02C248.846 166.59 249.556 167.99 250.675 169.575C250.605 169.645 250.535 169.715 250.47 169.79C249.566 169.48 247.971 170.325 246.472 171.355L246.417 171.32C246.458 170.992 246.532 170.669 246.637 170.355C246.743 170.155 246.807 169.934 246.824 169.708C246.842 169.482 246.812 169.254 246.737 169.04C246.791 168.81 246.846 168.58 246.896 168.345C247.301 166.38 247.761 164.425 248.321 162.5C250.491 154.572 253.078 146.764 256.073 139.11C256.973 137.08 257.703 134.995 258.572 132.935C260.727 128.09 262.646 123.14 264.381 118.135C264.433 117.952 264.436 117.758 264.391 117.573C264.345 117.388 264.252 117.218 264.121 117.08L264.231 117.145C265.2 117.43 266.075 116.58 266.91 116.19C270.159 114.46 273.118 112.06 276.651 110.755C278.432 112.474 279.98 114.419 281.255 116.54C282.195 118.295 282.939 120.235 284.294 121.725C285.293 122.685 286.988 121.375 286.293 120.16C286.218 120.03 286.133 119.9 286.048 119.77C286.878 120.27 287.703 120.815 288.492 121.395C289.077 121.86 289.852 122.055 290.372 122.59Z" fill="#F7941D"/>
<path d="M318.922 110.075C319.068 110.075 319.211 110.117 319.334 110.196C319.457 110.275 319.555 110.387 319.616 110.52C319.351 110.433 319.075 110.384 318.797 110.375C318.683 110.371 318.569 110.379 318.457 110.4L318.427 110.275C318.562 110.149 318.738 110.078 318.922 110.075Z" fill="#F65E5D"/>
<path d="M328.219 147.375C328.178 147.404 328.14 147.436 328.104 147.47C327.169 146.786 326.194 146.158 325.185 145.59C323.334 144.128 321.408 142.763 319.417 141.5C312.419 136.6 305.016 132.165 297.924 127.365C296.773 126.588 295.662 125.754 294.595 124.865C294.623 124.78 294.656 124.696 294.695 124.615C293.771 123.977 292.967 123.179 292.321 122.26C292.532 122.209 292.726 122.103 292.885 121.954C293.044 121.805 293.161 121.618 293.225 121.41C293.46 120.71 293.021 120.035 292.806 119.385C292.381 118.215 291.931 117.055 291.441 115.91C290.786 114.14 289.507 112.41 288.492 110.805C287.477 109.2 286.433 107.545 285.288 105.99C284.453 104.94 283.416 104.068 282.239 103.425C282.506 103.226 282.794 103.058 283.099 102.925C284.267 102.417 285.524 102.143 286.798 102.12C287.797 102.02 288.797 101.795 289.797 101.7C290.506 101.66 291.246 101.44 291.936 101.7C292.055 101.741 292.167 101.799 292.271 101.87C293.17 102.465 293.051 103.84 292.976 104.82C292.941 105.32 292.901 105.82 292.861 106.28C292.776 107.335 292.691 108.39 292.631 109.445C292.591 110.005 292.541 110.56 292.476 111.115C292.476 111.815 292.541 112.52 292.591 113.22C292.756 115.28 293.285 117.18 293.64 119.175C294.315 121.245 296.449 122.495 298.104 123.765C300.383 125.266 302.859 126.443 305.461 127.265C307.761 127.61 310.03 126.42 312.064 125.61C312.786 125.216 313.486 124.786 314.163 124.32C314.873 123.803 315.596 123.303 316.333 122.82C317.217 122.01 317.127 120.595 317.467 119.5C317.742 117.85 317.967 116.2 318.197 114.54C318.502 114.53 318.794 114.412 319.02 114.205C319.245 113.999 319.39 113.719 319.427 113.415C319.996 113.51 320.576 113.55 321.011 113.605C321.131 113.617 321.251 113.617 321.371 113.605C322.111 115.25 322.87 116.87 323.645 118.505C324.44 120.585 324.755 122.805 325.25 124.965C325.749 128.165 326.569 131.29 327.284 134.465C327.613 135.666 327.83 136.894 327.934 138.135C327.859 140.45 327.779 142.765 327.934 145.08C328.004 145.577 328.024 146.079 327.994 146.58C327.987 146.862 328.065 147.139 328.219 147.375Z" fill="#F7941D"/>
<path d="M350.161 121.4C350.273 121.539 350.354 121.7 350.398 121.872C350.442 122.045 350.448 122.225 350.416 122.4C350.416 122.412 350.416 122.423 350.416 122.435C349.557 122.08 348.682 121.965 348.142 122.935C347.757 123.995 348.322 124.645 349.142 125.125C347.807 127.245 346.143 129.205 344.753 131.28C343.364 133.355 342.124 135.64 340.6 137.68C339.586 138.859 338.705 140.145 337.971 141.515C337.536 142.125 337.216 143.195 336.591 143.645C336.911 141.645 337.151 139.605 337.291 137.465C337.568 130.622 336.854 123.774 335.172 117.135C334.466 114.975 333.564 112.885 332.477 110.89H332.567C333.873 111.337 335.148 111.866 336.386 112.475C337.577 113.076 338.7 113.803 339.735 114.645C340.34 115.035 340.965 115.39 341.559 115.8C343.059 117.05 344.833 117.92 346.513 118.93C347.387 119.5 347.962 119.895 348.762 120.43C349.307 120.845 349.787 120.915 350.161 121.4Z" fill="#F7941D"/>
<path d="M248.231 180.14C248.829 179.492 249.366 178.791 249.835 178.045C249.176 179.28 248.566 180.545 247.981 181.82L247.116 181.53C247.491 181.07 247.846 180.59 248.231 180.14Z" fill="#F65E5D"/>
<path d="M252.575 172L253.099 172.585C252.919 172.9 252.794 173.26 252.6 173.56C251.87 174.585 251.2 175.65 250.575 176.735C250.71 176.46 250.835 176.18 250.945 175.895C251.457 174.963 251.864 173.977 252.16 172.955C252.216 172.607 252.359 172.279 252.575 172Z" fill="#F65E5D"/>
<path d="M257.867 173.65L257.732 173.775L257.303 173.355C257.493 173.45 257.682 173.545 257.867 173.65Z" fill="#F65E5D"/>
<path d="M272.168 154.73C272.403 154.51 272.628 154.285 272.848 154.06C272.464 154.49 272.07 154.91 271.663 155.32C270.816 156.271 269.895 157.154 268.909 157.96C268.549 158.275 268.204 158.6 267.869 158.96C267.999 158.785 268.134 158.605 268.274 158.43C269.458 157.082 270.761 155.844 272.168 154.73Z" fill="#F65E5D"/>
<path d="M317.892 175.725L318.227 175.915C318.163 176.235 317.986 176.521 317.727 176.72C316.983 179.155 316.353 181.63 315.728 184.09C315.148 185.925 315.263 187.13 314.374 187.725C314.238 187.606 314.077 187.519 313.904 187.47C313.713 187.406 313.511 187.386 313.312 187.412C313.113 187.438 312.922 187.509 312.754 187.62C312.626 187.467 312.463 187.349 312.278 187.275C312.093 187.202 311.892 187.176 311.695 187.2C305.002 187.32 298.374 186.7 291.701 186.1C283.659 185.76 275.612 185.93 267.569 185.73C261.377 185.525 255.174 184.955 249.031 184.18C249.666 183.78 250.005 182.9 250.34 182.25C251.118 180.444 252.011 178.691 253.014 177C253.564 176.06 254.184 175.165 254.814 174.28C256.013 175.38 257.068 176.12 257.583 176.07C259.457 176.07 260.337 174.07 261.746 173.145C262.596 172.265 264.745 171.715 264.885 170.48C264.885 169.84 263.886 168.16 263.036 167.225C264.141 166.165 265.43 165.325 266.495 164.225C267.559 163.125 268.414 161.815 269.494 160.725C272.733 157.988 275.652 154.893 278.196 151.5C278.559 151.043 278.947 150.607 279.36 150.195C279.685 149.954 279.953 149.645 280.145 149.29C280.572 149.595 280.978 149.929 281.36 150.29C282.831 151.663 284.402 152.927 286.058 154.07C289.597 157.155 293.516 159.745 297.314 162.495C298.927 163.821 300.661 164.993 302.493 165.995C304.027 166.805 305.352 167.915 306.781 168.89C310.395 171.295 314.329 173.215 317.892 175.725Z" fill="#F7941D"/>
<path d="M346.958 46.845C350.101 50.175 350.791 54.945 350.081 59.345C350.009 59.5579 349.882 59.7482 349.713 59.8972C349.544 60.0463 349.34 60.149 349.12 60.1954C348.9 60.2418 348.671 60.2302 348.457 60.1617C348.243 60.0933 348.05 59.9704 347.897 59.805C347.367 59.135 347.557 58.185 347.482 57.385C347.332 55.845 347.342 54.075 346.458 52.76C343.664 49.945 339.96 48.26 336.651 46.15C335.86 45.568 335.025 45.0498 334.152 44.6C333.982 44.54 333.797 44.49 333.652 44.425C332.532 45.965 329.718 47.66 328.769 48.485C328.089 48.985 327.454 49.59 326.769 50.095C325.12 51.16 323.401 52.095 321.726 53.145C319.937 54.21 318.047 55.085 316.228 56.07C314.773 56.88 313.339 57.72 311.819 58.405C311.2 60.3355 310.477 62.2316 309.655 64.085C309.275 65.04 308.9 66 308.506 66.95C308.196 67.95 307.366 68.98 306.256 68.305C305.332 67.56 305.482 66.18 305.207 65.125C305.157 64.79 305.082 64.455 305.002 64.125C302.693 64.975 300.368 66.275 298.884 68.265C298.589 68.925 298.384 69.91 298.839 70.53C299.627 71.5257 300.587 72.3724 301.673 73.03C303.092 74.03 306.041 73.37 305.142 76.03C304.702 77.655 304.142 79.255 303.762 80.89C303.167 82.415 302.648 86.455 300.298 85.52C299.342 85.2997 298.426 84.9302 297.584 84.425C295.541 83.5751 293.627 82.4405 291.901 81.055C289.972 79.8311 288.327 78.208 287.078 76.295C286.169 75.2777 285.648 73.9733 285.603 72.61C284.784 67.585 286.543 62.85 288.982 58.535C290.152 56.215 292.256 54.63 293.885 52.665C295.045 51.035 296.655 49.905 298.279 48.79C299.509 47.79 300.588 46.57 301.993 45.79C299.943 44.99 297.609 44.585 296.155 42.86C295.09 41.49 294.155 39.925 293.99 38.155C293.656 35.02 294.115 31.77 296.195 29.28C296.811 28.4957 297.514 27.7829 298.289 27.155C299.712 25.5929 301.518 24.4281 303.527 23.775C305.482 22.55 306.766 23.335 308.76 23.87C310.59 24.49 312.314 28.095 312.759 29.905C313.934 33.905 312.389 37.72 310.51 41.235C314.036 39.4797 317.735 38.094 321.546 37.1C323.617 36.7453 325.706 36.5049 327.804 36.38C333.127 36.545 338.545 38.475 342.354 42.275C343.944 43.75 345.798 44.955 346.958 46.845Z" fill="#F7941D"/>
<path d="M301.463 57.74C300.203 57.68 296.964 56.97 296.675 55.565C296.68 55.4883 296.702 55.4137 296.739 55.346C296.775 55.2782 296.825 55.2189 296.886 55.1718C296.947 55.1247 297.017 55.0908 297.091 55.0724C297.166 55.054 297.244 55.0515 297.319 55.065C297.649 55.15 297.874 55.44 298.179 55.565C298.721 55.8656 299.301 56.091 299.903 56.235C301.213 56.5281 302.56 56.6175 303.897 56.5C304.015 56.5113 304.127 56.5594 304.217 56.6374C304.306 56.7154 304.369 56.8194 304.397 56.935C304.552 58.035 302.163 57.725 301.463 57.74Z" fill="white"/>
<path d="M305.262 55.44C303.858 55.2369 302.512 54.7449 301.308 53.995C300.918 53.74 300.188 53.455 300.448 52.87C300.708 52.285 301.308 52.63 301.668 52.87C302.14 53.1607 302.631 53.4196 303.137 53.645C304.118 54.0167 305.146 54.249 306.191 54.335C307.001 54.335 307.801 54.215 308.605 54.16C308.738 54.1495 308.871 54.1871 308.978 54.2661C309.085 54.345 309.161 54.46 309.19 54.59C309.219 54.7323 309.191 54.8802 309.113 55.0024C309.034 55.1245 308.912 55.2115 308.77 55.245C307.622 55.5193 306.433 55.5853 305.262 55.44Z" fill="white"/>
<path d="M309.18 52C308.501 52 304.222 51.29 305.007 50.19C305.227 49.87 305.607 49.97 305.901 50.105C306.296 50.24 306.701 50.365 307.106 50.48C308.819 50.9935 310.65 50.9533 312.339 50.365C312.5 50.3084 312.676 50.317 312.83 50.3889C312.985 50.4609 313.104 50.5906 313.164 50.75C313.619 52.08 309.98 52 309.18 52Z" fill="white"/>
<path d="M302.493 40.175C299.903 39.215 298.154 35.245 299.494 32.74C299.591 32.5031 299.775 32.3124 300.008 32.2073C300.242 32.1021 300.507 32.0906 300.748 32.175C300.855 32.1887 300.953 32.242 301.022 32.3244C301.092 32.4068 301.128 32.5123 301.123 32.62C301.123 32.895 300.873 33.015 300.623 33.06C299.624 35.455 301.183 37.87 303.202 39.115C303.767 39.65 303.177 40.395 302.493 40.175Z" fill="white"/>
<path d="M306.896 37.455C304.957 37.31 302.897 34.34 303.702 32.515C304.027 31.975 304.912 32.195 304.737 32.875C304.686 32.9698 304.663 33.0775 304.672 33.185C304.759 33.8898 305.038 34.5571 305.478 35.1137C305.919 35.6702 306.505 36.0945 307.171 36.34C307.289 36.4006 307.384 36.4994 307.439 36.6203C307.494 36.7413 307.506 36.8773 307.475 37.0063C307.443 37.1353 307.368 37.2499 307.263 37.3313C307.158 37.4127 307.029 37.4563 306.896 37.455Z" fill="white"/>
<path d="M294.695 76.8C293.756 76.8 290.167 75.345 290.197 74.3C290.197 73.735 291.041 73.455 291.246 74.055C293.101 75.265 295.145 76.24 297.244 74.99C297.353 74.934 297.477 74.9154 297.597 74.9371C297.717 74.9588 297.827 75.0196 297.909 75.11C298.694 76.395 295.53 76.965 294.695 76.8Z" fill="white"/>
<path d="M295.4 80.41C295.258 80.3529 295.138 80.2505 295.059 80.1186C294.981 79.9867 294.948 79.8326 294.965 79.68C295.035 79.22 295.665 78.94 295.89 79.445C296.964 79.64 298.004 79.125 298.984 78.745C299.109 78.7004 299.245 78.6983 299.372 78.739C299.498 78.7796 299.608 78.8608 299.684 78.97C300.523 80.32 296.14 81 295.4 80.41Z" fill="white"/>
<path d="M323.56 132.12C323.099 131.542 322.736 130.891 322.486 130.195C322.433 130.092 322.411 129.976 322.422 129.861C322.434 129.745 322.479 129.636 322.551 129.545C322.624 129.455 322.721 129.388 322.83 129.351C322.94 129.315 323.059 129.311 323.171 129.34C323.441 129.43 323.585 129.69 323.73 129.915C324.073 130.42 324.377 130.95 324.64 131.5C324.676 131.637 324.666 131.782 324.611 131.913C324.557 132.044 324.46 132.153 324.338 132.223C324.215 132.294 324.072 132.322 323.931 132.303C323.791 132.285 323.661 132.22 323.56 132.12Z" fill="white"/>
<path d="M281.125 164.57C280.46 163.325 279.84 162.07 279.171 160.8C278.966 160.3 278.541 159.735 278.671 159.165C278.715 159.028 278.812 158.914 278.941 158.849C279.069 158.783 279.218 158.771 279.355 158.815C279.457 158.855 279.548 158.918 279.621 159C279.694 159.082 279.747 159.179 279.775 159.285C280.129 160.091 280.545 160.869 281.02 161.61C281.315 162.25 282.804 164.315 281.885 164.765C281.755 164.828 281.608 164.843 281.469 164.807C281.33 164.772 281.208 164.688 281.125 164.57Z" fill="white"/>
<path d="M291.656 167C290.697 166.765 289.887 166.14 289.027 165.68C287.938 165.065 286.763 164.56 285.858 163.68C285.195 163.001 284.599 162.259 284.079 161.465C283.874 161.105 283.479 160.77 283.529 160.33C284.059 159.06 285.138 160.715 285.583 161.23C286.083 161.859 286.65 162.433 287.273 162.94C288.182 163.538 289.129 164.078 290.107 164.555C290.607 164.835 291.106 165.105 291.636 165.38C292.166 165.655 292.726 166.015 292.426 166.62C292.356 166.758 292.243 166.87 292.105 166.938C291.966 167.007 291.808 167.029 291.656 167Z" fill="white"/>
<path d="M284.249 216.19L284.824 216.005C284.429 216.305 284.024 216.59 283.604 216.86C283.328 217.088 282.994 217.236 282.639 217.285H282.534C282.532 217.272 282.532 217.258 282.534 217.245V217.185C282.532 217.155 282.532 217.125 282.534 217.095C282.533 217.015 282.548 216.935 282.579 216.861C282.61 216.787 282.656 216.72 282.714 216.665C282.734 216.643 282.758 216.624 282.784 216.61C282.823 216.583 282.865 216.561 282.909 216.545C283.334 216.415 283.799 216.325 284.249 216.19Z" fill="white"/>
<path d="M410.216 68.635C410.812 65.2077 410.432 61.682 409.122 58.46C404.318 55.065 403.234 64.885 403.254 67.895C402.964 70.975 402.329 75.825 406.417 76.5C409.116 75.85 409.666 70.97 410.216 68.635ZM410.766 56.88C415.409 59.915 412.965 81.035 405.473 79.05C399.58 77.46 400.11 71.375 400.609 66.55C400.814 63.18 401.449 59.5 403.703 56.865C405.363 54.595 409.236 54.425 410.766 56.88Z" fill="black"/>
<path d="M429.105 75.125C423.647 73.625 426.106 62.675 427.361 58.725C428.22 56.82 430.225 55.025 432.359 54.9C434.493 54.775 437.662 55.67 438.152 58.04C439.417 60.23 438.782 65.21 438.152 67.64C437.522 71.79 433.784 76.855 429.105 75.125ZM430.954 72.99C434.868 72.695 435.683 67.96 436.228 64.82C436.468 62.715 436.078 60.67 435.923 58.63C434.263 56.9 431.389 56.795 429.99 58.885C429.175 60.385 429.035 62.18 428.715 63.835C428.685 66.56 426.916 72.65 430.954 73V72.99Z" fill="black"/>
<path d="M332.018 59.855C331.517 58.5511 330.668 57.4095 329.564 56.5544C328.46 55.6993 327.142 55.1634 325.755 55.005C324.135 55.135 323.021 56.56 321.856 57.545C321.536 57.88 321.231 58.24 320.891 58.545C320.715 58.7439 320.467 58.8646 320.202 58.8806C319.936 58.8965 319.676 58.8064 319.477 58.63C319.278 58.4536 319.157 58.2055 319.141 57.9401C319.125 57.6747 319.216 57.4139 319.392 57.215C321.156 55.215 323.141 52.54 326.05 52.47C329.678 52.815 334.212 55.68 333.927 59.73C333.941 59.6907 333.953 59.6506 333.962 59.61C333.782 60.565 332.487 60.655 332.018 59.855Z" fill="black"/>
<path d="M338.565 60.315C338.425 59.59 339.065 59.13 339.49 58.645C339.8 58.31 340.12 57.985 340.445 57.645C341.374 56.71 342.374 55.79 343.669 55.415C345.168 55.005 346.978 55.155 348.117 56.31C348.847 57.085 350.316 59.31 349.702 60.365C349.627 60.5094 349.521 60.6351 349.39 60.7326C349.26 60.8301 349.11 60.897 348.95 60.9283C348.791 60.9595 348.626 60.9543 348.469 60.913C348.312 60.8718 348.166 60.7955 348.042 60.69C347.597 60.3 347.542 59.75 347.347 59.31C347.043 58.69 346.698 57.965 346.038 57.67C345.498 57.5462 344.937 57.5523 344.4 57.6879C343.863 57.8235 343.365 58.0847 342.949 58.45C342.121 59.1212 341.33 59.8373 340.58 60.595C340 61.305 338.785 61.295 338.565 60.315Z" fill="black"/>
<path d="M325.26 69.685C323.366 69.31 321.461 68.515 320.342 66.865C318.142 64.255 319.397 61.865 322.526 61.13C323.509 60.8902 324.533 60.8714 325.525 61.075C327.285 61.2859 328.96 61.9491 330.388 63C331.143 63.655 332.388 64.775 331.588 65.82C331.588 66.68 330.848 67.245 330.348 67.85C328.974 69.675 327.459 70.21 325.26 69.685ZM327.079 67.82C327.889 67.865 328.419 67.155 328.894 66.595C329.214 66.245 329.234 65.735 329.459 65.34C327.879 63.955 325.705 63.45 323.665 63.27C322.991 63.36 321.481 63.36 321.371 64.215C321.782 65.2135 322.477 66.0691 323.371 66.675C324.514 67.3111 325.777 67.7011 327.079 67.82Z" fill="black"/>
<path d="M326.689 67.8C325.905 66.8 325.885 64.545 327.459 64.335C328.074 64.335 328.744 64.255 329.214 64.75C330.783 66.2 328.389 69.615 326.689 67.8Z" fill="black"/>
<path d="M319.702 63.66C318.925 63.3081 318.267 62.7384 317.807 62.02C317.308 60.825 318.807 60.085 319.582 61.02C319.832 61.2966 320.097 61.5586 320.377 61.805C320.586 61.955 320.836 62.04 320.986 62.275C321.084 62.4584 321.122 62.6677 321.095 62.8737C321.068 63.0797 320.978 63.2722 320.836 63.4245C320.695 63.5768 320.51 63.6813 320.307 63.7235C320.103 63.7657 319.892 63.7435 319.702 63.66Z" fill="black"/>
<path d="M322.466 62.45C321.676 61.95 320.751 61.09 320.861 60.07C320.911 59.8273 321.054 59.6139 321.26 59.4762C321.466 59.3386 321.718 59.2878 321.961 59.335C322.786 59.525 323.181 60.38 323.571 61.05C323.734 61.2033 323.834 61.4125 323.851 61.6361C323.868 61.8597 323.8 62.0814 323.661 62.2574C323.522 62.4334 323.322 62.5509 323.101 62.5866C322.88 62.6222 322.653 62.5735 322.466 62.45Z" fill="black"/>
<path d="M325.155 62.46C324.045 62.365 323.94 61.015 323.8 60.15C323.782 59.9005 323.854 59.6526 324.003 59.4522C324.153 59.2518 324.371 59.1125 324.615 59.06C325.725 58.85 325.94 60.06 325.97 60.9C326.097 61.0425 326.178 61.2206 326.202 61.4104C326.226 61.6002 326.191 61.7927 326.102 61.9623C326.014 62.1318 325.876 62.2703 325.706 62.3593C325.537 62.4482 325.345 62.4833 325.155 62.46Z" fill="black"/>
<path d="M319.722 75.29C319.027 74.595 320.012 73.745 320.402 73.15C320.697 72.7187 321.068 72.3444 321.496 72.045C321.614 71.9842 321.743 71.9488 321.876 71.9414C322.008 71.9339 322.141 71.9544 322.265 72.0015C322.389 72.0487 322.502 72.1215 322.596 72.2151C322.69 72.3088 322.763 72.4212 322.811 72.545C322.873 72.7598 322.862 72.9893 322.778 73.1969C322.695 73.4045 322.544 73.5781 322.351 73.69C322.071 73.985 321.791 74.28 321.496 74.565C321.016 75 320.392 75.865 319.722 75.29Z" fill="black"/>
<path d="M323.391 74.845C322.391 73.91 324.34 72.195 325.325 72.345C326.205 72.57 325.875 73.565 325.395 74.05C324.915 74.535 324.125 75.5 323.391 74.845Z" fill="black"/>
<path d="M327.794 74.89C326.589 74.005 328.529 72.005 329.429 73.24C330.003 74.09 328.649 75.465 327.794 74.89Z" fill="black"/>
<path d="M341.849 76C340.615 75.5 341.654 73.45 342.774 73.605C342.889 73.6292 342.996 73.6812 343.085 73.7564C343.175 73.8316 343.245 73.9278 343.289 74.0365C343.333 74.1452 343.35 74.263 343.337 74.3795C343.325 74.4961 343.284 74.6079 343.219 74.705C343.084 75.33 342.659 76.255 341.849 76Z" fill="black"/>
<path d="M302.358 74.53C294.535 73.675 296.21 65.295 302.203 63.08C305.567 61.66 305.821 65.58 303.577 65.105C301.138 65.545 297.874 69.57 300.618 71.445C301.345 71.6889 302.091 71.8745 302.847 72C304.487 72.345 303.992 74.855 302.358 74.53Z" fill="black"/>
<path d="M291.361 106.62C291.073 106.475 290.853 106.222 290.75 105.916C290.647 105.61 290.669 105.275 290.812 104.985C291.196 104.28 291.581 103.575 291.901 102.835C292.521 101.043 293.232 99.2843 294.03 97.565C295.07 95.115 296.28 92.75 297.439 90.355C298.504 88.355 299.414 86.305 300.363 84.265C300.633 83.61 300.863 82.95 301.128 82.295C301.216 81.9619 301.388 81.657 301.628 81.41C301.811 81.2557 302.039 81.165 302.278 81.1517C302.518 81.1385 302.754 81.2033 302.954 81.3364C303.153 81.4696 303.303 81.6638 303.382 81.8899C303.461 82.116 303.465 82.3617 303.392 82.59C302.393 86.46 300.483 89.985 298.749 93.555C297.519 95.99 296.3 98.635 295.195 101.09C294.575 102.807 293.835 104.477 292.981 106.09C292.832 106.37 292.58 106.582 292.278 106.681C291.976 106.78 291.647 106.758 291.361 106.62Z" fill="black"/>
<path d="M278.406 368.955C278.866 369.85 277.906 370.195 277.151 369.955C275.732 369.685 274.277 369.865 272.853 369.615C269.954 369.265 267.025 369.215 264.121 368.94C262.628 368.751 261.126 368.64 259.622 368.61C257.243 368.31 254.839 368.365 252.455 368.11C249.955 367.9 247.406 367.89 244.882 367.79C243.341 367.628 241.789 367.602 240.244 367.715C238.695 367.709 237.148 367.819 235.615 368.045C235.295 368.52 234.566 368.17 234.386 367.735C234.176 367 234.836 366.735 235.44 366.705C236.308 366.539 237.187 366.439 238.069 366.405C239.569 366.405 241.018 366.3 242.493 366.28C243.753 366.28 244.992 366.485 246.257 366.49C248.816 366.49 251.375 366.61 253.919 366.85C255.628 367.005 257.343 366.96 259.042 367.195C260.177 367.33 261.322 367.28 262.461 367.355C264.46 367.6 266.43 367.72 268.419 367.855C270.409 367.99 272.588 368.23 274.627 368.355C275.453 368.326 276.279 368.354 277.101 368.44C277.343 368.428 277.584 368.468 277.809 368.557C278.034 368.646 278.237 368.781 278.406 368.955Z" fill="black"/>
<path d="M290.252 214C290.354 213.994 290.456 214.018 290.545 214.069C290.633 214.12 290.705 214.196 290.752 214.287C290.798 214.379 290.816 214.481 290.805 214.583C290.793 214.685 290.752 214.781 290.687 214.86C289.912 215.55 288.972 215.73 288.073 216.145C286.972 216.605 285.85 217.008 284.709 217.355C284.119 217.49 283.499 217.76 282.894 217.635L282.819 217.61H282.774C282.749 217.596 282.726 217.579 282.704 217.56L282.674 217.535L282.639 217.495C282.613 217.458 282.591 217.418 282.574 217.375C282.574 217.375 282.574 217.34 282.574 217.32C282.572 217.307 282.572 217.293 282.574 217.28V217.22C282.572 217.19 282.572 217.16 282.574 217.13C282.573 217.05 282.588 216.97 282.619 216.896C282.65 216.822 282.696 216.755 282.754 216.7C282.774 216.678 282.798 216.659 282.824 216.645C282.863 216.618 282.905 216.596 282.949 216.58C283.404 216.465 283.869 216.375 284.319 216.24L284.894 216.055L285.183 215.955L285.473 215.855L286.273 215.56L286.493 215.48L287.238 215.185L287.773 214.97L289.482 214.285C289.727 214.16 289.985 214.064 290.252 214Z" fill="black"/>
<path d="M294.135 219.365C294.294 219.421 294.428 219.531 294.512 219.677C294.597 219.823 294.626 219.994 294.595 220.159C294.564 220.325 294.475 220.474 294.344 220.579C294.213 220.685 294.049 220.74 293.881 220.735C292.836 220.545 288.277 219.83 288.267 218.66C288.26 218.565 288.276 218.469 288.315 218.382C288.353 218.294 288.413 218.218 288.488 218.159C288.563 218.1 288.652 218.061 288.746 218.044C288.84 218.028 288.937 218.035 289.027 218.065C289.137 218.031 289.255 218.036 289.361 218.079C289.468 218.121 289.556 218.2 289.612 218.3C291.061 218.89 292.636 219 294.135 219.365Z" fill="black"/>
<path d="M345.238 357.11C345.437 357.164 345.606 357.294 345.709 357.473C345.812 357.651 345.839 357.864 345.785 358.062C345.732 358.261 345.601 358.431 345.423 358.533C345.244 358.636 345.032 358.664 344.833 358.61C341.911 357.916 338.943 357.432 335.951 357.16C334.222 356.885 332.487 356.685 330.748 356.52C328.604 356.155 326.44 355.955 324.285 355.695C322.211 355.605 320.152 355.25 318.077 355.26C316.673 355.3 315.273 355.145 313.874 355.085C310.815 355.05 307.761 354.935 304.717 354.69C303.517 355.19 303.087 353.33 304.507 353.39C307.801 353.68 311.11 353.73 314.414 353.79C316.813 354.015 319.297 353.855 321.671 354.18C324.67 354.39 327.629 354.68 330.573 355.145C332.293 355.34 333.997 355.47 335.706 355.74C337.946 355.98 340.205 356.24 342.414 356.595C343.345 356.818 344.288 356.99 345.238 357.11Z" fill="black"/>
<path d="M290.252 214C290.354 213.994 290.456 214.018 290.545 214.069C290.633 214.12 290.705 214.196 290.752 214.287C290.798 214.379 290.816 214.481 290.805 214.583C290.793 214.685 290.752 214.781 290.687 214.86C289.912 215.55 288.972 215.73 288.073 216.145C286.972 216.605 285.85 217.008 284.709 217.355C284.119 217.49 283.499 217.76 282.894 217.635L282.819 217.61H282.774C282.749 217.596 282.726 217.579 282.704 217.56L282.674 217.535L282.639 217.495C282.613 217.458 282.591 217.418 282.574 217.375C282.574 217.375 282.574 217.34 282.574 217.32C282.572 217.307 282.572 217.293 282.574 217.28V217.22C282.572 217.19 282.572 217.16 282.574 217.13C282.573 217.05 282.588 216.97 282.619 216.896C282.65 216.822 282.696 216.755 282.754 216.7C282.774 216.678 282.798 216.659 282.824 216.645C282.863 216.618 282.905 216.596 282.949 216.58C283.404 216.465 283.869 216.375 284.319 216.24L284.894 216.055L285.183 215.955L285.473 215.855L286.273 215.56L286.493 215.48L287.238 215.185L287.773 214.97L289.482 214.285C289.727 214.16 289.985 214.064 290.252 214Z" fill="white"/>
<path d="M293.901 220.735C292.856 220.545 288.297 219.83 288.287 218.66C288.28 218.565 288.296 218.469 288.335 218.382C288.373 218.294 288.433 218.218 288.508 218.159C288.583 218.1 288.672 218.061 288.766 218.044C288.86 218.028 288.956 218.035 289.047 218.065C289.157 218.031 289.275 218.036 289.381 218.079C289.488 218.121 289.576 218.2 289.632 218.3C291.076 218.89 292.656 218.995 294.155 219.365C294.314 219.421 294.448 219.531 294.532 219.677C294.617 219.823 294.646 219.994 294.615 220.159C294.584 220.325 294.495 220.474 294.364 220.579C294.233 220.685 294.069 220.74 293.901 220.735Z" fill="white"/>
<path d="M277.161 369.95C275.742 369.68 274.287 369.86 272.863 369.61C269.964 369.26 267.035 369.21 264.131 368.935C262.638 368.746 261.136 368.635 259.632 368.605C257.253 368.305 254.849 368.36 252.465 368.105C249.965 367.895 247.416 367.885 244.892 367.785C243.351 367.623 241.799 367.597 240.254 367.71C238.705 367.704 237.158 367.814 235.625 368.04C235.305 368.515 234.576 368.165 234.396 367.73C234.186 366.995 234.846 366.73 235.45 366.7C236.318 366.534 237.197 366.434 238.079 366.4C239.579 366.37 241.028 366.295 242.503 366.275C243.763 366.275 245.002 366.48 246.267 366.485C248.826 366.485 251.385 366.605 253.929 366.845C255.633 367 257.353 366.955 259.047 367.19C260.187 367.325 261.332 367.275 262.471 367.35C264.47 367.595 266.44 367.715 268.429 367.85C270.418 367.985 272.598 368.225 274.637 368.35C275.463 368.321 276.289 368.349 277.111 368.435C277.35 368.423 277.589 368.461 277.812 368.547C278.035 368.633 278.237 368.766 278.406 368.935C278.876 369.855 277.906 370.195 277.161 369.95Z" fill="white"/>
<path d="M344.833 358.59C341.911 357.896 338.943 357.412 335.951 357.14C334.222 356.865 332.487 356.665 330.748 356.5C328.604 356.135 326.44 355.935 324.285 355.675C322.211 355.585 320.152 355.23 318.077 355.24C316.673 355.28 315.273 355.125 313.874 355.065C310.815 355.03 307.761 354.915 304.717 354.67C303.517 355.17 303.087 353.31 304.507 353.37C307.801 353.66 311.11 353.71 314.414 353.77C316.813 353.995 319.297 353.835 321.676 354.16C324.675 354.37 327.629 354.66 330.573 355.125C332.293 355.32 333.997 355.45 335.706 355.72C337.946 355.96 340.182 356.245 342.414 356.575C343.346 356.802 344.288 356.981 345.238 357.11C345.419 357.177 345.569 357.309 345.657 357.48C345.745 357.652 345.766 357.85 345.715 358.036C345.664 358.222 345.545 358.382 345.382 358.485C345.219 358.587 345.023 358.625 344.833 358.59Z" fill="white"/>
<path d="M234.386 168.78C236.595 163.55 237.725 158.16 238.844 152.67C236.2 152.53 233.551 152.62 230.902 152.515C230.057 152.54 228.438 152.515 227.718 151.96L227.438 152.055C226.22 152.422 225.03 152.873 223.874 153.405C223.06 155.855 222.375 158.345 221.79 160.855C221.952 160.843 222.115 160.871 222.264 160.937C222.413 161.002 222.543 161.103 222.645 161.23C224.094 161.359 225.55 161.389 227.003 161.32C228.403 161.29 229.797 161.47 231.202 161.445C231.882 161.445 232.656 161.41 233.081 162.045C233.751 163.165 232.641 164.145 231.507 163.845C230.197 163.77 228.878 163.71 227.563 163.64C225.443 163.804 223.311 163.706 221.215 163.35C220.91 164.71 220.615 166.07 220.315 167.43C219.371 171.05 218.591 174.735 218.541 178.49C219.436 179.105 220.395 179.63 221.33 180.18C221.493 180.052 221.685 179.967 221.89 179.935C225.034 180.01 228.263 180.985 231.387 180.235C232.511 176.45 233.266 172.565 234.386 168.78ZM245.417 183.5C245.142 183.4 244.862 183.305 244.582 183.22H244.482C244.482 183.265 244.457 183.315 244.442 183.365C244.771 183.37 245.099 183.415 245.417 183.5ZM246.317 175.67C246.863 174.74 247.441 173.832 248.051 172.945C245.782 174.41 243.588 176 241.393 177.57L241.418 177.835C241.418 177.91 241.418 177.985 241.453 178.06C242.563 178.06 243.563 177.17 244.647 177.38C244.876 177.446 245.078 177.585 245.222 177.775C245.541 177.051 245.901 176.347 246.302 175.665L246.317 175.67ZM253.114 172.565L252.575 172C252.4 171.8 252.22 171.595 252.05 171.39C251.78 171.7 251.55 172.015 251.27 172.335C250.029 173.93 248.887 175.6 247.851 177.335C247.136 178.575 246.632 179.92 245.917 181.165L247.116 181.55L247.981 181.84C248.566 180.56 249.176 179.3 249.835 178.065C250.075 177.615 250.335 177.17 250.575 176.73C251.2 175.645 251.87 174.58 252.6 173.555C252.794 173.235 252.914 172.875 253.099 172.56L253.114 172.565ZM260.172 122.275C260.292 122 260.407 121.72 260.522 121.44C260.431 121.439 260.341 121.429 260.252 121.41C256.458 120.82 252.65 121.875 248.856 122.125C245.817 126.795 241.913 130.985 239.594 136.125C238.694 138.02 237.695 139.87 236.755 141.75C236.255 142.665 235.68 144.125 234.406 143.945C233.683 143.656 233.033 143.213 232.501 142.645C232.286 143.145 232.081 143.645 231.882 144.145C231.052 146.07 230.562 148.145 229.772 150.085C230.084 150.122 230.398 150.132 230.712 150.115C232.751 150.2 234.786 150.195 236.82 150.26C237.785 150.26 238.739 150.4 239.704 150.435C240.654 150.195 241.733 150.975 241.368 152C240.494 156.45 239.749 160.945 238.369 165.27C237.21 168.107 236.258 171.025 235.52 174C234.985 176.61 234.141 179.15 233.556 181.735C232.676 183.495 229.332 183.235 227.623 183.235C226.668 183 224.624 183.165 222.985 182.92C222.698 183.923 222.487 184.946 222.355 185.98C221.912 189.517 221.783 193.086 221.97 196.645C222.05 197.995 221.79 199.3 223.234 200.01C225.535 201.241 228.089 201.925 230.697 202.01C232.816 202.01 234.881 201.385 236.985 201.235L237.015 201.18C237.107 201.022 237.233 200.887 237.385 200.785C238.719 195.96 239.884 191.075 241.238 186.285C241.588 184.84 241.963 183.405 242.388 181.98C242.548 181.52 242.538 180.98 242.668 180.48C241.743 180.78 240.742 180.747 239.839 180.385C239.159 179.885 239.119 178.92 238.994 178.145C238.874 177.667 238.939 177.161 239.178 176.729C239.416 176.297 239.81 175.972 240.279 175.82C241.133 175.265 241.948 174.655 242.778 174.06C243.048 173.89 243.398 173.64 243.778 173.345C243.621 172.855 243.634 172.327 243.813 171.845C243.343 171.125 243.867 169.925 244.107 169.08C244.907 165.255 245.802 161.45 246.951 157.71C248.516 152.145 250.375 146.675 252.45 141.28C252.974 139.78 253.609 138.28 254.249 136.82C254.889 135.36 255.334 133.82 255.948 132.365C257.413 129 258.812 125.645 260.157 122.27L260.172 122.275ZM262.106 170.275C261.816 169.92 261.512 169.58 261.222 169.225C260.802 169.725 260.387 170.19 259.962 170.665C259.417 171.285 258.667 172.085 257.768 171.73C256.828 171.26 256.228 170.315 255.489 169.595C254.704 168.715 253.174 167.31 253.354 166.135C253.309 165.976 253.304 165.808 253.34 165.646C253.375 165.485 253.451 165.334 253.559 165.209C253.667 165.084 253.804 164.987 253.959 164.928C254.113 164.869 254.28 164.849 254.444 164.87L255.604 163.91C255.344 163.775 255.104 163.63 254.854 163.475C253.714 164.445 252.655 165.5 251.57 166.53C253.299 168.959 255.222 171.245 257.318 173.365L257.748 173.785L257.883 173.66C259.177 172.4 260.467 171.125 262.091 170.265L262.106 170.275ZM262.566 335.57C262.396 335.549 262.228 335.509 262.066 335.45C261.157 335.297 260.245 335.168 259.332 335.065C259.227 335.455 259.127 335.85 259.042 336.245C258.857 336.92 258.892 338.16 257.903 338.075C256.753 337.845 257.378 336.455 257.543 335.7C257.623 335.475 257.698 335.2 257.798 334.89C256.228 334.765 254.649 334.71 253.069 334.71C253.264 335.745 253.424 337.85 252.38 337.91C252.234 337.909 252.092 337.86 251.978 337.769C251.864 337.678 251.783 337.552 251.75 337.41C251.663 336.652 251.631 335.888 251.655 335.125C251.638 334.959 251.638 334.791 251.655 334.625C250.235 334.51 248.81 334.48 247.386 334.535C247.396 334.735 247.33 334.931 247.201 335.085C247.011 335.675 246.936 336.295 246.747 336.89C246.705 337.028 246.619 337.147 246.501 337.229C246.383 337.311 246.241 337.351 246.097 337.341C245.954 337.332 245.818 337.275 245.712 337.178C245.606 337.081 245.535 336.952 245.512 336.81C245.481 336.196 245.574 335.582 245.787 335.005C245.827 334.885 245.867 334.76 245.917 334.635C244.687 334.71 243.458 334.735 242.228 334.82C242.159 334.85 242.087 334.874 242.013 334.89C241.088 339.955 240.044 345.01 239.014 350.065C239.574 350.065 240.144 350.145 240.694 350.16C245.227 350.48 249.845 350.275 254.349 350.74C255.224 350.82 256.093 350.955 256.973 351.01C257.544 350.931 258.125 350.976 258.677 351.14C259.752 347.56 260.602 343.925 261.467 340.29C261.841 338.725 262.201 337.14 262.551 335.56L262.566 335.57ZM263.741 115.5C263.591 114.415 264.181 113.225 265 112.195C261.555 113.051 258.183 114.176 254.914 115.56C252.694 116.38 250.415 116.795 248.251 117.71C247.071 118.21 246.462 119.42 245.577 120.275C243.343 122.54 241.818 125.32 240.224 128.04C239.094 130.165 237.76 132.15 236.45 134.155C235.39 136.23 234.341 138.425 233.366 140.595C233.751 140.724 234.096 140.952 234.366 141.255C237.365 135.4 240.169 129.475 244.192 124.255C244.847 123.345 245.642 122.555 246.237 121.61C246.672 120.675 247.261 119.705 248.406 119.655C252.49 119.225 256.613 118.285 260.717 118.93C260.964 118.968 261.192 119.081 261.372 119.255C261.663 118.531 262.015 117.833 262.426 117.17C262.565 116.993 262.756 116.865 262.973 116.803C263.189 116.741 263.419 116.748 263.631 116.825L263.771 116.885C263.732 116.852 263.697 116.815 263.666 116.775C263.582 116.689 263.517 116.586 263.475 116.474C263.433 116.361 263.415 116.241 263.422 116.121C263.429 116.001 263.461 115.884 263.516 115.777C263.571 115.67 263.647 115.576 263.741 115.5ZM276.736 256.155C277.381 248.475 276.082 240.885 276.237 233.225C276.326 232.425 276.152 231.16 276.152 229.98C273.093 229.585 269.994 230.1 266.915 230.25C264.63 230.385 262.341 230.295 260.057 230.25C254.604 230.31 249.116 230.395 243.733 229.39C242.613 229.22 241.495 229.038 240.379 228.845C240.814 232.25 240.784 235.7 241.343 239.09C241.618 241.59 241.783 244.14 242.528 246.59C242.801 247.744 243.012 248.913 243.158 250.09C243.508 252.52 243.967 254.935 244.277 257.37C244.587 259.805 245.397 261.84 245.957 264.175C246.457 266.32 246.856 268.475 247.256 270.635C247.656 272.795 247.721 275.025 248.046 277.21C248.741 283.14 248.401 289.15 247.746 295.07C247.396 298.87 246.971 302.655 246.282 306.41C245.672 310.53 245.162 314.81 244.632 318.91C243.992 323.355 243.058 327.75 242.513 332.215C249.393 331.78 256.299 332.043 263.126 333C265.385 322.825 267.594 312.635 270.224 302.545C273.542 287.26 276.267 271.835 276.711 256.175L276.736 256.155ZM277.736 148.155C277.809 148.031 277.9 147.918 278.006 147.82C277.686 147.6 277.366 147.375 277.061 147.13C276.366 146.55 275.717 145.92 275.062 145.3C274.907 145.555 274.717 145.8 274.562 146.04C273.682 147.235 272.768 148.4 271.873 149.59C269.584 153.04 266.73 156.035 263.791 158.93C262.646 160.045 261.696 161.33 260.612 162.49C259.267 163.945 257.613 165.035 256.113 166.34C256.563 166.895 257.043 167.42 257.508 167.96C257.773 168.26 258.038 168.565 258.298 168.875C259.661 167.216 261.166 165.678 262.796 164.28C263.953 163.413 264.986 162.394 265.87 161.25C266.486 160.431 267.154 159.653 267.869 158.92C268.204 158.58 268.549 158.255 268.909 157.92C269.895 157.114 270.816 156.231 271.663 155.28C272.07 154.87 272.464 154.45 272.848 154.02C274.542 152.16 276.047 150.11 277.696 148.175L277.736 148.155ZM277.161 369.95C277.921 370.195 278.876 369.85 278.416 368.95C278.247 368.781 278.045 368.648 277.822 368.562C277.599 368.476 277.36 368.438 277.121 368.45C276.299 368.364 275.473 368.336 274.647 368.365C272.608 368.215 270.498 368 268.439 367.865C266.38 367.73 264.441 367.605 262.481 367.365C261.342 367.29 260.197 367.34 259.062 367.205C257.363 366.97 255.648 367.015 253.939 366.86C251.395 366.62 248.836 366.505 246.277 366.5C245.017 366.5 243.778 366.305 242.513 366.29C241.038 366.29 239.564 366.39 238.089 366.415C237.207 366.449 236.328 366.549 235.46 366.715C234.856 366.765 234.196 367.01 234.406 367.745C234.586 368.18 235.315 368.53 235.635 368.055C237.168 367.829 238.715 367.719 240.264 367.725C241.809 367.612 243.361 367.638 244.902 367.8C247.401 367.9 249.955 367.91 252.475 368.12C254.859 368.38 257.263 368.325 259.642 368.62C261.146 368.65 262.648 368.761 264.141 368.95C267.045 369.225 269.974 369.275 272.873 369.625C274.287 369.86 275.742 369.68 277.161 369.95ZM290.687 214.86C290.752 214.781 290.793 214.685 290.805 214.583C290.816 214.481 290.798 214.379 290.752 214.287C290.705 214.196 290.633 214.12 290.545 214.069C290.456 214.018 290.354 213.994 290.252 214C289.963 214.043 289.681 214.122 289.412 214.235L287.703 214.92L287.168 215.135L286.423 215.43L286.203 215.51L285.403 215.805L285.114 215.905L284.824 216.005L284.249 216.19C283.799 216.325 283.334 216.415 282.879 216.53C282.835 216.546 282.793 216.568 282.754 216.595C282.728 216.609 282.704 216.628 282.684 216.65C282.626 216.705 282.58 216.772 282.549 216.846C282.518 216.92 282.503 217 282.504 217.08C282.502 217.11 282.502 217.14 282.504 217.17V217.23C282.502 217.243 282.502 217.257 282.504 217.27C282.504 217.27 282.504 217.31 282.504 217.325C282.521 217.368 282.543 217.408 282.569 217.445L282.604 217.485L282.634 217.51C282.656 217.529 282.679 217.546 282.704 217.56H282.749L282.824 217.585C283.429 217.71 284.049 217.44 284.639 217.305C285.78 216.958 286.902 216.555 288.003 216.095C288.972 215.73 289.902 215.55 290.687 214.86ZM293.901 220.735C294.069 220.74 294.233 220.685 294.364 220.579C294.495 220.474 294.584 220.325 294.615 220.159C294.646 219.994 294.617 219.823 294.532 219.677C294.448 219.531 294.314 219.421 294.155 219.365C292.656 218.995 291.082 218.865 289.632 218.3C289.576 218.2 289.488 218.121 289.381 218.079C289.275 218.036 289.157 218.031 289.047 218.065C288.957 218.035 288.86 218.028 288.766 218.044C288.672 218.061 288.583 218.1 288.508 218.159C288.433 218.218 288.374 218.295 288.335 218.382C288.297 218.469 288.28 218.565 288.287 218.66C288.277 219.83 292.836 220.545 293.901 220.735ZM326.639 325.775C326.456 325.812 326.268 325.812 326.085 325.775C325.201 325.566 324.304 325.419 323.401 325.335C323.481 325.945 323.056 326.785 322.936 327.265C322.556 328.035 322.436 330.08 321.256 329.83C320.097 329.395 321.026 327.9 321.256 327.105C321.481 326.52 321.726 325.95 321.951 325.37C321.948 325.322 321.948 325.273 321.951 325.225C320.776 325.16 319.597 325.14 318.452 325.095C318.433 325.163 318.395 325.224 318.342 325.27C318.262 326.06 318.502 328.34 317.423 328.365C317.289 328.364 317.158 328.324 317.047 328.249C316.936 328.175 316.849 328.069 316.798 327.945C316.538 327.14 316.748 326.26 316.828 325.445C316.836 325.295 316.858 325.146 316.893 325C315.538 324.95 314.194 324.895 312.844 324.855C312.844 325.475 312.809 326.095 312.769 326.715C312.724 327.215 312.614 327.965 311.984 327.98C311.858 327.981 311.735 327.944 311.63 327.874C311.526 327.803 311.445 327.703 311.4 327.585C311.215 326.673 311.194 325.735 311.34 324.815C310.585 324.815 309.84 324.785 309.08 324.785C308.336 329.635 307.556 334.485 306.846 339.34C306.691 340.38 306.511 341.415 306.346 342.45C306.449 342.239 306.609 342.06 306.807 341.934C307.006 341.809 307.236 341.742 307.471 341.74C312.469 342.07 317.468 341.535 322.466 341.625C322.596 341.015 322.811 340.385 322.886 339.895C323.471 337.14 324.335 334.46 325.105 331.755C325.54 329.75 326.07 327.755 326.639 325.775ZM332.682 149.34C335.082 140.21 335.107 130.5 333.222 121.27C332.972 120.03 332.757 118.77 332.433 117.57C331.913 116.028 331.287 114.524 330.558 113.07C330.113 112.105 329.673 111.14 329.144 110.215C328.904 109.715 328.259 109.68 327.789 109.51C325.57 108.95 323.291 108.755 321.026 108.345C320.355 108.198 319.673 108.103 318.987 108.06C318.866 108.035 318.748 107.995 318.637 107.94C318.587 108.205 318.542 108.47 318.497 108.735C318.343 109.239 318.319 109.774 318.427 110.29L318.457 110.415C318.569 110.394 318.683 110.386 318.797 110.39C319.076 110.399 319.352 110.448 319.617 110.535L319.952 110.625C320.357 110.73 320.776 110.8 321.186 110.905C321.325 110.788 321.486 110.701 321.661 110.65C321.835 110.6 322.018 110.586 322.198 110.611C322.377 110.636 322.55 110.699 322.704 110.795C322.858 110.892 322.99 111.019 323.091 111.17C323.612 112.03 324.082 112.92 324.5 113.835C325.17 115.29 325.96 116.695 326.499 118.2C327.914 122.745 328.349 127.525 329.578 132.12C329.933 133.76 330.353 135.395 330.578 137.065C330.738 138.67 330.473 140.285 330.488 141.895C330.538 143.125 330.538 144.36 330.603 145.59C330.697 145.927 330.716 146.28 330.66 146.626C330.604 146.971 330.474 147.3 330.278 147.59C331.173 148.07 331.988 148.925 332.682 149.34ZM335.511 287.405C336.011 278.555 335.267 269.72 334.312 260.93C333.072 255.715 331.448 250.575 330.463 245.29C329.678 242.735 328.114 240.5 327.464 237.885C326.526 234.991 325.404 232.161 324.105 229.41C323.346 227.66 321.831 225.305 321.326 223.135C320.849 223.334 320.362 223.51 319.867 223.66C316.708 224.545 313.449 225.72 310.33 226.57C307.876 227.217 305.468 228.029 303.122 229C300.418 230 297.509 230.59 294.745 231.365C294.867 231.655 295.004 231.939 295.155 232.215C296.589 235.053 297.82 237.988 298.839 241C301.163 245.5 303.337 250.1 304.837 254.97C306.241 258.51 308.046 262.015 308.721 265.78C309.825 270.04 311.385 274.47 311.864 278.82C312.7 285.218 312.763 291.692 312.054 298.105C311.7 306.22 310.66 314.25 309.46 322.265C311.178 322.191 312.898 322.204 314.614 322.305C316.663 322.365 318.712 322.47 320.761 322.55C322.766 322.561 324.764 322.779 326.724 323.2C326.945 323.258 327.149 323.368 327.319 323.52C329.319 316.92 331.623 310.4 332.792 303.58C333.797 298.21 335.052 292.855 335.511 287.405ZM344.408 66.13C344.448 65.96 344.493 65.7933 344.543 65.63C342.759 65.42 341.349 65.765 340.375 67.4C340.875 68.125 341.849 68.255 342.679 68.355C342.334 67.315 342.919 66.075 344.119 66.085C344.217 66.0873 344.314 66.1024 344.408 66.13ZM344.833 358.59C344.932 358.617 345.035 358.624 345.136 358.61C345.237 358.597 345.334 358.564 345.423 358.514C345.511 358.463 345.589 358.395 345.651 358.314C345.713 358.233 345.759 358.141 345.785 358.043C345.812 357.944 345.819 357.841 345.806 357.74C345.793 357.639 345.76 357.541 345.709 357.453C345.658 357.364 345.59 357.287 345.51 357.225C345.429 357.162 345.337 357.117 345.238 357.09C344.288 356.963 343.345 356.785 342.414 356.555C340.185 356.22 337.946 355.94 335.706 355.7C333.997 355.43 332.293 355.3 330.573 355.105C327.629 354.665 324.655 354.35 321.671 354.14C319.297 353.815 316.813 353.975 314.414 353.75C311.11 353.69 307.801 353.64 304.507 353.35C303.087 353.29 303.507 355.14 304.717 354.65C307.761 354.895 310.815 355.01 313.874 355.045C315.273 355.105 316.673 355.26 318.077 355.22C320.152 355.22 322.211 355.565 324.285 355.655C326.44 355.915 328.604 356.115 330.748 356.48C332.487 356.645 334.222 356.845 335.951 357.12C338.943 357.398 341.911 357.89 344.833 358.59ZM351.276 155.175L351.141 155.205C349.462 154.735 348.067 152.9 346.508 152.27C343.277 150.187 339.844 148.437 336.261 147.045C336.185 147.008 336.112 146.967 336.041 146.92C335.948 147.397 335.848 147.877 335.741 148.36C335.506 149.335 335.217 150.36 334.912 151.285C334.884 151.429 334.841 151.57 334.782 151.705C339.41 154.27 343.999 156.91 348.982 158.78C349.737 158.565 350.531 157.1 351.276 155.175ZM357.634 67.175C357.651 66.2515 357.722 65.3299 357.849 64.415C357.109 64.45 356.349 64.46 355.63 64.495C353.008 64.9194 350.35 65.0702 347.697 64.945C347.093 65.9 346.963 67.075 346.698 68.155C346.476 69.2194 346.444 70.3145 346.603 71.39C349.942 71.145 353.28 71.275 356.629 71.255C356.943 71.229 357.259 71.2206 357.574 71.23C357.579 69.855 357.609 68.5 357.634 67.15V67.175ZM358.724 116.84C359.029 103.7 359.478 90.505 360.778 77.43C359.754 77.2937 358.796 76.851 358.029 76.16C357.494 75.66 357.599 74.95 357.574 74.29C357.574 74.165 357.574 74.04 357.574 73.915C357.363 73.9275 357.151 73.9275 356.939 73.915C354.765 74.02 352.591 73.915 350.416 73.885C349.322 73.885 348.227 73.96 347.138 74.02C347.088 76.045 346.903 78.105 346.683 80.115C346.728 85.405 340.385 86.3 336.251 86.005C334.649 85.8274 333.066 85.5129 331.518 85.065C329.469 84.325 327.519 83.115 325.52 82.39C325.02 83.975 326.31 85.115 327.159 86.275C328.914 88.535 331.658 89.45 334.307 90.17C335.352 90.48 336.226 91.515 335.876 92.62C335.446 94.835 334.282 97.44 331.808 97.845C328.599 99.22 324.985 98.59 322.051 96.845C320.875 99.6451 319.917 102.532 319.187 105.48C319.61 105.478 320.031 105.528 320.442 105.63C321.906 105.89 323.371 106.13 324.83 106.39C327.234 106.89 330.463 107.04 331.738 109.495L332.522 110.995C333.609 112.99 334.511 115.08 335.217 117.24C336.887 123.857 337.596 130.681 337.321 137.5C337.181 139.64 336.941 141.665 336.621 143.68C336.591 143.88 336.556 144.08 336.526 144.28C336.701 144.227 336.885 144.209 337.067 144.228C337.249 144.247 337.425 144.302 337.586 144.39C338.815 144.695 349.542 149.835 352.081 152.975C353.15 149.74 354.045 146.11 354.495 144.785C356.021 139.341 357.157 133.795 357.894 128.19C357.595 128.321 357.268 128.377 356.942 128.353C356.616 128.328 356.301 128.224 356.025 128.05C354.63 127.55 353.2 126.885 351.866 126.325C351.181 125.95 350.047 125.645 349.192 125.16C348.337 124.675 347.787 124.03 348.192 122.97C348.732 121.97 349.607 122.105 350.466 122.47C350.966 122.68 351.466 122.97 351.896 123.185C353.95 124.185 356.179 124.875 358.179 125.955C358.482 122.918 358.664 119.872 358.724 116.815V116.84ZM377.312 58.165C377.452 58.0341 377.599 57.9106 377.752 57.795C377.498 57.724 377.274 57.5732 377.112 57.365C377.086 57.7585 377.023 58.1486 376.922 58.53C377.047 58.38 377.177 58.26 377.312 58.14V58.165ZM387.134 139.06C387.004 134.31 385.744 129.47 385.055 124.84C384.215 119.58 383.555 114.3 383.055 109C381.056 99 380.276 88.865 381.356 78.72C381.343 78.4266 381.367 78.1327 381.426 77.845L378.512 77.67C378.312 78.935 378.147 80.205 377.987 81.475C377.416 85.6483 377.154 89.8581 377.202 94.07C376.987 98.635 377.102 103.2 377.117 107.765C377.082 110.3 377.382 112.825 377.472 115.36C377.597 120.14 377.767 124.925 377.787 129.71C377.887 131.64 377.957 133.57 377.997 135.5C378.288 135.393 378.602 135.364 378.908 135.416C379.214 135.468 379.501 135.598 379.741 135.795C381.936 137.425 384.37 138.705 387.134 139.035V139.06ZM389.528 53.96H389.768C389.453 53.05 389.768 51.51 389.613 50.695C388.579 51.7137 387.757 52.927 387.194 54.265C387.969 54.13 388.743 54 389.528 53.935V53.96ZM395.956 52.05C395.881 51.64 395.886 51.22 395.831 50.81C394.576 51.4627 393.47 52.3684 392.582 53.47C392.447 53.6 392.317 53.745 392.187 53.885L392.532 53.85C393.077 53.805 393.672 53.57 394.187 53.785C394.638 53.2303 395.149 52.7272 395.711 52.285C395.791 52.17 395.866 52.095 395.956 52.025V52.05ZM410.451 156.705C411.566 151.91 410.721 146.985 410.486 142.14C409.956 136.555 408.322 131.14 407.157 125.67C406.208 119.965 403.993 114.635 402.444 109.095C401.444 104.715 400.814 100.25 399.495 95.94C398.495 92.1 398.15 88.15 397.555 84.235C397.47 83.385 397.136 82.565 397.056 81.735C396.411 81.59 395.771 81.415 395.131 81.235C394.388 81.026 393.698 80.6628 393.104 80.1692C392.511 79.6756 392.028 79.0626 391.687 78.37C389.149 78.0944 386.598 77.9609 384.045 77.97C384.045 78.47 383.935 78.97 383.955 79.435C383.915 82.33 383.635 85.225 383.63 88.115C383.55 94.765 384.47 101.345 385.63 107.885C386.129 112.04 386.484 116.385 387.094 120.505C387.704 126.105 389.278 131.555 389.618 137.185C389.618 139.075 390.928 142.44 387.784 142.185C384.15 141.97 380.901 140.38 378.017 138.275C378.052 142.945 377.947 147.62 377.792 152.275C377.783 154.971 377.616 157.664 377.292 160.34C377.112 162.235 376.882 164.125 376.563 166.005C377.927 166.205 379.207 166.87 380.561 167.18C383.705 167.99 386.954 168.18 390.183 168.405C394.981 168.975 397.59 168.905 402.039 166.785C406.592 165.235 408.997 160.95 410.451 156.68V156.705ZM414.215 69.405C414.634 66.2613 414.432 63.0658 413.62 60C413.235 58.795 412.35 57.815 411.646 56.785C410.785 55.5891 409.521 54.7453 408.087 54.41C407.022 54.145 405.933 53.97 404.858 53.71C404.018 53.65 403.174 53.675 402.359 53.655C400.944 53.655 399.505 53.37 398.105 53.69C397.624 53.9823 397.185 54.3389 396.801 54.75C394.566 56.955 394.152 60.25 393.522 63.17C393.022 65.83 392.522 68.55 392.972 71.25C393.076 73.1112 393.426 74.9504 394.012 76.72C394.471 77.98 395.411 78.49 396.651 78.805C397.89 79.12 398.975 79.365 400.15 79.565C402.642 79.788 405.145 79.8715 407.647 79.815C407.718 79.7736 407.794 79.7401 407.872 79.715C408.547 79.475 409.286 79.64 409.946 79.365C411.356 78.745 412.215 77.335 412.85 76C413.605 73.875 413.86 71.6 414.215 69.38V69.405ZM439.471 69.93C439.541 68.21 439.891 66.52 439.971 64.8C439.776 62.555 439.696 60.225 438.896 58.095C438.602 57.295 437.937 56.755 437.397 56.13C437 56.0273 436.632 55.8339 436.322 55.565C435.485 54.9174 434.548 54.4107 433.548 54.065C431.974 53.905 430.389 53.725 428.82 54.065C427.284 54.1546 425.768 54.4661 424.321 54.99L424.256 55.065C423.98 55.4185 423.73 55.7911 423.507 56.18C422.667 57.68 422.277 59.4 421.742 61.03C421.11 64.3973 420.775 67.8139 420.743 71.24C420.943 73.08 420.128 75.86 422.482 76.475C425.046 77.35 427.79 78.045 430.509 77.92C430.746 77.9292 430.982 77.8988 431.209 77.83C431.3 77.7498 431.399 77.6794 431.504 77.62C432.579 77.175 433.818 77.38 434.863 77.015C435.714 76.4759 436.519 75.8653 437.267 75.19C438.461 73.6573 439.222 71.8322 439.471 69.905V69.93ZM442.535 62.78C442.696 63.8018 442.734 64.8391 442.65 65.87C442.485 67.245 442.225 68.6 442.15 69.98C441.706 72.98 440.421 76.17 437.842 77.905C437.212 78.4191 436.544 78.8838 435.842 79.295C435.437 79.4446 435.019 79.5551 434.593 79.625C433.858 79.8399 433.099 79.9642 432.334 79.995C432.127 80.1686 431.889 80.3025 431.634 80.39C430.909 80.5532 430.167 80.6221 429.425 80.595C426.472 80.4906 423.565 79.829 420.858 78.645C420.22 78.3917 419.662 77.9742 419.238 77.435C419.156 77.4713 419.071 77.4981 418.983 77.515C418.095 77.6267 417.2 77.6835 416.304 77.685C415.888 77.735 415.466 77.6906 415.07 77.555H415.03C413.74 80.135 411.481 82.33 408.532 82.325C408.433 82.3915 408.325 82.4437 408.212 82.48C407.615 82.6032 407.005 82.6419 406.397 82.595C404.273 82.5843 402.151 82.4608 400.04 82.225C400.954 85.93 400.969 89.8 401.909 93.5C403.259 98.775 404.243 104.22 405.408 109.5C406.073 112 406.987 114.43 407.822 116.88C409.147 121.425 410.011 126.105 411.001 130.73C412.106 135.33 413.15 139.935 413.285 144.69C413.605 149.395 414.135 154.305 412.495 158.835C410.996 162.115 409.321 165.69 406.183 167.675C402.054 169.905 397.505 172.2 392.687 171.435C387.074 171.125 381.431 170.75 376.103 168.835H376.023C375.749 170.055 375.428 171.265 375.058 172.465C374.333 174.947 373.352 177.347 372.129 179.625C371.509 180.85 370.748 181.998 369.86 183.045C368.073 185.161 365.822 186.836 363.282 187.94C361.387 188.72 359.379 189.19 357.334 189.33C355.273 189.561 353.198 189.634 351.126 189.55C349.127 189.41 347.207 188.955 345.248 188.665C343.217 188.427 341.238 187.865 339.385 187C338.156 186.46 336.886 186 335.691 185.405C334.497 184.81 333.422 184.07 332.243 183.48C329.143 182.055 326.124 180.459 323.201 178.7C321.606 177.65 319.892 176.82 318.202 175.895L317.867 175.705C314.309 173.205 310.37 171.275 306.761 168.89C305.332 167.915 304.007 166.805 302.473 165.995C300.641 164.993 298.907 163.821 297.294 162.495C293.496 159.745 289.577 157.155 286.038 154.07C284.382 152.927 282.811 151.663 281.34 150.29C280.958 149.929 280.552 149.595 280.125 149.29C279.933 149.645 279.665 149.954 279.34 150.195C278.927 150.607 278.538 151.043 278.176 151.5C275.637 154.894 272.723 157.99 269.489 160.73C268.394 161.815 267.529 163.105 266.49 164.23C265.45 165.355 264.136 166.175 263.031 167.23C263.901 168.165 264.87 169.845 264.88 170.485C264.725 171.72 262.591 172.27 261.741 173.15C260.332 174.075 259.452 176.07 257.578 176.075C257.078 176.125 256.008 175.385 254.809 174.285C254.179 175.17 253.559 176.065 253.009 177.005C252.01 178.693 251.12 180.443 250.345 182.245C250.01 182.895 249.671 183.775 249.036 184.175C255.179 184.95 261.382 185.52 267.574 185.725C275.617 185.925 283.664 185.755 291.706 186.095C298.359 186.705 304.987 187.315 311.7 187.195C311.897 187.171 312.098 187.197 312.283 187.27C312.468 187.344 312.631 187.462 312.759 187.615C312.927 187.504 313.118 187.433 313.317 187.408C313.516 187.382 313.718 187.401 313.909 187.465C314.082 187.514 314.243 187.601 314.379 187.72C314.878 188.175 314.998 189.035 315.123 189.685C315.248 190.335 315.333 190.935 315.418 191.565C315.653 193.43 315.723 195.32 316.168 197.155C316.613 198.99 317.168 200.86 317.667 202.71C318.452 205.395 319.212 208.015 320.127 210.645C320.56 212.17 321.071 213.672 321.656 215.145C322.333 216.536 322.937 217.961 323.466 219.415C323.629 219.676 323.734 219.97 323.773 220.275C323.812 220.581 323.783 220.891 323.69 221.185C324.09 222.42 324.495 223.65 325.015 224.84C326.015 227.085 327.279 229.195 328.119 231.505C329.264 234.215 330.008 237.065 331.083 239.795C332.213 242.085 333.237 244.425 333.582 246.975C334.522 252.385 336.736 257.525 337.211 262.975C338.076 271.8 338.71 280.675 337.926 289.535C337.046 295.875 335.706 302.165 334.367 308.425C332.522 316.575 329.299 324.345 327.474 332.495C326.709 335.205 325.895 337.575 325.36 340.23C325.23 340.774 325.134 341.325 325.07 341.88C325.46 341.88 325.845 341.91 326.19 341.925C328.219 342.04 330.233 342.305 332.273 342.33C333.817 342.33 335.272 342.895 336.716 343.33C338.091 343.655 339.52 343.695 340.855 344.19C342.389 344.604 343.859 345.226 345.223 346.04C346.868 346.975 347.657 348.885 348.177 350.62C348.757 353.425 347.637 356.205 347.053 358.91C346.825 359.782 346.489 360.622 346.053 361.41C345.835 361.733 345.497 361.956 345.115 362.03C344.733 362.104 344.336 362.023 344.014 361.805C343.89 361.815 343.767 361.815 343.644 361.805C341.387 361.826 339.131 361.724 336.886 361.5C334.777 361.5 332.672 361.425 330.568 361.26C328.435 361.246 326.304 361.114 324.185 360.865C321.616 360.775 319.137 360.405 316.623 360.255C315.01 360.198 313.406 359.997 311.829 359.655C309.02 359.155 306.066 359.01 303.422 357.88C302.723 357.515 301.968 356.985 301.773 356.175C301.558 355.233 301.482 354.264 301.548 353.3C301.53 352.724 301.706 352.159 302.048 351.695C302.173 350.915 302.393 350.115 302.413 349.535C302.858 347.035 303.412 344.535 303.862 342.035C304.892 334.63 306.156 327.26 307.246 319.86C308.136 312.585 309.125 305.36 309.425 298C310.125 291.941 310.115 285.821 309.395 279.765C308.501 273.51 306.531 267.445 304.787 261.39C302.208 256.58 300.998 251.17 298.499 246.355C296.912 243.507 295.591 240.52 294.55 237.43C294.22 236.22 292.501 233.68 291.961 231.775C290.272 230.08 288.522 228.445 286.828 226.75C284.739 224.605 283.229 221.98 281.12 219.855C280.495 222.18 279.89 224.59 279.221 226.885C279.116 227.275 279.006 227.67 278.916 228.065C279.047 228.662 279.079 229.277 279.011 229.885C278.786 238.67 280.16 247.385 279.435 256.185C278.646 274.87 275.377 293.36 270.743 311.455C268.114 321.855 266.005 332.38 263.481 342.805C262.746 345.955 261.931 349.075 261.067 352.19C260.632 353.155 260.637 354.82 259.972 355.69C262.196 355.94 264.471 355.855 266.65 356.36C268.244 356.63 269.874 356.705 271.438 357.14C273.003 357.575 274.477 357.935 275.937 358.47C278.561 359.525 280.68 361.555 281.25 364.39C281.79 366.035 282.09 367.81 281.425 369.47C280.88 370.76 279.81 372.225 278.386 372.54C278.239 372.746 278.039 372.908 277.808 373.01C277.577 373.112 277.322 373.15 277.071 373.12C275.623 373.007 274.169 372.978 272.718 373.035C270.508 372.94 268.309 373.135 266.105 373.145C263.491 373.11 260.892 372.775 258.273 372.9C256.402 372.742 254.522 372.733 252.65 372.875C251.34 372.92 250.04 372.705 248.736 372.62C247.654 372.622 246.573 372.678 245.497 372.79C243.867 372.87 242.238 372.705 240.614 372.685C239.22 372.71 237.826 372.646 236.44 372.495C235.284 372.359 234.197 371.868 233.331 371.09C232.446 370.59 232.731 369.25 232.946 368.275C233.276 366.225 233.686 364.19 234.126 362.16C235.859 353.493 237.583 344.827 239.299 336.16C239.889 333.275 240.214 330.345 240.659 327.435C241.103 324.525 241.753 321.58 242.133 318.62C242.733 314 243.273 309.415 244.012 304.815C244.817 300.475 245.177 296.075 245.607 291.68C245.947 288.089 246.032 284.478 245.862 280.875C245.802 278.805 245.422 276.765 245.192 274.71C244.84 271.09 244.18 267.507 243.218 264C242.798 262.58 242.303 261.18 241.968 259.735C241.633 258.29 241.498 256.8 241.253 255.33C240.864 253.2 240.502 251.063 240.169 248.92C239.744 246.725 238.989 244.605 238.839 242.355C238.604 239.415 238.029 236.51 237.939 233.555C237.89 232.09 237.79 230.62 237.64 229.16C237.64 228.89 237.59 228.62 237.565 228.35C237.212 228.263 236.894 228.07 236.654 227.796C236.414 227.522 236.265 227.182 236.225 226.82C236.213 226.603 236.254 226.387 236.345 226.19C236.195 225.625 236.18 225.02 236.075 224.45C235.92 223.41 235.72 222.38 235.575 221.34C235.122 218.17 235.009 214.959 235.24 211.765C235.346 209.111 235.68 206.471 236.24 203.875C234.126 204.225 232.241 204.67 230.087 204.63C228.036 204.542 226.015 204.101 224.114 203.325C221.21 202.325 219.161 200.875 219.336 197.505C219.126 192.54 219.161 187.475 220.3 182.61C219.601 182.2 218.901 181.79 218.206 181.37C217.266 180.775 215.987 180.15 215.972 178.87C215.983 175.815 216.326 172.77 216.997 169.79C217.951 165.84 218.766 161.86 219.776 157.925C220.026 156.95 220.33 155.995 220.61 155.025C220.859 154.03 221.175 153.053 221.555 152.1C221.69 151.783 221.911 151.511 222.195 151.315C223.829 150.546 225.518 149.901 227.248 149.385C229.036 143.952 231.241 138.666 233.846 133.575C234.706 131.825 235.965 130.305 236.935 128.615C238.509 125.905 239.934 123.085 241.848 120.585C242.948 119.215 244.197 117.97 245.347 116.65C246.971 114.975 249.396 114.51 251.56 113.9C253.534 113.36 255.394 112.5 257.318 111.815C260.092 110.985 262.891 110.07 265.77 109.685C266.009 109.65 266.252 109.681 266.474 109.777C266.696 109.872 266.886 110.027 267.025 110.225L267.225 110.085C268.899 108.97 270.359 107.55 272.133 106.585C273.977 105.535 276.012 104.89 277.911 103.945C278.718 103.642 279.556 103.429 280.41 103.31C280.972 103.127 281.58 103.152 282.125 103.38L282.22 103.435C283.397 104.078 284.433 104.95 285.268 106C286.413 107.555 287.448 109.185 288.472 110.815C289.497 112.445 290.767 114.15 291.421 115.92C291.921 117.065 292.361 118.225 292.786 119.395C293.001 120.045 293.441 120.72 293.206 121.42C293.141 121.628 293.024 121.815 292.865 121.964C292.707 122.113 292.512 122.219 292.301 122.27C291.999 122.362 291.674 122.345 291.384 122.22C291.094 122.096 290.858 121.872 290.717 121.59C289.907 119.435 289.182 117.23 288.058 115.21C287.253 113.91 286.388 112.65 285.558 111.35C284.214 109.32 283.094 107.04 281 105.675C279.54 105.79 278.231 106.455 276.921 107.045C275.525 107.576 274.161 108.188 272.838 108.88C271.633 109.575 270.608 110.525 269.434 111.265C268.784 111.68 268.119 112.06 267.494 112.515C266.998 112.905 266.555 113.357 266.175 113.86C266.868 113.532 267.536 113.154 268.174 112.73C270.439 111.295 272.703 109.85 275.257 108.965C276.042 108.505 276.936 108.04 277.796 108.635C281.135 111.005 283.259 114.685 284.999 118.305C285.288 118.83 285.643 119.305 285.968 119.805C286.053 119.935 286.138 120.065 286.213 120.195C286.883 121.41 285.213 122.695 284.214 121.76C282.859 120.26 282.115 118.33 281.175 116.575C279.9 114.454 278.352 112.509 276.571 110.79C273.038 112.095 270.074 114.495 266.83 116.225C265.995 116.615 265.12 117.465 264.151 117.18L264.041 117.115C264.172 117.253 264.265 117.423 264.311 117.608C264.356 117.793 264.353 117.987 264.301 118.17C262.566 123.17 260.647 128.125 258.493 132.97C257.648 135.03 256.918 137.115 255.993 139.145C252.998 146.799 250.411 154.607 248.241 162.535C247.681 164.46 247.241 166.415 246.816 168.38C246.766 168.615 246.712 168.845 246.657 169.075C246.732 169.289 246.762 169.517 246.745 169.743C246.727 169.969 246.663 170.19 246.557 170.39C246.452 170.704 246.378 171.027 246.337 171.355V171.44L246.407 171.39C247.941 170.36 249.511 169.515 250.405 169.825C250.47 169.75 250.54 169.68 250.61 169.61C249.476 168.025 248.766 166.61 249.111 166.055C249.556 164.99 250.64 164.335 251.375 163.48C252.565 162.55 253.814 160.43 255.534 161.09C256.178 161.508 256.845 161.888 257.533 162.23C257.778 162.01 258.033 161.79 258.263 161.565C259.697 160.115 260.832 158.4 262.286 156.97C264.946 154.413 267.34 151.592 269.429 148.55C270.374 147.245 271.428 146 272.373 144.705C272.598 144.41 272.808 144.065 273.048 143.785C272.248 143.22 271.418 142.69 270.663 142.15C270.404 141.927 270.241 141.613 270.206 141.273C270.172 140.933 270.269 140.593 270.478 140.322C270.687 140.051 270.991 139.871 271.329 139.819C271.667 139.766 272.012 139.846 272.293 140.04C272.793 140.455 273.348 140.85 273.887 141.245L275.222 142.205C276.243 143.015 277.222 143.876 278.156 144.785C279.36 145.84 280.8 146.57 282.05 147.565C282.809 148.165 283.499 148.835 284.219 149.475C285.303 150.38 286.488 151.155 287.618 152C288.747 152.845 289.687 153.74 290.752 154.57C291.816 155.4 292.961 156.145 294.065 156.94C295.96 158.34 297.914 159.65 299.794 161.075C301.399 162.304 303.107 163.395 304.897 164.335C306.021 165.04 307.051 165.87 308.136 166.64C310.67 168.33 313.389 169.725 316.018 171.26C317.373 172.065 318.602 173.06 320.017 173.805C321.061 174.375 322.121 174.905 323.141 175.52C324.64 176.485 326.195 177.37 327.784 178.19C329.783 179.41 331.933 180.415 334.057 181.44C334.982 181.94 335.861 182.505 336.791 182.98C338.555 183.75 340.29 184.53 342.089 185.265C343.909 185.87 345.838 186.025 347.717 186.39C350.178 186.928 352.706 187.087 355.215 186.86C359.433 186.715 363.177 185.715 366.421 182.89C370.919 178.78 372.734 172.63 374.138 166.89C374.965 162.41 375.431 157.87 375.533 153.315C375.533 149.25 375.748 145.19 375.678 141.125C375.608 137.06 375.458 132.97 375.268 128.895C375.205 122.562 374.97 116.245 374.563 109.945C374.523 104.515 374.418 99.085 374.628 93.655C374.598 88.3661 374.999 83.0836 375.828 77.86C376.36 74.066 377.335 70.3473 378.732 66.78C379.042 65.865 379.342 64.95 379.622 64.03C380.091 62.395 380.826 60.73 380.431 59.005C378.327 59.97 376.847 62.085 375.778 64.07C375.099 65.4836 374.33 66.8515 373.474 68.165C373.437 68.4113 373.373 68.6527 373.284 68.885C373.174 69.1612 372.968 69.3884 372.704 69.525C372.609 69.6797 372.47 69.8031 372.306 69.8801C372.142 69.957 371.958 69.9841 371.779 69.9581C371.599 69.932 371.431 69.8539 371.295 69.7334C371.159 69.6129 371.062 69.4553 371.014 69.28C371.01 69.2218 371.01 69.1632 371.014 69.105C370.395 68.105 371.209 66.605 371.474 65.605C372.339 62.645 374.158 60.02 374.853 57.01C371.129 58.305 370.32 65.145 368.925 68.45C368.71 69.105 368.425 69.95 367.596 69.95C366.201 69.895 366.441 68.185 366.596 67.22C366.869 65.448 367.283 63.7007 367.836 61.995C368.335 60.39 369.24 58.855 369.37 57.17C366.226 57.94 365.571 63.17 364.981 65.76C364.677 67.26 364.377 68.71 364.152 70.205C363.987 70.895 363.997 71.63 363.867 72.33V72.365C363.812 73.285 363.742 74.19 363.682 75.09C362.767 86.065 361.773 97.06 361.513 108.09C361.158 113.94 361.148 119.8 360.643 125.64C360.038 131.17 358.939 136.64 357.804 142.085C356.681 146.625 355.358 151.108 353.835 155.535C353.006 158.07 351.516 162.33 348.142 161.47C342.644 159.355 337.551 156.425 332.472 153.47C330.188 152.585 328.314 151.075 326.435 149.55C324.241 148.231 322.135 146.769 320.132 145.175C312.934 140.29 305.607 135.625 298.334 130.865C296.055 129.295 293.761 127.715 291.586 126.01C290.502 124.96 291.891 123.11 293.211 123.905C293.711 124.215 294.165 124.555 294.625 124.905C295.692 125.794 296.803 126.628 297.954 127.405C305.052 132.205 312.449 136.64 319.447 141.54C321.439 142.81 323.364 144.181 325.215 145.65C326.225 146.218 327.199 146.846 328.134 147.53C328.17 147.496 328.208 147.464 328.249 147.435C328.09 147.194 328.01 146.909 328.019 146.62C328.05 146.119 328.03 145.617 327.959 145.12C327.814 142.805 327.894 140.49 327.959 138.175C327.855 136.934 327.638 135.706 327.309 134.505C326.594 131.35 325.78 128.225 325.275 125.005C324.775 122.845 324.465 120.625 323.67 118.545C322.916 116.91 322.136 115.29 321.396 113.645C321.277 113.657 321.156 113.657 321.036 113.645C320.602 113.59 320.037 113.55 319.452 113.455C319.415 113.759 319.271 114.039 319.045 114.245C318.82 114.452 318.528 114.57 318.222 114.58C318.066 114.59 317.909 114.568 317.761 114.515C317.614 114.463 317.478 114.381 317.363 114.275C314.039 110.88 317.018 103.625 318.192 99.625C318.822 97.75 319.457 95.835 320.547 94.165C321.546 92.85 322.616 93.9 323.546 94.62C325.575 95.67 328.014 96.455 330.263 95.68C332.413 95.36 332.947 94.365 333.517 92.385C329.214 91.705 325.415 89.28 323.581 85.225C322.756 82.53 323.581 78.895 327.114 80.4C329.074 81 330.853 82.045 332.792 82.69C336.371 83.565 340.87 84.34 343.984 81.88C344.388 79.11 344.358 76.285 344.748 73.525C344.343 73.025 344.358 72.39 344.134 71.805C344.048 71.3813 343.995 70.9517 343.974 70.52C343.63 70.5791 343.281 70.5943 342.934 70.565C341.434 70.565 339.61 70.04 338.685 68.81C339.01 69.915 339.395 71.01 339.725 72.1C340.54 75.075 341.959 79.53 337.126 79.1C335.546 78.775 332.992 74.905 333.252 73.335C333.288 73.1648 333.367 73.0068 333.482 72.8766C333.597 72.7464 333.744 72.6484 333.909 72.5924C334.073 72.5364 334.249 72.5242 334.42 72.5571C334.591 72.59 334.75 72.6668 334.882 72.78C336.091 73.715 336.511 77.315 338.46 76.78C338.051 73.675 333.552 63.485 337.236 61.69C338.4 61.755 338.126 62.69 337.971 63.465C337.866 64.6762 337.953 65.8963 338.231 67.08C338.532 65.9791 339.194 65.0109 340.11 64.33C339.984 64.1432 339.869 63.9495 339.765 63.75C339.659 63.546 339.635 63.3088 339.699 63.0878C339.763 62.8667 339.909 62.6788 340.108 62.563C340.307 62.4472 340.543 62.4124 340.766 62.4658C340.99 62.5193 341.185 62.6568 341.309 62.85C341.414 63.05 341.549 63.27 341.659 63.5C341.867 63.4407 342.077 63.3923 342.289 63.355C341.944 62.535 341.894 61.57 342.659 61.355C343.579 61.045 344.029 62.065 344.253 62.775C344.354 62.9267 344.423 63.0966 344.458 63.275C344.826 63.3104 345.188 63.3876 345.538 63.505L345.658 63.33C346.388 62.33 347.657 62.29 348.777 62.405C349.442 62.405 350.112 62.405 350.776 62.405C353.105 62.465 355.41 61.905 357.744 62.08C357.959 62.08 358.174 62.08 358.389 62.11C358.65 61.2382 359.01 60.3993 359.463 59.61C359.868 58.86 360.163 58.045 361.038 57.895C361.641 57.7192 362.255 57.5872 362.877 57.5C363.662 57.355 364.572 57 365.376 57.24C365.707 56.808 366.084 56.4139 366.501 56.065C367.97 54.71 370.999 54.105 371.564 56.625C372.809 55.275 375.343 53.625 376.753 55.625C376.852 55.7803 376.929 55.9485 376.982 56.125C377.277 55.59 378.062 55.355 378.767 55.425C380.616 55.08 382.446 54.595 384.34 54.51H384.73C385.065 52.945 386.659 50.945 387.184 50.01C388.873 47.51 391.862 47.51 392.027 51.01C393.162 49.875 395.941 47.435 397.495 48.885C398.036 49.4986 398.36 50.2737 398.415 51.09C399.628 50.9899 400.848 50.9999 402.059 51.12C402.614 51.18 403.184 51.18 403.748 51.19C404.408 50.895 405.143 51.265 405.833 51.305C407.288 51.4886 408.72 51.8237 410.106 52.305C411.517 52.8456 412.745 53.7748 413.65 54.985C414.32 54.54 415.369 54.835 416.149 54.8C417.363 54.8625 418.579 54.8625 419.793 54.8C420.081 54.8063 420.357 54.9125 420.575 55.1004C420.793 55.2884 420.939 55.5463 420.988 55.83C421.276 55.2125 421.649 54.6386 422.097 54.125C422.151 53.8035 422.291 53.5027 422.502 53.2544C422.714 53.0062 422.988 52.8198 423.297 52.715C424.836 51.925 426.571 51.715 428.26 51.54C430.116 51.225 432.012 51.225 433.868 51.54C435.24 51.8337 436.532 52.4242 437.652 53.27C437.882 53.3974 438.102 53.5446 438.307 53.71C438.601 53.7347 438.883 53.8415 439.12 54.0182C439.356 54.195 439.539 54.4347 439.646 54.71C440.313 55.2759 440.853 55.9762 441.231 56.765C442.14 58.57 442.29 60.7 442.535 62.755V62.78Z" fill="black"/>
<path d="M347.382 63.08C346.613 62.48 347.662 60.825 347.912 60.11C348.137 59.23 349.487 59.655 349.302 60.49C349.092 60.9503 348.905 61.4209 348.742 61.9C348.592 62.545 348.187 63.555 347.382 63.08Z" fill="black"/>
<path d="M327.939 64.34H327.439C325.88 64.545 325.885 66.755 326.649 67.775C325.5 67.614 324.39 67.2428 323.376 66.68C322.482 66.0741 321.787 65.2185 321.376 64.22C321.486 63.365 322.996 63.365 323.67 63.275C325.147 63.3637 326.594 63.7248 327.939 64.34Z" fill="white"/>
<path d="M344.543 65.635C344.493 65.795 344.448 65.9617 344.408 66.135C344.314 66.1091 344.216 66.0957 344.119 66.095C342.919 66.095 342.334 67.325 342.679 68.365C341.849 68.265 340.9 68.135 340.375 67.41C341.349 65.77 342.759 65.425 344.543 65.635Z" fill="white"/>
<path d="M389.768 53.925H389.528C388.743 54.005 387.969 54.12 387.194 54.22C387.757 52.882 388.579 51.6687 389.613 50.65C389.768 51.5 389.453 53 389.768 53.925Z" fill="white"/>
<path d="M395.831 50.785C395.886 51.195 395.881 51.615 395.956 52.025C395.871 52.095 395.791 52.17 395.711 52.25C395.149 52.6922 394.638 53.1953 394.187 53.75C393.687 53.535 393.077 53.75 392.532 53.815L392.187 53.85C392.317 53.71 392.447 53.565 392.582 53.435C393.471 52.337 394.577 51.4348 395.831 50.785Z" fill="white"/>
<path d="M277.966 147.84C277.86 147.938 277.769 148.051 277.696 148.175C276.047 150.11 274.542 152.175 272.848 154.06C272.628 154.285 272.403 154.51 272.168 154.73C270.762 155.837 269.459 157.069 268.274 158.41C268.134 158.585 267.999 158.765 267.869 158.94C267.154 159.673 266.486 160.451 265.87 161.27C264.986 162.414 263.952 163.433 262.796 164.3C261.166 165.698 259.661 167.236 258.298 168.895C258.038 168.585 257.773 168.28 257.508 167.98C257.043 167.44 256.563 166.915 256.113 166.36C257.588 165.055 259.247 163.965 260.612 162.51C261.696 161.35 262.646 160.065 263.791 158.95C266.73 156.055 269.584 153.06 271.873 149.61C272.768 148.42 273.682 147.255 274.562 146.06C274.717 145.815 274.907 145.56 275.062 145.32C275.722 145.94 276.371 146.57 277.061 147.15C277.326 147.395 277.646 147.62 277.966 147.84Z" fill="white"/>
<path d="M260.507 121.435C260.392 121.715 260.277 121.995 260.157 122.27C258.812 125.645 257.433 129.01 255.953 132.33C255.339 133.795 254.849 135.33 254.254 136.785C253.659 138.24 252.979 139.73 252.455 141.245C250.395 146.64 248.536 152.11 246.956 157.675C245.807 161.415 244.912 165.22 244.112 169.045C243.872 169.89 243.348 171.09 243.817 171.81C243.639 172.292 243.626 172.82 243.783 173.31C243.383 173.605 243.033 173.855 242.783 174.025C241.953 174.62 241.138 175.23 240.284 175.785C239.815 175.937 239.421 176.262 239.183 176.694C238.944 177.126 238.879 177.632 238.999 178.11C239.124 178.885 239.164 179.84 239.844 180.35C240.747 180.712 241.748 180.745 242.673 180.445C242.543 180.945 242.553 181.48 242.393 181.945C241.968 183.37 241.593 184.805 241.243 186.25C239.869 191.065 238.744 195.95 237.39 200.75C237.238 200.852 237.112 200.987 237.02 201.145L236.99 201.2C234.886 201.35 232.821 201.965 230.702 201.975C228.094 201.89 225.54 201.206 223.239 199.975C221.795 199.265 222.055 197.975 221.975 196.61C221.788 193.051 221.917 189.482 222.36 185.945C222.492 184.911 222.703 183.888 222.99 182.885C224.604 183.13 226.673 182.965 227.628 183.2C229.337 183.23 232.681 183.47 233.561 181.7C234.146 179.115 234.99 176.575 235.525 173.965C236.252 170.981 237.194 168.053 238.344 165.205C239.739 160.88 240.484 156.385 241.343 151.935C241.708 150.91 240.629 150.13 239.679 150.37C238.714 150.335 237.76 150.215 236.795 150.195C234.761 150.13 232.726 150.135 230.687 150.05C230.373 150.067 230.059 150.057 229.747 150.02C230.537 148.08 231.027 146.02 231.857 144.08C232.056 143.58 232.261 143.08 232.476 142.58C233.008 143.148 233.658 143.591 234.381 143.88C235.655 144.06 236.225 142.6 236.73 141.685C237.67 139.805 238.669 137.955 239.569 136.06C241.888 130.925 245.792 126.735 248.831 122.06C252.625 121.81 256.433 120.755 260.227 121.345C260.317 121.385 260.41 121.416 260.507 121.435Z" fill="#F7941D"/>
<path d="M238.844 152.67C237.725 158.17 236.595 163.55 234.386 168.78C233.266 172.565 232.511 176.45 231.387 180.235C228.253 180.985 225.024 180.01 221.89 179.935C221.685 179.967 221.493 180.052 221.33 180.18C220.395 179.63 219.436 179.105 218.541 178.49C218.591 174.735 219.371 171.05 220.315 167.43C220.615 166.07 220.91 164.71 221.215 163.35C223.311 163.706 225.443 163.804 227.563 163.64C228.878 163.71 230.197 163.77 231.507 163.845C232.641 164.145 233.751 163.165 233.081 162.045C232.656 161.41 231.882 161.435 231.202 161.445C229.797 161.47 228.403 161.29 227.003 161.32C225.55 161.389 224.094 161.359 222.645 161.23C222.543 161.103 222.413 161.002 222.264 160.937C222.115 160.871 221.952 160.843 221.79 160.855C222.39 158.355 223.06 155.855 223.874 153.405C225.03 152.873 226.22 152.422 227.438 152.055L227.718 151.96C228.423 152.5 230.057 152.54 230.922 152.5C233.551 152.62 236.2 152.53 238.844 152.67Z" fill="white"/>
<path d="M261.207 169.215C261.497 169.57 261.801 169.91 262.091 170.265C260.467 171.125 259.177 172.4 257.868 173.65C257.683 173.545 257.493 173.45 257.303 173.355C255.206 171.228 253.284 168.936 251.555 166.5C252.64 165.47 253.699 164.415 254.839 163.445C255.084 163.6 255.339 163.745 255.589 163.88L254.414 164.86C254.25 164.839 254.083 164.859 253.929 164.918C253.774 164.977 253.637 165.074 253.529 165.199C253.421 165.324 253.345 165.475 253.31 165.636C253.274 165.798 253.279 165.966 253.324 166.125C253.144 167.3 254.674 168.705 255.459 169.585C256.198 170.305 256.798 171.25 257.738 171.72C258.637 172.075 259.387 171.275 259.932 170.655C260.372 170.18 260.787 169.7 261.207 169.215Z" fill="white"/>
<path d="M252.05 171.365C252.22 171.57 252.4 171.775 252.575 171.975C252.359 172.254 252.216 172.582 252.16 172.93C251.864 173.952 251.457 174.938 250.945 175.87C250.835 176.155 250.71 176.435 250.575 176.71C250.32 177.15 250.075 177.595 249.835 178.045C249.366 178.791 248.829 179.492 248.231 180.14C247.846 180.59 247.491 181.07 247.116 181.53L245.917 181.145C246.632 179.9 247.136 178.555 247.851 177.315C248.887 175.58 250.029 173.91 251.27 172.315C251.525 172 251.78 171.675 252.05 171.365Z" fill="white"/>
<path d="M248.036 172.94C247.426 173.823 246.848 174.732 246.302 175.665C245.896 176.345 245.531 177.048 245.207 177.77C245.063 177.58 244.861 177.441 244.632 177.375C243.548 177.165 242.548 178.04 241.438 178.055C241.438 177.98 241.438 177.905 241.403 177.83L241.378 177.565C243.573 176 245.767 174.405 248.036 172.94Z" fill="white"/>
</g>
<defs>
<clipPath id="clip0_496_710">
<rect width="445" height="375" fill="white"/>
</clipPath>
</defs>
</svg>
