<svg xmlns="http://www.w3.org/2000/svg" viewBox="0 0 1361.42 1117.15"><defs><style>.cls-1{fill:#ffac2c;}.cls-2{fill:#f7691d;}.cls-3{fill:#fff;}</style></defs><title>imagen 10</title><g id="Capa_2" data-name="Capa 2"><g id="Capa_1-2" data-name="Capa 1"><path d="M222.35,569.09a30.61,30.61,0,0,1-1.15-3.83v0c-.2-.75-.39-1.51-.54-2.27a1.67,1.67,0,0,1,.12-1.45.75.75,0,0,1,1.24.75c.52,2.11,1.34,4.13,1.77,6.26A.78.78,0,0,1,222.35,569.09Z"/><path d="M248.34,594.69c-1.35-2.81-2.46-5.68-3.53-8.59a33.24,33.24,0,0,1-1.26-4.46,1.35,1.35,0,0,1,0-.77.57.57,0,0,1,1-.19,2.08,2.08,0,0,1,.35.79,92.24,92.24,0,0,0,3.49,9.2,30.61,30.61,0,0,1,1.29,3.46.73.73,0,0,1-1.34.56Z"/><path d="M128.17,595a.75.75,0,0,1-.58-.89,43.94,43.94,0,0,1,2.67-7.38.94.94,0,0,1,1.33-.58c.41.27.37.82.54,1.24a1.1,1.1,0,0,1,.06.67.56.56,0,0,1-.92.2c-.79,2.06-1.44,4.18-2.23,6.24A.77.77,0,0,1,128.17,595Z"/><path d="M127.2,623.1a.74.74,0,0,1-.57-.88,22.17,22.17,0,0,1,1.67-4.57c.66-1.19,1.93-4.77,3.51-4.6a.87.87,0,0,1,.69.64.56.56,0,0,1-.24.57.83.83,0,0,1-.36.13,4.27,4.27,0,0,0-.64.89,48.74,48.74,0,0,0-2.35,5.22c-.28.7-.58,1.4-.85,2.11A.76.76,0,0,1,127.2,623.1Z"/><path d="M189.85,615.05a50.51,50.51,0,0,1-1-7.25,10.51,10.51,0,0,1,.18-3.67.69.69,0,0,1,1.12-.23,1.29,1.29,0,0,1,.18.88c0,3.38.62,6.74.82,10.11A.67.67,0,0,1,189.85,615.05Z"/><path d="M346.24,699.08a.94.94,0,0,1-.5,1.14,1,1,0,0,1-1.25-.45,133.91,133.91,0,0,0-11.62-19.53c-2.8-4.12-6.28-7.74-8.93-12-3.54-5.77-6.38-11.68-9.75-17.45s-6.42-11.51-10.32-16.71c-2.23-3-4.55-6-6.52-9.18-3.85-6.18-7-12.79-11.36-18.65-5.27-7-10.93-13.8-16-21-3-4.32-5.33-9.1-8.46-13.34-4.55-6.24-10-11.79-14.34-18.18-2.49-3.85-5-7.7-7.57-11.48a3.1,3.1,0,0,1-.46-.15,4.52,4.52,0,0,0-1.3.33.92.92,0,0,1-.9,1.06,1.26,1.26,0,0,1-1.13-1c-.76.11-1.52.17-2.28.23-2.44.16-4.87.48-7.29.86-5.46.51-10.95.57-16.43.82-3.78.2-7.55.76-11.34.55-12.77,0-25.56-1.29-38.33-.59-6.5.42-13,.92-19.51.2-5.41-.37-10.84-.09-16.27-.17-2.27,0-4.54,0-6.81.25a1.38,1.38,0,0,1-1.26.12c-2.48,3.32-5.24,6.44-7.55,9.89-3.3,4.86-5.83,10.2-9.22,15-4.46,6.42-9.67,12.55-13.63,19.27-4.95,7.9-9.15,16.22-13.71,24.34-2.53,4.42-5.9,8.26-8.63,12.54-3.23,5-5.66,10.49-8.47,15.75-3.27,6.19-7.39,11.85-11.36,17.59-4.59,6.66-8.61,13.68-12.63,20.69-3.19,5.81-7.49,10.93-10.7,16.72a57.72,57.72,0,0,0-3.46,8.09.93.93,0,0,1-1.22.78,1,1,0,0,1-.53-1.31,45.8,45.8,0,0,1,1.94-5.08c2.51-6,6.68-11,10.07-16.46,4-6.62,7.68-13.45,11.88-20,2.38-3.76,5-7.37,7.5-11.05a114.34,114.34,0,0,0,6.94-11.34c2.15-4.06,4.08-8.23,6.36-12.21,2.86-5.28,6.91-9.76,10-14.85,5.27-9.27,10-18.84,15.82-27.8,4.11-6.6,9.31-12.43,13.51-19,3-4.61,5.37-9.56,8.56-14,2.78-4,6.15-7.62,8.81-11.67,2.23-3.39,3.52-7.26,5.5-10.78,2.69-5,6.36-9.31,10-13.63,2.26-2.83,4.22-5.87,6.36-8.79,2-2.76,4.16-5.41,5.95-8.16,2.6-4.34,4.41-9.15,7.61-13.13,4.2-5.46,9.33-10.14,13.2-15.85,1.56-2.24,2.85-4.66,4.36-6.93s3.31-3.81,4.7-5.93c.48-.7.93-1.41,1.41-2.1a1,1,0,0,1,1.41-.23.94.94,0,0,1,.31.35,1,1,0,0,1,.16-.82.87.87,0,0,1,1.21-.21,1.61,1.61,0,0,1,.39.47c.47.8,1,1.58,1.51,2.35,2.93,4.33,6.13,8.47,9.08,12.78s5.36,9,8.46,13.16c4.85,6.83,10.7,12.86,15.73,19.55,2,2.64,3.72,5.44,5.5,8.22,2.32,3.54,4.92,6.88,7.4,10.3,4.59,6.2,9.35,12.27,13.73,18.62,3.51,4.82,6.43,10,9.93,14.86,3.78,5.12,8.15,9.78,11.94,14.9,4.05,5.29,6.83,11.41,10.84,16.74,5.24,7,10.87,13.71,15.94,20.84,3.72,5.46,6.61,11.43,10.14,17,3.78,5.9,8.46,11.18,11.87,17.32,2.58,4.37,5.06,8.8,7.52,13.25s4.7,9,7.51,13.28c3.19,4.6,6.94,8.78,10,13.48A126,126,0,0,1,346.24,699.08Z"/><path class="cls-1" d="M10.78,737c.35,6.71,0,13.42.12,20.13.6,20.42,1.55,40.83,2.16,61.25.18,11.14-.51,22.29-.2,33.44.61,20.21,1.72,234.13,2.46,254.33h343c-.06-7.56-.84-208.82-1.29-216.37-.71-7.36-.4-14.76-.31-22.14-.08-12.48-.71-25-1.47-37.41-.28-3.73-.44-7.47-.76-11.2-.46-4.3-1-8.6-1.08-12.93-.5-8.73.57-17.44.38-26.16-.27-7-.94-13.92-1.27-20.88-.72-12.53-1.08-25.08-1.21-37.63,0-2.55-.06-5.1-.16-7.65a24.86,24.86,0,0,0-.82-6.66,35.7,35.7,0,0,0-10.44-13.9,35.53,35.53,0,0,0-10-5,69,69,0,0,0-10.78-2.85A54.91,54.91,0,0,0,308,683.9a43.85,43.85,0,0,0-14.42,2.49c-2.35,1-4.56,2.19-6.87,3.22a64.82,64.82,0,0,0-6.44,3.27,23.79,23.79,0,0,0-7.77,7.36,31.78,31.78,0,0,0-4.44,8.89.86.86,0,0,0-1.35,0,2.54,2.54,0,0,0-.27,1.47c0,1.73.05,3.45.1,5.18.22,6.76.49,13.52.75,20.29s0,13.42.11,20.13q.29,9.41.64,18.81c-.31-5-.72-10-1-15-.72-12.53-1.08-25.08-1.21-37.63,0-2.55-.06-5.1-.16-7.65a25.27,25.27,0,0,0-.82-6.66,31.75,31.75,0,0,0-3.17-5.91,31.21,31.21,0,0,0-7.27-8,35.66,35.66,0,0,0-10.05-5,68.83,68.83,0,0,0-10.79-2.85,54.73,54.73,0,0,0-11-1.42,43.65,43.65,0,0,0-14.43,2.49c-2.35.95-4.55,2.19-6.86,3.22a66.1,66.1,0,0,0-6.45,3.27,23.86,23.86,0,0,0-7.76,7.36,31.78,31.78,0,0,0-4.44,8.89.86.86,0,0,0-1.35,0,2.54,2.54,0,0,0-.27,1.47c0,1.72.05,3.45.1,5.18q.33,10.14.75,20.28c.35,6.71,0,13.43.11,20.14.61,20.41,1.56,40.82,2.16,61.24.06,3.68,0,7.36,0,11-.25-3.48-.41-6.95-.7-10.43-.47-4.3-1-8.6-1.08-12.93-.5-8.72.57-17.43.37-26.15-.26-7-.93-13.92-1.27-20.89-.71-12.53-1.07-25.07-1.2-37.62,0-2.55-.06-5.11-.17-7.66a25.24,25.24,0,0,0-.81-6.65,32.44,32.44,0,0,0-3.17-5.92,31.52,31.52,0,0,0-7.27-8,35.07,35.07,0,0,0-10.06-5A68.71,68.71,0,0,0,148,685.31a55.46,55.46,0,0,0-11-1.43,43.87,43.87,0,0,0-14.43,2.5c-2.35,1-4.56,2.19-6.86,3.22a65,65,0,0,0-6.45,3.27,23.66,23.66,0,0,0-7.76,7.36A31.46,31.46,0,0,0,97,709.11a.87.87,0,0,0-1.36,0,2.6,2.6,0,0,0-.27,1.46c0,1.73.06,3.46.1,5.19.22,6.76.49,13.52.75,20.28s0,13.42.12,20.13c.18,6.28.41,12.55.64,18.82-.31-5-.73-10-1-15.05-.72-12.53-1.07-25.07-1.2-37.62,0-2.55-.07-5.11-.17-7.66a25.24,25.24,0,0,0-.81-6.65,31.88,31.88,0,0,0-3.18-5.92,31.48,31.48,0,0,0-7.26-8,35.07,35.07,0,0,0-10.06-5,66.58,66.58,0,0,0-10.78-2.85,55.65,55.65,0,0,0-11-1.43,43.87,43.87,0,0,0-14.43,2.5c-2.35,1-4.56,2.19-6.87,3.22a62.74,62.74,0,0,0-6.44,3.27A23.79,23.79,0,0,0,16,701.16,31.43,31.43,0,0,0,11.56,710a.87.87,0,0,0-1.36,0,2.52,2.52,0,0,0-.27,1.46c0,1.73.06,3.46.1,5.19C10.25,723.43,10.52,730.19,10.78,737ZM268.39,783.6c.42,11.27.86,22.54,1.19,33.81.06,3.26,0,6.52,0,9.78-.16-2.43-.3-4.86-.5-7.28-.46-4.3-1-8.61-1.08-12.93C267.55,799.18,268.35,791.4,268.39,783.6Zm-171.1,0c.43,11.27.86,22.54,1.2,33.81.05,3.26,0,6.51,0,9.77-.15-2.42-.29-4.85-.49-7.28-.47-4.3-1-8.6-1.09-12.93C96.45,799.17,97.25,791.38,97.29,783.59Z"/><path d="M1163.29,667.89a23.41,23.41,0,0,1-.94-3.13v0c-.16-.61-.31-1.23-.44-1.85a1.38,1.38,0,0,1,.1-1.19.61.61,0,0,1,1,.62c.43,1.72,1.1,3.37,1.45,5.11A.64.64,0,0,1,1163.29,667.89Z"/><path d="M1184.49,688.77c-1.09-2.28-2-4.63-2.88-7a28.35,28.35,0,0,1-1-3.63,1.22,1.22,0,0,1,0-.63.46.46,0,0,1,.78-.15,1.62,1.62,0,0,1,.29.64,74.42,74.42,0,0,0,2.85,7.51,25.06,25.06,0,0,1,1,2.82.6.6,0,0,1-1.1.45Z"/><path d="M1086.43,689.05a.61.61,0,0,1-.47-.72,35.88,35.88,0,0,1,2.18-6,.77.77,0,0,1,1.08-.47c.34.22.3.67.44,1a.94.94,0,0,1,.06.55.45.45,0,0,1-.75.16c-.65,1.69-1.18,3.41-1.83,5.1A.62.62,0,0,1,1086.43,689.05Z"/><path d="M1085.65,712a.63.63,0,0,1-.48-.72,18.25,18.25,0,0,1,1.37-3.72c.53-1,1.57-3.9,2.86-3.76a.71.71,0,0,1,.57.52.49.49,0,0,1-.2.47,1,1,0,0,1-.3.11,3.78,3.78,0,0,0-.52.72,37.7,37.7,0,0,0-1.91,4.26c-.23.57-.47,1.14-.7,1.72A.61.61,0,0,1,1085.65,712Z"/><path d="M1136.77,705.39a40.69,40.69,0,0,1-.8-5.92,8.81,8.81,0,0,1,.15-3,.56.56,0,0,1,.92-.18,1,1,0,0,1,.14.71c0,2.76.51,5.5.67,8.25A.55.55,0,0,1,1136.77,705.39Z"/><path d="M1264.39,774a.78.78,0,0,1-.41.93.77.77,0,0,1-1-.37,110.94,110.94,0,0,0-9.49-15.94c-2.28-3.35-5.12-6.31-7.28-9.75-2.89-4.71-5.21-9.53-8-14.24a131.11,131.11,0,0,0-8.42-13.64c-1.82-2.46-3.71-4.88-5.32-7.49-3.14-5-5.72-10.43-9.27-15.22-4.3-5.74-8.92-11.26-13.09-17.1-2.46-3.53-4.34-7.42-6.9-10.89-3.71-5.09-8.15-9.62-11.7-14.83-2-3.14-4.06-6.28-6.17-9.37a1.88,1.88,0,0,1-.38-.13,4.23,4.23,0,0,0-1.06.27.75.75,0,0,1-.73.87,1,1,0,0,1-.93-.79c-.62.09-1.24.14-1.86.18-2,.14-4,.4-5.94.71-4.46.41-8.94.47-13.41.67a86.85,86.85,0,0,1-9.26.45c-10.42,0-20.85-1.06-31.27-.48-5.31.34-10.63.74-15.93.15-4.42-.29-8.85-.06-13.27-.13-1.85,0-3.71,0-5.56.2a1.12,1.12,0,0,1-1,.1c-2,2.71-4.27,5.26-6.16,8.07-2.69,4-4.76,8.33-7.52,12.25-3.64,5.24-7.89,10.24-11.13,15.72-4,6.45-7.46,13.24-11.19,19.87-2.06,3.6-4.81,6.73-7,10.23-2.63,4.1-4.62,8.56-6.91,12.85a142.8,142.8,0,0,1-9.27,14.36c-3.74,5.43-7,11.16-10.3,16.88-2.61,4.74-6.11,8.92-8.74,13.65a47.85,47.85,0,0,0-2.82,6.59.76.76,0,0,1-1,.64.85.85,0,0,1-.43-1.07,37.61,37.61,0,0,1,1.59-4.14c2-4.88,5.45-9,8.21-13.43,3.27-5.41,6.27-11,9.7-16.29,1.94-3.07,4.08-6,6.12-9a93.84,93.84,0,0,0,5.66-9.25c1.76-3.31,3.33-6.72,5.19-10,2.33-4.31,5.64-8,8.2-12.11,4.3-7.57,8.17-15.38,12.91-22.69,3.36-5.38,7.6-10.15,11-15.48,2.42-3.76,4.38-7.8,7-11.44,2.27-3.25,5-6.22,7.19-9.52,1.82-2.77,2.88-5.93,4.49-8.8a68.61,68.61,0,0,1,8.13-11.12c1.85-2.31,3.45-4.79,5.19-7.17s3.4-4.42,4.86-6.66c2.12-3.54,3.6-7.47,6.21-10.72,3.42-4.45,7.61-8.27,10.77-12.93,1.28-1.83,2.33-3.8,3.56-5.66s2.7-3.11,3.84-4.84c.39-.56.75-1.14,1.15-1.71a.84.84,0,0,1,1.15-.19.86.86,0,0,1,.25.29.81.81,0,0,1,.13-.67.71.71,0,0,1,1-.17,1.13,1.13,0,0,1,.31.38c.39.65.81,1.29,1.24,1.92,2.38,3.53,5,6.91,7.41,10.43s4.37,7.31,6.9,10.74c4,5.57,8.73,10.49,12.83,15.95,1.61,2.16,3,4.44,4.49,6.7,1.9,2.89,4,5.62,6,8.41,3.75,5.06,7.64,10,11.21,15.2,2.86,3.93,5.25,8.18,8.1,12.12,3.09,4.18,6.65,8,9.74,12.16,3.31,4.32,5.58,9.31,8.85,13.66,4.28,5.71,8.87,11.19,13,17,3,4.46,5.39,9.32,8.27,13.87,3.09,4.81,6.9,9.12,9.69,14.13,2.1,3.57,4.13,7.19,6.13,10.81s3.84,7.38,6.13,10.85c2.61,3.75,5.67,7.16,8.16,11A103.14,103.14,0,0,1,1264.39,774Z"/><path class="cls-1" d="M990.64,804.87c.29,5.47,0,11,.09,16.42.5,16.66,1.27,33.32,1.77,50,.15,9.1-.42,18.19-.16,27.29.5,16.49,1.4,191,2,207.54h279.9c0-6.17-.68-170.4-1-176.57a167.36,167.36,0,0,1-.26-18.06c-.06-10.18-.58-20.36-1.19-30.53-.24-3-.37-6.09-.62-9.14-.38-3.51-.79-7-.88-10.55-.41-7.12.46-14.23.3-21.35-.21-5.68-.76-11.35-1-17-.59-10.22-.88-20.46-1-30.7,0-2.08,0-4.17-.13-6.25a20.3,20.3,0,0,0-.67-5.43,29,29,0,0,0-8.52-11.34,28.74,28.74,0,0,0-8.2-4.08,55.61,55.61,0,0,0-8.8-2.32,44.93,44.93,0,0,0-9-1.17,35.57,35.57,0,0,0-11.77,2c-1.92.77-3.72,1.78-5.61,2.63a52.88,52.88,0,0,0-5.26,2.66,19.46,19.46,0,0,0-6.33,6,25.52,25.52,0,0,0-3.62,7.25.71.71,0,0,0-1.11,0,2.12,2.12,0,0,0-.22,1.2c0,1.41,0,2.82.08,4.23.18,5.51.4,11,.61,16.55s0,11,.1,16.43q.23,7.68.52,15.35c-.25-4.09-.59-8.18-.79-12.28-.58-10.22-.87-20.46-1-30.7,0-2.08,0-4.17-.14-6.25a20.66,20.66,0,0,0-.66-5.43,26.14,26.14,0,0,0-2.59-4.83,25.49,25.49,0,0,0-5.93-6.51,28.66,28.66,0,0,0-8.21-4.08,56.15,56.15,0,0,0-8.8-2.33,45.46,45.46,0,0,0-9-1.16,35.67,35.67,0,0,0-11.78,2c-1.92.77-3.72,1.78-5.6,2.63a50.81,50.81,0,0,0-5.26,2.66,19.4,19.4,0,0,0-6.34,6,25.92,25.92,0,0,0-3.62,7.25.7.7,0,0,0-1.1,0,2,2,0,0,0-.22,1.19c0,1.41,0,2.82.08,4.23q.27,8.28.61,16.56c.29,5.47,0,11,.09,16.42.5,16.67,1.27,33.32,1.77,50,.05,3,0,6,0,9-.21-2.83-.34-5.67-.58-8.5-.38-3.51-.79-7-.88-10.55-.41-7.12.46-14.23.3-21.35-.21-5.68-.76-11.35-1-17-.59-10.22-.88-20.46-1-30.7,0-2.08-.05-4.17-.13-6.25a20.25,20.25,0,0,0-.67-5.43,29,29,0,0,0-8.51-11.34,28.92,28.92,0,0,0-8.21-4.08,55.61,55.61,0,0,0-8.8-2.32,44.84,44.84,0,0,0-9-1.17,35.62,35.62,0,0,0-11.77,2c-1.92.77-3.72,1.78-5.6,2.63a53,53,0,0,0-5.27,2.66,19.46,19.46,0,0,0-6.33,6,25.39,25.39,0,0,0-3.62,7.25.71.71,0,0,0-1.11,0,2.1,2.1,0,0,0-.22,1.19c0,1.41,0,2.82.08,4.24.18,5.51.4,11,.61,16.55s0,10.95.1,16.43q.22,7.66.52,15.35c-.25-4.09-.59-8.18-.79-12.28-.58-10.22-.87-20.46-1-30.7,0-2.08,0-4.17-.14-6.25a20.25,20.25,0,0,0-.66-5.43,26.14,26.14,0,0,0-2.59-4.83,25.49,25.49,0,0,0-5.93-6.51,28.66,28.66,0,0,0-8.21-4.08,55.24,55.24,0,0,0-8.79-2.33,44.92,44.92,0,0,0-9-1.16,35.67,35.67,0,0,0-11.78,2c-1.92.77-3.72,1.78-5.6,2.63a50.81,50.81,0,0,0-5.26,2.66,19.5,19.5,0,0,0-6.34,6,25.92,25.92,0,0,0-3.62,7.25.7.7,0,0,0-1.1,0,2,2,0,0,0-.22,1.19c0,1.41,0,2.82.08,4.23C990.21,793.83,990.43,799.35,990.64,804.87Zm210.21,38.07c.35,9.19.71,18.38,1,27.58.05,2.66,0,5.32,0,8-.13-2-.24-4-.41-5.94-.38-3.51-.78-7-.88-10.55C1200.17,855.65,1200.82,849.29,1200.85,842.94Zm-139.62,0c.35,9.19.71,18.38,1,27.58,0,2.66,0,5.32,0,8-.13-2-.24-4-.41-5.94-.37-3.51-.78-7-.88-10.55C1060.55,855.64,1061.2,849.28,1061.23,842.93Z"/><path d="M702,481.15a53.44,53.44,0,0,1-2.07-6.93v0l0,.06c-.36-1.36-.69-2.73-1-4.11a3,3,0,0,1,.22-2.62,1.35,1.35,0,0,1,2.24,1.35c.94,3.82,2.43,7.47,3.21,11.32A1.42,1.42,0,0,1,702,481.15Z"/><path d="M749,527.43c-2.43-5.07-4.45-10.27-6.38-15.53a61.1,61.1,0,0,1-2.28-8.06,2.66,2.66,0,0,1,.07-1.4,1,1,0,0,1,1.73-.33,3.66,3.66,0,0,1,.65,1.43,170.57,170.57,0,0,0,6.31,16.64,55.71,55.71,0,0,1,2.33,6.24,1.32,1.32,0,0,1-2.43,1Z"/><path d="M531.63,528.05a1.38,1.38,0,0,1-1.06-1.61,79.89,79.89,0,0,1,4.83-13.34,1.72,1.72,0,0,1,2.41-1.06c.74.49.67,1.5,1,2.25a2,2,0,0,1,.12,1.2,1,1,0,0,1-1.66.37c-1.43,3.73-2.62,7.56-4,11.3A1.37,1.37,0,0,1,531.63,528.05Z"/><path d="M529.88,578.82a1.35,1.35,0,0,1-1-1.59,40.65,40.65,0,0,1,3-8.26c1.2-2.16,3.5-8.64,6.36-8.32a1.56,1.56,0,0,1,1.25,1.15,1,1,0,0,1-.43,1,1.75,1.75,0,0,1-.66.24,7.32,7.32,0,0,0-1.16,1.61,87.55,87.55,0,0,0-4.24,9.44c-.52,1.27-1.05,2.54-1.55,3.82A1.36,1.36,0,0,1,529.88,578.82Z"/><path d="M643.18,564.27a93.71,93.71,0,0,1-1.77-13.13c0-2.19-.38-4.51.34-6.62a1.23,1.23,0,0,1,2-.42,2.16,2.16,0,0,1,.32,1.59c.07,6.12,1.13,12.18,1.49,18.28A1.21,1.21,0,0,1,643.18,564.27Z"/><path d="M926,716.23a1.71,1.71,0,0,1-3.18,1.24,243.24,243.24,0,0,0-21-35.32c-5.07-7.44-11.35-14-16.15-21.63-6.4-10.43-11.53-21.11-17.64-31.56-5.84-10.21-11.61-20.81-18.65-30.21-4-5.45-8.23-10.82-11.79-16.61-7-11.17-12.68-23.12-20.55-33.72-9.53-12.74-19.77-24.95-29-37.91-5.46-7.81-9.64-16.45-15.3-24.13-8.23-11.29-18.06-21.32-25.94-32.87-4.49-7-9-13.92-13.67-20.77a4.87,4.87,0,0,1-.84-.27,8.64,8.64,0,0,0-2.35.6,1.65,1.65,0,0,1-1.62,1.92,2.32,2.32,0,0,1-2.06-1.75c-1.36.19-2.74.31-4.12.4-4.42.3-8.8.88-13.17,1.57-9.88.91-19.82,1-29.72,1.48-6.83.37-13.65,1.37-20.51,1-23.1.05-46.22-2.34-69.32-1.06-11.75.76-23.54,1.66-35.29.35-9.79-.66-19.61-.15-29.41-.31-4.11.06-8.23,0-12.32.46a2.49,2.49,0,0,1-2.29.22c-4.48,6-9.47,11.64-13.66,17.88-6,8.79-10.54,18.45-16.66,27.15-8.07,11.61-17.49,22.7-24.66,34.85-8.95,14.28-16.54,29.34-24.79,44-4.58,8-10.68,14.93-15.61,22.68-5.83,9.09-10.24,19-15.31,28.48-5.91,11.19-13.37,21.43-20.55,31.82-8.3,12-15.57,24.73-22.84,37.41-5.77,10.51-13.54,19.77-19.36,30.25a105.88,105.88,0,0,0-6.25,14.62,1.66,1.66,0,0,1-2.21,1.4,1.86,1.86,0,0,1-1-2.37,84,84,0,0,1,3.51-9.17c4.53-10.81,12.08-19.87,18.2-29.77,7.26-12,13.9-24.32,21.49-36.1,4.31-6.81,9-13.33,13.57-20A208.31,208.31,0,0,0,396.59,610c3.89-7.34,7.37-14.89,11.51-22.09,5.16-9.55,12.49-17.64,18.17-26.85,9.52-16.76,18.1-34.08,28.6-50.28,7.44-11.93,16.84-22.49,24.44-34.31,5.37-8.32,9.71-17.29,15.49-25.35,5-7.19,11.11-13.79,15.91-21.1,4-6.13,6.39-13.14,10-19.5,4.86-9,11.51-16.83,18-24.65,4.08-5.12,7.64-10.62,11.5-15.9,3.62-5,7.52-9.77,10.76-14.75,4.7-7.85,8-16.56,13.77-23.75,7.58-9.87,16.86-18.33,23.87-28.66,2.82-4.06,5.15-8.43,7.88-12.55,2.48-3.86,6-6.89,8.5-10.72.87-1.25,1.69-2.54,2.56-3.78a1.84,1.84,0,0,1,2.55-.43,1.68,1.68,0,0,1,.55.64,1.82,1.82,0,0,1,.29-1.49,1.58,1.58,0,0,1,2.2-.37,3,3,0,0,1,.7.85c.85,1.44,1.77,2.85,2.73,4.24,5.29,7.84,11.08,15.32,16.43,23.12s9.69,16.2,15.28,23.8c8.79,12.34,19.36,23.26,28.45,35.35,3.57,4.78,6.74,9.84,9.95,14.86,4.2,6.4,8.9,12.45,13.39,18.64,8.29,11.21,16.91,22.18,24.82,33.67,6.36,8.71,11.64,18.14,18,26.87,6.85,9.26,14.74,17.69,21.59,26.94C781.76,492,786.8,503.1,794,512.74c9.49,12.65,19.66,24.8,28.83,37.69,6.72,9.88,12,20.66,18.35,30.75,6.83,10.66,15.28,20.21,21.45,31.3,4.66,7.92,9.15,15.94,13.6,24s8.51,16.34,13.59,24c5.77,8.31,12.55,15.87,18.08,24.37A230,230,0,0,1,926,716.23Z"/><path class="cls-1" d="M319.33,784.72c.64,12.13-.07,24.27.21,36.41,1.09,36.92,2.81,73.83,3.9,110.76.34,20.16-.92,40.31-.34,60.47,1.14,37.93,3.24,75.83,4.59,113.74H947.9c0-.26,0-.52,0-.78.12-14.8-1.46-29.54-2.35-44.31-1.28-13.3-.72-26.69-.57-40-.13-22.57-1.28-45.13-2.64-67.66-.52-6.74-.81-13.51-1.37-20.25-.85-7.78-1.75-15.56-2-23.39-.9-15.78,1-31.53.68-47.31-.48-12.6-1.69-25.16-2.3-37.76-1.3-22.66-1.94-45.35-2.18-68.05-.06-4.61-.11-9.23-.3-13.84-.24-4-.16-8.17-1.47-12s-3.61-7.26-5.74-10.69a56.41,56.41,0,0,0-13.14-14.44c-5.39-4.12-11.75-6.83-18.19-9a122,122,0,0,0-19.5-5.15c-6.57-1.33-13.22-2.6-20-2.58-8.86.23-17.81,1.37-26.1,4.51-4.25,1.72-8.24,4-12.41,5.83A114.8,114.8,0,0,0,806.73,705a43,43,0,0,0-14,13.31,57.22,57.22,0,0,0-8,16.07,1.55,1.55,0,0,0-2.45,0,4.66,4.66,0,0,0-.49,2.64c0,3.13.1,6.25.18,9.38.4,12.23.88,24.46,1.36,36.68.64,12.13-.07,24.28.21,36.41q.51,17,1.15,33.91c-.57-9-1.31-18-1.74-27.09-1.3-22.66-1.94-45.35-2.18-68-.06-4.61-.12-9.23-.3-13.84-.24-4-.16-8.17-1.47-12s-3.61-7.25-5.74-10.69a56.41,56.41,0,0,0-13.14-14.44c-5.39-4.12-11.75-6.83-18.19-9.05a122.24,122.24,0,0,0-19.5-5.15c-6.57-1.33-13.23-2.6-20-2.58-8.86.23-17.81,1.37-26.09,4.51-4.25,1.72-8.24,4-12.42,5.83a115.7,115.7,0,0,0-11.65,5.91A43.12,43.12,0,0,0,638.18,720a57.19,57.19,0,0,0-8,16.07,1.55,1.55,0,0,0-2.45,0,4.68,4.68,0,0,0-.49,2.65c0,3.12.1,6.24.18,9.37.4,12.23.88,24.46,1.35,36.68.65,12.14-.06,24.28.22,36.41,1.09,36.93,2.81,73.83,3.9,110.76.11,6.68,0,13.35-.06,20-.46-6.3-.76-12.6-1.28-18.9-.84-7.78-1.75-15.56-2-23.38-.9-15.78,1-31.54.68-47.31-.48-12.61-1.69-25.17-2.29-37.77-1.3-22.66-2-45.35-2.18-68-.07-4.62-.12-9.23-.31-13.85-.23-4-.15-8.16-1.47-12s-3.6-7.25-5.73-10.69a56.8,56.8,0,0,0-13.15-14.44c-5.39-4.11-11.75-6.83-18.18-9a123.56,123.56,0,0,0-19.5-5.14c-6.58-1.33-13.23-2.61-20-2.58-8.86.23-17.81,1.37-26.1,4.51-4.25,1.71-8.23,4-12.41,5.83A112.78,112.78,0,0,0,497.3,705a43,43,0,0,0-14,13.3,57.19,57.19,0,0,0-8,16.07,1.57,1.57,0,0,0-2.46,0,4.71,4.71,0,0,0-.49,2.65c0,3.13.11,6.25.19,9.38.39,12.23.88,24.45,1.35,36.68.64,12.13-.07,24.27.21,36.41q.51,16.95,1.15,33.91c-.56-9-1.31-18.06-1.74-27.1-1.3-22.66-1.94-45.35-2.18-68-.06-4.62-.11-9.23-.3-13.84-.24-4-.16-8.17-1.47-12s-3.61-7.25-5.74-10.69a56.57,56.57,0,0,0-13.14-14.44c-5.39-4.11-11.75-6.82-18.19-9.05a123,123,0,0,0-19.5-5.14c-6.57-1.33-13.22-2.61-20-2.58-8.86.23-17.81,1.37-26.09,4.51-4.25,1.71-8.24,4-12.41,5.83a112.78,112.78,0,0,0-11.66,5.91,43,43,0,0,0-14,13.3,57,57,0,0,0-8,16.07,1.56,1.56,0,0,0-2.45,0,4.71,4.71,0,0,0-.49,2.65c0,3.13.1,6.25.18,9.38C318.37,760.27,318.85,772.49,319.33,784.72Zm465.88,84.45c.77,20.35,1.56,40.7,2.17,61.06.1,5.91.06,11.82,0,17.73-.28-4.4-.53-8.81-.9-13.21-.84-7.78-1.74-15.56-2-23.39C783.69,897.29,785.13,883.23,785.21,869.17Zm-309.43,0c.77,20.36,1.57,40.71,2.17,61.07.1,5.91.06,11.82,0,17.73-.28-4.41-.53-8.81-.9-13.22-.84-7.78-1.74-15.56-1.95-23.38C474.26,897.26,475.71,883.21,475.78,869.14Z"/><path class="cls-1" d="M635.89,55.19a22.7,22.7,0,0,0-.56-2.7,30.65,30.65,0,0,1-4.39-.08,35.12,35.12,0,0,0-4.1-.09c-2.68.24-5.34.73-8,.86-6.92.46-13.85.58-20.79.6-3.38.18-6.76.33-10.15.29h-1.1c-2.27,0-5.15,0-5.23-2.78-.42-1.78-.8-3.48-1.11-5.26-.12-1-.41-2.17.22-3.07a1.33,1.33,0,0,1,.36-.35c.83-.76,2.44-.78,3.66-.87l.56-.07a4.3,4.3,0,0,1,2.35-.91c2.11-.43,4.25-.8,6.37-1.15a128.65,128.65,0,0,1,17.48-2.08c7.48-1,14.9-2.49,22.47-2.68l0-.34a2.66,2.66,0,0,1,.82-1.86c.82-1.66,4.07-1.59,5.85-1.92,8.13-.69,16.2-2,24.36-2.15,3.12-.32,6.52-1.13,9.55-1.43,2.48-.28,5.29-.25,7.69-.51a76.14,76.14,0,0,1,10.35-.46c1.69-.11,3.37-.21,5.06-.35,3.3-.27,6.17-1.4,9.46-1.46,2.13-.2,4.66-.16,6.69-.22a4.67,4.67,0,0,0,1-.1,2.5,2.5,0,0,1,2,.25c.83.71.86,1.84,1,2.92a1.47,1.47,0,0,1,.57,1.08,1.4,1.4,0,0,1-.29.91c.41,3.25.56,6.19.69,9.43,0,3.85.65,7.69.48,11.51a2,2,0,0,1-2.67,1.31,1.71,1.71,0,0,1-1.14,0,1.37,1.37,0,0,1-.76.81,5.46,5.46,0,0,1-2.31.3c-.32,0-.64,0-1,0a81.58,81.58,0,0,0-8.67.87c-5,.48-9.58,1-14.48,1.46-2.66.21-5.33.17-8,.4s-5.33.84-8,1c-5.26.37-10.56,0-15.81.52-2,.19-4,.25-6.05.27l0-.14c-.2-.72-.39-1.43-.57-2.16,0-.15,0-.3,0-.45,0-.42,0-.84,0-1.26a15.4,15.4,0,0,0-.06-1.92,11.08,11.08,0,0,0-.66-2.77A10.47,10.47,0,0,0,647.76,46a9.62,9.62,0,0,0-.88-1,2.24,2.24,0,0,0-.38-.31,1,1,0,0,0,0-.14c0-.19-.08-.38-.13-.57s-.15-.67-.23-1-.14-.7-.21-1a.46.46,0,0,0-.54-.36A.46.46,0,0,0,645,42h0a.45.45,0,0,0-.19,0l-.1-.13-.17-.21v-.11a8.73,8.73,0,0,0-.16-1.35.44.44,0,0,0-.85-.06,1,1,0,0,0-.08.3,2.47,2.47,0,0,0,0,.39c0,.23,0,.46,0,.68l-.14.19a1.62,1.62,0,0,0-.17.41,3.72,3.72,0,0,0-.08.57c0,.09,0,.18,0,.27s0,.24-.07.35a13,13,0,0,0-.12,1.4c0,.51,0,1,0,1.53a15.41,15.41,0,0,0,.1,2.15c.09.63.2,1.26.34,1.88,0,.25.11.51.16.76s0,.2.07.3h0a.14.14,0,0,1,0,.06c.13.46.25.92.37,1.37h0c.08.29.18.57.27.86a11.91,11.91,0,0,0,.43,1.13c0,.12.07.25.1.37a2.64,2.64,0,0,0,.14.48,1.49,1.49,0,0,0,.28.38.51.51,0,0,0,.4.17h.09c.08.33.15.66.24,1-2.06,0-4.12,0-6.18.12l-.51,0C637.7,57.2,636,56.86,635.89,55.19Z"/><path class="cls-2" d="M643.86,52.68h0a.25.25,0,0,1,0,.07S643.86,52.7,643.86,52.68Z"/><path class="cls-2" d="M648.7,50.14l-.21-.84c0,.08,0,.16.07.24.06.24.12.48.17.72Z"/><path class="cls-1" d="M719.88,54.86c-3.48-1.11-4.39-4.65-4.47-7.93a1.24,1.24,0,0,1,2.42-.5c.7,1.81,1.26,4.65,3.43,5.12.83-4.75.24-9.53-.14-14.29-.31-2.82.32-13.58-2.23-14.73h0a10.1,10.1,0,0,0-1.12,4.72c.55,1.18-1.06,2.24-2.08,1.59a2.13,2.13,0,0,1-.73-2.26c.13-2.19.11-4.72,1.67-6.43,2.34-2.35,5.88.1,6.6,2.77,1.3,4.8,1,10.22,1.25,15.08a59.25,59.25,0,0,1,.12,13A3.66,3.66,0,0,1,719.88,54.86Z"/><path class="cls-1" d="M580.31,54.34c-2.53-.94-2.5-4.35-2.85-6.62-.12-2.28-.56-5.9,1.86-7.12,1.94-.68,4.62,2.92,3,4.41a1.2,1.2,0,0,1-1.83-.48,3.45,3.45,0,0,0-.35-.87,15.42,15.42,0,0,0,.83,7.82,4.5,4.5,0,0,0,.63.6A1.36,1.36,0,0,1,580.31,54.34Z"/><path class="cls-1" d="M449.87,270.42l-.4.08a34.54,34.54,0,0,1-5.38.42,1.11,1.11,0,0,1-.37,0c-.7,9.32-1.66,18.54-1.6,27.9.23,4.53-1.24,16.66,4.5,17.82a4.59,4.59,0,0,0,1.16.13,5.57,5.57,0,0,0,1-2.63,94,94,0,0,0,.74-12.1c.09-5.61.2-11.21-.18-16.81C449.19,280.27,449.74,275.34,449.87,270.42Zm2.37-5.77c1.76-1.11,2.85.91,2.53,2.51a36.07,36.07,0,0,0-.21,5.2c.13,4.08.27,8.15,0,12.23-.37,9.74,0,19.52-1.15,29.21-.33,2.43.08,5.69-2.21,7.25-3.31,1.47-7,1.46-10.59,1.67-2.14.15-4.27.36-6.41.43-3.51.44-7,1.14-10.54,1.28a3.57,3.57,0,0,1-2.46-.4,2.62,2.62,0,0,1-.92-2.12c-.19-1.18-.36-2.37-.46-3.57-.46-6.73,1.25-13.29,2.83-19.77a116.61,116.61,0,0,0,1.08-16.17,123.65,123.65,0,0,1,1.64-12.85c-.2-.39,0-.79.13-1.18a1.34,1.34,0,0,1,.52-1,1.32,1.32,0,0,1,1.25-.2,1.93,1.93,0,0,1,1.53-.9,63.7,63.7,0,0,1,13.33-1.5c1.09-.06,2.23.12,2.3,1.45a1.42,1.42,0,0,1-.34.91,1.72,1.72,0,0,1,0,.64,30.78,30.78,0,0,1,3.72-.17c.68,0,1.37-.17,2.06-.2v-.16a1.82,1.82,0,0,1,2-2.25A2.65,2.65,0,0,1,452.24,264.65Z"/><path class="cls-1" d="M396.17,269.94c1.3-.1,1.94,1.22,1.85,2.37-.31,4.59-.84,9.18-1,13.79-.22,3.67-.74,7.33-.76,11-.14,8.08.5,16.34-1.85,24.18-.43,1.34-.85,2.67-1.33,4a1.58,1.58,0,0,1-.74.83c-.87,1.06-3.29.66-4.55,1.08a22,22,0,0,1-6.47,1.17c-2.72.16-3.11-1.29-3.49-3.6-.56-2.74-1-5.5-1.42-8.26-.94-5.46-.91-11-1.43-16.42-.28-5.52.27-11,.42-16.56a50.23,50.23,0,0,1,.8-8.57,7.37,7.37,0,0,1,1-3.1,1.21,1.21,0,0,1,.69-.39c1.2-.53,2.62-.35,3.91-.53,2-.15,3.95-.4,5.92-.59C390.53,270,393.36,269.35,396.17,269.94Z"/><path d="M566.47,48.15c-3.22.47-4.07-4.11-2.37-6.15-3.53-2.26-5.18.38-4.94,3.84.18,2.78,1.67,3.93,4.41,3.78C564.63,49.5,566.07,49.31,566.47,48.15Zm2.6-4.36c1.1,5-1.66,8.76-7,8.2-6.56-.1-7.7-10.19-2.73-13.29,2-1.12,4.39-.52,6.21.62C567.05,40.2,569.52,41.82,569.07,43.79Z"/><path d="M568.11,31a1.55,1.55,0,0,1,.16,2.88c-.74.86-1.92.34-2.76-.11-.87-.09-1.86-.18-2.54-.22a25.92,25.92,0,0,0-3.94,0c-1.71.56-3.33,2-5.21,1.8a1.33,1.33,0,0,1-1-1.09c-.23-1.12.91-1.75,1.7-2.25,1.66-1.19,3.34-2.45,5.43-2.72C562.82,28.69,565.56,29.9,568.11,31Z"/><path d="M560,68.4a1.09,1.09,0,0,1,2,.83c-.4,1.31-1.54,2.91-3.1,2.41s-2.4-1.78-3-3.1c-.29-.8-1-1.86-.18-2.59a1.18,1.18,0,0,1,1.85.24,6.55,6.55,0,0,0,1.81,3.43A9.58,9.58,0,0,0,560,68.4Z"/><path d="M558.46,56.84c.07.91-.1,2.32-1.32,2.17-1.52-.3-.79-2.09-.55-3.1a.89.89,0,0,1,.89-.86C558.43,55.06,558.39,56.14,558.46,56.84Z"/><path d="M560.49,55.42c1.49-.74,2.07,1.29,1.78,2.42a1.14,1.14,0,0,1-2.25,0C560.06,57,559.68,55.93,560.49,55.42Z"/><path d="M566.27,56.26c.45.57.21,1.34.15,2a1.17,1.17,0,0,1-2.32-.16,2.39,2.39,0,0,1,.84-2.06A1,1,0,0,1,566.27,56.26Z"/><path d="M554,103.25c.78-.41,2,.11,1.69,1.09a15.88,15.88,0,0,0-1.16,3.53,1.26,1.26,0,0,1-2.46-.5C552.26,105.91,552.5,104,554,103.25Z"/><path d="M502,110.3a1.2,1.2,0,0,1-2.13,1.07c-1.14-1.84-1.65-4-2.55-6a1.16,1.16,0,0,1,1.11-1.85c.71.11,1.1.8,1.37,1.38C500.61,106.68,501.32,108.48,502,110.3Z"/><path d="M584.68,150.33c.1,1.57.71,5.67-1.87,5.23-1.39-.86-.7-3.81-.6-5.23A1.25,1.25,0,0,1,584.68,150.33Z"/><path d="M477.66,165.71c0,1,.3,2.27-.45,3.13-.44.83-1.93.86-2-.25a.84.84,0,0,1,.12-.45c-.58-2.17-.45-4.46-.72-6.68,0-1.25-.76-3.49,1-3.86a1.24,1.24,0,0,1,1.36.89A62.34,62.34,0,0,1,477.66,165.71Z"/><path d="M470.27,162.28a1.12,1.12,0,0,1-1.91,1.12c-1.71-2.38-5.05-6.49-4.65-9.49.29-1.42,2.41-1.63,2.55,0a3.27,3.27,0,0,0,.49,1.84C467.9,157.92,469.4,159.94,470.27,162.28Z"/><path d="M468.57,171.07c.12,1.28-1.5,1.34-2.39,1.61-1.21.18-3.2,1.16-3.75-.49-.38-1.83,2-1.82,3.22-2.06C466.63,170,468.31,169.79,468.57,171.07Z"/><path d="M434,220.89c1.46.65.43,2.26-.78,2.45a45.94,45.94,0,0,0-4.34,2,1.34,1.34,0,0,1-1.68-.55,1.35,1.35,0,0,1,.48-1.84,33.65,33.65,0,0,1,4.83-2.05,2.15,2.15,0,0,1,1.54,0Z"/><path d="M432.27,231.24a.93.93,0,0,1-1.68.64,24.78,24.78,0,0,0-3.6,3.78c-.93.87-2.15,3.13-3.59,1.92-1.16-1.38,1-2.79,1.72-3.88,1.36-1.43,4.63-5.82,6.78-4.09C432.36,230,432.26,230.68,432.27,231.24Z"/><path d="M596.45,148.19c.13.78-.35,1.62-1.22,1.3-.82,1.33-2.69,6.39-4.69,5.26-1.48-1,.05-2.71.61-3.81,1-1.29,2.62-5.87,4.55-5.11C596.73,146.22,596.41,147.34,596.45,148.19Z"/><path d="M675.41,132.36a1,1,0,0,1,.91,1.59c0,1.41.11,5.55-2,5.32-1.82-.42-1-2.84-.81-4.14a5,5,0,0,1,.8-2.28A2.39,2.39,0,0,1,675.41,132.36Z"/><path d="M683.1,137.77a1.3,1.3,0,0,1-.94,1.42,1.32,1.32,0,0,1-1.53-.74,32.6,32.6,0,0,1-1.17-3.54c-.35-1.21-1.27-3.16.34-3.84a.91.91,0,0,1,1.55.9C681.9,133.91,682.69,135.79,683.1,137.77Z"/><path d="M688.3,128.9a1.18,1.18,0,1,1-1.18,1.18A1.19,1.19,0,0,1,688.3,128.9Z"/><path d="M489.89,196.92a1.32,1.32,0,0,1,2.41,1c-1.61,3.57-3.81,6.86-5,10.62a35.41,35.41,0,0,1-8.21,10.72h0a1.08,1.08,0,0,1-.73,0c-2.15-.93.3-3,1.14-4a57.5,57.5,0,0,0,3.94-4.85c1.21-1.83,1.8-4,2.73-5.93C487.4,202,488.89,199.59,489.89,196.92Z"/><path d="M572.48,215.36a1.28,1.28,0,0,1-2.27,1.15c-1.36-3.2-2.3-6.58-4.17-9.54-1.71-2.67-2.49-6-3.9-8.72-1-2-3-4.25-2-6.63.7-1.43,2.73-.73,2.13.84,0,2.43,2.11,4.26,2.86,6.49.75,1.64,1.38,3.64,2.14,5.18C569.34,207.73,570.78,211.61,572.48,215.36Z"/><path d="M417.66,335.22c2.74,3.72,2.31-1.78,2.2-3.55,0-5.57-1.12-10.89-1.85-16.37l0-.31c-6-.83-12,.33-18,.18-1.08-.08-2.13,0-3.07,0a1.52,1.52,0,0,1,.44,1.32c-.29,1.5-.74,3-1,4.48-.7,2.48-1.31,5-1.83,7.52-.52,2.25-1.38,4.63-.55,6.92.25.59.62,1.46,1.33,1.54,2.27-1.06,2.31-4.26,2.7-6.43a1.4,1.4,0,0,1,2.46-.76c1.23,2.3,1.45,5.06,2.67,7.38,1.05-2.25,1.08-4.74,1.29-7.15a1.32,1.32,0,0,1,2.58.5c.37,2.37.59,5,2.14,6.94a1.67,1.67,0,0,0,2.9-1.2c.3-1.67.57-3.35.79-5,.11-.84.14-1.92,1.06-2.28a1.32,1.32,0,0,1,1.53.41C416.38,331.16,416.41,333.46,417.66,335.22Zm84.66,169-.21-1.47a27.61,27.61,0,0,1-.94-3.79c-3.05.95-6.32,1.18-9.36,2.27l-.88.41a1,1,0,0,1-.1,1.47,38.71,38.71,0,0,1,.41,6.88.94.94,0,0,1,1.38.46c3.1-1.55,5.43-4.23,8.55-5.69C501.55,504.54,501.93,504.34,502.32,504.17Zm.69,4.71c-.12-.67-.23-1.34-.33-2a29.35,29.35,0,0,0-4.83,3.09c-1.82,1.19-4.91,4.45-7.24,3.28l-.15.14-1,1.11a.9.9,0,0,1,.6,1,1.41,1.41,0,0,1-1,2.62,4,4,0,0,1-1.8-1.14c-.49.55-1,1.11-1.45,1.67a6.9,6.9,0,0,1,1,.39,5.36,5.36,0,0,1,1.74,1.16,1.16,1.16,0,0,1-1,2,11.24,11.24,0,0,1-3.18-1.21h0a1.24,1.24,0,0,1-.26-.25c-.31.4-.62.8-.92,1.21a1.82,1.82,0,0,1,.47,1.46,7.78,7.78,0,0,1,.74.47,1.27,1.27,0,0,1-1.11,2.22,10.59,10.59,0,0,1-2.16-.74,1.29,1.29,0,0,1-.17-.16c-.39.65-.78,1.3-1.14,2a50,50,0,0,0-4.52,13.45h0c6.13-4.85,10.74-11.17,15.49-17.26C494.51,518.1,498.11,513,503,508.88Zm1.53,3c-.2.18-.42.35-.63.53a53.49,53.49,0,0,0-5.78,6.34c-4.05,5.49-8.22,10.93-12.75,16-2.07,1.81-6.24,7.29-9.46,8.64a1.64,1.64,0,0,0,.05.45,1.13,1.13,0,0,0,.91.91c1.36.35,2.47-1,3.48-1.72a74.19,74.19,0,0,0,9.74-11.34c2.95-3.93,6.51-7.74,9.17-11.8C500.9,517.21,503.48,514.93,504.54,511.91Zm25.31-375.44,1,.48a37.49,37.49,0,0,0-3.13-4.17c-1.81-2-3.66-3.94-5.3-6.07-2.37-2.77-3.9-6.11-6.23-8.88-3.55-3.88-7.14-8.47-8.84-13.47.12-1.68,2.14-1.67,2.76-.26.59.94,1.13,1.91,1.69,2.87.24-1.25.62-2.7.83-3.82.27-1.49.54-3,.79-4.48-1.19,0-2.73-.51-3.72-.48-3.41-.52-6.77-1.62-10.25-1.59-2,0-3.46,1.62-4.54,3.14a7.1,7.1,0,0,1-2.62,3.06c-1.83,1.06-4.17,1.44-5.58,3.11A6.44,6.44,0,0,0,486,109a46.54,46.54,0,0,0,.09,6.36,1.16,1.16,0,0,1,.14.47,24.07,24.07,0,0,1,2.69-1.84,1,1,0,0,1-.36-.55,1.16,1.16,0,0,1,1-1.45h0c5.72.41,9.89,5.14,14.5,8.08a41,41,0,0,1,5.37,3.57c.94.81,1.81,1.69,2.81,2.41,2.21,1.35,4.58,2.44,6.75,3.87a35.81,35.81,0,0,1,6.08,4.21A41,41,0,0,0,529.85,136.47ZM565.71,113h0c-.22-1.8-1.69-3.16-2.39-4.79-1.32-2.73-2.48-5.86-4.58-8.06-.62-.88-1.73-.73-2.65-.53-2,.41-3.92,1-5.86,1.55l-.4.12c-.4,3.48-.72,7-.93,10.45,1-1.77,3.65-.87,2.76,1.22a45.3,45.3,0,0,0-3.58,5.27c-1.79,4.3-5,7.71-7.73,11.38-1.38,2.12-2.66,4.32-4.14,6.39l1-.67c4.89-3.16,9.11-7.2,13.85-10.55,2.35-1.63,5-2.89,7.16-4.75,1.41-1.31,2.66-2.78,4.16-4A22.2,22.2,0,0,0,565.71,113Zm3.62-91.08c-.18-.31-.36-.62-.57-.95-2.2-3.24-6.38-4.79-9.34-7.1-4.57-2.72-10.1-3.07-15.3-2.82a25.74,25.74,0,0,0-9.61,2.25,46.39,46.39,0,0,0-15.64,7.91,25,25,0,0,0-6.46,6.09l-.08.13A8.23,8.23,0,0,1,517.21,32c.42,1.16,1.12,2.77-.26,3.55-2.12,1-4.69.22-6.84,1.17a6.24,6.24,0,0,1-2,1c-.1.33-.18.66-.25,1s-.14.65-.19,1c.9-.36,1.8-.63,2.3-.88,3.9-1.54,8.07-2.08,12-3.34,3.85-1.42,8-2.68,11.89-3.78a22.57,22.57,0,0,1,6.43-1.56c.88,0,2.23-.34,3,.2,3-.72,5.87-2.11,8.89-2.95a52.81,52.81,0,0,0,8.54-2.66C563.58,23.76,566.47,22.88,569.33,21.89Zm6.5,419.79c.07-.56.14-1.12.23-1.68-.87.06-1.73.11-2.59.18-2.28.19-4.57.34-6.86.35a1.23,1.23,0,0,1-.73,1.26,50.61,50.61,0,0,0-.7,5.3,99.66,99.66,0,0,0,10.31-2.73l.25,0A8.62,8.62,0,0,1,575.83,441.68Zm4.3-383c1.48.12,1.63-1.14,1.21-2.27A6.79,6.79,0,0,0,579,54.68c-4.1-2-6-6.3-6.07-10.7a77.93,77.93,0,0,1-1.06-10.78,25.11,25.11,0,0,0-1.33-6.36,16.61,16.61,0,0,0-.74-2c-2.36.93-4.92,1.42-7.34,2.14-3.59,1.75-7.51,2.52-11.31,3.63-1.93.6-3.84,1.62-5.83,2.11a4.88,4.88,0,0,1-1.59,3c.65,2.9-.49,7.11-4,7.2.27,2.81-2.32,6.52-5.41,5.31-1-.46-2.57-1.5-2.15-2.79a7.64,7.64,0,0,0-2.32-.77c-1.35-.1-3.14-.87-4.17.34-1,1.39-2.25,3.9-1.41,5.57a9.31,9.31,0,0,0,3.26,2.57,1.28,1.28,0,0,1-.94,2.35c-.2,1.62-.36,3.35-1.55,4.59s-3,2.27-4.6,1.49a8.63,8.63,0,0,1-2.54,2.53l0,.09c.38,5.17-.13,10.38-.3,15.56-.13,8.11-.42,16.44-2.16,24.37-.52,1.45-.28,5-2.34,4.91l.09.13c2.2,3.4,5.17,6,7.37,9.38a55.92,55.92,0,0,0,6.58,9.36,39.74,39.74,0,0,1,6,7.41c2.08-2.66,3.63-5.63,5.62-8.35,1.41-2,3.13-3.67,4.46-5.69a33.85,33.85,0,0,0,2.75-5.1,1.44,1.44,0,0,1-.23-.81c.32-3.7.75-7.38.78-11.09.35-4.47,1-8.91,1.53-13.36,1.9-10.27,2.32-8.55,11.47-11.75,5.54-1.82,11.08-2,11.86-9.07.35-1.95.72-3.89,1-5.85s.14-4,.93-5.81a1.28,1.28,0,0,1,.29-.28,1.37,1.37,0,0,1,.36-1.28,1.42,1.42,0,0,1,2,0C577.29,58.75,577.84,59.06,580.13,58.7ZM594.56,451c-3,.86-5.93,1.7-8.93,2.38-2.81.72-5.76,1.44-8.5,2.33-4.19,1.48-8.4,3.48-12.9,3.58-.37,1.15-.56,2.3,1.26,2.08,3-.39,6-1.85,8.63-3.18a47.11,47.11,0,0,1,10.06-3.9C587.73,453.46,591.1,452.06,594.56,451ZM592.73,8.23c1.23-1.42,4.29-5,.92-5.71-2.46.48-4.27,2.5-5.93,4.24-2.4,3-4.74,6-7.81,8.28a30.91,30.91,0,0,0-6.41,5.72c3.21-1.77,6.64-3.25,9.72-5.22C586.35,13.07,589.86,11,592.73,8.23Zm15.35,439.42-.08,0a1.56,1.56,0,0,1-.62-.44c-2.24.7-4.51,1.31-6.74,2l-3.29.94.82-.2c2.31-.55,4.62-1,7-1.42A7,7,0,0,0,608.08,447.65Zm.56-3.52a2.5,2.5,0,0,0,.73-.56c-.74-3.09-5.19-2.65-7.67-2.58a21.37,21.37,0,0,0-3.28.54,5.63,5.63,0,0,1-.26,1.69,1.29,1.29,0,0,1-2.47,0,5.71,5.71,0,0,1-.17-1c-.79.21-1.58.41-2.38.57a6.06,6.06,0,0,1,0,1.41c-.08,1,.09,1.9,0,2.86a1.23,1.23,0,0,1-2.28.45,7.85,7.85,0,0,1-.41-4,.86.86,0,0,1,0-.16l-1.49.28a2.17,2.17,0,0,1,.07.24,4.75,4.75,0,0,1-.31,1.62c0,.2-.08.4-.1.6a1.08,1.08,0,0,1-2,.4,3.24,3.24,0,0,1-.42-2.34c-.7.13-1.4.28-2.09.43.07.73-.31,1.64-.31,2.35a1.18,1.18,0,0,1-2.24.31,3.3,3.3,0,0,1-.27-1.78v-.22c-.53.14-1.06.28-1.59.44a4.54,4.54,0,0,1-2.8.31,1.23,1.23,0,0,1-.53.61,18,18,0,0,1-4.86,1.68c-1.75.45-3.49.95-5.23,1.3-.46.07-.92.2-1.39.26-.15,2.15-.29,4.3-.56,6.45,5.06-.35,9.49-2.87,14.29-4.16,7.56-2,15.13-4,22.6-6.27,1.9-.6,3.85-1.09,5.74-1.73a1.8,1.8,0,0,1,1.45-.11Zm89.85-284.66c6.72-3.17,12.42-8.7,11.43-16.68-.26-4.2-1.41-8.23-2.27-12.33-.83-4.36-2.57-8.71-3.9-12.88-2.25-6.55-5.68-12.13-8.43-18.38-3-6-4.84-12.42-7.57-18.5-1.93-3.85-5-6.92-8.24-9.72a18,18,0,0,1-3.44-4c-.25.07-.49.13-.73.22-1.12.4-2.19.92-3.3,1.34-3.78,1.26-7.75,1.84-11.53,3.11-2.63.72-5.3,1.26-7.91,2a87.71,87.71,0,0,1,5.15,7.81c2.65,5.31,5.64,10.44,8.1,15.84,2.13,4.45,5.22,8,7.36,12.34a29.42,29.42,0,0,1,2.58,7.38,1.64,1.64,0,0,1-.43,1.34,9,9,0,0,0,.33.88l.15.27a1.46,1.46,0,0,1,.07.19.83.83,0,0,0,.08.12c1.64,2.52,2.52,5.58,1.13,8.42-1.41,2.28-4.49,2.27-6.85,2.1-2.63-.07-5.19-.6-7.79-.92-2.3-.12-4.6.13-6.89-.2-1.21-.18-2.42-.39-3.64-.51-3.94-.74-7.92-1.27-11.83-2.13-3.34-1-6.84-1.15-10.26-1.72a213.39,213.39,0,0,0-24.26-3.35c-3.87-.38-7.53-1.75-11.32-2.55a62.74,62.74,0,0,1-7.76-1.79c-5.25-.66-10.4-2.31-15.71-2.36-.38.67-1.24.42-1.82.2a2.51,2.51,0,0,1-1-.5,20.79,20.79,0,0,1-2.44,2.34c-2.7,2-4.84,4.6-7.53,6.58-3.34,2.23-6.88,4.19-9.87,6.9a52,52,0,0,1-4.48,3.64,7.41,7.41,0,0,0-.33,1.25c-.6,3.2-.87,6.45-1.15,9.68-.88,9.17-.76,18.37-1.38,27.55.72.69.39,1.88.08,2.64a1.4,1.4,0,0,1-2.45.81c-.6-.79-.32-1.89-.29-2.81.16-2.47.31-4.95.38-7.43.22-5.49.26-11.08.76-16.51.49-4.23.37-8.76,1.31-13l-1.35,1c-1.2.89-2.43,1.71-3.63,2.58a4.74,4.74,0,0,1-1.76,1.07,1.54,1.54,0,0,1-1.39.27,81.81,81.81,0,0,1-8.13-3.75,74.8,74.8,0,0,1,1.15,8.27,121.16,121.16,0,0,1-.07,24.31c-.21,1.08.37,2.31-.36,3.24,0,1.55-2.08,2.78-3.17,1.39-.8-1-.08-2.49.86-3.16A130.29,130.29,0,0,0,521.06,135v0a11.31,11.31,0,0,0-1.08-.86c-1-.66-2.1-1.23-3.13-1.87-3.28-2.07-6.94-3.57-9.58-6.52a30.6,30.6,0,0,0-4.23-2.88c-2-1.3-3.89-2.76-5.81-4.17a26.36,26.36,0,0,0-5.54-3.52c0,.78-.82,1.42-1.61,1.86-2.41,1.64-4.68,3.48-7.13,5s-5.41,3.08-7.83,4.53-4.38,3.85-6.71,5.61c-3.78,2.75-7.74,5.3-10.89,8.79a64.37,64.37,0,0,0-5,6.92c-2.7,4.19-6.78,7.24-9.61,11.32-3.37,5.34-5.53,11.18-9,16.44-3.28,5.14-6.83,10.12-9.62,15.55-2.71,5.62-4.2,11.72-6.68,17.45-1.88,5.16-4.74,9.89-6.58,15.07-1.42,4.83-3,9.57-4.6,14.28-1.21,3.57-1.64,7.32-2.43,11-1.39,4.81-3.5,9.32-4.51,14.21a78.21,78.21,0,0,0-1,11.94c-.27,4-.56,8-.93,12a179.69,179.69,0,0,0-1.43,18.09,42,42,0,0,1-.05,6.73c7.72.67,15.41-1.24,23,.45a48.34,48.34,0,0,1,2.11-13.26,44.07,44.07,0,0,0,2.29-6.57,21,21,0,0,0,0-6.9,44.11,44.11,0,0,1,0-9.61c1.09-9,4.86-17.57,7.62-26.11,1-3.15,1.34-6.38,2.18-9.56a94.5,94.5,0,0,1,6.82-17.55c2.51-5.53,6.07-10.48,8.85-15.87,1.7-3.09,3.86-5.9,5.46-9.05a32.64,32.64,0,0,1,4.17-7.28c1.79-2.25,3.82-4.3,5.77-6.42,3.13-3.76,5.34-7.84,7.78-12,.58-.89,1-2.25,2.21-2.31,1.62,0,1.75,2,1.7,3.21-.16,3.29-.78,6.53-1.23,9.79-1,6.09-1.4,12.24-2,18.38-.45,4.37-1.46,8.66-1.91,13-.42,4.53-1.24,9.12-.61,13.67a19.54,19.54,0,0,0,1.26,3.53,8.45,8.45,0,0,0,1.09.65c3.27,1.36,6.87,1.12,10.32,1,6.23.11,12.36-1.07,18.58-1.4a50.08,50.08,0,0,1,9.08.09c5.72.38,11.46.1,17.18.52,8.36.58,16.55-1.52,24.86-2.08,6.76-.27,13.53-.66,20.29-.37,2.08-.07,5.42.75,6.31-1.72a24,24,0,0,1,0-3.79,1.84,1.84,0,0,1,.49-1c-.29-2.37-.25-4.8-.46-7.18-.15-2.05-.61-4.07-.68-6.12a157.31,157.31,0,0,1,.85-26.67q.36-6.3.37-12.61c.12-1.55-.23-3.44.84-4.7a1.31,1.31,0,0,1,.31-.27c.16-.42.33-.81.45-1.14a13.79,13.79,0,0,1,2.21-4.19c1.15-1,2.69-.84,4.08-.83a29.44,29.44,0,0,1,4.37,1,71,71,0,0,0,7.27.88,96.44,96.44,0,0,1,14.12,2.7c7,1.11,14.18.72,21.25,1.16,2.73.12,5.43.52,8.15.73,5.66.16,11.33.08,17,.08,6.06-.05,12.12-.17,18.17-.61,3.33-.21,6.75-.17,9.9-1.41A63.93,63.93,0,0,0,698.49,159.47Zm13.19-26.28c.87,4.07,1.72,8.22,1.5,12.39-.16,5.64-3.8,10.48-8.18,13.74-2.33,1.56-4.94,2.66-7.31,4.16a48.9,48.9,0,0,1-11.5,4.79c-4.14.86-8.43.59-12.63.95-9.44.44-18.9.17-28.36.25-3,0-6.38-.55-9.36-.75-6.64-.37-13.32-.23-20-.71a93.58,93.58,0,0,1-9.67-2,96.84,96.84,0,0,0-11.89-1.51c-3-.06-5.61-1.83-8.59-1.5-.91,1.18-1.48,4.53-2.79,5.67-.13,5.41.2,10.84-.3,16.24a111.17,111.17,0,0,0-.92,15.37c0,3.21-.13,6.43,0,9.64.43,3.71.71,7.44,1,11.12,0,1.08.46,2.76-.06,3.78a7.84,7.84,0,0,1-.06,2,5.76,5.76,0,0,1-4.33,5.86c2.23,5.39,4.35,10.82,6.07,16.41,1.23,4,2,8.16,3.49,12.09a44.65,44.65,0,0,0,4.87,9.81c2.43,4.92,4.86,9.87,6.82,15,1,3,1.46,6.2,2.23,9.29,1.14,4.23,2.36,8.43,3.32,12.71,1.37,6.31,1.21,12.88,1.2,19.31a285,285,0,0,1-5.13,34.87c-.76,4.18-2.37,8.13-3.32,12.25-1.65,7.38-3.71,14.67-4.87,22.15a246.78,246.78,0,0,1-7.37,29.09c-1.29,4.09-3.17,8-4.34,12.09a3,3,0,0,1-2.09,1.92c-.17,1.06-.24,2.15-.38,3.22a112.37,112.37,0,0,1,12.44-2.63c4.69-1.05,9.31-2.81,14.21-2.31,2.32.24,5,.88,6.23,3.05,1,1.45,1.49,3.67-.06,4.92a.57.57,0,0,1-.11.11,1.3,1.3,0,0,1,.36,1.57,4.35,4.35,0,0,1-1,1.38c-2.15,2.15-5.62,2.21-8.31,2.8-1.31.28-2.61.59-3.91.91-3,.68-5.76,1.75-8.62,2.69-2.55,1-5.38,1.48-7.94,2.35-5.07,1.21-14.79,8.35-19.33,5.59a3.45,3.45,0,0,1-1.32-3.89,7.72,7.72,0,0,1,.38-1.2c-.89-1.55-.08-4.49-.13-6.21A52.71,52.71,0,0,1,563,440.39c-2.17-.49-2.4-2.67-2-4.87.27-3.09.65-6.17,1.07-9.24,1.07-8.38,2.2-16.74,3.24-25.13,1.5-11.68,3.13-23.36,3.59-35.14a170.5,170.5,0,0,0,.51-27.21c-.2-4.71.32-9.58-1.06-14.13-1.62-4.28-3.92-8.15-5.9-12.24s-3.05-8.16-4.94-12.1c-.89-1.9-1.75-3.81-2.47-5.79a90.55,90.55,0,0,0-4.69-12c-2.18-4.14-5.35-7.65-8.31-11.25-6.64-7.81-10.79-8.47-18.71-5.17-.22.55-.51,1.1-.71,1.57-1,2.19-1.89,4.43-2.69,6.7a59.61,59.61,0,0,0-3,13.8c-1.13,7.22-2.27,14.44-3.19,21.69-1,6.8-1.57,13.27-2,19.95-.39,3.59-1.1,7.13-1.47,10.71-.64,5.14-.54,10.31-.84,15.47s-.67,10.16-.85,15.26c-.07,3.47.4,6.92.47,10.39.23,4.9-.23,9.81-.07,14.71.25,5.28.84,10.47.78,15.76,0,4.15-.8,8.25-1,12.39-.4,12.05-.77,24.1-1,36.15-.62,8.92-1.68,17.83-2,26.75-.13,2.17-.2,4.35-.33,6.53a6.58,6.58,0,0,1-.56,3,2.35,2.35,0,0,1-.59.66,3.72,3.72,0,0,1,.4.92l0,0a1.06,1.06,0,0,1,.5,1.43h0a1.68,1.68,0,0,1,.23.66c.25,2.06.47,4.11.73,6.16l0,.18a1.58,1.58,0,0,1,1.44.93c1.2,2.76-.34,5.86-1.95,8.13-2.46,3.18-4.61,6.59-7.17,9.69-2.53,3.31-5.33,6.41-7.81,9.76-1.66,2.15-3.52,4.14-5.39,6.12-2.57,2.56-5.85,7.24-10,5.24a3.7,3.7,0,0,1-1.88-3.5c-2.64-2,.33-8.61.95-11.21,2.35-8.3,7.92-15,13.84-21.09-.05-2.56-.5-5.1-.6-7.65a1.77,1.77,0,0,1-.76.05c-2.23-.4-1.87-3.48-2.43-5.17-.43-3.2-.79-6.43-1.15-9.64-.82-5.58-1-11.24-1.77-16.84-1.41-9.62-3.06-19.21-4.78-28.78A464,464,0,0,1,472,384.26c.06-13.21.93-26.39,1-39.6.32-5.26.27-10.52.19-15.79,0-3.05.37-6.28.56-9.28.31-5.1.19-10.21.09-15.31-.21-5.36-.28-10.72-.6-16.07-.29-4-1-7.88-1-11.84.16-5.24.32-10.47.05-15.71,0-4.74.47-9.46.53-14.2q.08-4.61.08-9.21a2.67,2.67,0,0,1,.14-1.87,10.69,10.69,0,0,1-3.42-1.8h0a1.42,1.42,0,0,1-.61-.49,1.74,1.74,0,0,1-.11-.18h0a1.25,1.25,0,0,1-.26-.48h0c-3.12-5.92-.63-16.2,0-22.63a167.77,167.77,0,0,0,2.28-18.16c.5-5,1.39-10,2.08-14.95a59.08,59.08,0,0,1-6.81,10.18c-2.31,2.64-4.93,5.06-6.75,8.08-1.22,2.22-2,4.44-3.32,6.59-2.13,3.38-4.28,6.75-6.12,10.3-1.77,3.3-3.91,6.39-5.63,9.72-3.62,7.18-6.91,14.63-8.61,22.52-1.49,9.47-6.35,18.15-8.23,27.45A44.66,44.66,0,0,0,426.41,284c.24,2.58.67,5.19.15,7.77a40.17,40.17,0,0,1-2.22,7.23,34.68,34.68,0,0,0-2.07,9.6c-.21,1.94.34,5.76-1.3,6.66,1,5.93,3.53,19.76.48,23-2.29,2.23-5.39.23-6.54-2.18a7.59,7.59,0,0,1-.94,2.72,4.54,4.54,0,0,1-6.14,1,6.43,6.43,0,0,1-1.88-2.42c-.5,1.52-2,3.37-3.74,2.45-1.48-.83-1.92-2.65-2.47-4.14-1.54,4.22-6,5.84-8.27,1.17-1.12-2.24-.78-5.1-.24-7.37.68-4,1.79-8,2.67-12a4,4,0,0,1,.93-2.5c-1.22-.37-1.86-1.4-1.48-4.16.17-4.73-.12-9.47.39-14.2,1-9.3,1.84-18.72,2.25-28,.3-6.46,2.48-12.58,4.81-18.55.93-2.86,1.19-5.88,1.85-8.8.92-3.92,2.37-7.69,3.53-11.54,1-3,1.82-6.11,3-9.07s2.65-5.55,3.86-8.39c2.54-6.06,4.76-12.24,6.87-18.46,3-7.58,8-14.07,12.26-20.94,3.42-5.35,5.16-11.64,9.08-16.68,2.42-3.07,5.44-5.62,7.74-8.79,1.87-2.55,3.29-5,5.24-7.37,3.14-3.92,7.35-6.77,11.41-9.65,3-2.15,5.36-5.12,8.61-6.95,2.37-1.35,4.81-2.57,7.09-4.06,1-.69,2-1.42,3-2.15a1.48,1.48,0,0,1-.8-1.36,38.24,38.24,0,0,1-.09-8.42,6.55,6.55,0,0,1,3.36-5c1.44-1,3.51-1.08,4.7-2.42,2.26-4.2,5.33-7.12,10.42-6.27,3.27.23,6.4,1.3,9.65,1.63a12.48,12.48,0,0,1,2.32.36c.05-.37.09-.75.14-1.13.54-6.25.46-12.51.81-18.76.33-3.53-.07-7.13.37-10.64a5.93,5.93,0,0,1-2-.06c-2.44-.43-3.65-2.84-3.79-5.13-4.09.06-5.36-6.4-4.07-9.45-1.11-1.64-1.2-3.74-1.34-5.65a4.63,4.63,0,0,1,.35-2.6c0-.28.05-.57.07-.84a33.52,33.52,0,0,1,2.7-9.5,22.47,22.47,0,0,1,4.93-8.63,20.7,20.7,0,0,1,4.48-3.87,54.31,54.31,0,0,1,8.84-5.66c4-2.31,8.48-3.42,12.78-5,8.32-1.8,18.22-1.57,25.2,3.8,2.87,1.9,6.13,3.55,8,6.52a29.44,29.44,0,0,1,3.34-3.36c2.73-2.25,5.68-4.26,8-7,3.06-3.45,6.16-8.11,11.11-8.7,4,.36,5,4.43,2.71,7.42-2,3.27-5.2,5.4-8.19,7.65-4,3.45-8.72,5.74-13.39,8.07-.79.35-1.55.84-2.34,1.21a37,37,0,0,1,1.61,4.57,36.49,36.49,0,0,1,.87,7.73c.11,1.94.35,3.77.61,5.68.45,2.79.29,5.93,2.33,8.14,1.71,2,4.77,2.92,5.66,5.58.46,1.62.38,4-1.38,4.79s-4.1,1.15-5.91.12l-.83-.6a54.89,54.89,0,0,1-1,9.14c-.78,4.31-1.93,8.1-6.15,10.16-4,2-8.42,2.71-12.62,4.06a13,13,0,0,0-2.86,1.08,28.12,28.12,0,0,0-1.45,5.11q-.66,4.16-1.2,8.33c.55-.14,1.11-.26,1.65-.43,2.84-.68,6.49-2.46,8.93,0,3.05,3,4.11,7.18,6.16,10.8a11,11,0,0,1,1.48,3.45,2.51,2.51,0,0,1,1.16-.28c4.35-.41,8.58.78,12.84,1.46a64,64,0,0,1,9.89,2c3.93.61,7.71,1.79,11.57,2.67,5.49.77,11,1,16.51,2,5.39,1.13,10.7,2,16.14,2.72,3.38.58,6.64,1.71,10.06,2.09,4.44.82,8.86,2.07,13.41,1.85s9.18,1.61,13.8.75c1.57-.22,1.13-2.93.68-4-.39-.69-1.33-2-2.09-3.43a15.48,15.48,0,0,1-2.51-5.16c-.42-1.43-1.48-4.47-1.35-6.48-1.72-2.82-3.66-5.36-5.15-8.39-2.66-5.6-5.62-11-8.29-16.64-1.62-3.27-4-6.08-5.76-9.25l-.1-.11a13.76,13.76,0,0,1-2.88-4.13,19.42,19.42,0,0,1-2.81-8c-.24-1.12.05-1.8.52-2.06-.07-.38-.14-.76-.22-1.13-1.27-5.38-2.62-10.84-2.3-16.42a3.06,3.06,0,0,1,5.27-2.46c2,2,2.83,4.86,3.48,7.54A56.32,56.32,0,0,0,652,54.39a4.92,4.92,0,0,0,1,1.88,12.49,12.49,0,0,0,2,1c1.51.82,7,3.36,5.36,5.49a1.5,1.5,0,0,1-1.92.37c-1.5-.86-2.82-1.92-4.36-2.71-1.89-.78-3.89-1.78-4.57-3.86-2.12-4.23-1.54-12.36-5.1-15.11-.87,6.74,1.83,13.33,2.67,20a2.55,2.55,0,0,1,.05,2.86,37.15,37.15,0,0,0,3.53,6.8c4.78-1.35,9.69-2.16,14.45-3.63a60.78,60.78,0,0,0,10-3c-.35-1.63-2.47-4.51-.1-5.4,2.26-.45,2.1,2.55,2.77,4a6,6,0,0,1,.48,1.82,10.11,10.11,0,0,0,1.17,1.68c1.64,1.86,3.66,3.32,5.44,5A27.24,27.24,0,0,1,692,81.91c2.08,5.1,3.81,10.34,6.19,15.32,2.85,6.58,6.51,12.67,8.85,19.4A109.37,109.37,0,0,1,711.68,133.19Z"/><path d="M650.85,29.85c-.64-.57-.42-1.42-.21-2.14.81-3.88,4-4.76,5.88-1,1.23-2.17,5.42-6,6.7-1.88.77-1.31,2.47-3.46,4.08-2.11,1.13,1.29.91,3.23,1,4.83a1.3,1.3,0,0,1-1.23,1.33c-1.7,0-1.29-2-1.44-3.17-.81,1-1.08,2.34-1.83,3.37a1.32,1.32,0,0,1-1.77.23c-.84-.83-.75-2.39-1.24-3.46a7.55,7.55,0,0,0-2.22,2.38c-.48.71-1,1.58-2,1.61-1.42,0-2-1.59-2.92-2.46a5.12,5.12,0,0,0-.74,1.92C652.64,30.09,651.4,30.68,650.85,29.85Z"/><path d="M674.94,61.72a4.81,4.81,0,0,1-1.31-2.64c-.2-1-.5-2.08.06-3a1.27,1.27,0,0,1,1.66-.32c.65.34.58,1.09.78,1.69.66.48.39,1.38.57,2.07a3,3,0,0,1,.15,1.52A1.22,1.22,0,0,1,674.94,61.72Z"/><path class="cls-3" d="M581.67,52.11l0,0a4.5,4.5,0,0,1-.63-.6,15.42,15.42,0,0,1-.83-7.82,1,1,0,0,1,.12.23,8.49,8.49,0,0,0,.14,2.13c.31,1.78.69,3.48,1.11,5.25A3,3,0,0,0,581.67,52.11Z"/><path class="cls-3" d="M564.1,42c-1.7,2-.85,6.62,2.37,6.15-.4,1.16-1.84,1.35-2.9,1.47-2.74.15-4.23-1-4.41-3.78C558.92,42.38,560.57,39.74,564.1,42Z"/><path class="cls-3" d="M721.12,37.26c.39,4.76,1,9.54.14,14.29a3.13,3.13,0,0,1-2-1.57c.14-3.77-.54-7.55-.49-11.35-.13-3.24-.28-6.18-.69-9.43a1.42,1.42,0,0,0,.29-.91,1.47,1.47,0,0,0-.57-1.08c0-.07,0-.14,0-.2h0a9.68,9.68,0,0,1,1.1-4.46h0C721.44,23.68,720.81,34.43,721.12,37.26Z"/><path class="cls-3" d="M608,447.62l.08,0a7,7,0,0,1-3,.88c-2.34.4-4.65.87-7,1.42l-.82.2,3.29-.94c2.23-.72,4.5-1.33,6.74-2A1.56,1.56,0,0,0,608,447.62Z"/><path class="cls-3" d="M584.9,427.58a1.55,1.55,0,0,1-.4-2.43,65.19,65.19,0,0,1,1.73-6.3c1.12-4.75,1.73-9.6,3.14-14.27,1.41-5.43,3.69-10.6,5.35-15.95,2-8.56,3.24-17.26,5.17-25.83a40.39,40.39,0,0,1,2.07-7.45,59.81,59.81,0,0,0,1.42-6.87c1.26-9.78,2.31-19.5,1.39-29.33,0-.83-.1-1.68-.07-2.49a1.17,1.17,0,0,1,1.06-.93c.94-.07,1.35.88,1.39,1.69a97.43,97.43,0,0,1,.05,21.39,141.61,141.61,0,0,1-2,14.69,51.37,51.37,0,0,1-1.93,6.67c-1.47,7.19-3.14,14.33-4.34,21.58-1.42,9.19-5.66,17.6-7.66,26.64-1,3.7-1.35,7.54-2.36,11.23a51,51,0,0,0-1.44,5C587.16,426,586.92,428.39,584.9,427.58Z"/><path class="cls-3" d="M562.75,425.6c-1.48-.2-1.4-1.54-1-2.66.46-1.82.74-3.67,1.09-5.51.79-2.53.6-5.19.89-7.79,0-3.17.59-6.27.78-9.41.38-5.58,1.19-11.11,2-16.64a93.94,93.94,0,0,1,1.43-12.17,1.35,1.35,0,0,1,2.6-.52c.1,2.57-.65,5.65-.79,8.3-.34,5.1-1.25,10.15-1.8,15.22-.46,4.74-.86,9.47-1.34,14.2-.22,2.42-.33,4.85-.73,7.25-.27,1.81-.9,3.54-1.17,5.35-.16.83-.31,1.67-.4,2.33C564.29,424.55,564,425.67,562.75,425.6Z"/><path d="M867.53,76.13c-6.69-.75-15.85-1.87-17.74-9.62a1.3,1.3,0,0,1-.51-.69c-.37-1.36-.41-2.78-.65-4.17-.45-2.85-1.18-5.84-.22-8.67s4-4.41,6.65-5.63c1.39-.72,3.05-1.31,3.92-2.7,1-2.26.68-4.9,1.59-7.21.95-3.24,3.87-5.22,6.76-6.65s6.12-2.74,9.43-2.17c8.54,1.59,16.65,5.1,25.33,6.05a6.73,6.73,0,0,0,6.67-2.56c3.14-4.14,4.69-9.69,9.2-12.65,5.94-3.69,13.39-2.84,19.87-1.23,5.07,1.28,9.09,4.85,13.4,7.64,3.8,2.23,9.26,7.13,13.8,4.8,4.34-2.23,9-4,14-3.83,7.83,0,16.48,3.26,20.44,10.35,4.57,7.22,4.83,15.71-.7,22.47-2,2.9-5.13,4.42-8.46,5.14a59.5,59.5,0,0,1-9.73,1.61c-7.61.86-15.19-.51-22.73-1.28-8.57-.63-16.93,1.51-24.76,4.74a38,38,0,0,1-8.83,3.39c-9.53,2.3-19-1.19-28.34-2.79a24.65,24.65,0,0,0-10.17.87C879.65,73,874,77.05,867.53,76.13Zm2-2.78c4.66,0,8.7-2.6,13-4A28.58,28.58,0,0,1,898.7,68c7.42,1.56,14.91,4.26,22.59,3.08,5.23-.6,9.58-3.74,14.46-5.43A56.59,56.59,0,0,1,954.64,62c6.17.1,12.25,1.44,18.41,1.65a56.73,56.73,0,0,0,19.58-2.8c3-1.37,4.83-4.53,6.21-7.43a15,15,0,0,0-.06-10.54,21.55,21.55,0,0,0-4.55-7.47c-4.88-4.47-11.94-6.14-18.41-5.3a21.37,21.37,0,0,0-5.32,1.49c-2.54,1-4.93,2.71-7.72,2.89-5.13-.06-9.43-3.55-13.6-6.14-3.32-2.12-6.43-4.63-10-6.25-6.08-2-13.4-3.32-19.26,0-4.39,3-5.66,8.66-9,12.59-3.53,4.36-9.11,3.53-14,2.47-5.73-1.09-11.28-2.9-16.91-4.4-2.09-.46-4.23-1.12-6.39-.79A21.59,21.59,0,0,0,865,36.3c-1.61,1.64-1.76,4.13-2.07,6.27-.35,5.7-4.51,6.74-8.78,9-4.13,1.93-2.67,6.33-2.15,9.9,1.26.73.33,2.18.55,3.28.34,4,3.93,6.26,7.5,7.09A48.69,48.69,0,0,0,869.55,73.35Z"/><path d="M989.22,52.6c-1.65-.92,0-2.72.2-4,.51-1.93.4-4.27-1-5.77-1,.53-1.65-.41-1.73-1.31a1.53,1.53,0,0,1,2.1-1.62c3.55,1.75,4.25,6.72,3.16,10.19C991.51,51.24,990.78,53.28,989.22,52.6Z"/><path d="M872.62,52.57c-.58-2.18,1.31-7.73,4.11-7.17a1.15,1.15,0,0,1,.27,2.12,7.34,7.34,0,0,0-1.77,4.84A1.32,1.32,0,0,1,872.62,52.57Z"/><path d="M905.39,57.57c-1-.14-2.19-.11-3-.88a1.28,1.28,0,0,1,.84-2.11c1.27.1,3.6-.13,3.58,1.68A1.39,1.39,0,0,1,905.39,57.57Z"/><path d="M165.11,163.13a48.37,48.37,0,0,1-19.31-3.9,23,23,0,0,1-11-11.09c-2.23-4.66-1.95-9.92-2.61-14.92-3.26-3.3-2.81-10.52-2.05-14.77,1.71-9.16,8.92-16.21,17.12-20.07,7-3.27,14.83-1.58,22.17-.85,4.63.55,10.23,1.85,13.65-2.26C189,89,192.88,80.77,200.88,76.8c7.07-3.63,15.39-6.94,23.44-6.83,3.62.1,7.47.22,10.55,2.36a15.63,15.63,0,0,1,2.52,2.06c2.56,2.3,5.36,4.32,7.81,6.76A53.3,53.3,0,0,0,259.72,91.7c10.25,4.83,13.59,4.51,23.82.34,6.07-2.17,12.18-4.62,18.72-4.79,4.13-.28,8.38-.09,12.21,1.64s7.44,3.6,11.38,4.87A61.08,61.08,0,0,0,343.65,97c5.21-.25,10.39-1.07,15.62-.86a28.86,28.86,0,0,1,23.61,14.06,29.85,29.85,0,0,1,3.26,22.24c-1.39,4.6-4.52,8.45-8,11.64-13.59,11.82-31.89,16-49.42,17.51-7.9.66-16.24,0-23.31-3.84-7-4.09-14-8.59-22-10.47-5.47-1.41-10.44-2.16-15.73.36-4.37,1.9-9,3.46-13.83,3.34-9.45-.41-18.53-3.49-27.87-4.73-5.56-.71-11,1.22-16.08,3.31-4.69,2.21-9,5.12-13.89,6.94a154.5,154.5,0,0,1-15,5A58.16,58.16,0,0,1,165.11,163.13Zm2-3.76c10.39.21,20.24-3.41,29.77-7.17,4.7-2,8.93-4.87,13.69-6.67,5.36-2,11.14-3.4,16.86-2.36,7.47,1.23,14.8,3.19,22.31,4.23a26.43,26.43,0,0,0,14.64-1.83c3.37-1.4,6.8-2.9,10.52-2.91,8.55.32,16.81,3.38,24.27,7.44,9.49,5.73,14.12,8.44,25.7,8.24A113.87,113.87,0,0,0,343.78,156a76.59,76.59,0,0,0,27.83-11.09c6.33-4.24,12.26-10.52,12.18-18.56a28.51,28.51,0,0,0-3.63-14.47,25.54,25.54,0,0,0-20.8-12.64c-6.05-.35-12,1-18.08.73A67,67,0,0,1,319,94.46c-2.82-1.26-5.76-2.89-8.73-3.66-7.79-1.58-15.74.52-23,3.23-4.92,1.59-9.57,4.31-14.84,4.52-7.71,0-14.88-3.85-21.23-7.89-5.43-3.57-9.55-8.73-14.79-12.54-3.31-3.58-6.11-5.09-11.1-4.93-7.25-.52-14.25,2.3-20.75,5.23-9.3,4-12.43,11.29-18.73,18.31-4.69,5.49-10.34,4.6-16.76,3.74-6-.64-12.15-2-18.07-.39-13,4.36-21.48,17-17.52,30.69,3.81-.71,2.61,8.12,3.31,10.46a19,19,0,0,0,9,13.71C152.32,158.34,159.8,159.49,167.1,159.37Z"/><path d="M145.34,130.2a1.21,1.21,0,0,1-1.14-1.27c.07-1.42.14-2.84.32-4.25a26.47,26.47,0,0,1,3.21-10.1c.93-1.45,2.59-3.41,4.5-2.61a2.06,2.06,0,0,1,1.21,2.13c-.37,1.11-1.3.7-1.95.12-2.86,2.55-3.27,6.74-4.06,10.28-.31,1.57-.62,3.14-.84,4.73A1.22,1.22,0,0,1,145.34,130.2Z"/><path d="M160.72,150.17c-4.28-1.46-9-2.89-11.67-6.79a2.07,2.07,0,0,1-.55-1.59c1.08-2.73,4,1.52,5.31,2.24a39.53,39.53,0,0,0,7.75,4.08A1.12,1.12,0,0,1,160.72,150.17Z"/><path d="M326.05,108.44a73.22,73.22,0,0,1-7.23-2.17c-4.15-1-8.4.25-12.52.87-2.19.59-2.83-1.94-.57-2.39a39.22,39.22,0,0,1,10.8-1.65c3.56.16,6.82,1.81,10.18,2.82A1.31,1.31,0,0,1,326.05,108.44Z"/><path d="M365.46,128.54c-.53-5.57-2-11.69-6.58-15.36a1.33,1.33,0,0,1-1.3-2.2c3.42-3.09,8.68,6.42,9.39,9.14a15.41,15.41,0,0,1,1,6.34c-.16,1.09.3,3-1.2,3.17A1.19,1.19,0,0,1,365.46,128.54Z"/><path d="M321.2,142.28c-1.31-.24-4,.26-4-1.66a1.32,1.32,0,0,1,1.21-1.24c3.76-.14,7.53-.27,11.27-.76,2.58-.35,5.07-1.24,7.67-1.47,1.18,0,3.51,0,3.39,1.67-.17.92-1.17.9-1.91.84-2.38,0-4.59,1.17-6.9,1.58A45.53,45.53,0,0,1,321.2,142.28Z"/><path d="M248.93,126.33c-1.59-1.53-3.92-1.71-6-1.69-1.35-.12-3.58,1-4.09-.84-.31-1.79,1.9-1.8,3.12-2a10.61,10.61,0,0,1,5.84.71,10.84,10.84,0,0,1,2.76,2A1.23,1.23,0,0,1,248.93,126.33Z"/><path d="M786.72,373.55a46,46,0,0,1-10.45-2c-7.69-2.19-17.6-3.77-21.06-12-1.44-3.64-1-7.6-1.48-11.4-.48-2.91-1.92-5.51-2.94-8.24a32.6,32.6,0,0,1-2.08-13.82c.88-6.64,4.77-13.53,11.4-15.75,4.55-1.65,9.48-1.43,14.24-1.32,3.35,0,6.91,1,10.12-.3a43.29,43.29,0,0,1,7.37-6.18c3.84-2.52,8.54-3.34,13.06-3.42,7.43-.64,16.52,8.22,22.79,1.8a64.71,64.71,0,0,1,4.66-4.56c2.39-2.06,5.35-3.24,8.21-4.47,6.29-2.69,13.14-4.48,20-3.85a15.45,15.45,0,0,1,6.32,2.38c3.87,2.28,7.41,5.09,11.24,7.42,7.12,4.43,10.89,4,18.65,1.92,9.68-2.61,11.81,0,20,4.33,2.94,1.52,6.09,2.84,9.44,2.86,4.37-.21,8.66-1.22,13-1.19a37.73,37.73,0,0,1,17.37,3.67c6.16,3.08,12.38,7.38,14.34,14.35,2.45,7.76.55,20.51-4.81,26.73a50.72,50.72,0,0,1-11,9.86c-3.47,1.8-7.2,3.05-10.81,4.51-5.31,1.92-10.63,4.62-16.41,4.17-3.43,0-6.91-.29-10-1.82-5.26-2.5-10.54-5.5-16.52-5.66a37.42,37.42,0,0,0-7.17.39A90,90,0,0,0,881,364.29c-6.25,1.63-13,5.25-19.41,2.58-2.37-1-4.47-2.48-6.77-3.6a21.6,21.6,0,0,0-9.9-2.25,48.61,48.61,0,0,0-16.15,3.67,96.11,96.11,0,0,1-12.55,5.24A85.56,85.56,0,0,1,802,372.61,93.59,93.59,0,0,1,786.72,373.55Zm1-3.39A114.78,114.78,0,0,0,814.53,367c5.93-1.51,11.43-4.9,17.21-6.67,7.37-2.18,15.52-3.58,22.83-.44,5.51,2.26,9.21,6.37,15.67,4.4,4.06-.92,7.92-2.53,12-3.53A128.79,128.79,0,0,1,896,358.65,31.05,31.05,0,0,1,912.28,361c3.79,1.54,7.27,4,11.38,4.63a38.68,38.68,0,0,0,8.05.1c3.4-.63,6.59-2,9.83-3.21,11.34-4.26,14.76-5.25,22.85-14.84,4.3-6,5.89-17.15,3.32-24.08-1.8-5.15-6.55-8.2-11.07-10.78a29.24,29.24,0,0,0-7.58-3.08,36.11,36.11,0,0,0-10-1.14c-4.56,0-9,1.16-13.59,1.05-7.24-.33-13-5.31-19.52-7.77a10.28,10.28,0,0,0-4.55-.09c-4.33.68-8.5,2.21-12.89,2.42-10.09.14-17.12-8.5-25.75-12.38-6.75-2.24-15.59.58-21.9,3.28a27.68,27.68,0,0,0-6.24,3.38,45.79,45.79,0,0,0-4.39,4.31c-5.43,6.62-14.36,2.59-20.94.22a22.44,22.44,0,0,0-20.62,5.55c.38,1.56-1.59,2.4-2.68,3.08-3.69,1.64-7.81.8-11.71.79-4.79-.18-9.78-.36-14.27,1.6-4.63,2.17-7.13,7.36-8,12.2-.57,6,1.44,11.87,3.87,17.31s-.14,12,3.53,16.84c3.23,3.87,8.44,5.43,13.12,6.63C777.6,368.22,782.52,370.06,787.72,370.16Z"/><path d="M770.35,329.49c-1.68-1.38.77-3.35,1.95-4.09a8.38,8.38,0,0,1,4-1.24,1,1,0,0,1,.56,2c-.57.17-1.12.42-1.67.64a9.53,9.53,0,0,0-2.89,2.2A1.45,1.45,0,0,1,770.35,329.49Z"/><path d="M776.23,355.62c-3.52-3.15-7.14-7.6-6.7-12.59a2.9,2.9,0,0,1,2.79-2.54c.64,0,1.42.07,1.57.81s-.61,1.18-1.25,1.42c-.06,0,0,0,0,0-1.56,2.61,3.67,9.06,5.46,11.06A1.31,1.31,0,0,1,776.23,355.62Z"/><path d="M846.07,314.57c-2.31-1.82,2.28-4.41,3.82-5a23.08,23.08,0,0,1,8.26-1.19c.81.07,1.76-.26,2.46.27a1.21,1.21,0,0,1-.69,2.1c-4.18.45-8.92.3-12.4,3A1,1,0,0,1,846.07,314.57Z"/><path d="M880.3,322.21a1.24,1.24,0,0,1-.17-1.33,1.13,1.13,0,0,1,1.49-.5c3.08-1,5.94-2.62,9-3.64,2.71-.91,5.56-2.27,8.47-1.63a1.48,1.48,0,0,1-.36,2.92,11.35,11.35,0,0,0-4.56.44c-3.49,1-6.87,2.45-10.31,3.63C882.77,322.41,881.28,323.2,880.3,322.21Z"/><path d="M917.42,344.76a1.13,1.13,0,0,1,.27-2.23,25.18,25.18,0,0,0,8.87-.44c7.43-1.91,11.41-10.35,6.9-16.88a3.09,3.09,0,0,0-2.11-1.31c-1,0-2.13-.33-2.09-1.53.14-1.45,1.5-1.4,2.53-1.24a6.49,6.49,0,0,1,4.86,3.58,13.94,13.94,0,0,1-5,18.61C927.37,346.14,922.19,346.06,917.42,344.76Z"/><path d="M874.92,345.07a1.37,1.37,0,0,1,.82-1.74c1.25-.38,2.49-.79,3.75-1.13,2.22-.58,4-1.13,6.16-1.74,1.09-.28,2.32-.76,3.4-.22a1.09,1.09,0,0,1-.11,2c-1.48.45-2.78,1-4.22,1.47-2.11.72-3.88,1.31-5.93,1.8C877.54,345.62,875.59,346.67,874.92,345.07Z"/><path d="M855,340.39c-1.18-.37-2.38-.67-3.57-1a1.45,1.45,0,0,1,.74-2.8,29.11,29.11,0,0,1,3.67,1.35A1.31,1.31,0,0,1,855,340.39Z"/><path d="M.3,1114a1.39,1.39,0,0,1-.26-1.2,2,2,0,0,1,.93-1.09,7.28,7.28,0,0,1,3.4-1.27c7.07-.83,14.1-3.61,21.21-4,33.19-4.84,66.73-1.74,99.86-6.14,13.62-2,27.22-2.08,40.81-2.32,27.88-1.62,55.66-1.11,83.49-1.63q26.68-1.41,53.25-.6c9.51,0,19-.28,28.5.18,34.6,1.93,69.28,2.91,103.9,4.55,41.5.33,82.34,4.2,123.53,5.68,50-.25,99.94,1.71,150,.72,119.57-1.66,239.22-4.89,358.84-7.61,40.26.13,80.45,1.75,120.74,1.38,21.82.22,43.75-2.07,65.57-1.76,24.65.17,49.28.48,73.86,1.53,9.94.39,19.89.81,29.88.35,2.07-.1,3.7,2.36,3.59,5.29s-1.92,5.42-4,5.51c-6.56.3-13.11.1-19.65-.11-21.24-1-42.52-1.35-63.8-1.58-36.06-1.08-72.28,1.3-108.37.73-43.61-.53-87.12-3-130.82-1.84-21.15.15-42.33,1-63.49,1.33-14.44,0-28.89.11-43.35.51-72.78,1.82-145.61,5.34-218.35,6-34.6,1-69.12.26-103.68.29-20.27-.64-40.64.32-60.88-.78-30.13-1.75-60.24-3.86-90.38-5.36-24.85-.13-49.59-2-74.4-3-28.16-.77-56.26-2.55-84.49-2.19-13.57-.56-27.17-.41-40.79.31-20.59.83-41.1-.1-61.68.5-14.16.54-28.32,1.37-42.47,1.62-13.68.21-27.15,2.62-40.73,3.75-16.74,1.23-33.47,1.65-50.17,1.85-16.33.53-32.66,1.17-49,1.25-2.66,0-5.33.19-8,0A3.74,3.74,0,0,1,.3,1114Z"/><path d="M1263.63,560.13a2.74,2.74,0,0,1-2.37,0,235.72,235.72,0,0,1-26.59-6.6,133.3,133.3,0,0,1-21.76-7.27c-5.41,11.25-12.58,21.58-18,32.85-1.89,3.81-3.31,7.83-5.06,11.71-.63,1.88-3,4.07-4.75,2.14a6.32,6.32,0,0,1-1.06-3.62c-.23-4.59-.09-9.19-.13-13.78.37-13.18,1.09-26.4,3.49-39.39-12.88,1.66-25.41,4.57-38.36,5.63-2.67,0-12,2.91-10.58-2.25,2.18-2.74,5.52-4.43,8.18-6.69,10.16-8.36,21.65-14.84,32.26-22.57-.22-8.08-.74-16.14-1.42-24.19-1-.94-1-2.53-1.12-3.82-.3-3.38-.2-6.68-.26-10.08a47.27,47.27,0,0,1,0-6.41,2.6,2.6,0,0,1,4.32-1.28,103.16,103.16,0,0,1,6.93,9.73,51.86,51.86,0,0,0,9.84,12.25c5.45,5.63,9,12.35,15.55,16.69a270.79,270.79,0,0,1,31.18-15,46.64,46.64,0,0,1,6.37-2.32,3.65,3.65,0,0,1,2.93.21c1.65,1.08,1.16,3.15.15,4.5-1.46,2.55-3,5-4.5,7.56-4.82,9.14-10.6,17.68-16.13,26.38,5.44,3.49,9.78,8.39,14.46,12.8a112.48,112.48,0,0,1,14,15.5C1262.63,554.84,1267.07,557.94,1263.63,560.13Z"/></g></g></svg>