<svg xmlns="http://www.w3.org/2000/svg" viewBox="0 0 493.2 895.9"><defs><style>.cls-1{fill:#d94a3d;}.cls-2{fill:#4ac2ef;opacity:0.7;}.cls-3{fill:#fff;}</style></defs><title>cohete_2</title><g id="Capa_2" data-name="Capa 2"><g id="Capa_1-2" data-name="Capa 1"><path d="M147.19,527.55s0-.11,0-.16c0-.57,0-1.14,0-1.71h0l.09,2.26C147.3,527.8,147.24,527.67,147.19,527.55Z"/><path d="M68.4,355.61c-2.32-1.1-.83-4.72,1.57-4.29A2,2,0,0,1,71.51,354c-.37.46-.73,1-1.06,1.45a2.08,2.08,0,0,1-1.12.34A2.16,2.16,0,0,1,68.4,355.61Z"/><path d="M88.84,435.69l0,.1Z"/><path d="M88.81,435.64a.07.07,0,0,0,0-.05l0,.07Z"/><path class="cls-1" d="M160.56,603.2a1.61,1.61,0,0,1,1.86,1.21h0c-.24,1.37.93,3.64-1,4.13-.42,1.3-.85,2.6-1.3,3.89-1-1.71-1.92-3.41-2.88-5.11C158.19,605.86,158.84,603.83,160.56,603.2Z"/><path class="cls-1" d="M31.46,264.08l.42,1.77h0l-.08.05-.07,0-.15.06-.22.07h0a3.68,3.68,0,0,1-2.25,0l0,0a3.27,3.27,0,0,1-1.87-1.58v-.05c.23-2.7,1.56-4.27,3.69-3.65l.05,0A2,2,0,0,1,31.46,264.08Z"/><path class="cls-1" d="M215.44,698.56c.77,1.62.22,3.31-.59,4.94q-2.11-3.27-4.2-6.55A3.65,3.65,0,0,1,215.44,698.56Z"/><path class="cls-1" d="M272.31,775.9c-.29,2.41-3.13,4.54-5.56,3.37l-.08,0s0-.1,0-.16l0-.21v0a61.51,61.51,0,0,0-2-6.24.42.42,0,0,1,0-.06c-.18-.52-.36-1-.53-1.58l0-.11a18.39,18.39,0,0,1-1.08-5.57.33.33,0,0,1,0-.1,2.4,2.4,0,0,1,0-.37v-.07a2.86,2.86,0,0,1,1.08-2.13l0,0,.14-.09,0,0h0l1.58,2.31c.52.77,1.06,1.54,1.58,2.32q1.71,2.5,3.41,5l.79,1.16A3.19,3.19,0,0,1,272.31,775.9Z"/><path class="cls-1" d="M380.28,718.35c1.16,6.77-7.6,6.46-7.95-.08,2.1-.83,4.7-2.19,6.62-.31a1.34,1.34,0,0,1,1.33.39Z"/><path class="cls-1" d="M363.18,635.91c.58,2.17,1.14,4.34,1.65,6.53-2-.52-4.05-1.09-6-1.78C352.93,637.74,359.66,634.77,363.18,635.91Z"/><path class="cls-1" d="M184.29,194.79q1.11.61,2.13,1.32C183.69,201.36,180.66,193,184.29,194.79Z"/><path class="cls-1" d="M332.8,521.65q.69,2.61,1.41,5.2C331,526.08,327.14,522.44,332.8,521.65Z"/><path class="cls-1" d="M33.39,259.26c.58,2.66.93,5.94-2.07,6.82C25.84,264.26,30.28,260.67,33.39,259.26Z"/><path class="cls-1" d="M185.68,191.71c3.84,4.92-3.08,10.83-8.37.78,2.51-.52,5-2.36,7.57-1.88Z"/><path d="M65.35,118.25a1.63,1.63,0,0,1-1.18,2.19c-.38.72-.75,1.45-1.12,2.17C47.83,152.33,36.26,184.52,33,217.84A147.17,147.17,0,0,0,32.4,249c-.32,2.32.81,6.49,1.21,10.17,0,.42.09.85.11,1.26v0c0,.38,0,.76,0,1.13a7.92,7.92,0,0,1-.39,2.51s0,0,0,0a3.12,3.12,0,0,1-1.43,1.75h0s0,0,0,0h0l-.15.07-.15.06-.22.07h0a1.91,1.91,0,0,1-.34.1,4.18,4.18,0,0,1-2.58-.49,3.29,3.29,0,0,1-1.1-1,1.82,1.82,0,0,1-.15-.23c-1.68-2.74-1-8-1.7-10.87-.15-1.39-.28-2.8-.38-4.25-.21-2.86-.34-5.85-.38-8.93-.5-40.1,13.45-97,38.51-122.95A1.52,1.52,0,0,1,65.35,118.25Z"/><path d="M186.4,196.09a3.51,3.51,0,0,1-2.33,1.7c-.2.06-.41.12-.64.17l-.34.07-.13-.13c-1.85-1.8-3.71-3.61-5.56-5.43-19.08-18.63-39.07-37.93-62.47-51.64-10.86-6.66-38.25-21.42-50.3-19a2,2,0,0,1-1.58.76c-1.2-.16-1.08-2.77,2.3-4.36l.24-.11c16.29-6.86,52,14.69,65.5,24.37,12.64,8,23.53,18.25,34.56,28.3.3.34.76.81,1.36,1.38,1.74,1.66,4.62,4.16,7.64,7,4,3.72,8.25,8,10.47,11.53.07.12.15.24.21.36h0l.45.81C186.65,193.54,186.94,195,186.4,196.09Z"/><path d="M215.44,698.56c.06.14.12.28.17.42a5.11,5.11,0,0,1,.13.53,5,5,0,0,1,.06.54v.27a2.53,2.53,0,0,1,0,.27s0,.06,0,.09,0,.12,0,.18a4.68,4.68,0,0,1-.1.54c0,.18-.1.35-.16.54a11.17,11.17,0,0,1-.64,1.54v0c-.62,1.25-1.4,2.46-1.86,3.58-4.7,8.68-9.59,17.24-13.37,26.37,9.58,26.71,19.44,53.32,28.89,80.08,1.87,10.26,29,66.33,15.34,68.25-4.49.05-11.68-8.68-14.72-12C214.42,852,201.1,833.17,188.3,814c-23.25-34.8-46.5-70.69-64.17-108.62-4-11.71,7.28-31.72,10.75-43.73,1-4.11,14.26-42.22,22.33-54.41.15-.23.3-.44.44-.64h0l.23-.32c2-2.72,3.58-3.65,4.54-1.83h0c-.24,1.37.93,3.64-1,4.13-.45,1.26-.9,2.52-1.36,3.78-6.19,16.95-13.39,33.52-18.56,50.86-3,11.39-15.66,32.48-10,42.67C163.2,763.22,198.06,819.42,239.78,870,226.5,823.8,207.1,779.45,192,733.8c2.56-10.44,9.1-19.89,14.06-29.43a48.71,48.71,0,0,0,2.59-5.22,3.52,3.52,0,0,1,2-2.2,3.57,3.57,0,0,1,.38-.14,3.89,3.89,0,0,1,2-.11,4.75,4.75,0,0,1,.64.2h0a1.92,1.92,0,0,1,.29.14,3.48,3.48,0,0,1,.83.61,4,4,0,0,1,.44.56A3.72,3.72,0,0,1,215.44,698.56Z"/><path d="M445.42,763.19c1.17,3,2.36,6,3.54,9a3.67,3.67,0,0,1-1.36,4.24,3.11,3.11,0,0,1-.83.43c-6,2.15-8.16-13.35-10.68-17.33-3.43-8.72-7.41-18.2-10.68-26.76-12-28-24.62-56-35.67-84.38a92.43,92.43,0,0,1-15-3.62c-1.35-.65-5.74-1.25-9.84-2.19a27.48,27.48,0,0,1-6-1.89c-1.85-.92-2.79-2.09-1.87-3.57a3.37,3.37,0,0,1,.38-.51c.37-.16.8-.31,1.27-.46a10.89,10.89,0,0,1,2.07-.45h0q.33,0,.66,0h.35a3.5,3.5,0,0,1,1.43.35,2.42,2.42,0,0,1,.68.52A74.42,74.42,0,0,1,384,640.11c3.72,1,8.54.61,11.23,3.8,5.63,12.16,10.31,24.85,16.28,36.89C423.76,707.87,434.54,735.56,445.42,763.19Z"/><path d="M429.23,559.71l.08.34q.84,3.33,1.59,6.69c10.22,45.19,10.94,91.83,16.51,137.73.56,17,4,33.8,4.1,50.92-.19,4.83,4,22-3.55,21.15a2.47,2.47,0,0,1-.36-.11c-4.43-1.5-1.35-7-2.06-10.48,0-.92-.07-1.84-.12-2.76-.32-6.52-.93-13-1.29-19.55-3.66-41.51-8.14-82.9-11.53-124.48-1.68-17.5-4.53-35-6.28-52.45-.29-2.9-.56-5.8-.78-8.7l.06-.16C426.62,555.58,430.44,557.42,429.23,559.71Z"/><path d="M430.9,566.74a3.75,3.75,0,0,1-3.45.59l-1.13-.62q-6.79-3.74-13.72-7.23L410,558.15a224.17,224.17,0,0,0-39.42-15.42c-10.39-4.11-20.55-8.79-30.7-13.47a52.19,52.19,0,0,0-5.58-2.3c-.25-.1-.47-.19-.7-.3l-.13,0a11.73,11.73,0,0,1-2.6-1.56,6.32,6.32,0,0,1-.77-.7,1.33,1.33,0,0,1,0-1.41s0,0,0-.06a2.12,2.12,0,0,1,.77-.67l.3-.14.3-.12a5.47,5.47,0,0,1,1.32-.29h.06a4.19,4.19,0,0,1,1.51.1c.69.18,2,.63,1.13,1.47,17.78,3.31,33.78,12.5,51.38,16.58a247,247,0,0,1,38.78,18.05c1.23.71,2.45,1.44,3.66,2.18l.05,0A3.82,3.82,0,0,1,430.9,566.74Z"/><path d="M280.7,795.24c.31,2.12-.19,3.86-2.22,4.78a2.73,2.73,0,0,1-2.62-.13c-4-2.31-6.28-13.89-8.06-17.17a27.65,27.65,0,0,0-1.05-3.45c0-.13-.09-.27-.14-.4v0c0-.07-.05-.13-.07-.2-.78-2.25-1.77-5-2.52-7.68l0-.11c-.26-.93-.49-1.83-.66-2.69a0,0,0,0,0,0,0c0-.17-.07-.33-.1-.51a13,13,0,0,1-.28-2.81v-.07c.05-1.11.37-1.89,1.08-2.13a.46.46,0,0,1,.21,0,.62.62,0,0,1,.16,0h0a3.15,3.15,0,0,1,1.22.21l.39.15.41.19h0c.23.38.44.76.65,1.14l0,.06c.49.91,1,1.84,1.4,2.77.81,1.7,1.56,3.44,2.28,5.19.51,1.22,1,2.45,1.52,3.67.63,1.52,1.28,3,2,4.53C275.16,783.75,280,790.44,280.7,795.24Z"/><path d="M392,755.76a2.56,2.56,0,0,1-.76.17,3.39,3.39,0,0,1-3.88-1.89,8.07,8.07,0,0,1-.9-2.93c-.06-.21-.13-.44-.21-.65-.38-1.26-.79-2.52-1.2-3.77-.88-2.68-1.79-5.36-2.58-8.07-.15-1.43-2.94-9.09-4.06-14.65-.07-.31-.12-.61-.18-.91-.49-2.81-.44-4.91.76-5a2.18,2.18,0,0,1,1.28.34h0l0,.06C382.76,723,398.93,753.15,392,755.76Z"/><path d="M392.44,751.8a1.18,1.18,0,0,1-.18.21q-2.42,1.05-4.89,2c-9.43,3.73-19.34,6.78-28.35,11.6-23,10.79-46.06,21.53-69.56,31.27-1.46.23-5.67,2.3-9,3.27-2.18.62-4,.79-4.55-.29a2.4,2.4,0,0,1,0-1.64c1.6-1,3.23-2,4.87-3,5.53-3.35,11.31-6.49,17.12-9.37l4-1.92c.27-.11.53-.21.79-.33,7.63-3.16,15.13-6.62,22.59-10.16q2.59-1.22,5.16-2.46c7.88-3.78,15.74-7.61,23.68-11.25q2.64-1.21,5.31-2.4,6.74-3,13.59-5.73,2.73-1.08,5.49-2.09l2.1-.78a38.32,38.32,0,0,0,4.57-2.06c2-1,4.08-1.59,6.27-.56A3.77,3.77,0,0,1,392.44,751.8Z"/><path d="M392.41,755.29c-.13.17-.26.32-.4.47-2.47,2.58-6.9,2.49-10.05,4-8.18,3.38-15.83,8-24.31,10.66-16.92,7.47-33.28,16.22-50.56,23-2.1,1-24.92,9.32-26.68,6.77-.23-.33-.11-.83.44-1.55q9.34-4.59,18.76-9.06l4.51-2.14q11.28-5.35,22.6-10.67l5.08-2.39q8.79-4.15,17.55-8.37c8.63-3.18,16.82-7.3,25.22-10.94Q377,754,379.49,753c.95-.37,1.9-.75,2.86-1.1a23.52,23.52,0,0,0,3.91-1.44c1.55-.61,3.11-1,4.64-.26a3.55,3.55,0,0,1,1.54,1.6A3.69,3.69,0,0,1,392.41,755.29Z"/><path d="M377.94,724.21c-35.73,13.42-70.28,29.89-106.5,42-1.67.42-6.46,2.23-6.37-.56a1.33,1.33,0,0,1,1.05-.94c22.07-12.77,45.8-21.88,69.54-31,13.78-5.6,27.47-14.27,42-16.58C380.79,718.25,381,723,377.94,724.21Z"/><path d="M190.48,435.51c-29.9,12.25-66.52,4.67-87.48-20.42-15.44-20.18-22.24-47.72-14.31-72.25,6.75-34.46,31.17-52,63.3-61.12,14-4.23,27.89.1,41.44,3.71,12.16,4.2,20.84,14.59,28.32,24.61,14.14,19.39,22.47,45.5,16.05,69.23C228.77,402.48,214.21,425.37,190.48,435.51Zm-2.08-7c17.78-8.21,30.67-23.54,38.84-41,8.48-12.84,8.91-29.12,5-43.67-5.31-19.53-18.45-36.8-34.42-49-6.8-4-14.8-4.42-22.15-6.95-14.91-3.32-30.47,1.75-43.7,8.5-4.26,2-8.12,6.44-12.82,6.86-25.36,23.54-36.51,65.17-17.69,95.84C116.9,430.16,157.42,441.44,188.4,428.55Z"/><path d="M100,381.82c-7-1.13-5.19-13.43,1.93-11.1C107.4,372.46,106.43,383.06,100,381.82Z"/><path d="M225,356.23c-8,0-7.2-13.61.73-12.71C232.47,344.17,231.44,356.16,225,356.23Z"/><path d="M159,299.2c-5.5,1.45-11-6.1-6-10.07C160.16,284.46,169.07,296.49,159,299.2Z"/><path d="M163.49,431.9c-8.41-1.28-8.74-13.67.84-12.79C173.7,419.15,171.93,432.44,163.49,431.9Z"/><path d="M108.75,332.71c-6.33.86-9.08-8.77-1.8-9.67,2.38-.31,5.5,2.15,5,4.72C111.47,329.73,111.13,332.22,108.75,332.71Z"/><path d="M130.81,412.79c1.24,2.9-.53,6.81-3.84,7C114.41,418.46,123.46,399.75,130.81,412.79Z"/><path d="M200.3,311.42c-6.32,1.91-11.08-10.19-4.69-12.77C202.89,296.31,208.27,308.9,200.3,311.42Z"/><path d="M209.68,329.75c8.86,19.32,11.13,44.84-1,63.25,10.35-8,14,11.59,2.3,10.83-4.62-1.09-5.23-6.21-3.24-9.58-19,25.74-61.38,31.39-83.77,7a79.65,79.65,0,0,1-15.77-29.4C96.92,333,132.68,291,173.15,302a2,2,0,0,1,2.34.83C189.72,307.3,203.71,315.36,209.68,329.75Z"/><path d="M52.62,239c-6.13,1.44-10-7.29-4.27-10.42C55.65,224.91,61.74,237.88,52.62,239Z"/><path d="M101.87,215.89c-8.05,2.39-12.43-9.35-4.26-12C105,202.33,108.94,212.79,101.87,215.89Z"/><path d="M145.09,195.83c-5.82,2.38-9.8-7.48-5-10.66C147,181,152.24,192.88,145.09,195.83Z"/><path d="M26.91,249.53a3,3,0,0,1-1.85-.23l0,0c-6.68,2.58-5.75-8.8-.34-8.91a4.16,4.16,0,0,1,1.27.17C30.87,241.14,32,248.23,26.91,249.53Z"/><path d="M174.65,179.15a3.42,3.42,0,0,1-1.28.64c-4.72,1.83-7.17-4.19-6.36-7.6.46-2,2.07-3.13,5-1.2C175.75,171.16,177.43,177,174.65,179.15Z"/><path class="cls-2" d="M256.79,313.36c-11.4-23.63-24.58-46.36-37.08-69.43-10.56-15.71-17.14-34.85-32.22-47.07a4.23,4.23,0,0,0-2.37-6.18l-.24-.07a4.57,4.57,0,0,1,.45.43h0a5.18,5.18,0,0,1,1.28,2.49,4.22,4.22,0,0,1-.22,2.57l0,.12a2.39,2.39,0,0,1-.12.22,2.08,2.08,0,0,1-.19.29,1.13,1.13,0,0,1-.1.13,3.05,3.05,0,0,1-1.53,1l-.31.08h0a3.88,3.88,0,0,1-1,.09,4.26,4.26,0,0,1-2.9-1.63c-1.07-1.2-1.86-2.8-2.88-3.91-28.24,8.84-55,22-81.58,34.93C75,238,53.59,247.13,33.61,259.13l-.22.13a6.25,6.25,0,0,1,.33,1.13v0a5.88,5.88,0,0,1,0,2.36,5.17,5.17,0,0,1-.4,1.28s0,0,0,0a4.11,4.11,0,0,1-1.43,1.75l0,0h0a2.86,2.86,0,0,1-2.8.2l0,0a4.6,4.6,0,0,1-.62-.37,5.79,5.79,0,0,1-1.1-1l-.15-.18c8.12,124.54,70,236.18,130.07,342.74,0,0,0,.08.07.11.1-.22.22-.47.37-.75h0c.21-.39.46-.82.73-1.24l0,0a4.78,4.78,0,0,1,2.29-2.1s0,0,0,0a1.12,1.12,0,0,1,.85.15l0,0a2.47,2.47,0,0,1,.82,1h0c-.24,1.37.93,3.64-1,4.13-.42,1.3-.85,2.6-1.3,3.88Q184.1,655.5,210.65,697a3.57,3.57,0,0,1,.38-.14,3.35,3.35,0,0,1,2.64.09h0a4,4,0,0,1,2.08,3.77.06.06,0,0,1,0,.06s0,0,0,0a4.75,4.75,0,0,1-.91,2.69v0c17,25.31,34.25,51,51.82,75.74,0,0,0-.1,0-.16s-.07-.27-.12-.43c-.34-1.27-1.18-3.57-2-6a.42.42,0,0,1,0-.06c-.46-1.45-.91-3-1.22-4.38a0,0,0,0,0,0,0c0-.17-.07-.33-.1-.51a14.38,14.38,0,0,1-.31-2.34.33.33,0,0,1,0-.1c0-1.37.26-2.35,1.14-2.59l.18,0,.16,0h0a3.54,3.54,0,0,1,1.22.21l.39.15.41.19h0c.23.38.44.76.65,1.14l0,.06q4.29-2.5,8.67-4.81l.17-.1a380.42,380.42,0,0,1,35.45-16.1l4-1.61c5.38-2.13,10.79-4.21,16.18-6.29l4.06-1.56c1.21-.44,3-1.25,5.28-2.29,3-1.39,6.76-3.19,10.72-5l.52-.25c3.11-1.45,6.34-2.91,9.45-4.22l.17-.07a78.53,78.53,0,0,1,11.34-4h0a19.2,19.2,0,0,1,3.34-.51h0a3.89,3.89,0,0,1,2.45.52h0a1.32,1.32,0,0,1,1.32.39h0l0,.06c-6-25.06-9.39-50.75-15.44-75.83a.74.74,0,0,0,0-.14c-2-.51-4-1.07-5.93-1.75l-.1,0c-2.59-1.29-2.72-2.59-1.77-3.54a4.68,4.68,0,0,1,1.65-1,8.11,8.11,0,0,1,1.81-.43l.26,0h0q.33,0,.66,0h.35a5.26,5.26,0,0,1,1.4.24c-7-24.45-12.71-49.25-19.08-73.87-.1-.36-.19-.72-.28-1.08-3-11.4-6.09-22.75-9.57-34,0,0,0-.07,0-.11a6,6,0,0,1-.66-.19l-.13,0a7.84,7.84,0,0,1-2.6-1.56c-.73-.7-1.12-1.46-.8-2.11,0,0,0,0,0-.06a1.73,1.73,0,0,1,.77-.67,1.64,1.64,0,0,1,.3-.14l.3-.12a9.51,9.51,0,0,1,1.32-.29h.06A1411,1411,0,0,0,256.79,313.36ZM240,361.8a68.73,68.73,0,0,1-3.72,21.26v0a75.58,75.58,0,0,1-8.61,17.37c-1.24,1.87-2.56,3.69-4,5.47a62.66,62.66,0,0,1-3.44,5.6,66.77,66.77,0,0,1-18.84,18,71.42,71.42,0,0,1-36.22,11.34c-2.06.2-4.14.31-6.23.31a74.09,74.09,0,0,1-45-15.67q-.84-.65-1.65-1.32c-.54-.44-1.07-.91-1.59-1.37a62.14,62.14,0,0,1-15.24-20A70.41,70.41,0,0,1,91,393.66c-.13-.31-.25-.62-.36-1A71.11,71.11,0,0,1,88,384.62c-.11-.36-.2-.74-.29-1.11l-.3-1.28a84.35,84.35,0,0,1-1.32-28.4,90.25,90.25,0,0,1,5.22-21.16.29.29,0,0,1,0-.1,86.08,86.08,0,0,1,14.46-24.83c.47-.58,1-1.14,1.45-1.7,7.44-8.58,22-16.93,36.64-21.78l.41-.14A78.17,78.17,0,0,1,165.55,280a38.36,38.36,0,0,1,6.89.33c1.4.33,2.82.64,4.23,1l.1,0c2.3.51,4.62,1,6.93,1.55,2,.47,4,1,5.91,1.55l.28.08a58.59,58.59,0,0,1,9.28,3.5l.1.06c1.16.57,2.29,1.18,3.39,1.85.72.58,1.44,1.18,2.15,1.78l0,0a109.61,109.61,0,0,1,10.28,9.95h0a93.57,93.57,0,0,1,15.36,22.73,78.08,78.08,0,0,1,3.71,9.26A67.49,67.49,0,0,1,240,361.8Z"/><path d="M339.68,886c-5.12-5-6.18-13.45-9.77-19.66-7.83-18.79-18.38-37.74-22.87-57.44.95-2.4,5.22-1.3,4.65,1.34,12.55,22.19,22.26,45.82,32.07,69.3C346.16,882.64,343.7,887.57,339.68,886Z"/><path d="M373.12,864c5.77,9.83-2.63,12.79-5.45,7.72a592.19,592.19,0,0,1-25.49-69.07c-.36-1.27-2-6.49.78-4.83,6.85,10.91,12.27,22.53,17.24,34.37C364.63,842.76,368.7,853.48,373.12,864Z"/><path d="M400,844.61a3.8,3.8,0,0,1-7,2.94c-1-4.1-32.89-70.2-20.59-62.16.91,1.09,3.27,2.06,1.88,3.72A472.12,472.12,0,0,1,400,844.61Z"/><path d="M410.76,811.33c4.22,10,7.91,20.34,11.4,30.64,2.77,9,8.49,18.87,9,28-1.07,2.94-5.68,3-6.78,0-10.87-28.7-21.6-57.27-30.89-86.45-.19-1.11-2.81-7.42-.27-6.14A217.17,217.17,0,0,1,410.76,811.33Z"/><path d="M328.72,891c1.66,4.32-4.59,7-6.5,2.74-.69-3.54-22.87-57.16-15.49-51.53,0,0,0,0,0,0,.33.56,1.14.92,1,1.66C316.43,858.83,322.41,875,328.72,891Z"/><path class="cls-3" d="M53.57,329.29A2.37,2.37,0,0,1,50.72,327c-5.14,3-8.55-67.65-3.12-52.72,2.29.05,2,2.71,2.07,4.35.22,7.45.58,14.88,1.2,22.3.84,6.35,2,12.66,2.94,19C53.75,322.86,57.22,327.75,53.57,329.29Z"/><path class="cls-3" d="M56.78,354.78c-2.22-2.58-2.32-7-2.38-10.38.3-1.87,3-2,3.69-.29C59,346.1,61.54,356.72,56.78,354.78Z"/><path class="cls-3" d="M134.21,378.46c-3.13.51,1.19-6.45,1.52-7.71,3.35-7.77,7.19-15.32,10.71-23,.67-.92.66-2.94,2.13-2.69,1.63.74-.14,2.57-.49,3.65C143.21,358.43,139.13,368.93,134.21,378.46Z"/><path class="cls-3" d="M137.85,391.62c6.44-19.15,15.39-37.66,23-56.47.74-1.24,1-4,3-3.33,2.83.37-6.25,17.4-7,20-3.62,8.59-7,17.29-10.93,25.75C144.42,379.45,140.54,395.32,137.85,391.62Z"/><path class="cls-3" d="M172.92,373c-2.5-.06,1.27-5.45,1.45-6.83,1.15-1.85,3.64-12.19,5.79-11.25,2,1.33-5.77,14.61-6.74,17.4A.68.68,0,0,1,172.92,373Z"/><path class="cls-3" d="M176.46,388.05c-1.41.54-1.25-.68-.9-1.62,3.8-10.59,8.3-20.9,12.62-31.29a163.52,163.52,0,0,0,6.06-15.94,1.33,1.33,0,1,1,2.49.93q-9.12,24.08-20.34,47.21A.36.36,0,0,1,176.46,388.05Z"/><path d="M42.87,432.66c2.33,7.56,4.74,15.12,7.62,22.49.56,3.46,6.73,9.11,2.69,11.74-5.58,2.29-12.73-30.69-11.4-34.95C42.32,431.31,44,432.09,42.87,432.66Z"/><path d="M31.72,442.44a144.88,144.88,0,0,0,7.33,20.49c1.05,2.35,5,8.15-.21,7.82-2.48.55-11.31-30.25-7.34-29.26A.49.49,0,0,1,31.72,442.44Z"/><path d="M290.6,356.25a2.25,2.25,0,0,1-2.89-1.27A147.22,147.22,0,0,0,279,335.4c-3.06-3.29,2.63-5.7,3-1.85C283.77,337,295.22,354.2,290.6,356.25Z"/><path d="M305.91,353.07c-4.11,1-4.1-5.25-5.75-7.73-2.23-5.85-5.59-11.46-8.61-16.68,2.45-5.88,13.61,16.76,14.69,19C307.25,349.37,308.4,352.05,305.91,353.07Z"/><path d="M164,819.41c.51,3.66,8.84,17.59,5.67,19.17-3.32.38-3-5.24-4.46-7.36-1.59-4-3.41-7.92-4.94-12-3.82-12.61-10-24.43-13.23-37.23.35-1.55,1.85,2.12,2.14,2.49A191.74,191.74,0,0,1,164,819.41Z"/><path d="M141.28,795.78c4.9,11.62,9,23.51,13.4,35.34.31,2.92,6.12,12.53,3.16,13.77-3,2.23-8.31-20.15-10.15-23.19-.36-3-11.61-29.66-7.07-27.72C140.84,794.56,141.64,795.12,141.28,795.78Z"/><path d="M474.19,678.14c-3.4.87-3.17-4.18-4.4-6.21-3.59-9.08-8.18-17.77-11.12-27.11-3.4-8.3,2.7-5.91,1.52-3.81C461.52,647.66,479,674.9,474.19,678.14Z"/><path d="M492.26,689.42c-3.79.69-4.27-7-6-9.43-5.9-14.12-11.42-28.67-16.29-43.08a.69.69,0,0,1,1.26-.14,191,191,0,0,1,14.48,31.72C486.35,671.82,496.22,688.82,492.26,689.42Z"/><path d="M299.76,789.88a153,153,0,0,1-10.48-28c-2.59-1.81,0-7,2.14-2.87,4.65,9.33,8.85,18.83,12.71,28.48A2.6,2.6,0,0,1,299.76,789.88Z"/><path d="M326.79,776.89c-1.2-1.84-15.8-35.81-8.44-30.88h0c4.42,9.27,9.11,18.39,13.21,27.8A2.85,2.85,0,0,1,326.79,776.89Z"/><path d="M357.89,761.49c-3.31,1.18-4.27-2.47-5.11-4.84-2.92-7.23-5.9-14.51-7.51-22.17-1-3.67,3.5-3.16,3.31-.28C349.93,739,364.12,759.57,357.89,761.49Z"/><path d="M375.76,755.82c-2.54-.74-3-5.51-3.89-7.75-2.35-8-5-15.83-7.48-23.71h0c.17-3.15,3.1-.59,3.63,1.06a.93.93,0,0,1,.67,1.19c4.5,8,7.5,16.74,10.57,25.39A2.9,2.9,0,0,1,375.76,755.82Z"/><path d="M147.12,698.79c-4.75-.41-10-7.08-14.42-9.69h0c-.47-4.83,12,5.22,13.82,6.12,4.42-8.16,8.78-16.33,13.73-24.21,3.2-6.58,6.92-12.87,10.68-19.13.91-1.38,1.25-4.5,3.51-3.7a1.64,1.64,0,0,1,.83,2.15c-6.81,11.93-13.07,24.14-20.16,35.89C153.38,689.11,150.22,698.09,147.12,698.79Z"/><path d="M401.61,583.54c-9.75-3.31-20.11-6.09-29.86-9.57-2.18-1.28-21-7.26-18.1-9.71.59-.48,2.12-.77,1.72.43,15.28,4.24,30.69,8.85,45.35,14.92,2.12-4.93,4.7-9.65,6.7-14.63,1.52-2.09,1.66-8.71,4.79-8.21a1.46,1.46,0,0,1,.74,1.9c-3.13,7.56-7,14.85-9.33,22.7A2.51,2.51,0,0,1,401.61,583.54Z"/><path d="M348.22,563.59c-1.67-.47-4.14-.83-4.81-2.46,1.38-.77,3.54.23,5.17.23A1.13,1.13,0,0,1,348.22,563.59Z"/><path d="M346.44,555.39c-1.37-3.41,4-5.52,5.29-2.08S347.75,558.82,346.44,555.39Z"/><path d="M362.32,560.54c-1.14-2.83,3.29-4.57,4.38-1.73S363.4,563.39,362.32,560.54Z"/><path d="M378.55,566.09c-1.2-3,3.52-4.88,4.68-1.84S379.72,569.12,378.55,566.09Z"/><path d="M392.53,569.08c-1.16-2.88,3.37-4.67,4.48-1.76S393.64,572,392.53,569.08Z"/><path d="M144.83,681.24c-1.29-3.21,3.73-5.18,5-2S146.06,684.46,144.83,681.24Z"/><path d="M153.88,664.92c-1.29-3.21,3.72-5.17,5-1.95S155.11,668.14,153.88,664.92Z"/><path d="M162.36,648.88c-1.22-3,3.55-4.91,4.71-1.85S163.53,652,162.36,648.88Z"/><path d="M169,636.28c-.86-2.15,2.5-3.47,3.32-1.31A1.79,1.79,0,0,1,169,636.28Z"/><path d="M89.64,69a2,2,0,0,1-1.7,0,169.86,169.86,0,0,1-19-4.72A96.79,96.79,0,0,1,53.35,59c-3.87,8-9,15.44-12.86,23.5-1.35,2.72-2.37,5.6-3.62,8.38-.45,1.34-2.13,2.91-3.4,1.53a4.57,4.57,0,0,1-.76-2.59c-.16-3.29-.06-6.58-.09-9.86a183.41,183.41,0,0,1,2.49-28.18c-9.21,1.19-18.17,3.27-27.44,4C5.76,55.84-.91,57.89.1,54.2c1.56-2,4-3.17,5.86-4.79,7.26-6,15.48-10.62,23.07-16.15-.15-5.78-.53-11.54-1-17.3-.73-.67-.73-1.81-.8-2.73C27,10.81,27.07,8.45,27,6a35,35,0,0,1,0-4.58A1.86,1.86,0,0,1,30.14.51a74.34,74.34,0,0,1,5,7,37.19,37.19,0,0,0,7,8.77c3.9,4,6.46,8.83,11.12,11.94A194.68,194.68,0,0,1,75.57,17.43a33.58,33.58,0,0,1,4.56-1.66,2.62,2.62,0,0,1,2.09.15c1.18.78.83,2.26.11,3.22-1,1.83-2.15,3.61-3.22,5.41-3.45,6.54-7.58,12.65-11.54,18.87,3.89,2.5,7,6,10.35,9.16A81.07,81.07,0,0,1,88,63.67C88.92,65.17,92.1,67.39,89.64,69Z"/></g></g></svg>