<svg xmlns="http://www.w3.org/2000/svg" xmlns:xlink="http://www.w3.org/1999/xlink" viewBox="0 0 774.6 850.67"><defs><style>.cls-1{fill:none;}.cls-2{fill:#fff;}.cls-3{fill:#7a529d;}.cls-4{clip-path:url(#clip-path);}</style><clipPath id="clip-path" transform="translate(-36.57)"><path class="cls-1" d="M66.56,544.08s7,12.19,57.66,10.8S188.35,547,188.35,547l35.1-16.07-29.84-63.15-80.15-27.41L21.51,466.06,0,527.47l22.55,40.25Z"/></clipPath></defs><title>imagen 6</title><g id="Capa_2" data-name="Capa 2"><g id="Capa_1-2" data-name="Capa 1"><path d="M270.41,234a1.55,1.55,0,0,1-.62,2.36c-1,.37-1.93-.19-2.91-.21a13.18,13.18,0,0,0-6,1.18,16.06,16.06,0,0,0-6,5.83c-.58.92-.58,2.11-1.29,2.92a1.39,1.39,0,0,1-2.17-.28c-.69-1.43.34-3,.93-4.34,2.08-3.4,5.07-6.61,9-7.83C264.05,232.85,268.07,232,270.41,234Z" transform="translate(-36.57)"/><path d="M273.5,251.49c-2.37,1.65-6.79-.6-6.1-3.64-1.32,1.06-3,2-3.61,3.68a3.72,3.72,0,0,0,3.79,5.29C270.3,256.44,273.27,254.42,273.5,251.49Zm2.15-4.74c1.52,3,.31,7.2-1.82,9.61-1.95,2-4.79,3.6-7.63,3.11-2.91-.07-5-2.57-5.47-5.29h0a6.87,6.87,0,0,1,0-2.26,5,5,0,0,1,.13-.67,5.15,5.15,0,0,1,.36-1,9.25,9.25,0,0,1,2-2.68l.48-.45.78-.69a10.7,10.7,0,0,1,1.79-1.4,8.53,8.53,0,0,1,8.79-.25l-.1,0a1.82,1.82,0,0,1,.58.46A1.51,1.51,0,0,1,275.65,246.75Z" transform="translate(-36.57)"/><path d="M260.82,251.25c1-.07,2,.61,1.75,1.77a1.72,1.72,0,0,1-1.81,1.16h0a14,14,0,0,1-3,0,1.32,1.32,0,0,1-.32-2.39,6.48,6.48,0,0,1,3.12-.53Z" transform="translate(-36.57)"/><path d="M263.31,247.58a1.35,1.35,0,0,1,.92,1.78c-.39,1-1.59,1-2.49.92l-.56-.05a4.84,4.84,0,0,1-2-.56,1.39,1.39,0,0,1,.51-2.56,12.9,12.9,0,0,1,3.49.44Z" transform="translate(-36.57)"/><path d="M266.61,245.37c1,1.64-.72,2.74-2.23,2a5.81,5.81,0,0,1-.72-.27c-.94-.44-1.8-1.2-1.33-2.31a1.53,1.53,0,0,1,1.8-.88,6.92,6.92,0,0,1,2.1,1.1A4.27,4.27,0,0,1,266.61,245.37Z" transform="translate(-36.57)"/><path d="M268.77,266.05c1.08-.48,2.59.65,1.57,1.7a6,6,0,0,1-.17,1.63,1.16,1.16,0,0,1-2.11.28C267.47,268.54,267.54,266.7,268.77,266.05Z" transform="translate(-36.57)"/><path d="M275.08,263a2.55,2.55,0,0,1,.71,2.67,1.41,1.41,0,0,1-2.55.33C272.39,264.66,273.21,262.07,275.08,263Z" transform="translate(-36.57)"/><path d="M281.39,262.26a1.5,1.5,0,0,1-2.78.75c-.9-1.32.16-3.43,1.84-2.6A2.09,2.09,0,0,1,281.39,262.26Z" transform="translate(-36.57)"/><path d="M216,436.79a37.21,37.21,0,0,1-6.62-3.31c-1-.6-1.24-2.35,0-2.73.93-.23,1.62.58,2.42.92,1.84,1,4.07,1.47,5.52,3.07A1.31,1.31,0,0,1,216,436.79Z" transform="translate(-36.57)"/><path d="M218.22,428.43c-1.09,0-2.25-1.3-1.26-2.18a2.23,2.23,0,0,1,1.29-.49c.73-.18,1.44-.43,2.16-.66a30.43,30.43,0,0,0,3.92-1.39c1-.48,1.75-1.29,2.75-1.75a1.49,1.49,0,0,1,2,1.36C228.83,426.1,220.69,428.38,218.22,428.43Z" transform="translate(-36.57)"/><path d="M247.76,378.58c-1.09-.87-2.06-1.89-3.18-2.72s-2.35-2.27-1.43-3.6a1.07,1.07,0,0,1,1.66,0,4,4,0,0,0,.85,1.17c1.1,1.09,5.2,3.23,3.7,5.05A1.22,1.22,0,0,1,247.76,378.58Z" transform="translate(-36.57)"/><path d="M332.17,362c-1-.81-.29-2.37-.23-3.47a15.07,15.07,0,0,1,.54-3.21,1.33,1.33,0,0,1,2.55.52,9.13,9.13,0,0,1-.68,3C333.83,359.91,333.9,362.78,332.17,362Z" transform="translate(-36.57)"/><path d="M346.39,277.44c-.75-1.41.91-2,1.9-2.46a12,12,0,0,0,3.66-2.8,7.56,7.56,0,0,1,1.59-1.45,1.2,1.2,0,0,1,1.7,1.49,12.11,12.11,0,0,1-5.55,5C348.69,277.67,347.18,278.71,346.39,277.44Z" transform="translate(-36.57)"/><path d="M357.58,279c-1.47-.81.47-2.89.93-3.88a24.55,24.55,0,0,0,3.43-7.62c.3-1.23.06-3.5,1.9-3.33a1.38,1.38,0,0,1,1.18,1.55,26.22,26.22,0,0,1-5.26,11.66C359.13,278,358.64,279.39,357.58,279Z" transform="translate(-36.57)"/><path d="M155.67,703.05a16.23,16.23,0,0,1-.35-1.74c-.71-2.25-1.82-4.37-2.36-6.69-1.56-5.52-3.59-11-4.7-16.6-1.7,1.4-3.4,2.79-5.22,4.1-2.65,1.84-5.49,3.37-8.23,5.06a1.09,1.09,0,0,1,.25.46c.72,10.14.74,20.36,1.68,30.49,1.16-.17,2.34-.15,3.51-.26a4.23,4.23,0,0,1,1.28,0l.09-.94c.18-1.66-.27-4.55,1.73-4.93-.95-2.18,2.39-3.28,3.91-4.25A64.9,64.9,0,0,1,155.67,703.05Zm94-337.59c-.88-.54-1.75-1.09-2.65-1.59-4.4-2.11-8.9-4-13.12-6.47-2.11-1.25-3.65-3.17-5.44-4.79-1.77-1.43-3.51-2.91-5.26-4.36a2.71,2.71,0,0,1-.57,0c-1.91-.69-2.18-3.13-3.05-4.73-.75-1.33-.61-3.09,1.28-3,1.42.31,1.8,2,2.44,3.16a11.89,11.89,0,0,1,.59,1.37,3.7,3.7,0,0,1,1.23.71c.25-1.33,1.9-2.84,2.29-4,1.46-2.85,1.93-6,2.66-9.07a34.21,34.21,0,0,1-6,.85,21,21,0,0,0-8.82,2.9,47.25,47.25,0,0,0-5.19,4.13c-2.74,3.24-4.16,7.37-5.13,11.44a21.94,21.94,0,0,0-.45,5,2.41,2.41,0,0,1,0,1.1c.36.15.72.33,1.05.45a25,25,0,0,0,6.76,1.73c1.47.32,2.81,1,4.26,1.4,3.16.79,6.44.8,9.58,1.7,1.73.34,3.49.4,5.24.59s3.56.7,5.38.8c2.15.09,4.3.27,6.44.51S247.5,365.24,249.62,365.46Zm49.07-34.8a4.71,4.71,0,0,0-.38-.75l-.06-.11a2,2,0,0,1-.61-.5c-1.16-1.41-1.82-3.48-3.76-4-3.7-.8-7.51-.07-11.24-.63l-.4-.06c-.11.78-.22,1.46-.32,2-.14.85-.25,1.69-.34,2.54h0a1.45,1.45,0,0,1,0,.42c.12,3.15,1.67,4.86,4.61,5.74l.24.07c.27-.53.55-1.05.85-1.55a1.81,1.81,0,0,1,3.17,1.58c-.93,2.12-2.08,4.16-3.15,6.22-1.48,2.54-3.51,4.71-5.19,7.1-1.09,1.71-2.14,3.45-3.24,5.15.71-.74,1.42-1.47,2.17-2.18,1.73-1.61,3.42-3,5.07-4.54a68.19,68.19,0,0,0,4.77-5.54C294.14,338.51,297.26,335,298.69,330.66Zm1-34c2.58-2.33,1.24-4.48,0-7.1a6.11,6.11,0,0,0-.41-.75,32.84,32.84,0,0,1-11.89.85c-3.73-.51-7.48-2.19-9.69-5.34-1-1.69-2.39-3.64-2.48-5.66.64-2.28,3.24-3.11,5-4.35a43.83,43.83,0,0,1,3.73-2.62c1.3-.7,2.7-1.17,4-1.84,2-1.11,4-2.25,6-3.41.37-.21.72-.48,1.09-.7,0-.06,0-.11-.05-.16-1-2.05-1.89-4.18-3-6.19-.42-.62-1-1.33-.54-2.1a1.52,1.52,0,0,1,.63-.65,2.27,2.27,0,0,1,1.37-1.47c3-1.23,5.54-5.2.4-4.86-3.44.46-7.33,1.51-9.38-2.18-4.11-6.91-8-14-13.68-19.68-2-1.94-4.66-2.86-7-4.31a4.87,4.87,0,0,1-1.33-1,3.08,3.08,0,0,1-.61.29c-.69.35-1.36.72-2.06,1.06A71.53,71.53,0,0,0,252.6,228c.12,1.83.88,5.51-1,5.76a1.33,1.33,0,0,1-1.46-1,11.2,11.2,0,0,1-.1-3.27l-2.11,1.09a.75.75,0,0,1,0,.16c-.08,2.05.27,4.15-.22,6.17a1.25,1.25,0,0,1-2.4,0,14.21,14.21,0,0,1-.26-4.74,34.86,34.86,0,0,0-3.41,2.21,1.05,1.05,0,0,1,0,.43c0,2.21.43,4.44.11,6.64a1.27,1.27,0,0,1-2.5,0,37,37,0,0,1-.1-5.16c-3.33,2.52-4.84,4.87-5.68,9.46a33.8,33.8,0,0,0,.39,10.14c.88,4.31,2.55,8.4,3.83,12.6,1.71,4,3.14,8,4.53,12.14.85,1.49-.78,3.26-2.19,2-1.7-1.82-4.13-2.89-5.74-4.85l-.11-.11a1.58,1.58,0,0,1-.77.2,13.73,13.73,0,0,0-4.17,1.18,4.52,4.52,0,0,0-2.76,5,18.57,18.57,0,0,0,2.35,7.73,6.08,6.08,0,0,0,5,2.63c1.45-.31,2.44-1.53,3.67-2.23a1.42,1.42,0,0,1,1.91,1.67,3.75,3.75,0,0,1-.8,1.15,71.82,71.82,0,0,1-1.28,7.72,113.58,113.58,0,0,0-1.52,12.61c-.48,5.61-1.2,11.21-1.75,16.81-.1,1.78-.13,3.55-.09,5.32a3.4,3.4,0,0,1-.35,1.83,1.39,1.39,0,0,1-.48.51c0,.12,0,.23-.05.34a9.78,9.78,0,0,1-1.17,4,17.81,17.81,0,0,1-3.49,4.11c1.06.83,2.11,1.65,3.11,2.54a21.84,21.84,0,0,0,6.47,4.86c5.2,2.5,10.61,4.59,15.44,7.79,2.12,1.16,4.37,2.06,6.55,3.09,1.47.23,2.93.56,4.37.85a43.34,43.34,0,0,0,6.09-7.71c1.39-2,3.08-3.78,4.42-5.82,1.46-2.2,2.77-4.49,4.18-6.72s3.23-4.19,4.72-6.37a23.3,23.3,0,0,0,1.25-2.24c-1.82-.71-3.74-1.5-4.92-3.15a7,7,0,0,1-1.1-2.12,1.28,1.28,0,0,1-.46-.6,5.07,5.07,0,0,1-.08-2.42c.23-2,.5-4,.74-6,.06-.47.11-.95.17-1.42a1,1,0,0,1,.05-.38,69.29,69.29,0,0,1,2.11-10.19c.83-4.09,4.5-5.61,7.69-7.6,1.21-.81,2.32-1.74,3.52-2.56C295.16,300.52,297.83,299.08,299.72,296.68Zm4.45,489.38a2.43,2.43,0,0,1,.32-.24q-1.51-2.21-3.11-4.36c-1.89-2.53-3.31-5.4-5.38-7.78a1.91,1.91,0,0,1-.45-.85,2.87,2.87,0,0,1-.22-2.37c.37-1.9.84-3.77,1.22-5.66,1.24-7.16,3.11-14.2,4.69-21.29a1.91,1.91,0,0,1-1-.28c-3.63-.84-6.86-2.84-10.48-3.67-2.26-.57-4.41-1.46-6.62-2.22s-4.42-.9-6.51-1.73c-.24,7-.61,14.06-1.22,21.07q-.22,2.82-.33,5.64a1.62,1.62,0,0,1,.69,0c1.21.49,2,1.65,3,2.47,2.79,2.63,5.5,5.35,8,8.24,4.91,5,10.2,9.61,14.6,15.08C302.29,787.41,303.28,786.81,304.17,786.06ZM387.93,121.6c-.24-4.37.93-8.86.22-13.16-1.29,1.63-1.73,3.77-2.21,5.76-.72,3.46-1.3,7-2,10.43a14.81,14.81,0,0,1,1.68-1.68A5.74,5.74,0,0,1,387.93,121.6Zm14.68,48.66c.09-1.86.14-3.71.22-5.56a3.26,3.26,0,0,1-1.45.24A47.75,47.75,0,0,1,396,165c-4.52,0-9,.09-13.55-.05l-3.92-.07a5.2,5.2,0,0,1-1.18-.07c-.1.51-.19,1-.3,1.52a1.33,1.33,0,0,1-.52.76c-.25,1.2-.48,2.4-.78,3.58-.48,2-1.2,3.92-1.8,5.64-1.15,3.32-1.83,6.76-2.79,10.13-1.9,6.7-3.1,13.58-5.05,20.26-3.14,8.66-6.21,17.34-8.57,26.24a109.83,109.83,0,0,1-5.82,18.62c-1.75,4.32-3,8.45-4.7,12.73-.78,2.29-1.43,4.62-2.29,6.89a70.19,70.19,0,0,1-3.38,6.85,68.86,68.86,0,0,1-3.73,6.87c-2.22,3.4-3.6,7.26-6,10.56-1.48,2.08-3.35,4.29-4.66,6.36-1.91,2.86-3.56,5.87-5.34,8.81-2.09,3.6-5.08,6.55-7.45,9.95-3,4.77-3.61,8.14-9.52,10.31a17,17,0,0,1-3.13,1.64,27.62,27.62,0,0,1-3.89,6.6,57.2,57.2,0,0,1-4.41,4.54c-1.31,1.52-2.5,3.14-3.87,4.6a51.19,51.19,0,0,1-4.38,4,68.06,68.06,0,0,0-5.74,5.78,1.33,1.33,0,0,1-.42.5,2.29,2.29,0,0,0-.48.7c-3.32,8.5-2.28,17.91-2.05,26.84.87,10.41.72,20.87,1.3,31.31a2.39,2.39,0,0,1,.56,1.58,3.18,3.18,0,0,1,.25,1.73c-.17,1.88-2.31,3.09-3.72,1.58a4.08,4.08,0,0,1-.15-4.55c-.49-8.72-.77-17.44-1-26.17-.62-9.39-1.56-18.95.31-28.23-.62.6-1.23,1.22-1.82,1.85-.91,1-3.3,3.63-5.35,4.67-1.34,1.26-2.67,2.12-3.81,2.09-1.64-.66-3.22-1.49-4.82-2.28-1.81-.2-3.64-.29-5.46-.43-.32-.07-.65-.14-1-.19l.38.5c5.62,8,5.09,18.32,5,27.66-.17,5.2.13,10.4.41,15.6.05.9.05,1.7.16,2.56a1.54,1.54,0,0,1-.14,1.73c-.1,1.91-.89,4.8-3.3,4.56-2.8-.63-2.57-5-.69-6.57a1.63,1.63,0,0,1,1.16-1.32c-.39-5.86-.66-11.69-.6-17.56,0-9.24.28-19.74-6.39-27a2.75,2.75,0,0,1-.5-.59c-1,0-2-.06-3-.07-3-.24-6-.55-9-.76-3.94-.84-8-.87-11.9-1.77-3.79-.57-7.63-.92-11.17-2.54-2.84-.61-5.74-1-8.35-2.37a7.74,7.74,0,0,1-1.26,1.24c-2.05,1.85-4.33,3.45-6.46,5.21-2.43,2.21-3.75,5.3-5.56,8a52.24,52.24,0,0,0-3.37,5.55c-2.1,4.3-3.68,8.43-6.18,12.36-2.42,3.59-3.84,7.68-5.62,11.6-1.22,2.66-2.85,5.12-4.23,7.71-1.41,2.77-2.63,5.62-3.94,8.43-2.45,5.16-5.67,9.77-8,15.07-2.08,4.95-5.16,9.39-7.23,14.35-.81,1.82-1.46,3.73-2.32,5.53a4.48,4.48,0,0,1-1.57,2.06c-.94.55-2.16.2-3.11-.05-3-.69-5-3.21-6.64-5.62-2.77-3.46-5.17-7.2-7.59-10.91a58.59,58.59,0,0,0-5.84-7.81c-1.49-2-2.64-4.28-4-6.38-1.41-1.87-2.82-3.74-4.13-5.69-3.69,3.8-8,6.83-12,10.28A78.62,78.62,0,0,1,98,438.79c-.59.55-1.12,1.37-2,1.25a1.7,1.7,0,0,1-.47-.11c.44.83.9,1.65,1.39,2.45,1.9,2.75,2.92,5.94,4.36,8.93,1.83,3.74,4.62,7,6,10.92a61,61,0,0,0,2.9,7.58c1.55,3.08,3.35,6,4.85,9.15,2.43,5.63,6,10.63,9.7,15.48,1.24,1.79,2.13,3.31,3.47,4.91a77.56,77.56,0,0,0,6.13,5.9c3.56,2.35,11,1.26,14.09-1.52,2-1.92,4.33-3.54,6.27-5.54a95.16,95.16,0,0,1,7.66-9.23c3.07-3.72,5.68-7.8,9-11.34,2.27-2.55,3.64-5.19,5.68-7.77,1.06-1.29,2.15-2.55,3.14-3.89,1.4-2.07,2.42-4.37,3.88-6.41s3.18-4.15,4.47-6.06c1.65-2.46,3.15-5,4.77-7.5,1.52-2.32,3.36-4.4,5-6.66,1.37-2.23,2.76-4.44,4.34-6.53a3.6,3.6,0,0,1,1.26-1.39,10.7,10.7,0,0,1,1.22-2.61,8.06,8.06,0,0,1,1.72-2.8,1.43,1.43,0,0,1,2.28,1.32,8.85,8.85,0,0,1-1.15,2.9,13.75,13.75,0,0,1-1.53,2.49h0l-.09.09a2.34,2.34,0,0,1,0,.75c.15,6.56,0,13.18-.43,19.68-.43,3.76-.7,7.54-.9,11.33-.13,2.51-.65,5-.59,7.51-.69,5.12,4.05,7.28,6.24,11.19,2,3.52,14.92,1.51,18.55.82,2.35-.31,4.72-.36,7.05-.79s4.77-1.14,7.19-1.54a120.92,120.92,0,0,0,13.22-2.28c2.53-.43,5.25-.9,7.67-1.42A141.51,141.51,0,0,1,284,475c8.38-1.27,16.76-2.73,25.22-3.44A42.08,42.08,0,0,0,320.38,469l.06,0c.41-.74.93-1.46,1.21-2.08a45.7,45.7,0,0,0,2.76-8.93c1.56-12-.16-24.15-.84-36.16-.41-4.83-.67-9.73-.88-14.56a95.63,95.63,0,0,1-.3-17.5c.1-.85.2-1.69.34-2.54a1,1,0,0,1-.15-.55,60.86,60.86,0,0,1,1.54-14c.23-1.26.45-2.52.57-3.8.1-.76.36-1.84,1.3-1.85,2,.32.92,3.17.88,4.53-.34,2.9-1.13,5.69-1.59,8.55l.19-.12.15-.07a159.48,159.48,0,0,1,10.08-14c1.51-1.87,3.15-3.7,4.75-5.48,2.79-3.31,4.88-7.18,7.94-10.28a53.05,53.05,0,0,0,7.55-9.65c2.42-3.41,5.14-6.63,7.44-10.11,3.63-5.66,7.27-11.3,11-16.89,2.18-3.9,3.79-8.09,6-12,1.65-3.21,3.49-6.32,5.19-9.51a69.31,69.31,0,0,0,3.19-9.29c3.13-10.13,5.94-20.38,8.11-30.76a200.66,200.66,0,0,0,2.63-21c1.3-11.89,1.37-23.85,1.76-35.79.17-3.45.2-6.91.3-10.36C401.84,179.9,402.31,175.06,402.61,170.26Zm11.33-59.36c-1.09,1.44-1.87,3.09-2.87,4.59-1.06,1.67-2.44,3.13-3.4,4.87-1.65,3.43-2,7.43-4,10.69a1.45,1.45,0,0,1-2.43-.81,40.9,40.9,0,0,1,1-7.29c.84-4.92,4.05-9.52,3.65-14.57-.75.17-1,.93-1.34,1.53-1.14,2.4-2.13,4.86-3.05,7.35-1.15,3.39-2.05,6.86-2.87,10.35-.41,1.29-.48,2.81-1.37,3.87a1.57,1.57,0,0,1-2.6-1.16,38.68,38.68,0,0,1,1.09-11.08c1.21-4.15,3.19-8.07,2.38-12.45-3.8,4.79-4.11,11.1-6.7,16.42a6,6,0,0,1,.47,3.18c-.22,3-2.23,5.53-2.8,8.48a10.27,10.27,0,0,0-.16,4c.34,1.92,3.28,8.8.33,9.36-2.22,0-1.86-3-2.3-4.49-.38-2-1.35-3.82-1.38-5.86a18,18,0,0,1,1.21-6.32c.78-2.12,2.39-4.28,1.84-6.64a14.16,14.16,0,0,0-3.77,4.59A40.9,40.9,0,0,0,381,139.94c-1.32,7.13-1.91,14.36-3.09,21.51a10.23,10.23,0,0,1,1.09-.06c2.21-.07,4.43,0,6.64,0,4.07,0,8.14,0,12.21.08a17.27,17.27,0,0,0,4.31-.17,1.49,1.49,0,0,1,.8.18c.07-1.14.15-2.27.27-3.41.09-.66.13-1.35.18-2-.45-1.41.46-3.68.46-5,.45-2.79.81-5.59,1.31-8.37a184.53,184.53,0,0,1,5.14-19.84C411.56,118.88,413.85,115.1,413.94,110.9Zm2.08-2.49c1.23,1.52,1.11,3.68.75,5.5a52.72,52.72,0,0,1-2.58,8.11c-1.31,3.76-2.15,7.66-3.32,11.46a133.89,133.89,0,0,0-3.11,15.89c-.24,1.28-.4,2.58-.56,3.87a33.45,33.45,0,0,1-.29,3.73c-.34,4.26-.45,8.51-.6,12.77-.37,5.95-1.07,11.85-1.16,17.8-.41,14.63-.85,29.29-2.29,43.86-.64,6.81-1.2,14-2.59,20.64-2.31,11.72-5.79,23.14-9.19,34.57-1.79,7.09-6.21,13.05-9.37,19.55-1.28,2.49-2.29,5.12-3.64,7.58a81.66,81.66,0,0,1-4.46,6.88c-3.66,5.58-7,11.41-11.12,16.64-3.05,3.51-5.28,7.59-8.14,11.22-1.56,1.85-3.54,3.75-5.06,5.51s-2.88,3.82-4.26,5.78c-3.06,4.09-6.74,7.68-9.76,11.81-2.59,3.44-5.09,6.93-7.37,10.58a8.88,8.88,0,0,0-.5.75,4.32,4.32,0,0,0-.19.68,36.33,36.33,0,0,0-1.22,7.17c-.57,7.72.46,15.39.79,23.09.44,5.67.77,11.35,1.19,16.91a177.56,177.56,0,0,1,.62,22,33.35,33.35,0,0,1-1.29,8.78c-.62,1.83-2.21,8.43-4.49,10.3.14,2.85.12,5.71.34,8.56a81.32,81.32,0,0,1,.87,13.23c0,10.82-.38,21.62-.46,32.44,0,3,.42,6,.55,9,0,6.18.17,12.37.16,18.55-.09,4-.65,8-.82,11.95-.09,3.39-.18,6.78-.36,10.16s-.46,6.8-.64,10.2c-.2,4.68.09,9.37-.08,14-.34,6.2-1.17,12.37-1.3,18.58-.56,7.87-1.43,15.71-1.65,23.6-.89,14.79-2.79,29.5-4.57,44.21-2.18,13.57-4.79,27-7,40.58-1.84,12-5,23.83-7.55,35.73-.39,2.42-.88,4.81-1.35,7.22-.08.47-.14,1-.26,1.57a41.67,41.67,0,0,1,3.13,4.66c1.77,2.4,3.49,4.84,5.22,7.26,2.75,4.57,5.82,9,8,13.86,1.27,2.64,2.41,5.48,1.85,8.46-.24,2.77-3.52,4.59-6.08,3.84-6.71-2.83-11.15-8.89-16.46-13.61a99.7,99.7,0,0,1-8.84-9.2c-3.95-4-8.27-7.74-11.64-12.31-1.6-2.19-3.3-4.78-2.33-7.58-.09-.74-.27-1.66.25-2.18.3-7.28,1.05-14.73,1.4-21.9.51-12.7.34-25.36,1.11-38,.48-8.23,1.21-16.81,1.78-25,.37-10.49.29-21,.7-31.45.3-7.42,1.16-14.8,1.88-22.18.92-12.87.83-25.79,1-38.68,0-8.47.4-17-.2-25.42-1.15-8.65-2.22-17.32-3.62-25.93a7.28,7.28,0,0,0-5-5.56c-.28-.1-.58-.18-.88-.28a6.7,6.7,0,0,0-3.31,1.78,10,10,0,0,0-1.43,3.05c-1,3.43-1.78,6.94-2.63,10.42-1.48,6.34-3.17,12.63-4.59,19-.94,4.35-1.78,8.73-2.4,13.15-1.37,7.35-2.94,14.68-4.75,21.94s-3,14.6-5.82,21.51c-2.1,5.26-5.2,10-7.92,14.94-1.14,2.15-2.62,4.57-3.91,6.52-3.95,6.21-7.53,12.73-12.35,18.33-5.3,4.73-10.18,9.87-15.69,14.35-4.5,3.29-9,6.55-13.38,10-3.15,2.21-6.61,3.91-9.8,6.07a53,53,0,0,1-11.87,7.09c-3.14,1.66-5.71,4.2-8.88,5.82-3.59,1.82-7.37,3.28-10.68,5.64-1.21.78-2.44,1.54-3.65,2.34a3.78,3.78,0,0,1-1.45.87,1.85,1.85,0,0,1,.23,1.11c-.33,3.32-.78,6.63-1,10a108.91,108.91,0,0,1-.8,11,35.67,35.67,0,0,1-2,10.63c-1.3,3.16-4.15,9.32-8.42,7.19-3.13-2.15-4-6.39-4.48-9.94-.27-2.28-.14-4.7-.39-7a36.34,36.34,0,0,1-.41-4.17,70.23,70.23,0,0,0-1.2-11c-.58-4.77-1.08-9.56-1.52-14.34-.13-2.59-.08-5.2-.38-7.78-.25-3-.84-6.34.85-9,1.09-1.32,2.71-2.07,4-3.24,3.48-2.81,7.57-4.67,11.22-7.22,2.51-1.72,4.72-3.8,7.05-5.75,2.8-2.37,6.06-4.1,9-6.36s5.35-5.52,8.45-7.83c2.59-1.91,5.24-3.73,7.64-5.88,3.48-3.2,7-6.39,10.55-9.47a52.25,52.25,0,0,0,5.86-5.46,64.78,64.78,0,0,0,6.88-10.21,97.6,97.6,0,0,0,4.61-14.3,179.71,179.71,0,0,0,3.72-18.67c1.43-7.94,1.88-16,2.9-24s2.76-16.17,3.31-24.36c.21-5.15.79-10.54,1.12-15.64.15-8.22.69-16.43,1.55-24.61.47-4.6.76-9.22,1.32-13.8.16-1.33.27-2.65.43-4a1.57,1.57,0,0,1,.09-.43,24.74,24.74,0,0,1-4.34-.8,6,6,0,0,1-3.86-3.32c-1.35-2-3.3-3.6-4.54-5.71-2.57-4.36-1.11-9.63-.86-14.38.43-8.58,1.36-17.12,1-25.72-1.81,3.35-4.37,6.18-6.51,9.31-1.52,2.31-2.9,4.7-4.44,7s-3.42,4.64-5.12,7c-1.52,2.3-2.67,4.82-4.35,7a108.67,108.67,0,0,0-7,9.27c-3.14,3.72-6.27,7.44-9.09,11.42-1.88,2.45-4.27,4.46-6.1,6.95a28.44,28.44,0,0,1-5.6,6.38c-2.19,1.66-4.07,3.74-6.47,5.09a20.81,20.81,0,0,1-10.32,1.81c-5.13-.13-8-4.07-11.38-7.29a37.31,37.31,0,0,1-4.29-5.76c-1.88-2.7-4-5.24-5.76-8a75.13,75.13,0,0,1-4.78-9c-1.27-2.46-2.74-4.8-4-7.26-2-3.41-2.78-7.29-4.41-10.84-1.25-2.38-2.84-4.55-4.18-6.87a75.34,75.34,0,0,1-3.51-7.44,98,98,0,0,1-8.49-17.45,3,3,0,0,1-.29-1.48,1.53,1.53,0,0,1,2.44-1,8.5,8.5,0,0,1,1.7,3c1.15,2.57,2.22,5.18,3.44,7.72a2,2,0,0,1,.56-1c1.6-1.7,3.32-3.3,4.85-5.07,2.73-3.34,6.44-5.63,9.68-8.44a42.84,42.84,0,0,0,4-3.46c.33-.45.58-.87,1.12-1-1.26-2.06-2.31-4.23-3.61-6.27-1.89-2.68-4.07-5.17-5.51-8.14a21,21,0,0,0-7.21-8.15,22.38,22.38,0,0,0-3.94-2.77,15.45,15.45,0,0,0-5.66-1.22c-1.4,0-3-.58-4.3-.05,1.54,1.52,3.77,1.88,5.62,2.89s3.42,2.13,5.21,3.06a1.51,1.51,0,0,1,.77,1.6,2.57,2.57,0,0,1-.16,1.23,38.24,38.24,0,0,0-1.29,6.1c-.18,1,0,2.13-.72,3a1.38,1.38,0,0,1-2.26-.15c-.57-.93-.26-2.07-.2-3.09a31.26,31.26,0,0,1,.95-5.25c.11-.34.21-.74.33-1.15-1.48-.82-3-1.62-4.4-2.54-2.45-1.22-7.3-2.86-6.78-6.27,1.47-4.23,7.79-2.5,11.18-2.2a16.59,16.59,0,0,1,7.54,4,27.26,27.26,0,0,1,6.2,5.83c1.51,2.06,2.6,4.67,4,6.71a66.34,66.34,0,0,1,4.82,7,77.2,77.2,0,0,0,4.38,7.16,117.87,117.87,0,0,1,7.06,10.39c1.63,2.35,3.65,4.38,5.24,6.75,1.9,2.92,3.8,5.86,5.72,8.77.85,1.23,1.75,2.41,2.64,3.6,1.68,2.33,3.22,5.25,6.3,5.83,2-3.79,3.18-8,5.45-11.72,3.12-5,5-10.53,7.8-15.75,1-1.94,2.39-4,3.31-5.92a166.84,166.84,0,0,1,8.1-16.63c1.65-3.22,2.9-7,4.5-10.12,2-3.65,4.23-7.13,5.83-11a60.87,60.87,0,0,1,6.1-11.18c2.2-3.55,4.19-7.39,7.75-9.78,1.68-1.28,3.33-2.59,4.92-4a10.71,10.71,0,0,1,1-.75c-.83-1.05-.44-2.79-.38-4.06a28.66,28.66,0,0,1,1.92-7.92c2.23-6.47,5.24-9.53,10.81-13.25,4-2.63,8.86-3.2,13.53-3.47a25.11,25.11,0,0,1,3.23-.24c.31-1.89.53-3.79.69-5.69.12-.76.22-2.8.51-4.74.13-1.43.25-2.86.38-4.29a8.48,8.48,0,0,1-.86-.06,32.82,32.82,0,0,1-10.11-2.3,28,28,0,0,1-6.75-3.14c-3-2.48-6.18-4.86-9-7.57a27.25,27.25,0,0,1-5.07-7.85,37.26,37.26,0,0,1-2.54-5,19.39,19.39,0,0,1-1.75-3.89,69.59,69.59,0,0,1-2-12.15,31.65,31.65,0,0,1,2.65-12.31,57.91,57.91,0,0,1,2.11-6.15,15.16,15.16,0,0,0-2.68.37,26.63,26.63,0,0,0-11,4.64,20.68,20.68,0,0,0-3.19,3.61,9.52,9.52,0,0,1-1.56,2.25c-2.29,2-5.24,3-7.74,4.7-4.57,3.76-9.32,7.66-11.15,13.45-2.15,6.3-2,13.09-3.63,19.53a40.62,40.62,0,0,1-3.81,9.84,53.52,53.52,0,0,1-5.34,9.14c-5.65,6.94-13.82,11.44-22.39,13.73-4.55,1.39-9.48,1.39-13.71,3.78a17,17,0,0,0-8.6,8.18,53.91,53.91,0,0,1-5.53,8.73c-1.42,2.05-3.08,5.05-6,4.59-5-1.56-3.92-8.74-3.62-12.8a38.47,38.47,0,0,0-4.5,7.75c-.46,1.05-1.1,2.47-2.43,2.47-1.87-.14-2.3-3-2.62-4.48-.58-4.28.07-8.61.15-12.9a51,51,0,0,0-5,5.43,32.64,32.64,0,0,1-3.73,4.62c-4,3.49-7.32-.13-7.24-4.55a28.51,28.51,0,0,1,1.73-9,19,19,0,0,0-3.26,4.21,43.21,43.21,0,0,1-2.28,4.63c-1.88,2.86-5.93,6.07-9.42,4.15-3.5-2.21.27-12.72,2.11-15.54-2.76,2.09-5.42,4.5-8.8,5.51-3,1.13-7.57,1-7.11-3.35a15.64,15.64,0,0,1,2.94-9.79c4-5.31,10.23-8.06,16.36-10.13a63.72,63.72,0,0,0,8.82-4.73c4.71-2.64,6.16-8.05,8.12-12.71a40.49,40.49,0,0,1,4-6.93,33.23,33.23,0,0,1,7-8,46.78,46.78,0,0,1,11.44-6.35,80.76,80.76,0,0,1,12.92-2.93c3.58-.41,7.16-.89,10.72-1.37a44.07,44.07,0,0,0,13.23-3.14c3.46-1.14,6-3.81,8.68-6.12,3.31-2.63,5.51-6.25,8.25-9.39,3.17-3.11,7.06-5.34,10.43-8.22,9.37-7,19.81-6.63,30.72-4.27,4.17,1.06,8.56,2.26,12.09,4.78.89-1.32,1.93-2.54,3-3.77,1.65-2.12,2.88-4.57,5-6.31s4.13-3.89,6.13-5.9a35.45,35.45,0,0,1,5.27-3.83,47.06,47.06,0,0,1,12.76-7c3.26-.89,6.6-1.45,9.87-2.26,4.94-1.37,9.69-2.42,14.66-.46,1.47.51,2.94.95,4.42,1.39.74.21,1.55.58,1.73,1.38.2.11.4.22.6.31,1.85,1,3.8,1.82,5.56,3a34.15,34.15,0,0,1,5.63,5.89,57.1,57.1,0,0,1,5.05,7.52,81.14,81.14,0,0,1,4.31,7.46,5.46,5.46,0,0,0,2,2.22c1.43.57,3.07,0,4.5-.36A6.24,6.24,0,0,1,298.5,249c2.79,2.63.36,6.84-2.27,8.59a7.52,7.52,0,0,1-1.37.89A71.15,71.15,0,0,1,298,265a1.52,1.52,0,0,1-.13,1.64.92.92,0,0,1,0,.16c-.1,1.54-1.87,2-2.93,2.8a59.4,59.4,0,0,1-6.39,3.55,27.33,27.33,0,0,0-7,4c-1.11.75-2.44,1.1-3.48,1.95,1.28,2.73,3.08,5.24,5.88,6.55A22.11,22.11,0,0,0,299,286a1.74,1.74,0,0,1,2.75.48c3.22,6.39,3.88,9.05-1.61,14.23-1.64,1.75-3.79,2.81-5.83,4-2.58,2.15-5.59,3.64-8.31,5.57-1.77,1.77-2.7,6.87-3.34,11.19,2.25.11,4.45.12,6.75.12,2.69,0,5.78,0,7.94,1.88a30.85,30.85,0,0,1,3,3.75,1.69,1.69,0,0,1,.36,1,5.32,5.32,0,0,1,.48.46c2-1,4.2-1.72,6-3,2.17-2.56,3.32-5.83,5.49-8.41a71.65,71.65,0,0,0,8.43-11.92,131,131,0,0,1,8.47-12.37c1.84-2.72,3-5.82,4.76-8.6,1.06-1.7,2.12-3.4,3-5.18,1.58-3.38,3.55-6.48,4.85-10,1.29-4.47,3-8.9,4.63-13.21,1.27-3.79,2.92-7.45,4.25-11.21,2.33-6.69,3.5-13.68,5.75-20.39,1.53-5.68,3.62-11.19,5.61-16.72,2.12-6.59,3.31-13.44,5-20.14,1.06-3.67,1.76-7.44,2.91-11.08A84.38,84.38,0,0,0,373,168c.46-1.24.47-3.37,1.21-4.53.22-1.93.52-3.85.74-5.78,1.3-8.63,1.35-17.67,4.89-25.78l.23-.52a15,15,0,0,1,.37-3.07c.26-1.47.51-2.94.74-4.41.88-4.91,1.16-10,3-14.69.54-1.61,2.89-5,4.81-4.5,3,1.39,2.19,7.9,2,10.67,1.21-3.53,2.3-7.28,4.7-10.22,4.61-4.64,5.89,1.7,5.35,5.51A11.76,11.76,0,0,1,403,107c1.42-1.64,4.6-2.08,5.5.3s0,5.23-.55,7.71c1.58-2,2.49-4.38,4.22-6.22C413.09,107.7,415,107.11,416,108.41Z" transform="translate(-36.57)"/><path d="M153.77,554c-.19-3.18-.4-6.37-.64-9.55-.14-7.15.34-14.31.85-21.43,0-8.26-.63-16.51-.78-24.77.37-8.9.34-17.85-1.74-26.56-1.52-5.39-.67-12.95-6.31-16a10.44,10.44,0,0,1-2.45-1,1.67,1.67,0,0,1,.44-2.72,3.83,3.83,0,0,1,2.64.2c6.26,2,7.82,9.07,8.59,14.79.55,3.08,1.26,6.12,1.78,9.21,1.26,7,1,14.14.78,21.22q.15,9.51.56,19a56,56,0,0,1-.22,9.43c-.37,5.06-.49,10.14-.69,15.21-.12,4.22.49,8.4.74,12.6A1.79,1.79,0,0,1,153.77,554Z" transform="translate(-36.57)"/><path d="M157.69,556.91a2.23,2.23,0,0,1-.21-.63,1.85,1.85,0,0,1-2.13-1.73c0-.63.05-1.25.08-1.87,0-1.33,0-2.66.06-4,.23-4.56,0-9.11,0-13.67-.09-7.17.72-14.62.78-21.73.05-2.34.06-4.69.18-7,.18-1.49-.21-3.42,1.12-4.45a168.11,168.11,0,0,1-1.29-18.07c0-5.84-.6-11.68-2.87-17.11-1.91-4.41-3-10.9-8.81-11.49a6.9,6.9,0,0,1-1.19-.21,1.33,1.33,0,0,1-.24-2.36c3.28-1.19,7.09.67,9.18,3.27a18.87,18.87,0,0,1,2.4,4.3c6,13.23,4.93,17.2,5.68,30.85.5,8.93,2.33,17.77,1.54,26.74-.48,7.49.29,15,.42,22.44a89.06,89.06,0,0,1-1.14,15.4,2.74,2.74,0,0,1-1.31,2.14A1.69,1.69,0,0,1,157.69,556.91Z" transform="translate(-36.57)"/><path d="M97.59,535.69c-2.19-.6-1.27-3.42-1.12-5.06a72.56,72.56,0,0,1,2.68-12.81c1.23-4.38,2.12-8.85,3.77-13.09,1.53-3.93,2.36-8.07,3.8-12,.81-2.61,1.89-5.52,2.69-8a64,64,0,0,1,2.31-6.93h0a1.64,1.64,0,0,1,3,.87,1.32,1.32,0,0,0,0,.71c1.87,3.75,2.68,4.62,1.08,8.8-2,5.89-4.34,11.64-6.27,17.54s-4.32,12-6.17,18.05c-.68,2.44-1.46,4.86-2.25,7.27-.42,1-.49,2.34-1.3,3.16C99.46,535.05,98.64,536,97.59,535.69Z" transform="translate(-36.57)"/><path d="M157.06,505.89a11.63,11.63,0,0,1-.93-3.71c-.16-1-.22-2.08-.29-3.12a1.17,1.17,0,0,1,.41-.95c-.09-2.3-1.32-5.49.41-7.37a1.26,1.26,0,0,1,2,.66,1.37,1.37,0,0,1-.08.7,5.17,5.17,0,0,0,0,1.41c.4,4,1.62,7.87,1.58,11.84A1.72,1.72,0,0,1,157.06,505.89Z" transform="translate(-36.57)"/><path d="M158.86,548c-.24-3-.22-6-.33-9.08-.44-5.6-.95-11.21-.93-16.85-.07-4.27.44-8.55.11-12.83-.24-3.65-.7-6.79-1.05-10.31-.29-3.09-.48-6.17-.72-9.26-.27-3.56,0-7.14-.41-10.7-.54-4.12-1.74-8.12-2.61-12.17a19.88,19.88,0,0,0-4.83-9.09c-1-1.19-3.15-2.46-2.26-4.24a1.49,1.49,0,0,1,2-.6h0c.52.07,1.09.32,1.12.94,6,4.6,7.57,11,9.06,18a44.48,44.48,0,0,1,1.58,9.29c.11,3.12,0,6.24.31,9.35.35,8.11,2,16.11,1.7,24.23A184.32,184.32,0,0,0,162,539c.06,2.94.2,5.88.25,8.82a1.7,1.7,0,0,1-1.6,1.76A1.72,1.72,0,0,1,158.86,548Z" transform="translate(-36.57)"/><path d="M139.5,559.77c-2.52-.14-5.05,0-7.57,0a74.16,74.16,0,0,1-7.73-.66c-5-.14-10.06.67-15.09-.11-3.42-.24-6.84.1-10.27-.19-3.15-.24-6.31-.39-9.44-.86-1.83-.33-3.58-.74-5.38-1.12-5.75-.69-14.64-3.08-16-9.56a1.45,1.45,0,0,1-2.22-1,10.05,10.05,0,0,1-.11-1.9c.34-2.92,3.26-4.66,5.44-6.26,6.55-4.54,14.52-5.86,22.19-7.36,2.37-.47,4.68-1.25,7.08-1.56,4.06-.53,8.18-.43,12.21-1.16,7.1-.93,14.31-.26,21.42.26,3.1.16,6.2-.13,9.3.06s6,.73,9,.92c4.58.37,9.14.86,13.7,1.42,3.12.5,6.16,1.35,9.25,2,6,1,15.62,3,17.3,9.81.55,2.67-1,4.95-2.92,6.65-4.14,4.07-10,5.48-15,8.14-5.14,1.59-10.63,1-15.91,1.79-3.18.37-6.4.42-9.58.62A51.54,51.54,0,0,1,139.5,559.77Zm-11.42-4.15c2.81,0,5.66-.32,8.42-.5,4.94-.31,10.1-.43,15-.84,6.89-.41,13.6-2,20.4-3.08a16.19,16.19,0,0,0,7.55-2.4c2.51-1.41,10.36-4.61,7-8.24-1.19-1.43-3-2-4.68-2.54-3.48-1.34-7.24-1.29-10.89-1.81a75.23,75.23,0,0,0-8.54-1h.16c-5.72-.46-11-.4-16.69-.68-3.62-.33-6.84-.42-10.4-.41-3.07,0-6.11-.48-9.18-.47-4.88.3-9.76.07-14.64.26a122.77,122.77,0,0,1-12.27.73,2,2,0,0,1-1.68.65,32.39,32.39,0,0,0-3.25.54c-4.33,1-8.41,1.57-12.61,2.73-3.34,1.44-7.42,2.59-9.5,5.73-.52.83-1.16,1.95-.44,2.84,2.87,3.61,7.47,5.2,11.86,6a115.82,115.82,0,0,0,15.53,1.42c3.18.08,6.35-.19,9.53,0,2.58.15,5.12.75,7.7.89A107.76,107.76,0,0,1,128.08,555.62Z" transform="translate(-36.57)"/><path d="M72.7,594.77c-1-2.8-1.11-5.86-1.81-8.74-1.11-4.2-1.58-8.52-2.28-12.8S68,564.47,67,560.16c-.66-3.63-.72-7.19-1.32-10.77,0-1.69-1.07-4.34.84-5.31a1.71,1.71,0,0,1,2.06.6,1.09,1.09,0,0,1,.38.21,1,1,0,0,1,0,1.56c.64,5.4,1.1,10.71,2.11,16,.52,5,.91,10,1.85,15,.73,5.55,2.38,11,2.89,16.54A1.71,1.71,0,0,1,72.7,594.77Z" transform="translate(-36.57)"/><path d="M123.47,607.88a55.81,55.81,0,0,0-9-.3,37.26,37.26,0,0,1-5,.2,43,43,0,0,1-6.07-1c-7.06-.76-14.15-2-20.68-4.9-3.13-1.27-6.22-2.9-8.34-5.61a23,23,0,0,1-2.27-3.5c-.91-.92-1-2.8.48-3.21,2.22-.55,3.34,3.35,4.76,4.6a14.46,14.46,0,0,0,4.64,3.32,60.31,60.31,0,0,0,18.81,5.23c3.07.14,6,1.18,9.07,1.37,2.41,0,4.79-.36,7.19-.29s4.87.26,7.3.43c3.25.18,6.47-.35,9.72-.19a22.16,22.16,0,0,0,7.07-.66c1.38-.23,2.79-.16,3.94-.26,7.28-.65,14.58-1.39,21.44-4,2.16-.82,4.21-1.92,6.38-2.76a10.58,10.58,0,0,0,3.29-1.81,1.88,1.88,0,0,1,2.45,2.75,6.5,6.5,0,0,1-3.65,2c-1.69.72-3.37,1.5-5,2.25a46.52,46.52,0,0,1-12.62,3.7,106.9,106.9,0,0,1-13.23,1.61c-2.76-.12-5.37,1.13-8.13,1C131.86,607.48,127.67,608.1,123.47,607.88Z" transform="translate(-36.57)"/><path d="M177,595.18a5.35,5.35,0,0,1,.11-2.32c.55-2.52,1.15-5,1.89-7.51,1-4.09,2.23-8.1,3.31-12.16.71-2.66,1.08-5.4,1.67-8.09.9-4.2,2.14-8.32,3-12.51.33-1.88,1.06-3.7,1.31-5.58.05-1.07,0-2.41,1.07-3a5.54,5.54,0,0,1,.8-1.66,1.45,1.45,0,0,1,2.57.66c.05,1.55-.66,3-.94,4.57-.2,2.39-.36,4.8-.65,7.19a139.93,139.93,0,0,1-5,24.06c-1.72,5.84-3,12.06-6.38,17.22h0A1.69,1.69,0,0,1,177,595.18Z" transform="translate(-36.57)"/><path d="M121.19,608.35c-3.58-.38-7.16-.12-10.75-.24a50.38,50.38,0,0,1-7.21-1.17c-8.61-1.41-18.15-3.29-24-10.32-4.83-5.52-7.17-9.45-8.09-16.84-.72-2.88-1.55-5.73-2-8.66-.58-3.29-.07-6.61-.25-9.92-.26-3.57-1.47-7.1-1.28-10.68a1.4,1.4,0,0,1,2.17-.84,8.4,8.4,0,0,1,1.51,2,.88.88,0,0,1-.75,1.56,69.11,69.11,0,0,1,1.32,9.28c0,3.16-.15,6.35.58,9.45.42,1.83.92,3.63,1.46,5.42.88,3.27,1.16,6.7,2.75,9.75A30.08,30.08,0,0,0,79.92,592a23.23,23.23,0,0,0,6.48,6.25c5.28,3.21,11.72,4.18,17.65,5.23a40.9,40.9,0,0,0,12,1c3,0,5.56.36,8.44.28,4.33-.2,8.64-.77,13-.79,4-.7,8-1.2,12.09-1.7,2.77-.25,5.44-1,8.17-1.53a64.59,64.59,0,0,0,7.16-1.51c3-.87,6.06-1.09,8.91-2.25a12.64,12.64,0,0,0,3.82-4A2,2,0,0,1,181,595a17.48,17.48,0,0,1-3,3.5c-2.33,2.48-6.06,3.07-9.17,3.72-3.94,1-7.76,1.92-11.76,2.58a97.71,97.71,0,0,1-13,2c-2.31.22-4.57.87-6.9,1-5.5-.06-10.69,1-16.1.62Z" transform="translate(-36.57)"/><path d="M170.85,563.77a6.33,6.33,0,0,1-2.08-.38,1.51,1.51,0,0,1,.92-2.79c1,0,2.06.1,3.09,0,1.26-.07,3.22-.64,3.79.9C176.86,564.12,172.56,563.84,170.85,563.77Z" transform="translate(-36.57)"/><path d="M170.55,568.52c-1.12.1-2.36-.92-1.72-2.08a1.86,1.86,0,0,1,1.5-.83,14.67,14.67,0,0,1,4-.5,1.31,1.31,0,0,1,.52,2.41A8.76,8.76,0,0,1,170.55,568.52Z" transform="translate(-36.57)"/><path d="M169.16,572.52a1.39,1.39,0,0,1,.33-1.78,3.13,3.13,0,0,1,1.3-.47h0a18.41,18.41,0,0,1,2.55-.36,1.62,1.62,0,0,1,.46,3.18C172.33,573.42,170.18,573.93,169.16,572.52Z" transform="translate(-36.57)"/><path d="M156.13,569.05a5.15,5.15,0,0,1-1.3-.1,1.48,1.48,0,0,1-.56-2.58,3.68,3.68,0,0,1,2.57-.43,11,11,0,0,1,2.22.19,1.35,1.35,0,0,1,1,1.11C160.16,569.22,157.5,569,156.13,569.05Z" transform="translate(-36.57)"/><path d="M154.31,573.37a1.5,1.5,0,0,1,.84-2.88l.42.08.11,0a34,34,0,0,1,3.76.68,1.34,1.34,0,0,1,.2,2.39C157.93,574.62,156,574,154.31,573.37Z" transform="translate(-36.57)"/><path d="M156.69,579a4.79,4.79,0,0,1-2.64-.66,1.26,1.26,0,0,1-.23-1.49c.42-.77,1.36-.87,2.14-1,1.51-.24,4.3-.77,4.46,1.43C160.38,579.2,158.07,579.18,156.69,579Z" transform="translate(-36.57)"/><path d="M80.07,563.55c-1.11-.32-2.52-.55-3.21-1.59a1.55,1.55,0,0,1,2.35-2l-.07-.06-.1-.06a28.72,28.72,0,0,0,4.23,1.22,1.36,1.36,0,0,1-.13,2.65A9.07,9.07,0,0,1,80.07,563.55Z" transform="translate(-36.57)"/><path d="M80,568.47c-.92-.07-2.24-.17-2.62-1.19a1.34,1.34,0,0,1,.27-1.44c.69-.68,1.74-.52,2.63-.55,1.22,0,3.23,0,3.31,1.63C83.5,568.69,81.26,568.57,80,568.47Z" transform="translate(-36.57)"/><path d="M80,573.23c-1.12-.06-2.69-.67-2.36-2.05C77.89,570,79.22,570,80.2,570s2.65.2,2.66,1.58S81.13,573.41,80,573.23Z" transform="translate(-36.57)"/><path d="M98.63,578.92c-1.46-.18-3.86-.8-3.46-2.73a1.55,1.55,0,0,1,2.46-.75c1.26.42,2.65.24,3.88.76a1.26,1.26,0,0,1,.18,2.24A4.39,4.39,0,0,1,98.63,578.92Z" transform="translate(-36.57)"/><path d="M98,584.59c-1.1,0-2.68-.25-2.7-1.61s1.4-1.61,2.44-1.69,2.75,0,3,1.32S99.12,584.61,98,584.59Z" transform="translate(-36.57)"/><path d="M98.52,591.11a3.53,3.53,0,0,1-2.43-.92,1.38,1.38,0,0,1,.39-2.13,1,1,0,0,1,1.06-.17,11.66,11.66,0,0,1,3.17-.14,1.62,1.62,0,0,1,1.22,1.35C102.15,591,99.91,591.33,98.52,591.11Z" transform="translate(-36.57)"/><path d="M132,568.26c-2.63,0-5.22-.16-7.81-.29-5-.16-10.11-.09-14.92-1.18-4.83-.52-9.74-.25-14.5-1.39-3.7-.75-7.22-.63-10.9-1a47.32,47.32,0,0,1-12-3.83,11.3,11.3,0,0,1-4.55-4.23c-.6-.83-1.2-2-.49-2.93s2.81-.9,2.66.5c2,3.39,5.71,4.64,9.2,5.84,4.13,1.52,8.49,1.74,12.82,2,5.37.79,10.5,1.72,15.9,1.63,3.15.34,6.24,1.17,9.42,1.25,2.24.06,4.49,0,6.74.19,3.54.09,7.08.4,10.63.22,2.08-.19,4.14-.58,6.23-.64,2.59-.09,5.17.46,7.77.36,2.77-.57,5.59-.94,8.35-1.6,4.71-.88,9.56-.74,14.26-1.77a43.4,43.4,0,0,0,8.84-2.84,22.9,22.9,0,0,0,5-2.32c1.12-.67,2-2,3.42-1.93a2,2,0,0,1,1,3.44,24.59,24.59,0,0,1-7.68,4.08c-6.69,3.21-14.18,3.88-21.5,4.35-2.87.4-5.36,1-8.37,1.33a13.5,13.5,0,0,1-4.76.64,59.74,59.74,0,0,0-7.56-.39A46.23,46.23,0,0,1,132,568.26Z" transform="translate(-36.57)"/><path d="M80.91,560.47a41.08,41.08,0,0,1-3-4,1.51,1.51,0,0,1,1.7-2.47,8.74,8.74,0,0,1,2.1,2.42,10.15,10.15,0,0,1,1.54,2.69A1.41,1.41,0,0,1,80.91,560.47Z" transform="translate(-36.57)"/><path d="M96.38,562.57a16.52,16.52,0,0,1-2.51-3.24c-1-1.36-.23-3.47,1.63-2.72a13.09,13.09,0,0,1,3.25,4.32A1.48,1.48,0,0,1,96.38,562.57Z" transform="translate(-36.57)"/><path d="M114.62,564.76c-1.79-.94-3.08-2.61-4.65-3.86a1.6,1.6,0,0,1-.56-2.09c1.46-2.12,3.3.49,4.62,1.41,1.06,1,3.38,2.32,2.33,4A1.5,1.5,0,0,1,114.62,564.76Z" transform="translate(-36.57)"/><path d="M131.39,564.39c-1.38-.79-2.23-2.23-3.21-3.44a1.5,1.5,0,0,1,1.28-2.62c1,.23,1.65,1.15,2.34,1.85a13.77,13.77,0,0,1,1.69,2A1.58,1.58,0,0,1,131.39,564.39Z" transform="translate(-36.57)"/><path d="M148.05,563.87a6,6,0,0,1-2.46-3.49,1.48,1.48,0,0,1,2.16-1.49,7.5,7.5,0,0,1,2.48,3A1.57,1.57,0,0,1,148.05,563.87Z" transform="translate(-36.57)"/><path d="M163.15,560.76c-1.62-1.2-.81-4,1.34-3.09,1,.59,1.79,2.3.67,3.18A1.55,1.55,0,0,1,163.15,560.76Z" transform="translate(-36.57)"/><path d="M90.68,436.63a4,4,0,0,1-1.46-1.57c-1.18-1.67-2.26-3.4-3.29-5.17-1.2-1.74-2.33-3.53-3.59-5.23a32.6,32.6,0,0,0-4.3-3.83c-1.38-1.17-2.51-2.62-3.9-3.77a19.38,19.38,0,0,1-4.21-2.88c-2.86-2.93-6.7-4.85-9.1-8.21-1.14-1.61-2.06-3.91-.68-5.66.89-1.24,2.47-1.24,3.81-.86-3.61-3.72-1.21-6.75,3.54-5.79-2.22-3.29-1-7.65,3.57-6.06a2.75,2.75,0,0,1,.57-2.46c1.73-2.43,5.24-2.65,7.87-1.77,2.42,1.09,4.69,2.41,7,3.64a7,7,0,0,1,3.2,3,1.22,1.22,0,0,1-1.34,1.73c-1.15-.45-2.09-1.31-3.2-1.85-2-1.13-4.23-2-6.26-3.17-1.14-.7-2.53-.57-3.83-.61-.53,0-.91.43-1.24.8,2.69,3.08,6.13,5.35,9.07,8.17,1.87,2.43,4.72,3.89,6.54,6.33a1.42,1.42,0,0,1-1.67,2,4.08,4.08,0,0,1-1.09-.58c-2.22-1.48-3.87-3.61-5.9-5.3-1.37-.93-2.83-1.72-4.17-2.69-1.16-.76-2.11-1.51-3.2-2.33-1.4-.91-2.71-2.26-4.45-2.41.26,2.63,3.77,4.35,5.54,6,1.52,1.27,2.59,3,4.22,4.13a24.93,24.93,0,0,1,4.36,3.91c.56.61,1.28,1.27,1,2.17a1.51,1.51,0,0,1-2.23.81c-3.11-2.28-5.91-5-9.12-7.1-2.26-1.84-4.67-3.84-7.76-3.74,1.16,1.84,3.32,2.73,4.93,4.12,3.65,2.91,7.48,5.81,10.53,9.32.53,1.84-1.57,2.7-2.82,1.4-3.53-2.63-7-5.29-10.72-7.73-1.49-.66-3.15-.9-4.7-1.41.22,3.21,5.58,5.77,7.82,7.72,1.12.89,2.15,1.88,3.3,2.73,1.33.91,2.88,1.47,4,2.64a47.53,47.53,0,0,0,5.22,4.81c3.36,2.85,5.51,6.79,7.81,10.49.85,1.71,3,3.21,2.52,5.29A1.61,1.61,0,0,1,90.68,436.63Z" transform="translate(-36.57)"/><path d="M158,281.3c-2.87-2.4,4-6.76,5.68-8.17,4.12-3,9-4.77,13.56-7,2.06-1,3.54-2.75,5.19-4.27,3.05-2.8,6.36-5.52,10.32-6.89,3.19-1,7.79-2.16,10.39.58a1.71,1.71,0,0,1-2.46,2.35c-4.7-1.49-10.06,1.92-13.53,4.87-2.81,2.21-4.93,5.33-8.25,6.83-2.17.9-4.28,1.89-6.4,2.9a30.13,30.13,0,0,0-8,4.52c-.89.67-1.78,1.33-2.63,2.05C160.73,279.92,159.7,282.12,158,281.3Z" transform="translate(-36.57)"/><path class="cls-2" d="M159,256.11c-1-1.62,1.79-2.5,2.76-3.32a18.72,18.72,0,0,1,5.4-2.36,5.21,5.21,0,0,1,2.41-.37c1.63.49.74,2.55-.75,2.33a17.11,17.11,0,0,0-5.67,2.3C162,255.22,160.17,257.5,159,256.11Z" transform="translate(-36.57)"/><path class="cls-2" d="M128.17,281.84A1.44,1.44,0,0,1,129,280c2.95-1.27,6.23-1.93,9-3.6,5.71-4,9.93-9.7,14.41-15,.51-.6,1.21-1.29,2.07-1.05a1.2,1.2,0,0,1,.5,2.09c-2.77,2.53-4.74,5.93-7.28,8.72-3.79,4-7.75,8.49-13.33,9.86-1.46.48-2.88,1.07-4.31,1.63A1.45,1.45,0,0,1,128.17,281.84Z" transform="translate(-36.57)"/><path class="cls-2" d="M87.42,293.58c-1.47-1.55,1.29-2.88,2.32-3.73A30,30,0,0,1,99,285.37c4.39-1.05,8.83-1.95,13.28-2.73,2.81-.32,5.49-.41,8.1-1.36a1.14,1.14,0,0,1,1.11,1.9,5.59,5.59,0,0,1-1.25.68c-2.87,1.12-6.3.91-9.22,1.43-5.15,1.28-10.59,1.54-15.44,3.84a30.07,30.07,0,0,0-5.24,3.24C89.48,292.94,88.54,294.38,87.42,293.58Z" transform="translate(-36.57)"/><path class="cls-2" d="M85.4,311.42C82,309.69,92.49,301.19,94,299.65a20.71,20.71,0,0,1,6.82-4.19,14.39,14.39,0,0,1,6.33-1.46,1,1,0,1,1-.32,1.87c-2.93.51-5.72,2-8.26,3.31a60.4,60.4,0,0,0-8.81,7.95c-.7.8-1.38,1.6-2,2.46S86.65,311.92,85.4,311.42Z" transform="translate(-36.57)"/><path class="cls-2" d="M67.5,322.61c-.87-1.22.52-2.14,1.4-2.75A19.4,19.4,0,0,0,72.08,317c1.38-1.42,2-3.3,2.93-5a66.68,66.68,0,0,1,4.06-6.75c.67-.92,2.7-2.45,3.48-1a1,1,0,0,1-.56,1.29,3.35,3.35,0,0,0-1.1,1.05c-1.45,2.34-2.67,4.83-4,7.25a17.49,17.49,0,0,1-5.08,7.19C70.63,321.89,68.91,324.16,67.5,322.61Z" transform="translate(-36.57)"/><path class="cls-2" d="M127.43,293.44c-.73-2.16,5.2-2.76,6.61-3.32a45.83,45.83,0,0,0,7.24-3.38,27.81,27.81,0,0,0,6.6-4.34c.64-.42,1.67-1.19,2.3-.4a.9.9,0,0,1,0,1.09,26.62,26.62,0,0,1-5.1,4.23c-3.79,2.29-7.76,4.48-12.1,5.51-1.45.33-2.83.86-4.25,1.27A1.09,1.09,0,0,1,127.43,293.44Z" transform="translate(-36.57)"/><path class="cls-2" d="M116.55,297c-.51-1.71,2.4-2,3.51-2.53s3.18-.19,2.47,1.51c-.35.67-1.13.45-1.71.67C119.61,296.89,117.29,298.61,116.55,297Z" transform="translate(-36.57)"/><path class="cls-2" d="M99,318.48c-1.94-1.08.44-3.92,1.16-5.19a36.53,36.53,0,0,1,6.9-6.05,33.66,33.66,0,0,1,8.13-3.32c.59-.17,1.31-.42,1.68.26.76,1.51-2.8,2.23-3.76,2.75a28.43,28.43,0,0,0-4,1.86,28.73,28.73,0,0,0-7.06,6.4C101.16,316.24,100.91,319.07,99,318.48Z" transform="translate(-36.57)"/><path class="cls-2" d="M80.38,331.27c-.76-1.6,1.48-2.2,2.35-3.12A20.06,20.06,0,0,0,87,322.26c.73-1.18,1.37-2.63,2.7-3.23A1,1,0,0,1,91,320.44c-1.53,2.08-2.52,4.48-3.94,6.63C86.14,328.34,81.78,333.69,80.38,331.27Z" transform="translate(-36.57)"/><path class="cls-2" d="M157.11,270.93c-1.76-1.22,1.11-3.47,1.85-4.6a17.12,17.12,0,0,1,5.58-4.2A28.19,28.19,0,0,1,174,257.9c1.14-.4,2.86,0,2.54,1.54-.23.94-1.19.75-1.92.87a22.76,22.76,0,0,0-8.87,4,19.08,19.08,0,0,0-4.36,3c-1,1.08-1.82,2.22-2.74,3.33A1.19,1.19,0,0,1,157.11,270.93Z" transform="translate(-36.57)"/><path class="cls-2" d="M139.33,311.19a1.33,1.33,0,0,1-1.3-1.33c.09-1,1.18-1.61,1.8-2.34,1.48-1.45,3-2.87,4.41-4.38,1.68-1.78,2.65-4.05,4-6,.57-.65,1.46-2,2.38-1.12s-.65,1.71-.92,2.58a24.48,24.48,0,0,1-6,8.91c-.83.84-1.68,1.66-2.52,2.48C140.62,310.44,140.13,311.19,139.33,311.19Z" transform="translate(-36.57)"/><path class="cls-2" d="M108,324.47a1.21,1.21,0,0,1-.67-2,26,26,0,0,1,5.49-3,77.87,77.87,0,0,1,9.12-4.13c2.89-1.38,5.26-3.65,8.15-5a.92.92,0,0,1,1.2.1c.65.71,0,1.37-.59,1.85a57.58,57.58,0,0,1-4.69,3.54c-2.38,1.77-5.38,2.74-8.06,3.86-2.42,1.29-5,2.43-7.34,3.64C109.7,323.66,108.93,324.5,108,324.47Z" transform="translate(-36.57)"/><path class="cls-2" d="M98.51,337c-3.21-.78,1.54-7.49,3.65-7.21a1,1,0,0,1,.53,1.82,8.08,8.08,0,0,0-2.57,3.82C100,336.22,99.46,337.14,98.51,337Z" transform="translate(-36.57)"/><path class="cls-2" d="M211.69,265.73c-1.69-.41-6.64-2-6.09-4.24a1.25,1.25,0,0,1,2.31-.12,13.48,13.48,0,0,0,5.32,2.16,1.16,1.16,0,0,1,.94,1.19C214.08,265.94,212.61,266,211.69,265.73Z" transform="translate(-36.57)"/><path class="cls-2" d="M210,272.23c-1.82-.35-5.32-1.2-5.45-3.43a1,1,0,0,1,1-1c.52,0,1.14.08,1.29.69a14.45,14.45,0,0,0,5.34,1.53,1.08,1.08,0,0,1,.89,1C213,272.59,211,272.33,210,272.23Z" transform="translate(-36.57)"/><path class="cls-2" d="M208.08,281c-1.05-.53-3.54-1.64-2.07-3a1,1,0,0,1,1.06-.08,14.8,14.8,0,0,0,1.74.79,6.29,6.29,0,0,0,3.27.35,1.37,1.37,0,0,1,1.81.69C214.39,282.34,209.45,281.82,208.08,281Z" transform="translate(-36.57)"/><path class="cls-2" d="M289.71,532.21a14,14,0,0,1-4.95-2,1.93,1.93,0,0,1-.49-2.1,1.12,1.12,0,0,1,1-1.13,1.16,1.16,0,0,1,1.18,1.18c1.41.76,5.32.9,4.76,3.16A1.33,1.33,0,0,1,289.71,532.21Z" transform="translate(-36.57)"/><path class="cls-2" d="M290,524a1.38,1.38,0,0,1-1.26-1.09c-.3-2.42,3.85-2,5.38-1.87a1.48,1.48,0,0,1-.2,2.92C292.66,523.94,291.35,524,290,524Z" transform="translate(-36.57)"/><path class="cls-2" d="M212.05,632.06c-6.56-3.06-1.72-6.52-.65-3.78a.24.24,0,0,1,0,.09v0c.83.91,3,1.75,2.17,3.26A1.22,1.22,0,0,1,212.05,632.06Z" transform="translate(-36.57)"/><path class="cls-2" d="M216.55,622.4a18.74,18.74,0,0,1-4.85-1.15c-.78-.31-1.76-.83-1.79-1.77a1.21,1.21,0,0,1,1.26-1.26c1.93.41,3.87.76,5.78,1.26a1.49,1.49,0,0,1,1.18,1.55A1.48,1.48,0,0,1,216.55,622.4Z" transform="translate(-36.57)"/><path class="cls-2" d="M153.78,554a.4.4,0,0,0,0,.15c-.78.07-1.56.14-2.35.18-4.86.4-10,.53-15,.84-2.76.18-5.61.54-8.42.5a107.78,107.78,0,0,0-11.65-.1c-2.58-.14-5.12-.74-7.7-.89-3.18-.2-6.35.06-9.53,0a117.48,117.48,0,0,1-15.53-1.42c-4.39-.83-9-2.43-11.86-6-.72-.89-.08-2,.44-2.84,2.08-3.14,6.16-4.29,9.5-5.73,4.2-1.16,8.28-1.69,12.61-2.73.87-.18,1.73-.35,2.6-.46a2.15,2.15,0,0,0,.63.28,1.81,1.81,0,0,0,2-1,117.46,117.46,0,0,0,12-.72c4.88-.19,9.76,0,14.64-.26,3.07,0,6.11.42,9.18.47,3.56,0,6.78.08,10.4.41,2.54.12,5,.18,7.48.25-.13,3.19-.19,6.38-.13,9.58C153.37,547.58,153.58,550.77,153.78,554Z" transform="translate(-36.57)"/><path class="cls-2" d="M187.4,551c-.14.53-.26,1.07-.36,1.61s-.31,1.39-.48,2.08c-.68.43-1.28,1.1-2,1.51a22.41,22.41,0,0,1-5,2.31,46.56,46.56,0,0,1-5.32,2c-.54,0-1.08.13-1.54.15-1,.09-2.06,0-3.09,0a1.59,1.59,0,0,0-1.6,1.21c-3.84.54-7.74.58-11.55,1.29-2.76.65-5.58,1-8.36,1.6-2.59.1-5.17-.45-7.76-.36-2.09.06-4.15.45-6.23.64-3.55.19-7.09-.13-10.63-.22-2.25-.14-4.5-.13-6.74-.19l-.75,0a1.59,1.59,0,0,0,.29-.29c1-1.72-1.27-3-2.33-4a12.76,12.76,0,0,1-1.07-.91c3.74.1,7.49-.32,11.24-.22,1.17.09,2.34.25,3.5.39a1.65,1.65,0,0,0,.48,1.47c1,1.21,1.83,2.65,3.21,3.44a1.58,1.58,0,0,0,2.1-2.17,13.77,13.77,0,0,0-1.69-2l-.4-.42h.53c2.52,0,5-.13,7.57,0a42.85,42.85,0,0,0,6.1.13,1.29,1.29,0,0,0,0,.48,6,6,0,0,0,2.46,3.49,1.56,1.56,0,0,0,2.17-2,7.58,7.58,0,0,0-1.51-2.2l.41,0c3.18-.2,6.4-.25,9.58-.62,1.2-.17,2.42-.27,3.63-.35a2.07,2.07,0,0,0,.82,2.07,1.55,1.55,0,0,0,2,.09,1.69,1.69,0,0,0,.21-2.31,37.38,37.38,0,0,0,9.24-1.29C178.78,555,183.54,553.7,187.4,551Z" transform="translate(-36.57)"/><path class="cls-2" d="M110,560.9c1.36,1.08,2.5,2.46,3.94,3.43-2.17-.3-4.32-.76-6.5-1a60.86,60.86,0,0,1-9.18-.64,1.39,1.39,0,0,0,.53-1.76,23.91,23.91,0,0,0-1.35-2.25l1.44.11c3.43.29,6.85,0,10.27.19l.22,0A1.61,1.61,0,0,0,110,560.9Z" transform="translate(-36.57)"/><path class="cls-2" d="M93.87,559.33a17.19,17.19,0,0,0,2.35,3.08l-4.72-.71a62.25,62.25,0,0,1-9.15-1,1.35,1.35,0,0,0,.88-1.67,9.81,9.81,0,0,0-1.49-2.61c.8.14,1.56.25,2.28.34,1.8.38,3.55.79,5.38,1.12,1.35.2,2.7.34,4.06.46A2.07,2.07,0,0,0,93.87,559.33Z" transform="translate(-36.57)"/><path class="cls-2" d="M80.83,560.39c-.64-.17-1.29-.37-1.92-.59a1.23,1.23,0,0,0-.43-.15c-2.7-.93-5.53-1.91-7.55-3.89-.15-.84-.3-1.67-.44-2.51a.83.83,0,0,0,1.1-.72,19.43,19.43,0,0,0,5.75,2.84,1.4,1.4,0,0,0,.55,1.07A44,44,0,0,0,80.83,560.39Z" transform="translate(-36.57)"/><path class="cls-2" d="M267.4,247.85c-.69,3,3.73,5.29,6.1,3.64-.23,2.93-3.2,4.95-5.92,5.33a3.72,3.72,0,0,1-3.79-5.29C264.37,249.85,266.08,248.91,267.4,247.85Z" transform="translate(-36.57)"/><path class="cls-2" d="M186.42,540.56c3.35,3.63-4.5,6.83-7,8.24a16.19,16.19,0,0,1-7.55,2.4c-3.43.53-6.83,1.2-10.24,1.79.2-1.45.34-2.9.44-4.36a1.84,1.84,0,0,0,.17-.77c0-.48,0-1,0-1.43.1-2.07.14-4.15.16-6.24,0-1.65-.09-3.31-.16-5l.18,0h0a73.82,73.82,0,0,1,8.46,1c3.65.52,7.41.47,10.89,1.81C183.44,538.6,185.23,539.13,186.42,540.56Z" transform="translate(-36.57)"/><path d="M199.28,827.69l-1.68.11c-1.88.12-3.76.27-5.64.51h0c-1.37.21-2.73.46-4.09.76h0c2.44-.18,4.88-.44,7.3-.73C196.51,828.15,197.9,827.92,199.28,827.69Zm49.67-3.1q-.87,0-1.74,0a71.67,71.67,0,0,0-7.18-.11c1.49,0,3,.11,4.48.14S247.46,824.64,249,824.59Zm25.17-.85a57.72,57.72,0,0,0-6.58.23c-4.12.45-8.26.12-12.39.3-1.63.08-3.25.21-4.87.28,1.8-.06,3.59-.14,5.34-.13A152.34,152.34,0,0,0,274.12,823.74Zm77.33-4.29c4.73,1.63,8.59,6.46,8.12,11.59-2.42,8.74-13.11,11-20.76,13.11-4.56,1.06-9.29.62-13.89,1.33-5.84,1.13-12.07.75-17.93.7-9.22.12-18.42.1-27.62.25-5.27.44-10.54.71-15.81.94-3.61.27-7.16,1.11-10.77,1.29-2.75.16-5.51.05-8.26.07-6.95.37-13.85,1.24-20.82,1.41-3.45.17-6.91.08-10.37.08-4.63.08-9.24.63-13.87.39-6.34-.25-12.69-.28-19-.38a109.55,109.55,0,0,1-25.05-2c-4.83-1.23-13-5.09-13.74-10.42-.27-3.61,3.5-5.19,6.3-6.3,4.75-2.08,10.19-2.89,15.25-3.37,4.64-.61,9.18-1.83,13.87-2,4.49-.21,8.94-.88,13.41-1.3,3.08-.22,6.18-.28,9.27-.22,2.47-.19,4.92-.56,7.4-.75,2.72-.2,5.45-.39,8.16-.75,4.48-.82,8.91-2,13.5-1.89,4.78-.09,9.56-.21,14.33.12,4.54-.24,9.07-.84,13.62-.85,3.54,0,7.07.24,10.6.31,2.88-.16,5.74-.67,8.63-.7,4.64-.09,9.28-.51,13.93-.49a85.23,85.23,0,0,0,8.9,0,156.58,156.58,0,0,1,17-1.56c5.16-.46,10.32.16,15.48.36C338,818,344.9,817.66,351.45,819.45Z" transform="translate(-36.57)"/><path class="cls-3" d="M653.55,43c4.27.52.21,5.56-1.18,7.22-1.81,2.09-3.45,4.3-5.32,6.23a97.4,97.4,0,0,0-7.15,8.22,85.43,85.43,0,0,0-5.72,6.46,44.63,44.63,0,0,1-6.4,6.78c-.95.82-2.08,2.51-3.4,2.16.48,1.37.83,2.79,1.24,4.18,1.77,6,4.2,11.85,5.88,17.92,1,3.2,1.59,6.28,2.49,9.28.69,2.52,5.69,16,0,14.46a23.26,23.26,0,0,1-6.52-2.36A68,68,0,0,1,612.9,116c-1.32-1-2.62-1.94-3.9-3-2.87-2.49-5.06-5.1-8-7.36-3.44-3.16-6-7.12-9.33-10.39-.09-.11-.19-.22-.29-.32-.19.23-.38.44-.56.67-1.35,1.52-2.57,2.68-3.93,4.1-2.65,2.69-4.78,5.83-7.48,8.47-2.3,2.26-3.84,5.12-6,7.47-1.62,1.67-3.53,2.91-5.22,4.5a34.92,34.92,0,0,1-6.09,5.23c-2.83,1.68-5.42,4.37-8.56,5.32-1.16.26-2.92.88-3.49-.59.06-7.67.61-15.46,2.86-22.88.61-2.58.83-5.24,1.56-7.8,1.48-4.55,2.7-9.18,3.91-13.81l.23-.72c-.39-.18-.78-.36-1.17-.51-1.33-.54-2.65-1.08-4-1.68a140.28,140.28,0,0,1-12.8-7.54,58.77,58.77,0,0,1-7.19-4.49c-3.67-2.35-8.27-4.93-9.1-9.6.12-1.69,2.21-2,3.46-2.54s2.51-1.05,3.77-1.56c4.71-1.78,9.34-3.83,14.22-5.09,3.18-.59,6.29-1.48,9.46-2.09,4.36-.7,8.73-1.24,13.11-1.83.54-.07,1.16-.2,1.77-.24.2-.79.49-1.59.6-2.2.78-2.59,1.32-5.23,2.05-7.83,2.38-7.64,3.72-15.62,6.92-23,.93-2.11,1.77-4.35,2.63-6.47a14.32,14.32,0,0,1,2.2-4,1.56,1.56,0,0,1,1.85.05c1.14.11,2.26,1.27,3,2.05,2.51,2.79,4.08,6.26,5.91,9.51,1.57,3.91,3.2,7.78,4.95,11.62a53.36,53.36,0,0,1,2.61,5.77,45.84,45.84,0,0,0,2.14,5.94c.62,1.35,1.25,2.7,1.86,4.05,1.55-.11,3.05-.55,4.58-.81,2.6-.44,5.24-.58,7.86-1,7.11-.51,14-.53,21-.39A75.78,75.78,0,0,1,653.55,43Z" transform="translate(-36.57)"/><path d="M570.23,47.1c-5.67.45,6.09-26.89,7.31-30a114.81,114.81,0,0,1,6.21-12.34c.6-.94,1.46-2.5,2.81-2.14a1.66,1.66,0,0,1,1.29,1.73,181.57,181.57,0,0,0-13.5,32.05,40,40,0,0,0-2,7.82C572.33,45.52,571.89,47.24,570.23,47.1Z" transform="translate(-36.57)"/><path d="M604.72,42.24c-1.22-2.56-2-5.35-3-8-.71-1.69-1.71-3.23-2.47-4.9-1.47-3.1-2.36-6.34-4-9.26-3.1-4.53-4.22-10.65-9.05-13.79a1.81,1.81,0,0,1,.08-3.16,2.74,2.74,0,0,1,2.66.54c4.05,2.66,5.79,7.28,7.94,11.4a65.26,65.26,0,0,1,3.37,6.61,75.1,75.1,0,0,0,2.85,7.1,29.85,29.85,0,0,1,2.81,6.58c.46,2,1.51,3.72,2,5.63A1.75,1.75,0,0,1,604.72,42.24Z" transform="translate(-36.57)"/><path d="M526.59,59.82a1.69,1.69,0,0,1-1.35-2.44,4.44,4.44,0,0,1,2-1.45c2.47-1.12,4.8-2.55,7.34-3.53s4.84-1.76,7.31-2.51A97.45,97.45,0,0,0,552,47.22a126.87,126.87,0,0,1,13-1.85,26.55,26.55,0,0,0,2.81-.32,2.37,2.37,0,0,1,2.14.42,1.94,1.94,0,0,1-1.19,3.34c-5.28.41-10.54,1.1-15.75,2-1.68.49-3.31,1.12-5,1.49A67.11,67.11,0,0,0,535.22,56c-2.17,1-4.33,2.06-6.51,3.05C528,59.31,527.38,59.89,526.59,59.82Z" transform="translate(-36.57)"/><path d="M554.8,85.54c-7.31-3.71-14.76-7.36-21.21-12.49a30.74,30.74,0,0,1-7.57-7c-2.32-2.55-3.1-6-.53-8.72,1.24-1.51,4-.93,3.28,1.27a1.1,1.1,0,0,1-.51.71,3.08,3.08,0,0,0-.73,1.26c-.76,1.78,4.09,6.08,5.44,7.28a106.57,106.57,0,0,0,12.74,8.66c3,1.68,6.06,3.2,9.12,4.75.95.57,2.22.88,2.79,1.9A1.92,1.92,0,0,1,554.8,85.54Z" transform="translate(-36.57)"/><path d="M549.16,129.32c-.54-2.94.26-6,.35-9,.46-5,1.21-9.93,1.92-14.88a176.77,176.77,0,0,1,3.49-17.4c.43-1.51.5-3.23,1.41-4.55a1.76,1.76,0,0,1,3.06,1,5.23,5.23,0,0,1-.22,1.47c-.77,4-1.92,8-2.68,12-1,5.35-1.83,10.68-2.65,16-.59,4.33-1,8.83-1.26,13.17a10.75,10.75,0,0,1-.1,2A1.73,1.73,0,0,1,549.16,129.32Z" transform="translate(-36.57)"/><path d="M550.3,130.39a1.82,1.82,0,0,1,2.36-2.58c.76.71,1.64.25,2.48-.07,2.31-.93,4-2.83,5.9-4.36,1.34-1.09,2.88-1.9,4.28-2.91,2.29-1.71,4.11-3.93,6.3-5.76a52.86,52.86,0,0,0,7.56-7.17,50.47,50.47,0,0,1,6.44-6.47A37.22,37.22,0,0,0,590,95.28c.64-1.08,1.71-2.58,3.13-1.81s.89,2.33.08,3.4a56,56,0,0,1-3.57,5.21,45.09,45.09,0,0,1-4.52,4.31c-2.08,2.06-4,4.31-6.05,6.38s-4.47,3.82-6.62,5.82a40.06,40.06,0,0,1-8.78,7.22c-2.19,1.69-4.1,3.82-6.69,4.93C554.94,131.75,551.68,132.84,550.3,130.39Z" transform="translate(-36.57)"/><path d="M632.53,127.49c-4.19-.15-7.68-2.82-11.08-5-2.42-1.49-4.91-2.87-7.45-4.15-2.92-1.7-5.28-4.21-7.87-6.35A71.82,71.82,0,0,1,593,100.71c-6.4-6.93,1.54-9.22,1.19-4.91.71,1.8,2.24,3,3.54,4.42a65.25,65.25,0,0,0,10.34,8.72c2.4,2,4.59,4.21,7.13,6,2,1,4,2.07,5.88,3.23,3.21,1.77,6,4.24,9.53,5.48,1.1.39,2.34.1,3.4.6C635.86,125.45,634.58,127.78,632.53,127.49Z" transform="translate(-36.57)"/><path d="M633.35,126.63a1.94,1.94,0,0,1-.17-3,15.58,15.58,0,0,0,.22-2.27c0-2.32,0-4.82-.21-7.08a58.3,58.3,0,0,0-2.56-10.8c-2.08-6.34-3.83-12.81-6.68-18.86-.81-2-1.91-4-2.54-6.07a1.68,1.68,0,0,1,2.94-1.32h0c3.8,6.52,6.19,13.76,8.43,20.94,1.73,5.66,3.67,11.36,4.07,17.3,0,3.09.35,6.24-.15,9.31C636.39,126.28,634.79,127.67,633.35,126.63Z" transform="translate(-36.57)"/><path d="M623.53,80.57A1.79,1.79,0,0,1,622.15,79c-.1-1,.81-1.7,1.53-2.24,1.47-1.08,3-2,4.5-3.11,2.44-1.87,4.48-4.17,6.77-6.21,1.25-1.11,2.61-2.11,3.8-3.29,2-1.89,3.75-4,5.77-5.88A42.17,42.17,0,0,0,651,51a15,15,0,0,0,2.41-3.84A2,2,0,0,1,656,45.61c2.62,1.29.16,4.33-.8,6-1.51,2-3,4-4.62,5.9a51.69,51.69,0,0,1-4.37,4.26c-1.65,1.74-3.29,3.5-5,5.16s-3.66,3.09-5.37,4.76a41.43,41.43,0,0,1-9,7.35C625.72,79.59,624.81,80.82,623.53,80.57Z" transform="translate(-36.57)"/><path d="M654.44,48.61a1.88,1.88,0,0,1-.91-.71,1.94,1.94,0,0,1-.29-1c-4.84-3.54-11-3.68-16.73-3.74A177.72,177.72,0,0,0,611,44.22c-1.73.07-3.52.65-5.23.3a1.71,1.71,0,0,1-.35-3,6.62,6.62,0,0,1,2.4-.63,163.59,163.59,0,0,1,16.4-1.38,114.08,114.08,0,0,1,23.22.9A30.8,30.8,0,0,1,653.91,43c.94.66,2.11,1.08,2.77,2.06C657.72,46.63,656.44,49.33,654.44,48.61Z" transform="translate(-36.57)"/><path class="cls-3" d="M807.61,43c4.27.52.21,5.56-1.18,7.22-1.81,2.09-3.46,4.3-5.32,6.23A97.53,97.53,0,0,0,794,64.71c-1.94,2.12-4,4.15-5.71,6.46a44.63,44.63,0,0,1-6.4,6.78c-1,.82-2.08,2.51-3.41,2.16.49,1.37.84,2.79,1.24,4.18,1.78,6,4.2,11.85,5.89,17.92,1,3.2,1.59,6.28,2.49,9.28.68,2.52,5.68,16,0,14.46a23.31,23.31,0,0,1-6.51-2.36A68,68,0,0,1,767,116c-1.31-1-2.62-1.94-3.89-3-2.88-2.49-5.06-5.1-8-7.36-3.43-3.16-6-7.12-9.32-10.39a3,3,0,0,0-.3-.32c-.18.23-.38.44-.56.67-1.34,1.52-2.56,2.68-3.92,4.1-2.65,2.69-4.79,5.83-7.49,8.47-2.29,2.26-3.84,5.12-6,7.47-1.63,1.67-3.54,2.91-5.22,4.5a35,35,0,0,1-6.1,5.23c-2.82,1.68-5.41,4.37-8.56,5.32-1.16.26-2.91.88-3.48-.59,0-7.67.61-15.46,2.86-22.88.61-2.58.83-5.24,1.55-7.8,1.49-4.55,2.71-9.18,3.92-13.81.07-.22.14-.47.23-.72-.39-.18-.78-.36-1.18-.51-1.32-.54-2.65-1.08-4-1.68a140.12,140.12,0,0,1-12.79-7.54,58,58,0,0,1-7.19-4.49c-3.68-2.35-8.27-4.93-9.1-9.6.12-1.69,2.2-2,3.46-2.54s2.5-1.05,3.77-1.56c4.71-1.78,9.34-3.83,14.22-5.09,3.18-.59,6.28-1.48,9.45-2.09,4.36-.7,8.74-1.24,13.11-1.83.54-.07,1.17-.2,1.78-.24.19-.79.49-1.59.6-2.2.78-2.59,1.32-5.23,2-7.83,2.38-7.64,3.73-15.62,6.93-23,.93-2.11,1.77-4.35,2.63-6.47a14.32,14.32,0,0,1,2.2-4,1.56,1.56,0,0,1,1.85.05c1.14.11,2.26,1.27,3,2.05,2.5,2.79,4.08,6.26,5.9,9.51,1.57,3.91,3.21,7.78,5,11.62A53.36,53.36,0,0,1,757,33.18a45.84,45.84,0,0,0,2.14,5.94c.62,1.35,1.25,2.7,1.86,4.05,1.54-.11,3-.55,4.57-.81,2.61-.44,5.25-.58,7.87-1,7.1-.51,14-.53,21.05-.39A75.78,75.78,0,0,1,807.61,43Z" transform="translate(-36.57)"/><path d="M724.28,47.1c-5.66.45,6.09-26.89,7.32-30a111.23,111.23,0,0,1,6.21-12.34c.6-.94,1.45-2.5,2.81-2.14a1.67,1.67,0,0,1,1.29,1.73,180.82,180.82,0,0,0-13.5,32.05,40,40,0,0,0-2,7.82C726.39,45.52,726,47.24,724.28,47.1Z" transform="translate(-36.57)"/><path d="M758.77,42.24c-1.22-2.56-2-5.35-3-8-.7-1.69-1.7-3.23-2.46-4.9-1.47-3.1-2.36-6.34-4-9.26-3.1-4.53-4.22-10.65-9.06-13.79a1.81,1.81,0,0,1,.09-3.16,2.72,2.72,0,0,1,2.65.54c4.06,2.66,5.8,7.28,7.95,11.4a67.29,67.29,0,0,1,3.36,6.61c.91,2.38,1.71,4.82,2.85,7.1a28.93,28.93,0,0,1,2.81,6.58c.47,2,1.52,3.72,2,5.63A1.75,1.75,0,0,1,758.77,42.24Z" transform="translate(-36.57)"/><path d="M680.64,59.82a1.69,1.69,0,0,1-1.34-2.44,4.33,4.33,0,0,1,2-1.45c2.47-1.12,4.8-2.55,7.34-3.53s4.84-1.76,7.3-2.51a97.63,97.63,0,0,0,10.11-2.67,126.48,126.48,0,0,1,13-1.85,26.55,26.55,0,0,0,2.81-.32,2.38,2.38,0,0,1,2.14.42,1.94,1.94,0,0,1-1.19,3.34c-5.28.41-10.54,1.1-15.76,2-1.67.49-3.3,1.12-5,1.49A66.9,66.9,0,0,0,689.28,56C687.1,57,685,58,682.77,59,682.07,59.31,681.43,59.89,680.64,59.82Z" transform="translate(-36.57)"/><path d="M708.86,85.54c-7.31-3.71-14.76-7.36-21.22-12.49a30.52,30.52,0,0,1-7.56-7c-2.32-2.55-3.11-6-.54-8.72,1.25-1.51,4-.93,3.29,1.27a1.1,1.1,0,0,1-.51.71,3.08,3.08,0,0,0-.73,1.26c-.77,1.78,4.09,6.08,5.44,7.28a106.57,106.57,0,0,0,12.74,8.66c3,1.68,6.06,3.2,9.12,4.75,1,.57,2.22.88,2.78,1.9A1.92,1.92,0,0,1,708.86,85.54Z" transform="translate(-36.57)"/><path d="M703.22,129.32c-.55-2.94.26-6,.34-9,.46-5,1.22-9.93,1.93-14.88.9-5.86,2-11.67,3.48-17.4.44-1.51.51-3.23,1.42-4.55a1.76,1.76,0,0,1,3.06,1,5.23,5.23,0,0,1-.22,1.47c-.77,4-1.92,8-2.68,12-1,5.35-1.83,10.68-2.65,16-.6,4.33-1,8.83-1.26,13.17a11.72,11.72,0,0,1-.1,2A1.73,1.73,0,0,1,703.22,129.32Z" transform="translate(-36.57)"/><path d="M704.36,130.39a1.81,1.81,0,0,1,2.35-2.58c.77.71,1.65.25,2.49-.07,2.31-.93,4-2.83,5.9-4.36,1.34-1.09,2.88-1.9,4.28-2.91,2.29-1.71,4.11-3.93,6.29-5.76a52.41,52.41,0,0,0,7.57-7.17,50.47,50.47,0,0,1,6.44-6.47A37.86,37.86,0,0,0,744,95.28c.64-1.08,1.71-2.58,3.13-1.81s.89,2.33.08,3.4a56,56,0,0,1-3.57,5.21,44.11,44.11,0,0,1-4.53,4.31c-2.08,2.06-4,4.31-6,6.38s-4.47,3.82-6.62,5.82a40.06,40.06,0,0,1-8.78,7.22c-2.2,1.69-4.1,3.82-6.69,4.93C709,131.75,705.73,132.84,704.36,130.39Z" transform="translate(-36.57)"/><path d="M786.59,127.49c-4.19-.15-7.68-2.82-11.08-5q-3.63-2.23-7.46-4.15c-2.92-1.7-5.27-4.21-7.86-6.35a71.82,71.82,0,0,1-13.14-11.28c-6.4-6.93,1.54-9.22,1.19-4.91.71,1.8,2.24,3,3.53,4.42a64.88,64.88,0,0,0,10.35,8.72c2.4,2,4.59,4.21,7.13,6,2,1,4,2.07,5.87,3.23,3.22,1.77,6,4.24,9.53,5.48,1.1.39,2.35.1,3.41.6C789.92,125.45,788.64,127.78,786.59,127.49Z" transform="translate(-36.57)"/><path d="M787.41,126.63a1.94,1.94,0,0,1-.17-3,17.11,17.11,0,0,0,.22-2.27c0-2.32,0-4.82-.21-7.08a58.3,58.3,0,0,0-2.56-10.8c-2.08-6.34-3.83-12.81-6.68-18.86-.82-2-1.91-4-2.55-6.07a1.69,1.69,0,0,1,2.95-1.32h0c3.8,6.52,6.19,13.76,8.43,20.94,1.72,5.66,3.67,11.36,4.06,17.3,0,3.09.36,6.24-.14,9.31C790.45,126.28,788.85,127.67,787.41,126.63Z" transform="translate(-36.57)"/><path d="M777.59,80.57A1.8,1.8,0,0,1,776.2,79c-.1-1,.82-1.7,1.54-2.24,1.47-1.08,3-2,4.49-3.11,2.44-1.87,4.49-4.17,6.78-6.21,1.25-1.11,2.61-2.11,3.79-3.29,2-1.89,3.76-4,5.77-5.88A42.22,42.22,0,0,0,805,51a15.62,15.62,0,0,0,2.41-3.84A2,2,0,0,1,810,45.61c2.63,1.29.16,4.33-.8,6-1.51,2-3,4-4.61,5.9a53.23,53.23,0,0,1-4.37,4.26c-1.65,1.74-3.29,3.5-5,5.16s-3.66,3.09-5.37,4.76a41.9,41.9,0,0,1-9,7.35C779.78,79.59,778.87,80.82,777.59,80.57Z" transform="translate(-36.57)"/><path d="M808.49,48.61a1.85,1.85,0,0,1-.9-.71,1.94,1.94,0,0,1-.29-1c-4.84-3.54-11-3.68-16.73-3.74a177.72,177.72,0,0,0-25.48,1.07c-1.73.07-3.52.65-5.23.3a1.71,1.71,0,0,1-.35-3,6.56,6.56,0,0,1,2.4-.63,163.59,163.59,0,0,1,16.4-1.38,114,114,0,0,1,23.21.9A30.66,30.66,0,0,1,808,43c.93.66,2.11,1.08,2.77,2.06C811.78,46.63,810.5,49.33,808.49,48.61Z" transform="translate(-36.57)"/><path d="M425.88,47.1c-5.66.45,6.1-26.89,7.32-30a113,113,0,0,1,6.21-12.34c.6-.94,1.45-2.5,2.81-2.14a1.67,1.67,0,0,1,1.29,1.73A180.82,180.82,0,0,0,430,36.36a40,40,0,0,0-2,7.82C428,45.52,427.55,47.24,425.88,47.1Z" transform="translate(-36.57)"/><path d="M460.38,42.24c-1.23-2.56-2-5.35-3-8-.71-1.69-1.71-3.23-2.47-4.9-1.47-3.1-2.36-6.34-4-9.26-3.1-4.53-4.22-10.65-9.06-13.79a1.81,1.81,0,0,1,.09-3.16,2.72,2.72,0,0,1,2.65.54c4.06,2.66,5.8,7.28,7.95,11.4a67.29,67.29,0,0,1,3.36,6.61c.91,2.38,1.71,4.82,2.85,7.1a28.93,28.93,0,0,1,2.81,6.58c.47,2,1.52,3.72,2,5.63A1.74,1.74,0,0,1,460.38,42.24Z" transform="translate(-36.57)"/><path d="M382.24,59.82a1.69,1.69,0,0,1-1.34-2.44,4.38,4.38,0,0,1,2-1.45c2.47-1.12,4.8-2.55,7.34-3.53s4.84-1.76,7.3-2.51a97.63,97.63,0,0,0,10.11-2.67,126.48,126.48,0,0,1,13-1.85,26.55,26.55,0,0,0,2.81-.32,2.37,2.37,0,0,1,2.14.42,1.94,1.94,0,0,1-1.19,3.34c-5.28.41-10.54,1.1-15.76,2-1.67.49-3.3,1.12-5,1.49A66.9,66.9,0,0,0,390.88,56c-2.18,1-4.33,2.06-6.51,3.05C383.67,59.31,383,59.89,382.24,59.82Z" transform="translate(-36.57)"/><path d="M410.46,85.54c-7.31-3.71-14.76-7.36-21.22-12.49a30.52,30.52,0,0,1-7.56-7c-2.32-2.55-3.11-6-.53-8.72,1.24-1.51,4-.93,3.28,1.27a1.1,1.1,0,0,1-.51.71,3.08,3.08,0,0,0-.73,1.26c-.77,1.78,4.09,6.08,5.44,7.28a106.57,106.57,0,0,0,12.74,8.66c3,1.68,6.06,3.2,9.12,4.75.95.57,2.22.88,2.79,1.9A1.92,1.92,0,0,1,410.46,85.54Z" transform="translate(-36.57)"/><path d="M404.82,129.32c-.55-2.94.26-6,.34-9,.46-5,1.22-9.93,1.93-14.88.9-5.86,2-11.67,3.48-17.4.44-1.51.51-3.23,1.42-4.55a1.76,1.76,0,0,1,3.06,1,5.23,5.23,0,0,1-.22,1.47c-.77,4-1.92,8-2.68,12-1,5.35-1.83,10.68-2.65,16-.59,4.33-1,8.83-1.26,13.17a10.75,10.75,0,0,1-.1,2A1.73,1.73,0,0,1,404.82,129.32Z" transform="translate(-36.57)"/><path d="M406,130.39a1.81,1.81,0,0,1,2.35-2.58c.77.71,1.65.25,2.49-.07,2.31-.93,4-2.83,5.9-4.36,1.34-1.09,2.88-1.9,4.28-2.91,2.29-1.71,4.11-3.93,6.29-5.76a52.41,52.41,0,0,0,7.57-7.17,50.47,50.47,0,0,1,6.44-6.47,37.86,37.86,0,0,0,4.34-5.79c.64-1.08,1.71-2.58,3.13-1.81s.89,2.33.08,3.4a56,56,0,0,1-3.57,5.21,44.11,44.11,0,0,1-4.53,4.31c-2.07,2.06-4,4.31-6,6.38s-4.47,3.82-6.62,5.82a40.06,40.06,0,0,1-8.78,7.22c-2.2,1.69-4.1,3.82-6.69,4.93C410.6,131.75,407.33,132.84,406,130.39Z" transform="translate(-36.57)"/><path d="M488.19,127.49c-4.19-.15-7.68-2.82-11.08-5q-3.63-2.23-7.46-4.15c-2.92-1.7-5.27-4.21-7.86-6.35a71.82,71.82,0,0,1-13.14-11.28c-6.4-6.93,1.54-9.22,1.19-4.91.71,1.8,2.24,3,3.53,4.42a64.88,64.88,0,0,0,10.35,8.72c2.4,2,4.59,4.21,7.13,6,2,1,4,2.07,5.88,3.23,3.21,1.77,6,4.24,9.52,5.48,1.1.39,2.35.1,3.41.6C491.52,125.45,490.24,127.78,488.19,127.49Z" transform="translate(-36.57)"/><path d="M489,126.63a1.94,1.94,0,0,1-.17-3,17.11,17.11,0,0,0,.22-2.27c0-2.32,0-4.82-.21-7.08a58.3,58.3,0,0,0-2.56-10.8c-2.08-6.34-3.83-12.81-6.68-18.86-.82-2-1.91-4-2.54-6.07A1.68,1.68,0,0,1,480,77.25h0c3.8,6.52,6.19,13.76,8.43,20.94,1.72,5.66,3.67,11.36,4.07,17.3,0,3.09.35,6.24-.15,9.31C492.05,126.28,490.45,127.67,489,126.63Z" transform="translate(-36.57)"/><path d="M479.19,80.57A1.8,1.8,0,0,1,477.8,79c-.1-1,.82-1.7,1.54-2.24,1.47-1.08,3-2,4.49-3.11,2.44-1.87,4.49-4.17,6.78-6.21,1.25-1.11,2.61-2.11,3.79-3.29,2-1.89,3.76-4,5.77-5.88A41.81,41.81,0,0,0,506.64,51a15.33,15.33,0,0,0,2.41-3.84,2,2,0,0,1,2.56-1.56c2.62,1.29.15,4.33-.81,6-1.51,2-3,4-4.61,5.9a53.23,53.23,0,0,1-4.37,4.26c-1.65,1.74-3.29,3.5-5,5.16s-3.66,3.09-5.37,4.76a41.66,41.66,0,0,1-9,7.35C481.38,79.59,480.47,80.82,479.19,80.57Z" transform="translate(-36.57)"/><path d="M510.09,48.61a1.9,1.9,0,0,1-.9-.71,1.94,1.94,0,0,1-.29-1c-4.84-3.54-11-3.68-16.73-3.74a177.72,177.72,0,0,0-25.48,1.07c-1.73.07-3.52.65-5.23.3a1.71,1.71,0,0,1-.35-3,6.56,6.56,0,0,1,2.4-.63,163.59,163.59,0,0,1,16.4-1.38,114.11,114.11,0,0,1,23.22.9A30.8,30.8,0,0,1,509.57,43c.93.66,2.11,1.08,2.77,2.06C513.38,46.63,512.1,49.33,510.09,48.61Z" transform="translate(-36.57)"/><path d="M278.77,47.1c-5.67.45,6.09-26.89,7.32-30a112.92,112.92,0,0,1,6.2-12.34c.6-.94,1.46-2.5,2.81-2.14a1.66,1.66,0,0,1,1.29,1.73,181.57,181.57,0,0,0-13.5,32.05,40,40,0,0,0-2,7.82C280.87,45.52,280.43,47.24,278.77,47.1Z" transform="translate(-36.57)"/><path d="M313.26,42.24c-1.22-2.56-2-5.35-3-8-.71-1.69-1.71-3.23-2.47-4.9-1.47-3.1-2.36-6.34-4-9.26-3.1-4.53-4.22-10.65-9.05-13.79a1.81,1.81,0,0,1,.08-3.16,2.74,2.74,0,0,1,2.66.54c4.05,2.66,5.79,7.28,7.94,11.4a65.26,65.26,0,0,1,3.37,6.61,75.1,75.1,0,0,0,2.85,7.1,29.85,29.85,0,0,1,2.81,6.58c.46,2,1.51,3.72,2,5.63A1.75,1.75,0,0,1,313.26,42.24Z" transform="translate(-36.57)"/><path d="M235.13,59.82a1.69,1.69,0,0,1-1.35-2.44,4.44,4.44,0,0,1,2-1.45c2.47-1.12,4.8-2.55,7.34-3.53s4.84-1.76,7.31-2.51a97.45,97.45,0,0,0,10.1-2.67,126.87,126.87,0,0,1,13-1.85,26.55,26.55,0,0,0,2.81-.32,2.37,2.37,0,0,1,2.14.42,1.94,1.94,0,0,1-1.19,3.34c-5.28.41-10.54,1.1-15.75,2-1.68.49-3.31,1.12-5,1.49A67.11,67.11,0,0,0,243.76,56c-2.17,1-4.33,2.06-6.51,3.05C236.55,59.31,235.92,59.89,235.13,59.82Z" transform="translate(-36.57)"/><path d="M263.34,85.54c-7.31-3.71-14.76-7.36-21.21-12.49a30.74,30.74,0,0,1-7.57-7c-2.32-2.55-3.1-6-.53-8.72,1.24-1.51,4-.93,3.28,1.27a1.1,1.1,0,0,1-.51.71,3.08,3.08,0,0,0-.73,1.26c-.76,1.78,4.09,6.08,5.44,7.28a106.57,106.57,0,0,0,12.74,8.66c3,1.68,6.06,3.2,9.12,4.75.95.57,2.22.88,2.79,1.9A1.92,1.92,0,0,1,263.34,85.54Z" transform="translate(-36.57)"/><path d="M257.7,129.32c-.54-2.94.26-6,.35-9,.46-5,1.21-9.93,1.92-14.88a176.77,176.77,0,0,1,3.49-17.4c.43-1.51.51-3.23,1.41-4.55a1.76,1.76,0,0,1,3.06,1,5.23,5.23,0,0,1-.22,1.47c-.77,4-1.92,8-2.68,12-1,5.35-1.83,10.68-2.65,16-.59,4.33-1,8.83-1.26,13.17a10.75,10.75,0,0,1-.1,2A1.73,1.73,0,0,1,257.7,129.32Z" transform="translate(-36.57)"/><path d="M258.84,130.39a1.82,1.82,0,0,1,2.36-2.58c.76.71,1.64.25,2.48-.07,2.31-.93,4-2.83,5.9-4.36,1.34-1.09,2.88-1.9,4.28-2.91,2.29-1.71,4.11-3.93,6.3-5.76a52.86,52.86,0,0,0,7.56-7.17,50.47,50.47,0,0,1,6.44-6.47,37.22,37.22,0,0,0,4.34-5.79c.64-1.08,1.71-2.58,3.13-1.81s.89,2.33.08,3.4a56,56,0,0,1-3.57,5.21,45.09,45.09,0,0,1-4.52,4.31c-2.08,2.06-4,4.31-6.05,6.38s-4.47,3.82-6.62,5.82a40.06,40.06,0,0,1-8.78,7.22c-2.19,1.69-4.1,3.82-6.69,4.93C263.48,131.75,260.22,132.84,258.84,130.39Z" transform="translate(-36.57)"/><path d="M341.07,127.49c-4.19-.15-7.68-2.82-11.08-5-2.42-1.49-4.91-2.87-7.45-4.15-2.92-1.7-5.28-4.21-7.87-6.35a71.82,71.82,0,0,1-13.14-11.28c-6.4-6.93,1.54-9.22,1.19-4.91.71,1.8,2.24,3,3.54,4.42a65.25,65.25,0,0,0,10.34,8.72c2.41,2,4.59,4.21,7.13,6,2,1,4,2.07,5.88,3.23,3.21,1.77,6,4.24,9.53,5.48,1.1.39,2.34.1,3.4.6C344.41,125.45,343.12,127.78,341.07,127.49Z" transform="translate(-36.57)"/><path d="M341.89,126.63a1.94,1.94,0,0,1-.17-3,15.58,15.58,0,0,0,.22-2.27c0-2.32,0-4.82-.2-7.08a59.13,59.13,0,0,0-2.57-10.8c-2.08-6.34-3.82-12.81-6.68-18.86-.81-2-1.91-4-2.54-6.07a1.68,1.68,0,0,1,2.94-1.32h0c3.8,6.52,6.19,13.76,8.43,20.94,1.73,5.66,3.67,11.36,4.07,17.3,0,3.09.35,6.24-.15,9.31C344.93,126.28,343.33,127.67,341.89,126.63Z" transform="translate(-36.57)"/><path d="M332.07,80.57A1.79,1.79,0,0,1,330.69,79c-.1-1,.81-1.7,1.53-2.24,1.47-1.08,3-2,4.5-3.11,2.44-1.87,4.48-4.17,6.77-6.21,1.25-1.11,2.61-2.11,3.8-3.29,2-1.89,3.75-4,5.77-5.88A42.17,42.17,0,0,0,359.52,51a15,15,0,0,0,2.41-3.84,2,2,0,0,1,2.56-1.56c2.62,1.29.16,4.33-.8,6-1.51,2-3,4-4.62,5.9a51.69,51.69,0,0,1-4.37,4.26c-1.65,1.74-3.29,3.5-5,5.16S346,70,344.32,71.68a41.43,41.43,0,0,1-9,7.35C334.27,79.59,333.35,80.82,332.07,80.57Z" transform="translate(-36.57)"/><path d="M363,48.61a1.88,1.88,0,0,1-.91-.71,1.94,1.94,0,0,1-.29-1c-4.84-3.54-11-3.68-16.73-3.74a177.72,177.72,0,0,0-25.48,1.07c-1.73.07-3.52.65-5.23.3a1.71,1.71,0,0,1-.35-3,6.62,6.62,0,0,1,2.4-.63,163.59,163.59,0,0,1,16.4-1.38,114.08,114.08,0,0,1,23.22.9A30.58,30.58,0,0,1,362.45,43c.94.66,2.11,1.08,2.77,2.06C366.26,46.63,365,49.33,363,48.61Z" transform="translate(-36.57)"/><path d="M137.2,47.1c-5.66.45,6.09-26.89,7.32-30a111.23,111.23,0,0,1,6.21-12.34c.6-.94,1.45-2.5,2.81-2.14a1.68,1.68,0,0,1,1.29,1.73,181.61,181.61,0,0,0-13.51,32.05,40.7,40.7,0,0,0-2,7.82C139.31,45.52,138.87,47.24,137.2,47.1Z" transform="translate(-36.57)"/><path d="M171.69,42.24c-1.22-2.56-2-5.35-3-8-.71-1.69-1.7-3.23-2.46-4.9-1.47-3.1-2.36-6.34-4-9.26-3.11-4.53-4.23-10.65-9.06-13.79a1.81,1.81,0,0,1,.09-3.16,2.72,2.72,0,0,1,2.65.54c4.06,2.66,5.79,7.28,7.95,11.4a67.29,67.29,0,0,1,3.36,6.61c.91,2.38,1.71,4.82,2.85,7.1a29.85,29.85,0,0,1,2.81,6.58c.47,2,1.51,3.72,2,5.63A1.75,1.75,0,0,1,171.69,42.24Z" transform="translate(-36.57)"/><path d="M93.56,59.82a1.69,1.69,0,0,1-1.35-2.44,4.44,4.44,0,0,1,2-1.45c2.48-1.12,4.81-2.55,7.34-3.53s4.85-1.76,7.31-2.51A98.3,98.3,0,0,0,119,47.22a126.29,126.29,0,0,1,13-1.85,26.74,26.74,0,0,0,2.82-.32,2.35,2.35,0,0,1,2.13.42,1.94,1.94,0,0,1-1.19,3.34c-5.28.41-10.54,1.1-15.75,2-1.67.49-3.31,1.12-5,1.49A66.9,66.9,0,0,0,102.2,56C100,57,97.87,58,95.68,59,95,59.31,94.35,59.89,93.56,59.82Z" transform="translate(-36.57)"/><path d="M121.78,85.54c-7.32-3.71-14.76-7.36-21.22-12.49a30.52,30.52,0,0,1-7.56-7c-2.32-2.55-3.11-6-.54-8.72,1.24-1.51,4-.93,3.28,1.27a1.09,1.09,0,0,1-.5.71,3.1,3.1,0,0,0-.74,1.26c-.76,1.78,4.1,6.08,5.45,7.28a106.45,106.45,0,0,0,12.73,8.66c3,1.68,6.07,3.2,9.12,4.75,1,.57,2.22.88,2.79,1.9A1.92,1.92,0,0,1,121.78,85.54Z" transform="translate(-36.57)"/><path d="M116.14,129.32c-.55-2.94.25-6,.34-9,.46-5,1.21-9.93,1.93-14.88a173.87,173.87,0,0,1,3.48-17.4c.44-1.51.51-3.23,1.42-4.55a1.75,1.75,0,0,1,3,1,4.9,4.9,0,0,1-.22,1.47c-.77,4-1.92,8-2.68,12-1,5.35-1.83,10.68-2.64,16-.6,4.33-1,8.83-1.27,13.17a10.75,10.75,0,0,1-.09,2A1.73,1.73,0,0,1,116.14,129.32Z" transform="translate(-36.57)"/><path d="M117.28,130.39a1.81,1.81,0,0,1,2.35-2.58c.77.71,1.64.25,2.49-.07,2.3-.93,4-2.83,5.9-4.36,1.34-1.09,2.88-1.9,4.28-2.91,2.28-1.71,4.11-3.93,6.29-5.76a52.34,52.34,0,0,0,7.56-7.17,49.91,49.91,0,0,1,6.45-6.47,37.16,37.16,0,0,0,4.33-5.79c.65-1.08,1.72-2.58,3.14-1.81s.88,2.33.07,3.4a56,56,0,0,1-3.57,5.21,45.09,45.09,0,0,1-4.52,4.31c-2.08,2.06-4,4.31-6,6.38s-4.47,3.82-6.63,5.82a39.83,39.83,0,0,1-8.78,7.22c-2.19,1.69-4.1,3.82-6.69,4.93C121.91,131.75,118.65,132.84,117.28,130.39Z" transform="translate(-36.57)"/><path d="M199.5,127.49c-4.18-.15-7.68-2.82-11.07-5q-3.65-2.23-7.46-4.15c-2.92-1.7-5.27-4.21-7.86-6.35A72.21,72.21,0,0,1,160,100.71c-6.4-6.93,1.55-9.22,1.2-4.91.7,1.8,2.24,3,3.53,4.42A65.25,65.25,0,0,0,175,108.94c2.41,2,4.6,4.21,7.13,6,2,1,4,2.07,5.88,3.23,3.22,1.77,6,4.24,9.53,5.48,1.1.39,2.35.1,3.41.6C202.84,125.45,201.56,127.78,199.5,127.49Z" transform="translate(-36.57)"/><path d="M200.32,126.63a1.94,1.94,0,0,1-.16-3,17.1,17.1,0,0,0,.21-2.27c0-2.32,0-4.82-.2-7.08a59.13,59.13,0,0,0-2.57-10.8c-2.07-6.34-3.82-12.81-6.67-18.86-.82-2-1.91-4-2.55-6.07a1.68,1.68,0,0,1,2.94-1.32h0c3.8,6.52,6.19,13.76,8.43,20.94,1.72,5.66,3.67,11.36,4.06,17.3,0,3.09.36,6.24-.15,9.31C203.37,126.28,201.77,127.67,200.32,126.63Z" transform="translate(-36.57)"/><path d="M190.5,80.57A1.8,1.8,0,0,1,189.12,79c-.1-1,.82-1.7,1.54-2.24,1.46-1.08,3-2,4.49-3.11,2.44-1.87,4.49-4.17,6.77-6.21,1.26-1.11,2.62-2.11,3.8-3.29,2-1.89,3.76-4,5.77-5.88A42.17,42.17,0,0,0,218,51a15,15,0,0,0,2.41-3.84,2,2,0,0,1,2.56-1.56c2.63,1.29.16,4.33-.8,6-1.51,2-3,4-4.62,5.9a51.57,51.57,0,0,1-4.36,4.26c-1.65,1.74-3.3,3.5-5,5.16s-3.66,3.09-5.37,4.76a41.43,41.43,0,0,1-9,7.35C192.7,79.59,191.79,80.82,190.5,80.57Z" transform="translate(-36.57)"/><path d="M221.41,48.61a1.81,1.81,0,0,1-.9-.71,1.85,1.85,0,0,1-.29-1c-4.85-3.54-11-3.68-16.73-3.74A177.72,177.72,0,0,0,178,44.22c-1.74.07-3.52.65-5.23.3a1.71,1.71,0,0,1-.35-3,6.51,6.51,0,0,1,2.39-.63,163.79,163.79,0,0,1,16.41-1.38,114,114,0,0,1,23.21.9A30.36,30.36,0,0,1,220.88,43c.94.66,2.11,1.08,2.78,2.06C224.7,46.63,223.42,49.33,221.41,48.61Z" transform="translate(-36.57)"/><path class="cls-3" d="M503.36,39.14c4.27.52.21,5.57-1.18,7.22-1.81,2.09-3.45,4.3-5.32,6.23a97.4,97.4,0,0,0-7.15,8.22c-1.95,2.12-4,4.16-5.72,6.46a44.7,44.7,0,0,1-6.4,6.79c-.95.81-2.08,2.5-3.4,2.15.48,1.37.83,2.79,1.24,4.19,1.77,6,4.2,11.85,5.88,17.91,1,3.2,1.59,6.28,2.49,9.29.69,2.51,5.69,16,0,14.45a23.26,23.26,0,0,1-6.52-2.36,68,68,0,0,1-14.55-7.63c-1.32-1-2.62-1.94-3.89-3-2.88-2.49-5.07-5.1-8-7.36-3.44-3.16-6-7.11-9.33-10.38-.09-.12-.19-.22-.29-.33l-.56.67c-1.35,1.52-2.57,2.68-3.93,4.1-2.65,2.69-4.78,5.83-7.48,8.47-2.3,2.26-3.84,5.12-6,7.47-1.62,1.67-3.53,2.92-5.22,4.5a34.92,34.92,0,0,1-6.09,5.23c-2.83,1.68-5.42,4.37-8.56,5.32-1.16.26-2.92.89-3.49-.59.06-7.67.61-15.46,2.86-22.88.61-2.57.83-5.24,1.56-7.8,1.48-4.55,2.7-9.17,3.91-13.81l.23-.72c-.39-.18-.78-.36-1.17-.5-1.33-.55-2.65-1.09-3.95-1.69a138,138,0,0,1-12.8-7.54,58.77,58.77,0,0,1-7.19-4.49c-3.67-2.35-8.27-4.93-9.09-9.6.11-1.69,2.2-2,3.45-2.53s2.51-1.06,3.77-1.57c4.71-1.78,9.34-3.83,14.22-5.09,3.18-.59,6.29-1.48,9.46-2.09,4.36-.7,8.73-1.24,13.11-1.83.54-.07,1.16-.2,1.77-.24.2-.79.49-1.59.6-2.2.78-2.58,1.32-5.23,2-7.83,2.38-7.64,3.72-15.62,6.92-23,.93-2.12,1.77-4.36,2.63-6.48a14.32,14.32,0,0,1,2.2-4,1.56,1.56,0,0,1,1.85,0c1.14.12,2.26,1.27,3,2.05,2.51,2.8,4.08,6.26,5.91,9.51,1.57,3.91,3.2,7.78,4.95,11.62a53.36,53.36,0,0,1,2.61,5.77,45.31,45.31,0,0,0,2.14,5.94c.62,1.35,1.25,2.7,1.86,4.06,1.55-.12,3-.56,4.58-.82,2.6-.44,5.24-.58,7.86-1,7.11-.51,14-.54,21.05-.4A75.78,75.78,0,0,1,503.36,39.14Z" transform="translate(-36.57)"/><g class="cls-4"><path d="M205.35,527.8c3.16,1.54-1.33,4.36-2.85,5.27-2,1.13-3.82,2.4-5.78,3.4a79.67,79.67,0,0,0-7.74,4.45c-2.07,1.12-4.2,2.15-6.15,3.47a36.65,36.65,0,0,1-6.77,3.54c-.95.38-2.28,1.38-3.21.76,0,1.19-.1,2.38-.16,3.57-.24,5.15.08,10.29-.24,15.44-.1,2.73-.44,5.29-.55,7.85-.15,2.13.13,13.87-3.89,11.18a19.19,19.19,0,0,1-4.41-3.57,55.58,55.58,0,0,1-9.22-9.8c-.76-1.09-1.51-2.2-2.22-3.32-1.57-2.7-2.56-5.31-4.22-7.84-1.81-3.37-2.74-7.11-4.44-10.53,0-.11-.09-.22-.14-.33-.2.13-.41.24-.61.36-1.45.82-2.71,1.4-4.14,2.13-2.77,1.37-5.26,3.23-8.05,4.56-2.38,1.13-4.35,2.93-6.66,4.17-1.7.85-3.51,1.31-5.24,2.08a28.26,28.26,0,0,1-6.12,2.42c-2.63.54-5.36,1.94-8,1.83-1-.11-2.5-.09-2.54-1.39a65.75,65.75,0,0,1,8.33-16.94c1.16-1.83,2-3.84,3.29-5.62,2.36-3.13,4.55-6.38,6.72-9.64.11-.16.24-.33.37-.5-.25-.24-.5-.49-.77-.71-.88-.77-1.76-1.54-2.61-2.36a116,116,0,0,1-7.89-9.25,50.21,50.21,0,0,1-4.36-5.4c-2.22-2.8-5.08-6-4.47-9.86.54-1.28,2.23-.94,3.35-1s2.22-.15,3.34-.21a110.83,110.83,0,0,1,12.36-.13c2.62.39,5.27.53,7.88.91,3.56.62,7.09,1.38,10.64,2.09.43.09,1,.15,1.44.29.36-.56.8-1.1,1-1.54,1.29-1.8,2.42-3.7,3.68-5.52,3.88-5.28,7.06-11.09,11.51-15.95,1.28-1.39,2.53-2.9,3.76-4.31a11.54,11.54,0,0,1,2.79-2.53,1.27,1.27,0,0,1,1.41.53,4.94,4.94,0,0,1,1.79,2.39c1.19,2.84,1.48,5.94,2,8.94.17,3.45.4,6.88.73,10.32a45,45,0,0,1,.48,5.17,37,37,0,0,0,.06,5.17c.12,1.21.25,2.42.36,3.63,1.22.33,2.5.39,3.76.6,2.13.35,4.21,1,6.34,1.35,5.64,1.51,11,3.32,16.4,5.32A62.43,62.43,0,0,1,205.35,527.8Z" transform="translate(-36.57)"/><path class="cls-3" d="M142.33,495.26c3.52,0,.7,4.51-.27,6-1.27,1.88-2.4,3.83-3.73,5.58a80.69,80.69,0,0,0-5,7.38c-1.37,1.91-2.84,3.76-4,5.8a36.4,36.4,0,0,1-4.56,6.13c-.69.75-1.45,2.24-2.56,2.08.53,1.07,1,2.19,1.41,3.28,2,4.74,4.56,9.24,6.51,14,1.1,2.5,1.9,5,2.91,7.31.8,2,6.16,12.43,1.37,11.76a19.07,19.07,0,0,1-5.52-1.3,55.32,55.32,0,0,1-12.57-4.81c-1.16-.65-2.32-1.32-3.45-2-2.58-1.75-4.61-3.67-7.2-5.23-3.1-2.24-5.57-5.21-8.58-7.55l-.27-.23-.4.59c-.94,1.37-1.83,2.44-2.8,3.72-1.89,2.44-3.33,5.2-5.27,7.61-1.65,2-2.63,4.53-4.17,6.65-1.16,1.51-2.6,2.71-3.81,4.16A29.25,29.25,0,0,1,75.86,571c-2.14,1.63-4,4.07-6.45,5.14-.92.33-2.28,1-2.89-.14a66,66,0,0,1,.13-18.88c.25-2.15.17-4.34.51-6.49.77-3.85,1.32-7.72,1.86-11.61,0-.19.07-.39.12-.61-.33-.11-.67-.21-1-.3-1.13-.31-2.25-.62-3.37-1a113.51,113.51,0,0,1-11.13-4.9,47.3,47.3,0,0,1-6.28-3c-3.21-1.55-7.2-3.21-8.32-6.93-.06-1.39,1.61-1.81,2.57-2.4s1.94-1.1,2.92-1.63a109.59,109.59,0,0,1,11.07-5.5c2.53-.79,5-1.81,7.49-2.62,3.48-1,7-1.84,10.49-2.74.43-.11.92-.28,1.42-.36.08-.67.24-1.34.27-1.85.39-2.18.57-4.38.91-6.57,1.2-6.44,1.53-13.06,3.43-19.37.55-1.81,1-3.71,1.51-5.52a11.48,11.48,0,0,1,1.41-3.49,1.27,1.27,0,0,1,1.5-.13,4.83,4.83,0,0,1,2.65,1.37c2.3,2,3.92,4.7,5.71,7.17,1.66,3,3.36,6,5.15,9a45.5,45.5,0,0,1,2.68,4.44,35.06,35.06,0,0,0,2.31,4.63c.63,1,1.28,2.07,1.9,3.12,1.24-.24,2.42-.74,3.64-1.1,2.08-.61,4.21-1,6.3-1.54,5.73-1.1,11.31-1.78,17.09-2.35A61.83,61.83,0,0,1,142.33,495.26Z" transform="translate(-36.57)"/></g></g></g></svg>