<svg xmlns="http://www.w3.org/2000/svg" viewBox="0 0 886.34 670.03"><defs><style>.cls-1{fill:#d94a3d;}.cls-2{fill:#0087ff;}.cls-3{fill:#fff;}</style></defs><title>Imagen 3</title><g id="Capa_2" data-name="Capa 2"><g id="Capa_1-2" data-name="Capa 1"><path class="cls-1" d="M487.33,488.48l.42,0c-.09,2.2-.21,4.4-.38,6.6l-1.2-.1c.15-.71.3-1.42.43-2.14C486.88,491.43,487.14,490,487.33,488.48Z"/><path class="cls-1" d="M468.57,486.75c-.12.27-.25.54-.38.81l-.73-.36c0-.19-.1-.38-.17-.58Z"/><path class="cls-1" d="M235.11,474.33c.06.42.12.84.19,1.26l-.58-.06,0-1.9C234.86,473.86,235,474.1,235.11,474.33Z"/><path class="cls-1" d="M91,455l.63,0-1,1.77c-.55,1-1,2.1-1.47,3.18C89.74,458.3,90.34,456.64,91,455Z"/><path class="cls-1" d="M497.63,356.38c-.27,1.45-.54,2.91-.79,4.37a5.67,5.67,0,0,0-.82-1.35c-.1-.13-.21-.25-.32-.37,0-.53,0-1-.07-1.56a5.57,5.57,0,0,0-.44-1.61Z"/><path class="cls-2" d="M387.59,298c.14,3,.3,5.91.48,8.87-.65,2.32-1.34,4.63-2.11,6.92-1.48,5.11-2.18,10.18-3.28,15.4-1.58,6.12-2.6,13.19-4.15,19.44-1.82,6-3.43,12-4.78,18.06-.78-2.39-1.46-4.82-2.12-7.24-.82-2.88-2-5.61-3.06-8.39-1.35-4.28-2.18-8.7-3.64-12.95A134.7,134.7,0,0,1,359,317.32c.31-2.34.73-4.68.93-7,.93-9.79,2.86-19.44,4.3-29.16,2.14-15.68,4.53-30.73,7-46.23.54-3.83,1-7.68,1.5-11.52.39-2.94.82-5.88,1.11-8.83a21.74,21.74,0,0,0-2.43-6.21c-.16-.24-.32-.49-.48-.72.3-.72.6-1.44.89-2.16,2.31-5.35,4-11.07,7.29-15.93,2.42,9.34,3.86,18.94,6.55,28.22.23.75.48,1.5.73,2.25.05,2.46,0,4.91.05,7.36,0,5.93-.45,11.83-.8,17.74.19,5.38.43,10.75.18,16.14C385.83,273.56,387.34,285.76,387.59,298Z"/><path d="M424.61,108.3a2,2,0,0,1,3.44,2.22,32.5,32.5,0,0,1-2.95,3.57C424,115.2,423,117,421.24,117a2.19,2.19,0,0,1-1.55-.82c-1.18-1-2.35-2.07-3.48-3.17-1.08-1.27-2.82-2.3-3.23-4a1.22,1.22,0,0,1,1.84-1.14c2.2,1.45,4.13,3.29,6.29,4.81A32.79,32.79,0,0,0,424.61,108.3Z"/><path d="M429.31,75.41c2.47,6.3,7.52,22.8-4.14,21.88-4.56-1-7.59-5.52-9.95-9.24-.67-1.31-1.24-2.66-1.93-4a1.72,1.72,0,0,1,.71-2.31c2.57-1.11,3.06,2.92,3.93,4.32A25.1,25.1,0,0,0,423,92.84c12.34,9.19-4.59-30-4.32-33.53-.24-2.56-.35-5.75,1.43-7.77a1,1,0,0,1,1.62.46v0c.07,1.25-.35,2.52-.24,3.8.09,3.52,2,6.55,3.44,9.67C426.44,68.75,427.89,72.07,429.31,75.41Z"/><path d="M399.46,75a10.16,10.16,0,0,0-2.88-3.27h0a20.94,20.94,0,0,0-7.23-3.12l-.79-.15c-5.52-.94-12.1.19-16.09,4.28,1.27.4,1.67,1.77,2.36,2.76,1.88,1.92,4.68,2.41,7.17,3.14a27.43,27.43,0,0,0,6.5.82,11,11,0,0,0,1.82-.21h0A16.51,16.51,0,0,0,394.16,78h0A53.22,53.22,0,0,0,399.46,75Zm4.93-2.73a5.35,5.35,0,0,1,1.17,2.46c0,5-13,8.8-17.19,8.28-5.48-.3-16.1-1.89-18.77-7.25-3.15-.17-.24-4.65.83-5.83,2.36-3.11,6-4.84,9.69-5.76a25.67,25.67,0,0,1,16,1.12A14.18,14.18,0,0,1,404.39,72.27Z"/><path d="M396.58,71.73A7.14,7.14,0,0,1,394.17,78h0a5.09,5.09,0,0,1-3.84,1.28h0a5.76,5.76,0,0,1-1-.18c-5.11-1.78-4.24-8.17-.8-10.61a5.1,5.1,0,0,1,5.12-.48,4.76,4.76,0,0,1,2.9,3.75Z"/><path d="M380.64,91a.68.68,0,0,1,.13,1.35,15.36,15.36,0,0,0-1.47,3.57c-.45.93-.37,3-1.85,2.69-1.34-.54-.24-2,.07-2.91s.81-2,1.3-2.93C379.21,92,379.71,91.05,380.64,91Z"/><path d="M388.51,90.56a1.08,1.08,0,1,1,.87,1.94h0c-.86,1.19-1,5-2.94,4.43a1.19,1.19,0,0,1-.76-1.48C386.33,93.74,387,91.7,388.51,90.56Z"/><path d="M399.43,90.14c.61,1.37-.17,3-.39,4.42a1.22,1.22,0,0,1-1.53.79c-1.57-.59-.49-2.33-.08-3.37C397.83,91.23,398.27,89,399.43,90.14Z"/><path d="M444,86.91a.86.86,0,0,1,.29,1.68c-.47,1.38-.77,2.83-1.19,4.22a1.1,1.1,0,0,1-1.23.75c-1.89-.6-.26-2.9.09-4.12C442.38,88.47,442.8,87,444,86.91Z"/><path d="M453.16,85.73c.94.35.09,1.61.16,2.25,0,1-.27,2.68-1.65,2.28-1.59-.63-.3-2.23.24-3.18C452.27,86.58,452.32,85.5,453.16,85.73Z"/><path d="M518.52,301.59c-2.6-1.11,2-6.7,2.81-8.26,2.46-3.75,5-7.56,5.95-12,.79-2.38,3.16-11.05,6.66-9a2.22,2.22,0,0,1,.92,2.76c-2,3.6-3,7.42-4.42,11.19a55,55,0,0,1-6.66,10.17c-1,1.29-2,2.58-3,3.88C520.48,301.15,519.46,302,518.52,301.59Z"/><path d="M545.65,284a1.12,1.12,0,0,1,1.78,1.37c-1.7,2-3.42,3.86-5,5.79a.82.82,0,1,1-1.53-.56C542.27,288.31,544.16,286.28,545.65,284Z"/><path d="M698.56,225.72a1.82,1.82,0,0,1-1.68,2.89,1.79,1.79,0,0,1-1.18-.68c-1.72-2.12-3.08-4.5-4.91-6.54-2.83-3-6.19-5.4-9.07-8.33-1.17-.95-1.85-3.42.36-3.35a.54.54,0,0,1,.08,1.07c3.49,3.06,7.9,4.84,11.12,8.24A66.72,66.72,0,0,1,698.56,225.72Z"/><path d="M690.11,236.67a63.56,63.56,0,0,1-2.11-7.43,3,3,0,0,1,0-1.83c.73-1.32,2.15-.1,2,1a48.37,48.37,0,0,0,3.19,6.7,1.72,1.72,0,1,1-3.07,1.54Z"/><path d="M256.26,324.92c1.47,2-.91,3.62-2.26,4.8a83.39,83.39,0,0,0-6.47,6,2.16,2.16,0,0,0-.78,1.9,1.42,1.42,0,0,1-1.06,1.83,1.28,1.28,0,0,1-1.43-1.25,9.12,9.12,0,0,0-.24-1.87c.1-2.74,2.51-4.74,4.09-6.78C250,327.82,253.44,321.94,256.26,324.92Z"/><path d="M258.19,347.13a2.48,2.48,0,1,1-.34,4.94c-3.09-.4-14.71-2.2-14.66-6.06.31-1.59,1.86-.9,2.89-.58.21,0,.67-.14.68.2A40.88,40.88,0,0,0,258.19,347.13Z"/><path d="M251.4,371.89a2.21,2.21,0,0,1-3.92,1.64c-1.95-2.68-3.66-5.37-5.54-8.07a1.4,1.4,0,0,1-.37-1c.68-1.72,2.6.6,3.38,1.18,1.93,1.75,3.64,3.22,5.61,4.81A2.28,2.28,0,0,1,251.4,371.89Z"/><path d="M781.44,48.54c-.09-7.54-.53-15.06-.73-22.59,0-1.29.57-2.6-.05-3.84-1.1-2.24-4.11-2.09-6.2-2.74-2.66-.43-5.51-2-8.18-1-2.67,1.3-2.41,4.74-2.62,7.28,0,.64,0,1.37,0,2.08-9.1.57-18.25.37-27.36.68-18.49.66-37,1-55.42,2.69a119,119,0,0,1-13.49.49,1.45,1.45,0,0,0,.06-.3,7.76,7.76,0,0,0-.68-3.63c-1.06-3.26-1.93-6.79-4.37-9.33a4.92,4.92,0,0,0-6.58-.82c-1.38,1.08-1.59,2.94-1.88,4.55-1.53-7.07-9.35-9.73-11.58-1.5-4.1-8-11.14-5.95-11.47,2.69,0,1.84,0,7.9,1,11.12-3.19.22-6.38.37-9.56.68q-10.44,1.14-21,1.4c-1.41,0-2.82,0-4.24,0-.23-1.75-.84-3.21-2.62-2.71a3,3,0,0,0-3.13-1.34c-2.33,0-4.58-.72-6.9-.82-2-.05-3,1.84-2.88,3.64a34.93,34.93,0,0,0-.65,5.18l-.57.09c-4.9.92-10,.59-15,1.06a128.23,128.23,0,0,0-13.85,1.3c-6.2.87-12.44,1.3-18.64,2.19-5.54.94-11.16,1.17-16.74,1.82S505,48.5,499.31,49.19c-3.24.47-6.48.62-9.74.94a13.24,13.24,0,0,0-1.27-4,2.09,2.09,0,0,0-.6-.51,1.81,1.81,0,0,0-.7-.23c-.11-2.35-2.5-2.63-4.32-2-3.14.93-9.35-.45-10,3.92-.23,3.86.74,7.65.74,11.51a29.91,29.91,0,0,0,.81,5.12,74.72,74.72,0,0,1,1,9.21c0,2.41,1.76,4.91,4.38,3.9a49.16,49.16,0,0,1,8.41.91,2.56,2.56,0,0,0,3.29-1.66c.23-.9-.35-1.81-.16-2.75.06-.65.1-1.29.13-1.94a33.42,33.42,0,0,0,4.76.75c3.57.34,7.14.67,10.69,1.17,3.62.33,7.29.09,10.92.28s7.16.67,10.74.74c10-.33,20,.85,30,.9,8.37.07,16.75-.18,25.11-.51.09,1.09.2,2.18.33,3.26a3.88,3.88,0,0,0,1.76,2.83c2.25.79,4.77.52,7.14.66,2.16.26,4.1-.49,4.36-2.86a10.49,10.49,0,0,0,1-2.28v0l.73.06c4.6.28,9.17.81,13.77,1.18,6.48.52,13,.15,19.45.2,1.72,0,3.43.23,5.15.21a50.38,50.38,0,0,0,.85,5.56c1,5.2,2.42,10.3,3.59,15.45,2,8,3.25,15.92,5.19,24q4.06,15.28,8.11,30.6c2.35,7.44,4,15.09,6.71,22.4a181.88,181.88,0,0,1,7.83,26.7,3.16,3.16,0,0,0-1,.63,2.74,2.74,0,0,0-1.89-.49c-3.14.06-6.22.68-9.34,1-10-.25-19.9-.67-29.84-1.05-8,0-15.93-.14-23.9-.45-9,0-18.06.54-27.21-.49-12.86-.54-25.71-1.26-38.58-1.84-16.07-.8-32.16-.93-48.22-2.06-7.19-.4-14.42-.56-21.54-1.78-9.32-1.75-18.74-2.91-28.25-2.34-7.18,0-14.31.82-21.48,1.12-.18-4.45-.34-9-.45-13.46a3,3,0,0,0-.09-3.46c-.09-4-.16-7.93-.24-11.86-.28-4.14-.28-8.28-.3-12.42-.1-3.71-.7-7.44-.15-11.14,8.92-1.21,17.88-2.56,26.53-5.09,5.36-1.83,14.57-3.22,15.36-10,2.2-11.27,2.7-22.77,3.14-34.22.07-4.71.71-9.39.8-14.09-.07-5-.37-9.88,0-14.83,0-2.76.07-5.52.15-8.28.06-4.71-.76-9.36-1-14.06-.45-2.51-.11-7.58-1.18-10.64,1.82-1.08,1.36-4.58,1.41-6.6,0-3.21-1.78-5.9-3.47-8.47-4.11-6.41-11.88-9.58-19.23-10.24a70.5,70.5,0,0,0-17.41-.73c-9.15.36-18.71-1.61-27.74-3.47C387.38.51,380.3-.67,373.18.43c-8.75,1.2-17.54,4.06-24.45,9.71-.84.79-3.63,2.38-3.72,3.8l-.31.05c-8.34,1.74-12.72,9.77-16.34,16.72-4.48,9-5.33,19.08-6.11,29-1.26,9.71-6.37,20.13.22,29.16a1.82,1.82,0,0,0,1.18.64c-1.15,4-.75,8.72,1.56,12.09,2.45,3.15,6.42,4.59,9.9,6.29a3.2,3.2,0,0,0,.42.1v0c-.06,3.31-.13,6.63-.45,9.94-1.45,12.81-2.94,25.63-3.77,38.5-.9,12-1.77,24-2.74,36-1,.14-2,.33-3,.39-3.38.46-6.73,1-10.1,1.59-12.69,2-25.54,4.21-37.86,8-12.68,3.43-25.88,7.25-38.61,10.84a127.45,127.45,0,0,0-14,3.61c-4.76,1.4-9.76,2.52-14.41,4.34-5.51,2.3-10.92,4.74-16.61,6.6-2.41.91-4.81,1.88-7.27,2.67a3.86,3.86,0,0,0-3.85,4.63,3.15,3.15,0,0,0,.24.67,215.45,215.45,0,0,0-12.82,17.34c-3.08,4.65-6.52,9-9.41,13.82-2.13,3.56-3.72,7.43-5.65,11.1a222,222,0,0,0-14,29.92c-1.62,3.66-3.57,7.15-5.32,10.76-4,8.65-7.51,17.57-11,26.46-1.13,2.86-2.25,5.72-3.42,8.56q-1.24,3.24-2.56,6.47c-2.15,5.33-4.4,10.61-6.49,16-8.08,23.19-16.8,46.14-25.42,69.15q-1.68,4.6-3.39,9.22c-.82,2.23-1.64,4.48-2.45,6.72A272.61,272.61,0,0,0,71.49,493c-2.81,11.81-4.44,23.86-6.62,35.79-1.46,7.89-3.3,15.7-5,23.55-3.43,16-5.58,32.35-8.81,48.44-.54,2.67-1,5.33-1.5,8-.4,2.2-.77,4.41-1.14,6.62-.18,1-.36,2.08-.53,3.13-.45,2.8-1.79,6.5,1.9,7.24a27.58,27.58,0,0,0-1,2.94,145.82,145.82,0,0,0-21.37-2.34c-7.06-.13-15.11-1.37-21.2,3-6.13,5-7,13.93-5.79,21.27,3.11,11.27,8.19,11.76,13.39,1.3.09,3.82-.73,7.88.88,11.48.76,1.71,2.28,3.49,4.3,3.56,3.33-.25,4.57-4.13,6-6.64,1,3.56,1.56,8.29,5.7,9.52,6.11,1.73,8.08-10.84,8.94-15,5.26,2.79,11.2,3.43,17,4.54a47.5,47.5,0,0,0,13.87.79c10.86-1.49,13.72-13.57,17.73-22a3.8,3.8,0,0,0,.54-1.87c1.83-.13,3.47-.83,3.85-2.82,3.4.09,3.35-4,4-6.64.32-1.24.69-2.46,1.09-3.67a2.84,2.84,0,0,0,.65-2.07c.68-2.43,1.42-4.83,2.22-7.23s1.61-4.7,2.48-7c1-2.79,2.14-5.57,3.27-8.33,2.25-5.77,4.55-11.53,6.65-17.35,2.86-8.89,5.77-17.74,9.42-26.35,4.52-11.38,8.12-23.09,12.21-34.62,3.31-8.15,6.21-16.43,9.21-24.68,4-9.56,8-19.09,12.38-28.5q1.55-3.36,3.15-6.71a286,286,0,0,1,17.41-31.49c4.56-7.51,10-14.42,14.77-21.82C195,402,198,396.69,201.49,391.7c5.87-8.27,12.22-16.21,17.45-24.92,3.3-5.45,7-10.66,10.61-15.91-.14,1.26-.25,2.37-.39,3a265.42,265.42,0,0,0-1.48,32.88c-.07,10.89-1.61,21.72-1.47,32.6.51,13.63,1.59,27.25,1.43,40.9-.1,2.5-.19,5-.24,7.52-.06,2.34-.08,4.67-.1,7-.07,8.67,0,17.35,0,26,0,8.23-.78,16.51.1,24.71.77,4.75,1.69,9.47,2.38,14.23.64,6.6,3.29,7.57,9.28,9q4.33,1,8.72,1.62c-.07,11.74-.94,23.52.14,35.21a140.21,140.21,0,0,1,1.28,15.17v.17a3.41,3.41,0,0,0,.05.55,21.59,21.59,0,0,1,5.17.69,7.37,7.37,0,0,1,.76.16,3.6,3.6,0,0,0,.31-1.4l0-.48,3.28-.2c13.33-.91,26.55-2.88,39.86-4,12.62-1.16,25.26-2.11,37.87-3.37,12.92-1.4,25.7-3.81,38.65-5.06,12.05-1.66,24.19-1.58,36.32-2,9.31-.73,18.58-1.9,27.92-2.44,10.8-.59,21.61-.81,32.43-1,0,.73,0,1.46,0,2.21,1.06,0,2.11.08,3.16.13,1.46.07,2.9.17,4.33.32,0-.92.06-1.84.07-2.77a304.46,304.46,0,0,0-1.89-36c-.3-1.72-.39-3.59-.79-5.34l.84-.14a61.44,61.44,0,0,0,8.15-2,3,3,0,0,0,1.53-1.54h.08a3.12,3.12,0,0,0,3.62-2.93,21.4,21.4,0,0,1,.13-2.26q.76-9,.72-18.1c-.07-6.19,1.22-12.24,1.86-18.36.12-1.06.21-2.12.27-3.19l.15-3.36c.16-3.68.31-7.37.7-11,.92-7.44,1.54-14.9,1.78-22.4.37-6.8,1.48-13.51,1.84-20.33.14-13.95,2-27.83,2-41.79.34-7.83,1.49-15.6,1.24-23.45,0-1.76.08-3.51.23-5.24.21-2.47.54-4.93.84-7.39.27-2.16.51-4.31.64-6.49.23-3.84-.39-7.65-.54-11.49,0-1.46.05-2.9.1-4.36a16.69,16.69,0,0,0,.42-2.77c.33-2.62.67-5.22,1-7.83a3.33,3.33,0,0,0,1.94-2.3c.71-2,1.25-4,2-6,6.2-.51,12.28-2.2,18.49-2.75,6.68-1.06,13.45-1.29,20.12-2.4,6.91-1.36,13.62-3.53,20.53-4.86,8.7-1.49,17.53-1.9,26.24-3.23,5.67-.6,11.36-.93,17-1.88,5.4-.88,10.75-2.09,16.18-2.84a330.67,330.67,0,0,0,32.58-5.95c5.36-1.26,10.76-2.43,16.09-3.8s10.32-3.59,15.45-5.39c9.23-3.12,19.61-6.06,28.25-11.09,9.35-5.52,19-10.86,27.17-18.06,9.32-7.79,15-17,12-29.43a130.44,130.44,0,0,0-7.69-22.34c-1.68-3.71-3.38-6.82-5.08-10.64-1.3-3.17-2.34-6.42-3.69-9.57-4.65-10.07-10.44-19.57-15.52-29.41-2.48-5-4.38-10.24-6.75-15.29-3.61-7.47-7.72-14.69-11.43-22.1-2.17-4.79-3.65-9.88-6.29-14.46l-1.54-2.92a2.76,2.76,0,0,0-1.23-2.31c-3.31-6.27-6.58-12.56-9.93-18.8,3,0,5.93.09,8.89.2,9,.09,17.95-.49,26.92-.31,9-.21,18,.46,26.92.15,4-.09,8.05-.25,12.07-.25.08,1.52.35,3,1.73,3.91,1.71,1.18,3.88.82,5.8.57,3.26-.58,8.6,1.17,10.29-2.55C782.68,68.53,781.46,58.47,781.44,48.54ZM485.12,72.73c-1.41-.1-2.84-.15-4.25-.19a63.44,63.44,0,0,0-1.13-14c-.11-3.14-.63-6.24-.94-9.35,1-.19,2-.35,3-.53a21.67,21.67,0,0,0,2.95-.67c.76,8.26.63,16.63,1.72,24.85A12.21,12.21,0,0,0,485.12,72.73Zm107.3-22.9c-.31,9.11-.8,18.34.23,27.4-.22,0-.45-.06-.68-.08-1.24-.14-2.06-.27-3.36-.46-.68-6.56-1.08-13.14-1.8-19.7a75.65,75.65,0,0,1-1.07-11.43,36.3,36.3,0,0,1,.11-8.9,19.29,19.29,0,0,0,7.11.9C592.5,41.63,592.49,45.73,592.42,49.83Zm65.14-26.68c.29-1.08-.13-2.82,1-3.42a1.68,1.68,0,0,1,.87.12.34.34,0,0,1-.1,0l-.1,0c3.51,2.43,3.29,7.65,3.36,11.46,0,.1,0,.2.06.3-2.07,0-4.15,0-6.22.07C657,28.84,657.16,26,657.56,23.15Zm-9.77-3.57c2.79.71,2.76,9.05,3.88,12.31l-2.38.26c-1.22.13-2.43.28-3.64.46C646.86,28.4,646.23,23.72,647.79,19.58Zm-11.6,1.06c2.28,2.4,2.53,6,3.07,9.07a15.6,15.6,0,0,0,.84,3.75c-1.35.2-2.71.39-4.07.55l-1,.09c0-1.25-.25-2.7-.15-3.44C635,27.37,634.3,23.52,636.19,20.64ZM328.38,94c-.16-4.38,2.83-8.14,6.74-9.82l.24-.11c2,2.29,3,5.24,4.67,7.7,1.1,1.76,3.62,2.41,4.46.1a63.8,63.8,0,0,0,2.67-8.77c1.78-7.72,3.67-15.43,5.19-23.21,1.84-10.63,2.74-21.89-.49-32.27,11.6,6.87,26.08-1.12,38.21-3.83,7.72-1.78,16.12-2.68,23.69.38,4.07,1.5,7.39,4.31,11.64,5.62a30.4,30.4,0,0,0,11.79,1.32c6.06-.63,13.18-2.88,18.62.83l.26.15c-.05.77,0,1.58-.08,2.35-.1,2-.1,3.9-.08,5.85a5.1,5.1,0,0,0-1.87.4c-1.28.35-2.6.51-3.9.77-5.25,1-10.52,1.87-15.76,3.12-.86.24-1.84.3-2.69.62-4.4-.56-7.76,7.12,7.37,7.52,5.9.14,11.52-2,17.25-3.18.28,3.82.58,7.63.5,11.46,0,.24,0,.48,0,.73-3.23-3.5-8.59-4.46-13.2-3.43A20.06,20.06,0,0,0,429,72c-.23,4.32,7.39,7,11,6.91,5.8-.29,12.07-1.76,16-6.37.26-.28.59-.58.92-.9.13,2.48.44,4.94.43,7.43-.42,8.22-.57,16.44-.79,24.66a121.28,121.28,0,0,1-1.59,23.68c-.68,3.09-6.83,3.93-9.46,5a156.28,156.28,0,0,1-23.12,5.28,67.12,67.12,0,0,0-6.64,1.11,2.79,2.79,0,0,0-2.86,2c-.93,3.64-.64,7.45-.48,11.16s-.21,7.56-.08,11.34c.11,4.51.06,9,.12,13.55-8.49.15-17,.95-25.44,1.41-11.62-.19-23.19,1-34.78,1.54-5.51.31-11,.39-16.54.68l0,0c.19-2.59.16-5.2.46-7.78,1.09-10,1.71-20.47,2.71-30.56a143.41,143.41,0,0,0,1-17.64,97.72,97.72,0,0,0-.48-16.76,18.05,18.05,0,0,0-.48-2.74,2.63,2.63,0,0,0-1.61-2.55C333,100.81,328,99.5,328.38,94Zm123-30.24a9.81,9.81,0,0,1,5,2.86c-1.18.33-1.48,1.67-2,2.62a9.11,9.11,0,0,1-4.53,4.43C453,71.57,454.29,66.1,451.38,63.75Zm-4.62,10.73a4.17,4.17,0,0,0,1,0,27.66,27.66,0,0,1-6.54,1,10.91,10.91,0,0,1-8-2.69c2.5-3.62,5.73-7.15,10-8.59a17.3,17.3,0,0,1,3.29-.67,14.92,14.92,0,0,0-2.49,1.83C441,68.25,442.1,74.22,446.76,74.48Zm-32.45,132.1a2.4,2.4,0,0,0-.66.59c-2.21,3-5,5.47-7.25,8.41-4.06,4.86-7.33,10.28-11.14,15.32a97.25,97.25,0,0,0-3.66-13.84c-1.44-4.5-2.35-9.12-3.61-13.67-1.88-6.49-2.39-13.68-5.47-19.73,4.15,0,8.44-.1,12.49-.34,5.29-.15,10.79-.32,16.24-.58a7.59,7.59,0,0,1,1.35,0C413.23,190.67,414.09,198.6,414.31,206.58ZM334.07,196c.16-3.72.59-7.42,1-11.12.48,0,1,0,1.43,0,3.09.1,6.19.08,9.28.09,10.27.09,20.51-.8,30.76-1.25a14.31,14.31,0,0,1-.67,1.5c-3.41,4.77-5.59,10.22-7.84,15.61-3.85,9-8.72,17.61-12.07,26.85-2.53-3.62-4.8-7.38-7.51-10.91-4.59-5.33-9.61-10.37-12.71-16.79.09-1-1.12-1.79-1.38-2.87h0a1.71,1.71,0,0,0-.38-.59C334,196.4,334.06,196.21,334.07,196Zm-1.22,9.38c0-.17,0-.35,0-.54a71.28,71.28,0,0,0,5.61,9.14A147.38,147.38,0,0,1,349,229.38c1.29,1.92,2.51,3.88,3.8,5.8a5.28,5.28,0,0,0,2.29,2.27c3.79,1.5,5-2.66,5.91-5.43,1.65-4.61,3.37-9.19,5.34-13.67,1.62-3.53,3.11-7.1,4.58-10.68.3-.72.6-1.44.89-2.16,2.31-5.35,4-11.07,7.29-15.93,2.42,9.34,3.86,18.94,6.55,28.22.23.75.48,1.51.73,2.25.5,1.5,1,3,1.5,4.48,1.05,3.17,1.36,6.58,2.78,9.64,3.27,7,7.37,1.2,10-2.71s5.1-7.66,8-11.24c1.62-2.08,3.37-4.06,5.15-6-1.77,6.47-3.19,13.06-5.14,19.46-2.62,9.21-6.15,18.14-8,27.58a144.06,144.06,0,0,1-3.67,14c-1.49,4.07-3,8.13-4.2,12.3-1.59,6.43-3,12.91-4.79,19.3-.65,2.31-1.34,4.63-2.11,6.92-1.48,5.1-2.18,10.18-3.27,15.4-1.59,6.12-2.61,13.18-4.16,19.45-1.82,5.94-3.44,12-4.78,18-.78-2.38-1.46-4.81-2.12-7.23-.82-2.87-2-5.61-3.06-8.38-1.35-4.29-2.18-8.71-3.64-13a134.27,134.27,0,0,1-5.89-20.8c-1.89-8.88-3.36-17.87-5.62-26.65-3.76-18-7-36.12-11.86-53.85-2.6-9.66-6.1-19-9.08-28.6A7.42,7.42,0,0,0,332.85,205.4ZM80.7,636.38c-1.46,4-3,7.89-4.77,11.71-1.38,3-4.11,5.68-7.63,5.67-7.07.3-14-1.57-20.9-2.69A47.48,47.48,0,0,1,40,648.63c-1.94-1-4.8-.47-5.08,2-.43,4.81-1,9.73-3.22,14.2-1.21-4.55-2.45-9.13-2.26-13.89,0-1.42.08-2.87,0-4.29a2.7,2.7,0,0,0-4-2c-1.44.78-1.67,2.58-2,4a39.13,39.13,0,0,1-4,11.28c-.5-5.51,0-11.31-1.87-16.58a2.27,2.27,0,0,0-4-.15c-2.1,3.77-3.66,8-6.46,11.32-2.08-5.71-3.14-18.64,4-21,3.93-1.06,8.08-.57,12.09-.43,5.39.21,10.77.4,16.13,1a62.82,62.82,0,0,1,8.53,1.12c2.69,1.28,6.1-.2,5.51-3.52a45.16,45.16,0,0,0,1.07-4.82,55.81,55.81,0,0,0,7.07,2.9,125.49,125.49,0,0,0,19.38,5.59A5.36,5.36,0,0,0,80.7,636.38Zm9-7a16.79,16.79,0,0,0-3.08-.34,167.89,167.89,0,0,1-32.88-8.39c.24-1.36.5-2.72.75-4.08.33-1.72.68-3.46,1-5.18,5.72,1.84,11.06,4.81,16.64,7.06,4.23,1.53,8.71,2.24,13.09,3.2a59.79,59.79,0,0,1,6.09,1.61C90.71,625.27,90.25,627.33,89.67,629.36ZM377,518.65c0,.61-.15,1.3-.24,2a3.41,3.41,0,0,0-1,1.82c-2.78,3.27-5.35,6.71-8.08,10-6.24,5.86-14.55,9.45-22.88,11.14-5.68.58-11.38.85-17.08,1.15-8.07.37-16.12,1.19-24.19,1.86-3.59.11-7.19-.18-10.78-.35-5.43-.24-10.85,0-16.27-.44-6.79-.55-13.62-.59-20.38-1.5-6.44-.6-13.07-1.15-19.16-3.4-.66-2.66-.83-5.4-1.24-8.09-.55-3.9-1.41-7.74-1.59-11.68-.08-7.73.4-15.45.54-23.17,0-7.5,0-15,.08-22.49l0-1.91c.07-5.24.16-10.48.35-15.72,0-8.36-.43-16.72-.78-25.06-.7-9.62-1.32-19.23-.62-28.86.64-11.06.12-22.11-.46-33.15-.26-6.78-.35-13.59,0-20.37.06-1.69.1-3.39,0-5.08,1.65-2.52,3.26-5.09,4.75-7.73a7.06,7.06,0,0,1,.54-1.5,1.84,1.84,0,1,0-3.5-.84c-5.81,7.36-11.51,14.86-17.14,22.38-6.51,9.63-13.28,19.06-20.41,28.25-5,6.69-9.38,14.24-14.12,21.2a364.27,364.27,0,0,0-20.68,32.18c-8.12,15.06-15.15,30.86-21.89,46.6-3.83,8.8-6.47,18-9.94,27-3.56,8.54-5.9,17.51-9.14,26.16-3.3,9.62-7.19,19-10.64,28.56-3.74,12.23-8.52,24.09-13.34,35.92-1.73,4.28-3.22,9.08-4.64,13.76-6.46-2.37-13.32-3.19-19.91-5.16-3.36-.93-12.15-5.26-16.88-5.06q3.91-20.21,7.43-40.49c2.12-12.06,5.22-23.9,7.61-35.9,3-16.06,5.26-32.31,10-48,2.43-7.63,5-15.21,7.76-22.73.61-1.66,1.21-3.34,1.82-5,6.58-17.9,13.65-35.62,20.2-53.53,4-11.21,7.66-22.53,12.42-33.43,5.7-13.91,10.94-28,16.68-42,2.37-5.52,5.4-10.72,7.77-16.22,2.17-5.28,4-10.68,6.54-15.79,3.93-8,8-16,12.08-24,5.11-8.12,10.53-16,15.68-24.15,1.89-2.8,4-5.47,5.86-8.28,2.16-.88,4.4-1.56,6.57-2.41,8-2.52,15.55-6.33,23.54-8.91,7.68-2.1,15.2-4.74,23-6.38,13.35-4,26.83-7.69,40.24-11.57,6.6-1.85,13.31-3.45,20.05-4.95-.07.09-.14.19-.21.27-4.34,6.31-9.13,12-14,17.85-3,5.53,5.43,6.37,9.05,6.93,5.18.75,10.4,1.28,15.62,1.68-5.44,3-10.84,6.18-16.22,9.32-4.06,1.39-5.51,3.74-4,7.83C297.58,260.52,306.22,272.3,313,285c2.5,4.59,5.86,8.61,8.51,13.08,1.76,3,3.17,6.21,4.74,9.31s3.64,5.56,5.26,8.48c2.48,4.29,4.68,8.76,7.51,12.84,3.09,4.5,6.76,9.41,9.11,14.47a2.08,2.08,0,0,0,2.67,1.08c1.82-.85,1.22-2.64.47-4-2.19-5-5.29-9.56-8.29-14.11-3.15-4.92-5.08-10.08-8.12-15.17-4.21-6.19-6.35-13.5-10.61-19.68a121.08,121.08,0,0,1-8.7-14.68c-5.9-10.33-12.57-20.27-17.58-31.07,6.08-3.38,12-7.08,18.08-10.47,1.65-1,3.29-2,4.88-3.07a5.34,5.34,0,0,0,2.53-2.79,3.28,3.28,0,0,0-3.46-4.05c-9.06-.71-18.13-1-27.21-2.54,5.46-6.37,9.51-13.57,14.25-20.45,5.95-1.29,11.93-2.53,17.87-3.83a4.13,4.13,0,0,0-.26,1.81c.42,6.67,3,13,4.76,19.35,3.55,12.18,6.95,24.41,9.56,36.83,3.43,16.12,7,32.22,10.95,48.2,2.24,12,4.26,24.08,8.48,35.52,1.49,4.44,2.31,9.07,3.82,13.5.92,2.33,1.95,4.64,2.78,7,1.37,3.61,4.43,17,8,17.93-.15,4,.26,9,.16,10.86.06,11.89.74,23.74,1.09,35.61.14,11.56-.34,23.13.73,34.66.35,12.24.95,24,1.76,36.33C377.25,503.51,377.12,511.09,377,518.65Zm322.78-402,1.35-.38c.44,1,.9,2,1.38,3,5.75,10.47,11.89,20.72,16.35,31.82,3.56,7.63,7.82,14.91,11.68,22.38a91,91,0,0,1,7.82,16.33c1.84,5.44,4.76,10.38,7.08,15.61a132.6,132.6,0,0,1,7,20.57,19.41,19.41,0,0,1-4.66,18.18A76.19,76.19,0,0,1,730.4,258c-7.3,4.63-14.69,9.28-22.7,12.62-7.49,3.05-15.34,5.08-22.89,8A119.68,119.68,0,0,1,662.49,285c-6,1.38-12.09,2.72-18.16,3.94-10.82,2.1-21.8,3.08-32.6,5.26-5.55,1-11.16,1.53-16.79,2-8.14,1-16.31,1.89-24.45,2.84-10,1.32-19.37,5.26-29.35,6.42-9.17.62-18.26,2-27.37,3.21a15.3,15.3,0,0,1-5,.33c.66-1.57,1.32-3.15,2-4.73,1.47-4.71,3.67-9.16,5.13-13.86a2.72,2.72,0,0,0-5.12-1.77c-1.18,3.1-2.86,6-3.9,9.18-.48,1.68-.83,3.4-1.36,5.08-.85,2.92-1.93,5.89-2.66,8.91a14.61,14.61,0,0,0-.82,2.58c-3.12,1-2,5.35-2.63,7.88-.32,3.31-.73,6.63-1,10-.06,1.44-.36,3.34.56,4.56a59.7,59.7,0,0,0-.18,6.42,59.4,59.4,0,0,1-.11,6.93c-.19,2-.56,4.07-.94,6.18-.27,1.46-.55,2.91-.79,4.37s-.45,2.92-.59,4.33c-.66,6.81-.68,13.21-1.6,20.07-.51,4.43-.65,9.09-.71,13.59-.23,9.9-1.55,19.71-1.8,29.6,0,9.87-1.69,19.61-2.13,29.45-.12,8.72-1.58,17.33-2.05,26-.08,1.58-.13,3.14-.21,4.71-.1,2.2-.2,4.4-.39,6.6,0,.33-.05.68-.08,1a132.18,132.18,0,0,0-1.69,21.76q.06,7.17-.59,14.35a3.11,3.11,0,0,0-1.81,0c-1.65.47-3.32.84-5,1.22-5.66,1.18-11.42,1.82-17.11,2.77-5.33.92-10.72,1.27-16.1,1.68-8.64.67-17.34,1.39-26,.68a70.44,70.44,0,0,1-16.42-3.72c-3.53-1.12-7.12-2.09-10.37-3.93a33.48,33.48,0,0,1-9.32-7.44c-.38-.5-.69-1.06-1-1.57a13.68,13.68,0,0,0,.12-2c.1-2.74,0-5.48.06-8.22.29-11.54-.69-23-1.36-34.55-.23-9.58-.51-19-1.12-28.57-.15-9.44.1-18.89-.33-28.32-1.05-14.41-2.08-28.83-2.67-43.26a2.94,2.94,0,0,0,.45-1.54A2.31,2.31,0,0,0,377,375c0-.11,0-.21,0-.32.46-2.2,1.12-4.35,1.68-6.53,1.64-6.68,3.76-13.23,5.75-19.81,1.19-4.81,2-9.71,3.29-14.51,1.74-6.95,2.83-14.07,5.08-20.89,3.33-9.08,4.82-18.65,7.82-27.82a121.57,121.57,0,0,0,6.39-21c1.76-9.37,4.88-18.38,7.36-27.56,3-11.1,4.61-22.52,7.74-33.58h0a2,2,0,0,0-3.19-2.16,5.33,5.33,0,0,0-.42.4c0-.46,0-.91,0-1.35,4,.41,8-.09,12-.05,2.84,0,5.67,0,8.49,0-1,2.59,2.61,6.57,3.75,8.68,3.24,4.86,7.49,9.18,10.48,14.24-7.25,3.18-14.2,6.86-21.26,10.5-8,4,1.38,7.63,5.12,10,4.68,2.81,9.35,5.62,14.06,8.38-3.08,5.87-7.18,11.11-10.32,16.93-6.21,12.12-13.07,23.88-20.24,35.44-6.43,11.25-11.65,23.2-19.07,33.88-4.14,7-8.21,14.21-13.47,20.47-1.19,1.35-2.39,2.68-3.56,4.06a2.26,2.26,0,1,0,3.57,2.76A179.78,179.78,0,0,0,401,347.82c3.85-6.25,8.09-12.28,11.82-18.6,4.76-8.3,9-16.92,13.85-25.15,5.25-8.28,9.9-16.93,14.85-25.39a183.62,183.62,0,0,1,11.87-20.28c1.7-3.08,5.75-7.81,1.52-10.56-6-4.12-12.3-7.79-18.67-11.3,4.93-2.54,10-5,15.1-7.32,1.67-.77,3.39-1.52,5.12-2.17,3-.67,4-2.94,2.21-5.48-3.15-6.47-8.21-11.68-12.15-17.68-.82-1-1.59-2.73-2.56-4,.86,0,1.73,0,2.59.06,10,.11,19.68,2.87,29.62,3.57,18.56,1.23,37.13,1.82,55.72,2.38,16.06.85,32.13,1.38,48.18,2.26,8.34.78,16.71,0,25.07.17,7.89.37,15.77.09,23.64.33,9.06.53,18.15.41,27.21.75,3.74,0,7.42-.9,11.17-.87a3.57,3.57,0,0,0,.91-.24,3.37,3.37,0,0,0,2.64,1.4c.28,0,.57,0,.87-.06a94.88,94.88,0,0,1,3.78,13.1,2.59,2.59,0,0,0,5.06-1,40,40,0,0,0-4.9-14.26v0a3.19,3.19,0,0,0,.2-.57c.4-2.4-.94-4.65-1.26-7-.56-3.11-1.27-6.24-2.08-9.29s-1.37-6.36-2.24-9.49c-1.45-4.9-3.24-9.68-4.46-14.66-3.08-12.22-6.39-24.39-9.82-36.52,3.64-.55,8.71-2.63,10.45-3,3.56-1.15,7.21-1.93,10.79-3C684.5,121.06,691.9,118.14,699.74,116.63Zm-1.18-6.34c-1.24.27-2.48.54-3.73.79-9.41,1.66-17.77,6.48-26.77,9.44-3.65,1.34-7.22,2.89-10.81,4.36a24.7,24.7,0,0,1-2.56,1q-.71-2.47-1.43-5c-.5-1.92-1-3.85-1.46-5.77,1.31-.19,2.6-.63,3.87-.92,3.65-1,7.25-2.21,10.89-3.3,9.42-2.75,18.88-5.44,28.09-8.83A81,81,0,0,1,698.56,110.29ZM691.68,97c-1.71.71-3.41,1.45-5.15,2-3.21,1-6.43,2-9.59,3.19-7.59,2.45-15,5.33-22.47,8.2-1.14.49-2.37.81-3.52,1.27-1.74-7.13-3.48-14.25-5.88-21.19-1.31-4-2.77-8.27-3.78-12.4-.16-.48-.25-1.15-.41-1.79a25,25,0,0,0,.73-5.24,9,9,0,0,1,.22-1.57c.71-5.58,1.42-11.37,4.7-16.17a45.23,45.23,0,0,1-.4,12.4c-.18,1.34-.43,2.7-.52,4.06a3,3,0,0,0,3.89,2.86l.08,0c2.53.67,4.06,3.07,6.2,4.43a2.35,2.35,0,0,0,3.05-.56,2.11,2.11,0,0,0,.35-.62c.57.05,1.06.11,1.37.16,7.33.46,14.68.52,22,.58a9.39,9.39,0,0,0,.95,3.28c1,2.28,2,4.52,3,6.78A90.28,90.28,0,0,0,691.68,97Zm85.05-21.88a30,30,0,0,0-6.07-.11,3,3,0,0,0-.32-3.44c.62-7.63.09-15.3-.48-22.93a135.35,135.35,0,0,1-1.23-15.78,3.52,3.52,0,0,0,.47-2.26,2.82,2.82,0,0,0,.63-1.6c.06-1.26.15-2.54.3-3.8,1,.18,2,.35,3,.47.78.1,1.57.19,2.35.26,0,9.07.33,18.17.64,27.25C776.32,60.44,777,67.73,776.73,75.07Z"/><path d="M126.66,459.39a2.32,2.32,0,0,1,.26-3.26c2.21-1.79,4.36-3.64,6.5-5.5,2-1.48,4.15-4.37,6.87-4.09a3.45,3.45,0,0,0,1,.23,1.71,1.71,0,0,1,1.33,1.77,1.68,1.68,0,0,1-2.34,1.41c-3.58,3.09-6.68,6.69-10.32,9.71A2.32,2.32,0,0,1,126.66,459.39Z"/><path d="M122.13,446.22a2,2,0,0,1,1.55-2.29,48.76,48.76,0,0,0,6.91-1.71c5.2-1.75,14.52-6.81,19.6-3.3a.45.45,0,0,1-.18.87l-1.89,0a24.42,24.42,0,0,0-7.63,1.83c-4.74,2.22-9.29,4.95-14.52,5.88C124.53,447.88,122.53,448.13,122.13,446.22Z"/><path d="M262.43,472.22c-1.35-.14-3.38-.41-3.51-2.09-.1-1.28,1.21-1.82,2.3-1.78s2.67-1,3.42.31c11.39-1.18,23.12-1.47,34.51-2.37,7.39-1.15,14.73-2.75,22.24-2.9,2.28-.12,4.53-.37,6.79-.68a2.67,2.67,0,0,1,2,.42,2.62,2.62,0,0,1-1,4.7c-5.31.91-10.71.79-16.05,1.47-4.17.52-8.32,1.34-12.5,1.77-8.36.55-16.74.53-25.11.77C271.14,472,266.78,472.64,262.43,472.22Z"/><path d="M449.84,468.37c-5.4,0-10.75-.57-16.13-.87-1.71-.23-3.71.07-5.19-.88a1,1,0,0,1,.25-1.71,14.68,14.68,0,0,1,3.58-.23c5.93-.14,11.85.25,17.77-.09a79.78,79.78,0,0,0,13.05-1.69c2.59-.27,8.47-2.78,9,1.22.08,2.9-3.23,2.56-5.25,2.82a83.11,83.11,0,0,1-17.31,1.43Z"/><path d="M461.41,310.63c-6.5-.14-12.46-.11-18.8-.35-2.4-.26-5.17.1-7.25-1.29a1.6,1.6,0,0,1,.38-2.6c1.57-.48,3.78.09,5.29-.06,4.08,0,8.16-.06,12.24-.11,6.19-.06,12.39.1,18.52-.88a2.45,2.45,0,1,1,.3,4.89A82.78,82.78,0,0,1,461.41,310.63Z"/><path d="M346.12,199.32a74,74,0,0,1-6.76-4.35h0a1.25,1.25,0,0,1,0-1.86c.84-.72,1.92-.07,2.75.36,1.89,1,3.79,2,5.62,3.14A1.59,1.59,0,0,1,346.12,199.32Z"/><path d="M476.07,345.25a1.71,1.71,0,0,1-.61-2.48c1-1.42,1.94-2.81,2.93-4.21.86-1.07,1.51-2.52,2.8-3.12.88-.27,2.42.35,2.2,1.47a1.08,1.08,0,0,1-1,.85c-1.39,2.22-2.65,4.52-4,6.76A1.72,1.72,0,0,1,476.07,345.25Z"/><path d="M478.75,357.26a1.66,1.66,0,0,1-.41-2.29c1-1.31,2.14-2.55,3.26-3.79a18.19,18.19,0,0,1,3.11-3,1.15,1.15,0,0,1,.89,0,1,1,0,0,1,.09,1.74c-1.67,2.25-3.12,4.67-4.66,7A1.65,1.65,0,0,1,478.75,357.26Z"/><path d="M328.25,514c-2.71-1.72.58-4.59,1.7-6.25,1.41-1.74,2.81-3.5,4.34-5.14.83-.88,1.89-2.09,3.23-1.63a1.75,1.75,0,0,1-.22,3.31,85.93,85.93,0,0,0-6.52,9.09A2,2,0,0,1,328.25,514Z"/><path d="M340.37,516.25c-2.6-1.54,0-4.31.9-6.1,1.09-1.75,2.27-3.45,3.44-5.15.75-.94,1.45-2.5,2.89-2.22,1.82.5,1.32,2.29.47,3.46s-1.4,2.59-2.08,3.88c-.91,1.74-1.8,3.49-2.73,5.21A2.18,2.18,0,0,1,340.37,516.25Z"/><path class="cls-3" d="M334.22,56.39a1,1,0,0,1-.91-1.42c.93-1.38,2.88-1.61,4.27-2.39s2.91-1.38,4.33-2.14a1.55,1.55,0,0,1,1.52,2.7A22.42,22.42,0,0,1,334.22,56.39Z"/><path class="cls-3" d="M334.7,62.92a1.31,1.31,0,0,1-1.12-1.37c.25-1.57,2.35-2,3.52-2.72,1.46-.46,4.49-2.67,5.51-.77a1.44,1.44,0,0,1-.67,1.9,45.12,45.12,0,0,1-5.58,2.52A1.31,1.31,0,0,1,334.7,62.92Z"/><path class="cls-3" d="M512.07,56.83c-1.49-.13-3.14.14-4.51-.51a1.21,1.21,0,0,1,0-2c2.44-.85,5.21-.24,7.77-.47,8.68-.29,17.37-.35,26-.7,5.49-.74,11.09-.79,16.57-1.49,2.07-.24,4.12-.53,6.19-.75a1.55,1.55,0,0,1,.18,3.1c-7.29.87-14.72,1.39-21.94,2.25C532.31,56.78,522.18,56.93,512.07,56.83Z"/><path class="cls-3" d="M645.67,77.21a3,3,0,0,1-2.3-3.38c-3.24-1.56-1.23-7.53-1-10.38.34-2,.69-4.06,1-6.09.33-1.67.34-3.75,1.77-4.9a2.81,2.81,0,0,1,4.43.29c2.56,7.1.78,15-.45,22.19A3,3,0,0,1,645.67,77.21Z"/><path class="cls-3" d="M288.74,569.51c-2.76-.76-5.48-1.64-8.27-2.28-1.34-.42-2.91-.47-4.08-1.28h0c-1.26-1.25.15-2.88,1.7-2.51a56,56,0,0,1,11.61,2.66A1.78,1.78,0,0,1,288.74,569.51Z"/><path class="cls-3" d="M302.78,565.88c-3-1-5.92-2.15-8.82-3.4-1.14-.49-3-1.15-2.85-2.7a1.87,1.87,0,0,1,2-1.57c1.09-.33,2.49-.08,2.68,1.25,2.78.91,5.54,1.83,8.26,2.9a1.87,1.87,0,0,1-1.27,3.52Z"/><path d="M145.2,615a2.25,2.25,0,0,1,0-1.09,2.19,2.19,0,0,1,.51-1,3.35,3.35,0,0,1,1.7-1.28c3.41-1,6.94-3.83,10.34-4.49,16.09-5.63,31.83-4,47.85-9.21,6.61-2.33,13.08-2.88,19.55-3.59,13.35-2.49,26.52-3,39.78-4.48a161.47,161.47,0,0,1,25.35-2.46c4.51-.35,9.06-.94,13.53-.86,16.32.54,32.73.2,49.08.47,19.7-1.19,38.86.91,58.34.8,23.79-2,47.38-2,71.24-4.7,56.93-5.81,114-13.06,171-19.83,19.13-1.33,38.12-1.27,57.29-3.05,10.36-.59,20.93-3.47,31.28-4,11.69-.72,23.38-1.33,35-1.24a85.62,85.62,0,0,0,14.17-.75c1-.16,1.61,2,1.37,4.73s-1.27,5.06-2.26,5.22a64,64,0,0,1-9.33.6c-10-.17-20.12.27-30.22.83-17.06.29-34.43,3.77-51.54,4.55-20.69,1.06-41.21.39-62.05,3-10.06.89-20.18,2.41-30.26,3.5-6.86.49-13.74,1.13-20.63,2-34.71,4.28-69.55,10.12-104.16,13.37-16.51,2.19-32.87,2.71-49.29,4-9.6.13-19.34,1.75-28.89,1.46-14.2-.53-28.37-1.4-42.6-1.69-11.8.77-23.44-.07-35.16-.05-13.34.3-26.57-.33-40,1a107.93,107.93,0,0,0-19.41,1.75c-9.84,1.49-19.52,1.37-29.34,2.66-6.76,1-13.55,2.27-20.29,3-6.51.68-13.07,3.37-19.6,4.9a210.62,210.62,0,0,1-24,3.49c-7.8,1.08-15.6,2.25-23.35,2.9a25.79,25.79,0,0,1-3.79.3A1.17,1.17,0,0,1,145.2,615Z"/><path d="M885.06,289.2a2.74,2.74,0,0,1-2.37-.05,235.72,235.72,0,0,1-26.59-6.6,133.3,133.3,0,0,1-21.76-7.27c-5.41,11.25-12.58,21.58-18,32.85-1.89,3.81-3.31,7.83-5.06,11.71-.63,1.88-3,4.07-4.75,2.14a6.32,6.32,0,0,1-1.06-3.62c-.23-4.59-.09-9.19-.13-13.78.37-13.18,1.09-26.4,3.49-39.39-12.88,1.66-25.41,4.57-38.36,5.63-2.67.05-12,2.91-10.58-2.25,2.18-2.74,5.52-4.43,8.18-6.69,10.16-8.36,21.65-14.84,32.26-22.57-.22-8.08-.74-16.14-1.42-24.19-1-.94-1-2.53-1.12-3.82-.3-3.38-.2-6.68-.26-10.08a47.27,47.27,0,0,1,0-6.41,2.6,2.6,0,0,1,4.32-1.28,103.16,103.16,0,0,1,6.93,9.73,51.86,51.86,0,0,0,9.84,12.25c5.45,5.63,9,12.35,15.55,16.69a270.79,270.79,0,0,1,31.18-15,46.64,46.64,0,0,1,6.37-2.32,3.65,3.65,0,0,1,2.93.21c1.65,1.08,1.16,3.15.15,4.5-1.46,2.55-3,5-4.5,7.56-4.82,9.14-10.6,17.68-16.13,26.38,5.44,3.49,9.78,8.39,14.46,12.8a112.48,112.48,0,0,1,14.05,15.5C884.06,283.91,888.5,287,885.06,289.2Z"/></g></g></svg>