<svg xmlns="http://www.w3.org/2000/svg" xmlns:xlink="http://www.w3.org/1999/xlink" viewBox="0 0 350 289"><defs><style>.cls-1{isolation:isolate;}.cls-2{fill:#7a529d;}.cls-3,.cls-6{fill:#fff;}.cls-5{opacity:0.4;mix-blend-mode:multiply;}</style></defs><title>correo</title><g class="cls-1"><g id="Capa_2" data-name="Capa 2"><g id="Capa_1-2" data-name="Capa 1"><path class="cls-2" d="M271,130.71c2.07,19.82-5.65,23.6-23.54,26.89-13.31,3.4-26.68,6.46-40,9.84-34.93,5-69.57,18-105.16,15.15-14.08-2.58-12-29.14-13.3-40.22-2.77-23.19-5.68-46.76-2.59-70.11,1.14-11.34,15.63-10.38,24-12.76a302.45,302.45,0,0,1,37.87-5.74c24.23-3.21,48.37-6.84,72.92-6.73-10,25,23.91,48.68,45.14,35.08C268.12,98.37,270.46,114.39,271,130.71Z"/><path d="M324.14,74.61C317.84,49,311.89,14.24,284.07,3.74,219.69-7.17,91.44,6.64,32.27,34-29.49,60.28,11.8,171.78,37.63,213.61c25.25,41.58,81.33,34.23,122.74,27.52,1,5.79,4.68,28.17,11.2,28.86,6.56-.62,7.31-12.14,10.09-17.15,2.57-13.4,10.66-13.92,21.75-18.31,31-16.54,123.71-40,129.13-76.88C338.11,129.94,329.26,101.8,324.14,74.61Zm.6,79.82c-1.65,19.52-23,26.39-37.33,35.6a468.74,468.74,0,0,1-61.2,26.61c-14.88,6.92-30.68,12.27-45.12,20-4.76,5.93-6.05,14-9.06,20.88-3.22-7.51-.24-17.38-5.06-24-3.13-1.9-6.95-.13-10.31.14a220.18,220.18,0,0,1-73.88,1.44c-19.12-1.31-33.29-15.14-42.06-31.26C21.17,168.68.83,105.6,11.07,66.06,29.62,19.85,145.39,13.69,190.33,9.2c32.43.38,70.39-9.69,100.33,5.39,20.82,19.32,23.44,50.8,29.19,77.35C323,112.56,328.65,133.55,324.74,154.43Z"/><path d="M284.58,48.75C284.8,86.2,239,101.06,221.42,66,213.94,46.6,231.53,23.64,251,21.08,266.24,21.39,284.9,31.7,284.58,48.75Z"/><path class="cls-3" d="M252.28,60.59c.08-5.42.38-10.87.14-16.29-1.68,1.56-3.43,3.05-5.1,4.64-.19,2.47-3.86,2.57-4.45.27-.58-2.91,3.27-4.75,4.76-6.53,2.06-1.56,3.56-4.67,6.44-4.6,5.69,2.52,2.38,16.81,3.29,22.38C257.46,63.75,252.31,63.89,252.28,60.59Z"/><path class="cls-3" d="M186.13,143.26c-29.06-17.06-55.73-39.69-80-63.07a1.5,1.5,0,0,1-2.16-1.49c-3.84-5.21,1-6,4.39-2.29,26,20.21,51.64,40.84,78.27,60.17,14.25-13.66,26.52-29.55,39.66-44.33,2.81-2.35,4.65-9.59,9.2-7.18,3.94,3.27-2.38,7.42-4.13,10.24-5.05,6-10.21,11.88-15.34,17.79C208.1,120.18,195.24,142.08,186.13,143.26Z"/><path class="cls-3" d="M107.25,165.18c-2.7-2.64,1.38-5.52,2.76-7.5,6.42-8,12-16.61,18.82-24.33,6.49-7.49,12.52-15.62,19.49-22.61,2.37-1.18,4.27,2.74,1.73,3.72-8.91,13.71-19.7,26.08-29.49,39.15C117.15,156.52,112.27,168.34,107.25,165.18Z"/><path class="cls-3" d="M249.29,135.32c-11-7.89-22.23-16.35-31.17-26.19.58-5.72,7.52.58,9.72,2.06,8.09,6.7,17.08,12.16,25.28,18.72C256.62,132.49,252.86,137.77,249.29,135.32Z"/></g></g></g></svg>