<svg width="721" height="192" viewBox="0 0 721 192" fill="none" xmlns="http://www.w3.org/2000/svg">
<g clip-path="url(#clip0_447_7)">
<path d="M134.174 156.749C117.124 145.905 10.7999 177.269 3.96892 175.566C-2.80537 172.057 0.804817 87.1824 5.91577 73.7323C7.72653 68.9694 10.1421 67.6096 15.9146 68.7427C22.0765 69.9627 84.9617 55.6854 140.54 45.9745C142.207 48.3956 146.373 39.1531 147.382 42.1975C148.138 44.0029 160.439 43.2475 178.717 41.4912C196.995 39.7348 221.279 37.393 246.006 35.0097C268.234 32.8681 260.398 33.4989 282.675 31.8218C320.478 28.9928 286.969 29.9333 354.606 27.1836C364.359 26.8059 356.663 31.9427 368.14 30.0579C392.606 26.0354 445.885 31.8709 464.428 28.5471C494.636 23.1535 470.45 30.5414 549.133 34.3865C571.391 35.4743 592.984 35.5838 597.52 33.4535C599.743 32.1429 601.365 32.9512 601.301 34.8133C602.378 35.1079 655.506 44.4902 655.703 46.2352C656.017 48.1539 657.593 49.3135 659.215 48.2823C662.148 46.3938 720.278 50.4202 720.86 56.0216C722.52 71.9721 710.12 135.839 702.613 150.66C698.655 158.482 687.869 155.865 674.189 151.948C633.361 140.262 650.123 148.771 607.243 143.011C575.867 138.8 587.374 139.552 534.223 134.585C507.043 132.043 514.43 132.893 496.303 131.469C488.364 130.842 495.207 130.286 460.492 135.525C457.177 129.697 443.961 142.724 436.102 132.726C432.836 128.572 409.16 127.117 403.909 131.098C402.775 131.835 394.367 131.873 382.199 131.537C372.941 131.28 277.224 127.782 266.144 138.928C240.74 130.12 158.613 150.932 134.174 156.749Z" fill="#F7941D"/>
</g>
<defs>
<clipPath id="clip0_447_7">
<rect width="721" height="192" fill="white"/>
</clipPath>
</defs>
</svg>
