<svg width="814" height="204" viewBox="0 0 814 204" fill="none" xmlns="http://www.w3.org/2000/svg">
<g clip-path="url(#clip0_398_221)">
<path d="M151.33 168.63C132.05 154.62 11.9199 195.19 4.19991 193C-3.46009 188.46 0.61991 78.7 6.39991 61.29C8.39991 55.13 11.1599 53.37 17.6999 54.85C24.6999 56.43 95.6999 37.97 158.53 25.41C160.41 28.54 165.12 16.58 166.26 20.54C167.12 22.87 181.01 21.9 201.67 19.63L277.67 11.25C302.79 8.47 293.94 9.25 319.13 7.12C361.86 3.46 323.98 4.66 400.42 1.12C411.42 0.610002 402.74 7.28 415.71 4.84C443.36 -0.359997 503.56 7.18 524.52 2.9C558.65 -4.1 531.32 5.48 620.24 10.45C645.39 11.86 669.79 12 674.92 9.25C677.43 7.55 679.27 8.59 679.18 11C680.4 11.38 740.43 23.52 740.65 25.78C741.01 28.26 742.81 29.78 744.65 28.42C747.96 25.98 813.65 31.19 814.31 38.42C816.18 59.04 802.17 141.65 793.69 160.82C789.21 170.93 777.02 167.55 761.57 162.49C715.43 147.37 734.37 158.38 685.92 150.93C650.48 145.48 663.46 146.45 603.4 140.02C572.68 136.74 581.03 137.84 560.55 136.02C551.55 135.22 559.31 134.5 520.08 141.27C516.33 133.73 501.4 150.58 492.52 137.65C488.83 132.28 462.07 130.4 456.14 135.55C454.86 136.5 445.36 136.55 431.61 136.11C421.15 135.78 312.98 131.26 300.46 145.67C271.75 134.21 179 161.13 151.33 168.63Z" fill="#F85FB4"/>
</g>
<defs>
<clipPath id="clip0_398_221">
<rect width="814" height="204" fill="white"/>
</clipPath>
</defs>
</svg>
