<svg xmlns="http://www.w3.org/2000/svg" viewBox="0 0 1313.78 1025.32"><defs><style>.cls-1{fill:#94b43b;}.cls-2{fill:#231f20;}.cls-3{fill:#fff;}</style></defs><title>imagen 3</title><g id="Capa_2" data-name="Capa 2"><g id="Capa_1-2" data-name="Capa 1"><path class="cls-1" d="M557.56,825.91c-43.56-1.37-87.23,1.67-130.67-2.55-16.8-1.83-35.91,3.28-51.11-5.56-15.87.36-9.2-34.92-9.29-45.38,1.61-27,4-54,8.3-80.76h0l.09-.57a.59.59,0,0,0,0,.13c.11-.76.22-1.51.34-2.27a.22.22,0,0,1,0-.08,0,0,0,0,0,0,0c0-.15.05-.31.07-.47h0c1.63-17.68,6.38-34.7,10.2-52,2.52-17.64,7.4-34.77,10.12-52.34,1.57-20.58,9.27-39.83,16.23-59.06,6.44-17.23,11.66-35.07,22.36-50.29,8.05-14.08,17-28,28.89-39.14l-.62.61c17.63-20.06,39-36.5,61.86-50.21,9.62-4.93,24.79-22.53,26.81-1.25,2.25,38.91,12.16,77.09,12.45,116.21,6.56-3,13.1-6.15,19-10.33,4.75-3.86,10.06,1.66,8.07,6.82-.75,26.07,1.89,52.53,1.28,78.77,1,29.47.88,59,3.33,88.41,3.42,26.73,8,53.28,11.61,80a5.87,5.87,0,0,1,.23,2.24c22.68-3.55,45.51-3.54,68.4-3.6,6.41.82,30.21-3,31.18,4l.38-.22a6.07,6.07,0,0,1,.48-2.53c-19.57-16.29-22.37-34.22-22.28-58.46-.33-17.53-1.17-35.05-1.34-52.59-.47-56.87,1.2-113.94,10.66-170.13l-.12.73c2.53-24.89,10.2-48.86,12.74-73.75.23-12.55.28-30.76,17.59-19,4.68,2.62,10.53,1.75,15.41,4.32,54,19.59,71.78,62.74,94.68,110.72,16.27,38,40.59,72.34,50.83,112.85,1.48-1.89,2.94-3.8,4.42-5.69-.11.13-.22.28-.33.42,22.07-30.92,42.94-62.8,67.9-91.53,4.14-5.4,8.89-10.26,13.31-15.42,4.22-6.15,9-3.42,13,1.33l-.48-.44c11.54,10.72,26,18.37,35.32,31.39,7.89,7.67,1.3,15.26-4.2,21.82-9,12.54-15.74,26.46-25,38.84l0,0c-19.76,31.1-43.69,59.25-64.1,90-7.59,11.42-16.83,21.58-24.65,32.82-11.15,13.25-22.45,37.49-43.27,31.86-22.14-7.72-27.15-32.52-36.94-51.16-11.84-25.64-21.76-52.2-36.95-76.14v0l-.75-1.36c-4.94,8.89-14.23,14.74-18.75,23.88.11,19.87,1.4,39.77.85,59.67,0-.25,0-.49,0-.73-1.41,18,.48,36.73-3,54.32-2.34,3.4-7.06,1.85-10.56,2.42-14,2.2-28.22,3.63-42.06,6.4-.37,3.18-1.18,6.31-1.57,9.51l.09-.6c-2.8,10.56,2.25,60.42-13.25,58.33-20.94-.44-41.63,3.15-62.48,4.41C607.41,825,582.48,825.4,557.56,825.91Zm-59-208.73c-8.3,41.3-10.8,83.55-18.84,124.8,11,0,22-2.31,32.77-4.09-.39-23.86-5.59-47.19-8.08-70.84,0,.2,0,.41.07.61-2.34-19.14-2.86-38.41-4.6-57.62C499.48,612.42,499,614.8,498.59,617.18Z"/><path class="cls-1" d="M873.08,808.58a3,3,0,0,1-3.3-4c1.11-2.25,3.7-3.28,5.49-4.94l-.08.07c30.72-24.39,58.12-53.25,91.8-73.88,0-1.16,1.46-1.3,2.35-1.5,2.47-1.61,5.69-3.31,8.56-1.7,19.29-3.31,38.85-4.38,58.35-5.36,26.31-2.33,52.58-5.22,78.86-7.81,7.42-1.31,14.9-2,22.37-2.95,3.31-1.14,7.07-.09,5.35,4.13-3.57,3.19-8.36,5.36-12,8.86-11.51,21.12-33.9,34.15-50.07,51.6-7.31,7.57-14.22,15.51-21.32,23.28-3.28,2.9-5.55,7.71-9.84,9.13-2.45.38-4-2.46-3.26-4.59a381.6,381.6,0,0,0-52.38.7l.32,0-.5,0h0c-31.84,2.24-63.67,3.07-95.43,6.63h0l-1.93.14.39,0C888.91,806.68,881,808.19,873.08,808.58Z"/><path class="cls-2" d="M677.52,279.29c-3.78-.47-5.34-4-7.07-6.9-3-1.38.47-5.8,2.43-1.94,2.26,5.62,10.73,7.94,14.55,2.76C691.25,266.56,691.91,281.54,677.52,279.29Z"/><path class="cls-2" d="M636.9,231.46c-4.43.24-22.26-8.65-17.69-13.89-.09-.68.59-1.45,1.29-1.17,7-5.06,15.25-7.7,23.87-6.48,6.08.34,11.58,3,17,5.66,3.73,1.82,1.15,6.75-1.36,8.52l.21-.15C653.36,228.75,645.31,231.89,636.9,231.46Zm1.91-4.35c7.22-.25,16-2.35,20.82-8-5.47-2.72-11-5.65-17.23-5.83l.22,0a36.26,36.26,0,0,0-11.75.81l.2,0c-3.18.83-6.09,2.42-9.06,3.78a24.52,24.52,0,0,0,12.67,8.68l-.06,0A14.9,14.9,0,0,0,638.81,227.11Z"/><path class="cls-2" d="M643.56,225.37c-5.74-3.19-1.52-13.54,4.72-11.75C655.69,217.37,651.76,229.36,643.56,225.37Zm2.43-4.54a2.75,2.75,0,0,0,.65-.79,1.69,1.69,0,0,0-.31.13,1.11,1.11,0,0,1-.39.62Z"/><path class="cls-2" d="M711,226.68c-3.9-.15-8.17-.68-11-3.61-1.18-1.61-3.07-2.74-4-4.5-.63-1.78,1-4.16,3-3.62,2.14-4.06,7-5.25,11.12-6.32l-.21.05c7.15-1.76,20.24-2.32,23.47,5.41C729.35,222.39,720.29,227.86,711,226.68Zm.6-4.76a20.17,20.17,0,0,0,18.31-7.57c-6.52-4.08-14.37-3.51-21.6-1.92h0l-.21.05.12,0c-2.7.77-5.92,1.34-7.52,3.9A11.43,11.43,0,0,0,711.59,221.92Z"/><path class="cls-2" d="M718.64,223.13c-8.23-.41-8-10.67.43-10.1C726.12,213,725.31,223.36,718.64,223.13Zm.56-4.47h0a1.73,1.73,0,0,1-.11-.32,6,6,0,0,0-1-.1,2,2,0,0,1-.09.26A5.49,5.49,0,0,0,719.2,218.66Z"/><path class="cls-2" d="M696.56,219.5c-3.47-1.6,6.41-10.74,7.57-6.41.12,2.78-4,2.53-5.33,4.58C699.1,219,697.62,219.57,696.56,219.5Z"/><path class="cls-2" d="M610.19,210.18c-1.21-4.11,4.64-3.41,6.94-4.84,10.34-5.27,22-5.43,33.36-5.25,6,.59,14.71-1.15,18.71,4.21.71,2.58-2.1,4.06-4.12,2.52-13.46-1.45-27.65-.66-41.11,1.07C620.25,208.27,613.08,212.74,610.19,210.18Z"/><path class="cls-2" d="M695.1,205.94c-10.43-10.27,39.4-10.06,39.85-3.07-.77,3.41-4.88.24-7,0-10.43-1.71-21.2.34-31.19,3.31l.11,0A2.46,2.46,0,0,1,695.1,205.94Z"/><path class="cls-2" d="M614.48,227.84c-.34-2.31,2.53-2.28,4-3h0a17.75,17.75,0,0,0,2.21-1h0l.35-.2-.16.09c4.71-3.77,6.16,1.36,3,1.17C621.52,225.83,616.23,231.24,614.48,227.84Z"/><path class="cls-2" d="M619.81,231.48c-1.12-2.44,2.71-2.91,4-4.27l0,0,.13-.1-.07.05c1-.71,4.21-4.2,3.86-1.05C626.07,227.68,622.06,233.22,619.81,231.48Z"/><path class="cls-2" d="M626.32,234.13a1.87,1.87,0,0,1,.76-2.37h0a4.49,4.49,0,0,0,2.25-3.32l0,.2c-.3-1.51,1.81-2.86,2.5-1.1C632.29,230,629.17,236.89,626.32,234.13Z"/><path class="cls-2" d="M722.86,230.56c-.86-1.5-3.57-3.86-2.07-5.54,1.59-.52,2.63,2.57,4,3.39C725.88,229.56,724.12,231.83,722.86,230.56Z"/><path class="cls-2" d="M728.85,227.87c-1.68-1.33-6.85-3.74-4.5-6.19,2.07-.57,3.77,2.37,5.81,2.91l0,0C731.9,225.34,730.7,228.52,728.85,227.87Z"/><path class="cls-2" d="M731.05,223.39c-1.56-1.12-4.5-6.46-.52-5.44l-.14-.1a1.15,1.15,0,0,1,.6.85,11.2,11.2,0,0,0,2.25,1.86C734.94,221.86,732.72,225,731.05,223.39Z"/><path d="M1059.67,540.09c-5.62-.84-11.21-2.53-16.81-3.15-5.76-1.48-19.38.36-21-6.71,3.44-26,11.91-50.37,20.83-75-8.63.23,3.66-12.65,5.46-15.41,5.46-7,21-8.67,19.54-20.09h0c-4.89-2.29-19.49,5.73-25,8.37-11.83,6.31-22.28,12.57-31.7,22.72l.1-.12c-4.15,4.22-8.2,8.46-12.42,12.65l.06-.07-.07.06.09-.08c-6.43,6.2-12.45,12.84-18.41,19.54-2.74,2.16-4.2,6.48-7.55,7.6-11-2.19,34.51-46,39.29-49.77,6.07-5.39,14-10.11,20.87-14.62a87.58,87.58,0,0,1,15.52-8.77c1.38-.66,2.78-1.31,4.18-1.93,1.19-.64,2.62-1.77,3.92-.88l.25-.1c2.78-14.89,8.74-30,11.83-44.63,2-5.34,2.07-15.84,5.85-19.45,2.22-1.34,5.23-.53,7.71-.41.27-2.34.79-4.65,1.24-7h0c1.78-8.79,4-17,5.72-26.06,2.36-6.15,13.64-3.22,18.15-.69,4.9,6.18-4.93,28.33-5.4,37,11.48,1.67,8.15,8.76,6.18,17.22-3.48,12.64-5.7,27.11-9.74,40,15.63-3.59,13.68,8.57,4.93,16.48,14.6.12,9.34,13,.65,18.27,7.87,5.36-.55,13.35-5.63,16.86-3.06,2.23-11,9.8-10.94,1.38,2.93-5.49,10.66-7.24,14.42-12.27-15.35-9,3.15-8.49,6.14-17.37h0v-.11h0c-3.11-2.41-8.12-.06-11.41-1.88-4.14-5.65,8.12-10.69,9-16.18-2.46-1.7-5.74-1.14-8.49-.36-3.13,12.62-4.84,25.57-8.46,38-5.51,19.23-11.43,38.27-16.38,57.67l0-.15c-.13.48-.4,1.48-.55,2l0-.16c-1.11,4.29-2.52,8.62-3.92,13C1066.14,530.58,1066.65,540.91,1059.67,540.09Z"/><path d="M1111.91,323.51c-5.55-.66-11.13-.37-16.7-.54l.79.07c-4.76-.86-12.54-1.75-13.36-7.59-24.45-6.54-47.26-21.8-62.23-42.27C1004.63,251.73,991.29,228,985,201.94c0,.21.11.43.16.65C950.24,68.42,1092.66-39.07,1215.51,13.7l-.18-.08c37,15.46,66.39,46.44,82.59,82.82,7,14.24,13.51,29.15,15,45.09,7.26,64.53-32.32,128.71-87.07,160.85C1191.64,323,1151,326.46,1111.91,323.51ZM1139.32,313c43.15,2.92,86.37-14.56,116.68-45.18l-.09.09c17-16.61,29.81-37,39.15-58.77l-.28.66A145.8,145.8,0,0,0,1305.2,164c0,.1,0,.19,0,.29,0-.23,0-.46,0-.69a1.93,1.93,0,0,0,0,.24c0-.84,0-1.68,0-2.53,0,.13,0,.25,0,.37,1-22.35-5.23-44-15.78-63.53-7.13-15.57-16.27-30.09-28.37-42.3C1208-4.35,1109.59-5.19,1048.43,43.26c-55.84,40.94-77.17,122.48-43.65,184,20,40.1,38.55,63.3,80.49,81.55,4-3.49,8.6.75,12.66,2C1111.72,311.91,1125.46,313.41,1139.32,313Z"/><path d="M1121.37,299.33c-4.06-.34-35.52-4.19-34.22-8-30.34-10.41-49.05-37.86-61.18-66.19-10.14-24.26-18.44-50.23-16.44-76.8v.1C1011,92.18,1056.6,44.84,1108.26,28c48.56-15.85,109.07,2.66,140.91,42.57l-.06-.09c18.45,21.81,29.61,50.5,28.71,79.21v-.27c0,.46,0,.92,0,1.38a2.44,2.44,0,0,1,0-.27c-.54,15.61-3,31.43-8.78,46l0,0-.11.27,0-.08-.21.5,0,0c0,.09-.08.18-.11.27v0c-13.27,31.75-31.51,65.24-63.52,81.15C1179,290.36,1150.52,300.5,1121.37,299.33Zm2.4-4.58c10.57,0,21.21-.56,31.49-3.14l-.19,0a404.33,404.33,0,0,0,38.78-11.89l-.23.09,1.48-.58-.12.05.62-.25-.1,0a140.72,140.72,0,0,0,14.33-6.89l0,0c32.75-19.7,55.88-65.83,62.88-102.55,0,.1,0,.19,0,.28a145.32,145.32,0,0,0,1.81-20.4c0,.09,0,.18,0,.27.7-25.06-8.3-50.37-23.53-70.16l0,0-.17-.22,0,.07c-24-33-63.69-50.5-103.7-52.9l.26,0a111.31,111.31,0,0,0-15.92-.13h0c-10.88.92-21.42,4.2-31.61,8l.14-.05c-13,5.12-25.09,12.5-36.35,20.69l0,0c-15.31,11.64-27.58,27-37.49,43.39h0c-8,15.54-13.27,33-13.53,50.61a2.09,2.09,0,0,1,0-.25c-2,23.7,5.44,46.56,13.56,68.54h0c3.72,8.64,7.67,17.21,12.12,25.5l0-.08.12.2-.06-.11c11.59,19.21,23.72,33.67,44.95,42.44,2.8,1.89,12.65,2.84,12.74,6.1C1105.26,292.83,1114.48,294.37,1123.77,294.75Z"/><path d="M789.79,819.82c-6.13-.64-11-5.26-16.57-7.55-13.31-2.52-27.23.6-40.72.73h0c-4.23.33-8.45.82-12.68,1.13l.47,0-1.34.1.47,0c-5.22,0-25,5.53-18.17-5.63a3.27,3.27,0,0,1,2.77-.85c6.38.83,12.78-1.13,19.19-1.13l-.47,0c16.76-1.12,33.81-2.22,50.54-.62,6.84,1.56,11.91,9.35,19.11,8.75,1.52-5.24-10.64-14.61-11.91-19.91,1.11-10.86,21.26,8.69,26.71,9.6l-.29-.14c2.82,1,6.66,3.1,9.32.8A55.11,55.11,0,0,0,804,791.51c-2.7-2-6.45-3.27-7.94-6.45-1-14.29,31.05,12,37.92,10.78-4.7-10-16.89-13.43-23.65-21.24-.91-13.87,31.94,11.32,39.77,7.39-5.8-11.68-18.14-20.11-29.65-25.81l.38.17c-38.55-17.08-80.82-1.9-120.76-3.75a1.63,1.63,0,0,1-2.16.12c-19.45.17-39.17-1.28-58.61.38a122.59,122.59,0,0,1-35.3-1.68c-4.53-.2-2.78-5.64-3.89-8.69-7.32-50.71-8.4-102.16-11.93-153.25-1.19-31.19-6-62.05-8.6-93.1-6.86,4-23.57,20.55-22.79,2.48,0-11.13-.75-22.25-1.81-33.33-3.43-27.2-11.77-53.74-10.94-81.39-73.43,27.51-112.46,92.2-136.28,163.39-2.19,6.52-4.28,13.08-5.81,19.79-.61,10.49-9.19,10.37-17.13,7.35-25.06-9.17-28.14-35.63-16.91-57.17,4.17-7.93,10.16-14.8,14.15-22.85,2.15-5.09.29-10.68.8-16,1.47-7,2.55-15.42,8.11-20.41,7.23-23.51,43.91-25.42,39-49,0,.15,0,.3.05.45-8.18-39.48,23.58-60.49,51.6-80.26,4-4.66,4-11.24,5.28-16.95a78.64,78.64,0,0,1,7.19-20.58c9.32-18.37,27.95-30.31,35.8-49.47l-.12.27c7-18.23,9.14-38.13,19.24-55.15,28.5-57,79.41-79.59,140.75-62l-.15-.06,0,0a1.17,1.17,0,0,1,.76,1.12c22,10.05,50.32,23.87,52.65,51,1.21,2.73-.45,6-.68,8.86,4.1.79,9.61-1.23,12.88,1.69,2.5.57,2.11,3.85,2.19,5.85,0,0,0-.08,0-.11s0,.19,0,.29v0c-.12,5.55.39,11.15-.52,16.65,0-.12,0-.25,0-.37-.07,12.5-6.25,25.16-18.92,29-2.19,12.77-4,25.7-2.89,38.69,2.36,7.22,6.32,14.39,5.09,22.36-2.29,10.86-10.09,19.74-12.54,30.57-4.13,13.7,27.87,11.05,32.81,38.77,2.43,3.16,3.92,6.93,5.52,10.56s6.87,11,.31,12.22c-5-1.87-9.82-4.84-14.84-6.93a241.51,241.51,0,0,0-42.09-11.55c9.79,30.4,9.93,62.49,14,93.87,4.66,38.23,4.43,31.55-24.3,12.64,5.33,21.68,4.94,44.05,4.64,66.22,0-.21,0-.42,0-.63,0,.63,0,1.28,0,1.92V548c-1.83,34.32.51,68.52,2.09,102.79.68,31.93.89,63.93,4.35,95.7,14-3,28.39-3,42.62-3.51,14.56-.64,29.26-2.6,43.71.05,46.76,2.29,87.61,61.62,32.49,39.21,4.72,3.77,15,12.81,7.33,18.22-8.21,2.16-15.89-4.66-23.32-7.34,2.75,3.66,7.35,6.72,7.74,11.62-.38,5.7-7.42,7-11.9,5.32l.21.06c-6.67-1.7-12.31-5.77-18.23-9.11C795.56,806.57,802.46,819.8,789.79,819.82ZM562.87,500.44c0-.88,0-1.77,0-2.66,0,.87,0,1.75,0,2.63v0A.15.15,0,0,0,562.87,500.44ZM557.8,225.93c-14.12,22.69,13.88,20,13.58,28.18,1.37,20.55,1.32,41.14,1.88,61.72-.3,18.26,2.81,38.33-4.12,55.44,6.79,7.74,15.28,13.78,21.73,21.79,17.45,23.17,32.86,47.89,52,69.76,3.89-15,9.82-29.38,15.31-43.84a428.45,428.45,0,0,1,19.94-52.19c-2.48-3.12,0-8.3-.42-12.13.3-18.2,1.07-36.53-.12-54.7,0,.14,0,.29,0,.42-.75-3,.73-6.64,4.31-6,52.77.61,41-7.83,50.91-53.06l-.06.39.12-.85c-12.22,3.13-28,2.61-36.27-8.28.8,6.27,3.24,12.28,3.93,18.51-3.44,8.65-16.26,3.06-21.64-1l.25.17c-3.34-1.16-5.4-5.41-1.63-7.5s12.35,13.33,20,8.27c-1.22-5.28-3.15-10.37-4.12-15.73a2.68,2.68,0,0,1,.07.27c-1-3.63-1.72-7.3-2.54-11v0a.11.11,0,0,0,0-.06h0v0h0s0,0,0-.07h0l0-.12a.19.19,0,0,0,0,.07c-1.45-5.52-2.81-11.15-5.33-16.3a19.52,19.52,0,0,0-4-.47c1.76,26-21.45,48.59-47.33,46.57h.14l-.3,0H634C615.79,251,604.12,232.87,600,216c-3,.78-6,1.43-9.06,2.12l.43-.11c-8.15,2-16.37,3.79-24.58,5.54a.78.78,0,0,1-1.1.35l-.36,0h.13c-2.24.22-4.48.54-6.71.84C558.45,225.15,558.12,225.54,557.8,225.93Zm83.73-33.52c-12.61-.46-24.7,1.84-37,4,1.13,21.86,12.55,53.13,38.84,51.64,25.12-2.94,39.51-28.24,32-51.73C664.38,193,652.91,192.19,641.53,192.41ZM693.41,205a4.87,4.87,0,0,1-1.49,3.1c1,23.65,20.37,32.26,41.57,27.4.77-10.17,2-20.3,2.1-30.52a2.73,2.73,0,0,1,0-3.19c0-2.71,0-5.4,0-8.11a360.12,360.12,0,0,0-41.36,4.06c-.07.57-.15,1.15-.23,1.72l.06-.35c-.09.57-.18,1.15-.26,1.73,0-.17,0-.33.07-.5C693.71,201.86,693.66,203.42,693.41,205Zm56.79,2.34a86.48,86.48,0,0,1-9.6,2.81c-.35,8.1-1.66,16.11-2.14,24.2a25,25,0,0,0,7.4-4.29l-.24.18a13.07,13.07,0,0,0,4.09-5c3.22-5.68,2-12.49,2.72-18.75C751.68,206.75,751,207,750.2,207.31Zm-135.42-32c-9.52.72-15.72,9.17-24.71,11.65-11.43,3.32-14.3,15.76-17.94,25.66,8.61-2.68,16.91-6.39,25.78-8.25,0-4.33-3.88-12,2.76-13,4.22-3.14,9.71-3.33,14.77-3.57l-.17,0c16.36-1.47,34.08-2.47,50.09,0,13,2.54,16.66,2.19,16.24,17,2-.82,4.13-1,6.18-1.64-.66-11.67,3.89-12.7,14.31-13.18,11.1-.95,22.18-2.31,33.28-3.28-.36-1.95-.6-3.91-.85-5.87-15.39-16.08-40.4-7.74-48.2-29.32-9.42,7.63-20.75,12.58-32,16.81l.41-.16C642.12,173.71,628.54,176.5,614.78,175.27Zm75,33.72,0-.26h-.18Zm51.07-14.4c0,1.82,0,3.63,0,5.45,3.72-.12,7.73-2.11,11.3-1.51,0-1.32-.08-2.63-.17-3.95-3.73-.14-7.45-.5-11.18-.77C740.82,194.07,740.82,194.33,740.82,194.59Z"/><path class="cls-2" d="M935.2,819.48l-.1,0c-1.51-.59-.76-3.08.77-2.91,2.29.48,7.36-2.15,7.81,1.22C942.92,820.8,937.64,819,935.2,819.48Z"/><path class="cls-2" d="M852.62,889.32c-1.54,0-3.07-.11-4.61-.25h0c-4.45.23-1.95-5.92,1-3.5,3.76.22,7.48-.52,11.22-.84l-.27,0,.77-.06-.27,0,1.09-.07h0l.27,0h0l.75,0h-.06c3.65,0,17.82-3.13,18.18,1.74a2.36,2.36,0,0,1-2.17,2.21,75.4,75.4,0,0,0-15,.24l.28,0-1.21.09h.17c-1.76.12-3.52.1-5.27.24h.06l-.27,0h.1l-.57,0h.05C855.44,889.23,854,889.35,852.62,889.32Z"/><path class="cls-2" d="M855.41,897.87c-9.63,0-6.93-6-3.82-3.79,10.65,1.44,21.31-2.55,32-1.3,2.49.49,1.73,4.6-.66,4.53-1.37-.08-2.75,0-4.12,0C871,897.1,863.21,898.55,855.41,897.87Z"/><path class="cls-2" d="M858,906.69c-10-.13-5.73-5.81-4.92-2.88a23,23,0,0,0,6.26.19h-.13c4.46.45,22.14-5.9,22.63.21a2.61,2.61,0,0,1-2.41,2.47C872.31,906.24,865.16,907.43,858,906.69Z"/><path d="M847.84,920.81c-15.05-3.23-22.34-21.5-17.2-35.21l0,0,.09-.29,0,.12c1.17-5,4.28-9,6.91-13.21-.09.13-.19.25-.28.37,9.08-10.19,20.15-18.48,29.36-28.58-15-7.92-9.94-41.65,8.65-39.49,3.81-.45,7.64-.71,11.46-1h0l.34,0h0l7.26-.52-.38,0,3.06-.23-.38,0,5.24-.41h0l.39,0c22.89-1.76,45.9-1.21,68.83-2.2,27.8-.92,55.67-4.71,83.47-2.24,2.25-2.56,4.85-4.78,7.27-7.18l0,0c3.39-3.5,6.52-7.25,10-10.64h0c15.59-15.53,29.63-32.48,45.46-47.79l-.35.35c5.62-6.46,12.6-12,17.32-19.1l-.11.19c1.47-2.15,2.72-5.22,5.49-5.86,3.36-.36,3.91,3.68,2.83,6.06-2.82,7.83-7.22,20.8,1.48,26.24,3.29-.1,3.93,4.22,1.51,5.9-3.59,2.9-6.35,6.64-9.17,10.25,7-.89,41.88-9.4,26.41,6.63-2.45,8-4.64,20.72,5.27,24.21,10,2.89-6.41,14.86-8.24,19.86-10.19,13.07-19.35,26.93-29.69,39.92h0a3,3,0,0,0-.22.28h0c-10.45,14.18-21.91,27.56-33,41.24-3.54,2.6-17.7,25.32-20.82,18.75-45.88,6-92.23,8-138.41,11.17h0l-1,.07.4,0-1,.07h.06l-.49,0h0C906.51,920.64,877,920.21,847.84,920.81Zm-11-39.2c-3.52,11.17-2.34,26,9.48,31.67,10.08,3.1,21.12-.11,31.54.4,20.18.09,40.38.4,60.5-1.62l-.41,0,2.73-.21-.41,0c26.53-2,53.11-3.44,79.55-6.3l-.45,0,1.53-.12-.45,0c11.91-.92,23.86-1.43,35.76-2.29a1.65,1.65,0,0,1,.85-.43h0a20.66,20.66,0,0,0,4-.65c.08-2.69,2.93-3.07,5-2.78-4.9-9.64-3.44-22,1.1-31.59-16.32,1.78-32.69,2.5-49.05,3.66l.38,0c-15.33.62-30.55,2.56-45.86,3.53h0l-.33,0h0c-27.11,2.86-54.19,6.71-81.51,6.8-17.75-.26-35.47-1.87-53.18-2.49C837.35,880.07,837.07,880.83,836.83,881.61Zm259.55-12.07a2,2,0,0,1-.49,3c-6,9.34-12.78,18.1-19.43,26.95.9.54,2,1,2.27,2.08,13.54-14.65,26.21-30.06,38.84-45.49l0,0c.07-.09.14-.19.22-.28l-.06.07c2.72-3.61,5.36-7.29,8.16-10.84l0,0h0l.08-.1h0l0,0v0l0-.05h0l0-.06h0l.43-.57s0,0,0,0,.15-.19.22-.28l0,0h0v0h0l.2-.25-.07.09c12.82-16.39,24.13-33.84,36.9-50.24a1.34,1.34,0,0,1-.11.14l1-1.33-1.2-.56.37.16c-8.71-3.55-9.26-14.76-7.06-22.66-28.44,30.6-54.82,63.13-82.76,94.2,2.43,1.14.48,4.35-1.85,3.64-1.74,2.36-2.35,5.31-2.83,8.15,3.73-5.39,8.85-9.6,12.86-14.77,1.33-1,6.27-9.21,7.38-5.89C1083,864,1075,872.47,1068.72,882a31.26,31.26,0,0,0,.23,6c5.08-5.93,9.43-12.43,14.42-18.43a.36.36,0,0,1-.07.1c2.84-2.91,4.54-8,8.52-9.34,2.44-.13,2.39,3.68.23,4.1-3.38,4.34-6.51,8.87-10,13.11l.19-.24c-3.83,5.36-8,10.43-12.25,15.48a6.78,6.78,0,0,0,2.59,4.13,267.08,267.08,0,0,1,21.11-26.21C1094.32,870,1095.31,868.78,1096.38,869.54ZM946,871.37c.91-.07,1.83-.1,2.74-.19Zm-45.7-31.69c-9.28.6-18.6.7-27.89,1.15,11.75,4.63,25.12,1,37.46,1.39,18.82.11,37.66.57,56.47-.53,16.14-.53,32.23,1.16,48.38,1.08,15.82-.36,31.53-2.81,47.29-4.06-12.5-6.17-13.8-22.19-8-33.56-24-2.48-48.08.57-72.05,1.5-35.4,1.45-70.88,1.84-106.31,2.17a1.6,1.6,0,0,1-2.2,0c-4.44,1-6.87,5.83-8.79,9.58,5.48-.09,10.86-1,16.3-1.58h0c4,.44,32.88-3.11,31.38,1.37-.8,3.94-8.77,1.31-11.91,2.08-11.68-.07-23.35,1-35,.7a1.3,1.3,0,0,1-1.5.22h0l-.21-.06a19.77,19.77,0,0,0-.44,5.64c9.1-.22,18.15-1.43,27.27-1.57l-.27,0,1-.07-.27,0,.45,0h-.27l2-.15h0c7.08.19,14.82-1.68,21.6-.05a2.27,2.27,0,0,1-1.55,3.67c-16.57-.46-33.5,2.76-49.9-.29.26,3.4.58,7.35,3.9,9.17,15.55-1.62,31.16-3.08,46.82-2.54a2.11,2.11,0,0,1,1.94,2.41C915.08,842.15,904.11,838.64,900.26,839.68Zm183.54-31.81c3.57,3.46-12.56,20.51-15.1,24.7.9.34,1.79.69,2.71,1,17.64-24.47,34.78-49.29,54-72.57l-.29.38c1.15-1.49,2.29-3,3.45-4.48v0l0-.06,0,0,.22-.28h0s0,0,0,0h0l0,0h0l0,0h0l.18-.23-.08.1c3.18-4,6.4-8,9.85-11.78-7-5.27-6.43-14.75-5.2-22.5-22.78,29-48.85,55.45-75.22,81.14-.67,4.15-1.69,8.28-1.81,12.49,4.37-8.57,11.8-15,17.49-22.56,3-3.31,5.45,1.67,2.52,3.92l.05-.08c-6.49,8-13.83,15.28-19.33,24a12,12,0,0,0,1.86,4.55c6.28-10.26,12.74-20.54,20.55-29.71,2.64-2.24,5.29,1.82,3.12,4-7.33,8.79-13.39,18.51-21,27.11-.25.31-.49.64-.73,1a17.25,17.25,0,0,0,5.4,3.79c3.07-5.85,7-11.2,10.32-16.88h0l.21-.35,0,.06C1078.93,812.52,1080.14,806.13,1083.8,807.87Z"/><path d="M514.75,945.82c-3.92-1.86-1.64-6.86,1.82-7.77,8.76-5.43,17.27-11.26,26-16.69,30-18.2,60.45-35.62,89.11-55.86-8.57-.85-17.15-1.65-25.73-2.45h.09l-.35,0h0l-2.41-.21h0l-.35,0h0l-2.89-.26h0l-.34,0h0c-20.94-1.57-41.91-5.17-62.93-4.67-9.87,3.18-18.56,9.25-27.79,13.9l.2-.12c-.45.25-.89.52-1.35.76l.43-.24-.84.48.06,0-.72.41,0,0-.25.15h0a700.86,700.86,0,0,1-67.58,35.76c-1.1,2.62-5.93,1.21-2.8-1.67,13.86-10.79,29.6-18.88,44.94-27.33-.14.08-.28.17-.43.24,17.5-9.6,34.14-21.21,52.94-28.17,8.05-2.27,16.58.77,24.8.91l-.37,0,.79.07h0l1,.09h-.07c12.68,1.26,25.32,2.89,38,3.94h-.08l5.9.52h-.11l.35,0h0l2.68.23h0c7.38.64,14.73,1.48,22.12,2,10.76.19,19,2.14,5.93,10.71l.14-.1c-25.84,19-53.42,35.64-80.88,52.23-9.06,5.43-17.94,11.16-26.82,16.87C523.06,941.33,519.35,946,514.75,945.82Z"/><path d="M514.81,945.25c-12.46-2.3-24-8.72-35.53-13.94l.26.11c-3-1.35-6.07-2.67-9.09-4l.4.18c-5.16-2.3-10.32-4.57-15.46-6.9l0,0a121.15,121.15,0,0,1-17.7-8.91c-2,.06-4.21-2.62-2.37-4.27,4.8-1.19,10.36,3.35,15.14,4.55a413.62,413.62,0,0,1,42.61,18.26c7.38,2.63,14.5,6.85,22.27,8C519.57,938.48,518.7,945.36,514.81,945.25Z"/><path d="M525.28,950.92l-.22,0,.19,0c-6.44-2.15,13.62-14.95,15.73-17.51l-.1.08.25-.19,0,0,.39-.3-.14.11.47-.36-.08.06.48-.37-.18.14.25-.19,0,0c21.18-15.13,43.22-29.08,65.62-42.33l-.32.18c12.27-8,26.3-13.89,37.48-23.36,5.42-2.84,5.71,4.43.7,6.83-40.35,24-81.74,46.9-119,75.57A1.55,1.55,0,0,1,525.28,950.92Z"/><path d="M528.12,957.87c-2.4-.91-2-4.61.15-5.59,6.24-3.08,11.88-7.22,18-10.47,8.55-4.78,15.76-11.49,23.94-16.82,22-14.73,43.86-29.65,66.67-43.08,4.37-1.79,11.75-9,16-8,1,.72,0,2.6-1.14,2a4,4,0,0,0-.46.24l.14-.08c-33.17,24.6-68.34,46.32-102,70.11l.33-.18-1.44.81.33-.18C541.54,949.59,535.43,956.28,528.12,957.87Z"/><path d="M447.6,930.81c-22.09-2.93-.73-36.85,8.16-22.11,1.28,2.78-3.27,7.1-3.45,2.38a2.07,2.07,0,0,0-.34-.15l.15.07-.17,0a1.63,1.63,0,0,1,.31.11c-5.29-.78-11.27,8.28-6.95,12.49,1.81,1.61,5.67.74,5.28,4.22A3.21,3.21,0,0,1,447.6,930.81Z"/><path d="M458,936.28c-11.89-5-1.23-32.75,10.42-23,1.08,1.06.92,3.25-.76,3.56-1.17.09-1.62-1.21-2.84-1.09-5.42-.29-9.3,14.48-2.24,13.4C469.69,930.17,464.36,938.79,458,936.28Z"/><path d="M477.88,943.91c-17.12-.21-1.45-34.49,6.49-23.95.57,2-1.62,5.09-2.69,2.06-4,2.53-9,14.07-1.88,15.07C483.39,938.4,481.57,944.51,477.88,943.91Z"/><path d="M491.67,950.36c-16.32-6.44.59-33.28,8.58-24.74.78,1.72-1.4,4.31-2.21,1.73-4.5,1.78-8.19,9.35-6.42,13.77,2.32,2,6.6,4.83,4.29,8.32A3,3,0,0,1,491.67,950.36Z"/><path d="M501.83,859.68c-10.59-5.65-5.25-28.5,5-24.63,1.67.87.44,4.17-1.14,2.45-4.59,1.36-5.65,10-2.14,13l0,0C510.56,854.32,507.7,862.37,501.83,859.68Z"/><path d="M610.05,998.58c-2.3-2.6-.64-6.84-.55-10,.53-9.48,7.38-16.26,11.94-24.1l-.16.26c1.27-2.17,2.58-4.31,3.86-6.47l0,0a347.51,347.51,0,0,1,21.4-33.07l0,0c.71-.91,1.4-1.85,2.13-2.75l-.28.36,1.18-1.51c-.1.11-.19.24-.29.36,5.28-6.74,9.87-14,15.19-20.69a.76.76,0,0,0-.11.14c3.05-3.4,5-8.07,8.86-10.64,3.69-6,11.22-.33,11.42,5.17,0,2.61-1.63,4.91-2.66,7.22-14.12,24.79-30.77,48-44.69,72.87l.21-.35c-3.82,5.31-5.12,13.4-11.29,16.47C621.26,993.33,614.78,1000.21,610.05,998.58Zm4.36-6.74a107.13,107.13,0,0,1,11.27-6c5.33-9.06,10.76-18.07,15.89-27.25,13.08-20.18,25.63-40.78,36.85-62.07a6.67,6.67,0,0,0-1.34-1.56,2.84,2.84,0,0,1-1.9.32,2.1,2.1,0,0,1-1.37.66c-14.52,23-32,44-45.79,67.54C622.79,972.84,613.84,980.43,614.41,991.84Z"/><path d="M611.88,995.89c-11.83-2.73,19.13-39.2,22.46-45.78l-.07.1c.11-.16.23-.31.35-.46l-.07.09,1-1.25-.09.11c8.24-9.43,13.74-20.75,21.26-30.75,3.69-4.91,7.82-9.56,10.52-15.13,2.68-3.76,6.1-15.67,11.9-13.19,7.36,6.17-5.84,18.39-9,24.46S663.36,926,660,932l.08-.12-.53.89c.11-.17.21-.35.31-.52-9.69,15.77-20.27,31-30,46.7,4.88,2.29.14,7-2.68,8.81-2.28,1.25-4.12,5.93-7.08,3.64C617.57,993.13,615.2,996.21,611.88,995.89Z"/><path d="M664.52,942.77c-4.34-5.14,17.38-28.12,19.93-35.07a13.77,13.77,0,0,0-3.41-3.23l.24.16c-2.3-1-5.11-3.51-1.52-5a11.43,11.43,0,0,1,6.62,2.75c8.64,6.33-5.62,19-9.12,25.38C673.82,930.41,668.66,946,664.52,942.77Z"/><path d="M116.94,636c-3-3.54-3.3-8.75-4.65-13.06,0,.2.09.39.14.59-1.8-7-3.63-13.89-4.36-21.06-2.83-2.48-4.57-9.72-.46-11.86a93.37,93.37,0,0,1,21.54-5.19c2.82,1.63,2.53,5.88,3.52,8.68,2.94,10.1,5.54,20.3,8.51,30.39,1,4.14-4,4.91-6.76,6.26C128.85,632.28,122.7,637.9,116.94,636Zm-4.08-37.72c3.81,9.89,7.42,20,9,30.49,4.85-1,9.32-3.39,14.14-4.59-2.85-11.13-6.46-22-9-33.27-5,1.67-10,3.68-15,5.22C112.21,596.83,112.61,597.51,112.86,598.24Z"/><path d="M158.6,621.3c-4.45-3.5-4.16-10.91-6-16-2-10.06-4.58-20-5.54-30.29l.06.48c-.07-.65-.15-1.3-.22-2l0,.12-.06-.48a1,1,0,0,1,0,.17c-.43-7.13-3-14.57-1.53-21.64-1.83-6,3.23-7.46,8.06-7.84,3.81-.31,7.43-1.61,11.2-2,5.84.34,3.94,10.1,5.52,14.23,3.22,16.11,7,32.12,9.53,48.38l-.06-.23.09.35h0c2.72,8.37.55,10.48-7.46,12.79C167.87,618.79,163.34,622,158.6,621.3Zm3.12-7.55c.06.2.11.4.16.6,4.73-1.23,9.2-3.26,14-4.18-3.86-20.66-9.19-41.06-13-61.73-4,1-8,1.75-12.11,2.46.08,1.89.41,4.45-1.67,5.39C154.77,575.09,156.48,594.84,161.72,613.75Z"/><path class="cls-2" d="M202,606.3c-4-1.63-3.2-7.78-5.24-11.21l.11.26-.18-.44h0c-6.49-22.44-8.39-46-13.45-68.79-2.43-2-2.13-6.07-3.14-8.91-1.34-3.64-2.37-9.85,2.93-10.5,7.09-.1,14.65-4.36,21.49-2.36,4.22,6.32,3.22,14.72,5.73,21.74,5.9,19.66,9.17,40.15,12.4,60.41v0c0,3.69,2.13,8.08-.13,11.37C216.35,601.71,209.15,605.27,202,606.3Zm2.69-7c4.52-1.48,8.77-3.57,13.12-5.46-3.54-28.07-11.29-55.46-17.42-83-1,.16-2.06.37-3.08.61l.12,0c-3.92.63-7.67,2-11.64,2.36.4,2.1.59,4.23.8,6.36,0-.14,0-.29,0-.43C196.45,545.3,197.19,573.14,204.64,599.34Z"/><path class="cls-1" d="M90.61,577.37c-2.71-.46-3.62-3.63-5.13-5.55-3.86-4.13-8-8-10.16-13.33l0,0c-2-2-2.67-6.14,1.17-6,10.33-8.54,18.36-19.76,28.58-28.57l0,.06c23.44-23.14,44.4-49.36,60.22-78.28h0c-2.86-1.87-7.49-2.38-8.81-5.87-.34-1.73,1-3.87,2.88-3.82a18.7,18.7,0,0,0,8.44-1.64c6.9-3.31,13.61-7,20.39-10.58,1.1-.92,2.8-1,3.29.61,2.07,8.16,2.29,16.72,4,25,2.78,6.61.3,9.19-6.23,5.88l.1,0c-.53-.23-1.05-.49-1.58-.72l.05,0c-1.37-.61-2.82-1-4.22-1.52-5.05,11.35-12,21.66-18.7,32.06-7.06,12.73-14.16,25.57-23.25,37-11.39,13.48-21.65,28-34.46,40.15C101,566.53,97.21,574.32,90.61,577.37Z"/><path class="cls-1" d="M240.07,589.12c-4.13.24-4.27-4-4.87-7-1-4.81-1.69-9.65-2.63-14.46-3.41-22.69-9.45-44.29-12.12-67.35-1-10.8-3.6-21.29-4.93-32-.64-8-5.29-17.52,7.23-16.65,4.75.34,13.13-5.52,14.25,2.15,6.33,23.71,10.43,48.09,13.53,72.42,1.49,13.93,5,27.67,6.51,41.47,0,4.86,2.76,11,.57,15.43C253.16,587.29,246,588.54,240.07,589.12Z"/><path d="M628.09,1014.12c-10.08-7.32-15.9-19.54-23.67-29.17-10.58-12.66-18-27.36-26.8-41.14-5-7-36.41-48-20.59-51.21a2.69,2.69,0,0,1,2.28-2.1h-.1a2.13,2.13,0,0,1,2.53,2.28c10,11.72,15.7,26.09,24.48,38.62,9.82,15.85,20.92,30.89,29.92,47.24l-.06-.12.51.91c-.1-.19-.21-.37-.32-.56,4,6.9,8.38,13.54,12.28,20.48l0-.05c1.53,3.86,6.24,7.38,4.84,11.82A4.39,4.39,0,0,1,628.09,1014.12Z"/><path d="M562.65,996.48c-5.28-1.5-3.69-9.24.56-11.18l-.09.06,1-.78-.36.28c26.89-18.44,57.67-30.35,88.1-41.59l-.29.12c31.55-12.71,63.57-24.29,96.07-34.35,8.13-2.68,16.39-4.92,24.5-7.67,2.86-1.91,7-.56,7,3.19-.3,8-17,9.09-23,12.34-14.13,5.32-28.5,10-42.55,15.58l.51-.2c-28.61,11.26-57.74,21.24-85.89,33.64C606.32,975.77,584.67,987.66,562.65,996.48Z"/><path d="M840,1025.32a3.69,3.69,0,0,1-2.32-.87c-7.86,7.43-28.13-44.61-33.6-51.48-8.64-16.06-17-32.23-26.29-47.93-3-6.51-10.83-11.61-10.18-19.34,1.46-7,10.54-5.64,14.09-1.1,6.57,6.63,9.13,16.12,15.1,23.31,15.4,20.76,27.77,43.52,38,67.25,2.95,6.09,4.85,12.6,7.58,18.78C844.8,1017.69,846.18,1024.73,840,1025.32Z"/><path d="M627.17,1012.94c-4.37-.85-7.48-7.07-4.15-10.62,3.91-3,8.94-4.36,13.28-6.68,10.67-4.49,21.24-9.2,31.79-14,40.48-17.86,80.5-36.72,121.69-53l-.18.07,1.16-.46-.58.23.73-.29-.13.06,1-.38-.57.22.31-.12h0l.57-.23-.08,0,.83-.32-.08,0,.58-.23-.16.06.2-.08-.1,0,3.85-1.53h0l.57-.22-.07,0c6-2.66,12.41-4,18.32-6.69,2.75-1.94,7-5.65,9.72-1.71.72-.2,1.44-.46,2.15-.68v0c4.7-1.49,6.74,5.57,3.21,8.13-3.59,2.2-7.56,3.86-11.36,5.7-15.55,6.58-30.5,14.52-46.37,20.34-28.26,12.52-57.16,23.51-85.37,36.13C667.9,996,648.47,1007.66,627.17,1012.94Z"/><path d="M631.2,1013.17c-1.38.3-3.14-1-1.57-2.08v0c56.72-32,115.93-59.51,177.84-79.91,7.79-2.36,14.78-8.7,23-8.73,4.53.91,4.59,7.43,1,9.64-10.34,4.57-20.53,9.76-31.48,12.93-37,11.51-72.29,27.4-107.39,43.73C672.58,997.42,653.2,1010.33,631.2,1013.17Z"/><path d="M821.7,932.76c.68-3.28,8.65-4,11.28-7.37a2.34,2.34,0,0,1,3.45.91c1.44,5.91-7.78,6.25-11.67,7.53l.23-.05-.76.17.22-.05C823.33,934.4,821.75,934.29,821.7,932.76Z"/><path d="M644.89,960.08c-43.43-5.32-24-75.05,14.68-68.66,19.53,3.32,26.25,26,23.07,43.29C679,951.57,661.7,962.47,644.89,960.08Z"/><path d="M730.54,922.28c-3.69-5.07-5.62-11.23-7-17.3-3-7.85,6.34-11.21,9.19-2.34,1.88,5.23,6.73,9.84,6.37,15.6C738.41,921.84,733.69,925.73,730.54,922.28Z"/><path d="M747,918.82c-6.31-5.88-7.82-15.57-9.06-23.76-2.77-3.83,1.49-9.61,6-7.84,5.09,3,6.28,11.11,9.67,15.94C757.13,908.79,756,921.6,747,918.82Z"/><path d="M760.2,909.57c-5.86-10-10.43-21.48-11.28-33.16.52-4,4.39-8.4,8.34-5,4.07,4.79,5.19,11.65,8.09,17.22,1.84,6.06,7.89,14.24,4.11,20.25C767.26,911.41,762.54,912.4,760.2,909.57Z"/><path class="cls-1" d="M779.14,902.56c-6.59-14.31-15.27-28.18-19.54-43.34-.47-3.61,3.07-7.6,6.76-5.77,6.22,6,8.82,15.34,13,22.85,2.58,5.73,4.77,11.61,7.41,17.31,2.26,3.2,1.85,8.87-2.85,9.29A3.11,3.11,0,0,1,779.14,902.56Z"/><path d="M646.09,930.19a2.23,2.23,0,0,1-1.62-2.47c-.86-10.17-2.29-20.34-2.27-30.58-.26-4.56,4-4.17,3.29.37a2.11,2.11,0,0,0,0-.25c1.37,8.22,1.79,16.55,3,24.8a95,95,0,0,0,7.31-10.38l-.16.28a40.15,40.15,0,0,1,4.7-6.92l-.09.12a1.83,1.83,0,0,0,.13-.16l0,0c2.76-2,3.52-9.21,7.14-8.68,1.95.78,1.42,3.16.36,4.48l.18-.29c-1.92,4.68-5.82,8-8.39,12.27h0C656.62,917,650.51,928.83,646.09,930.19Z"/><path d="M235.69,968.76c-14.58-4.24-30-4.51-44.84-7.35-25-4.84-50-9.39-75.18-13.47-14.09-2.41-28.17-5.08-42.38-6.77-11-1.52-22.88-2-32.78-7.49-5.3-.08-6.08-15.51-8.26-19.86C25.64,890,19.93,865.91,14.83,841.69,10,823.61,6.4,805.22,3.21,786.79c.16-5.93-6.62-17.83-.94-21.42,3.73-7.1,32.26-8.07,40.5-8.63,29-2.56,58.13-1.4,87.18-2.53,16-.43,32.07-.16,48.09-.8,6.14-.38,12.3-.37,18.44-.39,6.53-1.08,10.11,2.31,7.19,8.8,1.58,2,4.54,2.68,2.19,6,7.77,23.52,11.29,48.28,15.84,72.57,4.6-1.39,12.29-10.72,16-4.24,31.32,4.74,63.53,11,93.51,19.91l.23.06-.08,0,.12,0h0l.06,0h0l.17,0-.26-.08c15.15,3.72,30.21,7.9,45.44,11.22,6.36,2.21,31.53,4.4,24.14,15.05-32.75,22-70,37-104.37,56.5h0c-12.94,7.25-26.18,14-39.12,21.24C250.51,963,243.55,969.39,235.69,968.76Zm3.54-122.91-.77-.16-.06,0C238.69,845.76,239,845.8,239.23,845.85Z"/><path d="M216.3,844.32c-.06-1.29,1.46-2,2.29-2.75l-.14.1c3.85-3,8.31-5.11,12.52-7.55l-.05,0a1.8,1.8,0,0,1,3.13.86c-.35,4.6-11.45,6.17-15,8.94l.14-.08-.78.46C218,845.09,216.47,845.32,216.3,844.32Z"/><path d="M268.18,845.64c-1.17-.36-2.32-.74-3.5-1.06l.09,0-.27-.07.06,0-.06,0,.05,0-.28-.07.09,0A195,195,0,0,1,234.6,837c-1.26,2-5.58-3.49,2.61-2.25,9.11,1.54,18.17,3.41,27.22,5.18,2.13.94,7,1,6.14,4.35A2,2,0,0,1,268.18,845.64Z"/><path d="M207.15,797.28c-2.65-13-3.84-26.32-6.73-39.28-3.15-1.14.74-4.74,2.38-2.17C205.58,757.86,217.73,808.53,207.15,797.28Z"/><path d="M237,958.32c-1.63-.77-.42-3.49-1-5,0,.05,0,.1,0,.15-.58-6.65-2.39-13.11-2.82-19.78,0,0,0,.06,0,.09-.31-3.08-.92-6.13-1.22-9.21h0v-.09h0c0-.29-.06-.58-.1-.88l0,.18c-2.08-12.51-4.52-25-5.24-37.67,0,.07,0,.15,0,.22l-.15-1.39a.22.22,0,0,0,0,.08V885s0-.08,0-.12v-.1a.68.68,0,0,1,0,.14c-.39-3.36-1-6.69-1.42-10a.77.77,0,0,0,0,.15c0-.4-.09-.79-.14-1.18a.15.15,0,0,1,0,.07c-.26-2.31-.44-4.63-.68-7l0,.21c.31-4.5-4.6-19.52-1.87-21.62.81-.12,1.07.71,1.13,1.37,1.6,8.73,3.62,17.41,4.24,26.31h0c.4,3.73,1.13,7.41,1.54,11.13a.34.34,0,0,1,0-.1h0l0-.13c0,.11,0,.22,0,.34s0-.07,0-.1c0,.43.1.86.14,1.3,0-.08,0-.15,0-.22,1.18,17.77,4.86,35.26,6.24,53a.77.77,0,0,1,0-.15C235.67,941.8,240.42,957.33,237,958.32Z"/><path d="M240.94,960.52c-.75-.93.34-1.87,1.12-2.3,8.65-5.51,17-11.45,26.06-16.33L268,942c2.45-1.4,5-2.65,7.44-4l0,0c4.12-2.37,8.08-5,12.26-7.26l-.12.06,2.38-1.34,0,0,.71-.4h0l.16-.09h0l.07,0h0l1.44-.82-.16.09.41-.23-.16.09.29-.17,0,0,.07,0,0,0c2.73-1.6,5.59-2.94,8.36-4.46l-.11.06.87-.49-.16.09c16.94-10.56,35.46-18.26,53-27.83,13.31-7,26.9-13.45,40.73-19.29.72-.72,1.92-1.27,2.63-.22,2.14,3.93-13.44,7.61-16.34,9.49l.19-.08c-24.87,11.11-48.69,24.41-73,36.7h0c-5.86,3.67-12.09,6.71-18.08,10.18l0,0c-5.35,2.84-10.44,6.09-15.64,9.17h0l-.52.29h0l-.13.07,0,0-.16.09h0c-1.73,1-3.48,1.94-5.22,2.91l.11-.07-1.11.63h0l-.17.1,0,0-3.58,2,.1-.06-1.16.66.16-.09c-6.76,4.09-13.44,8.34-20.38,12.14A1.42,1.42,0,0,1,240.94,960.52Z"/><path class="cls-3" d="M291.88,874.39c-2.2-3.45,19-13.58,22.24-16.88-11.91-3.28-24.27-4.77-36.33-7.48h0c-7.19-1.25-13.13,3.51-19.61,5.93a6.51,6.51,0,0,1-2.42.73c-1.06-.28-.37-1.84.55-1.67,6.61-2.74,12.61-8.37,20.08-7.74,13,2,26.13,4.11,38.85,7.36,8.47.83,1,4.94-2.21,7.13-5.85,4-11.87,7.77-17.74,11.74a.31.31,0,0,0,.09-.07l-.2.15.06,0C294.28,874.25,293,875.81,291.88,874.39Z"/><path class="cls-3" d="M289.42,875.57c-3.05-.69-6.09-1.49-9.13-2.24l.2,0-.41-.11.09,0-.2-.06h0l-.29-.07.08,0-.3-.08h0l-.93-.24.05,0c-.93-.25-1.83-.54-2.76-.8l.2,0c-2.89-.64-5.69-1.58-8.55-2.35l.09,0-.18-.05.08,0c-5-1.32-10.11-2.51-15.07-4.12h0c-15-2.89,1.71-9.42,7.09-12.38,2.18-.62,9.2-5.65,10.41-3.24-.09,1-1.28.69-1.91,1.1l.1,0a75.59,75.59,0,0,0-7.63,4h0a111.53,111.53,0,0,0-10.78,6.79c5.32,1.87,10.8,3.25,16.28,4.58h0c2.78.64,5.55,1.37,8.29,2.17l-.19-.05c1.65.35,3.3.72,4.91,1.2l-.19,0c3.3.79,6.59,1.6,9.91,2.33l-.13,0a10.59,10.59,0,0,0,2.08.46h0l.2,0-.13,0c1.06,0,2.22-1.4,3.07-.1C295,874.81,291.27,876,289.42,875.57Z"/><path class="cls-3" d="M318.33,897h.06c-.45-.11-.9-.24-1.35-.37h0c-5.9-1.35-11.92-2.06-17.79-3.56l.22.06c-10.12-3.41-20.64-4.9-30.92-7.7l.22,0c-14.54-2.37-28.55-7.68-41.67-14.26-4-5.87,14,3.71,15.9,3.56l-.1,0,.2.05h0c6.08,1.67,11.9,4.24,18,5.8l-.1,0c3.82.79,7.71,1.19,11.45,2.41l-.16,0c9.28,2.26,18.68,3.59,27.76,6.67l-.09,0,.35.09-.22-.05.48.12-.22-.06c4.67,1.24,9.5,1.73,14.18,2.89l-.07,0c1.52.39,3.08.57,4.58,1l-.22-.05C321.21,893.66,320.56,897.51,318.33,897Z"/><path class="cls-3" d="M302.17,906.46c-.71-.22-1.41-.44-2.12-.62l.08,0-.08,0h0c-22.59-7.08-46-11.48-68-20.3l.06,0-.35-.16.06,0a21,21,0,0,1-4.78-2.67c-.48-1.49,1.34-1.5,2.24-1,6.24,2.4,12.85,3.39,19.11,5.72l-.23-.07c3.13.74,6.15,1.84,9.25,2.66l-.24-.06,1.55.4-.24-.06c3.31.9,6.64,1.71,10,2.56h0l.19,0-.1,0,.22.06-.09,0h0l.89.24-.25-.07c5.22,1.4,10.48,2.64,15.76,3.78l-.13,0c5.43,1.68,10.75,3.64,16.29,4.94l-.26-.07.55.15-.16-.05.05,0-.09,0c1.68.35,4.09,1,3.28,3.22A2,2,0,0,1,302.17,906.46Z"/><path class="cls-3" d="M278.87,915.3c-5.31-1.27-10.41-3.23-15.86-3.79l.25.07-.38-.1.13,0c-10.7-4.4-21.93-6.88-32.87-10.51a1.74,1.74,0,0,1-2.18-1.72c1.41-3.66,8.25,1.1,11.21.87,12.9,2.44,25,7.82,37.83,10.51l-.26-.07.3.08H277l.25.06-.16,0c1.79.4,5,.67,4.13,3.29A2,2,0,0,1,278.87,915.3Z"/><path class="cls-3" d="M256.64,923.51c-8.44-2.65-17.24-5-24.95-9.39-.95.16-1.13-1.35-.43-1.78,1.31-.42,2.65.72,4,.88h0c7.81,2.25,16.66,3.54,23.7,7.29C259.67,922,258.3,924,256.64,923.51Z"/><path class="cls-3" d="M239.72,930.71a25,25,0,0,1-3.9-2.44l.1.07c-.67-.61-3.56-1.48-1.86-2.44h0c.32.05.76-.08,1,.2,2,.95,4.79,1.4,6.3,3C241.69,930,240.68,931.23,239.72,930.71Z"/><path class="cls-3" d="M499.41,599.93c-.85,0-.92-1-.89-1.64,0-8.57-.61-17.13-.51-25.71v.08c0-.18,0-.35,0-.52v.18c0-.19,0-.36,0-.55a2.17,2.17,0,0,1,0,.26c.68-2.73-1.13-8.15,2.26-9.11,3.32.23.05,12.64.86,15.82v0c0,2.7-.11,5.4-.16,8.1v0c0,.13,0,.27,0,.4v0c0,.32,0,.64,0,1v.16C500.37,591.18,501.8,598.35,499.41,599.93Z"/><path class="cls-3" d="M583.29,747c-21.6-1.23-43.23-.63-64.81-1.76h0c-1.72.09-5.3-.7-2.49-2.5h0c17.84-.06,35.55-3.37,53.42-1.5,3.78,1.05,16.93-2.26,16.64,3A2.93,2.93,0,0,1,583.29,747Z"/><path class="cls-3" d="M784.45,593.39c-4.9-2.1,1.71-11.79.9-16.11v.12a92.48,92.48,0,0,0-12.93-45.75c-5.22-9.73-4.19-20.94-3.52-31.56.26-1.35-.39-6,2-4.63.58,6,.42,12.19,1.1,18.23a1.23,1.23,0,0,0,0-.19c.62,7.65,3.75,14.61,8.07,20.85,3.93,9.46,8.15,19.14,9.35,29.39.58,6.66,1.85,13.56-.09,20.1C787.86,586.82,788.8,593.27,784.45,593.39Z"/><path class="cls-3" d="M588.07,489.12c-7.67-2.73,8.35-9.16,10.27-11.7a110.53,110.53,0,0,1,15.37-10.87c2.42-1.07,5.77-6.14,8.11-2.66,1.29,5.33-10,8.56-13.45,11.63a198.18,198.18,0,0,1-18.44,12.22A2,2,0,0,1,588.07,489.12Z"/><path class="cls-3" d="M688,472.72C678.5,469,668.73,466,659.1,462.61c-1.9.81-2.77-2.6-.86-3.12,2.84.22,5.65,1.55,8.47,2.18,7.61,3.12,16.66,3.75,23.55,8.11C691,471.17,689.62,473.28,688,472.72Z"/><path class="cls-3" d="M656,736.16c-2.18-34-4.36-68.07-2.88-102.13v0a1.21,1.21,0,0,1,0-.19v0c1.24-42.36-3.5-84.49-4.86-126.78-.6-12.54-2.59-25-3.66-37.46C648.79,462,648.23,482,649,484l0-.22c.19,1.67.38,3.34.56,5l0-.22c3.24,52.92,8.26,105.93,5.6,159v-.06a1.09,1.09,0,0,1,0,.18v0c-.56,24.31.59,48.61,1.91,72.88C656.64,722.32,660.08,741.5,656,736.16Z"/><path class="cls-3" d="M886.58,617.53c-1.89-3.15-5.48-10.08-.73-12.1,2.89.45.36,3.79,1.57,5.52.69,2.26,4.21,5.1,1.59,7.22A1.66,1.66,0,0,1,886.58,617.53Z"/><path class="cls-3" d="M868.62,635.19c-2.26-1.62,5.84-9.25,7.09-6.69s-2.74,3.9-4,5.71C871,635.12,869.71,636.33,868.62,635.19Z"/><path class="cls-3" d="M458.72,566.5c-.91-1.13-5.15-2.9-2.15-4,1.43.43,4.69,1.77,3.68,3.67A1.06,1.06,0,0,1,458.72,566.5Z"/><path class="cls-3" d="M479.21,362c-2.06-4.68,9.91-11,13.14-13.83,14.32-11,18.72-16.49,18.95-35,.56-22.16,22.85-21,25.81-40.85a1.23,1.23,0,0,0,0,.19,68.45,68.45,0,0,1,2-10.33l-.06.18c.09-.29.17-.58.25-.88a1.21,1.21,0,0,1,0,.18c2.88-11,9.28-4.28,4.54-4a1.34,1.34,0,0,0-.44.27h0l0,0,0,0-.09.09a1.54,1.54,0,0,1,.19-.17c-2.47,2.88-2.64,7.09-3.43,10.67,0,0,0-.08,0-.11s0,.12,0,.18v0c-.58,8.65-4,17.71-11.18,23l.07-.05-.7.53,0,0-.37.28.18-.14c-22.69,12.35-3.38,39.34-24.73,52.75-6.25,6-14.51,9.34-20.74,15.35C481.6,361.08,480.64,363,479.21,362Z"/><path class="cls-3" d="M503.82,378.88c-2.49-1.13-.56-4.17-.57-6.16,0,.11,0,.23-.05.34,2.21-21.89,30.3-25.93,29.88-49.4.66-7,2.19-13.85,7.23-19a1.18,1.18,0,0,1,1.68-.37c1.42,1.55-1.13,3.12-1.87,4.4-4.4,5.39-3.24,12.78-4.41,19.21a2.51,2.51,0,0,1,0-.27l-.18,1.2v0c.29,20.27-25.54,25.68-28.15,44.54C507,375.38,506.92,379.56,503.82,378.88Z"/><path class="cls-3" d="M474.72,406.61c-3.87-.81.35-9.58.2-12.53.94-5.43,2-11.28,6.2-15.24l0,0a1.14,1.14,0,0,0,.11-.11l0,0c1.24-.8,3.22-4,4.67-2.43.45.95-.45,1.58-1.15,2C474.27,384.45,480.59,403.48,474.72,406.61Z"/><path class="cls-3" d="M445.66,400c-.37-9.67,1.89-19.71,9.4-26.35a1.36,1.36,0,0,1,2-.13c1.34,3.38-4.43,5.35-5.47,8.4h0c-3,5.31-2.79,11.64-2.5,17.56C449.36,401.74,445.81,402.59,445.66,400Z"/><path class="cls-3" d="M406.71,484.87c-4.46-1.22.09-8.52,1-11.35,5.53-11.63,17.47-16.8,26.68-24.78l-.2.19.45-.44,0,0,.46-.47-.06.07.22-.22-.2.19c3.21-3,4.32-7.4,5.57-11.48v0l.06-.2,0,.11c1.58-2.64.53-11.33,3.07-11.84,2.06,2.8-1.2,14.53-2.14,18.38-5.2,16.16-27.59,18.9-31.74,36.15C409,481.17,409.51,484.68,406.71,484.87Z"/><path class="cls-3" d="M388.45,526.26c-.85-3.16,2.86-19.36,7.07-17.65a1.92,1.92,0,0,1,.25,2.52,26,26,0,0,0-3.64,13.64l0-.29C393.11,527,389.26,529.42,388.45,526.26Z"/><path class="cls-3" d="M693.58,341.56c-.67-6.53,1.87-13.08,4.24-19.07,2.16-4.73,7.16-8.27,6.8-13.93.15-1.35-.13-3.57,1.75-3.68a1.44,1.44,0,0,1,1.32,1.64c.66,8.12-6.09,13.38-8.07,20.69-1.12,4.25-2.39,8.62-1.88,13.05C698.35,342.93,694.25,344.68,693.58,341.56Z"/><path class="cls-3" d="M715.37,354.59c-6.89-7.51-7.26-17.44-4.52-26.85.65-4.91,5.11-5.38,3.67-1.36l0-.05c-2.55,6.6-4,15.69,1.28,21.33l-.17-.22c.19.25.39.49.59.74l0-.05c.89,1.13,1.78,2.27,2.65,3.42C720.45,353.66,717.15,357,715.37,354.59Z"/><path class="cls-3" d="M731.52,360.59l-.18-.46c0,.05,0,.11.07.17l-.08-.2,0,0-.06-.16v0c-.08-.18-.15-.37-.24-.55-1.55-1,.65-3.25,1.7-1.62C734.69,359.07,733.45,362.69,731.52,360.59Z"/><path class="cls-3" d="M700.35,359.3c0-1.88-1.21-5.34,1.06-6.18,2.53.15.87,3.74,1.62,5.34C703.45,360.18,700.75,361.3,700.35,359.3Z"/><path class="cls-3" d="M598,162.4c-.28-6.76,15.12-14.08,20.84-16.18,2.62-.4,6.11-5.07,8.26-2.3,1.06,6.27-17.62,7.45-21.62,12.5l.15-.11a42.42,42.42,0,0,0-5.53,4.74l.1-.14a3,3,0,0,0-.3.43C600.15,162.37,598.68,163.44,598,162.4Z"/><path class="cls-3" d="M615.24,162.34c-1.69-2.78,12.08-8.94,14.52-10.72,1-.67,2.48-1.09,3,.36,1.32,2.8-12.19,6.85-14.7,9l.12-.07C617.13,161.25,616.32,162.93,615.24,162.34Z"/><path class="cls-3" d="M635.71,161.88c1.54-3,6.42-4.14,9-6.59a1.26,1.26,0,0,1,1.86.5c.72,2.91-3.92,3.45-5.62,5C639.47,161.21,636.38,164.53,635.71,161.88Z"/><path class="cls-3" d="M708.59,150.83c-2-1.7-5.75-2.91-5.94-5.83.14-1.15,1.89-1.35,2-.08,1.44,2,6.55,2.22,5.75,5.22A1.34,1.34,0,0,1,708.59,150.83Z"/><path class="cls-3" d="M699.94,159.93c-1.87-1.39-5.46-5.5-1.9-6.93,1.82-.07,1.94,3,4,3.83C703.71,158.1,701.74,161.29,699.94,159.93Z"/><path d="M1208.85,182.63a2.74,2.74,0,0,1-2.37,0,235.72,235.72,0,0,1-26.59-6.6,133.3,133.3,0,0,1-21.76-7.27c-5.41,11.25-12.58,21.58-18,32.85-1.89,3.81-3.31,7.83-5.06,11.71-.63,1.88-3,4.07-4.75,2.14a6.32,6.32,0,0,1-1.06-3.62c-.23-4.59-.09-9.19-.13-13.78.37-13.18,1.09-26.4,3.49-39.39-12.88,1.66-25.41,4.57-38.36,5.63-2.67.05-12,2.91-10.58-2.25,2.18-2.74,5.52-4.43,8.18-6.69,10.16-8.36,21.65-14.84,32.26-22.57-.22-8.08-.74-16.14-1.42-24.19-1-.94-1-2.53-1.12-3.82-.3-3.38-.2-6.68-.26-10.08a47.27,47.27,0,0,1,0-6.41,2.6,2.6,0,0,1,4.32-1.28,103.16,103.16,0,0,1,6.93,9.73,51.86,51.86,0,0,0,9.84,12.25c5.45,5.63,9,12.35,15.55,16.69a270.79,270.79,0,0,1,31.18-15,46.64,46.64,0,0,1,6.37-2.32,3.65,3.65,0,0,1,2.93.21c1.65,1.08,1.16,3.15.15,4.5-1.46,2.55-3,5-4.5,7.56-4.82,9.14-10.6,17.68-16.13,26.38,5.44,3.49,9.78,8.39,14.46,12.8a112.48,112.48,0,0,1,14,15.5C1207.85,177.34,1212.29,180.44,1208.85,182.63Z"/></g></g></svg>