<svg xmlns="http://www.w3.org/2000/svg" viewBox="0 0 1106.86 955.18"><defs><style>.cls-1{fill:#4ac2ef;opacity:0.7;}.cls-2{fill:#231f20;}.cls-3{fill:#fff;}</style></defs><title>imagen 3 </title><g id="Capa_2" data-name="Capa 2"><g id="Capa_1-2" data-name="Capa 1"><path class="cls-1" d="M1101.31,302c-7.82,131.88,1.88,269.59-36.64,396.91-14.52,35.12-109.79,61.77-146.55,71.89,3.67,23.17,90,145,23.45,125-66-21.84-132.23-51.72-188-93.33C646.35,826,539.61,854.19,430.82,869.65c-61.81,11.11-122.92,28.22-185.24,36l-7.23.85,1.19-4c.21-.71.43-1.45.65-2.16.3-1,.59-2,.89-3,1.72-5.62,3.45-11.25,5.09-16.89l1.39-.24c2.69-.46,5.36-.91,8-1.39,25.11-4.35,50.18-9,75.23-13.86,52.86-10.2,105.66-21.09,158.55-31.23q19.35-3.72,38.68-7.25,21.93-4,43.85-7.72,5.28-.9,10.55-1.77c19.53-2.81,39.14-8,58.76-13.6,15-4.3,30-8.87,44.94-12.87,25.68-6.87,51.33-12.08,76.8-11.39,51.84,42.3,117,67,179,90.74C927.61,840.4,911,812,899.8,781.15c-19-30.78,3.65-29.07,27-36.7,34.42-9.7,67.62-24.22,99.84-39.57,60.8-34.18,42.28-330.53,53.13-409.29-.24-59.35,14.5-121.41-.77-179.46-27-15.82-132.67,10.1-167.68,16.62C902,134,874.41,143.4,856.19,146.23c-5.66.89-10.41,1.15-13.44.34a5.57,5.57,0,0,1-2.62-1.37,6.4,6.4,0,0,1-.75-.73l0,0c-5.13-5.41-4.42-16.38,3.33-18.91,0,0,0,0,0,0,4.85-.85,10-1.9,15.48-3.11,67.89-15,177.37-53.77,232-24.48C1121,149.86,1099.27,241.73,1101.31,302Z"/><path class="cls-1" d="M470.07,169.37c-.65.17-1.31.35-1.95.49-18.57,4.63-37.84,5.49-56.49,9.85-34.74,8.08-69.77,15-104,25.78-63.92,27.84-257.19,38.63-278,115.74-14.44,61.1-11.15,125.32-10,188C17.91,624.06,26,738.38,27.85,853.12c6.3,77.43,4.75,86,73.07,63.12,0,0,0,0,0,.06a6,6,0,0,1,4.61,1.51c3.67,3.12,4.93,10.36,2.51,15.05a22.77,22.77,0,0,1-1.81,1.87C92.43,948,61.85,952.64,44.91,952.33-2.24,939.06,10.34,821.45,6.08,776.85,1.9,683-1.09,589.2,1.14,495.23c-8-231.09,22.5-245.34,207.51-289.94C282.92,189.36,356.48,159.36,431.5,149c12.22-1.69,24.49-2.85,36.79-3.34.66,0,1.31-.06,2-.06a6.81,6.81,0,0,1,.78,0C479.31,150.1,478.65,165.72,470.07,169.37Z"/><path class="cls-2" d="M703.17,172.9c2-1.53,3.74-3.39,1.82-5.7-10.4-10.69-50.82-21.88-48.06,2.63C666.19,178.64,692.3,179,703.17,172.9Zm6-7.89c8.05,21.21-32.46,18.35-44.36,15.3-16-3-17.9-23.89-2.5-29.26C678.3,145.84,699.42,151.48,709.16,165Z"/><path class="cls-2" d="M686.29,172.41a2.44,2.44,0,0,0,.33-.23,3.06,3.06,0,0,1-2.06-2.11c-.88-.26-1.84.53-1.59,1.36A3.83,3.83,0,0,0,686.29,172.41Zm1.68-9.67c13.71,4.19,4.38,19.61-6.17,14.64C672.14,173,676.55,158.6,688,162.74Z"/><path class="cls-2" d="M756.73,159.84c-13.15,16.35-9.86,39-15.07,58.59-5,25.62-43.18,32.15-34.28-1.52,1.13-3.68,5.47-1,4.77,2.06-7,23.06,16.5,17.48,22.83,2.58,8.38-19.94,2.46-43.72,16-61.73C752.27,157.36,756.09,156.37,756.73,159.84Z"/><path class="cls-2" d="M695.85,242.77c.62,8.91-15,2.81-16.1-3.46-6.6-13,10.77-7,3.17-3.68C686.19,245.74,693.2,238.43,695.85,242.77Z"/><path class="cls-2" d="M664.39,198.88c1.19,4.82-7.72,5.25-11,5.27-2.67-.72-2.73-5,.54-4.49C657.24,199.83,662.18,195,664.39,198.88Z"/><path class="cls-2" d="M673.08,203.49c2.08-.84,3.8,2.7,2,3.9-2.17,1.18-4.52,2.74-7.09,2-2-.35-2.29-4.16.07-4C669.85,205.51,671.43,204.1,673.08,203.49Z"/><path class="cls-2" d="M748.86,233.77c2,2.73-1.27,4.16-3,5.68-1.22,1-2.89,2.89-4.37,1.29C738.41,238,746.68,230.62,748.86,233.77Z"/><path class="cls-2" d="M750.89,239.21c3.43.57,2.6,5.52-.24,6.2C746.62,245.62,747.28,239.21,750.89,239.21Z"/><path class="cls-2" d="M667.8,127.13a3.63,3.63,0,0,1,.66-1.26c-.7,0-1.4,0-2.1.1C666.83,126.37,667.31,126.76,667.8,127.13ZM739.46,140a2.5,2.5,0,0,1-.52,2.1c-7.56,6.63-21.91.26-31-1-10.61-3.3-49.83-2.54-46.17-18.76C668,115.52,737.09,132,739.47,140Z"/><path class="cls-2" d="M790.55,181.06c2.1,1.94.26,6-2.53,4-7.34-6.22-15.71-13.47-25.83-13.05a2.43,2.43,0,1,1-1.45-4.64C771.38,164.77,783,174.52,790.55,181.06Z"/><path class="cls-2" d="M712.79,152.73c2.64,1.53,1.61,6.42-1.72,4.76-6.82-4.51-13.5-9.13-21.39-11.26-10.42-3.41-21.65-1.66-32.36-1.8-11.37-8.8,32.31-5.27,35.67-2.51C700.28,144.15,706.42,148.74,712.79,152.73Z"/><path class="cls-2" d="M325.56,368.36c-3.78.55-9.59-21.19-1.92-14.22C323.87,357.07,330.29,368.43,325.56,368.36Z"/><path class="cls-2" d="M338.12,360.93c-4-.62-1.8-10.83-.18-13,4.32-1.55,4,4.35,2.9,6.91C339.94,356.75,341,360.85,338.12,360.93Z"/><path class="cls-2" d="M773,406c-5.72-4.88,9.27-10.81,12.52-13.31,3.54-1.58,16-9.41,17.83-3.59a2.56,2.56,0,0,1-1.15,3.12,89.09,89.09,0,0,0-25.85,13.57A2.4,2.4,0,0,1,773,406Z"/><path class="cls-2" d="M804.7,410.77c1.75,6.34-14,6.12-17.94,8.35-2.67.31-4.78,3.84-7.06,1.09-3.57-5.78,5.92-6.78,9.57-7.93C794,412.21,801.28,406.19,804.7,410.77Z"/><path class="cls-2" d="M789.77,432.7c2.77,1.37,1.92,6.79-1.57,5.49-2.41-1.36-6.66-2.22-6.48-5.67C782.46,428.17,787.49,431.55,789.77,432.7Z"/><path class="cls-2" d="M273.65,431.81c11.24,5.06-10.2,7.84-13.89,8.71-2.34,0-5.11,2.2-7.09.44-1.44-1.34-1-4.09,1.1-4.38C260.4,435,267.11,433.73,273.65,431.81Z"/><path class="cls-2" d="M286.87,452c2.94,4.5-24.09,12.17-28.46,17.08-4.16,1.76-7.57,8.6-11.89,8.27l.17.06c-1.69-.54-2.43-3.23-.78-4.23a.9.9,0,0,0-.28.2C249.46,468,282.94,445.82,286.87,452Z"/><path class="cls-2" d="M368.27,385.51c-23.79-8.87,75.16-14,79.6-14.38,13.38,9.88-29.78,6.29-34.55,8.58C398.25,381,383.08,383.43,368.27,385.51Z"/><path class="cls-2" d="M362.78,452.18c-5.84-2.89,1.43-28.63.25-36.13.49-3.42,2.05-51.56,8.28-33.42-2.41,21.57-3.12,43.31-5.4,64.91C365.83,449.49,365.54,452.83,362.78,452.18Z"/><path class="cls-2" d="M443.67,448c-3.47-1.12-2.48-5.29-2.16-8.06,1.69-21.07,5-42,5.41-63.19-.28-2.2.67-5.47,3.47-3.93,5.06,20.25-1.86,44.16-2.95,65.32C446.56,441.1,448.45,448.44,443.67,448Z"/><path class="cls-2" d="M361.36,452c-2-3.15,1.25-5.34,4.28-4.89,15.55-1.31,31-3.23,46.55-4.13,10.06-.73,20.18-1.25,30.17-2.6,3.29-.19,5,5.53,1.5,6.53-26.32,1.42-52.54,4.15-78.79,6.24C363.8,454.24,362.08,453.23,361.36,452Z"/><path class="cls-2" d="M618.19,429c-4.51-6.93,5-5.63,9.07-6,6.81,1,91.18-10.76,76.81,3.29C675.63,425.38,646,430.48,618.19,429Z"/><path class="cls-2" d="M606,511.48c-1.69-1-2.41-3.74-.91-5.15v0c26.42-3.8,54-2.41,80.7-5.57,4.64.3,4.51,8.27-.58,6.84C659,509.43,632.22,511.52,606,511.48Z"/><path class="cls-2" d="M622,425a3.1,3.1,0,0,1,1.37,5c-4.58,25.06-8,50.27-13.29,75.24-.3,3-.71,6.19-3.64,5.67-6-3.06.14-16.09,0-20.1C609.91,481.69,614.4,422.88,622,425Z"/><path class="cls-2" d="M705.31,421.22c2.13,29-9.62,58.67-13.63,87.47-1.14,6.81-9.95-.05-5-3.7,3.8-23.44,8.52-46.73,12.82-70.12C701,431.35,698.29,415.74,705.31,421.22Z"/><path class="cls-2" d="M878,750.77c-5.33-15.72-26-9.62-38.7-9.84,2.56-32.72,4.91-65.49,3.45-98.25,8.2-.16,4.59-13.92,7-19.88C854.93,576.93,859,531,862.85,485c2.95-30.42,3.31-61,3.27-91.55.41-23.79,1.14-48.27-7.75-70.84-15.5-44.24-86.82-26.74-123.73-30.52-24.07.1-48.25-2.63-72-6.28,1.15-2.3,2.3-4.59,3.39-6.91,2-3.41,3.22-7.6,4.85-11.35,29.11,18.7,71,11.41,89.69-18.55,17.68-24.46,35.88-49,47.85-77,0,0,0,0,0,0s-.22-.22-.32-.32a13.26,13.26,0,0,1-3.19-5.11c-.75,1.59-1.46,3.15-2.2,4.72-9.09-7.06-15.66-17.57-25.84-23-14.62-5.84-6.24,13.23,0,17.11,7.68,4.78,13.9,10.8,20.63,17-2.47,4.83-5.22,9.52-8,14.19-.69-2.53-.87-6-3.4-7.32-5.94-9.09-17.83-13.19-28.34-12.12-21.59,4.35-2,48.14,19.39,38.6-25.87,42.42-52.68,75.65-105.44,46.63-6.36-4.33-7.76,9.81-10.6,13.35-1.38,4.16-12.12,20.66-13.88,29.43-26.06,26.81-58.88,46.64-88,70a9.31,9.31,0,0,0-3.6-2.4c-26-33.74-52-67.63-77.24-101.89a2.72,2.72,0,0,0-.77-1.92c16.83-26.2,39.77-48.8,55-76,.05-.1.11-.2.17-.3-1.8-.19-3.6-.41-5.4-.69l-.08.14c-16.66,26.32-38.82,48.68-54.86,75.21C412.78,279.85,320,240.86,290.81,313.66c-37.35,117.83-66.6,238.08-96.29,358,0,5.75-11.07,31.65-.67,30.2,1.76.88,3.52,1.67,5.33,2.4C189.1,760.49,178.72,816,162.36,870.78c-20.16,2.22-51.47-12.65-55.87,16.76-.43,4.43-1.13,15.82-1,28,.06,5.5.3,11.17.79,16.44,1.15,12.14,3.73,22.12,8.94,23,7.94,1.7,9.84-8.66,11.15-14.38,7.42,33.53,21.84-.77,23.66-16,7.51,43.45,28,18.64,28.58-10.36,20.93,12.54,56.2,17.85,67-8.55a38.61,38.61,0,0,0,1.42-4.18q4.67-11.21,8.6-22.66c17.17-49.71,25-102.32,32.42-154.19,9.74,6.32,7.24-9.73,10.47-15,13.21-57,27.77-113.62,42.09-170.36q-8.11,59.44-11.71,119.3c.81,14.18-7.13,28.2,13.33,27.83C336,745.24,335.47,804.48,331,863.46c0,.45-.12,1-.18,1.5-.63,4.65-1.74,11.86,3.8,11.86a8.81,8.81,0,0,0,1.19-.1C384.76,861,435.46,851.28,485,837.79c2.41.24,3.86-1.86,4.43-4.06a10.15,10.15,0,0,0,.3-1.82c6.54-35.08,15.43-69.71,21.86-104.77,5.81-1.24,12.3-1.36,18.42-1.68q-.42,48-2.91,96.09a9.73,9.73,0,0,0,1,4.93,2.86,2.86,0,0,0,3.05,1.35c13.82-2.12,27.31-5.55,40.8-9.07,6-1.57,12-3.13,18-4.64,17.07-3.76,34.2-7.26,51.35-10.73q20-4.07,40-8.12a3.11,3.11,0,0,0,2.93-3.11,3.64,3.64,0,0,0,2-1.64c3.11-4.74,1.88-17.59,4-22.5,4.1-29.45,8.63-59.06,8.55-88.86,8.64-1.41,11.15-2.24,12.38-11.39,17.41-73.15,35.11-146.29,50.54-219.92-4.5,56.58-1.74,113.3-5.92,170,1.17,7.68-5.43,32.83,2.28,35.29,1,40.22-5.33,81,3.12,120.68,5.23,17.49,37,8.4,50.27,6-2.46,22.28,11.8,40.13,23.37,11.33,4.81,19.33,17.72,11.76,22.06-2.87C871.88,814.46,882.43,761.74,878,750.77ZM768.8,211.09c8.51-2.28,5-16.46-2.75-17.39-7.67,0-8.54,11.49-3.45,15.49-7.21-4.59-16.65-28.4-1-27.07,12.79,0,30,11.7,19.74,25.15C778.5,210.67,773,211.19,768.8,211.09ZM659.28,292.35c.81.79,2.12,1.18,3,.35,7.43,1.47,14.94,2.24,22.44,3.11-1.52,2.6-3.39,5-5.13,7.45-8.06,12.46-17.31,23.64-25.66,35.94-2.12-1.86-13.79-12.89-18.5-14C648.09,316.53,653.38,305.91,659.28,292.35ZM473.64,274.68a3.55,3.55,0,0,0,1.05.58c5.84,9.11,12.91,17.28,19.05,26.18-13.8,7.32-26.68,17-39.51,25.84-8.75-15.66-18.67-31.74-22.08-49.63C446,277.2,460.07,276.21,473.64,274.68ZM279.38,736.27c-6.22,48.66-15.76,97.5-31.82,143.94-.48,1.35-.93,2.67-1.41,4a73.24,73.24,0,0,1-6,16.1c-13.11,24.68-36.5,19-64.62,5.29-5.61,1-2.46,10.18-4.12,14.4-.2,4-4.73,23.54-10.24,20.87-5.37-9.72-5.52-21.41-7.5-32.14-7.37-21.05-11.45,36-19.12,39-2.71-8.81-5.42-17.74-5-27.07-.73-3.9,2-11.07-2.61-12.89-4.93-.5-2.71,7.13-3.47,10.16-.37,5.68-2.75,28.69-7.34,31l0,.08c-5.8-12.72-4.16-29.43-4.64-43.71-2.73-45.17,26.18-22.22,54.33-27.25a3.46,3.46,0,0,0,1.84-3.94c16.59-54.86,27.58-111.2,37.57-167.58,24.89,6.71,50.48,12,75.92,16.34C280.63,727.32,279.78,731.78,279.38,736.27Zm11-19.11a6.46,6.46,0,0,0-4-1c-30-5.9-61.67-9.84-90.56-20.85,2.14-14.74,6.36-28.9,10.16-43.27a8.93,8.93,0,0,0,3.37,1.32,2,2,0,0,0,1.32-.25c30.14,6.65,60.25,13.3,89.91,21.8C297.34,689.06,294.14,703.18,290.35,717.16ZM704.16,670.8C650,681.71,594.07,682.53,539,685.67c-.63,0-1.28.06-1.92.1l-.69,0c-67.37,2.3-135.08,3.55-201.78-7.52.21-79.22,17.22-157.33,27-235.27-6.89-11.23-8.16,15.9-10.08,19.94C338,531.86,318,599.33,302.16,667.75c-31.18-8.71-62.68-16-94.43-22.42,19.67-81.45,39.69-162.17,64.15-242.44C299.07,290.43,301,265.81,426.21,277.83c1.54,14.54,9.21,26.5,15.66,39.15,2.68,6.1,5.23,12.82,10.9,16.76,3.24,2.1,7.82-3.92,10.91-5.37,11.23-7.35,22.16-15.27,33.94-21.72C512.32,325,526.2,344,540.79,362.51c5.51,6.68,9.63,16.44,18.13,19.57l.45.16c1.07-.7,2.16-1.39,3.23-2.08,24-15.71,47.37-35.06,70.28-52.92,2,6.85,11.77,9.53,16.34,15.09,1.63,1.35,2.95,3.61,5.27,3.71,5.23-1.57,7.23-8.06,10.34-12.1,8.06-12.3,20.12-24,25.72-37.28C873,308.76,867.66,262.24,854.83,498.31c-2.3,25.62-4.06,51.29-7.17,76.84-28.06,3.88-56.24,8.45-83.91,14.61C766,534.53,765.59,479.3,768.4,424c1.37-2.59-1.6-7.38-4.51-5.13C740,498.25,726,589.64,704.16,670.8Zm56.7-24.89c.55-16.32,1.56-32.66,2.49-49,27.81-4.81,55.43-10.45,83.52-14-1.69,17.25-3.07,34.54-5.55,51.71-24.73,5.56-51.87,4.81-76.09,10.89C763.73,645.51,762.14,645.79,760.86,645.91ZM872.25,764.73c-.43,7.8-8.75,39.15-11.46,14.87-.75-3.16.51-18.91-3.76-18.91a4.17,4.17,0,0,0-2.62,1.43c-1.9,11.6.24,27.58-11.21,34.69-7.86-5.76-1.36-38.34-10-30.47-1.54,11.62-1.54,27.07-12.81,34-7.29-5.15,1.44-32.44-8.26-28.46l.14-.12c-12.74,5.25-27.43,5.11-41,5.09-3.78-.37-4.93-4.24-5.62-7.4-5.9-38.36-1.47-77.56-1.5-116.19,1.84-.06,3.8-.22,5-1.09,22.45-2.44,44.87-5,67.45-8.2.77,33.76-2.81,67.87-3,101.59,4.37,5.45,16.57,0,23.27,1.49C872.47,746.25,874.16,749.66,872.25,764.73Z"/><path class="cls-2" d="M483.91,613.48a2542.27,2542.27,0,0,1,20.52-281.77c3.26-1.09,2.88,3.52,2.56,5.54-3.56,31.24-7.55,62.44-10.68,93.72-3.52,58.67-7.94,117.26-10.06,176C485.88,609.53,486.9,614.23,483.91,613.48Z"/><path class="cls-2" d="M852.93,128.21a38.87,38.87,0,0,1,3.26,18c-1.94,26.54-35.72,38.92-47.76,25.79l-.3-.36c-3.82-4.43-5.25-11.6-2.42-21.92-10.18-2.06-14.89-10.18-13.48-21.13-17.31,6.51-36.52-9.53-38.3-26.82-15.09,17.43-43.85,8.6-53.75-10-17.31,16.7-47.18,9.72-65-2.75-6.38,8.43-11.17,17.8-16.22,27.05-3.74,9.09-8.28-10.79-26.08.54-25.51,16.35,11.6,39.88-18.26,63-11,10.64-26.87,15.11-42,13.39a49.34,49.34,0,0,1-5.31-.85,51.09,51.09,0,0,1-9.17-2.87,47.39,47.39,0,0,1-4.44-2.1c-24.38,8.67-36.77-2.54-37.23-18.16-.57-18.88,16.32-44.17,50.6-48.54C514.3,80.9,557.37,40.42,596.42,46c15.73-41.66,80.67-62.72,114-30C748.78-12.06,820.71.32,831.52,51.63c18.36.93,30.52,17.9,34.68,34.44a47,47,0,0,1-8.05,36.34A35.12,35.12,0,0,1,852.93,128.21Z"/><path class="cls-3" d="M497,90.37c-2.08-4.67,3.53-10.55,6-14.38,1.38-2.56,18.49-9.75,14.42-3.25-9.21.45-16.05,7.25-18.84,15.69C500.22,89.55,498.39,91.5,497,90.37Z"/><path class="cls-3" d="M533.33,67.05c-3.5-1.22,1.09-9.59,3.35-10.69,1.48-1.43,7.25-3.64,5,.36-3.43,1.45-6.15,3.48-7,7.3C534.2,65,534.88,67.12,533.33,67.05Z"/><path class="cls-3" d="M624.85,44.86c.82-12.38,20.62-25.7,32.81-26.77,2.83-.62,22.41-2.82,16.56,3-18.94-3.34-38.15,6.24-47.46,23A1.06,1.06,0,0,1,624.85,44.86Z"/><path class="cls-3" d="M666.09,45.14C660,40,680.52,37.76,683.26,40.59c1.21.58,1.08,3-.51,2.77A21.34,21.34,0,0,0,667,44.44.92.92,0,0,1,666.09,45.14Z"/><path class="cls-3" d="M662.76,82.7c-4.87-.9-19-7.63-19.72-12.8a1.15,1.15,0,0,1,2.3-.06C651,75.05,659,80.07,667,79.64c1.72-.18,2.38,2.86.6,3.2A12.77,12.77,0,0,1,662.76,82.7Z"/><path class="cls-3" d="M681.73,74.17c-2.78-.31-10.07-1.14-11.12-4a1.26,1.26,0,0,1,2.34-.91,26.94,26.94,0,0,0,25.78-4.17,1.44,1.44,0,0,1,2.07.58C703.41,70.38,685,74.8,681.73,74.17Z"/><path class="cls-3" d="M544.15,81.69c-2.14-2,2.92-12.14,5.7-12,1.06.17,1.87,1.94.62,2.4C547.07,73.08,547.19,81.79,544.15,81.69Z"/><path class="cls-3" d="M508.78,103c-1.19-2.67,3.36-4.43,3.8-7.16a1,1,0,0,1,1.92-.17C515.21,97.5,510.79,105.1,508.78,103Z"/><path class="cls-3" d="M448.41,143.88c-4.24-5.52,21-25.91,17.68-16.39-6,2-13.82,8.89-15.83,15C451.93,144,449.41,145.59,448.41,143.88Z"/><path class="cls-3" d="M468.34,146.54c-1.34-5.34,15-20,19.5-16,.34,2.52-6.09,2.87-7.81,4.79A30.79,30.79,0,0,0,470,146.06,1,1,0,0,1,468.34,146.54Z"/><path class="cls-3" d="M491,149.23c-2.72-2.66,5.86-4,7.12-6.32,1.46-1.72,6.16-5.08,4.83-.36C500.44,144.8,494.3,149.8,491,149.23Z"/><path class="cls-3" d="M727.76,88.83c-14.77-2.11-18.22-18.68-12.2-11.18,4.58,6.88,13.37,9.39,21.24,7.94a1.53,1.53,0,0,1,1.52,1.17C738.48,90.71,730.4,89.13,727.76,88.83Z"/><path class="cls-3" d="M737.29,68.84c-3.57-.79-15.45-3.9-14.7-8.58a1,1,0,0,1,1.73-.22c2.94,3.72,13.59,6.26,18.31,6.25,3.66-.07,6.92-1.49,10.11-2.9C760.93,67,740.23,71.05,737.29,68.84Z"/><path class="cls-3" d="M719.32,666c-1.61-3.78,9-10,11.93-11.46,11.89-6.54,19.9-7.73,33.25-6.18,4.82.19,20.33,4.35,18.06,10.22-12.31-7.94-29-10.6-43.09-4.62-6.65,3-13.67,5.88-18.12,11.8A1.07,1.07,0,0,1,719.32,666Z"/><path class="cls-3" d="M786.32,44.79c-9.44-8.3-19.8-9.83-32-7.52-5.25-5.13,15.26-3.66,17.91-3.63C774.73,33.3,793.66,43.88,786.32,44.79Z"/><path class="cls-3" d="M791.64,113.09c-32.7-1.56-21.79-40.11-20.82-26.79C767.4,113.35,799.23,106.94,791.64,113.09Z"/><path class="cls-3" d="M797,95.41c-5.3-.47-17.38-14.57-13-18.47,3.19,4.57,5.13,11.75,11.33,14.24,1.34.61,2.73,1.11,4.11,1.61C802,94.49,799,96.58,797,95.41Z"/><path class="cls-3" d="M822.41,77.34C816.8,65.8,797.62,64.5,803.06,61.42c8.52.64,18.76,6.66,21.58,15A1.23,1.23,0,0,1,822.41,77.34Z"/><path class="cls-3" d="M854.91,106.79c-1.65-.81-1-3.14-.93-4.59,2.31-13.25-4.32-28.67-17.19-33.86-2.95.49-2-4.3.82-2.69C851.76,69.78,864.28,95.4,854.91,106.79Z"/><path class="cls-3" d="M836.57,114.79c-2.32-.82-.79-4.26-1-6.11a19.64,19.64,0,0,0-2.39-9.57c-4.4-7.89,1.82-4.18,3.23.85C837.88,103.39,840.5,112.92,836.57,114.79Z"/><path class="cls-3" d="M809.47,137.66c-8.25-2.76-12.34-21.44-3-25.06,3.95,2.67-8.89,7.08,1.62,20.47C809.36,134.15,812.89,137,809.47,137.66Z"/><path class="cls-3" d="M828.55,124.19c-3.87-1.12-7.54-5.16-7.31-9.33a1.37,1.37,0,1,1,2.42,1C823.38,119.14,833.56,122.32,828.55,124.19Z"/><path class="cls-3" d="M819.8,161c-6.57-.49-7.08-19-2.65-13.48,0,2.58-.64,5.31.78,7.69C818.53,156.89,823.52,160.12,819.8,161Z"/><path class="cls-3" d="M841.38,148.11c-3.2-1-1.07-5.76-3.11-7.92-1.08-.65-1.92-2.57-.26-3.07C841.32,137.06,845,147.17,841.38,148.11Z"/><path class="cls-3" d="M385.35,643.88c-2.67.6-2.89-3.49,0-2.38a272.31,272.31,0,0,0,51.46-7C444.65,639.69,389.86,644.06,385.35,643.88Z"/><path class="cls-3" d="M404.77,629.72c-1.36-4.7,14-2.36,17.09-3.4,3.65.75,11.89-3.68,13.75-1.29C435.17,629.94,409,629,404.77,629.72Z"/><path class="cls-3" d="M495.72,632.57c-11.38-2.54,41.31-8.76,44-9.37,1.34-.1,1.87,2.23.46,2.5C525.19,626.89,510.58,631.1,495.72,632.57Z"/><path class="cls-3" d="M535.21,647.34c-9.25-.26-18.37-2.25-27.6-2.63a1.14,1.14,0,0,1-1.64-1.17c1.22-2.31,5.39-.4,7.62-.65,9.66,1,19.36,2.73,29.07,1.5C547.59,647.56,537.09,647.4,535.21,647.34Z"/><path class="cls-3" d="M419.07,673.81c.54-4.21,11.05-7.46,14-11.86,1.25-1.09,6.24-5.86,7.36-3.16a1.09,1.09,0,0,1-.56,1.4C434.27,662.16,424.65,675,419.07,673.81Z"/><path class="cls-3" d="M534.4,678.2c-7.68-1.68-26.74-.12-30.74-6,10.08,1,21.68,3.21,32.39,3.52C538.3,676.8,536.3,678.84,534.4,678.2Z"/></g></g></svg>