<svg xmlns="http://www.w3.org/2000/svg" viewBox="0 0 1810.54 1232.03"><defs><style>.cls-1{fill:#fff;}.cls-2{fill:#f7941d;}.cls-3{fill:#020001;}.cls-4{fill:#231f20;}</style></defs><title>imagen 2</title><g id="Capa_2" data-name="Capa 2"><g id="Capa_1-2" data-name="Capa 1"><path class="cls-1" d="M1394.37,159.4c.27-5.14,8.27-2.66,11.62-5.22,4.93-1.93,9.8-4,14.74-5.93h0c2.08-1.2,5-.95,5.56,1.74.31,8.15-15.92,7.59-21.71,10.14h.07l-.08,0a.55.55,0,0,0-.17.05h0C1401.45,160.38,1395.42,163.47,1394.37,159.4Z"/><path class="cls-1" d="M1400.24,93.11c-.36-5.27,24.11-2.43,28-1.33,4.39,1.34,1.89,8.58-2.34,7.47-7.86-2.1-15.67-4.51-23.78-5.46A1.14,1.14,0,0,1,1400.24,93.11Z"/><path class="cls-1" d="M1441.84,16.48c9.76,3.87,17.91,11.86,25.56,18.94,3.32,3.19-1.39,9.63-5.19,6.41-6.4-6.36-11.78-13.76-18.49-19.85C1442.79,30.06,1435.82,16.05,1441.84,16.48Z"/><path class="cls-1" d="M1565.76,5c1.16-1.52.65-4.4,2.71-5a1.49,1.49,0,0,1,1.68,1.63c-.94,5.07-4,9.53-5,14.63-.65,2.64-.58,7.18-4.35,7C1554.05,19.84,1564.24,9.76,1565.76,5Z"/><path class="cls-1" d="M1578.72,165.27c5.09,4,11.52,8,17.16,12.13,3.74,2.64-.71,9.35-4.39,6.22C1589.48,179.82,1571.78,168.18,1578.72,165.27Z"/><path class="cls-1" d="M1595.6,73.18c-.17-4.77,6-4.71,9.3-6.21,7.6-2.15,14.72-6.07,22.52-7.35,5.36,0,4.67,8.51-.11,9.05C1621.46,67.81,1595,80.27,1595.6,73.18Z"/><path class="cls-1" d="M1593.14,132.45c-1.07-6.26,5.2-3.69,8.57-2.5,7,3.57,31.62-1.35,28.31,10.82-1,2.32-3.7,3.83-6.09,2.82C1614.24,138.81,1601.74,138.68,1593.14,132.45Z"/><path class="cls-2" d="M1506.36,625.67l0-.38c.07-.63.15-1.25.23-1.87C1506.54,624.15,1506.45,624.91,1506.36,625.67Zm193-103.85c0,.23.06.46.11.69-5-50-52.9-39.26-89-35.75,5.42-8.94,11.66-25.69-.81-31.46-9.4-1.87-19,2-28.44,2.37-3.51.71-8,.08-11.8.84a7.87,7.87,0,0,0-6.08,4.41c-1.61,7.19-3.3,15.07-1.7,22.4-.65.69-1.31,1.37-2,2.06-33.71,34.57-81.42,52-115.86,86-2-20.23-6.87-40-9.28-60.2-.14-1.18-.29-2.38-.41-3.58,5-.58,8.63-1.72,11.17-3.39a10.81,10.81,0,0,0,4.43-5.53c1.77-4.91.58-11.58-1.13-19.59a5.3,5.3,0,0,0-1.73-1.42c-5.68-3-18,1.66-23.83,1.79-16.68-.26-21.38,7.2-22.17,23.17-17.36,2.9-35,4.56-51.91,9.48-30.49,12.23-53.75,39.15-65.23,69.56-10.44,30.49-17,62.31-31,91.46-9.71,22.15-19.54,45.1-35.55,63.49-11.95,12.94-27.1,21.22-43.19,27.71v0c-13.73,5.54-28.14,9.82-41.82,14.63-26.93,7.68-60.48,38.12-33.93,64.76,22.53,19.52,62,19,101.26,7.79,47.91-13.75,95.37-43.6,110.88-72.74-7.13,27.14,1.65,55.55-7.56,82.23-4.36,19.06-8.38,38.16-12.51,57.27a7.49,7.49,0,0,1,0,1.05c-.54,6.72-6.7,18.58.13,22a9.12,9.12,0,0,0,2,.66c23.89-1.16,47.79-1.11,71.68-1,9.71,0,19.43.13,29.15.15h11.71c50.52-4.69,101.56-1.12,152-7h0c12.4-.12,24.46-4.56,36.8-3.83a4.93,4.93,0,0,0,5.59-2.68c1.7-3.08,1.8-8,2.6-11.08,11.75-47,23-94.06,32.81-141.51,0-.19.08-.38.13-.56.23-1,.47-2,.7-3h0a.83.83,0,0,0,0-.15c5.54-27,17.09-52.39,20.36-79.9C1682.43,641.2,1706.44,581.5,1699.32,521.82ZM1473.7,569.41c2.17-2.2,3.94-5.69,5.38-8,2-.61,3.13,1,4.67,1.82a4.2,4.2,0,0,0,1.79.05h0a3.8,3.8,0,0,0,1.3-.53c3-1.86,4.53-7.38,8.56-7.65a5,5,0,0,1,.86,0c0,.4,0,.79,0,1.18h0a43.45,43.45,0,0,1-.27,4.71c0,.07,0,.14,0,.21s0-.11,0-.16c-.51,2.13.24,4.91,2.58,5.38h.05l.31,0c3.61,0,5.42-4.13,8.77-5.14,6.51,7.48-.92,18.55-2.77,26.79-5.38,15.81-8.21,32.43-10,49l-3.89,1.74c-15.7,6.9-31.89,12.9-46.41,22-1.65,1-3.29,2.13-4.89,3.26a.46.46,0,0,0-.13.08c0-.29,0-.6,0-.88,0,0,0,0,0,0a66.45,66.45,0,0,1,.24-10.17.71.71,0,0,0,0-.15c1.6-19.06,9.14-37,16.23-54.6,4.12-9.42,4.66-20,9.51-29.17,3.06,3.16,5.66,2.41,7.87.29Zm147.48,217.53c-.24,1.06-.48,2.12-.73,3.18.25-1.09.5-2.19.74-3.28A.34.34,0,0,1,1621.18,786.94Z"/><path class="cls-2" d="M512.69,559.8c0,.33,0,.65,0,1-.31,6.57-3.72,12.91-5.35,19.26a5.43,5.43,0,0,1-.23.88,6.59,6.59,0,0,1-3.35,3.91,3.88,3.88,0,0,1-2.67.22,4.18,4.18,0,0,1-1.12-.52,5.43,5.43,0,0,1-2.09-4.1,3.89,3.89,0,0,1-2.58-.12,4.6,4.6,0,0,1-1.28-.77c-7.05-5.85-6.27-34.13,4.86-27.48,4.59-2.75,10,1.28,10.39,6.19.82-1.25,3-1.22,3.41.29C512.68,559,512.69,559.38,512.69,559.8Z"/><path class="cls-2" d="M550.05,373.71a18.17,18.17,0,0,0-2.93-2.6,30.79,30.79,0,0,0-6.13-3.35c-1.72-.73-3.47-1.36-5.17-1.93-14.48-9.19-25-16.35-38.51-18.66-6.74-1.14-14.21-1.08-23.3.52-42.64-3.26-112.08,50.79-126.93,89.45-4.07,10.54-6.41,21.66-8.49,32.72-1.73,15.86-4.6,37.23-24.62,38.06-9.88,1.25-21.09-.83-29.66,5.24l-.26.19-.22.16c-12.05,8-18.85,22.2-20.45,36.34.47,47.92-56.58,24.44-79.46,85.93-5.91,13.46-3.85,28.16-4.57,42.38-6.17,37.18-48.57,17-29.2,84.33,3.35,22-22.24,32.5-27.34,52-11.66,29.56-1,67.1,30.09,79.22,17.17,6,33.71-2.7,44.48-16a59.48,59.48,0,0,0,7.61-12,83.64,83.64,0,0,0,3.77-8.46c8.56-22.22,8.42-47.21,11.59-70.71h0l.36-2.55c5-35.45,12.21-70.77,22.54-105.07,2.8-8.46,5.68-17.69,9.06-26.87,6.62-18,15.16-35.75,28.82-47.28,17.86-12.6,40.27-4.69,60.3-5,47.88-1.43,62.47-41.78,71.16-83.43,4.09-19.59,6.87-39.46,11.19-55.72,4.35-11.38,8.8-22.77,13.6-34,2.21-5.16,4.5-10.29,6.89-15.35,6.38-6.7,14.72-11.05,21.23-17.64h0l0,0,.08-.06c.09-.08.17-.17.26-.24l0,0c12.4-13.12,27-23.27,46-20.38h.23c6.22.43,12.55.11,18.41,2.6,4.12.76,8.85,3.38,12.95,1.88a5.43,5.43,0,0,0,3.11,1.15C549.15,378.68,551.31,376.91,550.05,373.71Zm-46.58-17.08c4.09,2.09,12.12,4.69,13.42,8.12-2.58-.58-5.18-1-7.8-1.35-.51-3-3.37-5-5.62-6.75Z"/><path class="cls-2" d="M488.91,492.11c-5.9-1.25-15.2-2.14-16.45-9.36-.21-3.73,1-8.71,5.59-8.7C498.73,463.43,526.7,498.06,488.91,492.11Z"/><path class="cls-2" d="M552.22,506.5c-4.14-1.38-9-3.19-11.63-6.82-3-5.55-.3-11.82,6.52-11.05C556.05,488,563.89,505.11,552.22,506.5Z"/><path class="cls-2" d="M1422.46,407.24c-9.79-3.28-3.7-16.19,4.74-16,5.88-1.83,15,2.6,15.26,9.08C1441.09,408.54,1428.9,409.49,1422.46,407.24Z"/><path class="cls-2" d="M1491.54,404c-24-5.5-14.81-20.72,5.49-20.47,9.86-1.92,40.34,6.52,22.73,18.48C1511,406.25,1500.85,406,1491.54,404Z"/><path class="cls-2" d="M1555,102.57c-7.6-35.39-73.71-36-77.53,2.08-3,23,16.63,31.17,18.7,46.26-1,8.93-2.52,18.17-1.22,27.12,0,.15,0,.29.07.45.66,1.19,2.07.79,2.7-.17h0a4,4,0,0,0,.41-1c.9.19,1.77.34,2.61.5a55.58,55.58,0,0,0,9.43,1c4.08,0,6.61-.84,8.25-2.41,4.63-4.43,2.17-14.64,6.9-27.85C1535.2,129.85,1560.34,139.75,1555,102.57Zm-8.4,18.82c-18.74,20.79-25.42,7.36-31.56,44.43h0c-.41,1.71-.84,3.41-1.23,5.12a26,26,0,0,1-4.91-.61c-1.17-.24-2.33-.52-3.48-.78a34.22,34.22,0,0,0-5.66-.91c.93-8.68,6-17.39,3.2-26.11-9.7-17.15-31.11-40.32-4.49-54.42C1520.38,77.17,1557.52,93.49,1546.63,121.39Z"/><path class="cls-2" d="M1507.41,173.66c-4.82-.21.59-26,.18-30.91v.05c0-.16,0-.31.05-.46v0c.06-.54.12-1.09.17-1.63v.06c0-.16,0-.31,0-.47v0c.64-6.92,1.68-13.9.61-20.84-.39-4.51-2.26-9.39,0-13.69,2-5.21,9.2-6.56,10.93-.44,16.07-8.65,1.07,30.17,0,36.05,0-.12.06-.23.08-.35-1.93,3.73-3.52,34-10.11,27-.14.78-.27,1.56-.37,2.35a2,2,0,0,1-1.41,3.21h-.09Zm5-24.74c-.71,4.28-1.32,8.57-2,12.85,2.74-17.44,10.08-34.3,11.51-51.77-3.19,4.62-6.91,3.5-7.87-1.8a5.17,5.17,0,0,0-.08,3l-.07-.48c1.17,7,2,14.15,1,21.22,0-.16,0-.33,0-.49C1514.33,137.32,1513.37,143.12,1512.41,148.92Z"/><path class="cls-2" d="M1404.59,160.13h.07l-.08,0a.55.55,0,0,0-.17.05h0c-2.94.19-9,3.28-10-.79.27-5.14,8.27-2.66,11.62-5.22,4.93-1.93,9.8-4,14.74-5.93h0c2.08-1.2,5-.95,5.56,1.74C1426.61,158.14,1410.38,157.58,1404.59,160.13Z"/><path class="cls-2" d="M1425.94,99.25c-7.86-2.1-15.67-4.51-23.78-5.46a1.14,1.14,0,0,1-1.92-.68c-.36-5.27,24.11-2.43,28-1.33C1432.67,93.12,1430.17,100.36,1425.94,99.25Z"/><path class="cls-2" d="M1462.21,41.83c-6.4-6.36-11.78-13.76-18.49-19.85-.93,8.08-7.9-5.93-1.88-5.5,9.76,3.87,17.91,11.86,25.56,18.94C1470.72,38.61,1466,45.05,1462.21,41.83Z"/><path class="cls-2" d="M1570.15,1.65c-.94,5.07-4,9.53-5,14.63-.65,2.64-.58,7.18-4.35,7-6.78-3.4,3.41-13.48,4.93-18.21,1.16-1.52.65-4.4,2.71-5A1.49,1.49,0,0,1,1570.15,1.65Z"/><path class="cls-2" d="M1627.31,68.67c-5.85-.86-32.29,11.6-31.71,4.51-.17-4.77,6-4.71,9.3-6.21,7.6-2.15,14.72-6.07,22.52-7.35C1632.78,59.59,1632.09,68.13,1627.31,68.67Z"/><path class="cls-2" d="M1630,140.77c-1,2.32-3.7,3.83-6.09,2.82-9.69-4.78-22.19-4.91-30.79-11.14-1.07-6.26,5.2-3.69,8.57-2.5C1608.67,133.52,1633.33,128.6,1630,140.77Z"/><path class="cls-2" d="M1591.49,183.62c-2-3.8-19.71-15.44-12.77-18.35,5.09,4,11.52,8,17.16,12.13C1599.62,180,1595.17,186.75,1591.49,183.62Z"/><path class="cls-3" d="M1518.47,174.58c-3.63-4.71-7.3,0-8.26,4.24a9.11,9.11,0,0,0-.24,2l.09-.33a4.59,4.59,0,0,0-.13.56s0,0,0,0h0c-2,5.59-2.19,15.41-9,16.94-4-2.51-.34-14.55-.1-20.19,0-.33,0-.63,0-.91,1.86-1.32.56-5.08-1.73-4.83-1.35.83-2.79,3-4.08,6-4,9.12-6.58,25.2-.4,27.92,15.78,7.15,23.51-17,23.88-29.54C1518.49,175.77,1518.49,175.15,1518.47,174.58ZM1501,198.05h0Z"/><path d="M1799.66,933.45a63.28,63.28,0,0,1-6.77,1.53c-14.55,2.49-30.5.69-45.24,2.06q-143.6,2.22-287,9.81c-88.05,3.68-176.29,6.51-264,15.09-135.57,15.63-272.31,13.7-408.4,20.32H788q-4.42.47-8.86.84c-44.18,3.84-88.69,2.66-132.74,8-61.71,8.3-124.07,7.81-186.11,11.79l.63-.06-22.9,1.62h.29c-16.46,1.31-32.91,2.84-49.35,4.42-15.45,1.49-30.9,3-46.35,4.44-14.42,1.33-28.85,2.57-43.28,3.62l-4.11.3q-11.64.82-23.3,1.44c-53.65-1.33-107,5.15-160.57,5.8l-5.39,0h-.16q-8.16.69-16.31,1.51c-27.09,2.71-54.1,6.41-81.08,9.86-1.33.18-2.66.36-4,.52l-1.48.19-2.11.27c-2.2-1,.12-2.23,4.66-3.57.66-.2,1.38-.4,2.13-.6,12.71-3.38,37-7.09,39.23-7.87,39.51-7.56,79.43-9.63,119.51-10.65,40.12-4.55,80.33-4.83,120.62-5.62l6-.61c2.79-.3,5.56-.58,8.35-.86q41.4-4.25,82.88-7.92c65.09-5.75,130.28-10.24,195.63-12.47,28.79-1.8,57.43-5.27,86.08-8.53,38.92-2.2,77.86-3.76,116.77-6.29q15.28-1,30.56-2.21c61.13-1.71,122.28-2.82,183.39-5.41q25.55-1.07,51.07-2.54c67.21-1.1,133.82-10,200.67-16q21-1.25,41.89-2.41,56.13-3.15,112.25-5.78,98.34-4.66,196.73-7.94,93.57-3.2,187.19-5.38c2.4.19,5-.37,7.48-.56a9.48,9.48,0,0,1,6.35,1.25C1802.69,927.21,1802.06,931.35,1799.66,933.45Z"/><path d="M1165.59,1229.24a4.41,4.41,0,0,1-2.46.73c-63.4-3.58-124.8-22.38-185.47-40-75.08-26.6-152.21-51.27-232.58-52.67-43-1.9-86.25-2.66-129.12,2.28l.58,0c-37.41,4-74.88,8.94-111.38,18.31l-.37.09c-106.58,23.89-212.78,71.17-323.93,54.92-64.56-6.31-134.79-33.3-165.18-94.48-7.45-19-10.08-39.52-11.08-59.92h0c-.28-5.39-.43-10.78-.53-16.12.18-1.36.08-3.84.36-6,.05-.31.09-.62.16-.91a4.94,4.94,0,0,1,.91-2.2,1.94,1.94,0,0,1,2.13-.6l.28.07c.06.3.12.59.17.9.14.74.25,1.48.35,2.22.23,1.68.41,3.37.54,5.08.46,5.28.68,10.71,1.86,15.86,0-.17,0-.32-.07-.47,1.42,8.43,2.75,16.88,4.1,25.33,2.47,14.6,6.17,29.48,14.26,42l.06.07c35.21,54,100,76.09,161.73,81,102.62,13.16,200.56-30.68,298.9-52.89,95.61-25.57,195.65-30,294-21.81,84.21,6.41,161.74,42.28,242.46,63.7,27.84,6.85,55.26,15.5,83.65,19.78a354.16,354.16,0,0,0,53.39,6.77,3.86,3.86,0,0,1,4.3,3.15A5.52,5.52,0,0,1,1165.59,1229.24Z"/><path d="M1775.91,1022.16c-28.58,25.19-66.46,34.43-102.79,42.5a622.43,622.43,0,0,1-79.06,12.36c-40.24,5.58-81.81,7.9-120,22.57-38.76,14.66-71.55,40.67-105.66,63.55-31.17,21.21-63.88,40.28-99.08,54-20,7.91-41.27,11.93-62.54,14.43a82.46,82.46,0,0,1-14.4.21c-2.4-.27-16.31-1-26.74-2.57-9.23-1.43-15.72-3.6-9.09-6.87,3.68.46,7.38.82,11.07,1.08,48.13,3.46,96-9.35,137.81-33.48,61-29.94,110.12-81.29,175.25-103.18,37.54-12.15,77.47-14.58,116.4-19.77,31.12-2.78,61.77-8.71,92.14-15.9,29.17-7.28,58.89-16.24,81.59-36.88,19.78-20.19,34.77-49,27.11-77.67a33.39,33.39,0,0,1-5-1.59c-2.83-1.27-4.94-3.28-3.72-7.08a5.62,5.62,0,0,1,4.79-4.27,10.35,10.35,0,0,1,3.23.06l.49.1a19.54,19.54,0,0,1,7.46,3.31C1820.85,959.75,1799.57,998.74,1775.91,1022.16Z"/><path d="M385.9,1006.3c-3,2.48-11.07,2.37-14.44,3.08q-14.4,2.16-28.83,3.91c-43.49,5.29-87.16,8.06-130.92,10.64l.15,0-.54.06h.07c-14.94,1.63-29.87,3.3-44.81,4.88h-.07l-1,.1-1.18.12c-45.66,6-91.65,7.45-137.65,9.58-5.82.91-12,.59-17.68,2.29a21.53,21.53,0,0,0-2.05.7c2,7.06,1,14.4,2,21.56,5.9-.29-2.09,7.72-3.51.18a27.68,27.68,0,0,0-.8-4.9h0c-1.79-7.57-5.64-17.69-2.41-21.32.25-.2.49-.39.76-.58a19.55,19.55,0,0,1,1.64-1.1,26.31,26.31,0,0,1,3.49-1.83c11-4.81,25.61-3.72,37-5.72,14.83-.31,29.63-1,44.41-1.92q11-.69,21.86-1.56c19.63-1.55,39.22-3.48,58.8-5.55l5.6-.58,1.72-.18c8.25-.84,16.52-1.6,24.79-2.41,30.2-2.84,60.58-3.3,90.87-5.08,2.6-.16,5.22-.32,7.83-.5l-.47.06,1-.1c7.16-.72,14.29-1.79,21.46-2.5h-.19c10.07-1,20-3.08,30.07-4,10.46-.28,21.23-3.58,31.52-3.16l1.22.06C387.6,1003.31,387.34,1005.1,385.9,1006.3Z"/><path d="M535.05,504.31c-5.26,1.35-21.19-11.27-16.25-15.92a2,2,0,0,1,3,.78c3,4,6.09,9.71,11.66,10-2.22-11.59-4.91-23.34-4.8-35.2,0,.12,0,.23,0,.35.45-2.84-.85-10.82,3.81-9.59a2,2,0,0,1,.45,2.78,82.27,82.27,0,0,0,.35,9.68C532.49,473.38,544,505.65,535.05,504.31Z"/><path d="M508.22,532.42c-3.38-.5-6.48-19.71-1.64-16.85h0c4.56,11.39,3.31,17,13.76,4.61a1.83,1.83,0,0,1,2.73-.15C525.13,524,512.63,535.85,508.22,532.42Z"/><path d="M485.44,466.77c-8.53,1.68-21.34-24.41-13.74-21.32v0c6.06,13.51,21.78,21.95,32.06,7.36a2.55,2.55,0,0,1,3.64-.78C511.83,459.19,491.76,469.19,485.44,466.77Z"/><path d="M469.25,469.79c-.69-3.94,5.6-5.25,6.73-9,.73-1,.31-2.43,1.37-3.2a1.56,1.56,0,0,1,2.53,1v0a1.11,1.11,0,0,1,0,.19v0s0,.1,0,.16h0C480.08,462.6,473.09,473.3,469.25,469.79Z"/><path d="M475.9,473.6c-1.7-3.43,3.55-4.57,4.86-7.09,1.22-1.39,1.6-3.24,2.52-4.78,1.47-1.69,3.7.42,2.6,2.14C484.64,467.57,480.55,476.24,475.9,473.6Z"/><path d="M484,478c-3.41-4.07,3.71-7.62,4.74-11.44,1.23-1.88,0-4.82,2.25-6l-.14.09C499.19,458.12,488.84,481.85,484,478Z"/><path d="M526.51,441.08c-8.16-19.59-34.12-20.38-52.21-17.23-.32.61-1.21.33-1.7.08-1.3-3,6.53-3.91,8.45-5.33,10.23-3.12,21.06-1.93,31,1.6C523.47,421,537.49,445.33,526.51,441.08Z"/><path d="M559.49,512.33a223.87,223.87,0,0,1-9.59,30.75c.07-.17.14-.32.2-.48-5.48,17.56-21.77,21-37.44,18.17a67.45,67.45,0,0,1-17.81-6c-.11,8.28.1,16.54.4,24.81,0,.24,0,.48,0,.71.07,1.86.13,3.71.21,5.57,0,.14,0,.27,0,.4,0,4.07-6.21,6-7.08,1.24a349.27,349.27,0,0,1-.14-36.18c.4-8.62,8.82-3.7,13.56-1.51,8.17,3.33,17,6,25.89,5,16.64-.51,21.88-26.52,25.35-48.42.74-4.79,1.42-9.38,2.11-13.46a91.33,91.33,0,0,1,2.23-10.52,8.36,8.36,0,0,1-1.9.4c2,9.93-6.58,9.28-2.84-.12a12.72,12.72,0,0,1-5.48-2.61c.17,2.11,2,9.87-2.22,7.3-.7-2.74,1.23-5.69.79-8.58a23,23,0,0,1-6-10.72c-1.15-.32-2.27-6.5-.6-6.48,5.36,4.45,10.28,18.17,19.58,13.51,1.6-9.22,3.43-18.43,4.26-27.78-4.19-.69-8.55-1.63-12.79-.93-2,.2-5.14,2.48-6.18-.25-4.39-1.05,4.43-5.52,6-5.9a21.87,21.87,0,0,1,13.73-1.17c4.26-22.61,1.07-47.76-17.13-60.5A44.26,44.26,0,0,0,531.82,372l-.07,0h0l-.84-.2a2.13,2.13,0,0,1-3.19-2.09c-39.52-12-80.24,18.74-91.71,56.07l1.37.9c39.17,26.64,17.83,91-24.79,89.69a48.67,48.67,0,0,1-17.42-4c-43.3-19.92-26.05-94.84,23-90.79,3.26-24.84,18.43-47.52,39-61.65a81.08,81.08,0,0,1,40.14-12.74c17.28-.62,34,5.13,43.68,20.59.24.38.49.78.72,1.17,1.9.68,3.71,1.4,5.41,2.18,32.81,15.1,30.19,51.59,24.6,83.22C593.78,466.66,582.18,508.2,559.49,512.33Z"/><path d="M591.52,642.09c.34,74.17-11.11,147.54-24.06,220.37l-.36,2c0-.19,0-.36.08-.55-1.92,5.35.19,18.16-6,19.84-2.94-.07-3.08-4.2-2.44-9.06.75-5.59,2.54-12.15,2.31-14.58,3.69-22.5,6.52-45.11,10.53-67.56,6.13-56.07,13.78-112.89,8.69-169.31,2.14-45.15-43.62-28.36-74.76-34a51.08,51.08,0,0,1-6.53-1.63,36.21,36.21,0,0,1-3.43-1.31,29.06,29.06,0,0,1-5.21-2.9,5.67,5.67,0,0,1-.12-1.1c0-2.1,1.63-2.74,3.82-2.74.41,0,.83,0,1.26.06,3.06.26,6.7,1.31,8.53,1.25,1.1,0,2.2.07,3.3.07,6.91,0,13.82-.65,20.75-.82C583,575.55,589.41,590.47,591.52,642.09Z"/><path d="M874.5,738c.42-3.41,1.22-8.94-3.4-9.6-9.38-1.24-18.93-.3-28.38-1-54.61-5.39-113.15-.64-168.9,1.91l-3.12.24s0,0,0,0l-.36,0c-9.94.42-19.72,2.21-29.59,3.21-1.24-5.81-6.7,3-7.3,5.06-10.14,23.38-18.49,48.13-26,73.08-1.91,6.38-3.77,12.79-5.59,19.18-3.64,12.8-7.12,25.58-10.56,38.18C584.11,893.13,576.4,918,569.57,943c-1.06,3.93-2.12,7.86-3.13,11.8q-1.8,6.87-3.46,13.76-25.41,1.06-50.76,3.26l-7.09.64c-25.87,2.35-51.7,5.49-77.41,9.12-13.56,2.21-27.71,2.26-41.08,4.26-1.85,1.28-2.79,7.66-2.39,13.28,0,.45.06.89.12,1.32a16.23,16.23,0,0,0,1.53,5.83,2.89,2.89,0,0,0,2.58,1.85,3.87,3.87,0,0,0,.5.7,3,3,0,0,0,2.2,1c77.59-4.42,155.14-10.76,232.8-14.33h.23c5.15-.12,10.3-.22,15.45-.38,1.5,0,3-.09,4.51-.15,42.65-2.91,85.8-2.69,128.08-9.17,1.51,1.83,4.41,1.11,5.5-.87.61.68,1.67,0,2.43-.07,1.44-.61.28-2.08-.9-1.27a1.26,1.26,0,0,0-.12-.49,1.59,1.59,0,0,0-.42-.56q1.89-5.38,4-10.69c1.67-4.28,3.44-8.53,5.24-12.77C810.42,904.75,834.39,851,855.06,796c4.59-13.8,10.63-27,15.92-40.51C872,750,877.43,743.29,874.5,738Z"/><path d="M512.36,886.2c-.27-20.63,4.34-42.52,7.38-63.3.35-6.66,5-10.83,9.79-14.81,24.28-22.1,21.56-48.78,12.94-77.54-2.79-4.14-5.29-46.67,4.09-37.28l0,0c.79,54,35.74,81.32-17.86,127.48-3,16.38-4.89,32.93-7.75,49.33C519.48,874.73,520.55,891.45,512.36,886.2Z"/><path d="M524.33,915.83c4.4,6.51,3.29,21.91-7.54,16,1.31,8.23-1,13.15-5.33,12.9-2.09-.12-4.64-1.44-7.51-4.17-.38-.36-.77-.74-1.16-1.16.61,4.52,1.48,15.71-5.68,14.21-5.59-2-8.32-8.11-14.08-10.09-14.67-5.93-31.45-1.81-46.27,1.76l.49-.13c-16,4-32,7.7-48,11.92a.19.19,0,0,1,.09,0c-29.45,8.53-58.6,18-87.8,27.32L294,986.74l-.64.19c-23.42,6.94-47,21.05-72.1,16.5-47.93-14.11-27.56-83.38-24.56-120l.66-5.65c3.84-32.59,7.66-65.21,14.84-97.27.29-1.38.58-2.78.88-4.16l.06-.32c.05-.19.08-.39.12-.57,7.1-34.71,15.39-69.15,24.28-103.43,8.28-27,13.63-58.94,38.5-76,2.17-3,26.54-8.58,18.23-1.68-17.54,1.91-28,18.71-34.21,33.67-2.86,7.92-5.41,15.93-7.77,24-8.29,28.52-14,57.82-21.44,86.55-3.71,15.93-7.27,31.92-10.52,47.94h0c-4.74,23.42-8.79,47-11.59,70.71q-.78,6.62-1.42,13.27c-2.51,33.59-25.78,105.74,11.16,124.82l.31.1-.13,0,.72.24-.06,0c9,2.92,18.59,1.85,27.51-.8l.16,0c51.46-16.2,102-35.68,154.29-49.32,2.88-.81,5.79-1.56,8.69-2.29,2.73-.67,5.46-1.32,8.2-2,5.1-1.2,10.19-2.36,15.27-3.65,21.29-5.84,49.91-11.07,64.41,10a18.43,18.43,0,0,0-.45-5.73c.41-5.32-8.85-14-.79-16.59,6.15,2,8.6,10,14.62,12.72.77-7.18-4.63-12.54-5.55-19.07,4.44-10.46,10.54,5.33,15.35,7.58a3,3,0,0,0-.06-.9c-1.46-5.77-5.09-10.54-8.26-15.46-2.8-5.91,3.91-8.64,7.84-4.23-16.61-31.12-60.08-25.7-92.49-21.42-2.75.36-5.4.72-7.95,1-1.41.17-2.8.35-4.14.5-37.05,6.24-74,13.3-110.59,21.83-5.48,1.51-10.83,3.43-16.27,5.09a3.73,3.73,0,0,1-3.31-.33c-2.67-1.78-2.68-7.23,1-8.68l1.39-.49c1.82-.61,3.66-1.14,5.49-1.71,1.17-.37,2.34-.75,3.48-1.17,1.51-.42,3-.82,4.53-1.22,35.27-9.44,71.4-15.78,107.37-22,31.93-4.66,67.13-11.66,97.72,1.89a13.3,13.3,0,0,1,5.58,2.9,41.06,41.06,0,0,1,4.74,4.35C526.54,896.43,535.34,913.53,524.33,915.83Z"/><path d="M283.05,912.39c-9.64.71-6.89-9.29-6.07-15.46,1.7-21.24,6.89-42,11-62.87,5.85-28.45,12.56-56.75,21.81-84.3,1.07-3,7.49-24.67,10.66-20.27h0c-9.68,58-29.7,114.73-35.76,173.55C294.19,901.81,291.35,914.39,283.05,912.39Z"/><path class="cls-4" d="M264.63,911.94c-3.81-1-14.86,2.09-12.35-4.8,3.3-4.16,9.13.85,13.53.07C268.87,907.72,267.48,912.57,264.63,911.94Z"/><path class="cls-4" d="M253.75,932.79c-3.21-3.52,8.29-10.7,10.35-14,6.31-1-3.83,7.17-4.7,8.87C257.52,929.12,256.67,933.9,253.75,932.79Z"/><path d="M552.94,698.85c-3.07-2.7,1.58-6,3.07-8.26,2-1.73,2.76-5,5.09-6.06C566.37,683.93,555.45,701.94,552.94,698.85Z"/><path d="M558.82,705.71c-2.27-2.2-.12-5.12,1.82-6.66l-.21.2.28-.27h0c2-1.73,3.95-3.8,6.36-5,3.14-1,3.87,3.93,1.21,5C565,700.7,563.29,708.42,558.82,705.71Z"/><path d="M619.85,802.13c-1.56,2.57-3.23,5.06-4.87,7.6-4.1,6.95-8.51,13.69-13.09,20.31-12.79,18.55-26.86,36.23-39,55.22l.17-.35c-3,4.48-6.43,15.3-13.19,12.8-4.23-2,1.38-12.16,8.78-23,2.81-4.11,5.88-8.33,8.77-12.23,5.42-7.35,10.2-13.61,11.47-16.13,9.2-12,18.55-24.06,28.55-35.47q4.46-5.08,9.1-10C618,798.85,621.44,799.23,619.85,802.13Z"/><path d="M293.5,901c-1.63-27.79,2.8-55.51,2.47-83.31-.12-2.36,2.88-4.6,4.86-2.82,2.29,4.18.08,9.84.19,14.49,2.65,23.31,1.3,46.88.66,70.27h0C301.4,904,294.71,905.9,293.5,901Z"/><path d="M301.51,1010.11c.05.86.11,1.7.19,2.56a4.84,4.84,0,0,1-2.35,4.24,4,4,0,0,1-4.11.3,4,4,0,0,1-1.6-1.91,44.94,44.94,0,0,1-.49-4.65c-.07-.91-.11-1.82-.13-2.72-.12-4.54.16-9.11.28-13.59.39-2.35-.07-5,.08-7.41a7.64,7.64,0,0,1,1.54-4.5c2.53-2.79,5.95-1,6.65,1.9a4.83,4.83,0,0,1,0,2.3,2.26,2.26,0,0,0,0-.27c-.1,6.9-.43,13.81-.19,20.71C301.4,1008.08,301.45,1009.1,301.51,1010.11Z"/><path d="M505.68,974.39c-2.18-6.15-.72-13.41-1.93-19.92.22-5-3.43-18.41,5.67-15.65,3.77,4.63,1,12.27,2.66,18C512,961.8,515.52,980.19,505.68,974.39Z"/><path d="M437,685.69c-7.64-2-10.61-11.16-15.42-16.7l.38.54c-10-16.53-24.09-30-34.37-46.33l.38.55c-7-8.82-12.57-18.4-15.58-29.3-.89-4.3,4.13-5.16,5.87-1.45,17.58,27.83,41.24,51.39,58,79.89l-.36-.53a41.07,41.07,0,0,0,2.53,3.33c18.33-20.43,36.11-42.06,48.8-66.56,3.3-5.74,6.49-11.55,9.89-17.23,1.12-3.31,3.69-10.08,8-6.16,2.84,6.3-8.08,17.8-10.43,24.37-12.18,24.3-28.84,45.57-45.77,66.67h0C445.66,680.35,442.3,685.67,437,685.69Z"/><path d="M373.15,890.78c-.07-1.36,2-1.71,2-.19C375.26,891.94,373.14,892.3,373.15,890.78Z"/><path d="M412.89,949.23c-9.83-2.08,8-58.27,7.78-69.08A4.36,4.36,0,0,1,425,876.8c7.49,2.73-.63,17,0,23.09-1.62,11.45-3.64,22.84-5.82,34.2C417.46,938.85,419.65,948.59,412.89,949.23Z"/><path d="M531.26,967.29c-8.81-.51-16-6.22-21.56-12.63a3.42,3.42,0,0,0,.26.72l0-.07c1.57,1.07.38,4-1.34,2.59-2.82-3-2.62-10.36,3-7.63,25.65,19.18,54.12-1.63,72.91-20.48,5-7.73,12.1-.9,5.37,4.73C573.4,949.45,555.34,968.53,531.26,967.29Z"/><path class="cls-3" d="M1456.35,437.79c-4.29,1-12.2-11.78-5.91-11.63,2,2.85,2.75,8,7.45,7.76a10.73,10.73,0,0,0,9.69-6.28C1476.34,423.86,1465.42,439.59,1456.35,437.79Z"/><path class="cls-3" d="M1455.55,406.56c-14.47.81-18.59-10.86-7.24-19.53,2.87-2.57,8.17-2.65,9.73-6.39,1.65-2.79-.64-12.07,3.44-11.82a1.53,1.53,0,0,1,.5,1.83v0c-.47,4.92,1,10.58-2,14.88-10,6.44-23.41,15.43-1.79,16.29h-.28c2,.25,5.18-1.42,5.63,1.52C1463.69,407.43,1458.27,406.39,1455.55,406.56Z"/><path class="cls-3" d="M1504.93,377.47c-6-.5-13.76-1.38-16.43-7.66-.9-3.05-2.66-7.66.53-9.9,12-8.1,28.67-8.5,42.23-4.4,5.07,1.6,1.9,7.76-.59,10.39A31.58,31.58,0,0,1,1504.93,377.47Zm3.34-4.78c8.42-.55,17.35-4.69,21.34-12.45-1-.25-2.12-.32-3.18-.5h0l-.29,0h.08a54.58,54.58,0,0,0-7.88-.48h.15a93.06,93.06,0,0,0-12,.53l.36,0-1.91.26.36-.05-2.12.29h.07l-.35.05h0l-.32.05h0l-.35,0h.1a48.05,48.05,0,0,0-5.16,1h0c-1.42.41-2.84.84-4.22,1.34a2.56,2.56,0,0,1-.47.72C1492.45,371.45,1502.22,372.05,1508.27,372.69Z"/><path class="cls-3" d="M1506.92,374.29c-6.75.83-10.62-8.12-4.11-11.41,4.64-2.66,13.18,0,12.24,6.23.94,1.47-.53,3.83-2.28,3.2A8.48,8.48,0,0,1,1506.92,374.29Z"/><path class="cls-3" d="M1491.12,344c-6.38-1.6-3-9.61,2.19-10.25,9.06-1.56,37.76-10.27,41.91.35C1533.52,344.34,1499.69,346.08,1491.12,344Z"/><path class="cls-3" d="M1601,298.45c.34-1.11.65-2.22.89-3.38,0,0,0-.08,0-.11l0-.17c0-.2.07-.39.12-.6a30.35,30.35,0,0,0,.31-7.37c0,.08,0,.18,0,.27-.17-20.26-19.14-16.83-31.58-8.94,5-30.07-36.5-22.21-50-8.32,3.11-25-41.52-4.25-48.76,5.9.4-22.5-22.08-8.48-28.77,2.39a69.71,69.71,0,0,0-15.79,47.42c-3.58,7.19-4.91,15.33-7.28,23-3,1.21-5.19,5.82-1.91,7.92-5.78,24.44-4.06,50.07-1.62,74.85,1.13,28.35,3.57,30.76,32.51,32.05-.47,5.37-1.41,10.83-2.3,16.31-1.16,7.17-2.23,14.34-2,21.37.06,1.72.18,3.45.41,5.14a.05.05,0,0,0,0,0c4.13,2.75,5.15-1.51,5.58-5.44.17-1.56.25-3.08.39-4.07,1-8.42,2.24-16.81,3.41-25.2,0-4.37,3.91-15.61-3.49-14.92-8.6.85-20.06.66-26.58-5.46a359.2,359.2,0,0,1-3.93-44.7c0-.3,0-.6,0-.9,0-2.36-.07-4.71,0-7.07,0-1.48,0-3,.07-4.47q.16-6.9.73-13.79c25.47,16.51,53.82-29.35,4.71-12.32a28.87,28.87,0,0,0-3.7,2.63c.31-4.91,2.51-9.39,3.41-14.19,3.67-.74,7.38-1.4,11-2.37,5-1.22,17.26-5.14,11.28-11.7-6.15-1.92-13.11.39-19.21,1.83,1.71-6.81,3.34-13.92,3-21,31.65-5.45,64-4.83,95.86-8.48l-.34.05c8.3-1.23,16.7-1.18,25.07-1.29,6.22.16,12.63.83,18.44,3.14,1.73,9.59-3.83,19.22-4.72,28.82,0,.25-.1.51-.14.77,0,0,0-.07,0-.1,0,.17-.07.35-.1.53-11.11,57.61-7,22.88,20,42.58,6.34,8.88-6.37,13.5-13,15.53-4.76,6.35-3,16-5.18,23.53-3.07,18.95-5.28,38.05-8.42,57a2.62,2.62,0,1,0,5.11,1c1.62-7.91,2.42-16,4.22-23.86.25-1.26.49-2.52.73-3.78,3-16,5-32.11,7.36-48.17.84-.3,1.67-.65,2.48-1a36.75,36.75,0,0,0,5-2.41,1.48,1.48,0,0,0,.13-.08l.08,0c9.87-4.79,11.71-18.85,2.24-25,4.59-9.43,8.22-19.35,12.4-29a.11.11,0,0,1,0-.05v0C1606.15,341.34,1629.35,295.17,1601,298.45Zm-176.25,73.9a30.61,30.61,0,0,1,9.82-2.49,69.39,69.39,0,0,1,14.19.24c-.73,2.62-3.38,4.22-5.75,5.24-.87-4.14-7.44-4.71-10.27-2.31a4,4,0,0,0-3.74,3.91c-1.86-.88-4.3-1.71-5.42-3.49A1.15,1.15,0,0,0,1424.7,372.35Zm1.35-4.48h0l.15-.1Z"/><path class="cls-3" d="M1420.29,405.56c-3-.68-1-4.3-.16-6.07-.05.09-.09.17-.13.26.86-2.11,4.54-9.95,5.91-4.21C1423.78,398,1423.4,405.34,1420.29,405.56Z"/><path class="cls-3" d="M1427.25,404.43c-4.65,0,2.29-14.53,4.57-10.86.83,1.77-.87,3.62-1.25,5.35C1429.74,400.82,1430.06,404.43,1427.25,404.43Z"/><path class="cls-3" d="M1435.51,401.53c-3.2-1.17.63-5.09.79-7.27,0,.05,0,.1,0,.15-.15-1.26,1.76-1.87,1.83-.39C1437.48,396.3,1438.49,401,1435.51,401.53Z"/><path class="cls-3" d="M1495.5,397.75c-4.62-.78,3.46-12.31,4.79-7.27-.55,1.77-2.32,3-2.61,5l.09-.28C1497.49,396.38,1496.93,397.86,1495.5,397.75Z"/><path class="cls-3" d="M1501.49,396.5c.41-3.29,3.14-6,5.48-8.18,3.49-1.26,2.93,2.84.87,4.23-1.63,1.84-1.56,5.58-4.27,6.11A2,2,0,0,1,1501.49,396.5Z"/><path class="cls-3" d="M1510.27,397.13c.66-3.19,2.55-7.56,5-9.55,4.62.76-.57,7.06-.81,9.78C1514,399.81,1510.19,399.85,1510.27,397.13Z"/><path class="cls-3" d="M1441,668.7c-7.69-23.29,5.61-47.85,14.55-69.2,3.94-10.1,1.53-21.82,6.18-31.52,3.34-5.67,10.63-2.86,12.13,2.74-1.87-10.93,8.32-19,12.34-5.47,3.5-15.66,11.82-14.42,12.4,1.33,8.45-14.94,18.52-7.12,14.38,7.45-5.77,16-12.2,31.85-12.69,49.11,0-.18,0-.36,0-.54-1.85,6.41,4,17.33-4.15,20.28-9.12.71-4.44-17.67-5-23.46l-.06.74c1.1-10.89,3.32-22,7.88-32,3-7.85,10.37-15.74,8.78-24.49-8.36,4.12-7.21,17.52-14.74,22.15-9.6.16,4.08-18.2-.47-26.3-3.56,4.78-3.34,26.14-10.76,24.47-1.28-.8-1.31-2.31-1.16-3.63.39-5.24,3.49-13.41-1.19-17.18l.1,0a2.89,2.89,0,0,0-.51.11h0l.13,0-.14,0c-1.76,5.64,1.12,23.62-7.33,23.72-3.91-3.66.26-11.11-3.61-15.46l.22.31a4.62,4.62,0,0,0-.92-.85l0,0-.18-.12.09.07-.18-.09a2,2,0,0,1,.39.24,4.15,4.15,0,0,0-.75-.4c-2.75,9.28-.1,19.91-3.45,29.37-4.15,12.13-10.86,23.29-15,35.44l0,0c-3.42,8.81-3.23,18.26-3.86,27.53l0-.41C1444.75,665.14,1445,670.21,1441,668.7Z"/><path class="cls-3" d="M967,859.65c-.48-.09-.94-.19-1.41-.31h-.05l-.17-.07c-.45-4.8,6.63-11.47.54-14.71-2.63-.7-6.2-.79-7.7-3.41.27-4.52,5.48-7.2,5.22-11.79-.87-5.76-8.54-4.15-11.9-7.33-.28-3.33,1.77-6.6,3.56-9.3a4.32,4.32,0,0,0,2.94-.3c7.55-2.18,19.57-.35,21.09,8.83a1,1,0,0,1,0,.17c-2.92,3.07-7.47,3.27-10.74,5.63-5.16,8.7,13.31,4.6,14,12.91-3.07,3.82-12.48,2.11-11.64,8.53,2.1,4,8.68,3.14,11.83,6.33C981.63,858.79,970.75,859,967,859.65Zm14.89-12.56-.1,0c.42-.24.82-.51,1.23-.78Zm420.69,90.42c.36-6.57,1.91-14.34-3.44-18.16-10.2-1.77-20.78-1-31.1-1.15-26,.32-51.92,1.47-77.84,3.13-23.34,1.47-46.65,3.39-69.94,5.48-6.64-24.52-13.86-48.88-20.84-73.29-3.74-13.06-7.41-26.12-10.89-39.24-3.9-15.55-9.58-30.58-13.83-46-.26-.58-.53-1.22-.79-1.9v0c-2.49-6.56-4.6-16.9-9.42-20.29-1.64-3.14-5.85-1.41-8.64-1.12-9.21.19-18.43-.28-27.63.45-27.51-.6-55,2-82.42,2.9a543.46,543.46,0,0,0-99.23,8c-11.71-2.57-3.33,14.07-1.76,19.34,3.08,9.83,5,20.35,9.63,29.54a4.79,4.79,0,0,0-1.88,4c-8,7.94-10.84,20,3.26,22.54-6.3,7.34-4.78,17.84,5.9,19.11-4.59,8.61-2.07,18.06,9.28,14.93,3.24,22,11.28,43.87,17,65.55,3.81,10.34,3.94,23,8.66,33a28.74,28.74,0,0,0,3.54,5.77c3.06,1.21,6.1-1.8,6.07-4.8,22.52,1.95,45-2,67.53-1.46h-.19c38,.72,75.86-1.7,113.77-3,11.45-.16,22.76-2,34.18-2.58,5.17-.19,13.9.06,12.8-7.43,27.24-1,54.42-3.21,81.67-4.24,8.47-1.28,37.69.22,48-3.49a6.38,6.38,0,0,0,3.22-2.05,204.64,204.64,0,0,1,25.61-.92,8.11,8.11,0,0,0,.32,3.12c1.45,4.86,7.26,5.54,9.11,0a8.89,8.89,0,0,0,.34-1.26A26.23,26.23,0,0,1,1402.56,937.51Z"/><path class="cls-4" d="M1430.38,512.53c-3.62-2.85-.16-7.89,3.78-7.9,3.25-2.58,13.64-4.78,17.7-3.68,3.55,1.85,2.32,7.21-1,8.55C1444.62,511.87,1436.88,514.45,1430.38,512.53Z"/><path class="cls-1" d="M1510,907.44c-42.21-1.1-53.7-42.71-58.62-77.52a724.71,724.71,0,0,1-12.58-115.31v.49c0-.33,0-.64,0-1v.48l-.18-6.78c0,.16,0,.31,0,.46.76-4.08-3.36-41.64,4.36-35.38h0a2.12,2.12,0,0,1-.11,3.13c2.15,44.69,5.54,89.51,12.92,133.66l-.09-.57c.19,1.21.38,2.42.58,3.63l0-.12q.92,5.6,1.81,11.21v-.09c0,.28.08.56.13.84,0,0,0-.09,0-.13,3.08,20.72,6.11,43.12,18.52,60.56,18.34,20.56,48.67,20.35,67.16.11l-.32.29c6.84-6.22,12.26-13.76,17.36-21.42l0,0,3.21-4.69-.14.21c1.73-2.55,3.44-5.11,5.18-7.65l-.3.44c19.11-28.45,38-58.07,50.68-90-.06.17-.13.34-.19.5l.36-1c0,.05,0,.09,0,.13,6.19-15,13.45-29.63,19.71-44.66,2.44-3.45,4.15-14.37,8.61-14.25,4.47,3.07-2.71,10.72-3.53,14.82-3.72,8.59-7.16,17.28-10.51,26a.42.42,0,0,0,0-.1c-11,30.92-26.15,58.62-42.55,87C1571.52,859.76,1549.52,905.78,1510,907.44Z"/><path class="cls-1" d="M1526.35,770.59c-6.49-4.82-9.22-22.5-11.78-30.62-6.06-27-8.25-54.72-14.76-81.65l.1.33c-.19-.64-.38-1.28-.58-1.91l0,0c-.78-2.62-3.06-8.48,1.11-9.09h-.14c2.27.19,1.88,5.3,3.51,7.19,5.22,15.41,9.84,31.23,12.51,47.3h0c3.11,18.64,5.17,37.61,10.78,55.71,11.67-40.41,25.73-79.94,38.47-120,3-17.75,11.36-34,15.71-51.45,3.43-6,4.28-24.84,12.4-24.6,2.09,1,1.91,3.63.81,5.28-6.3,15.2-9.22,31.72-15.19,47.11-5.06,11.37-6.26,23.74-10.27,35.43-5.44,18.1-13.66,35.11-19.09,53.18l.15-.43-.36,1h0c-6,16.45-11,33.23-15.84,50.06C1531.41,758.25,1532.64,769.63,1526.35,770.59Z"/><path class="cls-1" d="M1515.59,552.28c-2.74-5.95,25.23-17.52,30.24-21.87,19.16-10.17,35.9-24.91,54.26-35.87,1.17.34.92,2.14-.13,2.49-13.72,12.54-27.88,24.62-43.51,34.76-9.13,5.76-18.59,11-27.79,16.61C1524.92,550,1518.89,557.51,1515.59,552.28Z"/><path class="cls-1" d="M1430.82,592.11a221.4,221.4,0,0,1-27.31-62.87c-.35-4.44-6-14.68-1.33-17.29,3.25-.16,2.41,8.91,4.16,11.53l0-.13a2.29,2.29,0,0,1,.08.28l0-.07c4.65,13.53,9.76,27.1,16.56,39.7,4.47,8.23,9.48,16.15,14.08,24.3C1439.25,591.3,1433.49,596.36,1430.82,592.11Z"/><path class="cls-1" d="M1419.65,509.41c-.19-4.85-2.42-15.39,2-18.32,2-.4,2.91,2.12,1.62,3.42-1.26,4.73,3.78,14.06-.29,16.56A2.35,2.35,0,0,1,1419.65,509.41Z"/><path class="cls-1" d="M1431.47,496.06c-3.5-3.46,3.67-8,5.69-10.69,3.69-1.7,3,3,.7,4.36C1435.51,491.42,1434.83,496.69,1431.47,496.06Z"/><path class="cls-1" d="M1577.88,479.09c-3.08-3.95,5.2-6.59,5.18-10.72v0a.07.07,0,0,1,0-.06v0s0,0,0-.06a1,1,0,0,1,0,.24,1.16,1.16,0,0,0,0-.32l0,0c-1.11-1.62,1.71-3.6,2.31-1.41v0h0a1.75,1.75,0,0,0-.12-.32C1587.17,469,1581,480.77,1577.88,479.09Z"/><path class="cls-1" d="M1566.81,583.48c-1.27-2.61-3.39-9.18.8-9.89,2.66.88.64,5,2.82,6.83C1572.23,582.68,1568.54,586.23,1566.81,583.48Z"/><path class="cls-1" d="M1553.11,600c-.78-2.68,2.76-5.72,3.45-2C1557.07,600.56,1553.93,603.74,1553.11,600Z"/><path class="cls-1" d="M1450.52,664.54c3.9-5.24,12.54-7,18.23-10.45a2,2,0,0,1,2.88,1.44c-.17,5.34-10.67,5.32-14.56,7.85C1455,663.52,1451.22,668.24,1450.52,664.54Z"/><path class="cls-1" d="M1580,744c-3.85-2.41,5.59-12.21,7.9-8.28,1.35,2.53-1.54,3.81-2.93,5.37C1583.72,742.49,1582.33,745.38,1580,744Z"/><path class="cls-1" d="M1313.59,773c-3.14-4.49-.58-11.25-.77-16.48,1.66-18,6.74-35.4,9.72-53.15-1.25-29.67,1.57-59.42,4.52-89l-.06.58c.61-5.93,1.06-11.87,1.67-17.8,0,.19,0,.37-.05.56.47-3.14,0-8.24,4.25-8.6a3.23,3.23,0,0,1,3.15,3.52c-.91,13.08-2.08,26.14-2.66,39.25-1.09,16.67-2.24,33.34-3.14,50-.65,12.75.44,25.43-3.71,37.78l0-.09c-3.76,16.48-8.88,32.7-11,49.52C1319.07,769,1315.82,774.34,1313.59,773Z"/><path class="cls-1" d="M1345,605.34c.93-4.22-1.09-12.91,3.66-14.62a2.26,2.26,0,0,1,2.13,2.78c-1.92,3.79-.07,12.1-3.67,13.89A1.89,1.89,0,0,1,1345,605.34Z"/><path class="cls-1" d="M1311.55,630a24.91,24.91,0,0,1-1.92-5c-.68-2.49,3.3-3.9,3.66-1,.31,2.09,2.85,4.57.8,6.38A1.65,1.65,0,0,1,1311.55,630Z"/><path class="cls-1" d="M1471.53,300.56c-4-2.69,2.59-12.62,5.76-14.44,2.16-.34,2.83,2.57,1.44,3.84-2.17,2.4-4.68,4.9-5.51,8.11A1.79,1.79,0,0,1,1471.53,300.56Z"/><path class="cls-1" d="M1486.85,293.13c-3.13-1.29.89-4.9,1.74-6.68,0,.07-.1.14-.14.21,1.12-1.36,2.5-4.75,4.67-3.14a2.19,2.19,0,0,1-.17,3.08h0c-.06.07-.11.14-.17.2l.12-.14C1490.69,288.48,1489.56,292.28,1486.85,293.13Z"/><path class="cls-1" d="M1505,291.89c-3-2.34,2.51-6.3,4.09-8.23,1.92-1.9,4,1.37,2,2.79C1508.58,287.67,1507.55,291.54,1505,291.89Z"/><path class="cls-1" d="M302.41,525.32c-.24-4.62,5.61-4.53,8.79-5.75,11.94-3.7,26.71-.33,33.66-13.49l-.16.24.91-1.33h0c5.48-3.92,6.64-36.95,8.85-30.61-.39,22.19-6.19,50.85-33.88,50.23C316,524.6,304,531.56,302.41,525.32Z"/><path class="cls-1" d="M300.88,555.15c-.12-11.5,40.2-9.13,49.72-18.53l-.22.15c.27-.18.53-.37.79-.56l0,0,.21-.15-.07,0,0,0-.07,0a30.06,30.06,0,0,0,3.91-3.66l-.15.17c2.62-3.23,5.85-6.95,5.78-11.33-.51-2.05,2.28-2,1.92.12-2.18,22.66-28.29,28-46.83,30.92C311.64,552.37,303.45,559.35,300.88,555.15Z"/><path class="cls-1" d="M274.29,565.36c1.18-6.78,3.74-13.41,8.49-18.5v0c.19-.23.39-.46.59-.68h0l.11-.12h0c4-4.76,4.45-.18.83,2.49l.11-.13a23.36,23.36,0,0,0-2.65,3.68h0c-2.22,4.2-3.15,8.92-4.18,13.52C277.28,567.88,273.87,567.77,274.29,565.36Z"/><path class="cls-1" d="M427.42,493.92c-1.89-3.32,8.25-9.13,9.28-16,0,.13-.09.25-.13.38,3.59-9.73,6.31-21.79.1-30.88,1.31-4.73,5.66,3.93,5.72,5.91,3.76,13.09.52,29.17-9.07,39.05C431.85,493.9,429.1,496.54,427.42,493.92Z"/><path class="cls-1" d="M195.52,682c-10.33-29.2,7.86-58.17,34.15-71.6l0,0,.11-.09,0,0a22.45,22.45,0,0,0,5-5.28c4.24-1.53-1.41,5-2.51,5.79-8.78,6.88-18.14,13.22-24.2,22.86C190,654.63,208,686.05,195.52,682Z"/><path class="cls-1" d="M187.23,740.61c-9.66-10.57,32.36-18,28.37-66.14h0c-.32-1.86-.72-13.18,2.51-7.92-.12,9.12,1.39,18.25.75,27.42-1.19,15.94-10.25,29.95-22.74,39.53l.35-.31C193.16,735.17,191.64,741.68,187.23,740.61Z"/><path class="cls-1" d="M162.65,742.82c-1.17-2.91,14.83-28.58,14.18-20.91h0l-.06,0,0,0a18.07,18.07,0,0,0-3.83,4.21,1,1,0,0,0,.08-.11,39.66,39.66,0,0,0-3.34,7l0,0c-2.54,3.74.07,11.38-4.81,12.85A2.42,2.42,0,0,1,162.65,742.82Z"/><path class="cls-1" d="M177.05,829.17c-4.06-2.52.71-7,1.41-10.16,3.67-9.69.67-20.11,1.31-30.14-.68-20.54,14.65-26.25,9.33-17.8-11.39,13.84,1.52,34.17-5.31,49.92C182.46,824,181.51,830.43,177.05,829.17Z"/><path class="cls-1" d="M148.23,838.19c-2.17-7.51,4.78-20,9.26-26.18,2.11-1.64,3.87,1.75,1.94,3.12a10.83,10.83,0,0,0-2,2.94,47.24,47.24,0,0,0-5.18,15.55C152.63,836,151.29,840.3,148.23,838.19Z"/><path class="cls-1" d="M373,423c-6-4.35,12.28-17.54,16.29-19.62,2.91,1.41-2.28,3.17-3.13,4.45C381.06,410.77,375.77,423.89,373,423Z"/><path d="M977.31,555.89a2.74,2.74,0,0,1-2.37,0,235.72,235.72,0,0,1-26.59-6.6A133.3,133.3,0,0,1,926.59,542c-5.41,11.25-12.58,21.58-18,32.85-1.89,3.81-3.31,7.83-5.06,11.71-.63,1.88-3,4.07-4.75,2.14a6.32,6.32,0,0,1-1.06-3.62c-.23-4.59-.09-9.19-.13-13.78.37-13.18,1.09-26.4,3.49-39.39-12.88,1.66-25.41,4.57-38.36,5.63-2.67,0-12,2.91-10.58-2.25,2.18-2.74,5.52-4.43,8.18-6.69C870.5,520.21,882,513.73,892.6,506c-.22-8.08-.74-16.14-1.42-24.19-1-.94-1-2.53-1.12-3.82-.3-3.38-.2-6.68-.26-10.08a47.27,47.27,0,0,1,0-6.41,2.6,2.6,0,0,1,4.32-1.28,103.16,103.16,0,0,1,6.93,9.73,51.86,51.86,0,0,0,9.84,12.25c5.45,5.63,9,12.35,15.55,16.69a270.79,270.79,0,0,1,31.18-15,46.64,46.64,0,0,1,6.37-2.32,3.65,3.65,0,0,1,2.93.21c1.65,1.08,1.16,3.15.15,4.5-1.46,2.55-3,5-4.5,7.56C957.78,503,952,511.5,946.47,520.2c5.44,3.49,9.78,8.39,14.46,12.8A112.48,112.48,0,0,1,975,548.5C976.31,550.6,980.75,553.7,977.31,555.89Z"/></g></g></svg>