<svg xmlns="http://www.w3.org/2000/svg" viewBox="0 0 1665.46 1625.01"><defs><style>.cls-1{fill:#f660b2;}.cls-2{fill:#fff;}.cls-3{fill:#f7941d;}</style></defs><title>Imagen 1</title><g id="Capa_2" data-name="Capa 2"><g id="Capa_1-2" data-name="Capa 1"><path class="cls-1" d="M1182.09,185.36c-77.44-8-36.39-115.38,28.51-85.76,17.55,12.58,28,41,14.65,60.41C1215.08,174.22,1200.85,187.51,1182.09,185.36Z"/><path class="cls-1" d="M1401.68,84c-8.86-1.78-14.93-8.54-20-15.5-6.35-6.39-11.83-13.84-11.4-23.31-1.56-16.21,9.06-30.3,21.1-39.95,12.22-6.38,27.86-6.62,40.77-2.24C1482.92,21.09,1449.94,98.12,1401.68,84Z"/><path class="cls-1" d="M1339.63,309.65c-29.23-1.73-48.7-27.07-38-55.35,5.92-20.05,25.34-38.52,47.32-35.78,32.67.39,46.18,32.72,38.87,61.19C1382.83,300.22,1359.44,311.29,1339.63,309.65Z"/><path class="cls-1" d="M1103.53,492.81c-32.15-2.91-47.67-41.32-36.39-69.11-.09.23-.17.46-.25.68,10-28,48.09-33.13,71-18.23,13.83,6.71,19.52,23.17,21.51,37.47C1162.69,472.82,1130.19,494.38,1103.53,492.81Z"/><path d="M1132.19,410.86c-6-9.17,70.33-58.07,81-67.5l-.57.41c23.77-17.2,47.9-33.95,72.62-49.74,6.57-2.33,32.21-24.17,35.39-15.75,4.59,9.22-16.51,15-22,20.32-21.53,12.67-41.82,27.29-62.54,41.21q-41.38,28.82-81.73,59C1149.48,400.85,1135.17,418.44,1132.19,410.86Z"/><path d="M1209.86,99.88c-2.7-7.7,9-8.67,13.71-11.36,23.94-9.93,48.72-17.5,73.24-25.81,30.94-10.46,62.07-21.11,94.09-27.72,8.15-2.86,12.65,7.82,4.5,11-47.81,9.31-93.26,28-139.8,42.12C1247.13,89.43,1213.54,107.18,1209.86,99.88Z"/><path d="M1328.86,236.78c-45.89-27.63-86.92-63-134.48-88.1-6.29-4.62,1.36-13.51,7.41-9,39.47,19.54,74.57,46.39,110.21,72,7.65,6.43,17.4,10.32,24.78,16.78C1339.55,233.32,1333.87,239.85,1328.86,236.78Z"/><path class="cls-1" d="M267.93,937.17c-36-28-74.54-55.62-98.84-95.06a16.91,16.91,0,0,0-1.69-.46l.63.15c-40-4.78-80.6.52-120.79-.82-5.45-.8-12.43-.31-16.61-4.29-5-8.18-6.7-17.88-8.89-27.1-5-25.5-8.13-51.37-12.36-77C6.93,692,1.14,651.78.41,611.15c-.9-17.7-.89-36.58,6.07-53.09,4.38-5.54,12.23-4.19,18.41-5.67,11.48-2.4,23-4.37,34.66-6.06,49.64-7.51,99.75-11.64,149.25-20.16q-1.14,4.88-2.24,9.76c-64.18,10.56-129.29,14.89-193.14,27.41-4.71,15.91-4.91,32.45-3.67,48.86.64,21.63,1.93,43.21,5,64.64,2.42,27.7,3.12,55.51,8.79,82.85,3.81,23.48,5.08,48,14.31,70.17,35.29,4,71.3-1.25,106.83.1,10.14.65,21.33-.5,30.68,4,4,5,6.79,11,11,15.94,23.1,28.33,51,51.95,80.45,73.43-8.63-24.84-19.06-49-28.22-73.6-4.5-9.89-2.58-16.22,9.34-15.63,18.71-1.54,37.42-3,56.08-5.08,109.53-10.57,219.67-11.65,329.51-17.07-1.23,3.44,1.87,6.28,2.94,9.34-87.87,4.12-175.8,6.12-263.62,11.4l.63,0c-2.7.2-5.41.33-8.12.52h0c-39.89,2.45-79.6,7-119.45,10,6.15,14.05,10.45,28.82,16.67,42.84C265.6,893.3,293.1,951.87,267.93,937.17Z"/><path class="cls-1" d="M682.57,816.54a5,5,0,0,0-3.78-3.71,6.46,6.46,0,0,0-1.17-3.12c71.24-7.42,143.68-14,212.28-35.58l-.61.21a59.12,59.12,0,0,0,9.78-4.38l-.56.38c.22-.14.44-.28.65-.43,1.13-46.42,1.41-92.84,0-139.26C897.72,585,893.35,537.12,872,496.08c-62.61-2.61-125.52-2.05-188.13.73-1.43-2.25-2.87-4.51-4.43-6.68,47.87-5.19,96.15-4.76,144.23-5.64,17.69,1.21,36.1-1.25,53.41,2.57,11.52,13.39,15.12,32.39,19.83,49.17,9.61,36.48,11.71,74.22,11.94,111.79,1,41.34,1.26,82.8-1.23,124.05C899,787,846.16,794.61,828.44,798.84c-48.25,9-96.83,15.56-145.71,19.93A7.22,7.22,0,0,0,682.57,816.54Z"/><path class="cls-1" d="M251.15,527.48c.43-2.19,1.15-4.32,1.42-6.53,25.9-2.89,51.86-5.17,77.94-4.79a53.45,53.45,0,0,0,3.1,9.41c-27.82-.39-55.51,1.84-83.12,5C250.7,529.56,250.92,528.52,251.15,527.48Z"/><path class="cls-1" d="M258.3,442.74c-16.25-1.29-32.73-1.53-48.85-3.78-5.35-3.84-2.89-15.57-3.51-21.7.07-20.74,1.66-41.35,3.49-62,1.57-24.32,2.69-48.67,8.23-72.53,0,.21-.09.41-.13.62C222,262,227.6,240.9,233.71,220a1.36,1.36,0,0,1,0,.17c9.31-48.76,52.27-60.71,94.4-43,.29-3.64,3.61-8.53,7.68-6.35,11.32-.61,21.69,3.59,30.22,10.91h0c11.24,6.37,15.65,11.68,29.63,9.55,1.88-10.86,2-18.08,15.33-16.5,10.9-2.58,8.95,3.16,15.24,9.27,30.38-8.49,69.2-12,89.19,17.64,10.68,9.84,17.41,22.78,26,34.33A434.29,434.29,0,0,0,577,275.25a123.67,123.67,0,0,0-4.74-25.17,2.62,2.62,0,0,1-.6-5.15h0c8.93-.23,57.31-11.43,58.22-2.32,6.77,19.13,14.83,38.57,14.46,59.33,7.58,54.17-33.15,70.41-77.63,49.45-26.79-14.38-46.86-38.62-59.78-65.82.68,17.42-15.91,20.13-9.71,38.65,2.55,10.32,2.77,21,5.72,31.17.56,8,8.8,22.81.44,28.08-37.27,5.41-75.08,7.86-112.55,12.39-18.29,1.82-36.41,4.67-54.66,6.82-9.32.29-20.22,3.71-28.85-.34-5.92-6.42-4-17.55-7.13-25.56-5.57-25.42-8.73-51.33-14.79-76.66-5.87,36.85-13.14,73.56-17,110.68-.74,7.41-2,14.79-2.19,22.25C266.81,438.76,265.08,443.81,258.3,442.74Z"/><path d="M417.15,145.56c-3.92-.71-9.06-3.32-9.68-7.6.21-1.73,3.44-2.1,2.87.08,4.44,4.54,12.12,4.09,13.74-2.72a1.72,1.72,0,0,1,1.59-1.42C430.31,136.31,421.62,147.46,417.15,145.56Z"/><path d="M372.9,126.51c-.14-3,2.7-5.43,4.38-7.72,2.84-1.84,2.69,2.11.85,3.35l.13-.18C376.47,123.09,375.26,130,372.9,126.51Z"/><path d="M381.4,126.23c-1.89-1,3.38-9.91,5.12-8.07,1.09,2-2,3.43-2.58,5.24C383.16,124.34,383.1,126.85,381.4,126.23Z"/><path d="M388.4,124c-.33-2.51,2.19-4.9,3.28-7.14,1.22-1.79,3.45.19,2.26,1.8C392.28,120.13,391.15,126.89,388.4,124Z"/><path d="M425.58,117c-1.3-.3-1.23-2.39-.09-2.87.59-1.75,5.05-6.64,4.27-2C428.37,113.57,427.59,116.52,425.58,117Z"/><path d="M431.48,116.88a1.14,1.14,0,0,1-.37-.82s0,.1,0,.14a1.23,1.23,0,0,1,.64-1.43,23.89,23.89,0,0,1,2-2.84l-.09.12c.72-1.85,4.48-3,2.91,0C434.46,113,433.74,117.21,431.48,116.88Z"/><path d="M436.91,117.11c-.59-1.46,1.14-3.42,1.7-4.86,2.31-1.63.84,1.78-.08,2.78a.22.22,0,0,0,.05-.08C438,115.54,437.91,117.31,436.91,117.11Z"/><path d="M411.37,125.25c-2.34-1.57-11.72-3.75-10.13-7.15a1.79,1.79,0,0,1,2.39-.92c3.88,2.11,8.05,5.75,12.73,4.38-3.17-10.4-12.71-19.23-12.5-30.89-.17-1.12-.11-4.5,1.63-2.83h0c1.1,9.85,8.06,17.24,12.85,25.48C423.21,119.63,420,127.94,411.37,125.25Z"/><path d="M422.5,102.87A14.39,14.39,0,0,1,414,98.94l0,0c-1.67-1.61-4.73-6.51-1.28-7.64C429.58,66.29,460,101.48,422.5,102.87Zm2-3.51c4.87-.38,11.21-1.25,12.85-6.68-4.5-9.18-17.8-8.49-23.07-.43.27.7.49,1.43.77,2.13l-.09-.22C416.4,97.8,420.84,99.53,424.52,99.36Z"/><path d="M368,109c-4.12-.32-8-1.93-10.12-5.67l.06.08c-.28-.38-.63-.72-.93-1.07-2.52.68-1.54-2.92-.73-4.08,4.52-7.93,14-10.51,22.51-8.85C401.83,97.11,383.36,111.34,368,109Zm4.28-3.12c1.25,0,2.49,0,3.73-.12h-.07l.21,0H376c4.39-.28,8.5-3.48,10.49-7.32a27.86,27.86,0,0,0-7.77-4.82l.09,0-.31-.14.23.11c-6.25-2.12-14.24-1-18.7,4.2l.15-.16c-.61.62-1.22,1.24-1.77,1.91C362.54,104.56,365.36,106.5,372.23,105.9Z"/><path d="M355.3,98.79A10.34,10.34,0,0,1,354,97.62l.06,0-.12-.1.05,0a67.05,67.05,0,0,0-6.74-4.75c-2-1.08.6-3.71,1.76-1.6C350.21,92.8,361.89,98.28,355.3,98.79Z"/><path d="M359.85,95c-1-.37-10.29-7.71-6.8-7l.06.1,0,0a6,6,0,0,0,.43.45l0,0,.05,0,0,0c2.13,2.13,5.1,2.83,7.57,4.36C362.08,93.64,361.05,95.58,359.85,95Z"/><path d="M364.59,92.33c-2.8-1.7-4.67-4.72-7.18-6.75h0c-.63-.2-.46-1.14.06-1.36,1.41-.27,2.46,1.45,3.64,2l-.06,0,.12.08,0,0C363,87.41,370,91.43,364.59,92.33Z"/><path d="M425.88,84.55c-2.6-.6,1.49-8.17,1.43-10.46C429.49,72.46,427.31,85.27,425.88,84.55Z"/><path d="M431.37,85.06c-2.55-1.27.45-4.84.63-6.88l0,.18a24.82,24.82,0,0,0,.55-2.53.68.68,0,0,0,0,.14c0-.12,0-.23.05-.34a.17.17,0,0,0,0,.07.59.59,0,0,1,0-.13v0C435.2,70,434.3,86.21,431.37,85.06Z"/><path d="M436.83,86.49c-2.05-.62-.47-3-.21-4.35v0l0-.09h0l0-.07v0C439.6,67.2,441,85.84,436.83,86.49Z"/><path d="M427.56,98.75c-4.49-2.85-.45-11.88,4.34-8C435.61,93.88,432.39,101.57,427.56,98.75Z"/><path d="M375.53,106.17c-5.6-1.1-4.3-10.23,1.28-10.13C382.55,96.59,381,106.62,375.53,106.17Z"/><path d="M410.07,175.76c-5.47-25.16-2.33-17,21.9-19.52l-.31,0c21.67,1.42,19.67-21.23,15.92-36.07Q445,104.51,443,88.74c0,.07,0,.13,0,.19-.77-7.16-2.19-14.23-2.95-21.39-3.22-.63-5.73-3.94-9.53-2.85h0c-5.47.3-11,1.37-15.41,4.85l.14-.11c-2,1-2.89,3.47-4.55,4.55-1.71-.36-.23-2.35.23-3.24,5.68-7.89,17.35-11.61,26.56-9-.07-.49-.1-1-.13-1.49-2.88-1.44-6.41-2.12-8.61-4.61C425.3,58,420,57.11,416.87,54.52c-6.66,5.1-17.15,1.64-21.33-5.14,0,.15.08.3.12.45a.29.29,0,0,0,0-.09c2.94,9.17-4.85,14.64-13.34,13h.1l-.2,0h.06c-4.38.13-7.79,3.36-11.9,4.51,12.4-4,30.84,8.46,22.48,9.7-6.13-4.43-13.63-5.8-21.06-5l.31,0c-9,.47-18.13,3.38-24.34,10.2-.39,1.43-2.56,1.83-3.12.3h0c2-8,13.59-12.89,21.23-14.41-3.52.57-7-.8-10.41-.72-4.68,4.19-10.65,8.58-17.15,8.76-4,15.17,46.12,86,6.92,72.92-6.45,7-18.77,1.84-23.8-4.65-7.65,4.45-15.21-4.74-19.17-10.46-4,2.88-8.76-.47-11.65-3.39-11.33-13.6-3.67-33,2.5-47.28,0,.1-.09.21-.14.31,11.83-27.2,34.48-51.28,62.8-61.28,27.71-10.42,65.5-10.73,84.36,15.63h0l.07.09,0,0,.05.06,0,0C452.57,52.31,460,69.85,468.55,86.5c9.52,10.39,15.46,28.8-4,30.88a10.71,10.71,0,0,1-10.28,8,68,68,0,0,1,.58,10.76h0c.33,27.5-22.68,25.18-43,25.77-.28,3.88,4.18,13,1.34,15A2,2,0,0,1,410.07,175.76Z"/><path d="M337.31,176.9c-2.53-9.82-1.86-20.14-3-30.15-.45-1.45.89-3.3,2.48-2.78,2.74,4.17,1.43,13,2.56,18.31l0-.31C339.18,164.83,344.17,181.88,337.31,176.9Z"/><path d="M208.16,555.83c-5-.57,1.39-37.19.41-43.85v.14c0-.32,0-.63,0-.95v0c.92-24.06,1.66-48.38,4.07-72.24h0c4.23-2.48,2.29,9.91,2.57,12.22v-.3c-.23,25.61-2.36,51.16-3.11,76.76C210.59,532.57,212.69,556.23,208.16,555.83Z"/><path d="M203.2,575.54c-1.95-.07-4.2-1.52-3.35-3.71-4.5,2.09-22.18,1.65-11.76-5.37-4.77.6-13.41-3.46-7-8.13,5.84-3.49,12.92-3.25,19.39-4.64,3-.35,6.61-2.2,9.38-.57,2.8,4.92-20.31,5.87-23.82,7.49h0a15.77,15.77,0,0,0-3.86,1.28,4.36,4.36,0,0,0,1.76.81l-.13,0h0l-.09,0,.58.15-.2,0c5,2.62,16.68-4.56,19.18.16,0,3.14-11.6,3.86-14.58,6.8,10.67,3.1,20.47-8.21,25.87-6.6,1.45,3.93-8.75,6.13-11.1,9a16.41,16.41,0,0,0,6.89-.53h0l.22-.05-.1,0a36.09,36.09,0,0,0,5.36-1.75l-.22.09c3.74-1.48,7.52-2.84,11.27-4.3l-.12,0c6.92-2.12,12.37-7.14,18.36-10.62,3.84.72,1.5,5-.92,6.06l.06,0A79.86,79.86,0,0,1,203.2,575.54Z"/><path d="M242.26,560.3c-1.7-2.38,1.81-4.45,2.71-6.5,3.41-7.2,3.49-15.61,4.93-23.38,3.93-29.73,6.87-59.63,11-89.3v0a2.13,2.13,0,0,1,.28-.41l0,0a1.44,1.44,0,0,1,2.35,0l-.09-.09c.83,21.61-2.65,43.93-5.9,65.43l0-.23C254.93,517.39,255.68,558.91,242.26,560.3Z"/><path d="M573.37,245.49c-3.94-37.59-8-76.11-4.14-113.8a1.55,1.55,0,0,0,0,.21c1.47-6.9,2-16.88,9.55-19.84a6.91,6.91,0,0,1,8.37,8c-3.93,12,4.25,12.93,3.9,24.16.57,1.94-2.55,2.85-2.53.56-.48-3.59-1.18-7.46-3.72-10.2-5.21-4.29-1.08-11.12-1.73-16.57-1.43-2.55-5.22-1.87-6.31.71-6.41,14-4.79,30.25-4.36,45.26.52,15.19.55,30.38,1.58,45.55l0-.34C573,212.52,582.51,256.65,573.37,245.49Z"/><path d="M624.61,242.21c-4.49-29-7.25-58.13-10.93-87.19-2-10.78,14.53-11.74,17.28-21.13-1.5-.23-3.3,1.43-4.35-.31a2.33,2.33,0,0,1,.78-3.11h0c2.34-1.87,4.78-3.88,6.29-6.5-14.12-1.37,1.71-7.39,2.06-14h0c-1.41-1.3-4.24.32-5.78,1.09h0a1.49,1.49,0,0,1-2-1.71c.5-2.48,3.74-3.35,5.91-3.71,9.32-.94,4.44,10.52.38,14,6.21,1.45,2.35,8.31-.86,11,4.59,9.37-9.54,15.94-15.4,21,5.3,29.31,6.09,59.25,10.8,88.65l0-.08c0,.11,0,.23.07.34,0-.09,0-.17,0-.25C630.23,243.37,625.43,246.08,624.61,242.21Z"/><path d="M578.18,115.53a3.85,3.85,0,0,1-.92-2.91l0,.39c-.12-4.38.63-8.75.6-13.15,0,.11,0,.21,0,.32.48-8.2,1.21-16.38,1.85-24.56,0,.14,0,.28,0,.41,1-11.22.84-23.35,4.1-34h0c3.13-1.71,2.84,3.25,2.54,5.1V47c-.77,18.57-2.25,37.1-3.43,55.65,0-.14,0-.28,0-.42,0,.74-.07,1.49-.1,2.23l0-.42C582,107.23,584,118.31,578.18,115.53Z"/><path d="M626.07,136.22c-3.47-1.2.47-15.32-.09-19.29,0,.06,0,.12,0,.18l0-.6c0,.06,0,.12,0,.18,0-.14,0-.28,0-.42v.11c1.72-23.43,3.87-46.92,6.73-70.22h0s0,0,0-.06v0c5.79-5.91.44,39.5.55,43.38C630.91,97.17,633,136.14,626.07,136.22Z"/><path d="M615.05,142.83c-7.52-.51-15.35-.23-22.59-2.54l.25.08c-1.39-.43-2.71-1-4.06-1.52-2.63-2.21,1.74-3.45,3.61-2.61,8.4.67,16.89.37,25.31.2,7.6,1,4.26-4.29,8.83-4.47,3.26,1.25,1,5.39-.37,7.36C623.77,143.05,618.92,143,615.05,142.83Z"/><path d="M631.57,49.82c-.28-6.2-8-3.85-12.07-5.63-9.42-.81-24.3-4.09-32.65-.34.27,2.3-3.2,3.17-3.42.62,1.4-11.89,18.38-6.42,26.64-7.46h.35a30.25,30.25,0,0,1,8.65.54H619l.41.06-.21,0C624.68,39.2,634,39,635,46.24,635.68,48.43,633.57,53.36,631.57,49.82Z"/><path d="M629.6,51.33a134.12,134.12,0,0,0-24.29-1.95h.24c-7,.06-14.15,1.45-21-.19-1.51-3.26,6-1.68,7.82-2.43,12.87-2.28,25.88-.93,38.66.39C634,47.74,632.29,52.14,629.6,51.33Z"/><path d="M616.7,135.23c-4.21-1.51-36.61.2-31.85-6.31h0c5.1-.15,10.76.74,16.14.41h-.06c6.12.11,12.13,1.91,18.3,1.71H619c2.67,0,11.12-1.36,7.9,3.59C623.74,135.51,620,135,616.7,135.23Z"/><path d="M527.69,451.53c-10.14-23-17.55-47.2-26.93-70.56l.12.25c-.73-1.29-2-3.31-.21-4.37,6.76.48,16.35,32.23,19.47,39.32C520.35,420.54,540.79,458.74,527.69,451.53Z"/><path d="M750.21,640.11c-16.14-40.81-37.07-79.61-57.45-118.46-16.73-34.07-33.07-88.37-81-79.84l.46-.05c-39,2.74-76.39,16-115.18,20.19-11.65,2.14-23.54,1.95-35.34,2-2.73.07-3.46-4.31-.49-4.49,12.25-1.79,24.61-2,36.78-4.35l-.2,0C543.13,448.7,588,430.46,634.32,435c28.7,6.26,41.85,36.31,53.52,60.35C690.54,506.3,774,652.86,750.21,640.11Z"/><path d="M680.3,819c-4.69-30.08-8.44-60.22-10.46-90.62-2.85-30.09-7.27-60-9.31-90.18-4.44-32.25-2.63-66.16-14.16-97-.87-2.25-6.25-3.16-3.21-5.87,8.67-.68,10.22,11.66,12.56,17.89l-.12-.4c.46,1.53.93,3.05,1.39,4.57l-.13-.42c7.7,29.25,7.25,60.06,11.08,90,2,30.09,7.11,59.85,9,89.94,2,18,2.42,36.17,5.51,54,1.32,9.27,2.86,18.62,3.3,28C685.39,822.26,680.54,822.62,680.3,819Z"/><path d="M650,859c-17.81-29.73-27.34-63.53-39.09-96-13.3-31-18.87-64.32-29.84-96-7.41-23.15-11.38-47.19-18.06-70.55-4.87-23.43-4.74-19.76-24.38-31.34l.09.06-.27-.18,0,0c-2.45-2-8.28-4.84-6.41-8.59a1.28,1.28,0,0,1,2.39.47c8.44,6.93,21.41,7,28.5,15.39,11.44,28.23,14.52,59.29,23.55,88.35,7.46,19.93,11.22,40.82,16.89,61.26,11.33,33.63,22.49,67.41,35.09,100.57l-.18-.41c5.28,10.31,9.76,21,14.86,31.39l-.09-.15.21.35-.09-.16c.21.34.43.68.64,1a.22.22,0,0,1-.05-.08C655.5,856.83,652.72,860.93,650,859Z"/><path d="M733.47,701.79a5.17,5.17,0,0,1-1.37-.78l.13.08c-23.46-22.37-40.68-50.33-60.08-76.11-2.21-4.4-15.16-21.45-9.88-24.52,1.27-.21,2,1.27,1.59,2.34a62.85,62.85,0,0,0,4,6.89l-.1-.17c21.79,28.76,44,57.51,67.36,85,1.9-1,3.95-1.81,5.77-3-.3-.4-.61-.78-.92-1.17l.22.26c-1.68-2-3.28-4-4.95-6l.31.38c-4.88-3.29-1.42-13,3.61-7.32a45.1,45.1,0,0,0,4.72,6.63l-.16-.19.3.36,0-.05c3.9,3.75,6.59,9.89.64,13.17C741.3,699.49,737.43,702.32,733.47,701.79Z"/><path d="M736.66,698.87c-4.81-2.41-13.52-10.13-12.21-16.06-2.88-6.17,18.58-18.82,23-24.34,17.37-14.63,31.39-32.9,49.28-46.85,16.43.43-16.67,37.81-21.16,42.55-10.85,10.44-22.73,22.75-38,25.76l-1.55,1C739.23,684.48,745,698.46,736.66,698.87Z"/><path d="M719.38,683.51c-4.78-3,3.35-8.13,5.5-10.56,14.32-16.44,29.85-31.2,48.31-42.92l-.39.33c1.17-1,2.31-2,3.47-3l-.06.05.45-.37-.38.32c4.3-1.89,16.37-15.95,19.78-10.94,2.25,5-11,11.08-14,15.14l.17-.14-.37.31.16-.13c-8.34,8.35-18.81,14-28,21.28C743.59,662,734.86,673,723.55,681c2.26.22,1.6,2.88.63,1.42-1.59-.57-2.71.32-4,1.05h0A1.58,1.58,0,0,1,719.38,683.51Z"/><path d="M754.79,647.62c-2.19-2.13-10.56-15.92-2.64-14.11C754.45,636.15,763,648.24,754.79,647.62Z"/><path d="M756.42,647.14c-2.33-1.64-2.12-5.37-3.64-7.72-.7-1.93-2.37-3.6-2.64-5.61h0c1.83-3.09,5.73,5.55,6.87,6.94C758.61,642.62,760.61,647.48,756.42,647.14Z"/><path d="M682.21,635.71c-1.82-3.88,3.6-6.55,5.83-9,12.06-11.59,24.19-23.09,36.72-34.16l0,0c.56-.63,1.18-1.21,1.71-1.87l-.1.15c1.14-2.2,4.16-3.13,5.76-.9,3.18,6.83-11,14.41-15.15,19l.11-.1-.39.33.23-.2C711.23,613,687,639.46,682.21,635.71Z"/><path d="M670.36,615.66A329.67,329.67,0,0,1,720.9,569c4.17-1.21,5.39,4.92,2.42,7-8.27,6.54-16.13,13.6-24.07,20.57C695.05,598,669.62,626.8,670.36,615.66Z"/><path d="M621.35,779.41h0c-4.37-2.82.47-6.07,3.75-6.57,7.56-3,15.23-5.44,22.49-9.11h0c4.74-1.54,32.56-18.68,26.08-3.6C657,767.71,639.62,777.09,621.35,779.41Z"/><path d="M612.56,758.28h0c-6.08-4.71,7.92-6.4,10.59-8.36l-.37.16c14.07-6.68,29-11.25,43-18.21,1.36-.61,2.76-1.09,4.11-1.71,4.08-1.27,5.5,5.24,2,6.87-8.72,5.45-18.32,9.18-28.11,12.22C633.5,752.45,623.5,758,612.56,758.28Z"/><path d="M653.67,862.74c-1.82.09-3.69-1.3-3.35-3.27.2-1.4-1.51-6.21,1.51-4.8v0a9.41,9.41,0,0,1,1.32,1.76c.69-.16,1.36.35.76,1a8.13,8.13,0,0,0,1.11-.25c-4.42-2.39-5-7.25-6.52-11.56-17.11-3.66,28.11-21.34,31.42-25.09,8.34-5.82,18.54-7.21,28-10.58h-.07c5.61-1.58,11-4.53,16.79-5.25,7.36,3.43-5.38,14.88-8.72,18-13.84,11.87-30.81,21.78-49.3,23.26.46,1.32,1,2.63,1.53,3.91h0c1.52,2.92,3.62,8.69-1.16,9.56l.34-.09c-1.89.5-3.8.88-5.69,1.36l.35-.1C659.19,861.19,656.61,862.83,653.67,862.74Z"/><path d="M646.33,841.58c-6.64-3.66,13.64-11.22,16.42-13,7.57-3.11,14.31-9.77,22.31-11.13,2.44.91,1.46,5.11-1,5.06-11.7,6.45-23.74,12.08-35.75,17.9A1.54,1.54,0,0,1,646.33,841.58Z"/><path d="M652.62,858.41c-2.16-1.72-3.91-11,.47-10.19h0l.08,0-.1,0c1.43.18,1.49,2.44.21,2.94.06,1.47.08,3.41,1.5,4.25l-.08,0a.9.9,0,0,0,.56.1l-.25.07c1.22-.45.25-3.2,2.8-3.24C663.43,854,656.26,862.69,652.62,858.41Z"/><path d="M404.07,569.2c-23.93-1.24-59.89-.89-70.75-26.73-16.74-43.81-16.38-91.79-24.37-137.55,0,.1,0,.19.05.28a30.92,30.92,0,0,1-.61-4.27h0c8-8.58,15.54,73.77,17.58,81.09l-.09-.54c2.6,14.58,4.47,29.35,8.42,43.65l-.15-.49C337.72,542,347.07,555,365.44,558h-.06a140.13,140.13,0,0,0,24.8,4.42l-.41,0c48.19,1.65,96.86-1.52,144.05-11.53l-.4.11c23.7-6.29,48.18-9.68,72-15.23,11.09,8-20.39,10-24.66,11.67-25.16,5-50.07,11.35-75.44,15.2C471.84,567.54,437.91,568.76,404.07,569.2Z"/><path d="M646.16,542.11c-3-3.18-6.47-6-11.1-4.74h.19l-.48,0,.23,0c-3.68-.69-38.85,7.74-32.08-.41,7.28-3.75,16.07-4.47,24.08-6,7.25-1.37,15.64-3,20.88,3.61C651.67,537,651.73,544.35,646.16,542.11Z"/><path d="M556.54,573.84c-11.92-1.86-22.21-8.62-33.23-13-2.78-.91-2.2-5.55.87-5.28,2.73-3.29,10.79,2.1,12.67,4.86,7.26,3.06,14.7,5.8,22,8.73C560.94,570.79,559.2,574.51,556.54,573.84Z"/><path d="M555.33,562c-4.53-2.07-11.33-2.28-13.9-7-.62-2,2.39-3.85,3.44-1.7,3.72,2.61,14.22.91,13.15,7.33A2.25,2.25,0,0,1,555.33,562Z"/><path d="M563.37,555.64a28.41,28.41,0,0,1-4.68-2.64l0,0c-2.22-4.9,4.16-1.9,6.29-1.2,1.94.66,5.56-.23,5.51,2.77C570.18,558.3,565.54,556.64,563.37,555.64Z"/><path d="M579.43,550.76c-1.83-.47-4.27-1.76-4.4-3.82.66-2,3.42.89,5.17.39C582.31,547.74,581.51,551.35,579.43,550.76Z"/><path d="M423.36,471.72c-1-.72-.38-2.62.87-2.47,4.62-2.85,8.51-6.8,13.3-9.39a1.43,1.43,0,0,1,2,.83c.69,2.92-3.59,3.3-5.28,4.77h0c-2.83,1.77-5.52,3.75-8.37,5.49l.13-.08C425.21,471.24,424.29,472.36,423.36,471.72Z"/><path d="M412.5,469.16a1.48,1.48,0,0,1,.55-1.55l-.11.12a52.62,52.62,0,0,1,13.68-10c7.46,1.79-5.95,7.25-7.9,8.93l.19-.11C417,467.2,414.29,471,412.5,469.16Z"/><path d="M400.38,470.78c-3.11-1.47,4.48-5.33,5.39-7.06,1.79-1.28,5.41-6.34,7-2.55.48,1.88-1.42,2.57-2.73,3.31C406.73,466.35,404,469.68,400.38,470.78Z"/><path d="M351.15,555.79c-2.13-.77-7.83-15.16-4.76-16.13,2.84,0,2.85,6.57,4.57,8.66l-.1-.24C351.71,550.28,355.53,555.29,351.15,555.79Z"/><path d="M361.35,559.58c-6.68-5.77-9.67-28.31.73-6a1.37,1.37,0,0,1-.13-.2C363.53,555.18,365,559.52,361.35,559.58Z"/><path d="M372.86,562.73c-1.72-.82-9.16-17.19-4.65-15.9C369.6,549.62,381.22,563.71,372.86,562.73Z"/><path d="M385.66,565.52c-1.88-.34-2.06-2.65-2.85-4.06l.09.19c-1.45-3.08-3.11-6.13-3.9-9.47h0c.41-4,3.51.52,4.16,2.12l-.12-.21.55.9a2.39,2.39,0,0,0-.13-.21C385,557.75,392.35,564.3,385.66,565.52Z"/><path d="M655.4,753.62c-4.22-36.61-5.49-73.57-11.06-110.06-4.48-30.13-8.73-61.85-23.9-88.73l.12.19c-2.93-4.54-5.74-9.47-10.4-12.45-1,1.36-2.47-.47-2.89-1.45-.43-8.91,14.94,8.85,15.57,11.7,14.19,23.73,18.34,52,23,78.83,5.6,39.21,8,78.74,11.33,118.18v-.07l0,.18v0c0,1.5,1.52,4.14-.5,4.82A1.18,1.18,0,0,1,655.4,753.62Z"/><path d="M717.9,601.32c-1.68-6.3-4.29-12.16-6.8-18.15,0,.05,0,.1.07.16-30.89-55.19-33.79-128.65-115.8-117.22l.19,0c-9.89,1-19.57,3.41-29.5,4.14h.19l-3.37.29h-.11c-54.19,7.57-108.95,3.57-163.45,4.22-9.78.77-6-5.33-7.41-12.24A361.85,361.85,0,0,0,382.6,410l0,.11a1,1,0,0,0-.05-.16h0c-.54-1.46-7.63-20.93-2.31-15,4.71,15.43,9,31,11.28,47l0-.18c.14.87.29,1.74.43,2.61,0,0,0-.06,0-.09,0,.22.08.44.11.66l0-.18c1.56,8.95,2,18,2.92,27,.8.07,1.6.17,2.41.25h-.17c45.14-.33,90.43,1.63,135.51-1h0c11.12-1.06,22.19-2.72,33.32-3.71l-.19,0c96.9-19.15,104.49,15.69,138.13,95.11a1.3,1.3,0,0,1-.08-.17l1.21,2.7,0,0,.87,1.93-.07-.16.5,1.11,0,0c3.75,8.22,8.39,16.13,11.27,24.69l-.06-.18C717.87,593.74,721.87,604.37,717.9,601.32Z"/><path d="M372,484.24c-1.44-2.13.8-3.93,2.74-4.46,1.85-.31,9.64-6,9.27-2.13-2.43,2.6-6,3.94-8.71,6.29C374.5,485,372.92,485.49,372,484.24Z"/><path d="M506.21,452.68c-3.62-22.89-10.35-45-17.14-67.12-1.12-.31-.7-1.79-.9-2.67,2.1-4.11,3.74,6.54,4.45,7.93v0l.48,1.6v0a.74.74,0,0,0,0,.14v0a1.33,1.33,0,0,1,.05.19.31.31,0,0,0,0-.08v0l0-.08c1.46,4.68,3.2,9.26,4.64,13.94v0l.48,1.61v0a.88.88,0,0,0,0,.15l0-.09c.16.53.31,1.06.47,1.58v-.05l.12.42h0l0,.05v0C499.27,413.11,512.84,459.16,506.21,452.68Z"/><path d="M80.63,643.34c-7.34,1.1-8.17-8.45-1.38-9.66,3.29-.13,6.6.13,9.9-.1,35.83-2.58,71.55-7.09,107.52-7.75l-.68,0c62.08-2.92,123.82-10.67,186-12.19h-.19c37.61-2.53,75.27-.66,112.91-1.37h-.09c6.48,1,42.09-5.47,41.23,2.39-.07,1.51-1,3.88-2.92,3.11-50.37,5.51-101.1,2.23-151.6,5.44-65.6,1.77-130.73,10.65-196.28,13l.41,0C150.41,637.05,115.64,642.5,80.63,643.34Z"/><path d="M72,706.64c-3.88-11,24.71-8.67,31.33-10.28,20.73-1,41.38-2.62,62-4.69,84.65-8.18,169.58-12.38,254.5-16.6h-.05l.59,0h-.42l.69,0h-.17l2.3-.08-.69,0,2-.08-.69,0c8.47-.34,16.94-.49,25.41-.76h-.06c15-.63,30-1.39,45.07-1.82l-.67,0c14.75-.42,29.41-2.11,44.1-3.43,5,.46,17.71-4.89,15.74,4-4.91,7.38-35.58,6.33-45.49,8.41q-41.61,2.42-83.28,3.62c-65.3,3.33-130.64,6.26-195.83,11.44-40.9,3-81.67,7.89-122.65,9.57C99.37,704.93,73.06,711.71,72,706.64Z"/><path d="M104.77,777.61a150.31,150.31,0,0,1-18.27-1.45c-4.36-1.66-2.6-8.29,1.51-9.09,18.93.69,38,.93,56.94-1,47-3.7,93.5-11.9,140.58-14.55,53.18-3.6,106.38-6.77,159.27-13.63,5.66-1.29,15.56,1.42,8,8.11-7.54,2.08-15.75,1.82-23.48,3.32-54.74,7.93-110.1,9.58-165.18,13.88C211,767.53,158.25,777.91,104.77,777.61Z"/><path class="cls-2" d="M507.4,283.58c-3.92-11.83-6.68-24.9-12.31-36.41v0c-1.16-2.7-4.79-7-2.87-9.66,2.15-.3,2.16,3.2,3.27,4.49C498.62,245.91,516.7,284.68,507.4,283.58Z"/><path class="cls-2" d="M577.52,290.11a33.8,33.8,0,0,1-1.24-9.49v0a14.26,14.26,0,0,1-.1-2.16h0c2.2-3.18,1.74,6.68,2.59,7.89.2,1.4,2,3.41.17,4.34A1,1,0,0,1,577.52,290.11Z"/><path class="cls-2" d="M579.71,271.21h0c-7.23-4.13,34.95-8.33,38.27-10.13h0l.32-.06h-.06l.4-.08-.32.06c3-.43,16.25-3.86,10.78,2.83C612.87,267.15,596.15,268.81,579.71,271.21Z"/><path class="cls-2" d="M260,421.31c-5.75-.61-11.56-.53-17.31-1.18l.26,0-.48,0h0l-.26,0h-.05l-.26,0H242c-11.26-1.19-23-1.81-33.92-4-1.37-1.53,1.48-3.93,2.71-2.29,9.23.34,18.34,1.69,27.58,2.16l-.25,0c6,.42,12.05.42,18.06.95l-.27,0c2.09.53,7-.62,6.47,2.79A2.25,2.25,0,0,1,260,421.31Z"/><path class="cls-2" d="M464.52,314.37c-2.61-.49-1.46-4.5.89-4.36a42.2,42.2,0,0,0,21.06-4.3l-.16.09c1.4-.72,2.72-1.59,4.08-2.4.32-1,1.93-1.19,2.09,0-.41,1.93-3.08,2.88-4.5,4.18C480.87,311.76,472.86,314.61,464.52,314.37Z"/><path class="cls-2" d="M355.87,318.73c-10.05-.31-21.88-3.23-28.08-11.72l0,.05-.06-.08,0,0a1.06,1.06,0,0,0-.15-.15c-.81,0-.7-1.2,0-1.35s1.37.45,1.84,1c4.12,4.35,10.26,6.1,15.88,7.66l-.2-.05a38.65,38.65,0,0,0,6.41,1l-.22,0c4.4.55,8.79-.15,13.18.15a1.45,1.45,0,0,1,1.16,1.69C364.29,320.27,358.84,318,355.87,318.73Z"/><path class="cls-2" d="M343.67,200.55c-3.7-5.73-8.37-11-11.52-17-.09-1.68,2.76-2.22,3-.44,1.22,1.56,2.39,3.16,3.61,4.72l0,0,.13.17,0,0c2.31,2.79,4.73,5.49,6.84,8.43l-.16-.2c.13.17.27.33.4.49,1.18-2,2.21-4.08,3.26-6.15l0,0,.34-.68-.11.23c1.3-2.39,2.06-5,3.24-7.45a1.6,1.6,0,1,1,2.82,1.47C352.77,187.26,349.08,205.27,343.67,200.55Z"/><path class="cls-2" d="M415.29,196.77c-9.8-13.08-12.05-24,1.28-3.51,1-1.89,1.53-4,2.57-5.84a1.53,1.53,0,1,1,2.43,1.84C419.54,191.41,419.27,198.06,415.29,196.77Z"/><path class="cls-2" d="M441.26,383.23c-4.58-19.8-9.34-39.59-13.09-59.57a1.55,1.55,0,0,0,0,.21c-1.67-6.62-3.09-13.27-4.33-20l0,.22c-4.88-26.05-11.89-51.59-19.34-77a1.8,1.8,0,0,0,.08.21l-.69-1.88a.88.88,0,0,1,0,.15,197,197,0,0,1-6.9-22.77v0c-.15-2.15-1.55-4.86-.29-6.79a1,1,0,1,1,1.67.95c9.52,32,20.94,63.62,26.63,96.68l-.05-.22c3.85,18,7.23,36.18,11.19,54.2h0C436,350.31,448.94,391.36,441.26,383.23Z"/><path class="cls-2" d="M284.51,283c-1-3.31.89-7.1.77-10.58v.06c.4-1.57-.61-4.68,1.47-5.11a.92.92,0,0,1,.88,1.09A84.5,84.5,0,0,1,286,279.09s0-.07,0-.11c-.18.92-.34,1.84-.43,2.78v0s0,.07,0,.1v0C285.76,282.47,285.33,283.46,284.51,283Z"/><path class="cls-2" d="M290.24,280.71a.57.57,0,0,1,.07-.68h0a5.31,5.31,0,0,0,.23-.55h0c1.52-2.72,2.2-11.31,5.49-11.4a1.45,1.45,0,0,1,.5,2.29C294.13,272.16,292.06,281.07,290.24,280.71Z"/><path class="cls-2" d="M303,355.07c-2.29-1.85,7.67-5.85,9.37-6.36,2.74.21.45,2.66-1.22,2.66l.15-.06-.69.24.15-.05-.16.06h0a59.15,59.15,0,0,0-5.49,2.53l.12-.06-.36.17.12-.05-.62.31.07,0c-.36.18-.71.39-1.08.55h0a1,1,0,0,1-.42.11Z"/><path class="cls-2" d="M305.55,361.43c.3-2,3.43-2.31,4.91-3.42l-.14.07c2.5-1.18,4.73-2.87,7.3-3.9,4.16.9-1.87,3.62-3.32,4.22l0,0C311.69,359.18,308,362.63,305.55,361.43Z"/><path class="cls-2" d="M310.47,370.48c-2-.41-1-3.46.8-3.21,2.23-1,8.27-5.78,9.64-2.3a1.7,1.7,0,0,1-1.41,1.64C316,366.77,313.61,369.79,310.47,370.48Z"/><path class="cls-2" d="M307.27,93.53c-3.14-.19,2.67-16,3.76-18.29a.86.86,0,0,1,.89-.76c1.2.49-.31,1.85-.4,2.67l0-.09a19.05,19.05,0,0,0-.51,1.87.53.53,0,0,0,0-.12C309.59,82.43,310.56,92.06,307.27,93.53Z"/><path class="cls-2" d="M314.22,96c-1-1.5,2.95-24.14,4.37-18.64-.63,3.32-1.12,6.69-1.42,10.06v0a1.09,1.09,0,0,0,0,.18v0c0,.25,0,.5-.05.74v-.18c-.91,2.76,1.73,7.66-1.43,9A1.31,1.31,0,0,1,314.22,96Z"/><path class="cls-2" d="M323.44,105.32c-.83-.41-.78-1.41-1-2.19v0a33.69,33.69,0,0,1,.64-17.68h0c2.61-1.24.69,6.45,1.24,8C323.44,96.67,329.07,105.84,323.44,105.32Z"/><path class="cls-2" d="M341.6,40.25c4.58-3.3,9.7-6.78,15.34-8.28a1.06,1.06,0,0,1,1.37.87c-.67,3-5.64,1.84-7.76,3.69l.12-.06C348.84,36.77,342,42.84,341.6,40.25Z"/><path class="cls-2" d="M349.76,43.73c-1.3-.73-.25-2.81,1.08-2.56l.32-.15h0c3.32-1.11,11.49-8.52,14.06-5-.71,3.31-7.25,3.18-9.83,5.44l0,0-.17.09,0,0C353.51,42.19,351.73,44.09,349.76,43.73Z"/><path class="cls-2" d="M360,46.22h0c-1.83-.35-1-3.2.7-3,3-.8,9.9-7,12-4.14a1.91,1.91,0,0,1-1.33,2.27C367.37,42.41,363.72,44.87,360,46.22Z"/><path class="cls-1" d="M1317.92,1624.77c-7.35-5.17,10.82-50.53,13.85-59.8-68.19,7.86-136.89,9.63-205.36,14.15-75.19,4-150.21,10.43-225.34,15.33l.74,0c-33.9,2.27-67.89,2.89-101.78,5.29l.3,0-1.3.08h0c-32,1.9-64.11,3.41-96.18,5-30,3.48-26.5-.67-35.32-27.68-12.55-50.58-22.58-101.83-31-153.24a5,5,0,0,0,3.81-2.09,4.68,4.68,0,0,0,3.18.21c-.77,2.75.61,6.09,3.65,6.51,4.56,32.67,12,64.85,19.07,97,5,23.69,9,48.21,19.12,70.35,166.09-8.06,332-21.15,498-30.64l-.76,0c51.41-4,103.1-4.57,154.22-11.69,10.79-1.91,7.24,7.8,4,13.61-6.1,14.37-10.64,29.38-14.9,44.37,16.48-14,34.8-25.67,52.36-38.27,19.25-14.14,15-20.5,41.77-20.12,77.6-3.11,154.38-13.88,230.6-28.11,3.11-27.78,1.13-55.9,2.33-83.8,2.49-55.77,1.67-111.54-.74-167.29-3.78-34.2,1.4-72.1-10.26-104.62a411.28,411.28,0,0,0-74.27.3c-4.87,29.95-20.37,35.41-48.2,36.48-26.14.81-52.29,1.11-78.4,2.78-29.82.41-59.5,4.4-89.34,3.3-4.26-.3-10.76-1.28-11.35-6.44-1-10.09.87-20.19,1.81-30.22,0,.21,0,.42,0,.64.6-13.52-2.78-28,16.48-24.7,30.78-2.92,62.25-2.74,92.36-10.41,1.62-12.38,3.23-24.8,4-37.27v.06c2.1-25.17,6-50.17,6.6-75.45-12.44,26.09-27.67,50.73-42.63,75.43-4.67,4.45-11.15,25.6-18.91,18.46-24.88-1.69-46.12-17-69.48-24.32-29-12.84-59.42-22.37-88.7-34.55l.5.2c-13.47-4.22-26.93-8.5-40.1-13.62l.11,0c-6.08-3.45-39.11-11.62-34.71-20,14.78-22.82,30.68-44.88,44.66-68.22-14.11,15.26-29.8,28.63-45.71,42l.11-.09-.36.31,0,0,0,0,0,0h0c-17.08,13.21-37,27.63-59.63,25.92l.54,0c-38-5.11-44.2-51.6-51.37-82.17,0,.19.08.39.12.58-5.5-20.53-4.64-41.83-3.09-62.82-.29-12.89-.74-25.82-.69-38.76-.19-8,10.07-5.29,15.2-7.42,15.65-3.65,31.61-2.45,47.44-3.75,1.69-4.49,8.67-3,7.34,2h0l0,.32v0c0,.06,0,.12,0,.18a.57.57,0,0,1,0-.13,29,29,0,0,0-.11,4.06l0-.55c.89,15.15,5.59,29.63,8.28,44.48,1.75,4.35,4.22,36.22,11.67,28.68A89.29,89.29,0,0,1,1158.23,895c11.35-15.06,23.06-29.84,34.7-44.64v0c30.26-33.13,56.56-77.58,103.11-88.55,17.62-1.85,34.14,7.63,50.54,12.76,2.26-4.66,3.15-14.49,10.34-12.69,4.57,1.51,10.54.85,14.09,4.38,3.38,6-.36,12.84.9,19.15-1.07,10-2,20.07-.47,30.3,14.66-5.16,30-8.12,45.23-10.76l-.58.12c5-1,10-2,15.06-3l-.38.09,2.72-.55c.65-24.06,4.14-21.09,25.86-23q14.61-.95,29.11-3.08c5.16-.47,4.28,3.79,3.64,7.22,35.44,14.47,84.22,32.47,88.65,76.36,0-.11,0-.21,0-.32,0,.18,0,.37,0,.55h0v.13h0l0,.43v0h0v0s0,.05,0,.08h0c0,.19,0,.38,0,.56,0-.1,0-.22,0-.33-.48,30.85,3.35,61.54,2.49,92.38a131.29,131.29,0,0,1-2.72,26.29c-.24,13.38.21,26.79-1,40.13h0c-6.06,48.21-1,97.46-11,145.12,23.82-6.47,48.72-4.72,73.11-5.11,10.35-1.27,13.7,11,14.88,19.08,7.25,57.62,7.09,116.05,8.86,174-.67,42.84-1.74,85.65-2.83,128.48-1,13.36,2.63,44.31-6.68,53.21a1458.74,1458.74,0,0,1-240,29.66h0c-4.54.29-9.06.55-13.6.72-14.59,14.81-32.6,25.36-49.41,37.4C1344.8,1605.32,1323.88,1627.57,1317.92,1624.77Zm-203.78-784.1c0,.89,0,1.79,0,2.71,0-.91,0-1.81.06-2.72Z"/><path class="cls-1" d="M627.5,1377.24c-8.71-53.75-19.93-108-18.4-162.58,1.49-5.78,30.67-8.58,37.66-11,27.33-6.42,53.89-16.23,82-19.11a81.76,81.76,0,0,0-3.87,10.81c-36.26,4.89-70.7,18-106.71,24.39.4,53.83,10.45,106.75,19.52,159.66a113.21,113.21,0,0,0-7.49,12.64C629.32,1387.14,628.4,1382.19,627.5,1377.24Z"/><path class="cls-3" d="M821.33,1587.93h0Z"/><path class="cls-3" d="M768.6,1179.13c0-.1.07-.21.1-.32l.24.1c-.17.23-.33.46-.49.7Z"/><path class="cls-3" d="M1166.38,1004Z"/><path class="cls-3" d="M1166.39,1004h0Z"/><path class="cls-3" d="M1309.07,771h0Z"/><path d="M1439.84,685.8c-9.23-1-25.47-6.26-21.88-18.28-.45-14.5,28.75-12.49,37.06-6.41C1470.12,672,1455.11,689.82,1439.84,685.8Zm7.05-4.41c17.84-3.36,7.12-18.73-6.05-18.56h0a33.14,33.14,0,0,0-14-.1l.09,0-.72.17.29-.07a12.44,12.44,0,0,0-3.33,1.37c.17,3.58-2.78,8.18,1.9,10.4l-.28-.21c4,3.13,8.54,5.84,13.73,6.34h0A31,31,0,0,0,1446.89,681.39Z"/><path d="M1428.26,677.12c-4.07-4.19.76-13.5,6.63-12.22C1444.39,669.51,1437.9,684.49,1428.26,677.12Z"/><path d="M1417.23,685.2c-2.89-3.26-6.22-7-5.67-11.68-.13-1.15.69-3.11,2.08-2.18.79,2.61.4,5.8,3.07,7.76,1.21,1.68,4.79,3.3,3.07,5.69A1.8,1.8,0,0,1,1417.23,685.2Z"/><path d="M1364.26,663.89a24.83,24.83,0,0,1-4.88-1.19l.19.06c-3.92-.32-2.45-5.68.55-3.45,1.78,1.21,6.51.12,6,3.23A1.85,1.85,0,0,1,1364.26,663.89Z"/><path d="M1535.32,687.17c-1.42-2.06.31-4.93-.14-7.31,0-1.79-1.33-5.38,1.68-5.17C1539.74,675.86,1540.3,689.73,1535.32,687.17Z"/><path d="M1541.31,687.36c-1.42-2.31.3-5.48-.14-8.11.13-2-1-3.88-.68-5.79C1544.79,667.94,1547.44,691,1541.31,687.36Z"/><path d="M1546.61,687.53c.88-4.09.12-8.34.49-12.31a1.62,1.62,0,0,1,2.89,1.45C1550.92,679,1551.05,693.61,1546.61,687.53Z"/><path d="M1489.73,790.72c-8.37-2.44,14.21-65.3,17.64-73.82-1.83-.36-3.64-.81-5.48-1.14l-.35-.07.13,0-1.37-.23c-3.8,6.84-8.33,13.18-12.77,19.6l0,0-.23.32,0,0a67.31,67.31,0,0,1-67.44,28.88c-13.34,2.88-31.34-4-43.08-10.77-.55,10.35-2.16,20.6-3.69,30.84-.39,2.45-3.23,4.55-5.58,3.14-4-5,1.33-14.72.84-21v0c.54-5.1,1-10.21,1.19-15.34-8.38-3-16.72-6.6-23.83-12h0l-.3-.21.08.05-.72-.53.37.28c-20.49-14.07-16.61-28.75-7.94-48.67l-.09.25c4.11-11,8.28-22,12.36-33.08-.07.17-.13.35-.19.52,1.87-5,3.83-9.93,5.75-14.89a1.8,1.8,0,0,1-.08.21l.47-1.22s0,0,0,.05c0-.16.12-.32.17-.47h0c1.22-3.27,2.37-6.57,3.6-9.84l0,.05a285,285,0,0,1,15.46-35.39c-7.22-9.14-11.55-23.05-9.15-35,6.75-35.58,59.84-26.41,83.76-14.8,8.24-6.7,17.53-14,27.76-16.94,20.24,5.23,38,18.06,53,32.34,17.78,17,37.9,33.5,47.11,57,2.12,5.32-5.51,12.18-7.74,17.13h0c-2.55,4.1-5.32,8-8.23,11.87,10.07,26.58,10.56,63.39-15.72,80.65l.21-.11-.45.24.1-.05a36.33,36.33,0,0,1-35.71-.5c-5.67,19-11,38.08-15.89,57.3C1493.43,787.69,1492.76,791,1489.73,790.72ZM1512,719.19c-.33,1.37-.67,2.73-1,4.09,38.14,12.25,55.6-24.13,47.35-56.72-4-23.9-18.38-44.61-34.76-61.9l.34.36-1.06-1.11,0,0c-12.52-11.83-25.23-23.91-39.82-33.18-14.72-8.73-30.65-15.23-46.32-22l.06,0-.72-.24.38.13c-36.16-13.54-86.4-7.35-58.44,41.81.61-1.05,1.18-2.13,1.75-3.21-1.45-4.81.54-10,2.79-14.2l-.24.45c1.13-4,4.64-5.17,8.41-5.43l-.24,0a83,83,0,0,1,17.26-.47h-.34c29.46,1.89,73.14,20.52,95.4,39.87l-.29-.31c1.37,1.4,2.76,2.76,4.1,4.17l-.29-.3a76.88,76.88,0,0,1,17.31,45.53c0,10.76.38,21.86-2.68,32.26,17.9,9.51,12.54,31.15-8.55,28.73C1512.28,718.1,1512.13,718.65,1512,719.19Zm-85.78-11.27c43,18.82,58.13-40.14,71.82-69.08-14,5.22-24.56-6.64-23.23-20.28-13.12,5.05-25.75-4.63-28.16-17.68-10.21,8.38-26.76,4.89-27.92-9.64-6.85,5-18,3.84-20.64-5.19-3.47,4.43-9.6,8.26-15.16,5.31-5.35,11.72-10.13,23.68-14.79,35.7v0l-.06.16,0-.05q-1.23,3.35-2.48,6.69c6.3-2.82,14.36-2,19.29,3h0l.25.26L1385,637a16.93,16.93,0,0,1,5.16,15.37c4-1,6.94-13.69,10.62-9.4.71,2.51-.72,5.13-1.72,7.38-4.79,10.57-17.58,11.93-26.7,17.21l.38-.2c-1.17.72-2.63,1.33-3.25,2.64,3.24,7.7,14.3,7.15,21.21,5.61,1.84-.22,4.1-2.62,5.54-.45,1.32,4.91-6.92,5.62-10.24,6.75-17.56,4.94-34.52-13.8-11.89-22.29-5.85-.69-11.91-4.15-14.77-9.41-2.2,5.42-4.23,10.91-6.24,16.4l0,0-.19.49v0l-.42,1.1.2-.51c-.79,2.11-1.63,4.19-2.46,6.28,23.91,9.74,47.87,19.53,70.74,31.64l-.34-.18A57.25,57.25,0,0,0,1426.22,707.92Zm88.33-14.22c-5.4,3.85-7.71,10.53-10.93,16.09,6.86,1.23,16.37,3.94,21.89-1.58,2.15-6.7-3.2-13.08-9-15.73C1515.84,692.88,1515.19,693.28,1514.55,693.7Zm-152.93,15.11c4.36,5,11.66,1.13,15.38-2.79-5.65-1.08-10.18-4.72-15.55-6.48-.44,2.59-1.72,5.57-.51,8.06l0,0A13.81,13.81,0,0,0,1361.62,708.81Zm13.73-66.76c7.23.31,5.27,10.76.38,13.18,1.21,0,2.41-.13,3.61-.26h0a14,14,0,0,0,5.57-1.54h0c3.11-10.89-11.45-20.32-21-14.95-2,5-1.24,11.63,4.21,14.06C1364.59,647.64,1369.92,641.29,1375.35,642.05Zm160.11-36a158,158,0,0,1,23.3,35.49l1-1.26c-3.7-5.24-4.78-11.87-8.72-17,2.49-6.1,10.38,10.79,11.45,13.12.44-.76.9-1.51,1.39-2.23-2.45-4.59-4-9.69-6.89-14.09-.24-4.41,5.23,2.47,5.92,3.78l-.13-.18.47.67-.07-.09.09.12h0a29.11,29.11,0,0,1,3.3,5.86c.6-1,1.16-1.93,1.71-2.91-1.28-2.27-1.81-4.88-3.2-7.08l.05.07-.31-.44c.05.06.09.13.14.2a22.12,22.12,0,0,0-1.94-2.27l.16.16c-6.8-5.48-2.46-9.46-1.21-6,3.29,3.5,7.31,6.19,8.93,11,.32-.47.67-.92,1-1.38-9.61-25-71.41-85.59-98-84.63l.37-.19c-6.85,3.77-13.83,7.36-20.25,11.84,29.44,10.63,54.64,29.37,76.23,51.77L1530,600C1531.85,602,1533.69,604,1535.46,606Z"/><path d="M1390.57,620.1c-5.9-.51-10.79-3.74-15.87-6.32l.16.05c-2.35-.56-3.19-3.56-1.89-5.49a5.46,5.46,0,0,1-1-.16h0c-6.87-7.94,14.41-4.46,17.48-2.23C1398.3,608.79,1404.81,621.48,1390.57,620.1Z"/><path d="M1464.16,647.13c-5.9-1.43-11-5-16.23-7.82l.42.21-.77-.4.25.13c-4.89-2.68-12.56-5-13.58-11.19.39-5.33,6.6-6.55,11-5.83,6.18-.65,31.24,15.89,23,21.58A3.31,3.31,0,0,1,1464.16,647.13Z"/><path d="M1466,646.3c-2.12-.64-1-3.07-.82-4.6-1.23-2.14,2.67-4.56,3.55-1.86C1469.45,642.05,1469.15,646.64,1466,646.3Z"/><path d="M1114.06,836.41c0-3.54-.61-7.06-.57-10.61,0,.16,0,.33,0,.5-.54-22.12-1.35-44.41.44-66.49-1.31-5,13.36-38.43-.4-26.28.09-.12.19-.23.28-.34-8,8-3.66,21.69-12.45,25.8l.27-.21c-5.11,1.21-10.15,16.52-12,11h0c.49-6.06,4.52-11.3,9.08-15.06l-.13.12,2.33-2.13c.76-8.32,3.09-16.86,8.42-23.46l-.17.19.28-.33,0,0c4.89-7,15.88-6.77,16.43,3.08.27,6.29-2.91,12.14-4,18.26-3.57,16.72-1.77,33.93-2.22,50.88,0-.17,0-.34,0-.51.06,1.86.17,3.73.23,5.59,0-.09,0-.17,0-.26-.22,10,.47,20,.51,30C1120,839.94,1114.22,840.61,1114.06,836.41Z"/><path d="M1043.34,764.63c-5.17-2.1-14.6-6.41-8.39-12.84-5.39-3.12-11.89-13.58-2.83-16.29-10.68-7.6,2.33-18.92,11.36-13.5,2.69-.32,2,4.18-.43,3.57-3-1.34-6.59-1.4-9.22.84-4,4.92,8.7,5.16,7.91,10-.89,4.07-6.16,2.58-9,4.12,2.08,3.64,5.79,5.48,9.55,6.92a3.59,3.59,0,0,1-.57,6.85l.37-.1a12.42,12.42,0,0,0-3.35,1.31,38.35,38.35,0,0,0,6.26,2.27l-.39-.13C1049.22,758.31,1047.68,765.54,1043.34,764.63Z"/><path d="M1058.24,845c-3.64-6.83-1.77-16.24-2.86-24-.09-13.45.66-27.29,1.34-40.47-.32-2.17.75-6.07,3.6-4.69h0c4.79,9.43,1.6,21.56,2.54,31.92-.16,11.77,1.31,23.76,0,35.42h0C1062.23,844.89,1059.87,846.16,1058.24,845Z"/><path d="M1048.26,777.16a4,4,0,0,1-2.7-2.71l.18.38c-5.17-20.56-4.62-42.29-5.17-63.39-.62-13.16-1.21-26.32-.83-39.51.31-2.63-.5-6,1.57-8,4.8-2,2.91,6.78,3.79,9.42,1,12.48,2.09,25,3.1,37.44.37,15.57,1.85,31.1,3.23,46.61C1051.13,763.38,1058.45,777,1048.26,777.16Z"/><path d="M1050.26,776.21c-6.47-9,26.15-8.83,31.4-12h0c4-1.46,12.75-3.13,10.5,3.95C1086.89,774.55,1058.06,778.9,1050.26,776.21Z"/><path d="M1105.37,734.68c-3-26.15-6-52.29-8.24-78.52-10.64-.21-21.14,1.41-31.7,2.46l.45,0c-6.89.63-13.58,2.31-20.32,3.71l-.06.63v-.09c-.1,1-.2,2.1-.31,3.15l0-.38c-.25,2.58-.11,5.25-.85,7.75h0c-3.88,4.19-3.44-4.78-3.93-7-.38-4.39-1.93-11.3,4.61-11.23,17.73-4.31,36.48-7.45,54.71-5.21l-.08,0,.18,0h0c4.73,2,2.84,9.59,4.21,13.82a331.4,331.4,0,0,1,5.35,40.43V704c0,.19,0,.37,0,.56v-.1c0,.2,0,.39,0,.58,0-.19,0-.37,0-.55,0,.51,0,1,0,1.54v0c.12,3.4.49,6.78.6,10.18,0-.17,0-.35,0-.52.58,5.82-.27,11.68.37,17.47C1110.94,736.12,1106.24,738.11,1105.37,734.68Z"/><path d="M1042.07,669.91a1.83,1.83,0,0,1,1.79-2.27h0c.83-.26,2.22-1.19,2.79-.14,14.67-2.15,29.3-4.48,44.1-5.52h-.06c1.87-.18,3.76-.24,5.62-.6h0a2.28,2.28,0,0,1,2.62,3c-1,3.42-8.9,1.55-12.13,2.54h0c-10.47.72-20.75,2.73-31.21,3.65l.27,0C1051.76,670.38,1044.86,673.72,1042.07,669.91Z"/><path d="M1054.3,764.3c-3.47.72-7.77-2.58-3.11-4.46h0c15.19.12,30.08-4.79,45.18-5.48,3.91-.29,3,5.77-.6,4.93C1081.86,759.84,1068.21,763.65,1054.3,764.3Z"/><path d="M1086.1,768.18c.69-4.29,4.66-9.39,8.73-10.81,2.51.55,1,3.54-.2,4.69C1094.13,764.69,1088,774.47,1086.1,768.18Z"/><path d="M657.94,1489.54a45.93,45.93,0,0,1-9.73-4.37h0c-21.55-7.4-12.61-11-3.55-25.8-26.58,18.3-67.88,16.47-89.13-9.22-3.52-6.5-15-21.23-5-26.19,8.41.88,16.6,4.68,25.36,4.27,12.55,1.83,25.24,5,38,3.66,3.43-4.89,5.48-10.63,9.25-15.27-9.72-5.26-4.18-12.41-1.17-20.08,7.32-17.56,16.52-34.28,22.88-52.26,24.43-56.27,52.93-110.73,79.56-166a4.17,4.17,0,0,1-.34-.38c-12.25-3.2-23.71-9.55-32-19.27-3.5-4.2-9.21-14.48-1.58-17.24,17,1.82,33.78,6.46,51.06,6.12a4.3,4.3,0,0,1,3.2-.48c7.69-8.3,18.35-12.67,28.8-16.38,15.23-43,30.4-86.15,45.14-129.36,16.76-42.69,33.06-87.71,64.08-122.38l0,0,0,0-.17.16a66.2,66.2,0,0,1,6.5-5.56l-.43.33,1.69-1.31-.43.34c20.91-17.91,44.51-20.77,69.1-8.6,35.71,14.68,64,42.22,95.39,64a20.55,20.55,0,0,0,.4,7.65c-5.53-3.92-11.32-7.46-16.9-11.31l.35.24-.88-.6,0,0a2.9,2.9,0,0,0-.29-.19l-.07-.06,0,0c-24.63-16.65-47.09-37-74.13-49.74l-.45-.21.31.15c-19.52-9.28-39.74-15.91-59.48-3.13l.08-.05-.8.47.06,0c-8.81,5.69-17,12.47-23.21,21l.32-.42c-15.07,20.27-27.06,43.09-36.86,66.33.06-.15.12-.3.19-.45-20.52,46.8-34.9,96-53,143.77,12.54,5.21,25.86,8,38.55,12.56,15.31-3.33,30.68-6.43,46-9.69a3.57,3.57,0,0,1,.58-2.44c0,.08-.1.16-.14.24,16.57-35.19,34.34-69.81,50.21-105.36,2-10.66,22.2,7,27.24,9.46,10.58,7,21.63,13.21,31.86,20.74l-.26-.18c29.08,18.94,59.86,35.2,90.84,50.77l1.1-.11h0c8.14-.1,20.37-4,27.41.06a3.72,3.72,0,0,1-2.75,5.89h0c-36.2,2.22-71.94,8.26-107.79,13.47h.1l-.32,0,.17,0-.32,0,.1,0-1.94.22h.1c-25.67,2.7-51.21,6.37-76.9,8.9l.28,0-.36,0h0l-.17,0h0l-2.55.28h0l-.33,0h0a753.5,753.5,0,0,0-112.62,23.52c-30.52,9.1-50.31,13.61-64.8,44.83-32,66-65,132.56-93.7,200.4,12.32,7.19,26.15,12.31,39.46,17.42,17-37.84,35.64-75.14,57.49-110.42,26.52-46.09,67.11-87.89,121.58-97,82.63-15.21,167.1-18.14,250.87-14.26H1109c21.82-4.19,43.82-8.48,66.07-10.45h0l.37,0h-.1l1.78-.2h0l2.48-.28h0l.26,0h0l.8-.09h0c27-2.73,54.08-3.61,81.11-5.37,0-2.92,3.48-2.18,5.42-2.55l-.08,0c4.71-.55,9.3-1.69,14-2.25l-.08,0a1.81,1.81,0,0,1,.23,0h0l.12,0h0a48.17,48.17,0,0,0,5.25-1.24h0l.21-.06,0,0,.24-.07h0c10.62-3.85,21.8-6.62,31.49-12.6l-.33.2,2.79-1.65-.12.07.54-.31c-10.3-11.63-21-28.44-16.23-44.35-32-10.85-63.82-22.41-94.84-35.94,0,1-.33,2.35-1.58,2.43l-.64.52h0c-16.73,10.7-35.85,18.35-55.13,23-2.94,0-2.71-4.16-.21-4.86,1.32-.48,2.74-.74,4.09-1.11h0c7.17-2.28,14.42-4.38,21.35-7.35l-.36.15,5.13-2.19h0c4.58-2,9.26-3.72,13.85-5.67l-.31.13.69-.29-.3.12a87.64,87.64,0,0,0,8.84-4.53l-.25.15c.82-.48,1.61-1,2.44-1.47-3-1.62-59.19-19.33-39.83-22.11h0c70.41,28.16,142.84,51.57,213,80.44l-.1-.06c7,3.25,14.59,5.12,21.63,8.31,9,.4-8.48,25.73-11.06,29.36-2.91,0-5.8.13-8.7.33,5-7.93,10.73-15.39,15.36-23.58-14.94-4.29-28.7-11.53-43.31-16.72-6.65,11.34-17.13,20.56-28.31,27.42l.31-.18c-13.89,9.79-30.58,13.9-47,17h0l-.57.08.23,0c-.7.1-1.4.2-2.09.35,17.94-2.09,36-2.07,54-1.84H1331c4.4.17,8.79.71,13.18,1.08.17,2,.37,4.08.45,6.12-1.26,0-2.51,0-3.77-.07h.06c-53.94-1.29-107.9,4.63-161.74,7.94h.06l-.51,0h0l-.3,0h0l-.89.09h0l-.17,0h0l-8.3.87.19,0-.35,0h0c-18.58,2.18-37.18,4.47-55.38,8.94l.37-.1-1.13.29h0c-11.12,2.38-21.23,7.79-30.22,14.66h0l-.27.19.12-.08a14,14,0,0,0-6,8.33,5,5,0,0,0,3.55-.14h0c5.38-2.31,9.27-7,14.41-9.71,3.38-1.89,18.72-8.06,14,1-6.94,6-18.64,9.46-20.77,19.31,4.05.38,40.13-26.11,32.16-10-8.83,4.62-20.75,9.41-23.22,20.09a2.51,2.51,0,0,0,1.58.12l-.33,0c11-2.92,19.64-12.73,31.22-14.11,5.22,3.3-4.61,8.32-5.72,12-2.47,4.47-6.31,9.1-5.68,14.49,2.79,3.05,6.32.59,8.3-2,3.29-5,8.61-8.78,11.06-14.16,1.65-3.29,5.61-2.19,8.57-2.19h0c65.05-2.27,130.18-5.82,195.16-9.69q-.18,3.9-.09,7.8c-66.11,5-132.57,6.78-198.81,9.72-6.4,4.18-10.67,10.48-16.37,15.4h0c-3.8,3.1-11,2.13-12.65-2.84-1.62-7.38,3.72-13.91,7.27-19.88-8.34,3.25-15.74,12.1-25.27,10.75-5.11-1.72-3.28-8.22-1.16-11.69-11.47,6.79-14.7-4.41-7.72-12.38-3.2,2.11-7.18,4.15-11.07,3-18.69,5.73-39,5-58.41,7.21-28.48,2.7-56.86,6.39-85.37,8.91-19,2.76-92,4.69-101.06,17.54-32.76,35.44-52.18,80.14-77.56,120.59-8.83,15.88-19.93,30.37-27.56,46.93-4.4,9.28-9.24,18.34-14.16,27.36-2,3-2.44,8-6.41,9.11-3.2,7.36-15.15-1.79-21.09-2C680,1447.93,665.51,1493.16,657.94,1489.54Zm19.86-83.9c-3.38,7.1-7.24,14-10.89,20.93,11.12,4,22.45,7.12,33.75,10.46,3.68-8.58,8.54-16.59,12.62-25-11.34-2.6-21.91-8.13-33-11.78C679.45,1402.05,678.64,1403.85,677.8,1405.64Zm-14.41,19.78c4.35-8.75,8.68-17.52,12.64-26.45-5-1.17-9.48-3.8-14.1-6l.38.18-.78-.36,0,0c-7.94-4.44-17.16-6.66-24.2-12.57-4.71,9-8.52,18.51-12.7,27.8,9.58,7.91,22.35,10.77,33.6,15.66h0C659.94,1424.28,661.67,1424.85,663.39,1425.42Zm65.78-122.54c-16.53,29.75-32,60.06-46.12,91,11,3.95,22,8.59,32.79,12.83,1-2,2-4,3-6l0,0c9.47-19.18,22.25-36.42,32.95-54.91l-.32.48c.38-.57.77-1.14,1.15-1.72l0,0,.65-1h0l0,0h0l.07-.11a.56.56,0,0,1-.05.08c16.07-25.84,28.42-54.09,47.06-78.35,11.88-14.56,21.21-35.92,41-40.44,34.58-7.71,70.17-9.59,105.32-13.42,41.58-4.32,83.13-9,124.93-10.71.34-6.14,4.46-11.31,9.52-14.49h0l.21-.15s0,0,0,0l.11-.09-.11.08c6.33-4.67,12.9-9.22,20.3-12-1.4,0-2.8,0-4.2,0h.21q-28.51-.32-57-1h.29l-4.13,0h.29a1380.88,1380.88,0,0,0-159.52,13.38l.22,0c-29.91,4-59.25,13.35-83,32.52h0c-27.26,20-44.62,49.87-62.24,78.07h0C731.37,1299,730.25,1300.92,729.17,1302.88Zm579.69-211.23c.63,15.16,8.5,28.24,18.39,39.27a99.22,99.22,0,0,0,25.12-22.88c-14.15-6.5-29.28-10.41-43.53-16.69C1308.85,1091.45,1308.86,1091.56,1308.86,1091.65Zm-521.63,18.16c-2.19,6.16-3.92,12.51-6.67,18.47,13.17-4.42,26.49-8.42,40-11.88-11-2.45-21.37-6.62-31.63-11.1C788.33,1106.8,787.77,1108.3,787.23,1109.81Zm93.48-6.53-.15.26c12.22-2.31,24.54-4,36.9-5.34h-.05l.39,0h-.12l3.42-.37-.46,0c46.77-4.91,93.23-11.84,139.73-18.64-28.36-15.57-57-30.67-84.13-48.41h0l-.36-.25h0l0,0h0l-.13-.09.09.07-.6-.42h0l-.62-.42.39.27-.59-.41h0l-.35-.25.18.13c-10.4-7.33-21.63-13.35-31.79-21l.38.26c-4.36-2.86-8.64-5.87-13.14-8.5a1.11,1.11,0,0,1-1,1c-4.41,13.55-10.68,26.31-16.14,39.43l.05-.11c-.06.15-.13.31-.2.46h0l-.08.18h0l0,0h0l-.24.58h0c-9.53,19.46-18.89,39.06-29.34,58h0a.47.47,0,0,1-.07.12h0l-.06.1h0l0,.06v0l0,.08,0,0-.08.14h0C881.87,1101.18,881.29,1102.23,880.71,1103.28Z"/><path d="M847.53,1306.81c-4.43.33-15,0-10.5-6.64,29.67-3.83,60.77-5.35,91-7,46.32-3.19,92.5-8.16,138.93-9.64,89.44-5.1,178.94-8.2,268.44-12,72.52-4.91,145.21-3.41,217.81-5.34,6.75.21,5.27,10.37-.84,10.7-22.72,1.27-45.5,1.19-68.24,1.19-108.39,1-216.66,7.43-325,10.82l.36,0c-47.24,3.3-94.6,4.52-141.87,7.21h.15l-1.69.11h.1l-.28,0h.1l-1.25.08h.05l-.71,0h.14l-.92.06h.14c-23,1.28-45.93,3.89-68.93,5.3l.67,0-.79,0h.09l-.68,0,.23,0-7.07.44.68,0-1.56.09.68,0-1.18.07.68,0-8.68.53.3,0C901.07,1303.13,874.35,1306.44,847.53,1306.81Z"/><path d="M858.14,1377.74c-8.8.71-8.81-9.2,0-8.49,23.93-1.42,47.82-4.34,71.77-6,105.26-11.8,211.14-15.42,316.77-22.22l-.74,0c32.67-2.26,65.4-3.07,98.09-4.84l-.73,0,13.4-.8-.72,0c72.49-5.4,145.14-8.18,217.81-9.56,5.7.18,4.82,8.34-.08,9.3-52.25,3.06-104.83,2.48-157.11,6.55l.72,0-11.46.71h.16q-25.4,1.88-50.81,3.42h.24l-12.35.76h.16c-28.51,1.7-57.08,2.32-85.59,4.14l.73,0c-118.66,7.21-237.38,13.16-355.79,24h0C887.75,1375.32,873,1377.92,858.14,1377.74Z"/><path d="M871,1455.25c-3.68.26-12.34-.91-7.5-6,3.49-2.17,8-1.32,12-1.84h0l1.44-.09-.55,0c110.26-12.1,220.51-24.91,331.26-32,39.81-3.39,79.74-4.84,119.65-6.4,6.7.18,5.14,10.26-.83,10.54-5,.42-10.05.58-15.07.72C1164,1424.62,1017.75,1444.59,871,1455.25Z"/><path d="M1167.29,1032.73c-4.07-1.79-7.14-5.51-11-7.77-3.45-2.67-13.33-8.66-5.94-12.42C1154.94,1013,1180.31,1030,1167.29,1032.73Z"/><path class="cls-2" d="M1215.13,1045c-1.29-3.89,8.84-12.89,10.94-17.12,0,.07-.09.14-.14.2.32-.45.64-.91,1-1.36l-.14.19c10-14.79,19.53-29.9,30.13-44.27a.43.43,0,0,1,0,.07l.15-.21h0c3.4-4.75,6.53-9.69,9.89-14.47l-.06.08.08-.11-.06.08c.56-.78,1.11-1.56,1.66-2.35l0,.07,1.73-2.43-.11.15c6.09-8.65,11.23-17.93,17.58-26.4-.06.07-.11.15-.17.23l.28-.39a.86.86,0,0,0-.07.1l.12-.17h0l1.26-1.78-.16.23.26-.37-.16.23c9.77-14.49,19.09-29.29,29-43.66l-.06.09,1-1.47,0,0c1-1.42,2-2.85,3-4.28l-.06.09v0l0,.06.19-.27,0,0c.57-.8,1.13-1.6,1.71-2.4l0,0q4.26-6.07,8.55-12.15l-.17.24,1.69-2.37,0,0c8.15-12.17,16.77-24,25.54-35.72l-.06.08c.19-.26.37-.51.55-.78,0,.07-.09.14-.14.2l.45-.63-.14.2c2.62-2.19,5-10.66,8.16-10.21,1.3.79,1.31,3.46-.43,3.77-13.11,20.27-27.71,39.63-41.19,59.69l0-.05-.11.15,0,0-.08.1,0,0-.11.16a.21.21,0,0,0,0-.06c-.58.82-1.16,1.65-1.75,2.47l0-.06-1.65,2.34.16-.24-1.35,1.9.12-.16-1.27,1.77,0-.05-1.39,2,.07-.08c-15,22.73-30.39,45.13-45.38,67.83v0c-4.55,6.23-8.83,12.63-13.2,19l.06-.08c-12.47,16.64-23.25,34.47-35.49,51.26C1222.74,1036.06,1218.39,1046.6,1215.13,1045Z"/><path class="cls-2" d="M1240.64,907c1.18-5.11,3.85-9.81,6.2-14.47a.75.75,0,0,1-.07.12l.86-1.6-.06.1.21-.39,0,0,.49-.9-.1.17.25-.46-.1.17c1.51-2.85,3.09-5.66,4.62-8.5h0c4.44-7.85,8.12-17.06,14.59-23.32,4.54.73-.83,5.33-1.87,7.25l0-.07,0,0,0,0,0,.06h0l-.11.17,0,0-.24.34a2.43,2.43,0,0,1,.14-.2c-.16.23-.33.46-.49.7l.14-.21c-8.31,13.09-16.64,26.63-22.37,41.05h0C1243,908.72,1240.27,908.87,1240.64,907Z"/><path class="cls-2" d="M1255.81,864.72c-1.68-2.63,1.7-6.37,2.29-9.18v0c0-.07.05-.13.07-.2l0,.07c.6-1.48.91-3.13,1.86-4.45,1.21-1.55,3.2.4,2.15,1.86C1259.82,856.47,1258.64,862,1255.81,864.72Z"/><path class="cls-2" d="M1057.51,886.29c-.57-3.79,5.08-2.41,7.39-3h0c16.49-2.77,32.52-7.76,48.66-11.8,13.87,5.8-50.6,15.69-54.41,15.68h0A1.34,1.34,0,0,1,1057.51,886.29Z"/><path class="cls-2" d="M1127.77,940c.13-6.07,4.34-11.52,6.83-16.91l0,.07c.73-2.86,4.48-2.47,3.07.55l0-.06c-2.54,5.11-5.31,10.31-6.42,16C1131.08,941.49,1128.23,942.08,1127.77,940Z"/><path class="cls-2" d="M1136.87,939.86c.69-1.71,2-18.78,4.82-14h0a17.24,17.24,0,0,1-.18,3.86c0-.07,0-.14,0-.22,0,.34-.07.67-.1,1l0-.22c-1.16,3.28.45,9.89-3,11.43A1.69,1.69,0,0,1,1136.87,939.86Z"/><path class="cls-2" d="M1467.14,999.3a.9.9,0,0,1-.36-.56h0c-.3-2.48.27-5,.45-7.5l0,.21c.9-8.54,1.13-17.13,2.32-25.64l0,.29c.5-2.1-.33-6.36,2.74-6.44a1.9,1.9,0,0,1,1.45,2.28q-1.35,7.88-2.27,15.81h0c-.17,1.67-.31,3.35-.49,5h0l-.06.52v0c0,.29-.07.58-.1.87a1.11,1.11,0,0,0,0-.17C1469.88,986.8,1470.3,999.58,1467.14,999.3Z"/><path class="cls-2" d="M1465.37,1156c-2.28-.69-8.11-15-3.16-14.33l.24.12h0c1.48,1.41,1.2,4,2.31,5.81C1465.65,1150.07,1470.19,1155.3,1465.37,1156Z"/><path class="cls-2" d="M1477.17,1145.12c-2.25-1-13.36-5.67-9.93-8.6,3.79-.4,7.23,3.84,11.36,3.93C1481.26,1141.3,1479.82,1145.88,1477.17,1145.12Z"/><path class="cls-2" d="M1394,1204.33a2.2,2.2,0,0,1-1.12-1.87v0c0-2.19.06-4.39,0-6.58v.06c0-.17,0-.34,0-.51v0h0v-.21l0-1.22v.34c0-.41,0-.81,0-1.22v.09c0-.08,0-.16,0-.24v0c0-.37,0-.74,0-1.11,0,0,0,.1,0,.15.69-3.16-.78-37.83,2.38-33.94h0c1.57,9.42,1.46,19.05,1.55,28.58v.15c.13,4.16.41,8.32.5,12.49h0c0,.12,0,.23,0,.35v-.06C1397.53,1201.69,1396.81,1205.38,1394,1204.33Z"/><path class="cls-2" d="M1463.6,819.6c-2.18-3.66,6.69-9.66,8.74-12.78,2-1.32,14.45-16.37,13.47-8.3a1.34,1.34,0,0,0,.07-.18c-.17,1.23-1,2.62-2.44,2.33a156.89,156.89,0,0,0-17,18.49A2,2,0,0,1,1463.6,819.6Z"/><path class="cls-2" d="M1481.94,822.29c-4.3-2,6.21-15.79,6.8-20,5.23-4.37-.35,7.91-1,9.53l0,0-.09.23,0-.08C1485.71,814.93,1486.2,821.83,1481.94,822.29Z"/><path class="cls-2" d="M1319.78,792.65c-1.1-4,9.24-5.89,12-7.94l-.16.07,1.78-.79-.15.07c1.09-.62,5.82-2.56,4.12.23h0C1333.89,785.26,1321.37,795.19,1319.78,792.65Z"/><path d="M830.81,393.47a2.74,2.74,0,0,1-2.37-.05,235.72,235.72,0,0,1-26.59-6.6,133.3,133.3,0,0,1-21.76-7.27c-5.41,11.25-12.58,21.58-18,32.85-1.89,3.81-3.31,7.83-5.06,11.71-.63,1.88-3,4.07-4.75,2.14a6.32,6.32,0,0,1-1.06-3.62c-.23-4.59-.09-9.19-.13-13.78.37-13.18,1.09-26.4,3.49-39.39-12.88,1.66-25.41,4.57-38.36,5.63-2.67.05-12,2.91-10.58-2.25,2.18-2.74,5.52-4.43,8.18-6.69,10.16-8.36,21.65-14.84,32.26-22.57-.22-8.08-.74-16.14-1.42-24.19-1-.94-1-2.53-1.12-3.82-.3-3.38-.2-6.68-.26-10.08a47.27,47.27,0,0,1,0-6.41,2.6,2.6,0,0,1,4.32-1.28,103.16,103.16,0,0,1,6.93,9.73,51.86,51.86,0,0,0,9.84,12.25c5.45,5.63,9,12.35,15.55,16.69a270.79,270.79,0,0,1,31.18-15,46.64,46.64,0,0,1,6.37-2.32,3.65,3.65,0,0,1,2.93.21c1.65,1.08,1.16,3.15.15,4.5-1.46,2.55-3,5-4.5,7.56-4.82,9.14-10.6,17.68-16.13,26.38,5.44,3.49,9.78,8.39,14.46,12.8a112.48,112.48,0,0,1,14.05,15.5C829.81,388.18,834.25,391.28,830.81,393.47Z"/></g></g></svg>