<svg width="745" height="149" viewBox="0 0 745 149" fill="none" xmlns="http://www.w3.org/2000/svg">
<g clip-path="url(#clip0_543_56)">
<path opacity="0.7" d="M138.537 127.531C120.898 116.94 10.9809 147.614 3.93929 145.948C-3.08107 142.52 0.645176 59.5274 5.92992 46.3659C7.80013 41.6797 10.2867 40.381 16.2727 41.499C22.6484 42.6906 87.6593 28.7324 145.126 19.2329C146.847 21.6027 151.154 12.5383 152.21 15.5576C153.003 17.3182 165.712 16.5818 184.612 14.8881C203.513 13.1944 228.619 10.8714 254.164 8.55504C277.145 6.45965 269.041 7.06885 292.093 5.43538C331.19 2.67053 296.534 3.57429 366.476 0.90316C376.557 0.514875 368.601 5.58935 380.467 3.70818C405.764 -0.221526 460.85 5.48224 480.02 2.24207C511.254 -3.03324 486.247 4.19688 567.601 7.95923C590.61 9.01697 612.939 9.12408 617.629 7.04207C619.931 5.76341 621.61 6.54667 621.532 8.38098C622.644 8.66885 677.575 17.8404 677.78 19.5475C678.106 21.422 679.749 22.5601 681.414 21.5559C684.446 19.7082 744.548 23.6446 745.171 29.1274C746.886 44.7258 734.063 107.179 726.299 121.673C722.205 129.325 711.054 126.761 696.914 122.932C654.7 111.504 672.028 119.825 627.695 114.195C595.271 110.078 607.151 110.848 552.2 105.954C524.097 103.464 531.734 104.301 512.989 102.901C504.772 102.292 511.856 101.75 475.968 106.871C472.539 101.174 458.874 113.914 450.748 104.14C447.369 100.076 422.887 98.6504 417.453 102.547C416.277 103.263 407.585 103.303 395.004 102.968C385.433 102.721 286.468 99.2998 275.02 110.199C248.731 101.509 163.814 121.86 138.537 127.531Z" fill="#4AC2EF"/>
</g>
<defs>
<clipPath id="clip0_543_56">
<rect width="745" height="149" fill="white"/>
</clipPath>
</defs>
</svg>
