<svg xmlns="http://www.w3.org/2000/svg" viewBox="0 0 1760.08 366.67"><defs><style>.cls-1{fill:#7b529e;opacity:0.67;}</style></defs><title>perfiles</title><g id="Capa_2" data-name="Capa 2"><g id="Capa_1-2" data-name="Capa 1"><path class="cls-1" d="M327,320.87c-41.67-26.24-301.28,49.76-318,45.64C-7.47,358,1.34,152.36,13.83,119.75c4.41-11.54,10.29-14.83,24.41-12.06,15,3,168.62-31.64,304.34-55.17,4.07,5.87,14.24-16.53,16.71-9.11,1.86,4.37,31.89,2.54,76.52-1.72S539.75,31.77,600.08,26c54.29-5.19,35.15-3.68,89.59-7.72C782,11.41,700.16,13.66,865.33,7c23.82-1,5,11.53,33,7,59.75-9.75,189.85,4.39,235.13-3.63,73.77-13.08,14.71,4.83,206.86,14.15,54.35,2.64,107.09,2.9,118.17-2.26,5.43-3.18,9.39-1.22,9.21,3.29,2.63.71,132.37,23.45,132.84,27.68.77,4.65,4.67,7.46,8.59,5,7.16-4.58,149.11,5.18,150.54,18.76,4,38.64-26.24,193.39-44.57,229.31-9.67,19-36,12.61-69.41,3.13-99.71-28.32-58.77-7.7-163.48-21.66-76.58-10.2-48.53-8.38-178.32-20.42-66.38-6.16-48.34-4.1-92.6-7.55-19.41-1.52-2.68-2.87-87.45,9.83-8.1-14.12-40.37,17.44-59.57-6.78-8-10.06-65.79-13.6-78.61-3.94-2.78,1.78-23.3,1.87-53,1.05-22.61-.62-256.35-9.09-283.4,17.92C587.25,256.38,386.72,306.81,327,320.87Z"/><path d="M33.85,246H31.6q-11.75,0-11.75-12.5,6.51-75.75,20-150.25a64.45,64.45,0,0,0,1-9.25c-.17-1.83-.83-2.75-2-2.75a7.34,7.34,0,0,0-1.5.25q-1,.25-3.5,10.5-1.5,10.75-8.5,10.75-8.25,0-8.25-13a26.08,26.08,0,0,1,4-13.62q4-6.63,14.5-17.88,8.51-7,10.25-15.5,1-4.24,8.75-4.25,15.75,0,27-3.25a80.24,80.24,0,0,1,23.5-3.75q19.5,0,33.5,10.5,15.5,11.51,15.5,31.5A38.56,38.56,0,0,1,151.6,77q-5.74,14.5-9,18.75a382.45,382.45,0,0,1-57.25,80Q74.1,189,59.85,190.5c-2.67,0-5.75-.16-9.25-.5q-7.5,0-9.5,45.25Q40.1,245.5,33.85,246ZM54.1,177.75q1.76-.24,9-7.5A298.84,298.84,0,0,0,127.85,75q4.25-11.49,4.25-19.5,0-19.24-26.5-19.25a104.32,104.32,0,0,0-14.12,1.63A49.31,49.31,0,0,0,73.23,44.5q-8.13,5-9.88,20.25-3.26,32.5-8.87,64.63t-5.63,40.37c0,5.34,1.17,8,3.5,8Z"/><path d="M165.35,213.5q-38,0-38-35.25,0-3.24,1.37-14.75t10.63-30q16.74-33,35.75-33,15.5,0,23.5,15.5a21.27,21.27,0,0,1,2.5,10,28.53,28.53,0,0,1-3.75,13.5q-21.51,31.75-40.5,40.75-6.75,3.25-6.75,6.75a9.25,9.25,0,0,0,.5,3q2.25,8,9,8,10,0,26.75-12.25,11-8,15.75-12.25,6-6,9.5-6a6,6,0,0,1,3.5,1.25,8.11,8.11,0,0,1,2.75,6.25q0,4-5.13,11.75T196,203.25Q184.35,212,175.1,213,169.85,213.5,165.35,213.5Zm-9.5-52.5q6.5-4.5,12.5-15.75,9-16.5,9-20.5c0-1.33-.84-2-2.5-2A3.33,3.33,0,0,0,172.1,124q-18.75,32-18.75,34.5C153.35,159.84,154.18,160.67,155.85,161Z"/><path d="M224.6,212a18,18,0,0,1-12.5-4.75,10.11,10.11,0,0,1-2.75-7.5q5.75-51,11-84.25,1.25-7,7.5-7,15.24,0,15.25,13.75a25.57,25.57,0,0,1-1.25,6.75,34.93,34.93,0,0,0-1.5,9.5c0,2.5.33,3.75,1,3.75.5,0,1.08-.66,1.75-2q5.49-12,20.5-18.5a22,22,0,0,1,9.5-2.25q4.25,0,7,4.5a7.5,7.5,0,0,1,1.5,4q0,3-5.75,5.75a16.14,16.14,0,0,0-2.5,1.5q-29.76,22.75-39,65Q231.59,212,224.6,212Z"/><path d="M298.34,310.25l-6.25-.25q-16.5-2.5-18.5-18.5a144.08,144.08,0,0,1-1.25-17.5q0-25.26,7.75-66a31.2,31.2,0,0,0,.75-6.5,15.89,15.89,0,0,0-.12-2.12c-.09-.59-.29-1.59-.63-3s-2.58-3-6.75-4.88-6.41-4.08-6.75-6.75c0-.5.09-1.62.25-3.37s2.34-3.63,6.5-5.63q15.51-7,18.5-25.75,2.51-16.25,8.75-41,3.51-14,6.5-16.75a7.48,7.48,0,0,1,5-1.5q12.26,0,12.25,9.75,0,8.25-8.75,40.25a42.77,42.77,0,0,0-1.5,10q0,6,3.75,6,3.26,0,11-2a54.64,54.64,0,0,1,13.25-2c1.17,0,2.79.09,4.88.25s5,2,8.62,5.5q4.5,4,4.5,8a8.44,8.44,0,0,1-2.25,5.25,7.89,7.89,0,0,1-6.5,2.75,11.41,11.41,0,0,1-5.75-1.75,17,17,0,0,0-9-3q-5.74,0-14.5,4-3.49,1.75-7.25,3.25a2,2,0,0,0-1.25,2,7.71,7.71,0,0,0,.75,3.5q10.5,21,10.5,58.5,0,10.25-1,25.88a75,75,0,0,1-8.75,30.37Q309.09,309,298.34,310.25Zm-1.75-19.75q2-.25,7.75-33,4.5-26.25,4.5-40.75c-.83-9.84-2.25-15.66-4.25-17.5a17,17,0,0,0-1.5,1.75c-.5.67-1.16,3.91-2,9.75q-6.49,43.25-6.5,73.5C294.59,288.41,295.26,290.5,296.59,290.5Z"/><path d="M360.84,218.75h-.75q-12.75,0-13.75-17.25-.51-8.49-.5-16.5a246.66,246.66,0,0,1,6-56q1.74-7.25,9.5-7.25,13.5,0,13.5,10.75a28.3,28.3,0,0,1-.5,5.5,436.66,436.66,0,0,0-7.75,64.5,18.49,18.49,0,0,0,.63,5,17.92,17.92,0,0,1,.62,4.75,21.73,21.73,0,0,1-.37,4C367.22,217.58,365,218.41,360.84,218.75Zm8-100.75-3.5-.25q-7-1.5-7.5-9.25v-5q0-9,8-29l1.25-3.5q2-4.74,7.5-5a13.55,13.55,0,0,1,5,1q8.49,3.75,8.75,9,0,5.5-12.75,37C374.09,116.34,371.84,118,368.84,118Z"/><path d="M409.34,227.5q-19,0-24.5-18.25-3.51-11-3.5-26.75,0-26.49,10.62-66.87T413.09,35q2.49-9.49,10.25-9.5a15,15,0,0,1,5,1q6,2.25,6,8.25a26,26,0,0,1-1,6.5q-29.25,112-29.25,152,0,18.75,6.75,18.75,8.75,0,36.75-26.25a.22.22,0,0,0,.25-.25,9.79,9.79,0,0,1,5.75-2.75,5.42,5.42,0,0,1,3.5,1.5,4.76,4.76,0,0,1,1.75,3.75,11.15,11.15,0,0,1-1.75,5.5Q437.08,227.49,409.34,227.5Z"/><path d="M485.34,213.5q-38,0-38-35.25,0-3.24,1.37-14.75t10.63-30q16.74-33,35.75-33,15.5,0,23.5,15.5a21.27,21.27,0,0,1,2.5,10,28.53,28.53,0,0,1-3.75,13.5q-21.51,31.75-40.5,40.75-6.75,3.25-6.75,6.75a9.25,9.25,0,0,0,.5,3q2.25,8,9,8,10,0,26.75-12.25,11-8,15.75-12.25,6-6,9.5-6a6,6,0,0,1,3.5,1.25,8.11,8.11,0,0,1,2.75,6.25q0,4-5.13,11.75T516,203.25Q504.33,212,495.09,213,489.84,213.5,485.34,213.5Zm-9.5-52.5q6.5-4.5,12.5-15.75,9-16.5,9-20.5c0-1.33-.84-2-2.5-2a3.33,3.33,0,0,0-2.75,1.25q-18.75,32-18.75,34.5C473.34,159.84,474.17,160.67,475.84,161Z"/><path d="M551.58,211.5q-9.5,0-9.5-6.25,0-3.24,9.25-12.25,12.51-12,12.5-18.5a11.25,11.25,0,0,0-1.25-4q-1.25-2.75-13.25-4.75-20-3-20-22.5,0-9.5,6-28.5,10.26-33.24,25.5-33.25a14.16,14.16,0,0,1,4.5.75q10.26,3.25,10.25,7.5,0,3.75-3.75,8.5-18.75,23.25-18.75,47.5.25,8.5,12.75,10,23.5,2.5,24,14.25v7q0,6.51-12,18.75Q564.09,209.49,551.58,211.5Z"/><path d="M738.08,276.25h-.5q-9.51,0-17.75-23-8-21.75-8-58.25,0-43.5,1.25-53.25c0-1-.17-1.5-.5-1.5q-.75,0-3.5,8-15.26,47.25-19.25,58.5-7.76,22-19.5,22-16.76,0-21.25-18a94.7,94.7,0,0,1-2.5-22.5q0-47.49,29-91.25,8.49-12.75,22.87-12.87t18.5-9.5A246.94,246.94,0,0,0,726.08,49l11.25-37.75q3.24-11,9-11.25a26.06,26.06,0,0,1,5.5.5q10.24,2.51,10.5,9.75,0,5.25-4.25,20-10.26,34.26-16,57.5Q731.82,128.51,731.83,184q0,2.76.12,33.38T744.58,267a5.68,5.68,0,0,1,3,5.25Q747.58,276,738.08,276.25Zm-68-72.25q2.25,0,7.75-17t16.87-47.12q11.38-30.13,11.38-36.88,0-3-1.5-3-1.76,0-5.75,4.25-31,34.26-31,91V201Q667.83,204,670.08,204Z"/><path d="M780.83,213.5q-38,0-38-35.25,0-3.24,1.37-14.75t10.63-30q16.74-33,35.75-33,15.49,0,23.5,15.5a21.27,21.27,0,0,1,2.5,10,28.53,28.53,0,0,1-3.75,13.5q-21.51,31.75-40.5,40.75-6.75,3.25-6.75,6.75a9.25,9.25,0,0,0,.5,3q2.25,8,9,8,10,0,26.75-12.25,11-8,15.75-12.25,6-6,9.5-6a6,6,0,0,1,3.5,1.25,8.11,8.11,0,0,1,2.75,6.25q0,4-5.13,11.75t-16.75,16.5Q799.83,212,790.58,213,785.33,213.5,780.83,213.5Zm-9.5-52.5q6.49-4.5,12.5-15.75,9-16.5,9-20.5c0-1.33-.84-2-2.5-2a3.33,3.33,0,0,0-2.75,1.25q-18.75,32-18.75,34.5C768.83,159.84,769.66,160.67,771.33,161Z"/><path d="M904.32,211.5q-9.5,0-9.5-6.25,0-3.24,9.25-12.25,12.49-12,12.5-18.5a11.46,11.46,0,0,0-1.25-4q-1.25-2.75-13.25-4.75-20-3-20-22.5,0-9.5,6-28.5,10.24-33.24,25.5-33.25a14.16,14.16,0,0,1,4.5.75q10.24,3.25,10.25,7.5,0,3.75-3.75,8.5-18.75,23.25-18.75,47.5.25,8.5,12.75,10,23.5,2.5,24,14.25v7q0,6.51-12,18.75Q916.82,209.49,904.32,211.5Z"/><path d="M977.57,213.5q-38,0-38-35.25,0-3.24,1.37-14.75t10.63-30q16.74-33,35.75-33,15.49,0,23.5,15.5a21.27,21.27,0,0,1,2.5,10,28.53,28.53,0,0,1-3.75,13.5q-21.51,31.75-40.5,40.75-6.75,3.25-6.75,6.75a9.25,9.25,0,0,0,.5,3q2.25,8,9,8,10,0,26.75-12.25,11-8,15.75-12.25,6-6,9.5-6a6,6,0,0,1,3.5,1.25,8.11,8.11,0,0,1,2.75,6.25q0,4-5.13,11.75t-16.75,16.5Q996.57,212,987.32,213,982.07,213.5,977.57,213.5Zm-9.5-52.5q6.49-4.5,12.5-15.75,9-16.5,9-20.5c0-1.33-.84-2-2.5-2a3.33,3.33,0,0,0-2.75,1.25q-18.75,32-18.75,34.5C965.57,159.84,966.4,160.67,968.07,161Z"/><path d="M1040.57,224.5h-1.25a20.09,20.09,0,0,1-6.75-1.25q-10.75-3.75-11-13.75V203q15-89.49,28-89.5a10.56,10.56,0,0,1,8.12,3.38,12.31,12.31,0,0,1,3.38,7.87,19.14,19.14,0,0,1-.75,5q-7.26,30.25-7.25,40.75c0,3.34.5,5,1.5,5q4-.24,23.25-34,7.5-13,15.75-26,5-7.5,12.25-7.75,6.5,0,10.25,3.75a11.71,11.71,0,0,1,3.25,8,41.49,41.49,0,0,1-.25,5.25q-3.75,20-3.75,26c0,1.84.16,2.75.5,2.75q1.5-.24,7.5-11.75,4.25-8,10-17.25,12-19.25,22-19.25a10.34,10.34,0,0,1,3.25.5q9,3.51,9,11.75a71.05,71.05,0,0,1-3,18.75q-8.5,28.75-8.5,47.75,0,13.26,3,18.75a8.71,8.71,0,0,1,1.5,4.25q0,2-2.75,4.25a7.34,7.34,0,0,1-4.5,1.5q-11.5,0-17.5-12.25-2.76-5.49-2.75-16,0-3.5.25-6.12c.16-1.75.25-3.21.25-4.38q0-7.5-1.5-7.5c-1,0-2.59,1.67-4.75,5a95.18,95.18,0,0,0-8,16.5q-9.75,25.5-23,25.5a18.11,18.11,0,0,1-5.25-.75q-11.25-3.51-12.25-12.5,0-12.75,3.25-31.5-7.5,7.5-14,23.25Q1054.81,223.5,1040.57,224.5Z"/><path d="M1182.57,218.75h-.75q-12.75,0-13.75-17.25-.51-8.49-.5-16.5a246.66,246.66,0,0,1,6-56q1.74-7.25,9.5-7.25,13.5,0,13.5,10.75a28.3,28.3,0,0,1-.5,5.5,436.66,436.66,0,0,0-7.75,64.5,18.5,18.5,0,0,0,.62,5,17.52,17.52,0,0,1,.63,4.75,21.75,21.75,0,0,1-.38,4Q1188.82,218.25,1182.57,218.75Zm8-100.75-3.5-.25q-7-1.5-7.5-9.25v-5q0-9,8-29l1.25-3.5q2-4.74,7.5-5a13.55,13.55,0,0,1,5,1q8.49,3.75,8.75,9,0,5.5-12.75,37C1195.82,116.34,1193.57,118,1190.57,118Z"/><path d="M1231.07,227.5q-19,0-24.5-18.25-3.51-11-3.5-26.75,0-26.49,10.62-66.87T1234.82,35q2.49-9.49,10.25-9.5a15,15,0,0,1,5,1q6,2.25,6,8.25a26,26,0,0,1-1,6.5q-29.25,112-29.25,152,0,18.75,6.75,18.75,8.75,0,36.75-26.25a.22.22,0,0,0,.25-.25,9.79,9.79,0,0,1,5.75-2.75,5.42,5.42,0,0,1,3.5,1.5,4.76,4.76,0,0,1,1.75,3.75,11.15,11.15,0,0,1-1.75,5.5Q1258.81,227.49,1231.07,227.5Z"/><path d="M1300.06,227.5q-19,0-24.5-18.25-3.49-11-3.5-26.75,0-26.49,10.63-66.87T1303.81,35q2.51-9.49,10.25-9.5a14.92,14.92,0,0,1,5,1q6,2.25,6,8.25a25.58,25.58,0,0,1-1,6.5q-29.25,112-29.25,152,0,18.75,6.75,18.75,8.76,0,36.75-26.25a.22.22,0,0,0,.25-.25,9.82,9.82,0,0,1,5.75-2.75,5.38,5.38,0,0,1,3.5,1.5,4.73,4.73,0,0,1,1.75,3.75,11.05,11.05,0,0,1-1.75,5.5Q1327.82,227.49,1300.06,227.5Z"/><path d="M1376.06,213.5q-38,0-38-35.25,0-3.24,1.37-14.75t10.63-30q16.74-33,35.75-33,15.5,0,23.5,15.5a21.27,21.27,0,0,1,2.5,10,28.53,28.53,0,0,1-3.75,13.5q-21.51,31.75-40.5,40.75-6.75,3.25-6.75,6.75a9.25,9.25,0,0,0,.5,3q2.25,8,9,8,10,0,26.75-12.25,11-8,15.75-12.25,6-6,9.5-6a6,6,0,0,1,3.5,1.25,8.11,8.11,0,0,1,2.75,6.25q0,4-5.13,11.75t-16.75,16.5q-11.62,8.75-20.87,9.75Q1380.56,213.5,1376.06,213.5Zm-9.5-52.5q6.5-4.5,12.5-15.75,9-16.5,9-20.5c0-1.33-.84-2-2.5-2a3.33,3.33,0,0,0-2.75,1.25q-18.75,32-18.75,34.5C1364.06,159.84,1364.89,160.67,1366.56,161Z"/><path d="M1435.31,212a18,18,0,0,1-12.5-4.75,10.11,10.11,0,0,1-2.75-7.5q5.75-51,11-84.25,1.25-7,7.5-7,15.24,0,15.25,13.75a25.57,25.57,0,0,1-1.25,6.75,34.93,34.93,0,0,0-1.5,9.5c0,2.5.33,3.75,1,3.75.5,0,1.08-.66,1.75-2q5.49-12,20.5-18.5a22,22,0,0,1,9.5-2.25q4.25,0,7,4.5a7.5,7.5,0,0,1,1.5,4q0,3-5.75,5.75a16.14,16.14,0,0,0-2.5,1.5q-29.76,22.75-39,65Q1442.3,212,1435.31,212Z"/><path d="M1505.06,212.5q-5.5,0-13.13-4t-12.12-15.25a37.3,37.3,0,0,1-2.5-14q0-12,6.25-32.25a174.18,174.18,0,0,1,14.5-34.75q5-8.75,13.5-8.75,14,0,16,12.5.24,2,3.5,5.25,10.5,10,10.5,29.5,0,1-.38,10.63t-7.87,26.37q-7.5,16.75-19.75,22.75A19.9,19.9,0,0,1,1505.06,212.5Zm-4-21.25q7.74-4.25,13.5-16a71,71,0,0,0,7.25-30.75,34.39,34.39,0,0,0-3.5-16q-5.25,4.5-10,16.75-8.25,21.51-8.25,38A27.37,27.37,0,0,0,1501.06,191.25Z"/><path d="M1567.55,211.5q-9.49,0-9.5-6.25,0-3.24,9.25-12.25,12.5-12,12.5-18.5a11.46,11.46,0,0,0-1.25-4q-1.24-2.75-13.25-4.75-20-3-20-22.5,0-9.5,6-28.5,10.25-33.24,25.5-33.25a14.16,14.16,0,0,1,4.5.75q10.25,3.25,10.25,7.5,0,3.75-3.75,8.5-18.75,23.25-18.75,47.5.26,8.5,12.75,10,23.51,2.5,24,14.25v7q0,6.51-12,18.75Q1580,209.49,1567.55,211.5Z"/></g></g></svg>