<svg xmlns="http://www.w3.org/2000/svg" viewBox="0 0 724.19 864.98"><defs><style>.cls-1{fill:#f7941d;}.cls-2{fill:#a3ce37;opacity:0.87;}</style></defs><title>ventana</title><g id="Capa_2" data-name="Capa 2"><g id="Capa_1-2" data-name="Capa 1"><path class="cls-1" d="M510.68,469c12.92,30.13,6.69,63-8.07,91.24-5.28,11.34-10.14,23.11-17.58,33.26-19.56,23.13-50.49,39.78-80.87,41.39-29.84-1.77-62.79-9.36-85.32-30a133.9,133.9,0,0,1-32.47-137.64c12.33-28.83,39.3-49.31,65.56-65C411.3,377.93,495.31,400.26,510.68,469Z"/><path class="cls-1" d="M281.77,382.32c-11.39-10.52-21.33-22.56-32.07-33.76-3.62-4-7.21-8-10.84-12-2.2-3-6.75-5.39-6.21-9.65.34-2.49,2.54-4.55,5.11-3.72,2.49,1,4.25,3.29,6.22,5.06,12.8,13,25.25,26.26,38,39.3,2.08,2.14,4.21,4.22,6.08,6.54C291.39,378.1,286.82,386,281.77,382.32Z"/><path class="cls-1" d="M434.85,352.27c-3-.6-4.45-3.89-4.09-6.72,1.21-14.25,3.29-28.4,4.47-42.64,1.12-11.55.36-23.45,3.25-34.75a7.22,7.22,0,0,1,2.87-4.17c1.29-.82,2.69-.64,4.14-.61,2.18,0,3.51,2.29,3.49,4.22s-1.36,4.07-3.46,4.13c-1.41,11.78-.64,23.72-1.46,35.56-.61,10.87-2,21.67-2.86,32.51C440.65,344.35,441.64,352.89,434.85,352.27Z"/><path class="cls-1" d="M527.89,398.9c-3.33-1.08-3.45-6.31-.49-7.91a20.39,20.39,0,0,1,2.29-1c10.13-4.46,18.84-11.34,27.84-17.65A112.07,112.07,0,0,1,575.11,362,4.3,4.3,0,0,1,581,364.6c.9,2.37.19,5.76-2.26,7-11.17,5.08-20.89,12.62-31.19,19.18-4.67,2.83-9.39,5.63-14.57,7.44C531.4,398.72,529.56,399.38,527.89,398.9Z"/><path class="cls-1" d="M230.38,512c-26.43-2.24-53.51,1.13-79.62-4.1-2-.57-4.08-1.62-4.81-3.69a3.67,3.67,0,0,1,3.85-5.08c1.78.12,4.37-1,5.34,1.08,25.1,1.43,50.29-1.2,75.39.52C236.82,501,236.67,511.9,230.38,512Z"/><path class="cls-1" d="M216.81,677.87c-5.25-4,1.22-9.17,4.39-12,7.75-7.1,15.81-13.86,24-20.41,6.07-4.83,12.3-9.47,18.52-14.12,6-3.9,10.23,6.18,5.16,9.7-15.38,10.93-30.4,22.38-45.19,34.1-1.47.85-1.84,3.15-3.91,2.9C218.79,678.1,217.82,678.55,216.81,677.87Z"/><path class="cls-1" d="M430.52,737.78c-3.07,0-4.8-3.11-4.83-5.86.06-18.77-1.42-37.49-1.74-56.23a18.84,18.84,0,0,1,.76-6.08c1-3,4.63-4.73,6.91-1.92,2.75,1.41,3,5.79.45,7.47,1.31,19,3.19,37.87,3.43,56.89C435.56,734.81,433.47,737.82,430.52,737.78Z"/><path class="cls-1" d="M548.44,661.32c-10-11-21.59-20.31-33.41-29.27-5.64-2.08-6.86-12.68.75-11.34v-.05c8.41,5.29,48.07,29.42,40.16,40.13A4.86,4.86,0,0,1,548.44,661.32Z"/><path class="cls-1" d="M594.33,529.09a131.27,131.27,0,0,1-20.22-6.7c-5.66-2.63-12.1-4.73-16.62-9.15h0c-2.64-4.14,1-9,5.7-6.47a170.89,170.89,0,0,0,21.54,7.7c3.72,1,7.48,1.87,11.24,2.75,3.07.72,4.62,3.93,4.2,6.9C599.83,526.84,597.3,529.84,594.33,529.09Z"/><path d="M561.29,17.12a5.91,5.91,0,0,1-1.61,2.18A6.27,6.27,0,0,1,556.31,21a7.09,7.09,0,0,1-1.31.11c-.22,0-.46,0-.68,0-1.86,0-3.71-.09-5.57-.19-.63,0-1.25-.05-1.87-.09-2.25-.12-4.51-.28-6.76-.41-4.94-.28-9.89-.59-14.84-.88-17.48-1-35-1.3-52.5-1.62q-29.37-.39-58.71.87c-25.06.41-50.11-.34-75.17.31-1.41,0-2.84.06-4.26.12s-2.79-.07-4.18-.08c-25.93-.3-51.75,3.18-77.66,1.66-20,.65-39.89,3.82-59.94,4.49-7,.44-14.06,1.14-21.11,1.55-3.41.2-6.83.33-10.26.33-1.91,0-3.82,0-5.73-.13-4.41,0-9.76-1.94-6.81-7.52,0,0,0,0,0-.07a4.44,4.44,0,0,1,3.7-2.18c2.47,0,4.95-.06,7.42-.16s5.08-.27,7.62-.51l3.5-.35a4,4,0,0,0,.5,0c13.72-1.36,27.4-2.93,41.18-3.82,13.68-1,27.26-3.81,41-3.82,19.32,1.26,38.57-1,57.87-1.78,28.77-.12,57.72-1.21,86.47-.53,46.48-1.28,93.06-2.29,139.51.84,3.38.16,6.75.37,10.11.56,3.16.2,6.32.38,9.47.48C561.72,8.52,562.93,13.57,561.29,17.12Z"/><path d="M118.54,294.68a7,7,0,0,1-4-1s0,0,0,0c-3.3-2.35-1.52-7.89,2.21-8.81,2.74-.4,5.56-.32,8.33-.7,14.49-1.56,29-3.28,43.56-3.63,29.41-.61,58.75-2.53,88.1-4.17,16.23-1,32.45.53,48.67.91,34.91-.39,69.63-5.14,104.56-4.88,23.06,0,46,2.81,69,3,35.88-.31,71.95-3.67,107.74,0,.18,1.83.49,3.65.76,5.47a59.39,59.39,0,0,0,1.17,7.52l.12.36c-25.69-3.06-51.35-2.25-77-1.45-22.43.71-44.85,1.41-67.3-.46a521.28,521.28,0,0,0-69.36-.72c-23.49,1.16-46.94,3.53-70.47,3.63-11.86-.06-23.67-1.23-35.53-1.24-23.51.34-47,2.4-70.46,3.07-17.49.65-35,.24-52.47,1.47-8.64.47-17.33,1.68-26,1.68Z"/><path d="M115,566.28c-3.62-.22-7.54-.18-10.88-1.73a4,4,0,0,1-.25-6.7c4.84-2.16,10.35-2.77,15.49-4.06a2.67,2.67,0,0,1,3,3.37c60.61-5.39,121.47-5.6,182.22-8.5,56-2.26,112.11-2.15,168.14-2.48,34.93.18,69.8-2,104.72-2.31,8.14.07,6.54,12.56-.74,13.09-20.76.74-41.55.77-62.32,1.71-53.49,1.07-107,.66-160.54,1.11-43.34.44-86.62,3.36-130,3.41C187.6,563.49,151.33,565.79,115,566.28Z"/><path d="M579,831.47h0q-6,.33-11.94.4c-2,0-4,0-6,0-1.72,0-3.42,0-5.12,0-18.64-.66-37.23-.77-55.84-.64-27.91-.75-54.54-.32-82.21-1.47-52,.78-104.08,1.48-156-2a644.13,644.13,0,0,0-71.26.65c-5.44.15-10.85.32-16.29.48l-9.91.28c.13-.24.26-.5.38-.76a4.47,4.47,0,0,0,.19-.46c.07-.14.12-.3.18-.44s.13-.39.2-.58.14-.5.21-.75.13-.52.18-.77a12.82,12.82,0,0,0,.28-2.81c0-.3,0-.6,0-.89s0-.53-.07-.79,0-.34-.06-.51-.07-.45-.09-.67c-.11-.55-.21-1.09-.34-1.63-.07-.29-.14-.59-.22-.89l-.12-.46,8.75-.32,1.92-.08c21.51-.84,43-2.62,64.49-2.34,11.37-.08,22.73.59,34.07,1.25,10.9.64,21.79,1.27,32.71,1.27,32.84,1.13,65.71.67,98.55.15,15.38-.65,30.72.55,46.09.77,11.12-.2,22.23,0,33.36.16,10.43.18,20.85.36,31.29.21,9.52-.33,19.06-.07,28.58.21,6.75.19,13.48.37,20.22.36,3.71,0,7.41-.09,11.11-.26,0,.49.07,1,.11,1.48l.12,1.6C576.67,824.61,577.27,828.43,579,831.47Z"/><path d="M140.8,829.8c-2.52.07-5,.15-7.55.21l-1.95,0-10.69.29-.86,0,0-.06a23.16,23.16,0,0,0,2.93-8.33c.2-1.16.35-2.33.46-3.5l.88,0c4.83-.25,9.64-.47,14.47-.67.07.68.14,1.35.24,2,0,.3.07.6.11.9s.11.83.16,1.24.1.76.17,1.14.11.75.18,1.13.12.71.18,1.06.17.85.27,1.27.16.68.25,1,.2.74.31,1.1.24.72.38,1.08Z"/><path d="M143,825.4l-.09.39A2.74,2.74,0,0,1,143,825.4Z"/><path d="M90.14,831.22c-2.73.08-5.46.16-8.19.22-.79,0-1.6,0-2.4,0l-.38,0-1,0c-.3,0-.61,0-.91,0a12.08,12.08,0,0,1-4.56-.71c-3.79-1.93-2.18-8.07,1.68-8.88a0,0,0,0,1,0,0c4.13-.39,8.25-.74,12.4-1.08a2.68,2.68,0,0,0,0,.3c.09.43.17.87.27,1.3s.2.89.3,1.31A31.05,31.05,0,0,0,89,828.87c.17.4.35.8.54,1.18A11,11,0,0,0,90.14,831.22Z"/><path d="M339.56,809.72c.53-12.58,1.48-25.16,1.92-37.75-.8-21-2.3-42.36-1.87-63.28-.4-19.42-.53-38.83-.56-58.26-.05-16.75-1.47-33.72-1.78-50.39.3-26.9-.68-53.77-1.18-80.67.56-25.5.25-51,.62-76.5.56-25.33,1.7-50.66,1.54-76,.55-29.33-.09-58.64-.68-88-.72-24.6,1.63-49.24.07-73.81-3.55-29.19-4-58.6-3.9-88,0-18-1.58-35.84-3.09-53.74-.88-14.52-1.48-29.13-.26-43.65.29-3.17,1-7,3.69-9a3.3,3.3,0,0,1,4.67.49c1,1.44.8,3.32.28,4.92-.65,11.57.15,23.18.82,34.74,1.23,17.21,3.74,34.31,4.37,51.56.87,25.3.52,50.64,2.44,75.89.91,12.36,3.1,24.6,3.16,37-.21,18.22-.69,36.44-.55,54.66,1.85,58.86.89,117.73-.95,176.58,0,36.09-1.1,72.18.23,108.25.3,12.51.2,25,.22,37.52.44,22.53,2.32,45,2,67.56,0,21.87.66,43.27.45,64.8.07,15.26,1.49,30.49,1.5,45.76-.3,12.84-1.66,25.65-1.91,38.5-.07,3.18-2.72,6.43-6,6.66S339.38,812.83,339.56,809.72Z"/><path class="cls-2" d="M172,14a7.71,7.71,0,0,1-.39,1.37,6.3,6.3,0,0,1-.41.87,6.57,6.57,0,0,1-5.93,3.59c-1.69-.08-3.38-.14-5.07-.2-3.74-.12-7.49-.19-11.24-.19q-15.66,0-31.25,1.4c-10.81,1.06-21.65.52-32.49,1C74.5,22.56,63.73,22.86,53,23.23,42.19,23.88,31.49,25.55,20.7,26c-2-.08-4.2.22-6.32.23A10.82,10.82,0,0,1,9,25.11a3.75,3.75,0,0,1-1.34-1.67A5.52,5.52,0,0,1,9,17.61c1.51-1.44,3.68-1.59,5.65-1.82,9.51-.89,19-2.09,28.45-3.46,15.95-1.95,32.11-2.28,48.14-3.4a304.2,304.2,0,0,0,32.94-1.37,286.22,286.22,0,0,1,43.43-.39C171,7.32,172.56,11.05,172,14Z"/><path class="cls-2" d="M175.77,816.34a75.42,75.42,0,0,1-1.46,12.53,56.25,56.25,0,0,1-1.57,6.13c-2.6,8.37-9.46,18.36-18.64,18.36a14.16,14.16,0,0,1-4.7-.84c-8.58-4-12.52-14-16.15-22.51-.35-.84-.71-1.68-1.06-2.48-.28.83-.57,1.68-.89,2.53-3.91,10.67-11.13,22.85-23.72,22.26-12.27-.86-22.87-10-28-20.87-.24-.48-.45-1-.65-1.45-.24.52-.5,1-.77,1.49-6,10.9-18.26,8.41-26-.41C42.42,820.85,41.64,805.54,40,792.46a1391.84,1391.84,0,0,1-18.9-148.57c-2-34.41-6.32-68.65-8.31-103.07-1.44-25.88-1.56-52.13-1.76-78,0-2.28-.08-4.57-.13-6.86-.08-4.4-.21-8.81-.36-13.21C9,397,5,351.41,4.1,305.66c-1.4-27.9-.28-55.85-2.26-83.74C1.42,195.75-.38,169.6.07,143.41c0-17.11,1.5-34.16,1.86-51.27.53-17.57.21-35.19,2-52.72.88-5.34.69-11.42,3.77-16a8.75,8.75,0,0,1,.78-1.06,3.76,3.76,0,0,1,3.48-1c2.25.81,2.59,2.8,2.47,4.86-.05,1.13-.25,2.29-.34,3.29-.6,6.15-.8,12.31-.95,18.47-.32,25.93.28,51.87-1.24,77.75-.74,38.19,1.67,76.36,3.37,114.5.26,50.91,2.67,101.76,5.44,152.58.61,8.76,1.06,17.53,1.4,26.29.1,2.65.21,5.28.29,7.92,0,.76,0,1.51.06,2.26.05,1.52.1,3,.14,4.54q.24,8.38.39,16.76c.11,5,.18,10,.26,15,.47,30.52.78,61.05,3.11,91.5,6.38,75.67,10.06,152.12,23.78,226.83,2.64,12.92.86,27.85,9.95,38.48,2.08,2.34,7.62,7.6,9.79,3.76,4-10.14,2.75-21.44,3.74-32.11.32-7.76,1.26-15.47,1.79-23.18-.44-4.18,3.74-9.18,8-6.59,2.76,1.65,2.1,5.88,1.93,8.56.41,12.8-.16,25.61,1,38.36a31.2,31.2,0,0,0,.47,9.69,2.68,2.68,0,0,0,0,.3c.09.43.17.87.27,1.3s.19.89.3,1.31A31.05,31.05,0,0,0,89,828.87c.17.4.35.8.54,1.18a11,11,0,0,0,.63,1.17,14.75,14.75,0,0,0,3.25,3.95,11.78,11.78,0,0,0,7.25,2.73l.49.15c7.13,4.31,14,4.59,18.36-5.36.4-.77.78-1.55,1.12-2.34a50,50,0,0,0,3.46-11.9c1.09-6.29,1.35-12.79,1.79-19.13,1.44-6.88-3.52-23.25,6-24.74,6.24-.26,5.12,7.51,4.94,11.67.33,6.39.76,12.73,1.67,18.94-.17,2-.23,4.12-.27,6.16a54.94,54.94,0,0,0,.31,6.43c.07.68.14,1.35.24,2,0,.3.07.6.11.9s.11.82.17,1.23.1.75.16,1.15.11.75.18,1.13.12.71.18,1.06.17.85.27,1.27.16.68.25,1,.2.74.31,1.1.24.72.38,1.08v0c.13.34.28.68.42,1a17.05,17.05,0,0,0,2.22,3.78,11.19,11.19,0,0,0,7.24,4.18c1.87,2.42,4.07,3.76,6.66,2.18a20.57,20.57,0,0,0,5.75-10,9.72,9.72,0,0,0,1.31-1.85c.13-.24.26-.5.38-.76a3.71,3.71,0,0,0,.19-.46,4.48,4.48,0,0,0,.18-.44c.07-.2.13-.39.2-.58s.14-.5.21-.75.13-.52.18-.77a12.82,12.82,0,0,0,.28-2.81c0-.3,0-.59,0-.89s0-.53-.07-.79,0-.34-.06-.51-.07-.45-.09-.67c-.11-.55-.21-1.09-.34-1.63-.07-.29-.14-.59-.22-.89l-.12-.46c-.12-.44-.25-.88-.38-1.32,0-.95.06-1.89.08-2.81-1.17-30.54-8.11-60.49-13.37-90.5-3.26-17.34-9-34.09-13.51-51-4.34-15.94-10.24-31.39-14.74-47.29-4.77-16-9-32.24-15.28-47.77C102.62,562.24,95,549.59,88,536.65c-8.17-16.49-16.24-33.1-27-48.11-2.81-4.53-5.55-9.12-8.5-13.58a113.68,113.68,0,0,0-11.7-15.32l-.15-.16a4.21,4.21,0,0,1-.39-.58,6.18,6.18,0,0,1-.79-4.12,8.44,8.44,0,0,1,1.79-4.27,7.57,7.57,0,0,1,3.1-2.24A5,5,0,0,1,50,449.33c7,7.34,12.57,15.75,17.81,24.36.27.44.53.89.81,1.33C78.08,489,87,503.4,94.22,518.7c5.17,11.21,11.67,21.67,17.34,32.59.63,1.26,1.23,2.52,1.82,3.8,1.72,3.68,3.32,7.38,4.82,11.13,5.9,14.52,10.48,29.54,14.73,44.63,7.27,25.51,16,50.56,22.41,76.31,4.9,15.84,8,32.07,10.68,48.41,3,16.75,5.86,33.52,7.84,50.43C174.93,796,176.16,806.23,175.77,816.34Z"/><path class="cls-1" d="M143,825.4c0,.13-.05.26-.08.39C142.94,825.66,143,825.52,143,825.4Z"/><path class="cls-2" d="M159,174.6a1057.57,1057.57,0,0,1-34.16,109.58c-1.32,3.51-2.68,7-4.05,10.51A714.16,714.16,0,0,1,69.13,401.2c-2.56,3.27-7.55,14.34-13.22,25.85a213.43,213.43,0,0,1-11.57,21.22,45.61,45.61,0,0,1-4.89,6.51A14.43,14.43,0,0,1,36.9,457a5.49,5.49,0,0,1-1,.57,3.28,3.28,0,0,1-4-.41,7.09,7.09,0,0,1-1.84-2.6,6.22,6.22,0,0,1-.41-1.78A10.47,10.47,0,0,1,31,447.34a67,67,0,0,1,4.46-7,23,23,0,0,0,2.75-5.09c2.2-4.06,4.34-8.16,6.46-12.28,9.13-17.65,17.87-35.51,28-52.64,25.5-47.06,44.46-97,60-148.2,15-48.49,27.43-98.31,32.08-149,1-15.41-.65-30.79-3.3-46-.09-.59-.2-1.16-.3-1.74-.23-1.81-.73-3.81-1-5.79a14.35,14.35,0,0,1-.12-2.53,6.53,6.53,0,0,1,2.59-5.16c3.74-2.35,8.28,0,8.94,3.43a3.68,3.68,0,0,1,.09.82A5.44,5.44,0,0,1,170.08,20q.91,3.43,1.67,6.86C182.61,76,169.22,126.31,159,174.6Z"/><path class="cls-2" d="M643.13,445.62c-16.63-21.52-25.1-47.94-38-71.64-11.88-24.92-19.39-51.73-26.48-78.32-4.19-15.4-8.71-30.92-10.93-46.73-3.74-22.2-7.43-44.42-10.25-66.76-4.95-33.23-5.71-66.88-7.71-100.38-1.28-19.72-4.66-39.63-1.29-59.33.91-3.73,1.13-11.32,6.32-10.43a3.8,3.8,0,0,1,2.35,3.76c.15,1.58.53,3.42-.71,4.71-2.53,18.42.73,36.83,2.54,55.16,3,33.15,3.93,66.55,8.89,99.51,2.61,19.23,5.66,37.86,8.93,56.71,2.13,12.3,3.85,24.69,7,36.79q2.19,7.9,4.32,15.82a23.69,23.69,0,0,0,.73,3.86,24.22,24.22,0,0,0,1.17,3.11c6.41,23.5,13.13,46.94,22.82,69.31,9.12,18.06,16.55,34.88,25.41,52.49,3.92,8.21,8.13,16.29,13.74,23.5,3.29,4.28-.27,11.12-4.65,11.12A5.44,5.44,0,0,1,643.13,445.62Z"/><path class="cls-2" d="M689.54,852.3a41.31,41.31,0,0,1-6.48,7.87A19.26,19.26,0,0,1,670.32,865c-.36,0-.72,0-1.09,0a25.12,25.12,0,0,1-17-7.52,29.15,29.15,0,0,1-6.13-10.19c-10.53,29.21-37.26,10.38-39.42-12.55-2.67,6.42-5.66,13.06-10.69,18-8.85,8.9-19.93,5.53-24.76-5.65a60.39,60.39,0,0,1-4.18-15.15c-.64-3.74-1.1-7.52-1.68-11.24-.09-.75-.18-1.51-.26-2.25-1.65-14.72-1.83-27.94-1.84-42.33.52-30.18,4.51-60.22,9.15-90,4.69-24,8.51-49.95,13.07-73.46,8.26-37,16.2-74.24,29.83-109.67,5-13.54,10.52-27.2,16.48-40.47,2.26-5,4.58-10,7-14.83.71-1.17,1.5-2.83,2.41-4.58,2.32-4.46,5.32-9.41,9.35-7.7a4.45,4.45,0,0,1,.58.38,5.25,5.25,0,0,1,2,3.77,4.32,4.32,0,0,1-2.69,4.61c-.56,1.16-1.12,2.33-1.65,3.5q-3.49,7.36-6.71,14.86a708.71,708.71,0,0,0-26.57,73.44c-10.75,40.25-19.94,80.89-26,122-8.36,45.91-15.9,92.57-13.62,139.37.08,1.34.17,3,.27,5a10.17,10.17,0,0,0-.36,5.42c0,3.47.24,6.95.5,10.42,0,.49.07,1,.11,1.48s.06,1.07.1,1.6c.22,3.41.81,7.21,2.56,10.27.15.24.29.48.44.71,1.26,5.76,3,10.42,5.37,12.31,5.72.58,8.56-6.8,10.95-10.94,4.14-8.23,6.09-17.24,7.62-26.24,1.29-4.18,0-10.2,4.79-12.29,2.71-1.22,5.58,1.15,6.1,3.77.73,5.58.82,11.26,1.42,16.88,1.31,12.24.49,29.08,13.91,34.7,11,1.63,11.46-34,12.8-40.5,1.8-4.41,7.76-4.33,8.73.57h0c2.39,14.63-1,41.36,19.34,43,4.21.39,7.71-2.34,9.88-5.73,1.25-2.34,3-5.17,5.4-5.55A4.35,4.35,0,0,1,689,843C691.93,845.71,691.35,849.1,689.54,852.3Z"/><path class="cls-2" d="M723.55,12.69c-.2-5.94-1.85-11.1-8.77-10.62-3.5-.18-7-.35-10.46-.39-22.85.28-45.63-3.47-68.41-.58-4.88.32-9.74.78-14.6,1.34-7.88,1.05-15.83.48-23.74.93-14.31.82-28.6,1.83-43,1.85-3.52-.15-5.57.82-6.73,2.4-1.81,2.44-1.45,6.34-1.08,9.77,0,1.13,0,2.28.07,3.41.06,2.64.18,5.29.5,7.89,0,.27.07.57.11.89.37,3.09,1,7.68,4.82,7.51a3.12,3.12,0,0,0,2.92-2.8,3.57,3.57,0,0,0-.83-2.85,64,64,0,0,1-.08-10.36c.08-1.4.22-2.79.39-4.18.83,0,1.68.08,2.51.1,1.35.07,2.72.09,4.07.12,15.57.25,31.13-1.38,46.7-1.38,14.35-.09,28.6-2.41,43-3,7.71-.43,15.5.23,23.2.68,13,.91,26,.29,39,.67,1.44,39.5-2.83,78.9-3.22,118.38-1.17,26.69-.25,53.45-2,80.12-1.35,17.52-1,35.08-1.15,52.62-1.24,21.82-.77,43.63-1.37,65.45-2,24.3-2.32,48.68-2.48,73.06q-.07,9.06-.12,18.14c-.18,4.66-.4,9.31-.61,14-.56,12.06-1.08,24.11-.75,36.21-1.55,33.25.43,66.48.61,99.74-.77,22.6-1,45.22-1.64,67.83-.67,17.67-1.76,35.33-1.61,53,.07,25.82-1.57,51.58-2.9,77.35a525.68,525.68,0,0,1-6,62.51c-.64,2.69-1.27,5.43-2.85,7.76a9.52,9.52,0,0,0-1.28,1.83c-1.5,2.8-1.6,6.37.74,8.8a7.36,7.36,0,0,0,3,1.38c8.45,1.49,12.11-19.29,13.13-29.5q3.17-23.84,4.41-47.87c1.4-25.54,3-51.06,3.45-76.63-.16-17.66.75-35.28,1.61-52.91.77-26.36,1.18-52.72,1.82-79.07.12-22.54-1.17-43.82-1.31-66.55.93-22.31-.06-44.69,1.47-67,1.26-25.67.42-51.41,1.58-77.09,1.1-17.09,2.25-34.15,1.85-51.29-.12-18,1.24-36,.91-54-.43-17.3.94-34.51,1.59-51.78.65-17.66.35-35.35.72-53,.58-17.48.73-34.95,1.36-52.43C723.59,66.36,725.08,39.5,723.55,12.69ZM552,37.08l-.17,0,.28,0Z"/><path class="cls-2" d="M49,367.94c-2.4-1.35-3.18-4.73-2.11-7.16q6.06-13.92,12-27.87c9-20.46,16.54-41.49,24-62.55,4.91-14.68,9.44-29.48,13.21-44.49,1.27-4.89,2.46-9.86,4.15-14.64a8.69,8.69,0,0,1,2.61-4.32c2.46-1.77,6.76-.8,7,2.72a4.21,4.21,0,0,1-2.18,4.34c-8.2,39.68-20.88,78.28-36.68,115.56-5.21,12-10.65,23.93-16,35.88C54,367.8,51.34,369.31,49,367.94Z"/><path class="cls-2" d="M45.94,334.48c-2.58-.49-3.93-3.42-3.55-5.84,2.46-16.49,5.48-32.89,8.09-49.36C53.42,261.19,56,243,57.57,224.75c.42-3.63.08-7.45,1.13-11a2.68,2.68,0,0,1,5.2,1l0,0c.72,29.86-4.17,59.68-8.9,89.11-1.47,8.78-2.74,17.61-4.12,26.41C50.55,332.66,48.48,335,45.94,334.48Z"/><path class="cls-2" d="M81.71,614c-5.3-21.54-10-43.24-16.25-64.52C59.89,531.12,51,514.07,44.55,496.08c-1.07-2.68-1.66-6.56,1.38-8.16,1.44-.68,3.13-.42,4.68-.52,1.79,0,2.89,1.89,2.87,3.49A3.38,3.38,0,0,1,51,494.26c9.57,22.34,20.75,43.68,26.4,67.4,4.37,16.69,8.78,33.42,12.35,50.3C90.49,617.45,83.32,619.91,81.71,614Z"/><path class="cls-2" d="M55.94,671.54c-4.79-.34-4.31-5.93-4.44-9.45-1.89-23.9-3.35-47.85-5.88-71.69-1.75-19.19-6.94-37.77-10.42-56.67-.34-2.39-.58-5.61,1.85-7a2.42,2.42,0,0,1,2.83-.88c2.06.76,2.45,3.6,1.29,5.25,3,12.81,7,25.41,9.57,38.32,4.37,22,5.78,44.51,7.6,66.86.93,10.05,1.79,20.08,2,30.17C60.41,668.91,58.55,671.57,55.94,671.54Z"/><path class="cls-2" d="M616.65,605.28c-2.81-1-3.68-4.35-3.07-7,2.16-8.91,4.72-17.73,6.9-26.64,5-22.46,14.83-43.31,22.1-65.06,3.53-10.34,7.37-20.58,11.29-30.79,2-3.72,6.2-21.18,11.73-17.84,2,1.34,2.14,4.16.95,6.05-2.38,6.79-4.76,13.64-7,20.33-7.27,21.9-14.12,43.8-22.46,65.31-2.73,8.4-5.09,16.91-7.25,25.47-2.24,8.89-4.63,17.72-7.24,26.51C621.88,604.2,619.29,606.3,616.65,605.28Z"/><path class="cls-2" d="M646.88,686.78c-2.72-.56-4-3.52-3.7-6.09.38-4.62.8-10.62,1.11-14.77.64-9,1.63-18,2.92-27,2.93-17.21,3.18-34.67,5.49-51.94,2.61-19.39,8.44-38.13,12.43-57.25,2.72-12.1,4.89-24.41,9.27-36.05a11.47,11.47,0,0,1,5.38-6.6c3.8-1.7,5.59,4.58,2.34,6.22-1,.65-1.13,2.05-1.6,3.07-1.64,5.38-2.8,10.87-3.91,16.29-1.68,8.36-3.15,16.82-4.83,25.06-3.14,16-7.45,31.75-9.7,47.89-1.42,10.08-2.05,19.62-2.7,29.61-1.06,14.26-3.67,28.33-5.23,42.53-.46,4.46-.79,9.25-1.13,13.61C652,676.18,654.15,687.3,646.88,686.78Z"/><path class="cls-2" d="M638.56,370.08c-4.12-8.54-7.1-17.58-11.15-26.16-5.39-11.5-8.92-23.79-12-36.09-2.69-12.25-3.57-24.95-5.78-37.27-1.71-10.32-3.88-19.85-5.2-30.14-1.79-14.32-3.31-28.68-5-43,0-4.37-4.31-19.65,3.27-18.38,2.3.21,2.73,3.43,1.22,4.78,2.78,19.68,5.56,39.39,8.64,59,3.77,18.62,7.48,37.26,9.88,56.12a201.61,201.61,0,0,0,11.71,37.6c4.39,9.43,8.27,19,12.11,28.66C648.33,370.27,641.92,375.69,638.56,370.08Z"/><path class="cls-2" d="M666.7,372.32c-3.36-17.52-10-34.3-12.21-52.07-1.8-17.71-4-35.38-5.79-53.09-.87-9.07-1.72-18.16-3-27.2-1.24-11.25-4.37-22.65-2.92-34,.28-2.48,2.28-5.12,5-4.05,2.57.38,2.64,4.56.35,5.36-.34,10.7,2.89,21.44,4.39,31.92,4.19,27.43,7.46,55,11.08,82.5,2.65,16.18,8.93,31.46,12.34,47.47C677.56,375.89,669,379.85,666.7,372.32Z"/><path class="cls-2" d="M628.3,462c-10.37-1.72-13.46-10.68-5.68-18,5.7-5.91,12.69-10.43,19.55-14.87,10-6.38,20.22-12.41,31.12-17.09,6.94-2.91,30.73-11.84,36.48-6.67,3.07,3.2.89,7.57-3.36,7.81,6.16.64,9.54,8.1,5.78,13.08-10.05,11.33-23.12,19.85-36.69,26.4C660.88,459,644.41,464.74,628.3,462Z"/><path class="cls-2" d="M87,452.2c-3.42-7.85-11.3-12.49-17.88-17.47a73.71,73.71,0,0,0-13.2-7.68,82.55,82.55,0,0,0-11.2-4.12,104.92,104.92,0,0,0-22.65-3.85L20.53,419l0,0c-4.09,0-5.35,6-2.43,8.43l.13.11a10.8,10.8,0,0,0,4.16,1.71c1.05.24,2.13.41,3.17.63l.94.21a4.66,4.66,0,0,0-.39.49,7,7,0,0,0-.81,1.44,7.77,7.77,0,0,0-2.77,1.77,6.29,6.29,0,0,0-1.4,2.09,10.2,10.2,0,0,0-.65,2.26,26,26,0,0,0-3.57,1,17.94,17.94,0,0,0-6.44,3.62,8.06,8.06,0,0,0-2.36,9.07,17.24,17.24,0,0,0,2.72,4.14c2.92,3.43,7.35,6.72,12.35,9.58,9.46,5.4,20.94,9.25,28,9.39l1.33,0a72.65,72.65,0,0,0,15.28-1.27C79.64,471.34,90.67,465.34,87,452.2Zm-51,5.4c-2-.91-3.93-1.92-5.84-3s-3.92-2.33-5.81-3.61h0l-.61-.42c.82-.18,1.64-.38,2.46-.53l.53.47a32.7,32.7,0,0,0,3,2.31c2.3,1.56,4.75,2.88,7.21,4.22,1.12.61,2.23,1.22,3.34,1.87.77.45,1.53.9,2.27,1.38-.58-.19-1.15-.4-1.73-.64C39.13,459,37.52,458.36,35.94,457.6Z"/><path class="cls-2" d="M21.76,449.63a19,19,0,0,1-3.27-6A8.62,8.62,0,0,1,17,439.21c-.86-3-1.86-6.38-.62-9.43a4.68,4.68,0,0,1,4.43-3.15c3.13.18,4.69,3.32,6.54,5.42,2.49,2.87,4.92,5.87,8,8.16,1.23.68,2.78-.08,4.11-.23,2-.45,3.48,1.57,3.67,3.3a3.86,3.86,0,0,1-2.81,4.35c-3.93,1.2-7.54,1.55-10.78-1.48C29.34,450,24.58,452.79,21.76,449.63Z"/></g></g></svg>